<svg xmlns:dc="http://purl.org/dc/elements/1.1/" xmlns:cc="http://creativecommons.org/ns#" xmlns:rdf="http://www.w3.org/1999/02/22-rdf-syntax-ns#" xmlns:svg="http://www.w3.org/2000/svg" xmlns="http://www.w3.org/2000/svg" viewBox="0 0 762 762" fill="none"><metadata><rdf:RDF><cc:Work><dc:format>image/svg+xml</dc:format><dc:type rdf:resource="http://purl.org/dc/dcmitype/StillImage"/><dc:title>Adventurer</dc:title><dc:creator><cc:Agent><dc:title>Lisa Wischofsky</dc:title></cc:Agent></dc:creator><dc:source>https://www.instagram.com/lischis_adventures/</dc:source><cc:license rdf:resource="https://creativecommons.org/licenses/by/4.0/"/></cc:Work><cc:License rdf:about="https://creativecommons.org/licenses/by/4.0/"><cc:permits rdf:resource="https://creativecommons.org/ns#Reproduction"/><cc:permits rdf:resource="https://creativecommons.org/ns#Distribution"/><cc:permits rdf:resource="https://creativecommons.org/ns#DerivativeWorks"/><cc:requires rdf:resource="https://creativecommons.org/ns#Notice"/><cc:requires rdf:resource="https://creativecommons.org/ns#Attribution"/></cc:License></rdf:RDF></metadata><mask id="avatarsRadiusMask"><rect width="762" height="762" rx="0" ry="0" x="0" y="0" fill="#fff"/></mask><g mask="url(#avatarsRadiusMask)"><path d="M396.01 164.85c37.82 4.9 74.21 19.64 104.8 42.39 6.15 4.84 12.48 9.33 18.02 14.92 23.77 21.98 42.73 49.02 55.13 78.95 9.35 22.31 14.72 46.04 16.64 70.14 6.62.81 13.05 2.14 19.12 5 15.54 6.93 27.08 20.94 31.78 37.21 2.63 9.56 3.56 19.75 1.72 29.55-2.96 18.76-13.72 36.13-29.37 46.92-10.94 7.65-24.49 12.03-37.86 11.68-5.13-.05-10.04-1.6-15.13-1.79-1.85 2.17-3.23 4.84-4.76 7.25-18.66 29.62-44.57 54.51-74.64 72.4-28.1 16.73-59.9 27.16-92.46 30.32-11.08.7-21.87 2.05-32.98.74-51.69-2.3-102.07-23.44-140.15-58.43-29.03-26.55-50.84-60.83-62.54-98.39-7.09-22.85-10.62-46.78-10.07-70.71.52-40.34 12.53-80.58 33.94-114.76 19.1-30.81 45.91-56.58 77.2-74.83 29.63-17.28 63.35-27.68 97.59-29.87 14.66-1.47 29.44-.37 44.02 1.31Z" fill="#000"/><path d="M363 169.06c48.47-1.39 97.32 14.7 135.81 44.12 6.55 4.06 11.72 9.49 17.36 14.64 24.33 22.63 43.2 50.95 54.93 82.02 7.43 19.61 11.86 40.2 13.56 61.09-8.89.74-17.34 2.34-25.38 6.38-2.19 1.03-1.89 4.95.68 5.23 2.35.23 4.98-1.51 7.24-2.2 14.62-5.37 31.32-4.35 44.78 3.68 11.69 6.78 20.09 18.16 23.89 31.06 2.6 8.25 2.68 17.41 1.76 25.95-2.5 17.35-12.35 33.73-26.73 43.81-15.71 11.33-37.17 14.64-54.93 6.2-3.17-1.43-5.94-3.58-9.08-5.05-2.95-1.09-4.88 2.79-2.7 4.75 3.17 2.76 7.34 4.52 11 6.56-20.14 34.15-49.45 62.7-84.41 81.47-30.2 16.31-64.44 25.53-98.78 26.15-27.63.72-55.33-4.04-81.21-13.72-30.32-11.24-57.84-29.43-80.37-52.6-22.67-23.37-39.92-51.88-50.2-82.77-14.96-44.64-14.91-94.01.27-138.59 11.05-33.06 30.28-63.21 55.37-87.39 29.67-28.73 67.65-48.54 108.13-56.67 12.8-2.52 25.94-4.24 39.01-4.12Z" fill="rgba(118, 57, 0, 1)"/><path d="M605.03 404.4c2.63-.1 3.44 3.8 1.36 4.98-3.69 1.83-7.82 2.77-11.64 4.35-5.82 2.04-11.28 4.76-16.68 7.72 4.29 2.34 8.86 4.74 12.71 7.76 2.58 2.09 4.85 4.35 5.33 7.8-.26 3.59-2.73 6.55-5.45 8.69-5.86 4.66-13.92 7.18-20.79 10.26-1.75.62-4.43 1.99-5.59-.26-1.02-1.74-.06-3.11 1.57-3.87 6.65-3.3 14.86-5.62 20.79-10.16 1.37-1.14 3.39-2.74 3.61-4.62-4.07-5.63-12.42-8.59-18.23-12.09-2.34-1.72-2.29-4.24-.16-6.13 7.27-5.64 16.98-9.26 25.57-12.38 2.42-.83 5.03-1.95 7.6-2.05Z" fill="#000"/><g transform="translate(-161 -83)"><path d="M562.01 467.8c1.68-.01 3.23.31 4.88.58-.28 2.28.34 4.36-2.64 4.79-9.41.77-18.83 1.46-28.25 2.07-4.32.2-8.78 1.16-13.09.84-1.95-.79-2.63-2-2.04-4.1 1.45-1.38 3.19-1.54 5.09-1.69 12.03-.64 24.02-1.86 36.05-2.49ZM396.33 481.31c1.23 1.24 2.2 1.91 2.08 3.85-1.43 2.52-4.92 2.05-7.39 2.36-8.05.21-16.06 1.68-24.09 1.71-2.71-.36-2.11-2.53-2.53-4.58 10.33-2.64 21.37-1.79 31.93-3.34ZM618.89 483.07c1.04.75 2.08 1.48 3.13 2.22.8 13.5-2.65 27.36-9.93 38.78-5.97 9.49-14.43 17.43-24.32 22.73-14.52 7.96-32.32 9.86-48.26 5.44-13.99-3.8-26.82-12.65-35.32-24.41-7.23-9.91-11.69-21.68-12.38-33.96 2.1-3.32 5.74-3.01 9.17-3.26 30.68-2.09 61.35-4.13 92.02-6.22 8.69-.2 17.2-1.64 25.89-1.32Z" fill="#000"/><path d="M616.28 488.65c.74 20.78-11.03 41.27-28.85 51.8-11.82 6.93-25.88 9.98-39.46 7.75-13.48-1.97-26.14-8.82-35.27-18.9-8.02-8.88-13.6-20.53-14.76-32.49 11.17-1.24 22.38-1.68 33.58-2.64.38 8.47 1.87 17.19 5.19 25.03 1.9 4.28 5.3 10.07 10.24 11.13 4.79.85 7.97-2.58 9.97-6.45 4.58-9.28 4-21.49 3.22-31.56 18.7-1.25 37.42-2.66 56.14-3.67Z" fill="#fff"/><path d="M415.01 499.71c8.09-.69 16.13-1.44 24.27-1.05.87.83 1.75 1.67 2.64 2.49.19 15.99-6.7 31.57-18.78 42.06-11.41 10.04-27.07 15.01-42.17 13.21-11.39-1.12-22.22-6.03-30.73-13.65-10.08-8.95-16.44-21.51-17.98-34.89 1.04-.88 2.19-2.68 3.63-2.82 13.04-1.6 26.05-1.69 39.11-2.95 13.35-.64 26.66-1.71 40.01-2.4Z" fill="#000"/><path d="M436.36 504.29c-.69 5.07-1.44 9.93-3.28 14.74-4.03 10.88-12.06 20.17-22.2 25.81-7.22 4.08-15.61 6.16-23.88 6.33-13.14-.11-26.09-5.46-35.25-14.93-7-7.05-11.53-16.13-13.37-25.88 11.33-.98 22.74-1.64 34.1-2.24-.06 7.18.95 14.37 4.79 20.58 1.69 2.61 4.35 5.19 7.69 4.99 3.57-.13 6.11-3.28 7.5-6.27 2.85-6.64 2.88-13.67 2.25-20.74 13.86-.8 27.77-2.18 41.65-2.39Z" fill="#fff"/></g><g transform="translate(-161 -83)"><g fill="#000"><path d="M606.99 397.59c1.52-.4 3.26.6 4.74.97-.11 1.2-.17 2.45-.47 3.61-1.58 1.49-3.57 2.61-5.39 3.78-22.77 14.6-46.18 28.4-70.32 40.63-11.53 5.73-23.34 11.3-35.55 15.44-6.86 2.19-13.72 4.28-21.01 3.44-3.31-.31-6.16-3.02-6.23-6.43-.04-4.22 3-8.6 5.08-12.15 1.28-2.68 4.5-3.04 6.99-4.12 37.24-13.75 74.44-27.65 111.67-41.45 3.48-1.23 6.91-2.81 10.49-3.72ZM338.99 432.64c29.88 5.94 60.13 12.03 90.02 18.02 2.27.32 4.6.07 6.85.45 2.45 2.3 3.64 6.21 4.54 9.37 1.17 4.09-.15 8.77-3.91 11.01-4 2.62-9.91 2.16-14.5 1.89-8.74-1-17.41-3.8-25.68-6.74-19.61-7.16-38.69-16.93-56.97-26.97-1.67-.96-3.68-1.94-4.79-3.55-.38-2.88 1.85-4.16 4.44-3.48Z"/></g></g><g transform="translate(-161 -83)"><path d="M469.99 539.64c9.45-.62 18.37 5.2 25.18 11.18 9.61 8.8 17.31 20.09 23.54 31.49 12.62 23.56 20.84 50.09 23.56 76.68.49 4.4 1.53 8.68-2.43 11.86-7.32 3.5-15.84 4.95-23.84 6.01-15.97 1.38-32.52-.85-47.99-4.85-2.36-.75-4.53-.89-5.44-3.57-9.45-20.8-15.71-43.16-17.97-65.91-1.01-12.34-1.07-24.91 1.8-37.02 1.62-6.56 4.25-13.27 8.72-18.42 3.72-4.29 9.1-7.4 14.87-7.45Z" fill="#000"/><path d="M474.49 545.63c9.4 2.08 17.07 9.35 23.35 16.25-13.95 5.98-30.91 9.6-45.86 5.81 1.27-6.17 3.77-12.91 8.25-17.49 3.61-3.79 9.07-5.91 14.26-4.57Z" fill="#fff"/><path d="M501.86 566.88c12.64 16.83 21.52 36.66 27.44 56.79-6.29 1.3-11.94 3.96-17.5 7.1-11.57 6.75-22.43 15.88-30.04 26.97-2.28 3.53-4.69 6.5-4.54 10.94-2.97-.77-5.95-1.45-8.96-2.06-8.42-17.85-13.97-37.13-16.92-56.63-1.6-12.46-2.48-24.55-.38-37.02 5.4 1.04 10.5 2.3 16.05 1.94 5.01-.39 10.05-.95 14.99-1.89 6.9-1.27 13.26-3.89 19.86-6.14Z" fill="#8F2E45"/><path d="M527.55 629.64c1.49-.65 2.4.12 3.76.63 2.74 11.73 5.07 23.49 5.63 35.56-7.95 3.25-16.19 4.63-24.68 5.56-10.48.94-20.25-.66-30.6-1.81 4.52-9.01 10.37-16.33 17.9-23 8.13-7.09 17.68-13.56 27.99-16.94Z" fill="#EA869E"/></g><g transform="translate(-161 -83)"><g fill="#CA8D87"><path d="M630.35 552.39c16.3-3.73 33.88 3.26 42.95 17.32 10.02 14.91 8.65 35.85-3.36 49.25-12.24 14.36-34.25 18.02-50.57 8.65-13.03-7.21-21.33-21.71-20.78-36.62.27-18.28 13.89-34.76 31.76-38.6ZM373.13 564.86c13.96 8.6 20.73 26.53 15.96 42.21-2.18 7.66-6.83 14.23-12.93 19.29-5.35-5.15-10.7-10.39-15.38-16.16-7.4-8.33-13.6-18.04-19.57-27.43-3.4-5.87-6.82-11.21-8.9-17.61 12.17-7.81 28.64-8.34 40.82-.3Z"/></g></g><g transform="translate(-161 -83)"><path d="M427 196.56c19.44-.9 39.57 1.11 58.04 7.46 1.76.74 3.21.09 4.96-.27 12.93-3.13 25.79-3.37 39-2.71 19.39 1.53 38.5 7.31 55.74 16.25 1.44.59 2.62 1.49 4.23.83 6.07-1.88 12.01-4.11 18.2-5.63 14.04-3.67 28.42-3.82 42.83-3.13 16.41 1.52 32.6 6.41 47.66 13 15.77 7.19 30.09 17.41 42.08 29.91 11.45 11.95 19.85 27.29 22.5 43.71 1.78 12.24 1.38 24.56-3.03 36.23-2.17 5.66-4.85 12.5-9.49 16.59-1.86 1.56-5.48 1.06-5.66-1.82-.42-4.71.01-9.32-1.14-14-2.58-11.73-9.84-21.7-19.41-28.76 1.34 3.63 2.56 7.38 4.29 10.85 5.22 9.66 8.95 20.32 12.45 30.7 8.6 25.75 15.21 52.29 18.91 79.19.93 9.95 2.5 21.08.44 30.89-.43 1.97-1.22 4.15-3.56 4.3-4.07-.26-7.9-1.28-12.03-.66-15.22 1.87-30 8.15-42.25 17.32-.87.6-1.79 1.06-2.75 1.36-1.93-.52-2.79-1.8-3.33-3.64-1.65-5.79-2.73-11.71-4.82-17.43-1.8-5.02-4.26-9.45-6.54-14.28-2.46-5.09-4.39-10.39-7.04-15.39-7.45 6.27-15.56 11.62-24.65 15.21-5.41 2.02-10.28 4.17-16.17 4.03-.59-2.39-.96-3.48.72-5.51 4.68-5.7 6.99-13.04 8.31-20.2 1.62-11.32-1.62-23.92-8.3-33.2-6.27-8.23-14.79-15-23.59-20.36-5.24-3.28-10.93-5.69-16.18-8.95-.95 25.78-11.13 51.33-28.57 70.4-4.04 4.46-8.86 7.98-14.08 10.94-1.09.49-2.48 1.5-3.7 1.16-1.91-.32-3.16-2.01-2.55-3.94 1.07-4.33 2.8-8.4 3.52-12.84 1.98-12.43-.81-25.05-5.74-36.46-3.13-7.26-7.76-13.39-12.59-19.58-5.65 19.13-13.39 39.01-25.84 54.8-3.07 3.71-6.38 7.72-10.45 10.37-1.96 1.11-5.21.53-5.07-2.24.25-5.54 1.09-10.73-.45-16.2-1.58 5.88-3.29 11.54-6.08 16.98-.9 1.56-1.86 3.21-3.8 3.53-1.4.3-2.84-.73-4.03-1.37-21.96-13.95-41.44-31.55-57.41-52.1-3.85 11.56-6.07 23.9-5.76 36.1 0 3.49 1.41 7.27.82 10.68-2.19 1.93-5.03.75-7.43-.03-16.47-6.34-31.37-16.58-43.24-29.63-11.03-12.12-20.16-27.51-22.89-43.84-6.07 9.52-11.68 19.56-15.76 30.09-1.15 2.51-1.2 7.07-4.39 7.76-1.49.8-3.08-1.24-3.6-2.47-3.21-7.02-5.17-14.48-6.13-22.14-2.37 2.8-4.4 5.66-5.83 9.07-.68 1.29-1.54 3.44-3.37 2.97-2.04.2-2.91-2.74-3.43-4.25-3.81-13.28-7.17-26.25-6.77-40.21-.4-18.35 6.85-36.57 18.96-50.24 8.58-9.81 19.62-18.41 32.31-21.99.04-7.03 1.51-13.82 4.49-20.19 6.53-14.03 17.79-25.19 30.93-33.14 14.11-8.61 31.15-12.72 47.51-13.88Z" fill="#000"/><path d="M429 202.22c18.27-.6 36.73.98 54.18 6.69 6.93 1.84 12.01-.99 18.82-1.48 15.55-2.19 31.72-.93 46.98 2.61 28.03 6.68 53.47 21.94 74.05 41.93 3.41 3.24 6.28 6.76 10 9.65.97-.78 2.72-1.31 2.81-2.73.32-1.97-1.13-3.09-2.27-4.45-11.59-12.23-24.89-23.43-39.49-31.91 8.51-2.85 16.99-5.49 25.92-6.71 13.34-1.43 26.54-1.77 39.8.67 17.38 3.44 34.76 9.44 49.85 18.84 10.33 6.33 19.75 14.19 27.92 23.13 12.21 13.64 19.87 31.08 19.94 49.54.36 11.04-2.71 21.6-7.75 31.33-.93-8.08-2.95-15.84-7.25-22.82-5.67-9.07-13.58-17.23-23.72-21.15-2.41-.73-4.83 1-4.27 3.67 1.14 3.47 3.2 6.61 4.54 10.02 4.35 10.45 7.58 21.55 5.72 32.96-1.94 15.97-10.11 29.68-21.27 40.98 5.97-26.19-1.6-54.82-20.35-74.14-1.39-1.54-3.85-1.69-4.85.34-.81 2.47.86 3.6 2.24 5.29 12.45 13.76 19.19 32.01 19.29 50.52-.25 14.45-4.23 28.68-11.98 40.91-9.67 15.51-24.79 27.37-42.12 33.15 3.06-7.02 5.74-14.3 5.81-22.06.6-13.41-4.21-27.29-13.39-37.14-9.09-9.77-20.27-17.03-32.25-22.77-2.86-1.4-6.8-3.44-8.48-6.22-1.02-6.83-2.59-13.48-5.41-19.81-.66-1.26-1.45-2.76-3.04-2.9-1.83-.27-3.6.81-3.1 2.83 1.98 5.65 4.44 10.97 5.18 17.01 1.54 7.84.33 15.21-.65 23-2.87 16.84-9.41 32.95-19.76 46.6-4.14 5.6-8.81 10.73-14.58 14.69 3.36-11.52 2.99-23.8-.44-35.25-3.6-13.37-11.02-24.9-20.4-34.94 4.72-18.99 6.17-38.63 4.23-58.11-1.57-14.59-5.82-29.24-12.19-42.46-1.16-2.35-3.04-1.48-5.12-1.26-.08 2.29.03 4.22 1.11 6.29 9.27 20.39 12.75 42.97 10.95 65.25-1.35 20.24-6.8 40.29-14.58 58.98-5.29 12.57-11.99 24.48-21.39 34.46.12-8.81-1.44-17.91-4.19-26.27-.42-1.89-1.59-2.58-3.04-3.67-3.4 2.37-2.49 6.01-3.22 9.65-.81 8.46-3.02 16.39-6.4 24.17-15.1-9.14-28.85-20.74-41.15-33.37-15.11-15.67-27.8-33.31-36.58-53.29-6.3-14.78-11.05-30.23-10.59-46.47-.4-12.51 2.66-25.07 8.99-35.87 6.25-10.59 15.79-18.87 26.88-24.08 10.13-4.83 20.97-7.04 32.1-7.91 3.15-.4 2.37-2.34 2.71-4.73-1.91-.49-3.76-.9-5.76-.67-16.19 1.26-32.05 6.25-44.94 16.35-13.54 10.42-22.19 26.08-24.78 42.88-2.47 14.66-.71 28.92 2.92 43.19-5.75-3.89-11.39-8.14-16.51-12.85-8.93-8.18-15.73-18.28-20.63-29.32-3.91-8.84-5-18.99-3.18-28.46 3.68-14.96 14.83-27.76 27.29-36.36 15.08-10.41 32.74-14.84 50.84-15.95Z" fill="rgba(86, 35, 6, 1)"/><path d="M344.4 269.15c1.66 13.46 7.92 24.9 15.77 35.71 8.73 11.69 20.01 19.99 32.05 27.95 2.41 1.52 2.69 3.87 3.74 6.32 5.02 13.12 12.44 25.62 20.45 37.14-5.26 14.8-8.13 31.07-6.56 46.77-15.12-5.69-28.85-15.27-39.87-27.03-10.94-11.83-19.39-26.01-22.32-42.01-1.11-8.28-1-17.81 2.95-25.39.83-1.86 2.11-3.67 1.89-5.79-1.31-2.08-3.42-2.31-5.01-.4-4.34 6.32-5.69 14.15-6.4 21.63-.18 3.35-2.57 6-4.29 8.75-6.12 9.4-11.46 19.5-15.73 29.88-2.08-5.71-3.42-11.62-3.76-17.69-.09-2.23-.79-4.26-1.57-6.33-1.27.42-2.48.65-3.48 1.6-3.21 2.78-5.97 6.28-8.54 9.63-2.92-11.2-5.5-22.21-5.31-33.89-.08-15.95 5.67-31.58 15.6-44.01 8.05-10.02 18.04-18.68 30.39-22.84ZM730.99 337.12l.16.36c8.95 23.83 15.4 48.71 20.04 73.72 2.18 13.74 4.99 28.92 2.98 42.77-5.09-.35-10.13-.46-15.17.43-13.71 2.35-26.95 8.11-38.38 16-1.2-4.41-2.33-8.85-3.71-13.21-2.44-7.54-6.91-14.58-10.11-21.98-1.66-3.93-3.39-7.81-5.66-11.43 9.02-9.43 15.69-20.05 20.03-32.37 6.99-4.34 12.54-11.33 17.26-17.98 7.56-10.65 12.02-23.24 12.56-36.31Z" fill="rgba(86, 35, 6, 1)"/><path d="M716.8 472.18c1.5 1.19 1.29 3.27-.23 4.34-4.55 3.52-9.55 6.43-14.06 10.02-2.46 1.85-4.78 3.87-7.18 5.78-1.16.9-2.98 2.16-4.24.74-1.62-1.72-.46-3.64 1.05-4.93 6.23-5.49 13.01-10.42 19.87-15.1 1.12-.73 3.76-2.28 4.79-.85Z" fill="#000"/></g></g></svg>