<svg xmlns:dc="http://purl.org/dc/elements/1.1/" xmlns:cc="http://creativecommons.org/ns#" xmlns:rdf="http://www.w3.org/1999/02/22-rdf-syntax-ns#" xmlns:svg="http://www.w3.org/2000/svg" xmlns="http://www.w3.org/2000/svg" viewBox="0 0 762 762" fill="none"><metadata><rdf:RDF><cc:Work><dc:format>image/svg+xml</dc:format><dc:type rdf:resource="http://purl.org/dc/dcmitype/StillImage"/><dc:title>Adventurer</dc:title><dc:creator><cc:Agent><dc:title>Lisa Wischofsky</dc:title></cc:Agent></dc:creator><dc:source>https://www.instagram.com/lischis_adventures/</dc:source><cc:license rdf:resource="https://creativecommons.org/licenses/by/4.0/"/></cc:Work><cc:License rdf:about="https://creativecommons.org/licenses/by/4.0/"><cc:permits rdf:resource="https://creativecommons.org/ns#Reproduction"/><cc:permits rdf:resource="https://creativecommons.org/ns#Distribution"/><cc:permits rdf:resource="https://creativecommons.org/ns#DerivativeWorks"/><cc:requires rdf:resource="https://creativecommons.org/ns#Notice"/><cc:requires rdf:resource="https://creativecommons.org/ns#Attribution"/></cc:License></rdf:RDF></metadata><mask id="avatarsRadiusMask"><rect width="762" height="762" rx="0" ry="0" x="0" y="0" fill="#fff"/></mask><g mask="url(#avatarsRadiusMask)"><path d="M396.01 164.85c37.82 4.9 74.21 19.64 104.8 42.39 6.15 4.84 12.48 9.33 18.02 14.92 23.77 21.98 42.73 49.02 55.13 78.95 9.35 22.31 14.72 46.04 16.64 70.14 6.62.81 13.05 2.14 19.12 5 15.54 6.93 27.08 20.94 31.78 37.21 2.63 9.56 3.56 19.75 1.72 29.55-2.96 18.76-13.72 36.13-29.37 46.92-10.94 7.65-24.49 12.03-37.86 11.68-5.13-.05-10.04-1.6-15.13-1.79-1.85 2.17-3.23 4.84-4.76 7.25-18.66 29.62-44.57 54.51-74.64 72.4-28.1 16.73-59.9 27.16-92.46 30.32-11.08.7-21.87 2.05-32.98.74-51.69-2.3-102.07-23.44-140.15-58.43-29.03-26.55-50.84-60.83-62.54-98.39-7.09-22.85-10.62-46.78-10.07-70.71.52-40.34 12.53-80.58 33.94-114.76 19.1-30.81 45.91-56.58 77.2-74.83 29.63-17.28 63.35-27.68 97.59-29.87 14.66-1.47 29.44-.37 44.02 1.31Z" fill="#000"/><path d="M363 169.06c48.47-1.39 97.32 14.7 135.81 44.12 6.55 4.06 11.72 9.49 17.36 14.64 24.33 22.63 43.2 50.95 54.93 82.02 7.43 19.61 11.86 40.2 13.56 61.09-8.89.74-17.34 2.34-25.38 6.38-2.19 1.03-1.89 4.95.68 5.23 2.35.23 4.98-1.51 7.24-2.2 14.62-5.37 31.32-4.35 44.78 3.68 11.69 6.78 20.09 18.16 23.89 31.06 2.6 8.25 2.68 17.41 1.76 25.95-2.5 17.35-12.35 33.73-26.73 43.81-15.71 11.33-37.17 14.64-54.93 6.2-3.17-1.43-5.94-3.58-9.08-5.05-2.95-1.09-4.88 2.79-2.7 4.75 3.17 2.76 7.34 4.52 11 6.56-20.14 34.15-49.45 62.7-84.41 81.47-30.2 16.31-64.44 25.53-98.78 26.15-27.63.72-55.33-4.04-81.21-13.72-30.32-11.24-57.84-29.43-80.37-52.6-22.67-23.37-39.92-51.88-50.2-82.77-14.96-44.64-14.91-94.01.27-138.59 11.05-33.06 30.28-63.21 55.37-87.39 29.67-28.73 67.65-48.54 108.13-56.67 12.8-2.52 25.94-4.24 39.01-4.12Z" fill="rgba(158, 86, 34, 1)"/><path d="M605.03 404.4c2.63-.1 3.44 3.8 1.36 4.98-3.69 1.83-7.82 2.77-11.64 4.35-5.82 2.04-11.28 4.76-16.68 7.72 4.29 2.34 8.86 4.74 12.71 7.76 2.58 2.09 4.85 4.35 5.33 7.8-.26 3.59-2.73 6.55-5.45 8.69-5.86 4.66-13.92 7.18-20.79 10.26-1.75.62-4.43 1.99-5.59-.26-1.02-1.74-.06-3.11 1.57-3.87 6.65-3.3 14.86-5.62 20.79-10.16 1.37-1.14 3.39-2.74 3.61-4.62-4.07-5.63-12.42-8.59-18.23-12.09-2.34-1.72-2.29-4.24-.16-6.13 7.27-5.64 16.98-9.26 25.57-12.38 2.42-.83 5.03-1.95 7.6-2.05Z" fill="#000"/><g transform="translate(-161 -83)"><path d="M555 424.09c15.07-.45 30.21 4.46 42.06 13.81 18.47 14.28 28.15 38.55 24.23 61.62-.99 7.61-3.96 14.36-6.83 21.38-1.43.59-2.9 1.25-4.4 1.62-3.14-.02-6.34-1.41-9.37-2.2-15.51-4.54-31.55-6.76-47.69-6.93-13.3.45-27.29 2.4-39.34 8.31-2.83 1.28-5.61 2.99-8.59 3.86-3.52-.25-4.36-3.15-5.94-5.74-7.02-13.13-9.05-28.5-6.31-43.08 2.57-13.26 9.31-25.52 19.15-34.79 11.6-11.03 27.01-17.44 43.03-17.86Z" fill="#000"/><path d="M557.001 429.85c13.47-.19 26.63 4.66 37.13 13.01 9.59 7.63 16.7 18.34 20 30.15 4.23 14.46 2.5 30.12-4.26 43.54-6.14-.92-11.86-3.14-17.94-4.39-16.73-3.67-34.37-5.5-51.43-3.48-12.36 1.34-23.99 5.14-34.84 11.18-6.86-11.98-10.07-26.23-7.61-39.92 2-12.66 8.2-24.57 17.42-33.47 10.95-10.62 26.24-16.88 41.53-16.62Z" fill="#fff"/><path d="M381.25 447.09c12.75-1.3 25.87 1.93 36.48 9.14 12.3 8.24 20.94 21.6 23.4 36.21 1.25 8.35.98 17.27-1.59 25.36-3.82 12.78-12.47 23.95-23.86 30.89-10.28 6.31-22.73 9.17-34.72 7.73-15.89-1.56-30.69-10.55-39.57-23.79-5.78-8.44-8.88-18.4-9.5-28.58-.36-12.78 3.55-25.59 11.4-35.73 9.08-11.92 23.05-19.71 37.96-21.23Z" fill="#000"/><path d="M376.499 453.66c11.24-2.5 23.12-.85 33.29 4.51 17.34 8.91 28.1 28.42 26.3 47.83-1.13 11.3-5.9 22.08-13.91 30.17-8.21 8.51-19.42 13.72-31.18 14.77-19.4 1.77-38.75-8.99-47.69-26.26-8.31-15.63-7.35-35.21 2.46-49.94 7-10.71 18.22-18.41 30.73-21.08Z" fill="#fff"/><path d="M519.431 474.74c8.56-2.21 17.77 3.55 19.3 12.29 1.86 8.33-3.88 16.92-12.2 18.57-9.21 2.17-18.82-5.06-18.99-14.59-.68-7.52 4.66-14.48 11.89-16.27ZM403.43 485.61c9.52-3.24 20.05 4.41 20.34 14.34.81 8.84-6.85 17.06-15.74 16.75-8.62.39-16.04-7.14-15.96-15.68-.25-6.97 4.7-13.5 11.36-15.41ZM598.819 532.68c1.05.34 2.11.69 3.16 1.06-.43 1.65-.27 3.31-1.72 4.43-6.89 5.73-16.13 10.13-25.25 9.91-3.84-.08-8.61-1-11.46-3.78-.26-1.17-.33-2.4-.44-3.59.93-.31 1.87-.63 2.81-.94 4.52 2.16 9.07 3.47 14.1 2.21 7.46-1.28 12.59-5.51 18.8-9.3ZM347.061 547.76c2.26-.49 3.85 1.46 5.53 2.62 9.4 7.75 21.34 11.38 33.42 11.45 5.83.1 10.84-2.25 16.7-1.34-.51 2.38-.06 4.38-2.93 5.06-18.1 4.87-38.96.17-52.89-12.49-1.77-1.38-2.24-4.33.17-5.3Z" fill="#000"/></g><g transform="translate(-161 -83)"><g fill="#000"><path d="M452.03 395.85c.66 4.64-1.51 9.35-4.21 13-3.6 4.46-7.81 8.36-12.85 11.13-7.66 4.35-15.96 7.71-24.19 10.81-23.79 8.79-48.56 15.1-73.52 19.48-3.35.54-6.97 1.5-10.36 1.11-1.92-.92-2-2.82-1.11-4.52 2.34-1.8 5.49-2.72 8.19-3.89 35.94-14.72 71.88-29.45 107.8-44.2 3.36-1.25 6.59-3.38 10.25-2.92ZM478.97 396c49.32 7.61 98.68 15.15 148.01 22.75 2.58.42 5.33.58 7.81 1.41 2.44 1.14 1.7 5.04-.96 5.26-9.59.95-19.18 1.82-28.83 1.95-15.39.1-30.64.32-45.98-1.18-20.91-1.64-42.24-4.59-62.25-11.06-6.97-2.41-14.88-5.46-20.27-10.64-1.79-1.9-4.09-4.28-3.17-7.13 1.22-2.13 3.6-1.59 5.64-1.36Z"/></g></g><g transform="translate(-161 -83)"><path d="M550 573.51c1.46.01 3.54-.33 4.63.86 1.79 1.55.73 4.5-1.6 4.72-5.31.8-10.73.62-16.06 1.31-4.86.62-9.72 1.26-14.57 1.91 3.05 6.5 5.04 13.42 6.07 20.52 1.1 9.46.49 18.83-4.44 27.2-4.08 6.95-11.07 11.69-18.97 13.18-9.3 1.51-18.57-.3-27.06-4.23-13.14-6.16-23.89-15.8-32.58-27.32-6.65 4.89-13 10.1-18.5 16.27-1.57 1.58-3.5 3.91-5.73 1.87-1.86-1.74-.28-4.03 1.06-5.54 9.67-10.78 21.93-19.53 34.63-26.41 28.47-15.25 61.04-22.5 93.12-24.34Z" fill="#000"/><path d="M516.86 583.39c1.15 3.94 2.8 7.7 3.96 11.64 2.13 6.95 2.55 14.24 1.79 21.44-1.11 7.19-4.63 14.31-11.1 18.07-7.43 4.49-16.62 4-24.65 1.5-15.04-4.85-26.95-15.23-36.46-27.58 9.26-5.81 19.07-10.67 29.29-14.53 1.72 2.36 3.27 5.09 5.42 7.07 1.42 1.48 4.45.11 4.09-2.01-.39-2.38-2.78-4.36-3.81-6.56-.12-.47.13-.76.75-.88 9.98-3.51 20.34-6.12 30.72-8.16Z" fill="#EA869E"/></g><g transform="translate(-161 -83)"/><g transform="translate(-161 -83)"><path d="M659.42 36.42c1.88-.59 3.59-1.19 5.56-.58.87.92 1.68 1.9 2.44 2.93-3.42 5.06-6.01 10.48-8.69 15.95-12.22 25.23-20.41 54.18-19.54 82.36 14.8-1.49 29.92-1.55 44.81-1.19 20.39.41 40.21 3.24 60.24 6.83 1.95.42 3.48 1.07 3.69 3.29.11 3.07-2.87 3.52-4.95 5-11.35 6.77-21.47 15.87-30.98 24.99-15.02 14.51-26.84 32.82-36.53 51.22 30.01 5.2 58.94 19.94 83.13 38.16 2 1.54 4.54 3.24 5.72 5.51-.49 4.16-4.62 4.34-7.75 5.73-19.34 6.6-36.87 16.49-54.05 27.41 12.87 7.93 25.13 16.95 36.31 27.14 1.62 1.69 3.56 3.07 3.01 5.72-.17 1.85-2.91 2.88-4.35 3.62-7.78 3.39-15.78 6.43-23.83 9.12-2.25.76-3.23-.07-4.44-1.88-10.35-16.7-24.88-31.41-39.8-44.08-12.12-10.19-25.26-19.49-39.34-26.76-2.63-1.31-5.02-2.57-8.04-2.55-5.66 0-11.38.22-17.04.52-31.98 2.5-63.58 10.35-92.98 23.17-15.63 6.95-31.29 15.52-44.41 26.58-2.06 1.61-4.08 4.07-6.59 4.91-5.84-.87-11.53-3.37-17.05-5.39-18.8-6.99-35.07-19.92-48.92-34.17-11.07-10.95-20.32-23.26-28.72-36.33-6.21-9.48-11.98-19.09-16.47-29.52-1.35-3.24-3.13-6.64-3.66-10.13.03-1.27 1.24-3.6 2.76-3.18 3.12 1 5.98 2.84 8.97 4.18 5.95 2.87 12.19 4.68 18.56 6.35 12.07 3.37 24.58 5.79 36.9 8.26-1.22-7.7-1.19-15.42-.84-23.18 1.36-21.95 7.11-43.14 15.36-63.45 6.36-15.81 14.59-30.82 24.27-44.83 10.5-15.13 22.52-29.48 36.6-41.4 2.59-1.92 5.45-4.42 8.73-2.24 2.16.95 1.11 3.69.98 5.48-3.73 17.06-.34 34.65 4.34 51.17 2.58 9.3 6.68 17.9 10.94 26.53 3.57-4.73 7.39-9.12 11.56-13.33 20.76-21 45.01-39.18 69.72-55.27 20.28-12.69 41.84-24.51 64.37-32.67Z" fill="#000"/><path d="M658.74 42.89c-13.93 25.15-23.31 52.27-25.15 81.11-.23 5.43-.08 10.88-.11 16.31 1.06.84 2.06 2.5 3.49 2.48 6.34-.46 12.64-1.45 19.03-1.47 11.29.01 22.53-.29 33.8.65 16.34.46 32.31 2.84 48.39 5.6-14.22 9.19-27.15 20.55-38.6 32.99-11.62 13.42-21.35 28.79-29.59 44.49-.84 1.79-2.11 3.88-1 5.83 1.09 1.27 2.48 1.14 4 1.45 6.07.75 11.98 2.28 17.81 4.11 23.61 7.44 45.88 19.46 65.48 34.54-7.37 2.62-14.68 5.33-21.78 8.63-11.78 5.22-23.15 12-34.08 18.82-2.3 1.72-7.83 3.98-5.62 7.67 3.14 1.96 6.6 3.32 9.63 5.48 10.61 7.16 20.98 14.93 30.25 23.78-6.92 3.08-14.03 5.65-21.17 8.19-10.01-15.57-22.53-28.52-36.26-40.81-14.82-12.9-31-24.61-48.78-33.08-2.07-1.03-4.22-1.1-6.48-1.07-37.47.07-74.99 8.41-109.48 22.91-19.05 8.2-37.07 18.24-52.66 32.05-6.1-1.86-12.09-4.07-17.98-6.52-11.45-4.89-21.52-11.87-30.92-19.97-12.08-10.66-23.1-22.44-32.36-35.65-9.32-13.5-18.34-26.55-24.8-41.73 18.11 8.03 38.79 11.36 58.18 15.01 2.62.06 6.37 1.91 7.43-1.52-.16-2.73-.85-5.43-1.16-8.15-1.38-9.74-.01-20.28 1.14-30.04 5.2-33.79 18.61-66.43 38.2-94.43 10.21-14.56 21.56-28.03 35.14-39.59-1.4 8.92-1.38 18.06-.6 27.04 1.98 16.19 6.47 32.3 13.82 46.91 1.72 3.24 3.05 6.96 5.36 9.82 1.05 1.28 3.52 1.71 4.41.03 5.22-8.96 12.75-15.69 20.2-22.87 19.17-17.78 40.21-33.6 62.13-47.81 19.22-12.03 39.43-23.2 60.69-31.19Z" fill="rgba(219, 163, 190, 1)"/></g></g></svg>