<svg xmlns:dc="http://purl.org/dc/elements/1.1/" xmlns:cc="http://creativecommons.org/ns#" xmlns:rdf="http://www.w3.org/1999/02/22-rdf-syntax-ns#" xmlns:svg="http://www.w3.org/2000/svg" xmlns="http://www.w3.org/2000/svg" viewBox="0 0 762 762" fill="none"><metadata><rdf:RDF><cc:Work><dc:format>image/svg+xml</dc:format><dc:type rdf:resource="http://purl.org/dc/dcmitype/StillImage"/><dc:title>Adventurer</dc:title><dc:creator><cc:Agent><dc:title>Lisa Wischofsky</dc:title></cc:Agent></dc:creator><dc:source>https://www.instagram.com/lischis_adventures/</dc:source><cc:license rdf:resource="https://creativecommons.org/licenses/by/4.0/"/></cc:Work><cc:License rdf:about="https://creativecommons.org/licenses/by/4.0/"><cc:permits rdf:resource="https://creativecommons.org/ns#Reproduction"/><cc:permits rdf:resource="https://creativecommons.org/ns#Distribution"/><cc:permits rdf:resource="https://creativecommons.org/ns#DerivativeWorks"/><cc:requires rdf:resource="https://creativecommons.org/ns#Notice"/><cc:requires rdf:resource="https://creativecommons.org/ns#Attribution"/></cc:License></rdf:RDF></metadata><mask id="avatarsRadiusMask"><rect width="762" height="762" rx="0" ry="0" x="0" y="0" fill="#fff"/></mask><g mask="url(#avatarsRadiusMask)"><path d="M396.01 164.85c37.82 4.9 74.21 19.64 104.8 42.39 6.15 4.84 12.48 9.33 18.02 14.92 23.77 21.98 42.73 49.02 55.13 78.95 9.35 22.31 14.72 46.04 16.64 70.14 6.62.81 13.05 2.14 19.12 5 15.54 6.93 27.08 20.94 31.78 37.21 2.63 9.56 3.56 19.75 1.72 29.55-2.96 18.76-13.72 36.13-29.37 46.92-10.94 7.65-24.49 12.03-37.86 11.68-5.13-.05-10.04-1.6-15.13-1.79-1.85 2.17-3.23 4.84-4.76 7.25-18.66 29.62-44.57 54.51-74.64 72.4-28.1 16.73-59.9 27.16-92.46 30.32-11.08.7-21.87 2.05-32.98.74-51.69-2.3-102.07-23.44-140.15-58.43-29.03-26.55-50.84-60.83-62.54-98.39-7.09-22.85-10.62-46.78-10.07-70.71.52-40.34 12.53-80.58 33.94-114.76 19.1-30.81 45.91-56.58 77.2-74.83 29.63-17.28 63.35-27.68 97.59-29.87 14.66-1.47 29.44-.37 44.02 1.31Z" fill="#000"/><path d="M363 169.06c48.47-1.39 97.32 14.7 135.81 44.12 6.55 4.06 11.72 9.49 17.36 14.64 24.33 22.63 43.2 50.95 54.93 82.02 7.43 19.61 11.86 40.2 13.56 61.09-8.89.74-17.34 2.34-25.38 6.38-2.19 1.03-1.89 4.95.68 5.23 2.35.23 4.98-1.51 7.24-2.2 14.62-5.37 31.32-4.35 44.78 3.68 11.69 6.78 20.09 18.16 23.89 31.06 2.6 8.25 2.68 17.41 1.76 25.95-2.5 17.35-12.35 33.73-26.73 43.81-15.71 11.33-37.17 14.64-54.93 6.2-3.17-1.43-5.94-3.58-9.08-5.05-2.95-1.09-4.88 2.79-2.7 4.75 3.17 2.76 7.34 4.52 11 6.56-20.14 34.15-49.45 62.7-84.41 81.47-30.2 16.31-64.44 25.53-98.78 26.15-27.63.72-55.33-4.04-81.21-13.72-30.32-11.24-57.84-29.43-80.37-52.6-22.67-23.37-39.92-51.88-50.2-82.77-14.96-44.64-14.91-94.01.27-138.59 11.05-33.06 30.28-63.21 55.37-87.39 29.67-28.73 67.65-48.54 108.13-56.67 12.8-2.52 25.94-4.24 39.01-4.12Z" fill="rgba(118, 57, 0, 1)"/><path d="M605.03 404.4c2.63-.1 3.44 3.8 1.36 4.98-3.69 1.83-7.82 2.77-11.64 4.35-5.82 2.04-11.28 4.76-16.68 7.72 4.29 2.34 8.86 4.74 12.71 7.76 2.58 2.09 4.85 4.35 5.33 7.8-.26 3.59-2.73 6.55-5.45 8.69-5.86 4.66-13.92 7.18-20.79 10.26-1.75.62-4.43 1.99-5.59-.26-1.02-1.74-.06-3.11 1.57-3.87 6.65-3.3 14.86-5.62 20.79-10.16 1.37-1.14 3.39-2.74 3.61-4.62-4.07-5.63-12.42-8.59-18.23-12.09-2.34-1.72-2.29-4.24-.16-6.13 7.27-5.64 16.98-9.26 25.57-12.38 2.42-.83 5.03-1.95 7.6-2.05Z" fill="#000"/><g transform="translate(-161 -83)"><path d="M559.011 424.1c16.41.51 32.33 7.36 43.93 18.98 5.76 5.61 9.95 12.31 13.6 19.43 7.87-5.09 15.8-10.08 23.76-15.03 1.25 1.09 2.42 2.25 3.56 3.46-3.17 3.52-7.07 5.39-10.96 7.93-4.77 3.03-9.55 6.03-14.3 9.08 3.17 10 4.53 20.39 2.8 30.81-2.05 14.92-9.59 28.86-20.75 38.93-11.58 10.56-26.96 16.72-42.65 16.84-12.98.34-26.07-3.48-36.9-10.63-12.44-8.06-21.81-20.51-26.4-34.58-4.57-14.5-4.06-30.74 1.79-44.81 5.41-13.38 15.56-24.82 28.12-31.91 10.31-6.04 22.51-8.85 34.4-8.5Z" fill="#000"/><path d="M549.27 430.26c14.65-1.77 29.27 1.62 41.4 10.04 12.46 8.48 21.37 21.87 24.46 36.62 2.62 12.36 1.24 25.52-4.07 37.02-6.12 13.64-17.67 24.9-31.58 30.43-10.22 4.23-21.57 5.65-32.48 3.67-16.41-2.65-31.48-12.62-40.35-26.68-5.6-8.77-8.74-18.94-9.37-29.31-.61-14.46 4.23-29.15 13.41-40.36 9.47-11.77 23.62-19.56 38.58-21.43Z" fill="#fff"/><path d="M414.051 453.95c10.75 6.03 19.24 15.78 23.87 27.2 3.49 8.51 4.54 17.78 3.61 26.9-1.79 17.13-12.16 32.86-27.1 41.38-16.49 9.64-37.66 9.77-54.3.41-14.42-7.99-24.75-22.55-27.4-38.84-1.81-8.9-.64-17.67 1.89-26.29-5.82-3.63-12.13-6.62-17.74-10.55-1.95-1.1-1.44-4.12.68-4.64 1.65-.48 3.18.59 4.6 1.28 4.83 2.83 9.64 5.66 14.48 8.47 6.58-14.13 18.65-25.2 33.59-29.87 14.42-4.66 30.66-2.95 43.82 4.55Z" fill="#000"/><path d="M378.27 453.29c15.03-2.78 30.94 1.95 42.11 12.35 10.06 9.24 15.9 22.72 15.93 36.37-.17 8.05-2.22 16.17-6.07 23.26-6.94 12.82-19.64 22.21-33.98 24.9-8.07 1.72-16.23 1.09-24.08-1.36-19.1-5.88-33.31-23.78-34.38-43.79-.98-12.79 3.48-25.72 11.85-35.41 7.31-8.53 17.57-14.32 28.62-16.32Z" fill="#fff"/><path d="M527.27 466.19c7.37-.9 15.21 1.78 20.25 7.29 3.82 4.17 6.28 9.79 6.41 15.47.28 7.26-3.03 14.7-8.73 19.24-6.96 5.83-17.24 6.92-25.36 2.96-8.64-4.1-14.23-13.61-13.38-23.18.7-11.14 9.74-20.51 20.81-21.78ZM358.54 480.84c11.41-3.87 24.34 3 27.54 14.59 3.77 11.69-4.02 24.86-16.03 27.32-10.63 2.65-22.19-3.54-25.66-13.94-3.92-11.13 2.75-24.59 14.15-27.97Z" fill="#000"/></g><g transform="translate(-161 -83)"><g fill="#000"><path d="M397.06 373.14c6.81.19 14.18 2.86 17.93 8.88 1.05 1.45.63 3.68.72 5.4-6.29.15-12.49.33-18.64 1.83-15.06 3.48-29.35 10.86-41.64 20.15-8.37 6.38-16.34 14.1-21.95 23.07-1.43 2.22-2.41 5.03-4.29 6.89-1.24.26-2.57.28-3.83.35-.05-1.77-.23-3.46.21-5.19 5.72-20.86 19.83-39.34 38.12-50.81 9.83-5.84 21.73-11.05 33.37-10.57ZM578.52 411.66c10.41 1.67 21.2 3.85 30.01 9.97l-.21 4.78c-4.07 1.59-7.29-.15-11.31-.78-6.82-1.2-13.91-1.25-20.83-1.11-29.25 1.32-58.23 9.89-83.97 23.74-1.45.63-2.92 1.06-4.42 1.54-2.58-5.36-3.61-10.91-.13-16.17 5.13-7.67 15.2-12.39 23.63-15.44 21.34-7.36 44.88-9 67.23-6.53Z"/></g></g><g transform="translate(-161 -83)"><path d="M469.99 539.64c9.45-.62 18.37 5.2 25.18 11.18 9.61 8.8 17.31 20.09 23.54 31.49 12.62 23.56 20.84 50.09 23.56 76.68.49 4.4 1.53 8.68-2.43 11.86-7.32 3.5-15.84 4.95-23.84 6.01-15.97 1.38-32.52-.85-47.99-4.85-2.36-.75-4.53-.89-5.44-3.57-9.45-20.8-15.71-43.16-17.97-65.91-1.01-12.34-1.07-24.91 1.8-37.02 1.62-6.56 4.25-13.27 8.72-18.42 3.72-4.29 9.1-7.4 14.87-7.45Z" fill="#000"/><path d="M474.49 545.63c9.4 2.08 17.07 9.35 23.35 16.25-13.95 5.98-30.91 9.6-45.86 5.81 1.27-6.17 3.77-12.91 8.25-17.49 3.61-3.79 9.07-5.91 14.26-4.57Z" fill="#fff"/><path d="M501.86 566.88c12.64 16.83 21.52 36.66 27.44 56.79-6.29 1.3-11.94 3.96-17.5 7.1-11.57 6.75-22.43 15.88-30.04 26.97-2.28 3.53-4.69 6.5-4.54 10.94-2.97-.77-5.95-1.45-8.96-2.06-8.42-17.85-13.97-37.13-16.92-56.63-1.6-12.46-2.48-24.55-.38-37.02 5.4 1.04 10.5 2.3 16.05 1.94 5.01-.39 10.05-.95 14.99-1.89 6.9-1.27 13.26-3.89 19.86-6.14Z" fill="#8F2E45"/><path d="M527.55 629.64c1.49-.65 2.4.12 3.76.63 2.74 11.73 5.07 23.49 5.63 35.56-7.95 3.25-16.19 4.63-24.68 5.56-10.48.94-20.25-.66-30.6-1.81 4.52-9.01 10.37-16.33 17.9-23 8.13-7.09 17.68-13.56 27.99-16.94Z" fill="#EA869E"/></g><g transform="translate(-161 -83)"><g fill="#CA8D87"><path d="M630.35 552.39c16.3-3.73 33.88 3.26 42.95 17.32 10.02 14.91 8.65 35.85-3.36 49.25-12.24 14.36-34.25 18.02-50.57 8.65-13.03-7.21-21.33-21.71-20.78-36.62.27-18.28 13.89-34.76 31.76-38.6ZM373.13 564.86c13.96 8.6 20.73 26.53 15.96 42.21-2.18 7.66-6.83 14.23-12.93 19.29-5.35-5.15-10.7-10.39-15.38-16.16-7.4-8.33-13.6-18.04-19.57-27.43-3.4-5.87-6.82-11.21-8.9-17.61 12.17-7.81 28.64-8.34 40.82-.3Z"/></g></g><g transform="translate(-161 -83)"><path d="M577 185.99c12.56.52 24.92 2.91 36.69 7.34 19.34 7.52 36.92 19.79 51.12 34.87 10.01 10.27 18.45 22.23 28.18 32.81 5.38 5.64 11.4 10.83 17.98 15.03 9.34 5.99 20.44 8.43 30.91 11.95 11.45 3.52 22.49 7.95 32.48 14.66 16.08 10.6 27.97 27.68 34 45.84 4.26 13.32 6.58 28.46 3.31 42.24-.44 2.06-4 2.35-4.83.42-1.55-3.18-2.55-6.58-4.35-9.66-4.92-8.83-11.74-16.71-19.11-23.6 8.39 11.73 10.45 26.92 6.35 40.64-2.18 7.04-6.91 12.22-11.85 17.47 1.07 5 2.42 9.87 2.78 15 .83 7.44-.72 14.85-4.01 21.55-1.83 3.7-3.82 8.3-7.12 10.9-2.45.96-5.66-1.44-8.05-2.04-4.22-1.16-9.11-2.4-13.47-1.58-.92 1.15-1.64 2.54-2.32 3.85-6.27 12.57-13.95 24.49-21.97 36-8.43 11.51-18.39 22.71-30.08 30.98-3.38 2.26-8.04 5.08-12.06 2.73-3.62-2.51-3.4-8.06-3.01-11.93 2.13-16.26 1.17-33.16 1.31-49.74-13.71-.07-27.19-3.83-39.15-10.47-27.01-14.79-46.68-44.18-47.16-75.32-10.44 8.35-22.76 12.93-35.73 15.68-3.06.5-7.25 1.37-10.03-.4-1.38-2.25-.65-3.64 1.07-5.31 12.2-11.63 21.85-25.4 26.06-41.92 3.24-13.11 1.8-27.25-7.02-37.92-6.39-7.81-15.97-12.65-25.73-14.69-10.95-2.42-22.3-1.71-33.16.81-1.78.29-3.32.98-5.02.01-2.02-2.1-1.31-4.35-1.21-6.97-10.53 3.42-20.8 8.27-29.8 14.73-1.69 1.15-2.95 2.02-5.08 1.29-3-1.37-5.26-4.26-8.06-6.03-9.57-6.5-21.51-10.09-32.81-12.06 3.09 2.78 6.56 5.41 9.16 8.66 1.33 1.69 1.67 3.88.06 5.52-1.81.91-4.28.66-6.27.75-12.12-.12-24.95.39-36.48 4.5-2.9 2.13-4.69 6.32-6.61 9.34-13.1 22.16-19.31 48.44-18.81 74.09-.1 1.51.01 2.93-.9 4.22-2.42 1.36-4.13-.06-6.24-1.18-6.46-4-12.78-8.85-17.67-14.71-4.95 10.26-13.85 18.43-24.47 22.53-2.93 8.25-4.09 17.46-5.89 26.13-.98 4.72-1.27 9.57-2.3 14.26-.62 2.41-3.48 2.92-4.89.88-8.85-11.78-10.65-25.55-12.68-39.68-4.42-1.06-8.63-2.43-12.32-5.17-2.33-1.72-5.26-4.17-5.34-7.3-.18-1.64 1.87-2.73 2.95-3.68 3.72-2.69 7.04-5.81 10.43-8.88-9.04-3.02-16.29-9.65-19.79-18.55-4.63-11.72-2.82-24.7 1.71-36.14 7.24-17.5 20.9-32.37 37.32-41.7 9.36-5.44 19.26-8.34 30.02-9.31 2.47-12.27 6.43-24.12 12.69-35.01 8.31-14.55 20.19-26.92 34.74-35.31 18.02-10.48 39.99-14.47 60.56-11.22 19.61 2.83 37.5 11.29 53.18 23.23 6.35-5.85 13-11.3 20.34-15.87 17.15-11.02 37.01-17.42 57.45-17.56Z" fill="#000"/><path d="M574 191.82c13.68-.16 27.49 2.9 40.18 7.92 17.13 7.21 32.75 18.07 45.52 31.57 11.18 11.08 20.17 24.6 31.18 35.8 8.12 7.99 17.16 15.18 27.88 19.33 14.86 5.72 30.25 8.62 44.48 16.33 10.26 5.33 19.08 12.65 26.09 21.85 11.58 15.28 18.1 34.28 18.09 53.47-9.08-14.42-21.71-28.89-37.44-36.12-2.32-1.17-4.91.43-4.39 3.12 1.24 2.31 3.39 4.24 5.15 6.16 4.34 4.64 8.73 9.76 11.46 15.52 4.63 9.62 5.1 20.99 1.65 31.06-1.87 5.16-5.39 9.02-9.08 12.94-1.32 1.65-3.14 2.79-2.41 5.17 2.12 8.74 4.13 16.81 2.26 25.88-1.53 5.65-4.2 11.07-7.44 15.92-5.38-2.08-10.61-3.24-16.36-3.69.29-1.6 1.07-3.52.41-5.08-1.11-1.09-2.54-1.81-3.92-.65-1.05.99-1.67 2.48-2.32 3.76-7.59 16.37-17 31.76-27.55 46.39-5.29 6.93-11 13.64-17.42 19.56-4.77 4.26-9.35 8.35-15.32 10.87-1.05-4.72-.08-8.96.24-13.69.57-8.74 1.03-17.46.55-26.22-.36-5.85-.33-11.7-.3-17.56 14.53-1.24 29.22-7.38 39.18-18.2 1.74-1.94 1.13-4.44-1.5-5-5.28-1.39-9.7-3.35-14.06-6.66 8.57.3 16.94-.51 24.93-3.8 10.32-4.01 19.45-11.76 24.28-21.81 3.67-7.21 4.18-16.11 2.91-23.98-.33-2.79-4.06-4.2-5.14-1.07.58 7.83 1.16 15.08-2.57 22.31-8.02 16.66-28.58 24.67-46.23 22.25-2.21-.25-5.17-2-7.2-.75-.51.65-.86 1.41-1.05 2.3 3.65 7.89 10.62 12.02 18.32 15.29-12.74 11.22-30.26 15.35-46.88 12.9-29.5-4.16-55.1-26.14-65.73-53.67-3.84-9.81-5.25-20.09-5.33-30.57-.11-2.81-3.24-4.19-5.3-2.12-10.39 9.28-23.17 14.34-36.7 17.05 8.49-9.03 15.57-19.17 20.3-30.67 3.97-9.95 5.77-20.58 4.34-31.25-1.26-9.25-5.48-18.02-12.13-24.6-8.69-8.88-21.4-13.71-33.63-14.73-8.9-1.1-18.11-.17-26.87 1.61.5-2.27 1.83-4.39.13-6.47-1.35-1.84-4.2-.81-6.08-.46-11.97 3.29-23.41 9.33-33.56 16.43-12.62-12.28-32.58-17.48-49.6-19.43-17.25-1.97-35.12-.68-51.85 4.04-4.84 1.46-9.77 3.11-14.26 5.47-2.22 1.08-2.15 4.34.19 5.18 1.17.71 2.89-.4 4.08-.78 15.59-7.15 33.83-9.37 50.83-9 3.21.18 7.14.02 9.75 2.1 3.87 2.77 7.29 6.2 10.89 9.31-12.71-.21-24.9-.07-37.07 4.14-3.72 1.6-5.96 5.43-8.09 8.69-5.04 8.22-9.78 16.93-13.09 26-6.28 16.54-8.91 34.41-9.19 52.04-6.95-4.66-13.95-10.26-17.98-17.73-1.6-2.68-2.53-5.59-3.65-8.47-1.07-2.16-4.43-2-4.84.65-.47 3.75 2.19 7.97 3.94 11.15-2.89 7.95-8.63 14.36-15.65 18.94-6.99 4.39-14.88 5.59-23.03 5.29-7.14.1-13.82-1.94-19.31-6.56 4.47-4.11 9.61-7.88 13.72-12.34 1.51-1.32 1.38-3.63-.21-4.83-1.99-1.04-4.27-1.57-6.37-2.4-6.34-2.45-11.45-7.52-14.14-13.75-3.14-6.95-3.13-15.28-1.67-22.64 3.23-14.28 11.32-26.93 21.9-36.92 11.41-10.85 27.14-19.47 43.12-20.15 1.61-.18 3.11-.26 4.47-1.25 1.43-2.26 1.57-5.45 2.18-8.02 2.92-13.13 8.28-25.74 16.07-36.72 10.81-15.31 26.38-27.09 44.3-32.76 13.07-4.27 26.81-4.85 40.38-3.06 18.15 2.64 34.75 10.46 49.37 21.37-1.42 1.67-5.59 3.88-4.44 6.47.29 1.55 2.42 2.01 3.5 1.15 5.61-3.87 10.31-9.11 15.68-13.33 18.28-14.8 40.73-24.92 64.45-25.79Z" fill="rgba(171, 42, 24, 1)"/><path d="M298.56 409.23c4.76-.11 9.41.06 14.11-.96-2.64 9.82-4.31 19.91-6.39 29.86-4.82-9.17-6.25-18.76-7.72-28.9Z" fill="rgba(171, 42, 24, 1)"/></g></g></svg>