<svg xmlns:dc="http://purl.org/dc/elements/1.1/" xmlns:cc="http://creativecommons.org/ns#" xmlns:rdf="http://www.w3.org/1999/02/22-rdf-syntax-ns#" xmlns:svg="http://www.w3.org/2000/svg" xmlns="http://www.w3.org/2000/svg" viewBox="0 0 762 762" fill="none"><metadata><rdf:RDF><cc:Work><dc:format>image/svg+xml</dc:format><dc:type rdf:resource="http://purl.org/dc/dcmitype/StillImage"/><dc:title>Adventurer</dc:title><dc:creator><cc:Agent><dc:title>Lisa Wischofsky</dc:title></cc:Agent></dc:creator><dc:source>https://www.instagram.com/lischis_adventures/</dc:source><cc:license rdf:resource="https://creativecommons.org/licenses/by/4.0/"/></cc:Work><cc:License rdf:about="https://creativecommons.org/licenses/by/4.0/"><cc:permits rdf:resource="https://creativecommons.org/ns#Reproduction"/><cc:permits rdf:resource="https://creativecommons.org/ns#Distribution"/><cc:permits rdf:resource="https://creativecommons.org/ns#DerivativeWorks"/><cc:requires rdf:resource="https://creativecommons.org/ns#Notice"/><cc:requires rdf:resource="https://creativecommons.org/ns#Attribution"/></cc:License></rdf:RDF></metadata><mask id="avatarsRadiusMask"><rect width="762" height="762" rx="0" ry="0" x="0" y="0" fill="#fff"/></mask><g mask="url(#avatarsRadiusMask)"><path d="M396.01 164.85c37.82 4.9 74.21 19.64 104.8 42.39 6.15 4.84 12.48 9.33 18.02 14.92 23.77 21.98 42.73 49.02 55.13 78.95 9.35 22.31 14.72 46.04 16.64 70.14 6.62.81 13.05 2.14 19.12 5 15.54 6.93 27.08 20.94 31.78 37.21 2.63 9.56 3.56 19.75 1.72 29.55-2.96 18.76-13.72 36.13-29.37 46.92-10.94 7.65-24.49 12.03-37.86 11.68-5.13-.05-10.04-1.6-15.13-1.79-1.85 2.17-3.23 4.84-4.76 7.25-18.66 29.62-44.57 54.51-74.64 72.4-28.1 16.73-59.9 27.16-92.46 30.32-11.08.7-21.87 2.05-32.98.74-51.69-2.3-102.07-23.44-140.15-58.43-29.03-26.55-50.84-60.83-62.54-98.39-7.09-22.85-10.62-46.78-10.07-70.71.52-40.34 12.53-80.58 33.94-114.76 19.1-30.81 45.91-56.58 77.2-74.83 29.63-17.28 63.35-27.68 97.59-29.87 14.66-1.47 29.44-.37 44.02 1.31Z" fill="#000"/><path d="M363 169.06c48.47-1.39 97.32 14.7 135.81 44.12 6.55 4.06 11.72 9.49 17.36 14.64 24.33 22.63 43.2 50.95 54.93 82.02 7.43 19.61 11.86 40.2 13.56 61.09-8.89.74-17.34 2.34-25.38 6.38-2.19 1.03-1.89 4.95.68 5.23 2.35.23 4.98-1.51 7.24-2.2 14.62-5.37 31.32-4.35 44.78 3.68 11.69 6.78 20.09 18.16 23.89 31.06 2.6 8.25 2.68 17.41 1.76 25.95-2.5 17.35-12.35 33.73-26.73 43.81-15.71 11.33-37.17 14.64-54.93 6.2-3.17-1.43-5.94-3.58-9.08-5.05-2.95-1.09-4.88 2.79-2.7 4.75 3.17 2.76 7.34 4.52 11 6.56-20.14 34.15-49.45 62.7-84.41 81.47-30.2 16.31-64.44 25.53-98.78 26.15-27.63.72-55.33-4.04-81.21-13.72-30.32-11.24-57.84-29.43-80.37-52.6-22.67-23.37-39.92-51.88-50.2-82.77-14.96-44.64-14.91-94.01.27-138.59 11.05-33.06 30.28-63.21 55.37-87.39 29.67-28.73 67.65-48.54 108.13-56.67 12.8-2.52 25.94-4.24 39.01-4.12Z" fill="rgba(236, 173, 128, 1)"/><path d="M605.03 404.4c2.63-.1 3.44 3.8 1.36 4.98-3.69 1.83-7.82 2.77-11.64 4.35-5.82 2.04-11.28 4.76-16.68 7.72 4.29 2.34 8.86 4.74 12.71 7.76 2.58 2.09 4.85 4.35 5.33 7.8-.26 3.59-2.73 6.55-5.45 8.69-5.86 4.66-13.92 7.18-20.79 10.26-1.75.62-4.43 1.99-5.59-.26-1.02-1.74-.06-3.11 1.57-3.87 6.65-3.3 14.86-5.62 20.79-10.16 1.37-1.14 3.39-2.74 3.61-4.62-4.07-5.63-12.42-8.59-18.23-12.09-2.34-1.72-2.29-4.24-.16-6.13 7.27-5.64 16.98-9.26 25.57-12.38 2.42-.83 5.03-1.95 7.6-2.05Z" fill="#000"/><g transform="translate(-161 -83)"><path d="M561.861 423.28c1.79.47 1.92 1.91 1.98 3.5.02 6.73-.89 13.42-.75 20.17 8.34.57 16.09 2.01 24.09 4.41 3.09-7.1 5.83-14.35 8.73-21.52.94-1.82 1.46-4.16 4.03-3.81 2.35.23 2.58 3 1.77 4.75-2.95 7.55-6.03 15.07-9.09 22.57 6.75 2.72 12.58 6.27 18.22 10.84 4.88-4.58 9.61-9.35 14.61-13.8 1.61-1.56 3.31-1.05 5.34-1.14-.17 1.98.27 3.67-1.36 5.17-4.75 4.73-9.71 9.27-14.6 13.87 3.57 5.14 6.56 10.24 6.7 16.71.65 9.87-4.85 18.25-12.06 24.44-11.14 9.42-26.17 14.24-40.45 16.09-16.6 1.82-33.82.84-49.57-5.05-9.18-3.45-18.18-8.76-24.39-16.49-5.05-6.42-7.79-14.69-5.7-22.8 2.47-9.89 9.93-17.25 18.37-22.44 14.79-8.93 32.37-12.08 49.46-12.05.24-6.57.54-13.17 1.11-19.72.06-1.98 1.23-4.28 3.56-3.7ZM371.979 441.39c1.93-.19 2.61 2.2 3.14 3.63 1.19 4.97 1.31 10.2 2.17 15.24 8.52-.82 17.28-.66 25.73.76 10.86 2.02 22.05 6.02 30.13 13.83 4.96 4.66 8.49 11.22 8.27 18.15-.46 7.42-4.43 13.69-9.92 18.48-8.9 7.86-21.44 11.98-33.01 13.71-15.71 2.23-32.97.68-47.39-6.25-8.49-4.18-17-11.26-19.21-20.87-1.28-5.19-.03-9.95 1.98-14.74-3.86-3.53-7.69-7.1-11.45-10.73-.82-1.01-2.4-2.18-2-3.61.02-2.54 3.45-3.08 4.99-1.37 4 3.5 7.71 7.34 11.68 10.88 3.38-3.65 6.97-6.57 11.16-9.24-2.74-6.13-5.52-12.24-8.25-18.36-1.11-2.21-.85-4.39-.69-6.76 1.24.21 2.62.25 3.78.76 1.18 1.19 1.85 2.96 2.57 4.46 2.5 5.77 5.18 11.45 7.58 17.25 5.99-2.57 11.89-4.32 18.29-5.56-.39-5.41-1.7-10.7-2.04-16.11.01-1.53.39-4.08 2.49-3.55Z" fill="#000"/><path d="M539.5 453.67c14.63-2.22 30-1.53 44.23 2.67 9.51 2.94 19.21 7.45 25.93 15.02 4.3 4.85 7.04 11.05 5.99 17.64-1.05 7.24-5.76 12.91-11.35 17.3-8.81 6.84-20.25 10.76-31.11 12.82-15.73 2.81-32.35 2.12-47.64-2.63-9.43-3.02-19.09-7.77-25.56-15.48-4.32-5.09-6.88-12.41-4.86-19 1.56-6.56 6.67-12 11.93-15.92 9.35-6.79 21.12-10.62 32.44-12.42ZM371.53 466.92c15.61-3 32.89-1.76 47.4 5.05 6.37 3.03 13.4 8.25 15.73 15.18 2.07 5.65.38 11.7-3.31 16.24-4.63 5.75-11.74 9.78-18.58 12.34-12.6 4.53-26.55 5.97-39.78 3.81-9.02-1.36-18.44-4.32-25.91-9.68-5.22-3.87-9.62-9.04-9.9-15.83-.19-6.6 3.87-12.11 8.74-16.14 7.19-5.81 16.63-9.2 25.61-10.97Z" fill="#fff"/><path d="M592.24 469.18c2.15-1.56 4.62-.31 5.94 1.67 1.83 3.14 2.15 6.61 2.49 10.16.43 5.18.88 10.72-.25 15.84-.28 1.37-.95 2.62-2.03 3.53-2.92 1.46-6.85-1.24-7.61-4.16-1.98-6.22-1.92-13.23-1.41-19.69.41-2.37.65-5.91 2.87-7.35ZM413.31 476.33c2.36-1.35 5.2-.18 5.96 2.42 1.79 5.09 1.92 10.91 2.05 16.26-.15 3.13-.37 8.05-3.81 9.46-2.59.94-4.59-1.38-5.4-3.58-1.88-5.25-1.76-11.39-1.51-16.9.25-2.35.45-6.27 2.71-7.66Z" fill="#000"/></g><g transform="translate(-161 -83)"><g fill="#000"><path d="M530.96 352.34c21.47-3.31 42.8 3.14 60.6 15.09 12.06 8.19 22.9 19.68 28.97 33.03 1.1 2.96-.3 3.73-2.51 5.27-3.95-2.26-6.87-5.58-10.47-8.29-12.99-9.78-28.03-16.38-43.78-20.25-14.93-3.51-30.56-5.05-45.8-2.8-4.78.41-9.28 1.92-13.97 2.67-2.41.2-5.1-1.21-4.21-4.04 1.9-4.15 4.23-8.5 7.6-11.65 6.04-5.62 15.64-7.85 23.57-9.03ZM383 428.83c13.38-.82 26.33-.61 39.03 4.23 5.85 2.37 11.52 5.91 13.93 12.05 1.38 4.31.91 8.87-1.73 12.61-4.9-.76-9.4-2.6-14.18-3.82-23.13-6.33-47.19-8.01-71.04-5.96-4.88.33-9.86 2.03-14.72 1.78-1.78-.48-1.17-2.2-.97-3.54.88-2.51 3.58-3.86 5.76-5.09 13.75-7.25 28.55-10.65 43.92-12.26Z"/></g></g><g transform="translate(-161 -83)"><path d="M473.001 557.77c14.54-.55 30.84 1.36 43.71 8.62-20.68 8.69-43.21 14.72-65.7 15.48-7.24 0-14.34.28-21.54-.61.7-5.83 3.09-9.58 7.73-13.05 9.92-7.31 23.76-9.76 35.8-10.44Z" fill="#D31E1E"/><path d="M525.03 563.67c.41.78.8 1.57 1.14 2.37.47 2.66-1.95 3.31-3.81 4.34-3.98 1.77-8.05 3.4-12.12 4.98-17.66 6.32-35.39 11.11-54.24 11.94-6.5.5-12.94.62-19.44.04-4.9-.57-10.15-.63-14.87-2.03-2.35-.88-2.73-3.93-.4-5.07 2.68-.12 5.48.83 8.18 1.02 7.2.89 14.3.61 21.54.61 22.49-.76 45.02-6.79 65.7-15.48 2.76-1.19 5.22-2.59 8.32-2.72Z" fill="#000"/><path d="M510.241 575.36c-1.96 10.16-10.37 17.27-19.22 21.68-10.52 5.13-22.48 6.64-34 4.71-8.71-1.77-16.51-6.13-20.46-14.41 6.5.58 12.94.46 19.44-.04 18.85-.83 36.58-5.62 54.24-11.94Z" fill="#D31E1E"/></g><g transform="translate(-161 -83)"/><g transform="translate(-161 -83)"><path d="M427.001 180.22c13.66-1.65 28.43 2.1 39.65 10.1 6.46 4.66 11.91 10.86 14.73 18.39 2.44 6.39 2.44 13.59.02 19.99 32.06-9.47 65.13-14.81 98.6-14.53 7.34.24 14.7.77 22.02 1.36 31.26 3.15 61.83 12.14 88.6 28.85 24.77 15.42 45.3 37.46 58.42 63.57 10.97 21.52 16.93 45.51 18.49 69.55 27.38-6.61 57.44 7.05 73.18 29.82 7.47 10.85 12.2 24.29 10.85 37.57-.13 1.77-1.96 2.94-3.53 3.33-2.67-.59-5.06-2.5-7.55-3.63-13.52-6.58-28.39-10.63-43.29-12.48 27.08 18.39 47.51 46.44 57.06 77.72 4.93 15.87 6.54 32.68 4.73 49.19-2.17 17.43-8.69 34.27-20.53 47.41-1.58 1.79-5.21 2.32-6.1-.35.13-10.2.67-21.98-4.62-31.22-5.22 15.72-14.52 29.93-27.28 40.56-13.95 11.79-31.83 18.96-49.96 20.73-15.14 1.9-30.9-.28-45.38-4.95-4.49 6.33-7.63 13.95-6.6 21.84.31 1.69-1.23 2.42-2.27 3.41-2.36-1.58-4.8-3.03-7.2-4.55-6.03-3.89-11.03-8.84-15.8-14.15-1.1-1.04-1.2-2.3-1.54-3.7 18.34-16.01 33.94-35.22 46.02-56.35 1.42-2.71 4-1.5 6.3-.97 16.61 4.89 34.65.87 48.46-9.28 13.83-9.9 23.33-25.7 26.04-42.44 1.34-10.42.92-20.86-2.89-30.74-4.8-12.99-14.56-23.92-27.21-29.68-11.6-5.35-24.93-5.94-37.12-2.3-4.64 11.57-10.84 22.67-18.5 32.52-7.33 8.85-15.66 17.26-24.94 24.07-1.74 1.18-3.42 2.27-5.27.53-1.49-1.8.46-5.16.77-7.26 3.01-12.75 6.05-26 6.04-39.15.69-11.04.13-22.1-1.74-33.01-.47-2.58-.56-5.58-1.72-7.94-3.03-.36-6.07-.29-9.1-.82-8.12-1.31-15.88-5.75-22.18-10.89-8.23-7-12.82-16.54-13.39-27.32-3.21 6.55-5.1 13.63-4.41 20.98-.05 1.82.74 4.74-.8 6.08-1.77 1.06-4.04 1.42-6.06 1.74-11.96 1.41-24.65.52-35.94-3.89-10.84-4.17-20.21-11.84-26.02-21.95-6.53-11.46-8.23-24.52-6.83-37.5.43-3.38 1.18-6.63 1.39-10.03-4.35 7.91-7.59 16.08-9.05 25.03-1.87 11.12-2.52 23.87 1.43 34.62.42 1.46 1.18 3.28.74 4.78-.46 1.63-2.25 2.16-3.74 1.46-8.64-3.81-14.41-10.36-20.04-17.67-.3 4.62.2 8.47 1.64 12.84.43 1.97 1.93 4.63.37 6.39-1.26 1.89-3.77 1.94-5.77 2.47-15.89 2.97-32.02 5.33-48.17 6.16-8.91 1-18.04.53-27.01.61-19.46-.91-39.74-3.35-57.65-11.49-10.96-5.03-21.17-12.4-26.58-23.5-2.62-5.2-3.29-10.66-3.95-16.36-2.82 2.71-4.81 5.97-6.58 9.43-5.27 10.36-8.36 22.12-8.15 33.78-.02 3.04.85 6.09.6 9.1-.62 2.32-3.69 2.22-5.57 1.82-6.46-1.37-12.82-3.48-18.84-6.2-3.39-1.48-6.43-3.55-9.88-4.89-3.69 16.65-6.4 33.04-6.27 50.17-1.07 51.95 17.71 103.95 51.28 143.56 2.33 2.74 4.84 4.8 5.42 8.6-2.57 2.31-4.41 3.04-7.82 3.42-18.47 2.62-35.95-5.07-49.86-16.74-15.83-13.49-27.07-32.44-31.16-52.84-1.42-6.95-1.3-13.88-1.18-20.93-8.83 9.51-14.85 22.47-15.31 35.52-.07 1.46-2.03 2.45-3.37 2.06-1.44-.42-2.08-1.79-2.74-3.01-10.66-22.27-14.75-47.07-13.37-71.64 1.33-22.07 7.46-44.77 19.46-63.5 8.94-13.91 21.03-25.46 36.58-31.59-9.83-12.89-14.79-28.73-14.32-44.91.46-21.62 9.48-41.91 22.37-58.96 18.86-24.7 46.3-42.88 76.02-51.68 16.44-5.01 33.8-6.64 50.89-4.96 4.75.41 9.29 1.62 14.02 2.3.16-9.93-4.73-18.34-11.58-25.14-8.44-8.17-19.85-14.15-31.61-15.29-2.28-.4-5.06.36-6.16-2.22-.39-2.59 1.56-4.46 3.04-6.31 6.53-7.45 16.58-11.5 26.27-12.52Z" fill="#000"/><path d="M432 185.57c12.72-.13 25.38 4.01 35 12.44 4.89 4.37 8.97 10.43 10.09 16.98 1.2 5.18-.21 10.65-2.96 15.11-.94 1.45-1.77 3.61-.14 4.89 2.26 1.47 5.62.44 8-.28 37.89-11.61 77.5-17.08 117.09-13.66 29.69 2.72 59.1 10.83 84.86 26.08 23.87 13.99 43.94 34.19 57.29 58.46 12.53 22.59 19.03 47.72 20.65 73.43.16 1.73.09 3.43 1.9 4.25 1.37.77 2.61.36 4.05.09 22.77-6.01 48.23 3.95 63.46 21.32 9.11 10.19 14.69 23.12 14.83 36.88-17.83-9.66-38.87-15.32-59.13-16-2.24-.14-3.44.12-4.27 2.34-.09 2.38 1.66 2.91 3.31 4.04 25.97 15.02 46.61 39.28 58.13 66.9 6.68 16.06 10.38 33.74 9.72 51.16-.55 16.94-5.66 34.31-15.99 47.92-.33-4.3-.32-8.67-.95-12.93-1.1-6.42-3.62-12.69-6.54-18.49-.88-1.79-2.5-2.6-4.37-1.62-1.94.73-2.07 2.53-2.73 4.25-3.88 14.55-11.82 28.07-22.75 38.43-10.71 10.27-24.34 17.37-38.73 20.84-17.58 4.26-36.62 3.03-53.83-2.34-2.7-.79-5.23-.38-7.01 1.91-4.42 5.48-7.31 12.89-8.2 19.84-5.31-3.29-9.86-7.46-14.14-11.96 5.8-5.62 11.63-11.18 16.95-17.28 9.95-11.06 18.45-23.23 26.11-35.97 5.49.59 10.72 2.02 16.3 1.99 20.71.13 40.36-10.5 52.67-26.96 8.68-11.39 13.62-25.35 14.44-39.63.42-14.03-3.18-28.16-11.4-39.66-9.07-12.94-23.89-22.09-39.71-23.55-6.72-1.09-13.33-.63-19.96.79-.01-2.3.86-4.32-.84-6.21-1.86-.28-3.23-.3-3.79 1.77-2.44 9.56-7.23 18.62-12.18 27.11-7.03 12.09-16.73 22.41-27.21 31.58 2.61-13.01 5.48-25.43 5.19-38.83.58-14.16-1.1-28.23-4.23-42.03-.29-1.61-1.09-3.04-2.93-3.04-5.56-.05-10.78.23-16.04-1.95-8.25-3.37-16.7-8.93-21.16-16.87-4.31-7.28-4.83-17-4.58-25.25-1.11-2.26-4.04-1.86-5.11.24-2.48 4.31-5.19 8.7-6.88 13.36-2.53 6.44-3.54 13.55-3.4 20.44-15 2.08-31.58.19-44.38-8.44-10.01-6.65-16.51-17.28-18.86-28.98-2.36-12.54-.74-25.5 3.5-37.47.52-1.8 1.7-4.15.8-5.94-1.25-2.18-4.27-1.38-5.82.02-12.05 13.18-18.4 30.2-19.56 47.92-.95 7.66.12 15.06 1.33 22.61-5.82-4.46-10.48-10.1-14.08-16.47-1.44-2.83-5.27-2.46-6.06.66-1.9 7.28-1.45 15.46.95 22.59-29.34 5.69-58.82 8.53-88.7 6.11-16.73-1.75-34.92-5.19-49.53-13.94-8.63-5.19-15.86-12.49-18.53-22.45-1.46-5.19-.63-9.98-.7-15.21-1.29-2.04-3.4-2.33-5.38-1.06-6.86 4.69-10.91 11.29-14.41 18.65-5.22 11.69-8.1 24.61-6.98 37.44-14.7-3.83-28.22-10.5-38.57-21.85-12.44-13.43-17.97-32.14-16.01-50.21.98-12.2 5.23-24.28 10.96-35.04 9.56-17.77 24.08-32.95 40.55-44.47 19.49-13.55 41.96-22.51 65.6-25.16 13.73-1.73 27.65-.6 41.01 2.9 1.91.64 3.22-.56 3.85-2.25 2.2-8.88-.46-17.69-5.46-25.09-9.12-13.46-24.47-22.9-40.55-25.13 7.08-6.84 16.48-9.68 26.15-10.07ZM302.061 404.67c3.03 2.95 6.14 5.72 9.43 8.38-4.55 18.16-7.41 37.21-7.17 55.95-.65 53.87 19.4 107.12 54.71 147.72-10.46 1.84-21.09-.63-30.56-5.09-14.35-6.91-26.33-19.05-34.38-32.68-7.84-13.37-12.61-29.38-11.61-44.95.1-2.69.83-5.39.7-8.07-.78-2.25-3.07-2.59-5.06-1.66-4.18 1.95-7.66 5.88-10.33 9.56-4.92 6.66-8.38 14.23-10.55 22.2-7.43-17.81-10.2-37.82-9.7-57.03.98-23.36 7.22-47.5 20.55-66.95 8.44-12.35 19.69-22.4 33.97-27.38Z" fill="rgba(171, 42, 24, 1)"/></g></g></svg>