<svg xmlns:dc="http://purl.org/dc/elements/1.1/" xmlns:cc="http://creativecommons.org/ns#" xmlns:rdf="http://www.w3.org/1999/02/22-rdf-syntax-ns#" xmlns:svg="http://www.w3.org/2000/svg" xmlns="http://www.w3.org/2000/svg" viewBox="0 0 762 762" fill="none"><metadata><rdf:RDF><cc:Work><dc:format>image/svg+xml</dc:format><dc:type rdf:resource="http://purl.org/dc/dcmitype/StillImage"/><dc:title>Adventurer</dc:title><dc:creator><cc:Agent><dc:title>Lisa Wischofsky</dc:title></cc:Agent></dc:creator><dc:source>https://www.instagram.com/lischis_adventures/</dc:source><cc:license rdf:resource="https://creativecommons.org/licenses/by/4.0/"/></cc:Work><cc:License rdf:about="https://creativecommons.org/licenses/by/4.0/"><cc:permits rdf:resource="https://creativecommons.org/ns#Reproduction"/><cc:permits rdf:resource="https://creativecommons.org/ns#Distribution"/><cc:permits rdf:resource="https://creativecommons.org/ns#DerivativeWorks"/><cc:requires rdf:resource="https://creativecommons.org/ns#Notice"/><cc:requires rdf:resource="https://creativecommons.org/ns#Attribution"/></cc:License></rdf:RDF></metadata><mask id="avatarsRadiusMask"><rect width="762" height="762" rx="0" ry="0" x="0" y="0" fill="#fff"/></mask><g mask="url(#avatarsRadiusMask)"><path d="M396.01 164.85c37.82 4.9 74.21 19.64 104.8 42.39 6.15 4.84 12.48 9.33 18.02 14.92 23.77 21.98 42.73 49.02 55.13 78.95 9.35 22.31 14.72 46.04 16.64 70.14 6.62.81 13.05 2.14 19.12 5 15.54 6.93 27.08 20.94 31.78 37.21 2.63 9.56 3.56 19.75 1.72 29.55-2.96 18.76-13.72 36.13-29.37 46.92-10.94 7.65-24.49 12.03-37.86 11.68-5.13-.05-10.04-1.6-15.13-1.79-1.85 2.17-3.23 4.84-4.76 7.25-18.66 29.62-44.57 54.51-74.64 72.4-28.1 16.73-59.9 27.16-92.46 30.32-11.08.7-21.87 2.05-32.98.74-51.69-2.3-102.07-23.44-140.15-58.43-29.03-26.55-50.84-60.83-62.54-98.39-7.09-22.85-10.62-46.78-10.07-70.71.52-40.34 12.53-80.58 33.94-114.76 19.1-30.81 45.91-56.58 77.2-74.83 29.63-17.28 63.35-27.68 97.59-29.87 14.66-1.47 29.44-.37 44.02 1.31Z" fill="#000"/><path d="M363 169.06c48.47-1.39 97.32 14.7 135.81 44.12 6.55 4.06 11.72 9.49 17.36 14.64 24.33 22.63 43.2 50.95 54.93 82.02 7.43 19.61 11.86 40.2 13.56 61.09-8.89.74-17.34 2.34-25.38 6.38-2.19 1.03-1.89 4.95.68 5.23 2.35.23 4.98-1.51 7.24-2.2 14.62-5.37 31.32-4.35 44.78 3.68 11.69 6.78 20.09 18.16 23.89 31.06 2.6 8.25 2.68 17.41 1.76 25.95-2.5 17.35-12.35 33.73-26.73 43.81-15.71 11.33-37.17 14.64-54.93 6.2-3.17-1.43-5.94-3.58-9.08-5.05-2.95-1.09-4.88 2.79-2.7 4.75 3.17 2.76 7.34 4.52 11 6.56-20.14 34.15-49.45 62.7-84.41 81.47-30.2 16.31-64.44 25.53-98.78 26.15-27.63.72-55.33-4.04-81.21-13.72-30.32-11.24-57.84-29.43-80.37-52.6-22.67-23.37-39.92-51.88-50.2-82.77-14.96-44.64-14.91-94.01.27-138.59 11.05-33.06 30.28-63.21 55.37-87.39 29.67-28.73 67.65-48.54 108.13-56.67 12.8-2.52 25.94-4.24 39.01-4.12Z" fill="rgba(236, 173, 128, 1)"/><path d="M605.03 404.4c2.63-.1 3.44 3.8 1.36 4.98-3.69 1.83-7.82 2.77-11.64 4.35-5.82 2.04-11.28 4.76-16.68 7.72 4.29 2.34 8.86 4.74 12.71 7.76 2.58 2.09 4.85 4.35 5.33 7.8-.26 3.59-2.73 6.55-5.45 8.69-5.86 4.66-13.92 7.18-20.79 10.26-1.75.62-4.43 1.99-5.59-.26-1.02-1.74-.06-3.11 1.57-3.87 6.65-3.3 14.86-5.62 20.79-10.16 1.37-1.14 3.39-2.74 3.61-4.62-4.07-5.63-12.42-8.59-18.23-12.09-2.34-1.72-2.29-4.24-.16-6.13 7.27-5.64 16.98-9.26 25.57-12.38 2.42-.83 5.03-1.95 7.6-2.05Z" fill="#000"/><g transform="translate(-161 -83)"><path d="M550.3 424.38c13.71-1.37 27.79 1.67 39.66 8.67 13.24 7.75 23.39 20.21 28.51 34.66 3.39 10.09 4.71 21.28 2.81 31.8-2.34 15.83-10.89 30.39-23.28 40.46-16.89 13.94-40.48 18.23-61.27 11.45-15.53-5.04-28.95-16-36.85-30.31-7.41-12.94-9.69-28.2-7.34-42.86 2.28-13.35 8.74-25.81 18.4-35.3 10.58-10.49 24.52-17.1 39.36-18.57Z" fill="#000"/><path d="M549.26 430.26c15.15-1.85 30.29 1.89 42.62 10.89 15.42 11.05 25 29.85 24.47 48.85.07 22.69-14.11 44.36-34.86 53.52-10.79 4.85-22.8 6.65-34.49 4.51-16.39-2.62-31.5-12.62-40.35-26.67-5.6-8.77-8.74-18.94-9.37-29.31-.6-14.46 4.23-29.16 13.41-40.36 9.44-11.75 23.64-19.57 38.57-21.43Z" fill="#fff"/><path d="M381.25 447.09c12.75-1.32 25.87 1.94 36.48 9.14 12.16 8.15 20.71 21.26 23.31 35.66 1.43 9.16 1.07 18.48-1.94 27.3-4.01 12.2-12.45 22.81-23.42 29.5-10.57 6.48-23.37 9.3-35.67 7.62-15.79-1.82-30.36-11-39.03-24.29-5.54-8.32-8.46-18.03-9.11-27.98-.3-12.3 3.26-24.63 10.57-34.59 9.04-12.53 23.43-20.8 38.81-22.36Z" fill="#000"/><path d="M378.25 453.29c11.25-2.04 22.91-.02 32.86 5.6 17.98 9.94 28.44 31.6 24.26 51.83-2.39 13.37-10.57 25.37-22.02 32.64-7 4.52-15.08 7.02-23.36 7.67-19.83 1.35-39.3-10.23-47.63-28.27-7.75-16.18-5.75-36.01 5.04-50.33 7.38-10.04 18.61-16.93 30.85-19.14Z" fill="#fff"/><path d="M527.25 466.2c10.29-1.32 20.55 4.37 24.64 13.95 4.98 10.77.62 24.2-9.63 30.09-6.84 4.15-16.01 4.32-23.06.59-8.27-4.24-13.57-13.53-12.73-22.85.68-11.13 9.72-20.52 20.78-21.78ZM358.53 480.85c5.9-2.02 12.38-1.11 17.75 1.94 5.34 3.21 9.07 8.43 10.29 14.56 2.56 11.6-5.76 23.81-17.54 25.6-10.32 2.12-21.3-4.15-24.64-14.13-3.92-11.13 2.73-24.59 14.14-27.97Z" fill="#000"/></g><g transform="translate(-161 -83)"><g fill="#000"><path d="M530.96 352.34c21.47-3.31 42.8 3.14 60.6 15.09 12.06 8.19 22.9 19.68 28.97 33.03 1.1 2.96-.3 3.73-2.51 5.27-3.95-2.26-6.87-5.58-10.47-8.29-12.99-9.78-28.03-16.38-43.78-20.25-14.93-3.51-30.56-5.05-45.8-2.8-4.78.41-9.28 1.92-13.97 2.67-2.41.2-5.1-1.21-4.21-4.04 1.9-4.15 4.23-8.5 7.6-11.65 6.04-5.62 15.64-7.85 23.57-9.03ZM383 428.83c13.38-.82 26.33-.61 39.03 4.23 5.85 2.37 11.52 5.91 13.93 12.05 1.38 4.31.91 8.87-1.73 12.61-4.9-.76-9.4-2.6-14.18-3.82-23.13-6.33-47.19-8.01-71.04-5.96-4.88.33-9.86 2.03-14.72 1.78-1.78-.48-1.17-2.2-.97-3.54.88-2.51 3.58-3.86 5.76-5.09 13.75-7.25 28.55-10.65 43.92-12.26Z"/></g></g><g transform="translate(-161 -83)"><path d="M534.29 562.56c7.92 1.16 15.41 4.36 21.23 9.92 8.09 7.57 12.12 18.53 11.86 29.52.34 9.78-2.38 19.12-6.68 27.81-7.12 14.02-18.35 26.07-31.98 33.93-11.83 6.96-25.09 10.44-38.72 11.36-30.63 1.61-61.2-11.84-82.09-34.04-6.38-8.12-11.86-18.46-11.46-29.06-.09-7.88 4.02-15.65 10.45-20.16 6.92-4.97 14.77-6.31 23.1-6.79 14.2.15 27.79 4.32 40.17 11.12 8.52-12.59 20.01-22.9 34.03-28.96 9.42-4.2 19.83-5.97 30.09-4.65Z" fill="#000"/><path d="M533.47 568.33c9.24 1.28 17.97 6.24 22.9 14.3 5.96 9.59 6.65 21.04 3.81 31.79-4.05-.55-7.9-.69-11.97-.2-10.84.62-21.73 3.37-31.96 6.96 1.41-7.49 2.53-16.65-.57-23.85-1.7-3.84-5.41-6.2-9.58-4.33-6.58 3.12-10.3 11.89-13.02 18.22-4.75-1.63-11.32-3.78-16.06-1.23-3.89 2.19-3.78 6.53-2.42 10.26 2.56 6.21 7.71 11.08 12.64 15.44-12.05 7.91-22.81 17.29-31.17 29.09-14.95-4.74-28.67-13.02-40.01-23.82-6.73-6.44-11.99-15.15-13.61-24.38-1.13-6.35.66-13.23 5.31-17.81 4.47-4.59 11-6.66 17.2-7.5 11.79-1.52 24.47 1.81 35.25 6.5 3.75 1.52 7.09 3.83 10.78 5.43 2.67.3 3.71-3.41 5.1-5.15 9.06-13.35 22.95-24.15 38.65-28.36 5.96-1.82 12.57-1.87 18.73-1.36Z" fill="#8F2E45"/><path d="M508.97 597.86c2.64 2.37 2.74 6.8 2.88 10.12-.08 10.91-3.14 21.91-7.97 31.65-4.01-2.1-7.93-4.17-11.35-7.18-4.32-3.77-9.1-7.97-11.95-13.01-.89-1.45-.92-3-1.16-4.63 5.16-.73 9.19 1.01 13.81 2.87 2.79 1 3.86-1.41 4.96-3.44 2.44-5.54 5.13-13.33 10.78-16.38Z" fill="#D32020"/><path d="M558.62 619.94c-2.6 7.12-6.32 13.69-11.01 19.63-3.77 4.78-8.55 8.9-13.01 13.05-9.94 8.14-22.52 13.35-35.12 15.57-12.51 1.97-25.18 1.2-37.51-1.56 8.12-11.13 18.65-19.92 30.3-27.15 3.76 2.33 7.58 5.16 11.76 6.65 1.39.62 2.77-.42 3.56-1.51 3.17-4.9 4.87-10.02 6.78-15.42.38-1.43 1.62-1.55 2.8-2.1 12.98-4.74 27.57-8.13 41.45-7.16Z" fill="#EA869E"/></g><g transform="translate(-161 -83)"/><g transform="translate(-161 -83)"><path d="M667.84 98.07c1.69.69 4.13 1.37 4.99 3.13.97 1.83.03 3.88-1.98 4.34-4.3.79-8.62 1.17-12.84 2.42-16.64 4.44-31.1 14.48-41.91 27.8 15.96-3 32.13-.45 47.09 5.52 3.62-.7 7.15-.79 10.82-.47 14.89 1.25 29.44 6.06 42.06 14.1 15.16 9.55 27.73 23.93 34.39 40.64 4.81 12.13 6.88 25.53 4.52 38.47-2.55 16.98-12.16 32.34-25.89 42.57 7.22 10.58 12.86 22.12 17.1 34.2 1.69 4.81 4.54 8.42 7.02 12.99 16.15 28.91 26.65 61.22 29.9 94.2 1.06 15.17 1.15 30.66-2.46 45.52-.71 2.29-1.45 5.46-4.5 5.17-2.95-1.05-5.55-3.08-8.41-4.4-9.73-4.96-21.01-5.58-31.61-3.6 2.51 7.16 3.49 14.77 2.73 22.32-1.19 14-6.51 26.98-14.23 38.61-8.03 11.95-18.69 22.08-31.71 28.4-1.54.71-3.25 1.49-4.98 1.41-1.43-.48-2.52-1.85-2.16-3.39 1.13-3.9 3.62-7.33 5.05-11.15 10.06-24.32 12.26-52.08 9.17-78.04-.76-4.32 1.43-7.15 2.83-10.97 3.17-8.39 5.78-17.1 8.28-25.7-7.7 2.66-15.36 5.43-23.09 7.99-2.1.52-4.5 1.6-6.5.23-.82-5.7-.39-11.63-.74-17.39-1.1-15.57-3.01-30.74-4.67-46.19-.86-7.21-2.31-14.3-3.38-21.48-4.35 5.2-10.15 10.01-16.78 11.83-3.25-.83-3.52-3.4-1.16-5.53 8.83-3.35 15-10.4 18.87-18.84 6.66-14.72 6.65-30.03 5.24-45.81-.07-3.6 4.73-3.84 5.46-.54 1.72 14.3 1.51 29.81-3.33 43.53-1.05 3.18-2.74 6.08-3.93 9.2-.25 1.64.35 3.43.63 5.06 3.99 18.27 5.72 36.99 7.75 55.78 1.04 8.26 1.02 16.68 1.27 24.99 8.75-2.97 17.36-6.32 26.1-9.29.81-2.98 1.35-6.31 2.88-9 1.43-.93 2.34-1.17 3.88-.28 1.1 1.87.45 3.82.07 5.81a370.466 370.466 0 0 1-14.22 43.64c3.56 28.96 1.33 59.92-10.85 86.75 15.54-9.15 27.57-24.36 34.02-41.1 3.82-10.03 6.16-21.85 3.86-32.48-.74-3.94-2.18-7.77-4.38-11.13-1.16-2.04-2.78-3.4-2.32-5.96 1.48-1.18 2.19-1.69 4.12-.99 1.52 1.28 2.67 3.14 3.84 4.75 10.53-2.08 21.05-2.27 31.3 1.27 3.49 1.3 6.8 2.97 10.09 4.7 4.62-20.3 3.31-40.5-.19-60.84-4.08-21.71-10.96-43.06-20.85-62.83 2.5 14.31 4.87 28.4 5.49 42.99.33 5.88 1.22 11.87-.12 17.69-1.81-.3-3.76.46-4.67-1.57-.66-3.28-.28-6.79-.51-10.12-.93-17.64-2.96-35.01-7.05-52.21-4.23-17.79-10.67-35.97-20.59-51.43-7.3-11.26-17.1-21.91-29.5-27.53-7.06-3.34-14.66-4.45-22.41-4.37 2.44 4.48 5.28 8.94 7.06 13.74.65 1.65.38 2.75-.38 4.28-1.84.6-3.54.63-4.43-1.36-3.05-5.99-5.47-12-10.11-17.02-4.5-6.79-10.02-13.08-17.69-16.31-4.57-1.85-9.77-3.45-14.67-2.03-6.15 1.67-11.69 5.57-16.63 9.44-2.51.94-4.15-2.03-2.78-3.99 2-2.8 5.64-4.62 8.46-6.49-4.75-3.97-9.97-7.3-15.82-9.41-10.19-3.68-21-5.18-31.75-6.06-13.04-.76-24.66 3.04-36.76 7.21-3.94 1.21-7.44 3.43-11.29 4.79-2.41.82-3.85-2.83-2.1-4.28 6.69-4.71 16.2-6.76 23.71-9.89-4.55-.87-8.93-1.12-13.55-.74-22.57 1.76-46.07 4.13-67.94 10.1-13.37 3.67-26.36 7.6-38.94 13.53-12.33 5.89-24.74 13.03-34.91 22.23-8.24 7.41-14.84 16.21-17.74 27.05-3.27 11.67-1.01 25.51.97 37.29 15.75-14.1 31.52-27.41 49.51-38.64 3.01-1.67 6.65-4.2 10.19-4.16 2.18 1.3 2.95 2.72 2.01 5.24-3.15 7.44-6.68 14.68-9.18 22.4 9.12-6.13 18.24-12.2 27.86-17.55 5.7-3.21 11.73-6.77 17.97-8.73 10.12-13.48 20.88-27.55 33.2-39.1 1.37-1.22 3.16-2.49 4.74-.83 1.97 1.66-.5 4.44-1.78 5.8-11.23 11.15-21.24 23.67-30.61 36.42-5.83 8.14-11.22 16.2-14.25 25.85 9.1-4.35 18.07-8.91 27.45-12.66 5.26-2.01 9.73-4.61 15.48-4.93.57.88 1.14 1.77 1.71 2.66-2.39 2.91-5.56 3.2-8.84 4.63-11.41 4.58-22.48 9.9-33.36 15.62-2.39 1.08-4.88 2.84-7.56 1.67-1.23-1.37-1.59-2.38-1.31-4.23 1.22-8.29 5.53-15.93 9.78-23-13.97 7.46-27.31 15.99-40.06 25.38-2.08 1.38-3.64 2.88-6.29 1.62-2.23-2.25-1.05-5.6-.4-8.26 2.23-6.8 4.98-13.46 7.92-19.99-18.77 11.62-35.31 25.5-51.59 40.3-1.8 1.37-2.9 3.36-5.45 2.45-2.52-3.66-2.45-9.26-3.52-13.53-9.22 9.12-16.41 19.51-24.7 29.44-3.3 3.84-5.77 8.22-8.81 12.23-1.02 1.38-2.48 1.27-3.97.82-1.85-1.74-1.63-4.57-2-6.92-15.42-10.46-25.74-27.71-25.91-46.54-.48-14.39 4.57-28.05 12.41-39.92 10.05-15.08 24.66-27.03 40.66-35.34 1.74-.8 4.3-2.2 5.8-.3 1.62 1.87 1.21 3.17-.13 5.02-8.45 11.57-16.23 24.24-21.18 37.73-3.92 10.54-6.55 23.08-4 34.21 8.69-15.24 22.11-27.95 36.83-37.31 2.32-1.96 3.77-4.95 5.74-7.26 9.25-11.3 21.66-19.74 34.35-26.73 14-7.85 28.99-13.26 44.41-17.55 18.04-5.46 36.53-8.2 55.22-10.25-2.99-3.13-5.88-6.23-8.19-9.91-6.42-10.13-9.06-22.5-8.73-34.39.68-14.12 5.35-27.96 13.81-39.33 8.36-11.36 20.53-20 34.58-22.44 3.2-.86 6.59 3.5 4.19 6.25-7.67 11.65-13.03 24.58-14.59 38.52-.53 6.22-.24 12.43.54 18.62 4.26-5.71 9.87-9.81 16.02-13.29 2.58-1.64 5.22-2.33 6.64-5.24 13.46-24.93 37.62-44.38 65.17-51.33 13.82-3.38 29.09-3.4 42.61 1.31Z" fill="#000"/><path d="M659.52 101.63c-15.49 3.57-29.81 11.62-41 22.89-13.61 13.5-22.62 31.47-25.27 50.45-2.04 12.68-.58 26.03 3.32 38.23-7.22-1.25-14.21-2.63-21.57-2.57-2.36-.14-4.46.27-6.53-1.06-4.58-2.85-9.17-6.18-12.9-10.1-1.28-8.66-.86-18.13 1.2-26.68 3.82-16.89 13.18-32.46 25.33-44.68 13.27-13.27 30.36-23.19 48.92-26.66 9.41-1.9 19.1-1.8 28.5.18Z" fill="rgba(175, 175, 175, 1)"/><path d="M544.27 109.78c-3.05 5.62-6.11 11.17-8.3 17.21-5.65 14.94-6.94 31.37-2.57 46.82 4.44 15.51 14.53 28.43 27.54 37.77l-4.26.9c-3.69-2.39-7.07-4.9-11.67-4.89-6.79-.23-13.79.1-20.52.97-10.22-6.71-16.31-17.52-18.71-29.33-3.04-15.7.23-32.25 8.62-45.83 6.95-11.11 17.1-20 29.87-23.62ZM634.999 140.5c21.33 1.31 41.82 11.56 54.84 28.64 9.53 12.44 14.59 28.17 13.5 43.86-.01 2.02-.55 4.54.31 6.4 1.75 1.91 4.44.95 4.9-1.54 1.57-9.65.41-19.96-2.36-29.32-5.3-17.58-17.37-32.41-32.95-41.98 2.84.45 5.72.65 8.56 1.09 26.95 4.7 51.54 22.88 62.52 48.13 5.34 11.97 6.84 25.31 4.89 38.23-2.68 15.25-11.27 28.62-23.52 37.97-9.53-11.6-20.87-21.05-35.73-24.73-6.48-1.93-12.79-1.44-19.44-1.35-5.43-7.17-11.35-13.43-19.99-16.64-7.2-2.96-14.29-3.41-21.6-.49-7.45-6.86-15.88-11.32-25.64-13.98-9.34-23.88-5.64-51.56 8.44-72.81 7.86-.9 15.29-2.26 23.27-1.48Z" fill="rgba(175, 175, 175, 1)"/><path d="m554.97 158.53.18-.12c-4.4 11.4-6.29 21.7-6.06 33.96-3.91-5.52-7.78-11.82-9.44-18.43 3.2-7.15 8.91-11.34 15.32-15.41ZM536.009 213.34c4.62-.38 9-.13 13.55.74-7.51 3.13-17.02 5.18-23.71 9.89-1.75 1.45-.31 5.1 2.1 4.28 3.85-1.36 7.35-3.58 11.29-4.79 12.1-4.17 23.72-7.97 36.76-7.21 10.75.88 21.56 2.38 31.75 6.06 5.85 2.11 11.07 5.44 15.82 9.41-2.82 1.87-6.46 3.69-8.46 6.49-1.37 1.96.27 4.93 2.78 3.99 4.94-3.87 10.48-7.77 16.63-9.44 4.9-1.42 10.1.18 14.67 2.03 7.67 3.23 13.19 9.52 17.69 16.31 4.64 5.02 7.06 11.03 10.11 17.02.89 1.99 2.59 1.96 4.43 1.36.76-1.53 1.03-2.63.38-4.28-1.78-4.8-4.62-9.26-7.06-13.74 7.75-.08 15.35 1.03 22.41 4.37 12.4 5.62 22.2 16.27 29.5 27.53 9.92 15.46 16.36 33.64 20.59 51.43 4.09 17.2 6.12 34.57 7.05 52.21.23 3.33-.15 6.84.51 10.12.91 2.03 2.86 1.27 4.67 1.57 1.34-5.82.45-11.81.12-17.69-.62-14.59-2.99-28.68-5.49-42.99 9.89 19.77 16.77 41.12 20.85 62.83 3.5 20.34 4.81 40.54.19 60.84-3.29-1.73-6.6-3.4-10.09-4.7-10.25-3.54-20.77-3.35-31.3-1.27-1.17-1.61-2.32-3.47-3.84-4.75-1.93-.7-2.64-.19-4.12.99-.46 2.56 1.16 3.92 2.32 5.96 2.2 3.36 3.64 7.19 4.38 11.13 2.3 10.63-.04 22.45-3.86 32.48-6.45 16.74-18.48 31.95-34.02 41.1 12.18-26.83 14.41-57.79 10.85-86.75a370.466 370.466 0 0 0 14.22-43.64c.38-1.99 1.03-3.94-.07-5.81-1.54-.89-2.45-.65-3.88.28-1.53 2.69-2.07 6.02-2.88 9-8.74 2.97-17.35 6.32-26.1 9.29-.25-8.31-.23-16.73-1.27-24.99-2.03-18.79-3.76-37.51-7.75-55.78-.28-1.63-.88-3.42-.63-5.06 1.19-3.12 2.88-6.02 3.93-9.2 4.84-13.72 5.05-29.23 3.33-43.53-.73-3.3-5.53-3.06-5.46.54 1.41 15.78 1.42 31.09-5.24 45.81-3.87 8.44-10.04 15.49-18.87 18.84-.61-2.02-1.26-4.02-1.82-6.06-.71-2.94-1.64-5.78-3.09-8.45-5.61-10.33-12.78-19.49-19.16-28.93-1.7-2.32-3.81-5.75-6.69-6.63-3.25-.63-5.09 2.58-6.75 4.77-3.38 5.05-7.52 9.44-11.17 14.28-2.01-2.26-4.17-4.21-5.58-6.94-4.52-11.01-5.13-23.95-5.43-35.72.08-1.87-.82-2.5-2.13-3.61-6.42.31-12.98 4.32-18.64 7.13-4.1 1.7-7.34 4.37-10.91 6.92-9.2 6.78-18.16 13.74-26.35 21.74-3.48-7.48-5.82-14.96-6.91-23.15-.22-2.12-2.32-3.28-4.01-1.93-1.08.66-.89 2.71-1.14 3.82-5.07 1.11-10.01 2.26-14.97 3.79-5.75.32-10.22 2.92-15.48 4.93-9.38 3.75-18.35 8.31-27.45 12.66 3.03-9.65 8.42-17.71 14.25-25.85 9.37-12.75 19.38-25.27 30.61-36.42 1.28-1.36 3.75-4.14 1.78-5.8-1.58-1.66-3.37-.39-4.74.83-12.32 11.55-23.08 25.62-33.2 39.1-6.24 1.96-12.27 5.52-17.97 8.73-9.62 5.35-18.74 11.42-27.86 17.55 2.5-7.72 6.03-14.96 9.18-22.4.94-2.52.17-3.94-2.01-5.24-3.54-.04-7.18 2.49-10.19 4.16-17.99 11.23-33.76 24.54-49.51 38.64-1.98-11.78-4.24-25.62-.97-37.29 2.9-10.84 9.5-19.64 17.74-27.05 10.17-9.2 22.58-16.34 34.91-22.23 12.58-5.93 25.57-9.86 38.94-13.53 21.87-5.97 45.37-8.34 67.94-10.1ZM355.32 240.21c-4.73 6.48-8.8 13.51-12.5 20.63-5.51 11.16-10 23.59-10.17 36.16-.09 6.6.04 12.96 3.29 18.89-3.89 10.05-3.89 19.92-4.47 30.49-4.46-3.89-8.61-8.01-11.81-13.03-5.41-8.09-8.12-17.66-8.4-27.35.27-13.15 4.76-25.75 12.2-36.53 8.29-12.19 19.38-21.57 31.86-29.26Z" fill="rgba(175, 175, 175, 1)"/><path d="M592.969 274.33c1.31 1.11 2.21 1.74 2.13 3.61.3 11.77.91 24.71 5.43 35.72-2.61.99-4.57 2.09-6.06-1.12-3.33-9.27-4.21-19.74-4.77-29.54.23-3.48-1.03-7.42 3.27-8.67Z" fill="#000"/><path d="M372.04 280.81c-3.58 10.27-2.71 20.39-2.09 31.02-6.36 5.76-11.9 12.11-17.23 18.82-5.07 6.43-10.5 12.56-15.46 19.08.46-11.47.05-22.22 4.55-32.92 5.81-14.42 18.01-26.73 30.23-36Z" fill="rgba(175, 175, 175, 1)"/><path d="M574.33 281.46c1.11.99 3.03 2.88 1.62 4.37-2.55 3.1-6.59 5.04-9.75 7.49-9.2 6.8-18.96 13.8-26.78 22.16-1.03 1.01-1.75 1.88-3.35 1.64-2.14-1.1-3.31-3.86-4.34-5.92-3.18-7.01-5.96-14.64-6.72-22.34.25-1.11.06-3.16 1.14-3.82 1.69-1.35 3.79-.19 4.01 1.93 1.09 8.19 3.43 15.67 6.91 23.15 8.19-8 17.15-14.96 26.35-21.74 3.57-2.55 6.81-5.22 10.91-6.92ZM624.029 301.55c2.88.88 4.99 4.31 6.69 6.63 6.38 9.44 13.55 18.6 19.16 28.93 1.45 2.67 2.38 5.51 3.09 8.45-1.38.54-2.77.85-4.18.94-2.18-3.07-3.28-6.77-5.33-9.94-6.15-9.93-13.32-19.25-20.14-28.73-3.94 5.35-7.86 11.23-12.81 15.67-2.83.94-3.17-.9-4.4-2.9 3.65-4.84 7.79-9.23 11.17-14.28 1.66-2.19 3.5-5.4 6.75-4.77ZM311.03 417c2.23-.32 3.02 1.27 4.39 2.62-1.93 6.68-2.86 13.51-3.35 20.43-.33 2.75-.46 5.9-1.62 8.42-2.09 2.21-5.1 3.57-7.48 5.47-6.16 4.74-11.14 11.28-15.12 17.9-7.34 12.51-12.08 26.73-13.47 41.16-.52 3.8.35 8.55-1.34 12-1.61 2.18-3.87.88-5.44-.58-7.95-7.71-12.86-18.29-14.33-29.22-3.34-24.52 7.95-49.61 27.11-64.86 8.7-6.93 19.54-12.11 30.65-13.34Z" fill="#000"/><path d="M309.031 423.07c-1.5 6.76-1.98 13.62-2.95 20.46-.12 1.95-1.86 2.32-3.21 3.4-7.63 4.83-13.6 11.99-18.46 19.5-9.62 15.08-14.84 32.33-16.19 50.12-6.12-7.82-9.46-17.66-9.75-27.55-1.23-29.86 20.84-60.12 50.56-65.93Z" fill="rgba(175, 175, 175, 1)"/><path d="M720.9 576.9c4.86.94 10.03 2.24 15.1 2.55 2.8.12 5.33-.72 8.07-.78 1.74 1.7 1.82 4.15 1 6.32-1.26 3.34-4.05 6.1-6.48 8.63 9.26-.19 18.27 1.07 26.69 5.08 6.96 3.34 12.78 8.84 16.27 15.76 4.5 8.99 5.2 18.66 4.52 28.55-1.29 13.48-5.03 26.17-9.88 38.76-1.37-.5-3.52-.33-4.03-1.98-1.4-3.45-2.06-7.15-3.58-10.57-11.11-26.88-38.55-46.2-67.58-47.76-3.25-.18-6.67.18-9.88-.42-2.16-2.03-1.79-3.79.07-5.85 7.05-8 13.74-16.43 19.83-25.19 2.41-3.41 3.93-7.33 6.22-10.79.77-1.04 2.28-2.51 3.66-2.31Z" fill="#000"/><path d="M721.44 582.76c5.79.94 11.49 2.02 17.39 2.05-7.57 9.44-19.38 15.71-30.91 18.84 3.57-4.81 7.17-9.37 9.99-14.71 1.11-2.11 2.18-4.22 3.53-6.18ZM737.001 599.21c10.15-.23 21.94 1.39 30.4 7.44 7.39 5.2 11.47 13.5 12.56 22.33 1.88 13.42-1.42 27.17-5.24 39.97-11.79-30.79-43.69-53.32-76.76-53.21 1.52-1.64 3.07-4.63 5.02-5.55 9.6-.97 18.4-4.68 26.54-9.72 2.38-1.6 4.76-1.14 7.48-1.26Z" fill="rgba(175, 175, 175, 1)"/></g></g></svg>