<svg xmlns:dc="http://purl.org/dc/elements/1.1/" xmlns:cc="http://creativecommons.org/ns#" xmlns:rdf="http://www.w3.org/1999/02/22-rdf-syntax-ns#" xmlns:svg="http://www.w3.org/2000/svg" xmlns="http://www.w3.org/2000/svg" viewBox="0 0 762 762" fill="none"><metadata><rdf:RDF><cc:Work><dc:format>image/svg+xml</dc:format><dc:type rdf:resource="http://purl.org/dc/dcmitype/StillImage"/><dc:title>Adventurer</dc:title><dc:creator><cc:Agent><dc:title>Lisa Wischofsky</dc:title></cc:Agent></dc:creator><dc:source>https://www.instagram.com/lischis_adventures/</dc:source><cc:license rdf:resource="https://creativecommons.org/licenses/by/4.0/"/></cc:Work><cc:License rdf:about="https://creativecommons.org/licenses/by/4.0/"><cc:permits rdf:resource="https://creativecommons.org/ns#Reproduction"/><cc:permits rdf:resource="https://creativecommons.org/ns#Distribution"/><cc:permits rdf:resource="https://creativecommons.org/ns#DerivativeWorks"/><cc:requires rdf:resource="https://creativecommons.org/ns#Notice"/><cc:requires rdf:resource="https://creativecommons.org/ns#Attribution"/></cc:License></rdf:RDF></metadata><mask id="avatarsRadiusMask"><rect width="762" height="762" rx="0" ry="0" x="0" y="0" fill="#fff"/></mask><g mask="url(#avatarsRadiusMask)"><path d="M396.01 164.85c37.82 4.9 74.21 19.64 104.8 42.39 6.15 4.84 12.48 9.33 18.02 14.92 23.77 21.98 42.73 49.02 55.13 78.95 9.35 22.31 14.72 46.04 16.64 70.14 6.62.81 13.05 2.14 19.12 5 15.54 6.93 27.08 20.94 31.78 37.21 2.63 9.56 3.56 19.75 1.72 29.55-2.96 18.76-13.72 36.13-29.37 46.92-10.94 7.65-24.49 12.03-37.86 11.68-5.13-.05-10.04-1.6-15.13-1.79-1.85 2.17-3.23 4.84-4.76 7.25-18.66 29.62-44.57 54.51-74.64 72.4-28.1 16.73-59.9 27.16-92.46 30.32-11.08.7-21.87 2.05-32.98.74-51.69-2.3-102.07-23.44-140.15-58.43-29.03-26.55-50.84-60.83-62.54-98.39-7.09-22.85-10.62-46.78-10.07-70.71.52-40.34 12.53-80.58 33.94-114.76 19.1-30.81 45.91-56.58 77.2-74.83 29.63-17.28 63.35-27.68 97.59-29.87 14.66-1.47 29.44-.37 44.02 1.31Z" fill="#000"/><path d="M363 169.06c48.47-1.39 97.32 14.7 135.81 44.12 6.55 4.06 11.72 9.49 17.36 14.64 24.33 22.63 43.2 50.95 54.93 82.02 7.43 19.61 11.86 40.2 13.56 61.09-8.89.74-17.34 2.34-25.38 6.38-2.19 1.03-1.89 4.95.68 5.23 2.35.23 4.98-1.51 7.24-2.2 14.62-5.37 31.32-4.35 44.78 3.68 11.69 6.78 20.09 18.16 23.89 31.06 2.6 8.25 2.68 17.41 1.76 25.95-2.5 17.35-12.35 33.73-26.73 43.81-15.71 11.33-37.17 14.64-54.93 6.2-3.17-1.43-5.94-3.58-9.08-5.05-2.95-1.09-4.88 2.79-2.7 4.75 3.17 2.76 7.34 4.52 11 6.56-20.14 34.15-49.45 62.7-84.41 81.47-30.2 16.31-64.44 25.53-98.78 26.15-27.63.72-55.33-4.04-81.21-13.72-30.32-11.24-57.84-29.43-80.37-52.6-22.67-23.37-39.92-51.88-50.2-82.77-14.96-44.64-14.91-94.01.27-138.59 11.05-33.06 30.28-63.21 55.37-87.39 29.67-28.73 67.65-48.54 108.13-56.67 12.8-2.52 25.94-4.24 39.01-4.12Z" fill="rgba(242, 211, 177, 1)"/><path d="M605.03 404.4c2.63-.1 3.44 3.8 1.36 4.98-3.69 1.83-7.82 2.77-11.64 4.35-5.82 2.04-11.28 4.76-16.68 7.72 4.29 2.34 8.86 4.74 12.71 7.76 2.58 2.09 4.85 4.35 5.33 7.8-.26 3.59-2.73 6.55-5.45 8.69-5.86 4.66-13.92 7.18-20.79 10.26-1.75.62-4.43 1.99-5.59-.26-1.02-1.74-.06-3.11 1.57-3.87 6.65-3.3 14.86-5.62 20.79-10.16 1.37-1.14 3.39-2.74 3.61-4.62-4.07-5.63-12.42-8.59-18.23-12.09-2.34-1.72-2.29-4.24-.16-6.13 7.27-5.64 16.98-9.26 25.57-12.38 2.42-.83 5.03-1.95 7.6-2.05Z" fill="#000"/><g transform="translate(-161 -83)"><path d="M550.3 424.38c22.91-2.41 46.19 7.99 59.51 26.79 8.38 11.53 12.6 25.62 12.34 39.84-.45 10.96-3.32 21.75-8.93 31.21-8.53 14.65-23.03 25.87-39.46 30.13-13.66 3.68-28.41 2.77-41.51-2.57-13.65-5.57-25.24-15.76-32.37-28.67-7.41-12.95-9.7-28.21-7.34-42.87 2.24-13.11 8.51-25.37 17.91-34.79 10.63-10.77 24.77-17.58 39.85-19.07Z" fill="#000"/><path d="M549.26 430.26c15.15-1.85 30.28 1.89 42.62 10.89 15.43 11.05 25 29.84 24.48 48.85.05 22.69-14.12 44.35-34.86 53.52-10.79 4.85-22.81 6.65-34.5 4.52-16.4-2.64-31.49-12.63-40.35-26.67-5.6-8.78-8.74-18.95-9.37-29.32-.6-14.46 4.23-29.16 13.41-40.36 9.45-11.75 23.64-19.57 38.57-21.43Z" fill="#fff"/><path d="M381.24 447.1c12.75-1.33 25.88 1.93 36.49 9.13 12.44 8.34 21.16 21.91 23.47 36.73 1.17 8.18.85 16.9-1.66 24.82-3.88 13.03-12.79 24.38-24.49 31.29-10.44 6.22-22.99 8.89-35.05 7.23-15.79-1.81-30.35-10.99-39.02-24.28-5.54-8.32-8.46-18.03-9.11-27.97-.3-12.31 3.26-24.64 10.57-34.6 9.04-12.53 23.43-20.8 38.8-22.35Z" fill="#000"/><path d="M376.5 453.67c18.86-4.33 39.25 3.64 50.42 19.36 7.92 11.03 11.42 25.76 8.17 39.05-2.03 9.76-7.16 18.79-14.44 25.58-8.03 7.66-18.61 12.28-29.64 13.28-19.88 1.83-39.68-9.53-48.32-27.49-7.78-15.66-6.41-34.9 3.48-49.31 7.02-10.4 18.06-17.87 30.33-20.47Z" fill="#fff"/><path d="M576.41 464.4c5.74-1.68 12.29-1.2 17.67 1.49 9.98 4.7 16.69 17.39 12.92 28.14-2.09 8.4-8.81 15.23-17.18 17.45-6.55 1.67-13.68.8-19.44-2.84-8.89-5.49-13.54-16.73-10.71-26.86 2.08-8.31 8.57-14.91 16.74-17.38ZM408.46 478.49c12.74-1.61 25.04 8.55 25.32 21.49 1.08 12.38-9.26 24.22-21.78 24.29-12.48.61-23.88-9.65-23.87-22.26-.71-11.8 8.69-22.33 20.33-23.52Z" fill="#000"/></g><g transform="translate(-161 -83)"><g fill="#000"><path d="M523.24 384.36c6.17-.42 13.09-.61 18.45 2.95 3.68 2.44 5.4 6.35 4.48 10.74-1.55 6.16-6.62 10.92-11.61 14.5-8.97 6.29-19.71 10.24-30.57 11.53-5.61.53-12.5.43-17.47-2.55-3.63-2.13-5.9-6.12-5.2-10.36 1.02-5.75 5.49-10.49 9.94-13.96 9.19-7.03 20.55-11.34 31.98-12.85ZM392.22 401.23c9.11-.36 18.31.51 26.31 5.24 3.85 2.26 7.34 5.89 7.89 10.49.34 4.21-1.96 7.8-5.19 10.27-4.52 3.55-9.87 5-15.43 5.99-9.95 1.02-20.55.32-29.48-4.58-3.87-2.29-7.88-5.85-8.47-10.57-.73-4.27 2.02-8.47 5.39-10.84 5.4-3.87 12.43-5.69 18.98-6Z"/></g></g><g transform="translate(-161 -83)"><path d="M480.96 561.69c4.71-.58 10.26.05 13.71 3.66 3.78 3.91 4.15 9.42 3.22 14.53-2.64 11.8-12.86 21.43-24.83 23.27-7.5 1.49-15.57-.3-22.15-4.05-5.15-2.91-8.86-7.64-11.08-13.06-1.31-3.29-1.62-7.23-.43-10.59 1.3-3.11 4.12-5 7.34-5.69 5.66-1.84 11.66.26 16.63 3.04 4.58-5.09 10.57-10.17 17.59-11.11Z" fill="#000"/><path d="M480.51 567.7c3.29-1.03 7.38-.57 10 1.78 2.06 2.03 2.11 5.89 1.71 8.56-1.84 9.78-10.28 17.74-20.07 19.32-6.52 1.31-13.19-.33-18.84-3.68-4.3-2.52-7.44-6.98-8.81-11.72-.7-2.45-.36-5.07 2.04-6.38 2.59-1.08 5.76-1.02 8.48-.49 3.48.7 5.8 2.91 8.97 4.32 1.93-.09 2.62-1.39 3.81-2.64 3.32-3.94 7.69-7.62 12.71-9.07Z" fill="#8F2E45"/></g><g transform="translate(-161 -83)"/><g transform="translate(-161 -83)"><path d="M710 136.07c13.24.24 26.31 5 36.52 13.46 1.21.98.91 2.91.06 4.06-1.68 1.03-3.69.41-5.59.35-5.65-.69-11.55.5-16.98 2.04-12.91 4-23.14 12.48-31.39 22.98 6.62-2.05 13.43-3.29 20.38-3.09 16.88.57 32.84 6.13 47.21 14.82 18.32 11.01 34.24 27.37 43.43 46.77 5.27 11.65 8.47 25.7 5.14 38.31-2.2 9.36-8.08 17.65-16.18 22.84-6.59 4.38-13.96 6.17-21.69 7.32 3.32 5.51 7 10.6 9.72 16.46 8.04 16.74 11.45 36.25 13.37 54.6.41 7.32.97 14.68 1.12 22.01-.55 10.16-.34 20-1.94 30.01-1.12 10.04-2.97 20.24-6.34 29.78-1.4 3.58-3.49 8.17-6.96 10.17-1.69 1.04-3.31-.29-4.82-1.01-8.3-5-18.1-7.98-27.83-7.83-.65 8.95-2.4 17.69-6.25 25.84-6.78 14.8-19.55 27.14-35.47 31.42-8.59 2.46-16.87 2.15-25.38-.38-2.04-.61-2.26-3.3-.64-4.51 2.68-2.35 5.58-4.22 7.77-7.1 8.39-10.46 13.01-24.19 14.59-37.38.84-9.95.76-21.37-4.69-30.14-1.66-2.86-4.4-4.04-6.58-6.33-.96-7.17-2.25-14.12-5.56-20.65-.97-2.35-2.76-4.66-1.35-7.22 1.6-3.26 3.65-6.32 5.49-9.46-3.46.37-6.58.53-9.29-2.02-5.15-4.91-8.49-12.05-10.29-18.85-1.17-4.41-3.25-8.8-3.76-13.33-.08-1.5.97-2.33 2.31-2.63 4.29-1.15 7.64-3.52 11.39-5.87 3.81-2.49 6.27-6.03 8.63-9.84-8.05.83-16.4.9-24.37-.59-10.85-2.17-19.93-7.21-29.66-12.17-4.69-2.61-9.12-4.82-11.86-9.69-10.78-2.65-21.55-5.27-32.22-8.35-17.6-4.85-34.63-10.57-53.04-11.33-16.11-.8-32.51 1.38-48.21 4.96-4.73 1-8.77 3.17-12.67 5.94l-2.67-1.38c.41-6.97 4.56-13.87 7.67-20-7.67 5.81-14.89 12.66-20.58 20.44-1.42 1.85-2.31 4.44-4 5.99-4.52 1.37-9.83.66-14.54.85-6.74.17-13.37-.63-20.07-1.04-6.19 1.86-11.99 5.3-18.07 7.56-13.36 5.04-27.07 7.99-41.33 5.23-3.68 3.89-7.04 7.95-10.11 12.34-7.81 11.18-14.82 22.89-20.91 35.1-6.07 11.54-9.84 23.62-13.9 35.96-1.37 4.85-1.94 9.87-3.31 14.73-1.13 3.95-1.29 8.03-2.03 12.04-2.22 2.37-6.51 2.96-9.33 4.68-8.18 4.56-15.12 11.87-20.67 19.34-7 9.62-12.85 20.82-15.26 32.54-.83 3.78-.5 7.48-.83 11.28-1.32 2.17-4.1 2.43-5.3.01-3.77-8.32-5.02-18.04-5.03-27.11.79-36.46 25.5-71.26 58.99-85.24-3.96-10.03-5.25-21.05-5.62-31.76-.47-10.63 1.6-20.68 3.7-31.02 2.92-12.75 7.5-25.03 15.02-35.81-6.42-1.12-12.34-3.39-16.99-8.12-7.72-7.59-10.19-17.56-10.82-28.05-.1-15.17 4.83-29.99 13.44-42.43 7.37-10.62 17.27-19.22 29.66-23.37 4.28-10.87 11.41-20.26 21.35-26.51 2.78-1.29 4.53-.47 5.85 2.17-1.59 4.44-2.38 8.51-2.63 13.24 6.06-4.32 12.94-6.47 20.16-7.88 10.58-2.31 22.01-1.74 32.35 1.42 8.19 2.84 16.56 8.86 19.97 17.09 3.72 7.78 3.18 17.56.27 25.52 16.58-4.98 34.1-8.19 51.45-7.69 10.21.01 20.53 1.25 30.36 4.05 6.91 1.86 13.54 5.68 19.64 9.38 3.03 1.77 5.19 4.13 7.08 7.04 18.97-6.26 38.97-9.12 58.93-8.11 10.32.59 20.63 2.74 30.57 5.53-1.71-4.19-3.11-8.47-3.84-12.95-2.28-11.66-.07-24.27 4.68-35.06 11.9-26.99 40.99-45.65 70.58-44.37Z" fill="#000"/><path d="M734.401 148.17c-16.04 1.07-30.95 9.91-41.59 21.65-17.71 19.52-25.76 47.45-19.11 73.21-8.69-4.65-17.76-8.81-27.11-11.92-4.55-7.56-7.05-16.26-6.84-25.11-.21-14.87 6.18-29.28 15.94-40.29 11.88-13.49 29.28-22.62 47.3-23.79 10.84-.95 21.74 1.27 31.41 6.25ZM362.87 174.96c-1.84 8.37-.76 16.47.06 24.85.69 8.34 3.06 16.76 5.61 24.7 2.72 8.97 8.47 17.4 13.62 25.2-1.29 1.61-2.42 4.14-4.39 4.96-5.84 2.7-11.59 5.56-17.04 9.02-4.27-2.03-7.61-5.28-10.35-9.08-4.99-7.95-7.69-17.22-7.81-26.61-.52-14.2 3.18-28.85 10.24-41.19 2.57-4.66 6.25-8.22 10.06-11.85Z" fill="rgba(106, 78, 53, 1)"/><path d="M404.001 178.78c8.4.2 16.5 1.88 23.36 6.96 4.73 3.18 7.86 7.78 9.32 13.26 2.07 7.36.52 14.84-3.23 21.35-12.48 4.24-25.88 8.9-37.05 15.96-4.04 2.44-7.53 5.52-10.78 8.92-4.76-6.99-9.51-14.57-11.91-22.74-3.33-10.58-5.66-21.23-5.66-32.38 2.74-2.49 4.97-5.03 8.49-6.47 8.66-3.64 18.08-5.37 27.46-4.86ZM764.53 200.49c15.71 11.23 29.31 26.77 36.12 45.01 3.12 8.1 4.28 16.89 3.17 25.51-1.21 9.14-6.42 17.62-14.22 22.6-6.57 4.24-14.94 6.67-22.76 6.48-2.52-2.13-4.53-4.77-7.24-6.73-10.48-8.08-22.99-13.92-34.4-20.67-14.78-8.2-29.09-17.25-43.86-25.47-7.8-18.71-4.23-41.47 5.26-58.93 6.52-3.8 13.64-6.1 21.22-6.39 19.95-1.35 40.7 7.15 56.71 18.59ZM340.61 200.33c-5.04 16.86-6.01 36.79 2.33 52.77 2.66 5.92 7.11 10.48 12.27 14.3-8.98 6.05-16.66 13.53-23.29 22.07-4.39-.4-8.5-.68-12.34-3.05-7.61-4.37-11.36-12.31-12.96-20.64-2.08-13.67 1.18-27.44 7.72-39.48 5.39-9.84 13.46-19.12 23.45-24.46.94-.51 1.87-1.01 2.82-1.51ZM503.959 217.04c6.11.36 12.13 1.53 17.99 3.26 5.63 1.57 11.09 4.69 16.18 7.56 2.36 1.29 4.26 3.07 6.09 5.01-7.57 3.32-14.98 6.87-21.87 11.47-13.74 9.11-25.18 20.91-34.61 34.39-1.71.52-3.35 1.05-4.8 2.13-11.52 7.87-22.38 18.04-29.59 30.07-9.41.52-18.95.19-28.3-1.05-9.76-1.03-20.34-3.08-28.83-8.24-6.48-3.82-11.59-10.08-15.34-16.52-1.41-2.17-1.67-5.83-3.87-7.26-2.44-.79-4.08 1.66-3.55 3.9 1.2 5.79 5.45 11.19 9.13 15.68 7.5 8.97 18.18 13.96 29.49 16.15-11.65 5.12-23.23 9.22-36.07 9.93-7.96.24-15.83-1.21-22.06-6.46-3.72-2.65-5.85-6.38-8.88-9.66-2.57 1.27-3.57 2.44-2.58 5.38 2.8 5.58 8.97 9.83 14.19 13.01-5.77 6.62-10.89 13.84-15.66 21.22-8.32 13.3-16.1 27.39-21.9 41.98-3.89-12.65-4.68-25.86-3.69-39 1.95-14.44 4.84-28.22 11.25-41.41a108.3 108.3 0 0 1 20.43-27.47c8.14-7.57 17.26-13.91 27.18-18.93.61 1.55.89 2.58 2.59 3.15 2.86-.25 3.57-2.44 4.94-4.52 4.1-7.17 8.75-13.67 15.69-18.34 8.01-5.44 17.23-9.29 26.29-12.62 25.05-9.27 53.35-16.26 80.16-12.81Z" fill="rgba(106, 78, 53, 1)"/><path d="M583.02 229.46c10.71-1.57 21.23-.99 31.99-.58 25.87 3.58 48.38 14.37 70.68 27.4 16.77 9.98 33.62 19.88 50.7 29.3 7.05 3.99 13.87 7.68 20.24 12.77 4.73 3.78 8.27 9.46 11.57 14.46 11.4 15.37 16.04 35.55 18.85 54.15 2.32 18.47 3.16 36.97 1.07 55.51-.65 8.18-1.64 16.51-3.53 24.5-1.35 5.98-2.77 11.67-6.3 16.79-9.26-5.87-20.31-9.31-31.31-9.16-.64-16.96-8.52-34.08-22.55-44.03-1.58-1.33-4.41-1.47-5.01.88-.71 2.66 1.52 3.45 3.14 4.97 8.58 6.54 14.31 16.46 17.01 26.8 6.09 22.99-2.99 49.92-23.16 63.07-8.5 5.65-18.19 7.59-28.3 6.76 11.45-11.72 17.49-28.01 19.39-44.06 1.01-6.99.87-14.09-.55-21.02-1.4-7.88-4.65-15.19-11.46-19.84-1.03-6.66-2.48-13.13-5.37-19.26-.51-1.5-1.59-2.81-.6-4.34 2.3-4.14 5.52-8.46 6.93-13.01.49-1.89-.24-4.37-2.43-4.7-2.98-.51-5.99 2.25-8.86 1.94-2.28-.98-3.94-3.68-5.24-5.7-4.23-6.51-4.97-13.3-7.83-20.73 5.2-3.17 11.54-6.11 15.53-10.74 3.03-3.34 4.96-7.17 6.92-11.18 12.03-2.49 22.51-9.09 30.18-18.64 1.31-1.7.7-4.52-1.73-4.54-1.89-.32-2.95 1.5-4.17 2.6-4.12 4.43-8.55 8.32-14.06 10.94-11.32 5.6-24.38 6.57-36.78 5.21-11.83-1.63-21.39-6.86-31.88-12.1-1.85-.97-3.61-2.07-5.38-3.19 6.7 1.35 13.47 2.05 20.27 2.59 11.12.98 22.49-.12 33.58-1.03 2.89-.36 2.75-2.12 2.96-4.55-2.2-.61-4.26-1.1-6.57-.82-11.36.83-22.64 1.53-34.01.34-23.1-2.28-46.78-9.57-69.15-15.79-17.69-5.12-35.26-8.8-53.8-7.66-13.99.86-27.98 3.33-41.67 6.28.31-1.79.74-3.44 1.69-5.02 9.83-17.03 22.32-32.16 38.33-43.73 17.97-12.7 38.9-19.48 60.67-21.84ZM315.949 399.62c-1.71 5.5-4.05 10.6-4.98 16.35-1.06 6.39-3.51 12.25-3.76 18.8-6.6 2.41-12.54 5.98-17.66 10.79-12.91 11.96-22.7 27.69-27.44 44.64-.47-5.41-.71-10.78-.3-16.21 3.11-31.89 24.67-61.71 54.14-74.37Z" fill="rgba(106, 78, 53, 1)"/><path d="M726.49 578.08c4.4.81 9.05.53 13.51.78 6.37.29 12.05-1.36 18.11-3 1.75-.5 3.08-.62 4.71.32 4.13 2.29 7.33 6.43 9.44 10.58 3.81 7.66 3.97 16.13 2.95 24.46-2.62 15.4-12.03 30.42-25.8 38.17-2.2 1.24-3.98 1.76-5.94-.25-.42-2.59 2.02-5.15 2.69-7.65 1.1-4.28.95-8.97.21-13.3-2.75-13.09-11.11-25-22.31-32.27-4.56-3.18-9.5-2.82-12.55-7.94 2.53-3.7 4.59-7.71 7.13-11.39 2.37-1.18 5.41 1.04 7.85 1.49Z" fill="#000"/><path d="M759.941 581.02c8.54 5.73 11.2 17.36 9.91 27-1.6 12.75-7.92 24.18-17.52 32.65 1.67-10.5-1.47-21.18-6.74-30.22-6.12-10.4-15.53-19.36-26.96-23.6.85-1.44 1.71-2.89 2.56-4.33 6.61 2.32 12.98 1.44 19.81 1.76 6.74.23 12.5-1.96 18.94-3.26Z" fill="rgba(106, 78, 53, 1)"/></g></g></svg>