<svg xmlns:dc="http://purl.org/dc/elements/1.1/" xmlns:cc="http://creativecommons.org/ns#" xmlns:rdf="http://www.w3.org/1999/02/22-rdf-syntax-ns#" xmlns:svg="http://www.w3.org/2000/svg" xmlns="http://www.w3.org/2000/svg" viewBox="0 0 762 762" fill="none"><metadata><rdf:RDF><cc:Work><dc:format>image/svg+xml</dc:format><dc:type rdf:resource="http://purl.org/dc/dcmitype/StillImage"/><dc:title>Adventurer</dc:title><dc:creator><cc:Agent><dc:title>Lisa Wischofsky</dc:title></cc:Agent></dc:creator><dc:source>https://www.instagram.com/lischis_adventures/</dc:source><cc:license rdf:resource="https://creativecommons.org/licenses/by/4.0/"/></cc:Work><cc:License rdf:about="https://creativecommons.org/licenses/by/4.0/"><cc:permits rdf:resource="https://creativecommons.org/ns#Reproduction"/><cc:permits rdf:resource="https://creativecommons.org/ns#Distribution"/><cc:permits rdf:resource="https://creativecommons.org/ns#DerivativeWorks"/><cc:requires rdf:resource="https://creativecommons.org/ns#Notice"/><cc:requires rdf:resource="https://creativecommons.org/ns#Attribution"/></cc:License></rdf:RDF></metadata><mask id="avatarsRadiusMask"><rect width="762" height="762" rx="0" ry="0" x="0" y="0" fill="#fff"/></mask><g mask="url(#avatarsRadiusMask)"><path d="M396.01 164.85c37.82 4.9 74.21 19.64 104.8 42.39 6.15 4.84 12.48 9.33 18.02 14.92 23.77 21.98 42.73 49.02 55.13 78.95 9.35 22.31 14.72 46.04 16.64 70.14 6.62.81 13.05 2.14 19.12 5 15.54 6.93 27.08 20.94 31.78 37.21 2.63 9.56 3.56 19.75 1.72 29.55-2.96 18.76-13.72 36.13-29.37 46.92-10.94 7.65-24.49 12.03-37.86 11.68-5.13-.05-10.04-1.6-15.13-1.79-1.85 2.17-3.23 4.84-4.76 7.25-18.66 29.62-44.57 54.51-74.64 72.4-28.1 16.73-59.9 27.16-92.46 30.32-11.08.7-21.87 2.05-32.98.74-51.69-2.3-102.07-23.44-140.15-58.43-29.03-26.55-50.84-60.83-62.54-98.39-7.09-22.85-10.62-46.78-10.07-70.71.52-40.34 12.53-80.58 33.94-114.76 19.1-30.81 45.91-56.58 77.2-74.83 29.63-17.28 63.35-27.68 97.59-29.87 14.66-1.47 29.44-.37 44.02 1.31Z" fill="#000"/><path d="M363 169.06c48.47-1.39 97.32 14.7 135.81 44.12 6.55 4.06 11.72 9.49 17.36 14.64 24.33 22.63 43.2 50.95 54.93 82.02 7.43 19.61 11.86 40.2 13.56 61.09-8.89.74-17.34 2.34-25.38 6.38-2.19 1.03-1.89 4.95.68 5.23 2.35.23 4.98-1.51 7.24-2.2 14.62-5.37 31.32-4.35 44.78 3.68 11.69 6.78 20.09 18.16 23.89 31.06 2.6 8.25 2.68 17.41 1.76 25.95-2.5 17.35-12.35 33.73-26.73 43.81-15.71 11.33-37.17 14.64-54.93 6.2-3.17-1.43-5.94-3.58-9.08-5.05-2.95-1.09-4.88 2.79-2.7 4.75 3.17 2.76 7.34 4.52 11 6.56-20.14 34.15-49.45 62.7-84.41 81.47-30.2 16.31-64.44 25.53-98.78 26.15-27.63.72-55.33-4.04-81.21-13.72-30.32-11.24-57.84-29.43-80.37-52.6-22.67-23.37-39.92-51.88-50.2-82.77-14.96-44.64-14.91-94.01.27-138.59 11.05-33.06 30.28-63.21 55.37-87.39 29.67-28.73 67.65-48.54 108.13-56.67 12.8-2.52 25.94-4.24 39.01-4.12Z" fill="rgba(158, 86, 34, 1)"/><path d="M605.03 404.4c2.63-.1 3.44 3.8 1.36 4.98-3.69 1.83-7.82 2.77-11.64 4.35-5.82 2.04-11.28 4.76-16.68 7.72 4.29 2.34 8.86 4.74 12.71 7.76 2.58 2.09 4.85 4.35 5.33 7.8-.26 3.59-2.73 6.55-5.45 8.69-5.86 4.66-13.92 7.18-20.79 10.26-1.75.62-4.43 1.99-5.59-.26-1.02-1.74-.06-3.11 1.57-3.87 6.65-3.3 14.86-5.62 20.79-10.16 1.37-1.14 3.39-2.74 3.61-4.62-4.07-5.63-12.42-8.59-18.23-12.09-2.34-1.72-2.29-4.24-.16-6.13 7.27-5.64 16.98-9.26 25.57-12.38 2.42-.83 5.03-1.95 7.6-2.05Z" fill="#000"/><g transform="translate(-161 -83)"><path d="M547.51 424.76c18.86-2.87 38.7 3.12 52.85 15.9 11.97 10.64 19.78 25.9 21.39 41.84 1.71 15.31-2.41 31.35-11.25 43.98-7.71 11.16-18.93 19.73-31.67 24.34-12.1 4.21-25.39 4.98-37.82 1.79-17.06-4.16-32.1-15.58-40.76-30.86-13-22.14-11.12-51.53 4.58-71.84 10.24-13.51 25.83-22.9 42.68-25.15Z" fill="#000"/><path d="M549.22 430.26c14.42-1.74 28.8 1.48 40.84 9.62 11.38 7.55 20.01 19.23 23.84 32.34 4.19 13.59 3.12 28.81-2.84 41.72-6.11 13.63-17.66 24.89-31.56 30.42-10.22 4.24-21.57 5.65-32.49 3.68-14.04-2.26-27.16-9.91-36.18-20.89-8.37-10.16-13.06-23.03-13.59-36.15-.3-14.15 4.47-28.34 13.45-39.31 9.46-11.76 23.58-19.54 38.53-21.43Z" fill="#fff"/><path d="M381.2 447.1c13.73-1.44 27.86 2.44 38.86 10.79 11.09 8.32 18.78 20.92 21.08 34.59 1.23 8.34.97 17.27-1.61 25.34-4.45 14.93-15.53 27.6-29.73 33.99-13.38 6.19-29.15 6.58-42.86 1.22-12.89-4.96-23.64-14.96-29.59-27.41-4.7-9.99-6.75-21.7-4.67-32.61 1.84-12.02 7.9-23.26 16.82-31.51 8.64-8.08 19.94-13.17 31.7-14.4Z" fill="#000"/><path d="M378.22 453.3c9.78-1.75 19.88-.54 28.93 3.59 13.18 5.84 23.37 17.71 27.22 31.6 5.15 17-.4 36.49-13.2 48.68-12.66 12.44-32.08 17.22-49 11.63-15.74-4.88-28.38-17.93-32.71-33.83-4.79-16.91.16-35.55 12.57-47.94 7.11-7.13 16.28-11.91 26.19-13.73Z" fill="#fff"/><path d="M558.77 456.74c-3.87 4-6.69 8.52-6.65 14.27-.67 8.63 4.49 17.13 12.5 20.42 5.98 2.45 12.26 1.32 17.64-2.01-.16 9.44-2.85 18.5-9.28 25.58-9.4 10.74-24.98 15.07-38.53 10.43-14.35-4.54-24.66-18.38-24.98-33.42-.48-13.96 7.47-27.4 20.04-33.54 9.2-4.73 19.51-4.72 29.26-1.73ZM391.97 467.88c8-1.43 15.68.54 22.74 4.28-3.02 3.08-5.46 6.31-5.51 10.82-.66 7.23 4.57 14.26 11.76 15.48 3.41.68 6.2-.46 9.41-1.41 1.12 12.27-4.48 24.69-14.77 31.55-11.64 7.9-28.39 6.99-39.25-1.91-9.69-7.58-14.38-20.74-11.76-32.74 2.72-13.31 13.84-24.22 27.38-26.07Z" fill="#000"/><path d="M527.44 489.51c2.29-1 4.8-1.33 6.96.16 3.54 2.29 3.45 7.56.77 10.49-2.67 3.03-7.74 3.21-10.32-.06-2.84-3.42-1.31-8.7 2.59-10.59ZM379.44 495.55c4.76-1.63 9.31 3.59 7.07 8.01-1.61 3.62-6.93 4.37-9.39 1.3-2.61-2.97-1.48-8.01 2.32-9.31ZM536.5 504.69c2.48-.77 5.29-.59 7.77.12 6.15 2.42 8.05 11.23 3.58 16.06-3.97 4.75-11.78 4.84-15.7-.02-4.44-5.37-2.44-13.92 4.35-16.16ZM386.51 512.74c3.42-1.11 7.14-.63 9.61 2.16 3.49 3.38 3.36 9.65-.57 12.65-4.05 3.44-10.78 1.72-13.23-2.86-2.58-4.29-.61-10.32 4.19-11.95Z" fill="#fff"/></g><g transform="translate(-161 -83)"><g fill="#000"><path d="M501.99 384.96c9.91.12 19.87 3.23 28.83 7.31 3.36 1.88 7.05 4.01 7.31 8.29-5.14-.86-10.14-2.06-15.38-2.28-11.6-.68-23.13 1.36-33.25 7.23-2.54 1.41-4.95 3.26-7.64 4.35-1.8.27-3.92-1.99-3.94-3.73-.18-5.81 1.95-11.92 6.53-15.7 5.03-4.23 11.15-5.3 17.54-5.47ZM414.03 402.61c5.81.15 10.93 5.3 12.51 10.64.8 2.63-.46 5.72-3.53 5.61-8.82.21-18.21.03-26.81 2.26-7.52 2.01-14.74 6.71-21.36 10.74-1.22.81-2.57.96-3.98 1.22.33-1.93.64-3.66 1.94-5.21 3.28-4.33 6.78-8.58 10.74-12.3 5.88-5.17 13.01-8.96 20.32-11.66 3.23-1.11 6.76-1.58 10.17-1.3Z"/></g></g><g transform="translate(-161 -83)"><path d="M529.13 644.56c2.47.19 4.68 1.43 3.9 4.25-1.38 2.08-4.46 1.3-6.64 1.51-14.91.63-29.68 3.43-43.79 8.28-4.83 1.7-9.55 3.58-13.94 6.24-2 .93-3.37 2.59-5.67 1.42-2.15-1.55-1.16-3.48.08-5.2 8.48-4.96 17.64-8.35 27.08-10.96 12.63-3.36 25.89-5.66 38.98-5.54Z" fill="#000"/></g><g transform="translate(-161 -83)"/><g transform="translate(-161 -83)"><path d="M464 199.27c14.7-.99 29.35 2.88 42.56 9.13 14.36 7.28 27.03 17.44 33.33 32.68.94 2.58 1.22 4.93-.73 7.13-1.47.73-3.41.54-5.01.95-3.03 1.03-5.23 3.48-6.47 6.38-2.8 6.28-3.87 13.41-6.1 19.95-2.14 6.98-5.23 13.48-10.18 18.92-12.94 14.24-30.77 24.21-49.42 28.7-14.62 3.6-30.61 3.63-45.02-.92-7.65-2.4-14.09-7.44-18.33-14.22-.78-1.27-.18-3.49 1.55-3.6 4.5-.41 8.77-.47 12.97-2.4 5.81-2.29 9.14-7.75 10.13-13.73 1.02-8.48-.62-15.93-1.51-24.24-1.45-10.46-2.53-21.83-.32-32.23 1.59-7.46 5.07-14.39 10.63-19.67 8.27-8.15 20.5-12.26 31.92-12.83Z" fill="#000"/><path d="M461.97 205.22c13.29-1.46 27.37 1.94 39.52 7.28 14.34 6.57 27.04 15.96 33.62 30.74-5.78 1.27-10.17 4.81-12.51 10.25-4.32 9.88-5.39 21.11-11.12 30.97-3.95 6.61-10.19 12.16-16.28 16.76-17.15 12.78-39.26 20.06-60.69 18.49-9.77-1.17-19.92-2.65-27.16-9.99 3.78-.81 7.36-1.79 10.77-3.65 5.85-3.51 9.66-9.6 10.78-16.28 1.38-11.86-1.12-22.18-2.22-33.79-.78-5.23-.55-10.71-.51-16.05.54-8.52 3.34-17.14 9.57-23.22 6.91-7.09 16.6-10.38 26.23-11.51Z" fill="rgba(185, 160, 95, 1)"/></g></g></svg>