<svg xmlns:dc="http://purl.org/dc/elements/1.1/" xmlns:cc="http://creativecommons.org/ns#" xmlns:rdf="http://www.w3.org/1999/02/22-rdf-syntax-ns#" xmlns:svg="http://www.w3.org/2000/svg" xmlns="http://www.w3.org/2000/svg" viewBox="0 0 762 762" fill="none"><metadata><rdf:RDF><cc:Work><dc:format>image/svg+xml</dc:format><dc:type rdf:resource="http://purl.org/dc/dcmitype/StillImage"/><dc:title>Adventurer</dc:title><dc:creator><cc:Agent><dc:title>Lisa Wischofsky</dc:title></cc:Agent></dc:creator><dc:source>https://www.instagram.com/lischis_adventures/</dc:source><cc:license rdf:resource="https://creativecommons.org/licenses/by/4.0/"/></cc:Work><cc:License rdf:about="https://creativecommons.org/licenses/by/4.0/"><cc:permits rdf:resource="https://creativecommons.org/ns#Reproduction"/><cc:permits rdf:resource="https://creativecommons.org/ns#Distribution"/><cc:permits rdf:resource="https://creativecommons.org/ns#DerivativeWorks"/><cc:requires rdf:resource="https://creativecommons.org/ns#Notice"/><cc:requires rdf:resource="https://creativecommons.org/ns#Attribution"/></cc:License></rdf:RDF></metadata><mask id="avatarsRadiusMask"><rect width="762" height="762" rx="0" ry="0" x="0" y="0" fill="#fff"/></mask><g mask="url(#avatarsRadiusMask)"><path d="M396.01 164.85c37.82 4.9 74.21 19.64 104.8 42.39 6.15 4.84 12.48 9.33 18.02 14.92 23.77 21.98 42.73 49.02 55.13 78.95 9.35 22.31 14.72 46.04 16.64 70.14 6.62.81 13.05 2.14 19.12 5 15.54 6.93 27.08 20.94 31.78 37.21 2.63 9.56 3.56 19.75 1.72 29.55-2.96 18.76-13.72 36.13-29.37 46.92-10.94 7.65-24.49 12.03-37.86 11.68-5.13-.05-10.04-1.6-15.13-1.79-1.85 2.17-3.23 4.84-4.76 7.25-18.66 29.62-44.57 54.51-74.64 72.4-28.1 16.73-59.9 27.16-92.46 30.32-11.08.7-21.87 2.05-32.98.74-51.69-2.3-102.07-23.44-140.15-58.43-29.03-26.55-50.84-60.83-62.54-98.39-7.09-22.85-10.62-46.78-10.07-70.71.52-40.34 12.53-80.58 33.94-114.76 19.1-30.81 45.91-56.58 77.2-74.83 29.63-17.28 63.35-27.68 97.59-29.87 14.66-1.47 29.44-.37 44.02 1.31Z" fill="#000"/><path d="M363 169.06c48.47-1.39 97.32 14.7 135.81 44.12 6.55 4.06 11.72 9.49 17.36 14.64 24.33 22.63 43.2 50.95 54.93 82.02 7.43 19.61 11.86 40.2 13.56 61.09-8.89.74-17.34 2.34-25.38 6.38-2.19 1.03-1.89 4.95.68 5.23 2.35.23 4.98-1.51 7.24-2.2 14.62-5.37 31.32-4.35 44.78 3.68 11.69 6.78 20.09 18.16 23.89 31.06 2.6 8.25 2.68 17.41 1.76 25.95-2.5 17.35-12.35 33.73-26.73 43.81-15.71 11.33-37.17 14.64-54.93 6.2-3.17-1.43-5.94-3.58-9.08-5.05-2.95-1.09-4.88 2.79-2.7 4.75 3.17 2.76 7.34 4.52 11 6.56-20.14 34.15-49.45 62.7-84.41 81.47-30.2 16.31-64.44 25.53-98.78 26.15-27.63.72-55.33-4.04-81.21-13.72-30.32-11.24-57.84-29.43-80.37-52.6-22.67-23.37-39.92-51.88-50.2-82.77-14.96-44.64-14.91-94.01.27-138.59 11.05-33.06 30.28-63.21 55.37-87.39 29.67-28.73 67.65-48.54 108.13-56.67 12.8-2.52 25.94-4.24 39.01-4.12Z" fill="rgba(242, 211, 177, 1)"/><path d="M605.03 404.4c2.63-.1 3.44 3.8 1.36 4.98-3.69 1.83-7.82 2.77-11.64 4.35-5.82 2.04-11.28 4.76-16.68 7.72 4.29 2.34 8.86 4.74 12.71 7.76 2.58 2.09 4.85 4.35 5.33 7.8-.26 3.59-2.73 6.55-5.45 8.69-5.86 4.66-13.92 7.18-20.79 10.26-1.75.62-4.43 1.99-5.59-.26-1.02-1.74-.06-3.11 1.57-3.87 6.65-3.3 14.86-5.62 20.79-10.16 1.37-1.14 3.39-2.74 3.61-4.62-4.07-5.63-12.42-8.59-18.23-12.09-2.34-1.72-2.29-4.24-.16-6.13 7.27-5.64 16.98-9.26 25.57-12.38 2.42-.83 5.03-1.95 7.6-2.05Z" fill="#000"/><g transform="translate(-161 -83)"><path d="M550.27 424.38c11.73-1.17 23.8.88 34.46 5.92 11.27 5.3 20.98 13.91 27.52 24.52 8.52 13.52 11.81 30.47 8.78 46.18-2.62 15.25-11.05 29.23-23.03 38.97-16.48 13.6-39.38 18.04-59.81 11.9-16.14-4.8-30.17-16.01-38.31-30.76-7.42-12.96-9.7-28.23-7.33-42.9 2.28-13.33 8.74-25.78 18.4-35.26 10.57-10.48 24.49-17.09 39.32-18.57Z" fill="#000"/><path d="M549.23 430.27c9.32-.98 18.71-.35 27.55 2.92 14.2 5.05 26.25 15.47 33.08 28.93 5.89 11.3 7.76 24.3 5.81 36.86-2.19 12.58-8.23 24.38-17.49 33.21-9.48 9.35-22.52 15.1-35.71 16.47-15.36 1.46-31.09-3.31-43.06-13.03-9.46-7.5-15.92-17.77-19.8-29.11-5.26-18.02-1.64-38.17 9.74-53.13 9.47-12.69 24.19-21.15 39.88-23.12Z" fill="#fff"/><path d="M521.23 467.28c7.31-1.89 15.52.27 20.87 5.62 6.09 5.72 8.42 15.06 5.6 22.95-3.49 11.19-16.53 17.96-27.64 14.08-11.45-3.35-18.17-16.09-14.6-27.48 2.25-7.54 8.22-13.11 15.77-15.17ZM332.97 478.46c14.43.75 28.78 1.53 43.05 3.91 21.13 3.42 42.86 8.97 62.12 18.47 2.85 1.6 2.45 3.29 1.6 6.06-2.42.05-4.41-.24-6.71-1.01-11.15-3.38-22.56-5.25-34.03-7.16-10.45-1.44-20.56-3.19-31-3.72-10.97-1.1-21.89-.72-32.98-.66-1.97-.1-5.02.62-6.6-.75-.76-2.14.78-4.69 1.32-6.78-.94-1.57-3.08-3.45-2.4-5.43.87-2.4 3.35-2.93 5.63-2.93Z" fill="#000"/></g><g transform="translate(-161 -83)"><g fill="#000"><path d="M530.96 352.34c21.47-3.31 42.8 3.14 60.6 15.09 12.06 8.19 22.9 19.68 28.97 33.03 1.1 2.96-.3 3.73-2.51 5.27-3.95-2.26-6.87-5.58-10.47-8.29-12.99-9.78-28.03-16.38-43.78-20.25-14.93-3.51-30.56-5.05-45.8-2.8-4.78.41-9.28 1.92-13.97 2.67-2.41.2-5.1-1.21-4.21-4.04 1.9-4.15 4.23-8.5 7.6-11.65 6.04-5.62 15.64-7.85 23.57-9.03ZM383 428.83c13.38-.82 26.33-.61 39.03 4.23 5.85 2.37 11.52 5.91 13.93 12.05 1.38 4.31.91 8.87-1.73 12.61-4.9-.76-9.4-2.6-14.18-3.82-23.13-6.33-47.19-8.01-71.04-5.96-4.88.33-9.86 2.03-14.72 1.78-1.78-.48-1.17-2.2-.97-3.54.88-2.51 3.58-3.86 5.76-5.09 13.75-7.25 28.55-10.65 43.92-12.26Z"/></g></g><g transform="translate(-161 -83)"><path d="M495.999 576.26c3.08-.09 6.12-.07 9.17.33.43.8.85 1.6 1.28 2.39-.42.82-.84 1.64-1.25 2.47-7.68.86-15.48.06-23.2.66-28.03.19-55.98.31-84.04.55-1.67.13-4.56-.53-4.37-2.68-.53-1.67 1.85-3.31 3.35-3.17 33.02-.15 66.04-.35 99.06-.55Z" fill="#000"/></g><g transform="translate(-161 -83)"><path fill-rule="evenodd" clip-rule="evenodd" d="M608 415.8c6.186-.151 12.368-.167 18.55-.183 4.483-.012 8.966-.024 13.45-.087.562.005 1.127.006 1.693.008 3.106.01 6.253.02 9.307.502 2.58.53 5.61 1.94 6.09 4.83.91 5.11.46 12.04-1.14 16.99-.46 1.77-1.74 2.1-3.35 2.34-3.462.36-6.945.569-10.423.778-1.253.075-2.506.15-3.757.232.122 4.281.38 8.636.639 13.018.692 11.72 1.395 23.63-.439 34.802-.87 7.47-2.98 14.85-5.73 21.83-3.11 8.55-9.09 16.19-15.42 22.62-9.83 10.36-22.25 18.39-36.2 21.81-10.85 2.39-22.17 2.98-33.23 2.16-9.22-1.58-18.8-3.87-27.06-8.4-10.51-6.05-18.47-15.05-24.78-25.29-8.17-12.62-11.9-27.18-15.47-41.59-.515-2.188-.844-4.449-1.174-6.711-.414-2.834-.827-5.671-1.606-8.369-.48-1.78-2.64-3.07-4.17-3.9-6.71-3.36-16.41-.94-18.99 6.6-.499 2.84-.553 5.746-.608 8.66-.053 2.861-.106 5.73-.582 8.55-1.99 13.03-4.77 26.14-10.56 38.06-5.55 11.58-11.7 22.03-22.47 29.5-12.88 7.76-28.34 13.44-43.57 11.92-6.86-.15-14.05-1.41-20.36-4.13-6.87-3.71-13.8-8.11-18.84-14.16-10.32-12.28-16.95-27.7-20.79-43.17-1.87-6.83-3.04-13.81-2.97-20.91-1.637.243-3.268.56-4.899.877-2.393.466-4.787.931-7.201 1.163-2.24.22-4.26-.69-5.36-2.69-1.96-3.76-2.46-8.38-1.77-12.53.041-.174.078-.354.116-.535.231-1.113.479-2.305 1.614-2.795 27.43-12.56 55.94-20.6 85.48-26.45 11.24-2.31 22.47-3.81 33.98-3.07 10.03.01 19.98 2.36 28.86 7.05 10.79 4.81 24.51 5.41 35.15-.12 3.04-1.482 4.933-3.677 6.926-5.986 1.193-1.383 2.422-2.807 3.954-4.144 9.81-9.08 23.09-13.26 36.12-14.79 13.108-2.381 26.26-3.017 39.523-3.659l2.497-.121c5.544-.149 11.094-.149 16.646-.149 7.446 0 14.893 0 22.324-.361Zm-23 6.26c8.34-.34 16.32-.45 24.15 2.9.646.302 1.365.598 2.113.906 3.164 1.304 6.86 2.826 7.887 5.964 5.81 12.39 8.22 26.56 8.39 40.17.56 12.44-.87 25.5-5.21 37.22-3.71 9.79-10.5 17.11-18.25 23.88-5.21 4.32-11.62 7.49-17.78 10.22-9.15 3.83-19.3 6.8-29.31 6.15-5.792-.342-11.557-1.779-17.192-3.184l-.868-.216c-5.96-1.466-10.686-4.562-15.7-7.847l-.001-.001-.859-.562c-6.8-4.54-12.23-10.46-17.08-16.98-2.766-3.934-4.565-8.67-6.303-13.249a253.502 253.502 0 0 0-1.217-3.161c-4.64-11.94-5.98-24.55-5.87-37.28.09-7.74 1.2-16.94 5.51-23.55 5.13-6.46 12-12.24 19.82-15.08 9.27-2.8 19.13-4.25 28.78-4.96 11.572-1.279 23.168-1.304 34.654-1.328 1.447-.003 2.892-.006 4.336-.012Zm-172.354 22.059c-.891-.021-1.778-.041-2.656-.079-8.612-.872-17.851.939-26.497 2.634-1.173.23-2.335.457-3.483.676-2.29.516-4.571 1.006-6.843 1.494-9.393 2.017-18.626 4-27.677 7.656-.903.361-1.836.713-2.782 1.069-5.765 2.175-12.01 4.53-14.948 10.191-4.839 9.868-3.731 19.612-2.557 29.93.124 1.09.249 2.186.367 3.29 1.93 11.77 6.83 23.25 13.14 33.33 5.06 8.01 10.9 15.08 19.42 19.57 12.78 7.1 27.95 6.15 41.4 1.57 11.36-4.43 21.76-9.82 28.56-20.38 8.84-14.04 13.92-30.65 15.47-47.12.91-9.38-.1-18.83-2.68-27.88-.46-1.39-.98-2.92-1.89-4.09-5.19-5.6-11.6-9.87-19.19-11.35-2.333-.401-4.756-.456-7.154-.511Z" fill="#000"/></g><g transform="translate(-161 -83)"><path fill-rule="evenodd" clip-rule="evenodd" d="M570.06 209.96c3.849.788 7.584 2.52 11.224 4.208 1.07.496 2.132.988 3.186 1.452 15.21 7.14 30.67 13.68 46.45 19.42 20.87 7.5 41.44 16.3 61.66 25.39 8.5 3.72 17.38 7.69 25.11 12.85 4.51 3.42 8.55 7.75 11.33 12.71 8.2 13.1 15.5 26.79 22.38 40.62 15.02 29.18 28.51 59.21 41.63 89.29 11.97 26.66 22.5 54.01 31.39 81.84 7.42 24.19 13.11 49.15 16.08 74.29 2.77 23.01 4.98 46.11 6.06 69.27.46 17.07.75 33.75.98 50.82-.42 2.41-1.34 2.57-3.57 2.23-1.713-1.638-3.024-3.793-4.295-5.882l-.001-.002a90.946 90.946 0 0 0-1.214-1.956c-3.71-6.15-7.87-11.99-12.3-17.65-2.264-2.886-4.453-5.826-6.642-8.766-2.81-3.772-5.62-7.545-8.588-11.204-13.31 14.46-30.1 22.54-48.13 29.54-3.03 8.53-6.43 16.93-10.22 25.15-3.12 6.78-6.47 14.06-11.23 19.85-1.28 1.75-3.64 1.89-4.58-.28.019-2.37.877-4.74 1.687-6.976l.193-.534c3.93-10.45 6.48-21.39 8.21-32.4-6.17 1.67-12.42 3.03-18.69 4.27-7.71 25.15-17.64 50.57-31.86 72.81-7.88 12-17.91 24.58-31.14 30.85-.254.106-.523.224-.801.346-1.981.873-4.47 1.97-6.259.444-1.72-1.53-.56-3.79.39-5.41 8.8-14.3 13.63-31.77 17.08-48.08 3.1-15.29 5.16-30.8 6.39-46.34-25.28.07-50.2-2.45-74.49-9.71-2.41-.73-4.61-1.88-6.77-3.16l.78-3.69c31.12-11.04 59.47-29.05 82.65-52.57-.236-3.572-.273-7.143-.311-10.714-.046-4.429-.092-8.858-.519-13.286-.69-18.15-1.93-36.27-3.68-54.35-20.67-8.74-40.1-21.76-57.76-35.5-10.08-7.85-19.79-16.17-29.23-24.79-34.88-32.38-66.19-68.67-92.99-108-17.05-25.33-33.07-52.83-43.55-81.57-46.59 18.67-89.05 49.53-124.17 85.14-1.91 1.86-3.64 3.78-4.65 6.29-9.33 22.48-14.84 46.49-16.34 70.77-.32 7.66-.28 15.35-.11 23.01 2.23 50.33 22.52 99.46 56.51 136.65 24.93 27.37 56.74 48.33 91.9 60.02 3.13.63 5.84 4.63 4.18 7.59-1.379 1.086-3.151 1.779-4.781 2.417l-.109.043c-13.74 5.07-26.87 11.3-39.93 17.9-1.786.868-3.566 1.736-5.341 2.601-17.836 8.694-35.23 17.172-54.129 23.929-11.754 4.017-23.635 4.29-35.619 4.566-4.155.096-8.322.192-12.501.444-2.176.058-4.379.045-6.584.031h-.004c-3.842-.023-7.694-.047-11.442.309-.701.061-1.412.134-2.127.207-2.313.236-4.674.478-6.943.363-2.22-.21-4.55-1.6-4.64-4.07-1.08-9.31-1.95-18.61-2.47-27.97-1.076-14.268-.946-28.672-.817-43.014v-.002c.032-3.519.064-7.035.077-10.544-20.74 25.08-32.78 54.84-40.59 86.15-.32 1.51-1.11 2.07-2.44 2.71-2.26-.67-3-1.43-3.29-3.76-2.78-21.63-2.19-43.9-.12-65.57 2.62-25.97 7.61-51.66 14.74-76.76 7.29-25.55 16.81-50.95 29.6-74.28.536-1.092 1.231-2.15 1.928-3.211 1.033-1.572 2.071-3.151 2.602-4.859 1.88-24.34 6.29-48.58 13.51-71.92.911-2.795 1.818-5.591 2.724-8.387l.002-.007c1.542-4.755 3.083-9.509 4.644-14.256-13.93 18.35-26.47 37.63-36.79 58.25-9.15 18.25-16.98 37.56-21.87 57.41a21.37 21.37 0 0 0-.234.745c-.423 1.404-.887 2.943-2.596 3.045-1.71.23-3.19-1.06-3.24-2.77-.116-1.336-.236-2.673-.356-4.01-.449-4.99-.899-9.988-1.144-14.98-1.25-46.96 11.9-94.26 36.77-134.08 15.11-23.82 34.72-45.37 59.03-60.01 2.049-1.032 2.647-2.818 3.29-4.741.236-.705.478-1.428.8-2.139l.28-.716c2.228-5.708 4.608-11.807 8.37-16.654 3.76-4.5 8.13-8.74 13.11-11.88 7.099-4.595 14.997-8.404 22.718-12.128l.003-.002c1.621-.782 3.234-1.559 4.829-2.34 4.547-2.256 9.138-4.426 13.73-6.596l.002-.001c4.892-2.312 9.785-4.624 14.628-7.043 7.434-3.514 14.83-7.105 22.225-10.696l.002-.001c10.809-5.249 21.618-10.498 32.543-15.503 9.32-4.29 18.39-8.12 28.57-9.97 7.94-1.24 16.27-.79 24.21.22 2.6.41 4.97-.19 7.41-1.03 9.33-3.16 18.8-5.35 28.4-7.46 1.471-.308 2.868-.684 4.235-1.052 3.832-1.032 7.432-2.002 11.765-1.228Zm7.53 132.84.006.004c14.598 10.906 29.238 21.843 43.334 33.316 1.808 1.482 3.614 2.937 5.411 4.385 6.291 5.071 12.48 10.059 18.329 15.815 3.332 3.22 6.402 6.64 9.48 10.069 1.338 1.49 2.677 2.983 4.04 4.461 1.6 1.58 2.01 3.53 2.44 5.66 6.74 33.68 12.38 67.67 16.17 101.8-20.17-18.24-38.69-38.22-55.59-59.52-17.44-21.98-33.49-45.14-47.59-69.41-13.88-23.55-25.89-47.99-35.21-73.71 1.097.721 2.194 1.44 3.291 2.159l.01.007c10.527 6.905 21.022 13.788 31.089 21.384l4.79 3.58ZM799.91 515c.17-14.36-5.16-28.29-14.74-38.97.785 4.594 1.001 9.194 1.219 13.819.065 1.384.13 2.771.211 4.161 1.45 19.78 1.79 39.75.56 59.56 8.1-11.22 12.83-24.68 12.75-38.57Z" fill="#000"/><path d="M564.961 215.68c3.44-.36 6.76.01 9.9 1.51 10.69 4.91 21.41 10.3 32.28 14.77 11.13 4.72 22.51 8.73 33.84 12.96 15.46 6.01 30.74 12.46 45.87 19.27 8.96 3.99 17.75 7.62 26.12 12.91 5.69 3.69 9.85 8.84 13.3 14.62 9.57 15.86 17.14 32.1 25.55 48.45 14.91 30.01 28.35 60.58 41.75 91.28 10.11 23.9 19.29 48.25 26.9 73.07 5.77 19.92 10.6 40.4 13.36 60.97 1.77 12.46 3 25.01 4.27 37.54 1.31 15.95 2.82 31.78 2.84 47.81.6 10.04.82 20.01.73 30.07-5.94-9.61-13.12-17.66-19.85-26.76-3.27-4.16-6.51-8.31-9.64-12.57-3.2-.79-4.83 2.91-6.85 4.76-10.59 11.34-25.65 19.26-39.98 24.82 11.68-34.85 19.06-71.05 21.17-107.76 6-6.69 10.96-14.2 14.2-22.61 5.75-14.29 6.56-30.57 2.03-45.31-2.98-9.58-8.36-18.64-15.72-25.5-1.2-1.27-2.52-2.07-2.59-3.99-1.18-9.09-1.49-18.5-3.1-27.54-.65-2.71-2.78-1.95-4.91-2.2-.26 1.53-.6 2.99-.4 4.55 2.57 23.63 4.97 47.41 5.8 71.2.22 19.04.36 38.03-1.45 57.02-3.11 42.47-13.27 84.5-29.36 123.92 2.22-13.63 4.41-27.18 5.57-40.96 2.08-19.95 1.98-39.99.47-59.98-1.58-15.12-2.57-30.55-5.58-45.47-.83-.21-1.67-.42-2.5-.64-.75.33-1.51.65-2.27.98-.25 1.72-.49 3.44-.63 5.18-2.7 42.42-9.38 85.05-21.09 125.95-2.1 6.03-3.49 12.24-5.65 18.24-7.53 22.33-16.98 45.26-30.4 64.73-5.97 8.55-13.11 16.86-21.92 22.59 10.6-21.67 15.37-46.81 18.54-70.57 1.75-12.96 2.54-25.95 3.51-38.97.52-12.68.62-25.36 1.03-38.03-.67-17.64-.34-35.46-1.87-53.01-.44-12.04-1.66-23.99-2.48-36 8.24 2.63 17.62 5.09 26.32 4.28 2.86-.15 3.81-4.14 1.17-5.42a234.56 234.56 0 0 1-29.94-22.02c-4.22-38.11-10.39-75.71-17.93-113.28-2.66-3.82-6.32-6.99-9.29-10.6-9.45-10.91-20.5-19.33-31.62-28.37-15.15-12.35-30.77-23.91-46.41-35.63-12.75-9.56-26.13-17.9-39.55-26.46-2.3-1.53-4.23-2.07-6.96-2.19-.54 1.86-1.02 3.35-.26 5.26 6.84 20.42 15.9 40.2 25.92 59.25 16.56 31.31 36.21 61.01 58.12 88.83 17.85 22.47 36.92 43.58 58.43 62.62 8.89 7.4 17.68 14.85 27.11 21.57-3.77-.54-7.49-1.43-11.11-2.63-9.74-3.47-19.16-7.58-28.08-12.85-27.74-15.97-53.22-37.63-76.24-59.76-31.23-30.45-59.39-64.12-83.64-100.38-12.98-19.56-24.94-40.11-34.39-61.62-6.32-14.56-11.74-30.09-13.69-45.9 16.68-12.65 36.72-21.81 55.86-30.11 17.89-7.43 36.51-11.87 55.39-15.89Z" fill="rgba(175, 175, 175, 1)"/><path d="M509.289 225.5c-19.22 7.88-38.38 17.38-55.39 29.35-2.43 1.86-5.55 3.75-5.72 7.16.58 9.17 3.44 18.58 5.94 27.32-35.73 14.23-68.93 35.76-98.26 60.5-31.35 26.7-59.05 58.01-81.15 92.78-14.84 23.47-27.25 48.26-35.56 74.81-.09-9.12-.32-18.31.37-27.41 3.39-38.99 16.27-77.01 37.7-109.79 17.73-26.88 42.38-51.28 72.64-63.41 2.44-1.35 2.44-5.46-.6-6.18-3.85 1.46-7.46 3.54-11.25 5.17 2.25-5.27 4.43-11.26 8.05-15.76 3.37-3.99 7.19-7.56 11.63-10.33 8.07-5.07 16.99-9.29 25.57-13.43 10.72-5.26 21.6-10.21 32.29-15.54 19.77-9.27 39.21-19.33 59.2-28.08 11.05-4.76 22.35-8.18 34.54-7.16Z" fill="rgba(175, 175, 175, 1)"/><path d="M317.51 395.44c-14.6 41.85-16.77 87.64-5.55 130.56 10.26 39.97 31.9 76.81 61.65 105.38 23.27 22.53 51.44 39.43 81.93 50.23-14.16 5.39-27.79 11.93-41.32 18.72-18.78 9.16-36.92 18.15-56.69 25.27-14 4.89-27.15 3.73-41.52 4.88-10.39.37-20.7.07-31.03 1.42-1.72-14.21-3-28.57-2.92-42.9-.32-17.29-.58-34.62-.45-51.9-.17-2.09.23-4.97-1.46-6.46-2.29-.34-3.15.47-3.76 2.54-.32 3.61-.06 7.25-.29 10.87-3.42 2.47-5.48 5.72-8.06 8.97-6.98 8.99-13.24 18.39-18.35 28.58-6.32 12.48-11.8 25.65-15.28 39.22-1.76-13.95-.53-27.59.24-41.81 2.98-35.75 10.52-71.14 22.1-105.08 5.69-16.48 12.35-32.77 20.65-48.12.05 5.41-.59 10.78-.57 16.19.01 7.03-1.12 13.99-.9 21.14.1 1.67.36 3.25 2.27 3.63 1.86.42 3.05-.94 3.33-2.67.71-5.31.45-10.76.79-16.1.23-11.34.92-22.67 1.72-33.98 2.01-27.27 7.34-54.26 15.83-80.26 2.75-8.51 5.12-17.18 8.29-25.54 1.48-4.98 6.06-8.69 9.35-12.78ZM750.4 583.57c1.42 10.38 1.58 20.97 2.11 31.42.33 20.63-1.77 41.53-4.69 61.93-5.86 1.85-11.76 3.01-17.74 4.36 8.44-29.23 14.23-59.1 18.04-89.28.49-3.14 0-5.93 2.28-8.43ZM684.21 631.02c.2 11.01-.35 21.98-.43 32.98-.42 7.42-.94 14.82-1.21 22.25-23.65.5-47.57-2.15-70.39-8.45 25.74-10.64 49.58-25.56 69.83-44.73l2.2-2.05Z" fill="rgba(175, 175, 175, 1)"/></g></g></svg>