<svg xmlns:dc="http://purl.org/dc/elements/1.1/" xmlns:cc="http://creativecommons.org/ns#" xmlns:rdf="http://www.w3.org/1999/02/22-rdf-syntax-ns#" xmlns:svg="http://www.w3.org/2000/svg" xmlns="http://www.w3.org/2000/svg" viewBox="0 0 762 762" fill="none"><metadata><rdf:RDF><cc:Work><dc:format>image/svg+xml</dc:format><dc:type rdf:resource="http://purl.org/dc/dcmitype/StillImage"/><dc:title>Adventurer</dc:title><dc:creator><cc:Agent><dc:title>Lisa Wischofsky</dc:title></cc:Agent></dc:creator><dc:source>https://www.instagram.com/lischis_adventures/</dc:source><cc:license rdf:resource="https://creativecommons.org/licenses/by/4.0/"/></cc:Work><cc:License rdf:about="https://creativecommons.org/licenses/by/4.0/"><cc:permits rdf:resource="https://creativecommons.org/ns#Reproduction"/><cc:permits rdf:resource="https://creativecommons.org/ns#Distribution"/><cc:permits rdf:resource="https://creativecommons.org/ns#DerivativeWorks"/><cc:requires rdf:resource="https://creativecommons.org/ns#Notice"/><cc:requires rdf:resource="https://creativecommons.org/ns#Attribution"/></cc:License></rdf:RDF></metadata><mask id="avatarsRadiusMask"><rect width="762" height="762" rx="0" ry="0" x="0" y="0" fill="#fff"/></mask><g mask="url(#avatarsRadiusMask)"><path d="M396.01 164.85c37.82 4.9 74.21 19.64 104.8 42.39 6.15 4.84 12.48 9.33 18.02 14.92 23.77 21.98 42.73 49.02 55.13 78.95 9.35 22.31 14.72 46.04 16.64 70.14 6.62.81 13.05 2.14 19.12 5 15.54 6.93 27.08 20.94 31.78 37.21 2.63 9.56 3.56 19.75 1.72 29.55-2.96 18.76-13.72 36.13-29.37 46.92-10.94 7.65-24.49 12.03-37.86 11.68-5.13-.05-10.04-1.6-15.13-1.79-1.85 2.17-3.23 4.84-4.76 7.25-18.66 29.62-44.57 54.51-74.64 72.4-28.1 16.73-59.9 27.16-92.46 30.32-11.08.7-21.87 2.05-32.98.74-51.69-2.3-102.07-23.44-140.15-58.43-29.03-26.55-50.84-60.83-62.54-98.39-7.09-22.85-10.62-46.78-10.07-70.71.52-40.34 12.53-80.58 33.94-114.76 19.1-30.81 45.91-56.58 77.2-74.83 29.63-17.28 63.35-27.68 97.59-29.87 14.66-1.47 29.44-.37 44.02 1.31Z" fill="#000"/><path d="M363 169.06c48.47-1.39 97.32 14.7 135.81 44.12 6.55 4.06 11.72 9.49 17.36 14.64 24.33 22.63 43.2 50.95 54.93 82.02 7.43 19.61 11.86 40.2 13.56 61.09-8.89.74-17.34 2.34-25.38 6.38-2.19 1.03-1.89 4.95.68 5.23 2.35.23 4.98-1.51 7.24-2.2 14.62-5.37 31.32-4.35 44.78 3.68 11.69 6.78 20.09 18.16 23.89 31.06 2.6 8.25 2.68 17.41 1.76 25.95-2.5 17.35-12.35 33.73-26.73 43.81-15.71 11.33-37.17 14.64-54.93 6.2-3.17-1.43-5.94-3.58-9.08-5.05-2.95-1.09-4.88 2.79-2.7 4.75 3.17 2.76 7.34 4.52 11 6.56-20.14 34.15-49.45 62.7-84.41 81.47-30.2 16.31-64.44 25.53-98.78 26.15-27.63.72-55.33-4.04-81.21-13.72-30.32-11.24-57.84-29.43-80.37-52.6-22.67-23.37-39.92-51.88-50.2-82.77-14.96-44.64-14.91-94.01.27-138.59 11.05-33.06 30.28-63.21 55.37-87.39 29.67-28.73 67.65-48.54 108.13-56.67 12.8-2.52 25.94-4.24 39.01-4.12Z" fill="rgba(242, 211, 177, 1)"/><path d="M605.03 404.4c2.63-.1 3.44 3.8 1.36 4.98-3.69 1.83-7.82 2.77-11.64 4.35-5.82 2.04-11.28 4.76-16.68 7.72 4.29 2.34 8.86 4.74 12.71 7.76 2.58 2.09 4.85 4.35 5.33 7.8-.26 3.59-2.73 6.55-5.45 8.69-5.86 4.66-13.92 7.18-20.79 10.26-1.75.62-4.43 1.99-5.59-.26-1.02-1.74-.06-3.11 1.57-3.87 6.65-3.3 14.86-5.62 20.79-10.16 1.37-1.14 3.39-2.74 3.61-4.62-4.07-5.63-12.42-8.59-18.23-12.09-2.34-1.72-2.29-4.24-.16-6.13 7.27-5.64 16.98-9.26 25.57-12.38 2.42-.83 5.03-1.95 7.6-2.05Z" fill="#000"/><g transform="translate(-161 -83)"><path d="M559.03 444.54c11.35-.74 22.51-.03 33.16 4.25 11.38 4.42 21.31 12.41 26.22 23.8 1.35 3.29 3.11 7.56 2.23 11.12-3.07 3.24-8.56 1.01-12.56 1.02-12.66-.59-25.44-.46-38.07.6-13.92 1.01-28.4 1.71-41.93 5.23-8.57 1.76-17 4.47-25.23 7.41-3.69 1.26-6.8 2.95-10.86 2.21 1.31-16.83 12.96-31.41 26.26-40.95 12.13-8.21 26.19-13.34 40.78-14.69Z" fill="#000"/><path d="M572.98 450.16c11.61 1.09 23.19 4.98 31.87 13 4.94 4.52 8.31 10.31 10.19 16.72-16.72-2.17-34.3-.87-51.09.1-7.64.88-15.37.98-22.94 2.25 1.15-9.27 2.15-18.43 1.05-27.77 10.01-3.52 20.28-5.48 30.92-4.3Z" fill="#fff"/><path d="M369.22 468.68c17.1-2.83 35.63-.23 50.88 8.19 8.69 4.83 16.86 12.07 20.61 21.48.73 2.06 1.58 4.59-.73 5.96-2.65.08-5.37-.59-7.99-1.01-9.41-1.81-19.4-2.11-28.99-2.57-10.7-.45-21.3.47-31.99.59-12.49.84-24.77 2.93-37.1 5-2.45.58-3.14-2.39-3.07-4.24.15-12.37 9.08-22.32 19.76-27.45 6-2.54 12.23-4.67 18.62-5.95Z" fill="#000"/><path d="M516.85 467.34c-.57 6.96-.53 13.45.13 20.4-6.16 1.8-12.2 3.88-18.22 6.1 3.2-10.63 9.88-19.24 18.09-26.5ZM374.58 473.35c9.89-.51 19.68.03 29.2 2.93 12.4 3.71 23.79 10.16 30.58 21.56-20.19-3.58-39.98-2.61-60.31-2.46.88-7.35.67-14.65.53-22.03ZM350.49 480.58c-.28 5.86-.25 11.64.01 17.5-4.71.28-9.41.74-14.04 1.68 1.62-7 5.15-12.07 10.65-16.56 1.12-.89 2.25-1.76 3.38-2.62Z" fill="#fff"/></g><g transform="translate(-161 -83)"><g fill="#000"><path d="M397.06 373.14c6.81.19 14.18 2.86 17.93 8.88 1.05 1.45.63 3.68.72 5.4-6.29.15-12.49.33-18.64 1.83-15.06 3.48-29.35 10.86-41.64 20.15-8.37 6.38-16.34 14.1-21.95 23.07-1.43 2.22-2.41 5.03-4.29 6.89-1.24.26-2.57.28-3.83.35-.05-1.77-.23-3.46.21-5.19 5.72-20.86 19.83-39.34 38.12-50.81 9.83-5.84 21.73-11.05 33.37-10.57ZM578.52 411.66c10.41 1.67 21.2 3.85 30.01 9.97l-.21 4.78c-4.07 1.59-7.29-.15-11.31-.78-6.82-1.2-13.91-1.25-20.83-1.11-29.25 1.32-58.23 9.89-83.97 23.74-1.45.63-2.92 1.06-4.42 1.54-2.58-5.36-3.61-10.91-.13-16.17 5.13-7.67 15.2-12.39 23.63-15.44 21.34-7.36 44.88-9 67.23-6.53Z"/></g></g><g transform="translate(-161 -83)"><path d="M473.001 557.77c14.54-.55 30.84 1.36 43.71 8.62-20.68 8.69-43.21 14.72-65.7 15.48-7.24 0-14.34.28-21.54-.61.7-5.83 3.09-9.58 7.73-13.05 9.92-7.31 23.76-9.76 35.8-10.44Z" fill="#D31E1E"/><path d="M525.03 563.67c.41.78.8 1.57 1.14 2.37.47 2.66-1.95 3.31-3.81 4.34-3.98 1.77-8.05 3.4-12.12 4.98-17.66 6.32-35.39 11.11-54.24 11.94-6.5.5-12.94.62-19.44.04-4.9-.57-10.15-.63-14.87-2.03-2.35-.88-2.73-3.93-.4-5.07 2.68-.12 5.48.83 8.18 1.02 7.2.89 14.3.61 21.54.61 22.49-.76 45.02-6.79 65.7-15.48 2.76-1.19 5.22-2.59 8.32-2.72Z" fill="#000"/><path d="M510.241 575.36c-1.96 10.16-10.37 17.27-19.22 21.68-10.52 5.13-22.48 6.64-34 4.71-8.71-1.77-16.51-6.13-20.46-14.41 6.5.58 12.94.46 19.44-.04 18.85-.83 36.58-5.62 54.24-11.94Z" fill="#D31E1E"/></g><g transform="translate(-161 -83)"><path d="M569 416.32c10.67-.28 21.35-.06 32.02-.26 13.97-.61 27.98-.37 41.98-.52 3.87.15 9-.18 12.21 2.31 2.36 1.63 2.22 5.59 2.35 8.14-.11 4.33-.28 9.38-2.31 13.3-5.07 1.98-11.44 1.25-16.84 1.91.43 12.26 1.67 24.56 1.31 36.83-.71 13.91-3.67 28-10.34 40.32-8.09 13.04-19.91 24.39-33.54 31.51-10.42 5.38-21.75 7.4-33.39 7.78-6.22.19-12.08.49-18.21-.84-9.48-2.04-18.88-4.45-26.96-10.06-11.14-7.58-19.27-18.77-25.41-30.6-6.59-13.57-10.14-29.24-13.26-43.94-.53-2.3-2.38-3.48-4.35-4.45-6.63-2.95-14.93-.51-18.8 5.6-.8 2.41-.9 5.14-1.16 7.65-.62 7.61-2.25 15.33-3.88 22.79-3.12 13.58-8.99 26.32-16.8 37.83-4.35 5.79-9.75 11.42-16.22 14.81-10.53 5.74-22.3 10.09-34.41 10.28-7.24-.19-14.15-.39-21.12-2.5-5.48-1.33-10.51-4.8-15.16-7.94-6.41-4.39-11.06-10.29-15.28-16.72-5.3-8.31-9.31-17.34-12.24-26.73-2.84-9.45-5.24-18.79-5.19-28.73-4.55.67-9.39 2.24-13.99 1.96-4.36-.81-5.31-7.51-5.5-11.08.13-2.39-.16-6.76 2.69-7.68 21.6-9.82 44.44-17.06 67.54-22.42 17.03-3.7 34.73-8.24 52.27-6.65 11.18.94 22.83 3.92 31.72 11.06 3.2 2.41 5.43 6.83 9.38 7.59 7.08 1.83 14.45-1.23 20.89-3.96 3.63-10 10.02-17.34 19.06-22.82 6.29-3.84 13.67-6.15 20.7-8.28 16.76-4.03 33.14-4.65 50.24-5.49Z" fill="#000"/><path d="M307.1 478.16c1.21-1.2 3.4-.01 2.44 1.64-1.21 1.2-3.4.01-2.44-1.64Z" fill="#000"/><ellipse cx="605" cy="457.5" rx="14" ry="10.5" fill="#fff"/><ellipse cx="411" cy="476.107" rx="11" ry="8.107" fill="#fff"/></g><g transform="translate(-161 -83)"><path d="M570.1 171.12c2.7-1.1 4.86.53 5.77 3.03 2.52 7.64.94 16.43-1.66 23.86 6.48-3.59 13.39-6.19 20.8-6.93 16.37-1.93 32.5 2.34 46.87 10.06 11.74 6.32 21.47 14.77 30.85 24.14 9.6 9.66 21.27 19.21 34.32 23.63 7.54 2.7 15.81 2.89 23.47.6 2.04-.41 5.19-1.67 6.83.13 1.79 1.49.79 4.22.41 6.16-3.44 11.52-8.62 22.16-18.63 29.35 13.15 5.47 24.07 15.42 30.67 28.05 6.97 13.36 10.31 28.75 9.85 43.8.18 10.63-1.91 21.02-5.17 31.09 7.9 8.29 12.39 19.6 13.57 30.89 1.41 13.68-1.53 28.27-7.79 40.49-.83 1.82-2.61 1.18-4.23 1.2-4.34-.47-8.67-.77-13.05-.55-5.76.18-11.48 1.98-16.8 4.1-2.08.74-3.91 1.64-6.19 1.18-7.42-1.35-13.55-5.5-20.8-7.86 3.16 4.34 6.34 8.78 8.9 13.51.75 1.5 1.67 3.25 1.71 4.95-.2 2.36-3.48 3.2-4.7.95-3.95-7.23-8.22-14.15-13.57-20.46-2.62-2.55.39-6.24 3.46-5.65 4.24.67 8.31 2.66 12.38 4-3.53-5.07-7.16-10.32-11.45-14.78-2.1-2.21-4.79-3.86-6.77-6.17-.21-1.4.2-2.79.56-4.13 4.76-14.21 4.39-30.14.84-44.58-3.02-12.04-8.09-23.41-16.24-32.87-5.19-2.21-10.31-4.5-15.09-7.53-11.31-6.79-20.74-16.09-31.81-23.09-14.45-9.38-34.11-10.05-49.5-2.6-1.53.58-3.16.43-3.59-1.39-1.38-2.7.5-4.42 1.82-6.59 4.8-6.68 9.79-13.23 14.87-19.7-7.2 4.08-13.74 9.19-19.66 14.96-2.68 2.56-4.67 5.61-6.49 8.82-1.67.22-3.32.46-5.01.53-2.36-2.87-2.98-6.13-6.39-8.19-6.3-4.16-15.37-3.7-22.47-2.41-18.86 3.77-37.4 10.11-56.99 10.68-11.29.24-22.31-2.23-31.72-8.65-7.4 5.01-15.22 8.92-24.09 10.52-14.21 2.64-29.42 1.1-43.3-2.65-7.6 6.08-12.8 13.53-18.89 20.99-6.11 7.91-12.18 16.25-16.78 25.14-.94 1.59-1.8 3.69-3.32 4.79-4.21 2.58-8.99 3.91-13.9 4.22-8.41.63-17.47-.66-24.46-5.7-6.15-4.36-9.73-11.12-11.06-18.44-1.82-9.79-.42-20.25 3.01-29.55.72-2.26 3.56-3.14 4.88-.95 2.24 4.49 3.21 8.75 8.41 10.77 4.66 1.45 10.38-1.11 14.72-2.83-9.74-8.83-13.85-22.08-12.35-34.98 2.22-20.18 13.37-39.57 27.31-54 11.38-12.03 25.89-20.44 42.02-24.23 6.3-1.41 13.09-3.16 19.56-2.78 2.36.01 3.09 3.47 1.25 4.8-8.72 7.82-11.67 20.96-8.92 32.13 3.31-5.65 6.47-11.3 10.72-16.32 15.36-18.65 39.23-29.38 62.9-32.15 9.31-1.42 18.61-1.21 27.98-1.94 23.32-.58 46.76-3.72 67.92-14.1 5.09-2.37 9.17-6.43 14.21-8.77Z" fill="#000"/><path d="M570.84 177.21c1.49 7.08-.16 14.83-3.21 21.3-.89 2.17-3.47 4.75-2.27 7.14.66.99 2.49 2.2 3.65 1.46 3.95-2.02 7.55-4.64 11.68-6.37 8.88-4.17 18.62-5.19 28.32-4.15 17.41 1.95 33.16 9.72 46.57 20.79 8.21 6.5 14.87 14.47 22.92 21.12 8.47 7.05 17.91 13.3 28.56 16.47 8.23 2.63 16.65 2.52 24.94.2-2.7 7.89-6.3 16.45-12.52 22.24-2.66 2.59-5.91 4.11-8.96 6.14-1.58 1.4-1.88 2.79-.78 4.65 3.34 1.07 6.75 1.48 9.95 3.07 8.13 4 15.35 10.01 20.6 17.41 7.63 10.82 11.85 24.24 13.29 37.32.96 12.24.27 24.41-3.35 36.2-.65 2.25-1.8 4.41-2.21 6.71 2.41 3.31 5.73 5.75 7.68 9.49 9.74 16.68 8.52 36.33 1.61 53.8-.55.87-.85 3.17-2.27 2.65-9.5-1.33-18.92-.14-27.86 3.3-1.99.69-4.04 1.82-6.15 2.01-1.55-.29-3.02-.78-4.52-1.26-5.87-9.68-12.69-19.4-21.4-26.74 8.34-25.83 2.83-55.65-12.4-77.86 11.21 1.9 21.8-.94 31.88-5.7 3.26-1.62 6.9-2.97 9.8-5.19 1.96-2.18.13-4.9-2.51-4.99-10.43-.26-19.63-7.62-26.08-15.25-5.01-6.27-10.12-13.17-9.26-21.64l-2.52-.84c-.87.34-1.73.67-2.59 1.01-1.64 5.44.39 10.12 2.84 14.89 6.55 11.63 16.23 21.31 28.77 26.31-7.59 3.76-16.47 6.78-25.04 6.25-8.22-.47-16.34-3.82-23.41-7.89-11.69-6.68-20.86-15.57-31.85-23.02-6.58-4.45-13.81-7.71-21.71-8.89-9.2-1.24-18.9-.96-27.79 1.92 4.99-6.94 10.15-13.8 15.73-20.28 1.39-1.64 2.85-3.31 4.01-5.13 1.07-1.34.41-3.66.39-5.25-2.12-.08-3.97-.19-5.88.88-13.18 6.46-26.47 15.61-35.24 27.53-2.83-3.87-6.2-6.94-10.81-8.49-9.01-3.08-19.37-1.66-28.44.45-18.22 3.91-37.25 10.25-55.99 8.76-12.1-.7-23.85-6.98-31.13-16.66-9.11-12.69-10.45-30.62-3.34-44.54 5.55-11.46 14.91-20.42 26.23-26.14-.52 4.75-.8 9.25 1.08 13.78 2.73 7.25 8.81 12.62 16.13 14.95 9.24 2.96 19.27 3.43 28.51 6.53 1.73.51 3.7 1.4 5.52 1.22 1.37-.12 1.91-1.98 2.66-2.91-1.53-1.47-3.06-2.78-5.12-3.44-8.14-2.8-17.14-3.81-25.54-5.66-3.46-.85-6.98-1.96-9.93-4.01-5.89-3.98-9.21-11.67-7.6-18.66 1.24-4.4 5.19-5.34 8.01-8.93-.41-.99-.82-1.98-1.23-2.98-4.65-.57-9.3 2.49-13.52 4.28-15.1 6.94-27.29 19.65-32.86 35.39-6.33 17.72-1.32 39.39 13.03 51.81-3.69 2.2-7.39 4.3-11.41 5.85-9.58 3.86-20.34 3.93-30.5 3.25-17.9-1.2-35.13-7.22-48.71-19.16-2.04-1.91-3.22-4.43-5.18-6.37-2.11-.28-3.33.49-3.45 2.66.09 3.72 3.46 6.98 6.12 9.23 7.21 5.82 15.33 10.57 23.97 13.91-3.48 3.42-6.88 6.89-9.94 10.69-8.55 10.36-17.55 21.23-23.89 33.1-1.58 2.94-2.97 5.58-6.39 6.66-7.21 2.16-16.06 1.77-23.04-1.09-5.29-2.1-9.39-6.33-11.55-11.57-3.34-7.73-2.79-17.08-1.33-25.19 2.87 2.55 5.39 5.53 9.39 6.26 6.59 1.24 12.61-.92 18.53-3.57 2.05-.95 3.77-2.2 4.31-4.52.01-1.94-2.18-3.08-3.43-4.31-5.68-4.68-9.01-11.41-10.31-18.57-1.43-9.46.26-18.64 3.42-27.56 5.53-15.43 15.4-29.43 27.62-40.3 12.23-10.85 27.58-17.05 43.68-19.26-4.17 7.89-7 16.02-6.09 25.1.52 3.93 1.11 8.57 3.28 11.98 1.61 1.53 3.79 3.88 6.12 2.21 3.04-9.99 8.95-18.47 16.15-25.92 14.09-13.83 32.37-22.11 51.77-25.16 11.39-1.64 22.51-2.1 33.98-2.41 23.39-.99 45.88-4.15 67.14-14.51 4.54-2.22 8.45-5.27 12.67-7.99Z" fill="rgba(172, 101, 17, 1)"/><path d="M699.75 472.19c2.29 3.51 3.87 7.52 5.66 11.31.84 2.24 2.29 4.44.8 6.75-1.17.48-2.24.64-3.4.03-1.9-2.6-2.85-5.96-4.27-8.85-1.46-3.54-3.75-6.02-3.23-10.08 1.49-.01 3.5-.75 4.44.84Z" fill="#000"/></g></g></svg>