<svg xmlns:dc="http://purl.org/dc/elements/1.1/" xmlns:cc="http://creativecommons.org/ns#" xmlns:rdf="http://www.w3.org/1999/02/22-rdf-syntax-ns#" xmlns:svg="http://www.w3.org/2000/svg" xmlns="http://www.w3.org/2000/svg" viewBox="0 0 762 762" fill="none"><metadata><rdf:RDF><cc:Work><dc:format>image/svg+xml</dc:format><dc:type rdf:resource="http://purl.org/dc/dcmitype/StillImage"/><dc:title>Adventurer</dc:title><dc:creator><cc:Agent><dc:title>Lisa Wischofsky</dc:title></cc:Agent></dc:creator><dc:source>https://www.instagram.com/lischis_adventures/</dc:source><cc:license rdf:resource="https://creativecommons.org/licenses/by/4.0/"/></cc:Work><cc:License rdf:about="https://creativecommons.org/licenses/by/4.0/"><cc:permits rdf:resource="https://creativecommons.org/ns#Reproduction"/><cc:permits rdf:resource="https://creativecommons.org/ns#Distribution"/><cc:permits rdf:resource="https://creativecommons.org/ns#DerivativeWorks"/><cc:requires rdf:resource="https://creativecommons.org/ns#Notice"/><cc:requires rdf:resource="https://creativecommons.org/ns#Attribution"/></cc:License></rdf:RDF></metadata><mask id="avatarsRadiusMask"><rect width="762" height="762" rx="0" ry="0" x="0" y="0" fill="#fff"/></mask><g mask="url(#avatarsRadiusMask)"><path d="M396.01 164.85c37.82 4.9 74.21 19.64 104.8 42.39 6.15 4.84 12.48 9.33 18.02 14.92 23.77 21.98 42.73 49.02 55.13 78.95 9.35 22.31 14.72 46.04 16.64 70.14 6.62.81 13.05 2.14 19.12 5 15.54 6.93 27.08 20.94 31.78 37.21 2.63 9.56 3.56 19.75 1.72 29.55-2.96 18.76-13.72 36.13-29.37 46.92-10.94 7.65-24.49 12.03-37.86 11.68-5.13-.05-10.04-1.6-15.13-1.79-1.85 2.17-3.23 4.84-4.76 7.25-18.66 29.62-44.57 54.51-74.64 72.4-28.1 16.73-59.9 27.16-92.46 30.32-11.08.7-21.87 2.05-32.98.74-51.69-2.3-102.07-23.44-140.15-58.43-29.03-26.55-50.84-60.83-62.54-98.39-7.09-22.85-10.62-46.78-10.07-70.71.52-40.34 12.53-80.58 33.94-114.76 19.1-30.81 45.91-56.58 77.2-74.83 29.63-17.28 63.35-27.68 97.59-29.87 14.66-1.47 29.44-.37 44.02 1.31Z" fill="#000"/><path d="M363 169.06c48.47-1.39 97.32 14.7 135.81 44.12 6.55 4.06 11.72 9.49 17.36 14.64 24.33 22.63 43.2 50.95 54.93 82.02 7.43 19.61 11.86 40.2 13.56 61.09-8.89.74-17.34 2.34-25.38 6.38-2.19 1.03-1.89 4.95.68 5.23 2.35.23 4.98-1.51 7.24-2.2 14.62-5.37 31.32-4.35 44.78 3.68 11.69 6.78 20.09 18.16 23.89 31.06 2.6 8.25 2.68 17.41 1.76 25.95-2.5 17.35-12.35 33.73-26.73 43.81-15.71 11.33-37.17 14.64-54.93 6.2-3.17-1.43-5.94-3.58-9.08-5.05-2.95-1.09-4.88 2.79-2.7 4.75 3.17 2.76 7.34 4.52 11 6.56-20.14 34.15-49.45 62.7-84.41 81.47-30.2 16.31-64.44 25.53-98.78 26.15-27.63.72-55.33-4.04-81.21-13.72-30.32-11.24-57.84-29.43-80.37-52.6-22.67-23.37-39.92-51.88-50.2-82.77-14.96-44.64-14.91-94.01.27-138.59 11.05-33.06 30.28-63.21 55.37-87.39 29.67-28.73 67.65-48.54 108.13-56.67 12.8-2.52 25.94-4.24 39.01-4.12Z" fill="rgba(158, 86, 34, 1)"/><path d="M605.03 404.4c2.63-.1 3.44 3.8 1.36 4.98-3.69 1.83-7.82 2.77-11.64 4.35-5.82 2.04-11.28 4.76-16.68 7.72 4.29 2.34 8.86 4.74 12.71 7.76 2.58 2.09 4.85 4.35 5.33 7.8-.26 3.59-2.73 6.55-5.45 8.69-5.86 4.66-13.92 7.18-20.79 10.26-1.75.62-4.43 1.99-5.59-.26-1.02-1.74-.06-3.11 1.57-3.87 6.65-3.3 14.86-5.62 20.79-10.16 1.37-1.14 3.39-2.74 3.61-4.62-4.07-5.63-12.42-8.59-18.23-12.09-2.34-1.72-2.29-4.24-.16-6.13 7.27-5.64 16.98-9.26 25.57-12.38 2.42-.83 5.03-1.95 7.6-2.05Z" fill="#000"/><g transform="translate(-161 -83)"><path d="M554.99 424.09c15.56-.47 31.18 4.79 43.19 14.7 9.2 7.44 16.2 17.65 20.32 28.71 2.1 5.56 2.58 11.13 3.64 16.92-1.32 1.48-1.69 3.34-4.05 3.02-7.04-.31-13.96-2.04-21.03-2.22-8.77-.09-17.381-.37-26.091.95-9.84 1.63-19.519 2.64-29.069 5.72-11.24 3.04-22.07 7.25-32.49 12.45-3.36 1.62-6.47 3.76-9.89 5.22-2.08.77-4.42.35-5.29-1.92-2.28-7.19-2.82-15.19-2.45-22.69.94-15.99 8.12-31.4 19.67-42.5 11.64-11.32 27.3-17.95 43.54-18.36Z" fill="#000"/><path d="M557 429.85c15.33-.23 30.41 6.15 41.39 16.75 9.87 9.5 15.83 22.19 17.69 35.7-14.89-2.86-29.99-3.76-45.11-2.49-5.99.69-11.93 1.87-17.87 2.88-.91-3.26-1.74-6.35-3.55-9.25-5.97-9.96-19.33-15.24-30.34-11.14-7.24 2.35-13.12 7.85-15.96 14.91-3.08 7.37-2.28 15.5 1.22 22.59-1.92.97-3.83 1.94-5.74 2.91-5.12-21.71 3.1-45.53 20.44-59.53 10.54-8.6 24.19-13.57 37.83-13.33Z" fill="#fff"/><path d="M411.45 452.57c13.11 6.46 23.28 18.27 27.77 32.17 3.17 9.49 3.14 19.25 1.59 29.04-.96.52-1.92 1.05-2.88 1.57-9.78-2.77-19.77-4.68-29.91-5.44-17.91-1.13-36.17-1.69-54.05.02-6.9.17-13.47 2.03-20.42 1.58-.89-2.44-1.7-4.84-1.7-7.47-.18-10.31 2.22-20.81 7.45-29.76 6.91-12.04 18.47-21.18 31.78-25.14 13.26-4.05 27.97-2.75 40.37 3.43Z" fill="#000"/><path d="M397.24 453.61c10.7 2.33 20.53 8.2 27.52 16.64 8.89 10.61 13 24.91 11.07 38.62-4.06-1.25-8.12-2.4-12.33-3.02-12.45-1.82-25.08-2.6-37.65-2.38-.06-3.82.07-7.39-1.47-10.98-3-7.74-10.12-13.39-18.35-14.5-10.08-1.52-20.42 4.34-24.35 13.74-2.23 4.9-1.78 9.64-1.96 14.85-1.73-1.26-1.94-1.37-1.99-3.52-.54-12.06 4.06-24.34 11.92-33.45 11.49-13.49 30.27-19.84 47.59-16Z" fill="#fff"/></g><g transform="translate(-161 -83)"><g fill="#000"><path d="M456.01 380.37c2.26-.07 2.85 1.7 2.65 3.64-.5 4.68-.77 9.78-2.32 14.23-1.33.39-2.66.58-4.03.82-1.12-4.8-.01-10.22.71-15.09.36-1.71.77-3.82 2.99-3.6ZM476.79 386.65c.03 3.21-.36 6.36-.67 9.55 41.69.52 83.32.38 125.01.75 2.13.04 3.96.86 5.89 1.64-.59 1.48-.22 3.83-2.24 4.09-8.05 1.31-16.58.52-24.74.88-17.35.62-34.71.99-52.06 1.53-17.03.2-34.01 1.25-51.05 1.42-3.29.39-6.05-2.72-7.2-5.47.02-4.49 1.02-9.15 2.06-13.5 1.28-2.48 2.83-1.67 5-.89ZM439.84 392.18c-.11 4.87-.05 10.81-2.28 15.24-3.22 1.5-7.12 1.79-10.59 2.47-25.65 4.7-51.32 9.35-76.96 14.09-4.24.69-8.7 2.15-12.99 2.04-2.63-.48-3.33-3.75-.87-5.01 3.2-1.41 6.95-1.74 10.33-2.58 29.1-6.7 58.15-13.59 87.24-20.32.41-1.91.8-3.81 1.27-5.7 1.61-.21 3.23-.24 4.85-.23Z"/></g></g><g transform="translate(-161 -83)"><path d="M524.2 555.79c.49 6.88-.8 13.42-1.56 20.21-2.78 24.19-9.38 47.95-19.15 70.23-3.65 7.33-6.74 15.74-13.95 20.34-4.25 3.06-10.3 1.77-14.6-.52-9.49-4.69-15.15-12.28-21.77-20.2-10.97-13.41-18.85-28.33-26.05-44.01-3.56-8.19-6.83-16.5-10.25-24.74-.87-2.13-1.17-4.09 1.07-5.43 4.72-.01 9.31 1.49 14.06 1.51 9.29.24 18.74.4 27.98-.82 19.98-2.29 39.64-8.3 57.99-16.44 2.13-1.07 4.03-.6 6.23-.13Z" fill="#000"/><path d="M518.93 561.99c-1.93 15.16-3.98 30.2-8.01 44.98-4.69 16.77-10.27 33.84-19.05 48.96-2.17 3.44-5.29 7.34-9.89 6.51-7.43-1.55-14.07-7.99-18.68-13.73-9.88-10.97-17.89-23.26-24.61-36.38-6.13-11.12-10.64-22.89-15.69-34.52 4.8.44 9.6.8 14.4 1.2 1.13 5.94 4.59 11.51 8.45 16.07 5.08 5.94 12.23 9.8 20.13 9.97 6.25-.49 12.08-3.13 16.68-7.36 8.02-7.35 11.96-17.07 14.48-27.43 7.39-2.48 14.64-5.15 21.79-8.27Z" fill="#8F2E45"/><path d="M490.65 572.12c-2.55 8.79-7.09 18.39-14.95 23.59-5.47 3.77-12.71 4.39-18.57 1.12-7.01-3.86-10.91-10.5-13.93-17.65 16.1-.33 32.01-2.32 47.45-7.06Z" fill="#fff"/></g><g transform="translate(-161 -83)"/><g transform="translate(-161 -83)"><path d="M605.03 153.94c5.06 1.75 10.2 4.26 14.2 7.88 1.62 1.23 1.71 4.27-.42 4.97-4.54.67-9.08.35-13.55 1.7-7.65 1.99-13.97 6.34-18.97 12.39 15.97-4.22 33.12-2.17 48.56 3.23 16.95 6 33.39 16.26 44.82 30.3 7.18 8.85 12.64 19.91 11.44 31.59-.41 5.24-2.73 9.65-5.6 13.94 31.54 18.35 58.36 43.87 74.75 76.78 9.72 19.63 15.01 41.37 15.15 63.28.05 19.37-4.23 38.88-11.67 56.74-.92 1.74-1.49 3.93-3.87 3.91-4.73-.12-8.99-1.65-13.86-.96-7.95 1.05-15.73 2.12-23.22 5.1-4.12 1.65-8.98 2.8-12.57 5.42-4.13 4.53-6.91 10.13-11.28 14.52-1.1-.88-2.19-1.68-3.13-2.73-.14-2.04 1.4-3.97 2.47-5.6 3.99-5.44 7.92-10.93 12.03-16.28-5.29 2.67-10.21 6.08-15.56 8.6-2.28 1.28-5.19-.2-5.44-2.81-.79-6.23-.25-12.63-.75-18.9-1.46-17.58-.44-34.77 1.12-52.28-1.66 2.97-3.21 6.02-5.07 8.87-1.08 1.93-3.94 2.93-5.87 1.66-10.18-5.81-19.34-13.08-27.11-21.88-9.08-10.29-19.08-20.73-24.7-33.31-5.1-10.39-6.83-21.58-7.06-33.07.19-5.93.76-11.85 1.04-17.78-3.46 3.1-7.05 6.06-10.45 9.23-1.4 1.25-2.87 2.72-4.55 3.57-1.75.53-3.49-.28-4.11-2-1.17-3.24-1.57-6.79-2.26-10.15-4.41 3.14-8.74 6.37-13.11 9.57-2.62 1.96-5.47 3.49-8.67 4.25-11.01 2.4-21.62 2.48-32.79 2.74-9.99.52-19.98.04-29.98.47-14.6.43-28.27.95-42.2-4.31.61 2.8 1.5 5.61 1.77 8.47-.21 2.24-1.87 3.09-3.77 3.73-12.43 3.61-24.73 6.58-37.79 6.34-12.45-.55-24.43-2.63-35.51-8.57-4.74-2.45-8.76-5.73-13.04-8.85-.28 4.15.94 8.19.75 12.29-1.34 1.55-3.21 1.87-4.96.79-2.34-1.7-4.24-4.11-6.19-6.23.2 3.09.77 6.43.23 9.5-.9 1.65-2.7 2.27-4.38 2.83-4.59 1.36-9.19 1.99-13.94 2.52-8.48 9.68-14.74 20.45-20.64 31.82-1.32 2.46-2.27 5.45-4.16 7.52-1.22.19-2.29.04-3.2-.47-1.7-3.03-1.61-7.04-2.87-10.32-2.66-7.48-4.31-15.19-5.68-22.99-1.62-10.42.41-20.28 3.31-30.24 2.27-6.83 5.87-13.07 10.33-18.7 8.61-10.94 19.25-19.6 30.87-27.14 21.59-13.91 46.16-23.67 70.87-30.4a334.19 334.19 0 0 1 99.72-10.56c-4.48-4.58-8.02-9.8-9.45-16.13-2.44-9.07-.16-18.38 4.33-26.4 6.55-11.37 17.42-19.72 29.4-24.76 14.65-6.1 31.01-7.67 46.24-2.7Z" fill="#000"/><path d="M608.63 161.66c-7.08 1.69-13.77 3.79-19.53 8.43-8.46 6.5-13.88 16.35-15.25 26.9-1.59 10.58.82 20.89 5.43 30.41-10.48-1.2-20.84-2.37-31.33-2.67-3.19.13-5.54-1.89-7.91-3.75-5.99-4.96-10.09-12.05-10.01-19.98-.33-8.66 3.32-16.62 8.81-23.12 9-10.61 22.37-17.6 35.97-20.05 11.41-2.21 23.29-1.28 33.82 3.83Z" fill="rgba(171, 42, 24, 1)"/><path d="M619.83 185.95c18.78 3.91 36.9 13.12 50.54 26.69 7.27 7.36 13.7 16.96 15.09 27.4.88 6.3-1.34 12.07-5.09 17.03-16.52-8.98-34.22-16.11-52.32-21.16-13.69-3.21-27.7-5.28-41.59-7.47-7.18-11.93-9.72-26.39-4.62-39.64 4.32-1.61 8.57-3.21 13.19-3.78 8.39-1.57 16.49-.58 24.8.93ZM534 229.78c11.03.2 21.99 1.07 32.97 2.02 17.43 1.8 34.6 4.83 51.84 7.87 11.34 2.34 22.42 6.23 33.19 10.44 31.59 12.62 60.83 31.92 82.76 58.14 18.07 21.62 30.39 47.62 33.82 75.72.37 4.01.66 8.03.99 12.04.48 6.27-.48 12.53-.85 18.98-1.41 13.77-5.17 27.06-10.42 39.84-9.77-1.79-18.8.24-28.33 2.12-4.51.71-8.75 2.85-13.19 4.26 1.91-2.79 4.22-5.45 5.73-8.48.82-2.27.1-4.28-2.54-4.53-2.35.73-4.35 2.06-6.41 3.36-6.14 3.96-12.53 7.54-18.82 11.26-.73-20.22-1.51-40.68-.04-60.8.43-6.02 1.43-12.06 1.48-18.09-.01-2.97-3.13-4.26-5.09-1.86-4.15 5.37-6.79 11.96-10.33 17.77-4.77-3.04-9.51-6.08-13.87-9.71-6.2-4.98-11.05-10.75-16.35-16.66-6.52-7.57-12.88-14.65-17.32-23.7a68.368 68.368 0 0 1-7.6-32.77c.12-7.48-.27-14.63 1.56-21.97.22-1.75 1-4.3-1.36-4.84-2.08-.66-3.81 1.19-5.33 2.32-4.73 4.09-9.5 8.14-14.18 12.29-.71-2.87-1.06-6.04-2.32-8.72-.93-2.16-3.81-2.77-5.75-1.72-6.39 4.1-12.24 9.19-18.79 13.01-7.64 2.21-16.51 2.51-24.45 3.18-14.67.55-29.33.19-44 .59-10.15-.06-21.33 1.1-31.06-1.87-3.5-.85-6.6-2.56-9.97-3.72-1.19-.19-3.25 1.12-3.08 2.44-.04 3.8 1.25 7.66 1.89 11.4-6.43 1.64-12.41 3.48-18.81 4.56-13.19 2.48-27.08 1.59-39.95-2.13-8.45-2.61-16.24-7.11-22.79-13.04-1.86-1.46-3.46-3.25-5.77-1.27-2.02 2.69-2.09 7.14-2.39 10.34-1.42-1.8-2.78-3.87-4.58-5.31-1.33-1.11-3.21-.21-4.78-.05-1.57 4.89-1.42 9.61-.88 14.64-7.48 2.22-15.08 2.94-22.85 3.19-1.69-.01-2.29 1.34-3.42 2.36.43.9.87 1.8 1.3 2.7 1.48.34 2.97.67 4.46.99-7.01 8.59-12.51 17.86-17.69 27.62-3.7-11.87-6.79-23.41-5.65-36 1.12-10.01 3.83-20.03 9.68-28.36 6.67-9.71 15.6-17.99 25.11-24.87 17.45-12.65 37.73-22.03 58.04-29.04 18.26-6.33 37.06-10.47 56.18-13.2 19.84-2.78 40-3.8 60.01-2.74Z" fill="rgba(171, 42, 24, 1)"/><path d="M716.09 470.52c2.58 2.45.44 4.33-1.22 6.37-5.96 6.51-11.18 13.55-16.46 20.61-1.42 2-3.07 1.07-5.15 1.14.16-1.86.05-3.54 1.24-5.11 4.91-6.96 10.53-13.5 16.1-19.95 1.69-1.62 2.79-3.61 5.49-3.06Z" fill="#000"/></g></g></svg>