<svg xmlns:dc="http://purl.org/dc/elements/1.1/" xmlns:cc="http://creativecommons.org/ns#" xmlns:rdf="http://www.w3.org/1999/02/22-rdf-syntax-ns#" xmlns:svg="http://www.w3.org/2000/svg" xmlns="http://www.w3.org/2000/svg" viewBox="0 0 762 762" fill="none"><metadata><rdf:RDF><cc:Work><dc:format>image/svg+xml</dc:format><dc:type rdf:resource="http://purl.org/dc/dcmitype/StillImage"/><dc:title>Adventurer</dc:title><dc:creator><cc:Agent><dc:title>Lisa Wischofsky</dc:title></cc:Agent></dc:creator><dc:source>https://www.instagram.com/lischis_adventures/</dc:source><cc:license rdf:resource="https://creativecommons.org/licenses/by/4.0/"/></cc:Work><cc:License rdf:about="https://creativecommons.org/licenses/by/4.0/"><cc:permits rdf:resource="https://creativecommons.org/ns#Reproduction"/><cc:permits rdf:resource="https://creativecommons.org/ns#Distribution"/><cc:permits rdf:resource="https://creativecommons.org/ns#DerivativeWorks"/><cc:requires rdf:resource="https://creativecommons.org/ns#Notice"/><cc:requires rdf:resource="https://creativecommons.org/ns#Attribution"/></cc:License></rdf:RDF></metadata><mask id="avatarsRadiusMask"><rect width="762" height="762" rx="0" ry="0" x="0" y="0" fill="#fff"/></mask><g mask="url(#avatarsRadiusMask)"><path d="M396.01 164.85c37.82 4.9 74.21 19.64 104.8 42.39 6.15 4.84 12.48 9.33 18.02 14.92 23.77 21.98 42.73 49.02 55.13 78.95 9.35 22.31 14.72 46.04 16.64 70.14 6.62.81 13.05 2.14 19.12 5 15.54 6.93 27.08 20.94 31.78 37.21 2.63 9.56 3.56 19.75 1.72 29.55-2.96 18.76-13.72 36.13-29.37 46.92-10.94 7.65-24.49 12.03-37.86 11.68-5.13-.05-10.04-1.6-15.13-1.79-1.85 2.17-3.23 4.84-4.76 7.25-18.66 29.62-44.57 54.51-74.64 72.4-28.1 16.73-59.9 27.16-92.46 30.32-11.08.7-21.87 2.05-32.98.74-51.69-2.3-102.07-23.44-140.15-58.43-29.03-26.55-50.84-60.83-62.54-98.39-7.09-22.85-10.62-46.78-10.07-70.71.52-40.34 12.53-80.58 33.94-114.76 19.1-30.81 45.91-56.58 77.2-74.83 29.63-17.28 63.35-27.68 97.59-29.87 14.66-1.47 29.44-.37 44.02 1.31Z" fill="#000"/><path d="M363 169.06c48.47-1.39 97.32 14.7 135.81 44.12 6.55 4.06 11.72 9.49 17.36 14.64 24.33 22.63 43.2 50.95 54.93 82.02 7.43 19.61 11.86 40.2 13.56 61.09-8.89.74-17.34 2.34-25.38 6.38-2.19 1.03-1.89 4.95.68 5.23 2.35.23 4.98-1.51 7.24-2.2 14.62-5.37 31.32-4.35 44.78 3.68 11.69 6.78 20.09 18.16 23.89 31.06 2.6 8.25 2.68 17.41 1.76 25.95-2.5 17.35-12.35 33.73-26.73 43.81-15.71 11.33-37.17 14.64-54.93 6.2-3.17-1.43-5.94-3.58-9.08-5.05-2.95-1.09-4.88 2.79-2.7 4.75 3.17 2.76 7.34 4.52 11 6.56-20.14 34.15-49.45 62.7-84.41 81.47-30.2 16.31-64.44 25.53-98.78 26.15-27.63.72-55.33-4.04-81.21-13.72-30.32-11.24-57.84-29.43-80.37-52.6-22.67-23.37-39.92-51.88-50.2-82.77-14.96-44.64-14.91-94.01.27-138.59 11.05-33.06 30.28-63.21 55.37-87.39 29.67-28.73 67.65-48.54 108.13-56.67 12.8-2.52 25.94-4.24 39.01-4.12Z" fill="rgba(236, 173, 128, 1)"/><path d="M605.03 404.4c2.63-.1 3.44 3.8 1.36 4.98-3.69 1.83-7.82 2.77-11.64 4.35-5.82 2.04-11.28 4.76-16.68 7.72 4.29 2.34 8.86 4.74 12.71 7.76 2.58 2.09 4.85 4.35 5.33 7.8-.26 3.59-2.73 6.55-5.45 8.69-5.86 4.66-13.92 7.18-20.79 10.26-1.75.62-4.43 1.99-5.59-.26-1.02-1.74-.06-3.11 1.57-3.87 6.65-3.3 14.86-5.62 20.79-10.16 1.37-1.14 3.39-2.74 3.61-4.62-4.07-5.63-12.42-8.59-18.23-12.09-2.34-1.72-2.29-4.24-.16-6.13 7.27-5.64 16.98-9.26 25.57-12.38 2.42-.83 5.03-1.95 7.6-2.05Z" fill="#000"/><g transform="translate(-161 -83)"><path d="M494.83 474.61c2.51.17 5.02 1.39 7.38 2.24 9.33 3.65 18.8 6.05 28.52 8.37 20.93 5.06 42.75 8.76 64.32 6.83 7.36-.98 14.7-2.38 21.99-3.8 2.53-.69 5.45.75 5.17 3.64-.56 6.56-1.63 13.23-3.9 19.44-5.27 14.83-16.11 27.53-29.89 35.11-9.8 5.51-21.19 8.31-32.42 8.09-17.65-.05-34.84-7.8-46.86-20.68-7.23-7.66-11.98-16.88-15.38-26.78 1.24 7.98 2.51 15.76 6.26 23.03 3.03 6.01 7.26 10.92 11.61 15.99-1.15 1.33-2.54 3.26-4.48 1.98-3.61-2.64-6.29-6.76-8.86-10.36-6.2-8.96-8.75-19.54-10-30.22-.99-7.27.07-15.03 1.27-22.23.76-3.53 1.94-8.67 5.27-10.65ZM436.11 479.84c2.2.74 3.17 3.02 4.14 4.93 5.57 12.06 7.7 26.28 4.75 39.31-1.56 8.46-5.54 17.15-12.02 22.96-1.59 1.63-3.44 1.53-5.55 1.47a14.54 14.54 0 0 1-.05-3.16c2.13-2.57 4.79-4.51 6.55-7.43 5.1-7.77 6.2-16.21 7.05-25.25-2.4 10.15-6.94 19.55-14.24 27.08-8.3 8.76-19.55 14.63-31.49 16.39-14.13 2.2-29.06-1.34-40.6-9.82-9.1-6.53-15.98-15.92-19.7-26.46-.62-1.89-1.23-4.36-.54-6.29 1.6-1.44 3.52-1.87 5.61-2.03 8.8-.59 17.33-2.62 26.08-4.44 7.47-1.54 14.64-3.89 21.94-6.06 9.57-3.12 18.95-7.7 28.15-11.8 5.21-2.33 10.21-5.07 15.18-7.86 1.41-.7 3.12-1.76 4.74-1.54Z" fill="#000"/><path d="M497.89 481.07c4.93 1.84 9.74 3.81 14.84 5.15 13.85 3.68 28.08 7.8 42.3 9.62 2.57.4 5.13.95 7.69 1.46.66 7.27 3.8 13.87 9.84 18.14 9.45 6.94 23.73 5.49 31.27-3.61 4.15-4.66 5.55-10.31 5.95-16.41 2.17-.36 4.33-.73 6.5-1.09-1.89 21.43-15.6 41.02-35.47 49.48-12.02 5.3-25.27 6.53-38.05 3.38-15.24-3.69-28.84-13.59-36.88-27.07-6.41-10.7-9.56-23.58-8.41-36.02.13-1.01.27-2.02.42-3.03ZM433.78 486.25c2.2 7.46 3.34 15.04 1.9 22.78a49.419 49.419 0 0 1-17.13 30.52c-9.03 7.65-20.76 11.68-32.57 11.61-9.68-.32-19.25-3.38-27.2-8.94-8.85-6.18-15.31-15.02-18.77-25.22 14.82-1.83 29.68-4.49 43.99-8.81 2.75 9.71 10.67 17.13 20.91 17.95 10.19 1.12 20.01-4.88 23.99-14.24 3.02-7.1 2.31-15.78-1.86-22.3 2.23-1.14 4.46-2.34 6.74-3.35Z" fill="#fff"/></g><g transform="translate(-161 -83)"><g fill="#000"><path d="M530.96 352.34c21.47-3.31 42.8 3.14 60.6 15.09 12.06 8.19 22.9 19.68 28.97 33.03 1.1 2.96-.3 3.73-2.51 5.27-3.95-2.26-6.87-5.58-10.47-8.29-12.99-9.78-28.03-16.38-43.78-20.25-14.93-3.51-30.56-5.05-45.8-2.8-4.78.41-9.28 1.92-13.97 2.67-2.41.2-5.1-1.21-4.21-4.04 1.9-4.15 4.23-8.5 7.6-11.65 6.04-5.62 15.64-7.85 23.57-9.03ZM383 428.83c13.38-.82 26.33-.61 39.03 4.23 5.85 2.37 11.52 5.91 13.93 12.05 1.38 4.31.91 8.87-1.73 12.61-4.9-.76-9.4-2.6-14.18-3.82-23.13-6.33-47.19-8.01-71.04-5.96-4.88.33-9.86 2.03-14.72 1.78-1.78-.48-1.17-2.2-.97-3.54.88-2.51 3.58-3.86 5.76-5.09 13.75-7.25 28.55-10.65 43.92-12.26Z"/></g></g><g transform="translate(-161 -83)"><path d="M397.16 574.5c18.25-.16 37.53-.27 55.83-.38 15.65-.52 31.34-.22 47-.46 3.82-.04 7.34-.21 10.91 1.4 4.24 1.92 7.84 6.05 7.61 10.93.36 6.41-5.56 10.94-11.5 11.3-33 .13-66.01.4-99.01.56-4.37-.09-8.11.99-12.35-.48-.27-.76-.54-1.53-.82-2.29 1.66-5.65 2.44-11.14-.14-16.68-1.03-2.03.23-3.9 2.47-3.9Z" fill="#000"/><path d="M510.489 581.58c2.16 1.83 3.27 4.85 1.35 7.29-2.42 3.37-7.56 2.6-11.15 2.54-.04-4-.07-8.01-.08-12.02 3.35.28 7.2-.21 9.88 2.19ZM401.711 580.18c1.68-.01 3.36-.02 5.03-.02.16 4.03.22 8.05.15 12.09-1.71.01-3.41.01-5.12.02.41-4.09.45-8.01-.06-12.09ZM412.52 580.16c4.52-.07 9.04-.06 13.57-.04.12 3.99.23 7.99.27 11.99-4.4.08-8.8.09-13.2.09-.22-4.02-.39-8.03-.64-12.04ZM432.141 579.88c6.32-.04 12.64-.05 18.96-.1.07 4.01.1 8.02.09 12.03-6.33-.07-12.64.29-18.96.24-.13-4.06-.17-8.11-.09-12.17ZM456.801 579.78c6.23-.08 12.46-.06 18.69-.14.13 4.01.25 8.03.3 12.04-6.2.13-12.4.03-18.6.18-.29-4.03-.39-8.05-.39-12.08ZM481.391 579.5c4.48.17 8.96.07 13.44.03.03 4.01.06 8.03.01 12.05-4.43.01-8.85.13-13.28-.01-.05-4.03-.29-8.04-.17-12.07Z" fill="#fff"/></g><g transform="translate(-161 -83)"/><g transform="translate(-161 -83)"><path d="M464 199.27c14.7-.99 29.35 2.88 42.56 9.13 14.36 7.28 27.03 17.44 33.33 32.68.94 2.58 1.22 4.93-.73 7.13-1.47.73-3.41.54-5.01.95-3.03 1.03-5.23 3.48-6.47 6.38-2.8 6.28-3.87 13.41-6.1 19.95-2.14 6.98-5.23 13.48-10.18 18.92-12.94 14.24-30.77 24.21-49.42 28.7-14.62 3.6-30.61 3.63-45.02-.92-7.65-2.4-14.09-7.44-18.33-14.22-.78-1.27-.18-3.49 1.55-3.6 4.5-.41 8.77-.47 12.97-2.4 5.81-2.29 9.14-7.75 10.13-13.73 1.02-8.48-.62-15.93-1.51-24.24-1.45-10.46-2.53-21.83-.32-32.23 1.59-7.46 5.07-14.39 10.63-19.67 8.27-8.15 20.5-12.26 31.92-12.83Z" fill="#000"/><path d="M461.97 205.22c13.29-1.46 27.37 1.94 39.52 7.28 14.34 6.57 27.04 15.96 33.62 30.74-5.78 1.27-10.17 4.81-12.51 10.25-4.32 9.88-5.39 21.11-11.12 30.97-3.95 6.61-10.19 12.16-16.28 16.76-17.15 12.78-39.26 20.06-60.69 18.49-9.77-1.17-19.92-2.65-27.16-9.99 3.78-.81 7.36-1.79 10.77-3.65 5.85-3.51 9.66-9.6 10.78-16.28 1.38-11.86-1.12-22.18-2.22-33.79-.78-5.23-.55-10.71-.51-16.05.54-8.52 3.34-17.14 9.57-23.22 6.91-7.09 16.6-10.38 26.23-11.51Z" fill="rgba(62, 172, 44, 1)"/></g></g></svg>