<svg xmlns:dc="http://purl.org/dc/elements/1.1/" xmlns:cc="http://creativecommons.org/ns#" xmlns:rdf="http://www.w3.org/1999/02/22-rdf-syntax-ns#" xmlns:svg="http://www.w3.org/2000/svg" xmlns="http://www.w3.org/2000/svg" viewBox="0 0 762 762" fill="none"><metadata><rdf:RDF><cc:Work><dc:format>image/svg+xml</dc:format><dc:type rdf:resource="http://purl.org/dc/dcmitype/StillImage"/><dc:title>Adventurer</dc:title><dc:creator><cc:Agent><dc:title>Lisa Wischofsky</dc:title></cc:Agent></dc:creator><dc:source>https://www.instagram.com/lischis_adventures/</dc:source><cc:license rdf:resource="https://creativecommons.org/licenses/by/4.0/"/></cc:Work><cc:License rdf:about="https://creativecommons.org/licenses/by/4.0/"><cc:permits rdf:resource="https://creativecommons.org/ns#Reproduction"/><cc:permits rdf:resource="https://creativecommons.org/ns#Distribution"/><cc:permits rdf:resource="https://creativecommons.org/ns#DerivativeWorks"/><cc:requires rdf:resource="https://creativecommons.org/ns#Notice"/><cc:requires rdf:resource="https://creativecommons.org/ns#Attribution"/></cc:License></rdf:RDF></metadata><mask id="avatarsRadiusMask"><rect width="762" height="762" rx="0" ry="0" x="0" y="0" fill="#fff"/></mask><g mask="url(#avatarsRadiusMask)"><path d="M396.01 164.85c37.82 4.9 74.21 19.64 104.8 42.39 6.15 4.84 12.48 9.33 18.02 14.92 23.77 21.98 42.73 49.02 55.13 78.95 9.35 22.31 14.72 46.04 16.64 70.14 6.62.81 13.05 2.14 19.12 5 15.54 6.93 27.08 20.94 31.78 37.21 2.63 9.56 3.56 19.75 1.72 29.55-2.96 18.76-13.72 36.13-29.37 46.92-10.94 7.65-24.49 12.03-37.86 11.68-5.13-.05-10.04-1.6-15.13-1.79-1.85 2.17-3.23 4.84-4.76 7.25-18.66 29.62-44.57 54.51-74.64 72.4-28.1 16.73-59.9 27.16-92.46 30.32-11.08.7-21.87 2.05-32.98.74-51.69-2.3-102.07-23.44-140.15-58.43-29.03-26.55-50.84-60.83-62.54-98.39-7.09-22.85-10.62-46.78-10.07-70.71.52-40.34 12.53-80.58 33.94-114.76 19.1-30.81 45.91-56.58 77.2-74.83 29.63-17.28 63.35-27.68 97.59-29.87 14.66-1.47 29.44-.37 44.02 1.31Z" fill="#000"/><path d="M363 169.06c48.47-1.39 97.32 14.7 135.81 44.12 6.55 4.06 11.72 9.49 17.36 14.64 24.33 22.63 43.2 50.95 54.93 82.02 7.43 19.61 11.86 40.2 13.56 61.09-8.89.74-17.34 2.34-25.38 6.38-2.19 1.03-1.89 4.95.68 5.23 2.35.23 4.98-1.51 7.24-2.2 14.62-5.37 31.32-4.35 44.78 3.68 11.69 6.78 20.09 18.16 23.89 31.06 2.6 8.25 2.68 17.41 1.76 25.95-2.5 17.35-12.35 33.73-26.73 43.81-15.71 11.33-37.17 14.64-54.93 6.2-3.17-1.43-5.94-3.58-9.08-5.05-2.95-1.09-4.88 2.79-2.7 4.75 3.17 2.76 7.34 4.52 11 6.56-20.14 34.15-49.45 62.7-84.41 81.47-30.2 16.31-64.44 25.53-98.78 26.15-27.63.72-55.33-4.04-81.21-13.72-30.32-11.24-57.84-29.43-80.37-52.6-22.67-23.37-39.92-51.88-50.2-82.77-14.96-44.64-14.91-94.01.27-138.59 11.05-33.06 30.28-63.21 55.37-87.39 29.67-28.73 67.65-48.54 108.13-56.67 12.8-2.52 25.94-4.24 39.01-4.12Z" fill="rgba(242, 211, 177, 1)"/><path d="M605.03 404.4c2.63-.1 3.44 3.8 1.36 4.98-3.69 1.83-7.82 2.77-11.64 4.35-5.82 2.04-11.28 4.76-16.68 7.72 4.29 2.34 8.86 4.74 12.71 7.76 2.58 2.09 4.85 4.35 5.33 7.8-.26 3.59-2.73 6.55-5.45 8.69-5.86 4.66-13.92 7.18-20.79 10.26-1.75.62-4.43 1.99-5.59-.26-1.02-1.74-.06-3.11 1.57-3.87 6.65-3.3 14.86-5.62 20.79-10.16 1.37-1.14 3.39-2.74 3.61-4.62-4.07-5.63-12.42-8.59-18.23-12.09-2.34-1.72-2.29-4.24-.16-6.13 7.27-5.64 16.98-9.26 25.57-12.38 2.42-.83 5.03-1.95 7.6-2.05Z" fill="#000"/><g transform="translate(-161 -83)"><path fill-rule="evenodd" clip-rule="evenodd" d="M612.99 456.04c-8.4-14.32-22.44-25.12-38.46-29.54-12.78-3.63-26.45-3.13-39.02 1.1-15.79 5.52-29.25 17.14-36.82 32.08-3.28 6.32-5.17 13.09-6.5 20.06-4.4.35-8.76.83-13.04 1.93.188.504.294 1.03.396 1.539.273 1.36.52 2.594 2.244 2.921 2.35.223 4.762 0 7.146-.221.924-.085 1.844-.17 2.754-.229-.56 12.87 2.24 25.63 8.92 36.7 8.71 14.98 23.61 26.14 40.45 30.25 12.14 3.08 25.13 2.44 36.99-1.54 13.99-4.82 26.18-14.48 34.04-27.01 6.48-10.16 9.83-22.06 10.06-34.07.056-3.789-.398-7.446-.857-11.15-.12-.969-.241-1.942-.353-2.92.945-.109 1.903-.19 2.865-.271 2.307-.196 4.636-.393 6.845-.979 1.193-.461 1.438-1.638 1.68-2.801.099-.476.198-.948.36-1.369-4.39-1.13-8.7-.78-13.15-.28-.506-1.176-.99-2.354-1.473-3.528-1.498-3.645-2.981-7.253-5.077-10.672Zm.59 14.63c-4.82-13.64-13.95-25.42-26.54-32.68-13.32-7.97-29.57-10.1-44.6-6.46-14.55 3.64-27.43 12.73-35.54 25.37-4.25 6.79-7.73 14.51-8.83 22.5 5.954-.657 11.92-1.07 17.887-1.483 4.846-.335 9.693-.671 14.533-1.137 3.632-.325 7.273-.513 10.912-.701 4.858-.251 9.713-.501 14.538-1.079 16.386-1.117 32.786-2.395 49.169-3.671l8.471-.659Zm-200.2-17.09c11.97 6.48 20.98 17.39 25.57 30.15 2.69.16 5.36.38 8.03.75-.037.232-.071.462-.106.691-.156 1.028-.308 2.037-.594 3.059-1.042.76-2.471 1.03-3.832 1.287-.572.108-1.133.214-1.648.353 1.33 8.86 1.68 17.54-.78 26.25-3.51 13.23-12.13 24.91-23.71 32.19-10.65 6.72-23.58 9.67-36.09 8.03-16.11-1.81-30.98-11.25-39.64-24.94-6.25-9.68-8.98-21.04-8.76-32.5-2.42-.02-4.82-.1-7.23-.28.077-.367.111-.817.148-1.292.097-1.258.208-2.697 1.152-3.278 1.541-.487 3.188-.684 4.814-.877.61-.073 1.218-.146 1.816-.233 1.39-6.54 3.35-12.87 6.78-18.66 7.75-13.54 21.36-23.31 36.66-26.37 12.6-2.59 26.16-.54 37.42 5.67Zm19.769 30.83c-7.08-18.81-25.97-32.08-46.15-31.86-18.18-.19-35.6 10.43-43.83 26.64-2.2 4.2-3.57 8.69-4.72 13.28 7.002-.467 13.996-1.08 20.99-1.693 6.191-.543 12.382-1.086 18.58-1.527 3.774-.088 7.516-.469 11.258-.851 3.893-.396 7.786-.793 11.712-.859 2.094-.16 4.191-.308 6.29-.456 8.655-.612 17.331-1.225 25.87-2.674Z" fill="#000"/><path d="M615.13 476.4c1.79 9.43 1.83 19.44-.85 28.71-4.02 14.67-13.78 27.56-26.86 35.34-11.86 6.95-25.9 9.98-39.53 7.74-16.06-2.38-30.89-11.65-40.06-25.03-7.65-11.07-11.16-24.46-10.6-37.86 2.78-.26 5.55-.53 8.32-.81.58 6.88 2.87 13.16 8.11 17.84 9.26 8.79 25.12 8.57 33.95-.73 5.71-5.52 7.56-12.65 7.15-20.42 4.5-.49 8.95-1.09 13.47-1.39 15.64-.93 31.25-2.54 46.9-3.39ZM430.931 490.81c1.23-.4 2.51-.66 3.76-.97 3.28 11.9 1.31 24.64-4.45 35.44-6.94 12.82-19.63 22.19-33.98 24.89-17.42 3.66-36.18-3.36-47.37-17.1-8.08-9.7-11.83-22.11-11.18-34.67 16.43-1.61 32.94-2.6 49.35-4.39.17 5.54 1.15 10.77 4.71 15.18 5.35 7.13 14.85 10.26 23.42 7.93 7.1-2.26 13-7.85 15.04-15.09 1.18-3.82.53-7.36.7-11.22Z" fill="#fff"/></g><g transform="translate(-161 -83)"><g fill="#000"><path d="M456.01 380.37c2.26-.07 2.85 1.7 2.65 3.64-.5 4.68-.77 9.78-2.32 14.23-1.33.39-2.66.58-4.03.82-1.12-4.8-.01-10.22.71-15.09.36-1.71.77-3.82 2.99-3.6ZM476.79 386.65c.03 3.21-.36 6.36-.67 9.55 41.69.52 83.32.38 125.01.75 2.13.04 3.96.86 5.89 1.64-.59 1.48-.22 3.83-2.24 4.09-8.05 1.31-16.58.52-24.74.88-17.35.62-34.71.99-52.06 1.53-17.03.2-34.01 1.25-51.05 1.42-3.29.39-6.05-2.72-7.2-5.47.02-4.49 1.02-9.15 2.06-13.5 1.28-2.48 2.83-1.67 5-.89ZM439.84 392.18c-.11 4.87-.05 10.81-2.28 15.24-3.22 1.5-7.12 1.79-10.59 2.47-25.65 4.7-51.32 9.35-76.96 14.09-4.24.69-8.7 2.15-12.99 2.04-2.63-.48-3.33-3.75-.87-5.01 3.2-1.41 6.95-1.74 10.33-2.58 29.1-6.7 58.15-13.59 87.24-20.32.41-1.91.8-3.81 1.27-5.7 1.61-.21 3.23-.24 4.85-.23Z"/></g></g><g transform="translate(-161 -83)"><path d="M495.999 576.26c3.08-.09 6.12-.07 9.17.33.43.8.85 1.6 1.28 2.39-.42.82-.84 1.64-1.25 2.47-7.68.86-15.48.06-23.2.66-28.03.19-55.98.31-84.04.55-1.67.13-4.56-.53-4.37-2.68-.53-1.67 1.85-3.31 3.35-3.17 33.02-.15 66.04-.35 99.06-.55Z" fill="#000"/></g><g transform="translate(-161 -83)"/><g transform="translate(-161 -83)"><path d="M675.35 160.39c1.25-.92 3.18-.83 4.53-.19 9.97 4.58 18.45 12.41 24.29 21.67 5.14 8.06 7.91 17.14 9.35 26.52 3.18 1.68 4.91 4.74 5.87 8.09 1.43 6.29.85 13.23-.17 19.54-2.72 13.24-8.18 26.12-16.08 37.11l-.11.78c7.96 8.03 14.53 17.21 19.89 27.16l.45.4c9.08 1.38 16.78 7.76 22.57 14.56 9.3 11.11 15.21 25.05 19.34 38.81 4.91 17.19 7.33 35.22 7.02 53.1-.14 1.19 1.23 2 1.49 3.16 2.81 7.58 7.09 13.92 11.43 20.65 3.19 4.82 6.29 9.63 9.8 14.24 12.14 15.7 23.64 31.42 32.96 49.01 9.77 18.23 15.92 37.82 19.67 58.11 3.03 18.18 4.53 38.97-1.18 56.75-5.33 16.59-15.92 30.33-29.07 41.52-1.8 1.6-5.25 2.46-6.83.15-1.04-1.6.35-3.45 1.05-4.9 6.58-10.17 7.97-23.86 9.17-35.63-.14-7.27.62-14.86-.81-21.98-.43-2.12-.09-5.24-1.48-6.96-.35 1.69-1.09 3.17-1.79 4.73-7.58 16.6-18.82 30.46-31.85 43.08-15.59 14.69-32.81 27.39-51.93 37.09-2 1.09-4.46-.88-4.22-2.97 0-1.38 1.13-2.37 1.91-3.4 9.7-12.82 14.82-27.1 19.15-42.42-13.58 5.89-27.19 15.78-39.22 24.46-10.72 7.83-21.9 17.03-27.56 29.36-1.7 3.25-2.38 6.84-3.73 10.18-1.89 2.39-5.13 1.15-7.26-.19-9.01-4.35-16.74-11.55-22.22-19.88-1.03-2.68-4.04-6.98-2.35-9.72 28.76-18.39 52.91-44.49 69.94-74.03.73-2.46 2.97-2.78 5.13-1.97 16.3 5.12 34.23 1.94 48.22-7.66 12.12-8.1 21.25-20.59 25.6-34.48 3.02-8.98 3.49-18.89 2.38-28.25-1.82-11.94-7.28-23.26-16.03-31.67-8.97-8.76-21.17-13.9-33.69-14.37-.93-.1-1.72.04-2.37.4-.64 11.78-2.8 23.63-5.29 35.14-6.39 27.15-16.98 53.45-31.55 77.26-11.34 18.41-25.54 36.06-42.64 49.43-1.22 1.09-3.15.88-4.52.22-.83-1.99-.76-3.44.96-4.82 13.2-24.39 18.76-52.06 23.62-79.11 4.38-27.89 7.34-56.23 7.75-84.47.84-11.33-.1-24.15-.17-35.02-2.2 2.12-3.61 5.75-6.24 7.47-2.05.96-4.48.01-4.7-2.4.87-14.29-1.1-27.85-3.24-41.93-1.74 6.33-4.26 12.36-5.81 18.75-1.25 2.82-4.17 2.3-5.76.06-4.8-12.41-9.05-25.22-12.96-37.94-2.28-8.29-4.64-16.52-7.54-24.62l-.85.11c-1.23 3.75-2.11 7.6-3.21 11.39-.54 1.89-2.6 3.29-4.45 3.62-2.8.08-4.6-2.47-6.26-4.37-6.97-8.91-14.65-17.96-20.15-27.85l-.99.17c-2.17 5.33-3.19 10.9-4.78 16.38-1.87 3.16-7.59 3.42-10.85 3.31-6.02-1.06-12.05-4.45-16.7-8.4-6.5-6.13-11.84-13.48-15.35-21.73-1.86.05-3.42 3.98-4.22 5.52-.97 3.4-1.17 7.17-5.72 7.16-4.47-.96-8.7-2.96-13.14-4.14-10.5-2.97-21.96-4.72-32.87-3.57-4.55.94-8.5 2.69-12.82 4.33-1.55.47-3.66.64-5.05-.34-1.67-1.49-2.2-3.83-1.67-5.97 1-5.88 3.99-10.57 6.86-15.73.35-.48.52-1.05.5-1.72l-.39-.1c-17.73 8.06-33.61 21.34-50.57 31.06-1.73.66-3.29.25-4.14-1.46-.9-2.68.82-4.25 1.24-6.73-43.34 19.36-85.98 45.25-119.92 78.71-17.26 17.35-33.6 37.85-41.73 61.2-.91 2.83-3.69 3.34-5.55 1.03-4.83-6.9-8.3-14.93-9.68-23.26-3.08-14.63.38-30.79 6.69-44.17 11.86-24.55 31.64-42.52 54.41-56.84-.15-.83-.35-1.65-.61-2.46-2.84-7.87-2.13-16.48.78-24.22 5.33-14.18 17.09-25.93 28.81-35.12 22.78-17.42 50.27-29.03 77.85-36.36 22.06-5.64 45.21-8.76 68.01-7.7 2.95-.05 5.97-.84 8.86-1.35 3.74-.66 7.44-.81 11.14-1.61 6.27-.73 12.72-.6 18.99-1.25 9.33-.23 18.71.53 28.02 1.08 2.83.4 5.57.98 8.45 1.03-2.46-11.28-2.87-23.93 3.31-34.15 5.81-9.95 16.27-15.67 27.23-18.16 10.6-2.63 22.18-2.15 33-1.39 15.41 1.76 30.36 5.68 45 10.71-1.92-7.4-5.81-14.47-10.87-20.21-1.15-1.08-1.11-3.49.22-4.43Z" fill="#000"/><path d="M686.62 171.16c16.11 11.86 23.81 33.49 20.61 52.97-1.93 14.17-9.75 27.43-21.27 35.96-3.56-1.78-7.01-4.33-10.86-5.42 8.71-9.09 14.43-20.47 17.31-32.66 3.85-16.76 2.44-35.57-5.79-50.85Z" fill="rgba(86, 35, 6, 1)"/><path d="M650.871 181.57c12.52 2.27 24.7 5.75 36.64 10.15 1.38 6.43 1.89 13.87.67 20.4-1.38 14.83-7.82 29.25-18.42 39.79-4.37-.72-9.91-3.12-14.76-3.3-3.85-.57-8.42-1.38-12.18-.17-15.94-8.73-33.05-14.32-50.8-17.91-2.69-.97-6.15-.39-8.49-1.97-2.99-11.62-3.63-23.29 3.38-33.63 5.99-8.35 15.43-12.34 25.21-14.25 13.04-2.41 25.79-1.35 38.75.89ZM713.53 217.66l.05.12.06.12c2.06 6.1.57 13.91-.72 20.11-2.83 11.19-7.38 21.83-14.09 31.27l-.58.25c-2.21-2.09-4.67-3.95-7.1-5.78 1.04-1.7 3.49-3.1 4.85-4.74 10.7-10.68 17.49-26.09 17.45-41.23l.08-.12ZM541 231.68c29.15-.38 59.57 4.18 86.5 15.7 12.26 5.36 23.98 12.09 33.28 21.85 1.6 1.4 2.93 1.26 4.66.18.43-1.47.59-3.03-.61-4.18-4.21-4.63-8.26-7.37-12.79-11.16 17.63 1.63 33.99 11.16 46.44 23.45 24.56 24.55 36.67 61.15 31.25 95.47-.24 2.47-2.12 6.42-.13 8.43 1.61 1.12 3.91.53 4.46-1.45 1.72-5.72 1.99-12.04 2.66-17.97.84-18.47-2.94-37.13-10.49-53.98 3.75 1.7 7.22 3.71 10.29 6.47 9.6 8.71 15.99 21.44 20.44 33.43 3.44 9.7 6.01 19.89 7.53 30.06 1.37 6.99 1.27 13.98 2.14 21.03.18 6.29.32 12.75-.54 19-.75 12.47-3.09 25.87-7.87 37.41-3.48-.73-7.28-1.37-10.84-1.19-.99-5.5.89-12.26-1.08-17.52-2.18-1.34-5.01-.66-4.85 2.27 1.01 30.22-5.49 60.96-16.14 89.15-11.15 28.67-27.41 56.84-49.36 78.62l-.84.2c6.22-14.47 10.08-30.09 13.49-45.45 5.31-25.08 8.79-50.95 10.63-76.49 1.8-21.45 1.81-43.49 1.22-65.01-.55-10.37-1.49-20.75-3.07-31.02-.23-1.46-.15-2.92-1.7-3.64-1.95-1.47-4.32.45-4.09 2.64.71 6.67 1.96 13.38 2.22 20.08-1.11 2.99-2.59 5.89-4.17 8.66-.06-5.1-.21-10.18-.72-15.26-1.11-5.13-1.14-10.35-2.4-15.45-.51-5.11-2.28-9.87-2.45-15.05-.96-2.47-3.54-3.32-5.38-1.14-2.03 7.36-4.2 14.86-7.14 21.93-3.41-10.35-7.02-20.43-10.1-30.92-2.91-10.12-5.71-21.28-10.45-30.76-1.17-2.39-3.99-3.13-5.68-.79-1.94 5.89-4.32 11.56-5.6 17.68-1.15.4-1.9-1.37-2.58-2.05-6.44-8.53-12.99-16.4-18.31-25.74-1.59-2.28-2.78-5.73-5.78-6.37-1.92-.03-3.4 1.5-4.26 3.07-2.85 6.06-4.52 12.38-6.01 18.85-6.69 1.94-12.07-1.55-17.34-5.17-6.72-5.81-12.1-13.27-15.5-21.48-.88-1.8-1.58-3.78-3.94-3.78-2.53-.08-3.86 1.56-5.62 3.09-2.94 2.95-4.51 6.45-5.81 10.34-2.21.4-5.17-1.82-7.43-2.14-7.49-2.58-15.25-4.37-23.15-5.13-9.72-1.66-19.59-.35-28.44 4.06l-.17-1.28c2-6.05 5.97-11.65 8.54-17.32.88-1.88.69-3.64-.6-5.27-2.45-1.59-5.87-.67-8.41.27-16.14 6.76-30.75 18.73-45.77 27.76.85-1.61 2.06-2.72 1.72-4.72-.17-2.37-2.92-3.34-4.89-2.2-34.75 14.89-68.28 33.84-98.21 57-16.82 13.15-32.94 28.01-46.44 44.59-9.64 11.9-17.72 24.9-23.75 38.98-4.13-7.29-6.63-15.83-6.74-24.32-.74-14.55 4.42-29.05 11.79-41.4 8.81-14.58 21.24-27.01 34.88-37.1 22.85-16.73 49.75-27.75 77.67-32.26 2-.68 2.52-3.07 1.35-4.77-2.23-1.65-5.82.02-8.4.15-13.61 2.77-27.27 6.97-39.97 12.64-5.42 2.11-10.66 5.43-15.9 7.61-.94-3.5-2.09-7.23-1.89-10.88.51-6.11 2.43-11.91 5.44-17.23 5.26-9.12 12.48-16.73 20.57-23.39 11.19-9.22 24-16.73 37.1-22.88 15.7-7.35 32.17-12.91 49.04-16.83 12.91-2.68 26.3-5.4 39.52-5.4-10.56 4.07-20.56 9.11-29 16.8-1.24 1-1.19 3.11-.49 4.4 1.69 1.43 3.02 1 4.56-.31 6.57-5.91 14.24-10.3 22.37-13.66 19.6-8.15 40.47-11.04 61.53-11.81Z" fill="rgba(86, 35, 6, 1)"/><path d="m771.87 420.34.15.19c4.71 8.47 9.82 16.22 15.16 24.3 6.02 8.58 12.65 16.7 18.64 25.31 8.93 12.78 17.219 26.4 23.409 40.73 3.88 9.02 6.991 18.64 9.461 28.13 2.6 10.46 4.799 21.22 5.349 32.01.87 7.03 1.021 14.43.031 21.45-1.33 17.85-10.2 34.85-22.82 47.37 2.9-8.61 4.369-17.78 5.039-26.82.26-10.01.691-20.75-1.509-30.54-.45-3.26-1.41-6.58-2.95-9.49 1.21-3.86 1.539-8.01 1.959-11.99-.13-2.53-3.669-3.21-4.769-.93-1.12 3.3-.671 6.74-1.971 10.04-6.04 21.55-20.34 40.32-36.26 55.67a227.64 227.64 0 0 1-40.44 30.65c3.18-5.42 6.111-10.93 8.101-16.91 2.55-6.82 5.209-14.25 6.589-21.41.39-2.15 1.82-3.63.57-5.76-1.13-1.54-4.039-.96-5.529-.31-14.24 6.29-26.9 14.54-39.56 23.51-6.76 4.97-13.391 9.67-19.351 15.65-7.61 7.32-12.989 15.64-16.349 25.67-7.41-3.24-13.47-8.98-18.44-15.26-1.46-1.87-2.51-3.89-3.11-6.18 21.5-14.23 40.46-32.63 55.66-53.45 4.72-6.19 8.54-12.88 12.84-19.3 2.83.06 5.569.66 8.329 1.25 6.99 1.03 14.011.88 20.901-.72 25.06-5.13 45.189-25.53 51.599-50.06 5.42-18.77 2.001-40.28-9.779-56.02-7.13-9.55-17.3-16.88-28.74-20.3 4.33-11.8 6.52-23.98 7.79-36.48Z" fill="rgba(86, 35, 6, 1)"/><path d="M310.869 497.12c1.65 1.65 1.21 3.7 1.65 5.87 5.33 35 19.36 68.58 40.48 97.01 19.73 26.6 45.7 48.57 75.1 63.8 2.53.79 3.21 4.81.94 6.3-2.56 1.35-5.29 2.2-8.02 3.12-16.94 4.72-35.82 3.85-52.9.19-2.54-.41-4.53-1.56-7.06-1.35.73 4.07 2.12 7.98 4.53 11.37.87 1.48 2.43 2.74 1.59 4.61-1.5 2.63-4.38 1.31-6.48.31-23.49-9.61-42.5-29.2-50.78-53.26l-.8.04c-6.14 6.18-11.66 13.08-16.96 19.99-3.54 5.02-7.49 9.92-9.29 15.88-.54 2.62-4.06 2.32-5.11.18-2.18-4.05-3.35-8.83-4.88-13.16-7.7-27.77-6.32-58.07-.23-86.02 6.01-26.48 16.59-52.68 32.54-74.79 1.43-2.18 4.19-2.26 5.68-.09Z" fill="#000"/><path d="m306.48 505.25.48.15.19.08c1.36 9.66 3.7 19.28 6.48 28.64 16.45 55.67 55.43 104.11 106.47 131.87.52.25.99.59 1.41 1.03-17.53 5.64-37.85 4.22-55.53.01-2.36-.57-5.33-2.03-7.91-1.77-1.48.1-2.23 1.35-2.42 2.7-.27 4.5.83 8.63 2.34 12.8-14.32-6.86-26.77-18.09-35.08-31.64-8.87-14.31-12.93-31.36-11.41-48.13.43-2.63 1.04-5.38 1.01-8.03-.2-2.43-3.61-3.14-5.01-1.22-.79 1.98-1.16 4.16-1.34 6.27-1.16 10.1-.61 20.2 1.64 30.11-9.97 10.29-19.18 21.7-26.79 33.84l-.77-.09c-4.91-13.64-6.32-27.49-7.02-41.87-.12-40.24 11.36-80.9 33.26-114.75Z" fill="rgba(86, 35, 6, 1)"/></g></g></svg>