<svg xmlns:dc="http://purl.org/dc/elements/1.1/" xmlns:cc="http://creativecommons.org/ns#" xmlns:rdf="http://www.w3.org/1999/02/22-rdf-syntax-ns#" xmlns:svg="http://www.w3.org/2000/svg" xmlns="http://www.w3.org/2000/svg" viewBox="0 0 762 762" fill="none"><metadata><rdf:RDF><cc:Work><dc:format>image/svg+xml</dc:format><dc:type rdf:resource="http://purl.org/dc/dcmitype/StillImage"/><dc:title>Adventurer</dc:title><dc:creator><cc:Agent><dc:title>Lisa Wischofsky</dc:title></cc:Agent></dc:creator><dc:source>https://www.instagram.com/lischis_adventures/</dc:source><cc:license rdf:resource="https://creativecommons.org/licenses/by/4.0/"/></cc:Work><cc:License rdf:about="https://creativecommons.org/licenses/by/4.0/"><cc:permits rdf:resource="https://creativecommons.org/ns#Reproduction"/><cc:permits rdf:resource="https://creativecommons.org/ns#Distribution"/><cc:permits rdf:resource="https://creativecommons.org/ns#DerivativeWorks"/><cc:requires rdf:resource="https://creativecommons.org/ns#Notice"/><cc:requires rdf:resource="https://creativecommons.org/ns#Attribution"/></cc:License></rdf:RDF></metadata><mask id="avatarsRadiusMask"><rect width="762" height="762" rx="0" ry="0" x="0" y="0" fill="#fff"/></mask><g mask="url(#avatarsRadiusMask)"><path d="M396.01 164.85c37.82 4.9 74.21 19.64 104.8 42.39 6.15 4.84 12.48 9.33 18.02 14.92 23.77 21.98 42.73 49.02 55.13 78.95 9.35 22.31 14.72 46.04 16.64 70.14 6.62.81 13.05 2.14 19.12 5 15.54 6.93 27.08 20.94 31.78 37.21 2.63 9.56 3.56 19.75 1.72 29.55-2.96 18.76-13.72 36.13-29.37 46.92-10.94 7.65-24.49 12.03-37.86 11.68-5.13-.05-10.04-1.6-15.13-1.79-1.85 2.17-3.23 4.84-4.76 7.25-18.66 29.62-44.57 54.51-74.64 72.4-28.1 16.73-59.9 27.16-92.46 30.32-11.08.7-21.87 2.05-32.98.74-51.69-2.3-102.07-23.44-140.15-58.43-29.03-26.55-50.84-60.83-62.54-98.39-7.09-22.85-10.62-46.78-10.07-70.71.52-40.34 12.53-80.58 33.94-114.76 19.1-30.81 45.91-56.58 77.2-74.83 29.63-17.28 63.35-27.68 97.59-29.87 14.66-1.47 29.44-.37 44.02 1.31Z" fill="#000"/><path d="M363 169.06c48.47-1.39 97.32 14.7 135.81 44.12 6.55 4.06 11.72 9.49 17.36 14.64 24.33 22.63 43.2 50.95 54.93 82.02 7.43 19.61 11.86 40.2 13.56 61.09-8.89.74-17.34 2.34-25.38 6.38-2.19 1.03-1.89 4.95.68 5.23 2.35.23 4.98-1.51 7.24-2.2 14.62-5.37 31.32-4.35 44.78 3.68 11.69 6.78 20.09 18.16 23.89 31.06 2.6 8.25 2.68 17.41 1.76 25.95-2.5 17.35-12.35 33.73-26.73 43.81-15.71 11.33-37.17 14.64-54.93 6.2-3.17-1.43-5.94-3.58-9.08-5.05-2.95-1.09-4.88 2.79-2.7 4.75 3.17 2.76 7.34 4.52 11 6.56-20.14 34.15-49.45 62.7-84.41 81.47-30.2 16.31-64.44 25.53-98.78 26.15-27.63.72-55.33-4.04-81.21-13.72-30.32-11.24-57.84-29.43-80.37-52.6-22.67-23.37-39.92-51.88-50.2-82.77-14.96-44.64-14.91-94.01.27-138.59 11.05-33.06 30.28-63.21 55.37-87.39 29.67-28.73 67.65-48.54 108.13-56.67 12.8-2.52 25.94-4.24 39.01-4.12Z" fill="rgba(158, 86, 34, 1)"/><path d="M605.03 404.4c2.63-.1 3.44 3.8 1.36 4.98-3.69 1.83-7.82 2.77-11.64 4.35-5.82 2.04-11.28 4.76-16.68 7.72 4.29 2.34 8.86 4.74 12.71 7.76 2.58 2.09 4.85 4.35 5.33 7.8-.26 3.59-2.73 6.55-5.45 8.69-5.86 4.66-13.92 7.18-20.79 10.26-1.75.62-4.43 1.99-5.59-.26-1.02-1.74-.06-3.11 1.57-3.87 6.65-3.3 14.86-5.62 20.79-10.16 1.37-1.14 3.39-2.74 3.61-4.62-4.07-5.63-12.42-8.59-18.23-12.09-2.34-1.72-2.29-4.24-.16-6.13 7.27-5.64 16.98-9.26 25.57-12.38 2.42-.83 5.03-1.95 7.6-2.05Z" fill="#000"/><g transform="translate(-161 -83)"><path d="M380.24 447.22c13.3-1.66 27.11 1.75 38.11 9.43 12.06 8.33 20.46 21.6 22.82 36.06 1.19 8.28.93 17.07-1.63 25.08-3.95 13.25-13.11 24.77-25.11 31.65-10.01 5.78-21.98 8.36-33.47 6.98-16.14-1.57-31.14-10.83-39.98-24.4-5.54-8.33-8.46-18.04-9.11-27.98-.3-12.3 3.26-24.62 10.56-34.57 8.83-12.25 22.8-20.48 37.81-22.25Z" fill="#000"/><path d="M378.24 453.29c19.42-3.65 39.86 5.43 50.31 22.16 6.62 10.49 9.49 23.85 6.67 36.03-2.57 13.31-10.96 25.19-22.49 32.27-6.86 4.28-14.7 6.65-22.74 7.28-19.82 1.35-39.29-10.22-47.62-28.26-7.76-16.18-5.77-36.01 5.02-50.34 7.38-10.03 18.61-16.92 30.85-19.14Z" fill="#fff"/><path d="M589.99 474.91c13.08-.59 26.98-1.27 39.85 1.48 2.15.58 2.9 1.33 2.29 3.68-2.1 1.76-6.09 3.3-6.83 6.12-.03 6 9.05 5.9 9.69 10.8-.29 2.95-2.42 3.33-4.97 3.14-7.67-.63-15.32-1.24-23.02-1.41-16.02-.09-32.02-.23-48.01.88-7.56.7-15.21.63-22.77 1.17-11.11 1.03-22.13 1.31-33.14 3.36-2.67.49-5.51 1.11-8.23 1.06-2.01-1.24-3.05-5.54-.56-6.86 5.33-3.02 11.33-5.1 17.18-6.87 15.08-4.97 30.76-8.25 46.26-11.64 10.64-2.42 21.43-3.76 32.26-4.91ZM405.43 479.68c3.46-.9 6.91-.99 10.4-.21 8.85 2.09 15.44 10.43 15.31 19.55.24 11.12-10.03 21.17-21.19 20.13-9.28-.52-17.48-7.87-18.76-17.12-1.71-9.8 4.73-19.67 14.24-22.35Z" fill="#000"/></g><g transform="translate(-161 -83)"><path d="M582.3 370.69c14.06 7.04 27.75 17.35 36.57 30.53 2.05 2.95-1.4 6.24-4.23 4.15-10.56-6.54-22.24-11.16-34.46-13.42-35.66-6.86-74.47 5.14-98.23 33.03-1.67 2.05-4.03 3.59-6.28 1.25-1.68-2.6-2.27-6.05-3.3-8.95-1.92 4.71-3.86 9.5-6.21 14.02-1.55 3.23-6 1.12-7.03-1.42-3.06-6.88-6.21-13.74-9.02-20.73.01 5.63.01 11.25.04 16.88-.19 2.06.27 4.35-2.11 5.22-2.06.23-4.36-1.03-5.3-2.91-3.26-5.88-6.24-11.93-9.49-17.82.96 5.51 2.6 10.99 3.1 16.55.12 1.94-2.28 3.44-4.02 2.36-18.54-7.4-38.31-11.49-58.33-10.09-12.5.92-26.14 4.63-36 12.68-3.09 2.34-5.2 5.51-7.97 8.15-1.65.72-3.27-.24-4.88-.65.08-1.91.11-3.75.73-5.58 6.86-20.67 20.43-39.8 39.98-50.1 13.56-7.32 30.17-9.03 44.62-3.35 11.89 4.55 20.95 13.32 27.67 23.95 2.31-2.84 4.25-6.03 6.75-8.71 1.62-1.56 4.62-1.55 5.63.72 2.52 5.15 4.68 10.51 6.98 15.78 1.49-7.42 3.06-14.81 4.43-22.24.33-1.5.6-3.23 1.58-4.45 1.65-1.25 2.9-.28 4.65.1.27.86.53 1.71.8 2.56 2.08-4.75 4.75-9.11 8.44-12.78 9.1-9.43 21.82-14.25 34.5-16.48 23.85-3.69 48.86 1.12 70.39 11.75Z" fill="#000"/></g><g transform="translate(-161 -83)"><path d="M469.99 539.64c9.45-.62 18.37 5.2 25.18 11.18 9.61 8.8 17.31 20.09 23.54 31.49 12.62 23.56 20.84 50.09 23.56 76.68.49 4.4 1.53 8.68-2.43 11.86-7.32 3.5-15.84 4.95-23.84 6.01-15.97 1.38-32.52-.85-47.99-4.85-2.36-.75-4.53-.89-5.44-3.57-9.45-20.8-15.71-43.16-17.97-65.91-1.01-12.34-1.07-24.91 1.8-37.02 1.62-6.56 4.25-13.27 8.72-18.42 3.72-4.29 9.1-7.4 14.87-7.45Z" fill="#000"/><path d="M474.49 545.63c9.4 2.08 17.07 9.35 23.35 16.25-13.95 5.98-30.91 9.6-45.86 5.81 1.27-6.17 3.77-12.91 8.25-17.49 3.61-3.79 9.07-5.91 14.26-4.57Z" fill="#fff"/><path d="M501.86 566.88c12.64 16.83 21.52 36.66 27.44 56.79-6.29 1.3-11.94 3.96-17.5 7.1-11.57 6.75-22.43 15.88-30.04 26.97-2.28 3.53-4.69 6.5-4.54 10.94-2.97-.77-5.95-1.45-8.96-2.06-8.42-17.85-13.97-37.13-16.92-56.63-1.6-12.46-2.48-24.55-.38-37.02 5.4 1.04 10.5 2.3 16.05 1.94 5.01-.39 10.05-.95 14.99-1.89 6.9-1.27 13.26-3.89 19.86-6.14Z" fill="#8F2E45"/><path d="M527.55 629.64c1.49-.65 2.4.12 3.76.63 2.74 11.73 5.07 23.49 5.63 35.56-7.95 3.25-16.19 4.63-24.68 5.56-10.48.94-20.25-.66-30.6-1.81 4.52-9.01 10.37-16.33 17.9-23 8.13-7.09 17.68-13.56 27.99-16.94Z" fill="#EA869E"/></g><g transform="translate(-161 -83)"/><g transform="translate(-161 -83)"><path d="M561.98 243.31c21.23 2.34 42.86 6.05 63.28 12.4 6.74 2.26 13.88 4.45 20.02 8.06 2.3 1.32.95 3.44-.34 4.94-4.83-1.56-9.35-3.9-14.17-5.5-13.7-4.75-28.06-7.81-42.32-10.35-15.88-2.84-31.99-4.79-48.11-5.34-23.62-1.23-47.3-.15-70.55 4.36-8.27 1.49-16.45 3.43-24.58 5.57-5.58 1.48-10.96 3.38-16.71 4.17-.47-2.51-1.79-4.51 1.29-5.74 18.39-5.59 37.13-9.95 56.23-12.32 25.27-3.25 50.65-2.83 75.96-.25Z" fill="#000"/><path d="M540.34 247.52c16.12.55 32.23 2.5 48.11 5.34 14.26 2.54 28.62 5.6 42.32 10.35 4.82 1.6 9.34 3.94 14.17 5.5 3.72 1.42 7.34 3.25 10.53 5.64 7.29 5.88 14.76 9.98 20.17 18.05 4.36 6.11 5.94 13.33 5.28 20.77.27.68.54 1.37.8 2.05 4.51 1.4 8.74 2.2 12.75 4.34 6.99 3.64 12.76 9.23 17.64 15.35 6.23 8.13 11.33 17.19 15.42 26.57 12.4 28.95 17.9 61.41 19.33 92.73-6.32-.01-12.55.97-18.39 3.44-1.97.69-4.01 1.25-6.02 1.85 1.03-1.33 2.91-2.54 1.2-4.24-1.08-1.43-2.37-1-3.82-.51-12.94 5.11-22.91 13.8-32.65 23.47-.98.93-1.27 2.11-1.68 3.34-1.11-2.07-2.03-4.29-2.92-6.47 3.07-2.7 3.48-7.8 4.61-11.6 3.58-15.4 5.92-31.44 6.65-47.24 2.26-.25 4.81.78 5.45-2.2-.03-2.6-2.05-3.14-3.87-4.38-8.36-4.74-15.62-10.92-22.2-17.87-13.01-13.9-23.24-30.59-29.3-48.65-1.3-3.86-2.25-7.79-3.84-11.55-1.61-4.44-2.07-9.37-3.16-14-5.22-1.46-10.24-2.12-15.65-2.37-16.58-1.56-33.82-.08-50.44.34 9.68-1.36 19.4-2.96 28.95-5.07 2.4-.68 5.89-1.22 7.43-3.37 1.27-2.06.15-4.48-1.98-5.33-4.49-1.49-9.48-1.83-14.19-2.07-11.71-.3-23.32-1.26-35.04-.98-19.94-.26-39.88-.05-59.82-.3 13.19-1.9 26.15-5.54 39.31-7.7 9.66-1.58 19.23-3.67 28.9-5.17 11.56-.15 23.1.17 34.64.83 4.65.44 9.27 1.02 13.95.97.54-.88 1.08-1.76 1.62-2.63-1.04-1.3-1.61-2.52-3.42-2.76-6.81-1.48-14.23-1.23-21.18-1.59-13.29-.89-26.68-.55-40-.54-7.35-.07-14.65.72-22 .78-8.43.14-16.76 1.26-25.17 1.73-32.15 2.67-63.86 8.16-95.3 15.28 4.94-1.66 9.74-3.71 14.63-5.53 28.05-10.48 56.67-19.04 86.04-24.96 2.32-.64 5.72-.87 6.99-3.21.83-2.6-.57-4.03-3.1-4.21-17.01-.67-33.36.83-49.9 2.13-16.71 1.83-33.25 3.7-49.69 7.33-4.21.86-8.44 1.58-12.65 2.45 9.43-3.72 18.93-7.14 28.65-10.03 5.75-.79 11.13-2.69 16.71-4.17 8.13-2.14 16.31-4.08 24.58-5.57 23.25-4.51 46.93-5.59 70.55-4.36Z" fill="rgba(121, 106, 69, 1)"/><path d="M512.09 259.74c2.53.18 3.93 1.61 3.1 4.21-1.27 2.34-4.67 2.57-6.99 3.21-29.37 5.92-57.99 14.48-86.04 24.96-4.89 1.82-9.69 3.87-14.63 5.53 31.44-7.12 63.15-12.61 95.3-15.28 8.41-.47 16.74-1.59 25.17-1.73 7.35-.06 14.65-.85 22-.78 13.32-.01 26.71-.35 40 .54 6.95.36 14.37.11 21.18 1.59 1.81.24 2.38 1.46 3.42 2.76-.54.87-1.08 1.75-1.62 2.63-4.68.05-9.3-.53-13.95-.97-11.54-.66-23.08-.98-34.64-.83-23.1-.33-46.4 1.07-69.4 3.23-35.01 3.45-69.37 10.1-103.48 18.62-2.72.5-6.62 1.91-8.98-.08-.49-1.25-.79-3.41.47-4.31 3.28-2.56 7.52-4.02 11.27-5.79 28.42-12.38 57.92-22.32 87.92-30.09 2.58-.69 5.19-1.21 7.8-1.73-5.32.64-10.66.83-16 1.19-27.55 2.23-54.8 5.84-81.54 13.06-.92-1.62-2.11-2.56-1.49-4.59 2.55-1.97 5.83-2.67 8.89-3.44 4.21-.87 8.44-1.59 12.65-2.45 16.44-3.63 32.98-5.5 49.69-7.33 16.54-1.3 32.89-2.8 49.9-2.13ZM656.08 270.86c2.32-.28 3.81-.12 5.74 1.24 7.25 5.03 14.8 11.12 19.33 18.8 3.79 5.96 5.27 12.61 5.09 19.63 11.72 2.53 20.94 9.68 28.55 18.65 10.27 12.18 17.54 27.39 22.86 42.32 9.41 26.83 13.69 55.2 14.97 83.53.19 2.16-.6 3.94-2.79 4.49-3.93.19-7.73-.2-11.61.79-2.74.45-5.97 1.96-8.72 1.29-.42-1.29-.76-2.61-1.03-3.95 5.84-2.47 12.07-3.45 18.39-3.44-1.43-31.32-6.93-63.78-19.33-92.73-4.09-9.38-9.19-18.44-15.42-26.57-4.88-6.12-10.65-11.71-17.64-15.35-4.01-2.14-8.24-2.94-12.75-4.34-.26-.68-.53-1.37-.8-2.05.66-7.44-.92-14.66-5.28-20.77-5.41-8.07-12.88-12.17-20.17-18.05.14-1.17.34-2.33.61-3.49Z" fill="#000"/><path d="M478.16 298.5c5.98-.43 12.03.07 18.02-.05 19.94.25 39.88.04 59.82.3 11.72-.28 23.33.68 35.04.98 4.71.24 9.7.58 14.19 2.07 2.13.85 3.25 3.27 1.98 5.33-1.54 2.15-5.03 2.69-7.43 3.37-9.55 2.11-19.27 3.71-28.95 5.07 16.62-.42 33.86-1.9 50.44-.34 1.45.29 3.23.29 4.43 1.16.27 1.13.23 2.18-.12 3.17-1.35 1.16-2.93.74-4.59.79-24.87-1.12-49.22 1.18-74 2.5-3.93.24-8.03.64-11.95.13-2.6-.19-3.48-3.91-1.58-5.5 2.33-1.62 5.62-2.04 8.33-2.7 17.46-3.47 35.22-5.46 52.68-9-10.76-1.05-21.67-1.08-32.47-1.15-27.67-.57-55.39-.2-83.07-.54-1.3-.15-3.62-.3-3.67-2.02-.87-1.61 1.29-3.61 2.9-3.57ZM636.75 331.83c1.11-.08 2.22-.16 3.33-.23 1.59 3.76 2.54 7.69 3.84 11.55 6.06 18.06 16.29 34.75 29.3 48.65 6.58 6.95 13.84 13.13 22.2 17.87 1.82 1.24 3.84 1.78 3.87 4.38-.64 2.98-3.19 1.95-5.45 2.2-.73 15.8-3.07 31.84-6.65 47.24-1.13 3.8-1.54 8.9-4.61 11.6-1.09-.56-2.14-1.19-3.15-1.87-.2-2.35.4-4.48 1.01-6.72 3.23-11.12 5-22.86 6.75-34.31.72-6.62 1.54-13.4 1.12-20.06-6.2-4.15-11.91-8.98-17.18-14.26-15.82-16.09-27.82-36.16-34.23-57.81-.7-2.93-1.99-5.41-.15-8.23ZM723.65 455.26c1.71 1.7-.17 2.91-1.2 4.24-10.49 3.65-19.91 11.5-27.71 19.25-2.59 2.32-4.16 5.18-8.06 4.91l-1.18-2.1c.41-1.23.7-2.41 1.68-3.34 9.74-9.67 19.71-18.36 32.65-23.47 1.45-.49 2.74-.92 3.82.51ZM709.55 473.6c2.59-1.04 4.44.66 3.59 3.39-2.71 2.38-6.06 3.96-8.84 6.29-5.1 4.18-9.7 9.03-14.09 13.94-1.55 1.77-3.37 3.24-5.28 4.62-.8-.9-1.57-1.83-2.29-2.78-.09-2.29 2.21-4.21 3.59-5.84 6.77-7.11 14.46-15.2 23.32-19.62Z" fill="#000"/></g></g></svg>