<svg xmlns:dc="http://purl.org/dc/elements/1.1/" xmlns:cc="http://creativecommons.org/ns#" xmlns:rdf="http://www.w3.org/1999/02/22-rdf-syntax-ns#" xmlns:svg="http://www.w3.org/2000/svg" xmlns="http://www.w3.org/2000/svg" viewBox="0 0 762 762" fill="none"><metadata><rdf:RDF><cc:Work><dc:format>image/svg+xml</dc:format><dc:type rdf:resource="http://purl.org/dc/dcmitype/StillImage"/><dc:title>Adventurer</dc:title><dc:creator><cc:Agent><dc:title>Lisa Wischofsky</dc:title></cc:Agent></dc:creator><dc:source>https://www.instagram.com/lischis_adventures/</dc:source><cc:license rdf:resource="https://creativecommons.org/licenses/by/4.0/"/></cc:Work><cc:License rdf:about="https://creativecommons.org/licenses/by/4.0/"><cc:permits rdf:resource="https://creativecommons.org/ns#Reproduction"/><cc:permits rdf:resource="https://creativecommons.org/ns#Distribution"/><cc:permits rdf:resource="https://creativecommons.org/ns#DerivativeWorks"/><cc:requires rdf:resource="https://creativecommons.org/ns#Notice"/><cc:requires rdf:resource="https://creativecommons.org/ns#Attribution"/></cc:License></rdf:RDF></metadata><mask id="avatarsRadiusMask"><rect width="762" height="762" rx="0" ry="0" x="0" y="0" fill="#fff"/></mask><g mask="url(#avatarsRadiusMask)"><path d="M396.01 164.85c37.82 4.9 74.21 19.64 104.8 42.39 6.15 4.84 12.48 9.33 18.02 14.92 23.77 21.98 42.73 49.02 55.13 78.95 9.35 22.31 14.72 46.04 16.64 70.14 6.62.81 13.05 2.14 19.12 5 15.54 6.93 27.08 20.94 31.78 37.21 2.63 9.56 3.56 19.75 1.72 29.55-2.96 18.76-13.72 36.13-29.37 46.92-10.94 7.65-24.49 12.03-37.86 11.68-5.13-.05-10.04-1.6-15.13-1.79-1.85 2.17-3.23 4.84-4.76 7.25-18.66 29.62-44.57 54.51-74.64 72.4-28.1 16.73-59.9 27.16-92.46 30.32-11.08.7-21.87 2.05-32.98.74-51.69-2.3-102.07-23.44-140.15-58.43-29.03-26.55-50.84-60.83-62.54-98.39-7.09-22.85-10.62-46.78-10.07-70.71.52-40.34 12.53-80.58 33.94-114.76 19.1-30.81 45.91-56.58 77.2-74.83 29.63-17.28 63.35-27.68 97.59-29.87 14.66-1.47 29.44-.37 44.02 1.31Z" fill="#000"/><path d="M363 169.06c48.47-1.39 97.32 14.7 135.81 44.12 6.55 4.06 11.72 9.49 17.36 14.64 24.33 22.63 43.2 50.95 54.93 82.02 7.43 19.61 11.86 40.2 13.56 61.09-8.89.74-17.34 2.34-25.38 6.38-2.19 1.03-1.89 4.95.68 5.23 2.35.23 4.98-1.51 7.24-2.2 14.62-5.37 31.32-4.35 44.78 3.68 11.69 6.78 20.09 18.16 23.89 31.06 2.6 8.25 2.68 17.41 1.76 25.95-2.5 17.35-12.35 33.73-26.73 43.81-15.71 11.33-37.17 14.64-54.93 6.2-3.17-1.43-5.94-3.58-9.08-5.05-2.95-1.09-4.88 2.79-2.7 4.75 3.17 2.76 7.34 4.52 11 6.56-20.14 34.15-49.45 62.7-84.41 81.47-30.2 16.31-64.44 25.53-98.78 26.15-27.63.72-55.33-4.04-81.21-13.72-30.32-11.24-57.84-29.43-80.37-52.6-22.67-23.37-39.92-51.88-50.2-82.77-14.96-44.64-14.91-94.01.27-138.59 11.05-33.06 30.28-63.21 55.37-87.39 29.67-28.73 67.65-48.54 108.13-56.67 12.8-2.52 25.94-4.24 39.01-4.12Z" fill="rgba(236, 173, 128, 1)"/><path d="M605.03 404.4c2.63-.1 3.44 3.8 1.36 4.98-3.69 1.83-7.82 2.77-11.64 4.35-5.82 2.04-11.28 4.76-16.68 7.72 4.29 2.34 8.86 4.74 12.71 7.76 2.58 2.09 4.85 4.35 5.33 7.8-.26 3.59-2.73 6.55-5.45 8.69-5.86 4.66-13.92 7.18-20.79 10.26-1.75.62-4.43 1.99-5.59-.26-1.02-1.74-.06-3.11 1.57-3.87 6.65-3.3 14.86-5.62 20.79-10.16 1.37-1.14 3.39-2.74 3.61-4.62-4.07-5.63-12.42-8.59-18.23-12.09-2.34-1.72-2.29-4.24-.16-6.13 7.27-5.64 16.98-9.26 25.57-12.38 2.42-.83 5.03-1.95 7.6-2.05Z" fill="#000"/><g transform="translate(-161 -83)"><path d="M556 424.07c14.74-.22 29.47 4.69 41.05 13.82 18.48 14.28 28.19 38.59 24.23 61.66-.97 7.55-3.91 14.28-6.79 21.23-1.41.65-2.88 1.52-4.42 1.77-2.33.07-4.8-.91-7.04-1.55-15.9-4.89-32.42-7.29-49.03-7.62-15.06.4-29.61 2.56-43.09 9.64-3.06 1.28-5.83 4.03-8.97 1.26-8.58-12.42-11.56-28.46-9.81-43.32 1.88-14.82 8.94-28.76 19.83-39 11.84-11.27 27.69-17.72 44.04-17.89Z" fill="#000"/><path d="M557 429.85c13.7-.2 27.09 4.84 37.68 13.45 9.3 7.59 16.22 18.13 19.44 29.7 4.21 14.33 2.58 30.26-4.3 43.51-5.35-.61-10.17-2.65-15.46-3.78-16.05-3.75-32.92-5.8-49.39-4.47-14.09.98-26.96 4.71-39.29 11.59-7.06-12.12-10.21-26.98-7.46-40.82 2.58-15.15 11.3-29.08 23.8-38.03 10.11-7.24 22.5-11.37 34.98-11.15Z" fill="#fff"/><path d="M381.31 447.08c12.98-1.32 26.32 2.09 37.02 9.56 12.03 8.29 20.42 21.5 22.82 35.91 1.2 8.25.97 17.09-1.57 25.09-4.48 15.26-15.89 28.16-30.47 34.49-12.99 5.78-28.14 6.16-41.44 1.18-11.33-4.19-21.14-12.24-27.48-22.52-5.05-8.05-7.68-17.27-8.31-26.71-.33-12.56 3.39-25.14 10.99-35.21 9.07-12.24 23.28-20.27 38.44-21.79Z" fill="#000"/><path d="M376.49 453.67c18.14-4.16 37.8 3.04 49.17 17.7 8.71 11.04 12.73 26.33 9.55 40.13-1.95 9.98-7.12 19.22-14.55 26.16-8.03 7.65-18.6 12.27-29.63 13.27-19.64 1.82-39.23-9.24-48.03-26.86-7.99-15.54-6.9-34.79 2.78-49.34 7-10.7 18.2-18.4 30.71-21.06Z" fill="#fff"/><path d="M519.39 474.75c8.57-2.25 17.85 3.55 19.35 12.31 1.85 8.26-3.88 16.87-12.14 18.52-9.15 2.29-18.91-5.05-19.05-14.53-.72-7.51 4.64-14.5 11.84-16.3ZM403.4 485.62c6.37-2.18 13.28.49 17.27 5.71 4.54 5.93 4.18 14.9-1.03 20.31-5.02 5.79-14.49 6.76-20.65 2.39-4.26-2.85-6.94-7.87-6.92-13-.26-6.95 4.69-13.5 11.33-15.41Z" fill="#000"/></g><g transform="translate(-161 -83)"><g fill="#000"><path d="M501.99 384.96c9.91.12 19.87 3.23 28.83 7.31 3.36 1.88 7.05 4.01 7.31 8.29-5.14-.86-10.14-2.06-15.38-2.28-11.6-.68-23.13 1.36-33.25 7.23-2.54 1.41-4.95 3.26-7.64 4.35-1.8.27-3.92-1.99-3.94-3.73-.18-5.81 1.95-11.92 6.53-15.7 5.03-4.23 11.15-5.3 17.54-5.47ZM414.03 402.61c5.81.15 10.93 5.3 12.51 10.64.8 2.63-.46 5.72-3.53 5.61-8.82.21-18.21.03-26.81 2.26-7.52 2.01-14.74 6.71-21.36 10.74-1.22.81-2.57.96-3.98 1.22.33-1.93.64-3.66 1.94-5.21 3.28-4.33 6.78-8.58 10.74-12.3 5.88-5.17 13.01-8.96 20.32-11.66 3.23-1.11 6.76-1.58 10.17-1.3Z"/></g></g><g transform="translate(-161 -83)"><path d="M480.96 561.69c4.71-.58 10.26.05 13.71 3.66 3.78 3.91 4.15 9.42 3.22 14.53-2.64 11.8-12.86 21.43-24.83 23.27-7.5 1.49-15.57-.3-22.15-4.05-5.15-2.91-8.86-7.64-11.08-13.06-1.31-3.29-1.62-7.23-.43-10.59 1.3-3.11 4.12-5 7.34-5.69 5.66-1.84 11.66.26 16.63 3.04 4.58-5.09 10.57-10.17 17.59-11.11Z" fill="#000"/><path d="M480.51 567.7c3.29-1.03 7.38-.57 10 1.78 2.06 2.03 2.11 5.89 1.71 8.56-1.84 9.78-10.28 17.74-20.07 19.32-6.52 1.31-13.19-.33-18.84-3.68-4.3-2.52-7.44-6.98-8.81-11.72-.7-2.45-.36-5.07 2.04-6.38 2.59-1.08 5.76-1.02 8.48-.49 3.48.7 5.8 2.91 8.97 4.32 1.93-.09 2.62-1.39 3.81-2.64 3.32-3.94 7.69-7.62 12.71-9.07Z" fill="#8F2E45"/></g><g transform="translate(-161 -83)"><path fill-rule="evenodd" clip-rule="evenodd" d="M531.31 506.71c7.34 4.5 12.1 12.74 12.79 21.28.97 9.95-4.19 20.21-12.55 25.62-6.49 4.08-14.6 5.58-22.07 3.66-11.77-2.85-20.88-13.75-20.98-25.94-8.63-10.18-25.54-13.93-36.48-5.26-3.23 2.99-6.61 7.32-6.74 11.91-1.66 12.18-12 22.15-24.27 23.27-12.14 1.5-24.49-6.08-28.61-17.62-4.63-11.86-.12-25.8 10.5-32.77 7.52-4.92 17.38-5.88 25.69-2.42 7.77 3.11 13.23 9.62 16.01 17.4 5.32-6.87 13.8-10.32 22.4-10.1 8.25-.07 15.45 3.28 21.98 8.05 1.86-6.67 5.57-12.57 11.32-16.53 9.06-6.39 21.73-6.65 31.01-.55Zm-22.64 2.4c6.34-2.22 13.56-1.59 19.29 1.93 7.13 4.28 11.43 12.68 10.61 20.98-.62 9.97-8.38 18.29-18.07 20.26-11.33 2.28-23.02-5.13-25.9-16.28-3.05-11.13 3.23-23.06 14.07-26.89Zm-70.58 15.77c-3.84-8.69-13.49-14.16-22.91-12.75-7.54 1.13-14.05 5.85-17.14 12.87-3.66 8.33-1.84 17.98 4.56 24.43 6.05 6.06 15.65 8.07 23.59 4.82 6.8-2.63 12.26-9.01 13.4-16.26.51-4.56.7-8.92-1.5-13.11Z" fill="#000"/></g><g transform="translate(-161 -83)"><path d="M530.09 122.75c16.71 3.68 32.01 12.55 42.13 26.53 8.73-5.26 17.93-9.56 27.79-12.22 11.91-3.48 24.73-4.15 37.02-2.74 15.33 2.05 30.6 9.04 40.09 21.61 6.83 8.89 9.87 19.93 9.32 31.09 6.46.79 12.81 1.37 19.08 3.28 13.4 3.82 26.16 11.41 34.34 22.9 6.23 8.69 9.57 20.23 7.65 30.85 20.28-6.52 43.6-2.83 61 9.41 8.25 5.96 15.14 13.78 18.94 23.31 4.08 9.94 4.09 21.39-.19 31.27-2.85 6.78-7.47 12.36-13.04 17.09 17.35 1.09 32.94 10.74 42.97 24.7 1.12 1.77 1.58 3.94-.11 5.53-1.64.41-3.49-.84-5.03-1.37-3.48-1.67-6.92-1.37-10.66-1.4 4.13 4.81 7.81 9.87 10.24 15.77 7.72 17.81 5.36 39.26-6.77 54.52-7.42 9.3-17.77 15.25-29.62 16.73 6.8 17.81 1.51 40.98-13.95 52.71-1.81 1.32-4.15 2.71-5.64.14-5.41-11.48-14.71-21.9-26.34-27.27-1.42 4.33-3.22 8.39-6.4 11.74-14.41 15.46-42.91 13.55-55.11-3.75-5.02-6.97-5.99-15.7-3.06-23.74-5.97 3.75-11.67 7.6-16.07 13.22-1.93 2.4-3.57 2.27-6.05.68C667.69 452.9 659 435.06 658.46 417c-.98-17.38 4.61-34.27 14.4-48.52-15.4 1.93-30.15-7.98-35.3-22.37-7.46 4.48-15.8 7.25-24.56 7.28-10.85.31-21.21-3.25-30.2-9.17-12.21-7.99-21.87-20.19-28.37-33.15-2.56 3.24-5.05 6.47-7.96 9.4-14.34 14.66-34.94 23.19-55.47 22.41-13.29-.39-26.01-4.64-36.94-12.17 2.85 8.27 7.11 16.68 13.36 22.9 1.21 1.21 1.96 2.38 1.36 4.15-1.5 2.12-4.28 3.53-6.54 4.68-15.12 7.42-32.8 9.36-49.23 5.83-14.71-3.02-28.43-10.26-39.31-20.59-8.31 12.74-22.96 17.99-37.71 17.38-7.47 15.9-14 32.09-18.38 49.13-1.11 3.71-1.66 7.69-3.14 11.27-.8 1.86-2.65 2.3-4.48 1.67-9.44-3.34-15.97-11.36-19.7-20.4-4.35-10.39-5.11-22.6-2.06-33.43-11.03.64-21.38-3.62-29.05-11.49-10.48-10.89-14.98-25.97-15.4-40.81-.32-16.29 4.44-33 13.92-46.31 1.53-1.82 2.61-3.99 5.4-3.29 1.9 1.24 1.44 3.65 1.95 5.63.6 4.41 3.04 8.23 5.26 11.98 5.36-15.55 18.59-29.35 35.79-30.29-.6-3.26-1.32-6.38-1.19-9.73.58-14.8 8.14-29.19 19.33-38.75 7.35-6.35 16.18-10.21 25.96-10.48 1.22-14.22 8.93-27.7 18.94-37.63 10.32-10.1 24.33-17.69 38.87-18.89a41.192 41.192 0 0 1 28.48 7.64c23.83-24.03 60.44-35.44 93.6-28.13Z" fill="#000"/><path d="M518.82 126.74c16.43 1.72 32.64 8.15 44.08 20.37 2.5 2.53 4.28 5.64 6.68 8.23 1.85 1.27 3.43.4 5.11-.6 19.37-12.64 44.69-18.74 67.46-13.61 10.88 2.52 21.15 7.62 28.57 16.13 7.12 8.01 10.71 19.08 9.95 29.73-.03 1.54-.41 3.48.3 4.89 1.14 1.23 2.47 1.08 4.01 1.2 13.65.11 27.54 4.32 38.73 12.19 8.91 6.44 16.16 15.64 17.94 26.71.47 5.48.87 11.1-1.52 16.19-.92 2.48 1.16 4.36 3.62 3.38 18.8-7.93 41.52-5.97 58.78 4.89 8.51 5.38 15.75 13 19.51 22.44 3.31 8.04 3.62 17.51.42 25.64-2.55 6.75-7.31 12.51-13 16.86-2.47 1.89-5.4 3.44-7.62 5.58-1.47 1.65-.1 4.51 2.14 4.31 5.43.04 10.58-.63 16.01.44 10.82 2.05 20.19 7.86 27.76 15.71-3.64.05-8.7-.64-11.8 1.58-1.83 1.18-2.46 3.3-1.14 5.14 2.51 3.2 5.57 5.81 7.67 9.35 7.16 10.77 9.08 23.91 6.79 36.51-2.27 10.83-8.49 21.3-17.8 27.51-6.4 4.23-13.68 6.91-21.46 6.11-2.26-.44-2.8 2.6-1.9 4.19 8.02 15.86 4.37 37.37-9.18 49.11-4.61-8.44-10.75-15.63-18.26-21.61-3.31-2.59-7.21-4.02-10.67-6.29-1.45-3.86-.42-8.49-4.83-10.46-.92.46-1.83.92-2.75 1.37.12 3.88 1.76 7.24 1.47 11.08-.31 6.39-4.21 11.98-9.38 15.52-11.76 8.03-29.34 6.47-39.41-3.63-4.88-4.87-7.45-11.88-5.75-18.7.71-3.33 2.63-5.71 4.37-8.52 1.04-1.23-.11-3.04-.41-4.38-2.02.14-3.97.2-5.86 1.01-8.44 3.3-15.98 9.13-22.02 15.83-10.14-7.26-16.9-18.28-19.74-30.34-5.1-21.18 2.06-44.77 15.97-61.2 1.35-1.76 2.66-3.27 1.35-5.5-1.47-1.99-4.06-.74-5.87-.01-9.94 4.66-22.3-.1-29.02-8.14-3.53-3.95-4.98-8.58-6.79-13.42-2.27-.25-3.86-.41-5.81 1-7.05 4.5-15.08 7.24-23.52 7.05-10.64.17-20.81-4.14-29.21-10.43-11.41-8.58-20.12-21.09-25.71-34.13-.75-.5-1.51-1-2.26-1.5-1.39 1.09-2.72 2.11-3.63 3.67-12.16 19.48-35.12 32.42-58.19 31.75-13.85.42-27.87-4.64-38.56-13.4-1.28-.9-2.62-2.16-4.3-1.41-2.21.99-2.53 3.76-2.02 5.9 1.84 10.25 7.19 20.06 13.69 28.1-20.36 11.05-46.31 10.37-66.67-.3-15.31-7.82-27.74-20.91-34.02-36.99-4.41-11.25-5.58-24.08-2.7-35.84.36-1.89.9-3.55.04-5.4-1.93-1.13-3.86-1.09-4.84 1.14-6.98 22.64.48 47.21 15.88 64.63-4.99 8.5-13.84 13.82-23.48 15.26-7.57.79-15.12.49-22.24-2.45-4.52-1.53-8.18-4.32-12.22-6.72-2.97-1.22-5.42 2.73-2.76 4.76 6.06 5.12 14.04 8.32 21.76 9.93-8.84 18.18-16.05 36.98-20.71 56.68-7.97-3.87-12.48-11.22-15.33-19.32-2.8-8.69-3.58-18.63-.34-27.32.71-2.75 2.58-5.01-.3-7.21-4.02-.47-7.79 1.3-11.9.32-10.25-1.27-18.56-7.75-23.94-16.33-7.26-11.66-9.71-26.43-7.92-39.94.98-10.58 4.77-20.95 10.26-30.02 1.87 5.25 4.63 11.05 8.88 14.78 1.42 1.32 3.26 1.3 4.92.45 1.15-2.48 1.03-5.45 2.1-7.99 4.54-10.33 12.28-19.03 23.23-22.6 3.97-1.31 7.5-.4 11.51-.54 1.15-.37 1.7-1.91 2.41-2.81-4.9-11.28-2.46-23.23 3.22-33.65 5.51-9.91 14.74-18.84 25.86-21.95 3.83-1.17 7.52-.49 11.36-.93 2.07-.79 1.64-2.96 2.03-4.77 1.17-13.17 7.62-24.96 16.86-34.23 9.62-9.76 22.5-16.62 36.25-17.84 8.41-.68 16.41 1.32 23.34 6.16-8.99 11.33-15.94 23.4-17.95 37.96-.17 2.21 1.62 3.57 3.72 3.25 2.25-1.21 2.01-3.59 2.64-5.8 2.24-11.21 7.66-21.17 14.82-29.98 19.93-23.88 52.37-36.71 83.24-33.78Z" fill="rgba(185, 160, 95, 1)"/><path d="M718.48 576.52c1.4-.88 2.58-.3 4.05-.01 5.33 1.51 10.98 1.92 16.48 2.3 2.37.04 4.73-.21 7.09-.17 2.03.84 1.99 2.43 1.99 4.34-.24 6.12-1.73 12.68-5.32 17.74-3.88 5.7-9.92 10-16.73 11.35-7.49 1.7-15.9-.39-21.76-5.36-1.65-1.5-3.18-3.81-1.46-5.88 3.65-5.02 7.47-10 10.67-15.33 1.76-2.9 2.88-6.33 4.99-8.98Z" fill="#000"/><path d="M721.51 581.95c6.8 1.28 13.63 2.25 20.56 2.45-.15 9.04-5.34 17.58-13.86 20.98-6.77 2.84-13.81 1.4-19.79-2.53 4.72-6.81 9.38-13.48 13.09-20.9Z" fill="rgba(185, 160, 95, 1)"/></g></g></svg>