<svg xmlns:dc="http://purl.org/dc/elements/1.1/" xmlns:cc="http://creativecommons.org/ns#" xmlns:rdf="http://www.w3.org/1999/02/22-rdf-syntax-ns#" xmlns:svg="http://www.w3.org/2000/svg" xmlns="http://www.w3.org/2000/svg" viewBox="0 0 762 762" fill="none"><metadata><rdf:RDF><cc:Work><dc:format>image/svg+xml</dc:format><dc:type rdf:resource="http://purl.org/dc/dcmitype/StillImage"/><dc:title>Adventurer</dc:title><dc:creator><cc:Agent><dc:title>Lisa Wischofsky</dc:title></cc:Agent></dc:creator><dc:source>https://www.instagram.com/lischis_adventures/</dc:source><cc:license rdf:resource="https://creativecommons.org/licenses/by/4.0/"/></cc:Work><cc:License rdf:about="https://creativecommons.org/licenses/by/4.0/"><cc:permits rdf:resource="https://creativecommons.org/ns#Reproduction"/><cc:permits rdf:resource="https://creativecommons.org/ns#Distribution"/><cc:permits rdf:resource="https://creativecommons.org/ns#DerivativeWorks"/><cc:requires rdf:resource="https://creativecommons.org/ns#Notice"/><cc:requires rdf:resource="https://creativecommons.org/ns#Attribution"/></cc:License></rdf:RDF></metadata><mask id="avatarsRadiusMask"><rect width="762" height="762" rx="0" ry="0" x="0" y="0" fill="#fff"/></mask><g mask="url(#avatarsRadiusMask)"><path d="M396.01 164.85c37.82 4.9 74.21 19.64 104.8 42.39 6.15 4.84 12.48 9.33 18.02 14.92 23.77 21.98 42.73 49.02 55.13 78.95 9.35 22.31 14.72 46.04 16.64 70.14 6.62.81 13.05 2.14 19.12 5 15.54 6.93 27.08 20.94 31.78 37.21 2.63 9.56 3.56 19.75 1.72 29.55-2.96 18.76-13.72 36.13-29.37 46.92-10.94 7.65-24.49 12.03-37.86 11.68-5.13-.05-10.04-1.6-15.13-1.79-1.85 2.17-3.23 4.84-4.76 7.25-18.66 29.62-44.57 54.51-74.64 72.4-28.1 16.73-59.9 27.16-92.46 30.32-11.08.7-21.87 2.05-32.98.74-51.69-2.3-102.07-23.44-140.15-58.43-29.03-26.55-50.84-60.83-62.54-98.39-7.09-22.85-10.62-46.78-10.07-70.71.52-40.34 12.53-80.58 33.94-114.76 19.1-30.81 45.91-56.58 77.2-74.83 29.63-17.28 63.35-27.68 97.59-29.87 14.66-1.47 29.44-.37 44.02 1.31Z" fill="#000"/><path d="M363 169.06c48.47-1.39 97.32 14.7 135.81 44.12 6.55 4.06 11.72 9.49 17.36 14.64 24.33 22.63 43.2 50.95 54.93 82.02 7.43 19.61 11.86 40.2 13.56 61.09-8.89.74-17.34 2.34-25.38 6.38-2.19 1.03-1.89 4.95.68 5.23 2.35.23 4.98-1.51 7.24-2.2 14.62-5.37 31.32-4.35 44.78 3.68 11.69 6.78 20.09 18.16 23.89 31.06 2.6 8.25 2.68 17.41 1.76 25.95-2.5 17.35-12.35 33.73-26.73 43.81-15.71 11.33-37.17 14.64-54.93 6.2-3.17-1.43-5.94-3.58-9.08-5.05-2.95-1.09-4.88 2.79-2.7 4.75 3.17 2.76 7.34 4.52 11 6.56-20.14 34.15-49.45 62.7-84.41 81.47-30.2 16.31-64.44 25.53-98.78 26.15-27.63.72-55.33-4.04-81.21-13.72-30.32-11.24-57.84-29.43-80.37-52.6-22.67-23.37-39.92-51.88-50.2-82.77-14.96-44.64-14.91-94.01.27-138.59 11.05-33.06 30.28-63.21 55.37-87.39 29.67-28.73 67.65-48.54 108.13-56.67 12.8-2.52 25.94-4.24 39.01-4.12Z" fill="rgba(242, 211, 177, 1)"/><path d="M605.03 404.4c2.63-.1 3.44 3.8 1.36 4.98-3.69 1.83-7.82 2.77-11.64 4.35-5.82 2.04-11.28 4.76-16.68 7.72 4.29 2.34 8.86 4.74 12.71 7.76 2.58 2.09 4.85 4.35 5.33 7.8-.26 3.59-2.73 6.55-5.45 8.69-5.86 4.66-13.92 7.18-20.79 10.26-1.75.62-4.43 1.99-5.59-.26-1.02-1.74-.06-3.11 1.57-3.87 6.65-3.3 14.86-5.62 20.79-10.16 1.37-1.14 3.39-2.74 3.61-4.62-4.07-5.63-12.42-8.59-18.23-12.09-2.34-1.72-2.29-4.24-.16-6.13 7.27-5.64 16.98-9.26 25.57-12.38 2.42-.83 5.03-1.95 7.6-2.05Z" fill="#000"/><g transform="translate(-161 -83)"><path d="M561.861 423.28c1.79.47 1.92 1.91 1.98 3.5.02 6.73-.89 13.42-.75 20.17 8.34.57 16.09 2.01 24.09 4.41 3.09-7.1 5.83-14.35 8.73-21.52.94-1.82 1.46-4.16 4.03-3.81 2.35.23 2.58 3 1.77 4.75-2.95 7.55-6.03 15.07-9.09 22.57 6.75 2.72 12.58 6.27 18.22 10.84 4.88-4.58 9.61-9.35 14.61-13.8 1.61-1.56 3.31-1.05 5.34-1.14-.17 1.98.27 3.67-1.36 5.17-4.75 4.73-9.71 9.27-14.6 13.87 3.57 5.14 6.56 10.24 6.7 16.71.65 9.87-4.85 18.25-12.06 24.44-11.14 9.42-26.17 14.24-40.45 16.09-16.6 1.82-33.82.84-49.57-5.05-9.18-3.45-18.18-8.76-24.39-16.49-5.05-6.42-7.79-14.69-5.7-22.8 2.47-9.89 9.93-17.25 18.37-22.44 14.79-8.93 32.37-12.08 49.46-12.05.24-6.57.54-13.17 1.11-19.72.06-1.98 1.23-4.28 3.56-3.7ZM371.979 441.39c1.93-.19 2.61 2.2 3.14 3.63 1.19 4.97 1.31 10.2 2.17 15.24 8.52-.82 17.28-.66 25.73.76 10.86 2.02 22.05 6.02 30.13 13.83 4.96 4.66 8.49 11.22 8.27 18.15-.46 7.42-4.43 13.69-9.92 18.48-8.9 7.86-21.44 11.98-33.01 13.71-15.71 2.23-32.97.68-47.39-6.25-8.49-4.18-17-11.26-19.21-20.87-1.28-5.19-.03-9.95 1.98-14.74-3.86-3.53-7.69-7.1-11.45-10.73-.82-1.01-2.4-2.18-2-3.61.02-2.54 3.45-3.08 4.99-1.37 4 3.5 7.71 7.34 11.68 10.88 3.38-3.65 6.97-6.57 11.16-9.24-2.74-6.13-5.52-12.24-8.25-18.36-1.11-2.21-.85-4.39-.69-6.76 1.24.21 2.62.25 3.78.76 1.18 1.19 1.85 2.96 2.57 4.46 2.5 5.77 5.18 11.45 7.58 17.25 5.99-2.57 11.89-4.32 18.29-5.56-.39-5.41-1.7-10.7-2.04-16.11.01-1.53.39-4.08 2.49-3.55Z" fill="#000"/><path d="M539.5 453.67c14.63-2.22 30-1.53 44.23 2.67 9.51 2.94 19.21 7.45 25.93 15.02 4.3 4.85 7.04 11.05 5.99 17.64-1.05 7.24-5.76 12.91-11.35 17.3-8.81 6.84-20.25 10.76-31.11 12.82-15.73 2.81-32.35 2.12-47.64-2.63-9.43-3.02-19.09-7.77-25.56-15.48-4.32-5.09-6.88-12.41-4.86-19 1.56-6.56 6.67-12 11.93-15.92 9.35-6.79 21.12-10.62 32.44-12.42ZM371.53 466.92c15.61-3 32.89-1.76 47.4 5.05 6.37 3.03 13.4 8.25 15.73 15.18 2.07 5.65.38 11.7-3.31 16.24-4.63 5.75-11.74 9.78-18.58 12.34-12.6 4.53-26.55 5.97-39.78 3.81-9.02-1.36-18.44-4.32-25.91-9.68-5.22-3.87-9.62-9.04-9.9-15.83-.19-6.6 3.87-12.11 8.74-16.14 7.19-5.81 16.63-9.2 25.61-10.97Z" fill="#fff"/><path d="M592.24 469.18c2.15-1.56 4.62-.31 5.94 1.67 1.83 3.14 2.15 6.61 2.49 10.16.43 5.18.88 10.72-.25 15.84-.28 1.37-.95 2.62-2.03 3.53-2.92 1.46-6.85-1.24-7.61-4.16-1.98-6.22-1.92-13.23-1.41-19.69.41-2.37.65-5.91 2.87-7.35ZM413.31 476.33c2.36-1.35 5.2-.18 5.96 2.42 1.79 5.09 1.92 10.91 2.05 16.26-.15 3.13-.37 8.05-3.81 9.46-2.59.94-4.59-1.38-5.4-3.58-1.88-5.25-1.76-11.39-1.51-16.9.25-2.35.45-6.27 2.71-7.66Z" fill="#000"/></g><g transform="translate(-161 -83)"><g fill="#000"><path d="M606.99 397.59c1.52-.4 3.26.6 4.74.97-.11 1.2-.17 2.45-.47 3.61-1.58 1.49-3.57 2.61-5.39 3.78-22.77 14.6-46.18 28.4-70.32 40.63-11.53 5.73-23.34 11.3-35.55 15.44-6.86 2.19-13.72 4.28-21.01 3.44-3.31-.31-6.16-3.02-6.23-6.43-.04-4.22 3-8.6 5.08-12.15 1.28-2.68 4.5-3.04 6.99-4.12 37.24-13.75 74.44-27.65 111.67-41.45 3.48-1.23 6.91-2.81 10.49-3.72ZM338.99 432.64c29.88 5.94 60.13 12.03 90.02 18.02 2.27.32 4.6.07 6.85.45 2.45 2.3 3.64 6.21 4.54 9.37 1.17 4.09-.15 8.77-3.91 11.01-4 2.62-9.91 2.16-14.5 1.89-8.74-1-17.41-3.8-25.68-6.74-19.61-7.16-38.69-16.93-56.97-26.97-1.67-.96-3.68-1.94-4.79-3.55-.38-2.88 1.85-4.16 4.44-3.48Z"/></g></g><g transform="translate(-161 -83)"><path d="M505.05 609.63c4.67 1.28 8.87 4.71 12.16 8.17 1.37 1.66 3.56 3.88 3.05 6.2-.46 2.46-3.75 3.02-5.05.83-2.59-3.53-5.52-6.54-9.45-8.58-2.27-1.46-6.72-.53-6.61-4.14.48-3.02 3.52-2.9 5.9-2.48ZM498 622.96c4.97 1.51 8.45 5.86 8.78 11.06 1.3 13.18-9.39 25.8-21.75 29.19-12.46 3.66-28.87-1.1-35.07-13.17-2.47-4.21-3.73-9.26-1.94-13.96 1.78-4.05 5.82-5.66 9.97-6.1 5.09-.59 9.55 1.11 13.9 3.54 3.82-4.04 7.74-7.59 12.91-9.81 4.07-1.76 8.96-1.98 13.2-.75Z" fill="#000"/><path d="M498.91 630.09c3.25 3.38 2.26 9.5.47 13.39-4.28 10.05-15.11 16.13-25.9 14.99-7.3-1.19-14.31-4.11-18.2-10.76-1.43-2.56-3.43-6.58-2.01-9.44 2.28-3.76 8.77-3.17 12.28-1.81 2.75.77 5.53 4.09 8.39 3.59 3.67-3.56 6.48-7.47 11.18-9.88 4.32-2.4 9.63-3.3 13.79-.08Z" fill="#8F2E45"/></g><g transform="translate(-161 -83)"/><g transform="translate(-161 -83)"><path d="M459.18 60.01c1.27-.39 2.6-.59 3.99-.59 2.03 3.79 3.18 7.7 4.81 11.67 3.8 9.46 8.7 18.33 13.98 27.03 9.17 14.87 19.17 29.04 30.84 42.07 5.67 6.37 11.82 12.28 17.4 18.74 12.58-18.33 30.15-32.56 50.58-41.28 11.65-4.84 23.97-8.84 36.31-11.46 2.31-.25 5.3-1.43 6.84.98 1.26 1.88-1.11 4.99-2.04 6.69-6.15 9.37-8.98 20.1-10.18 31.14-.64 6.45.63 12.52 2.02 18.77 15.81.63 31.61 2.49 47.25 4.89 9.55 1.37 18.29 4.27 28.05 3.9 21.29 1.03 42.84-.42 63.98-2.98 4.32-.39 8.7-1.1 13.04-1.01 2.56.12 4.37 1.76 4.41 4.38.1 5.17-.3 10.41-.64 15.56-.83 9.42-4.03 18.16-9.12 26.09 8.72 3.55 17.5 6.98 26.27 10.39 18.95 7.15 37.27 14.24 56.97 19.1 2.34.39 3.77 2.84 2.02 4.67-10.14 8.97-20.42 17.76-30.87 26.38-8.99 7.42-18.18 16.03-28.61 21.28 8.01 29.69 10.18 61.19 7.77 91.78-2.09 23.67-6.72 47.09-15.94 69.07-1.09 2.5-2.08 5.23-3.69 7.44-.7 1.02-2.28 1.19-3.37.79-3.1-1.04-5.96-2.72-9.11-3.68-12.41-3.86-26.62-3-38.16 3.16-4.56 2.3-6.8 6.12-10.37 9.63-5.34 5.29-11.04 10.4-16.88 15.13-2.83 2.12-6.03 4.8-9.78 4.52-1.47-.82-2.36-1.36-1.95-3.24.96-4.88 2.67-9.57 3.43-14.52 4.5-26.17 2.29-53.36-1.46-79.49-1.76-10.54-4.11-23.06-12.4-30.58-9.52-9.09-18.15-18.91-27.24-28.4-2.52 20.64-10.19 41.03-20.04 59.26-8.7 16.01-19.82 31.37-33.42 43.59-1.77 1.52-3.72 3.27-5.93 4.1-2.04.31-5.9.06-5.26-2.93.53-3.73 1.87-7.3 2.47-11.03 2.44-14.45 2.74-29.42 1.66-44.02-.85-8.99-1.76-17.85-3.99-26.63-8.87 12.19-15.03 26.42-18.27 41.13-2.72 12.67-3.46 25.58.79 38.02-1.49 1.09-1.93 2.73-4.09 2.03-22.8-7.7-41.14-23.1-55.44-42.16-8.82-2.18-17.29-5.49-25.12-10.1-12.71-7.28-22.16-18.66-30.06-30.77-2.24 7.06-3.88 14.16-4.95 21.5-2.88 20.08-2.21 41.62 4.25 60.99.47 1.39.67 2.78.61 4.16-2.24 2.09-5.2 2.54-8.02 1.34-16.95-6.34-31.39-17.23-43.2-30.84-9.41-10.19-16.62-21.89-22.87-34.22-3.88 3.46-7.75 6.9-11.37 10.64-16.88 17.49-31.5 37.27-43.79 58.22-6.18 10.75-12.06 22.11-15.83 33.94-.83 2.1-1.01 3.99-3.42 4.87-3.03-.6-3.4-3.33-4.45-5.76-4.08-11.71-6.53-24.02-7.71-36.36-2.34-20.77-1.46-41.97 2.1-62.55-12.11 2.34-24.5 5.49-35.64 10.9-3.34 1.52-6.23 3.81-9.48 5.46-3.31-.27-3.49-3.1-3.16-5.8 3.27-20.95 10.36-41.54 19.82-60.49 6.63-13.17 14.67-25.9 24.28-37.11-15.77-10.89-24.48-27.71-29.03-45.92-.39-2.76-1.54-6.62 1.47-8.35 4.01-.88 8.67.37 12.75.56 15.81.91 32.24-.42 47.37-5.32 7.37-2.26 14.61-4.58 21.42-8.26-16.57-22.46-28.08-48.02-34.97-75.02-1.26-5.24-3-10.73-3.16-16.12.03-2.43.57-4.77 3.35-5.15 3.11.11 6.14 2.91 8.93 4.21 20.1 10.45 41.34 18.97 63.29 24.65 15.2 3.81 30.95 5.72 46.49 7.55-1.73-12.81-.74-25.71 2.34-38.24 3.34-13.41 8.02-26.45 13.91-38.94 4.14-9.07 9.09-17.68 13.44-26.65 1.1-2.15 2.18-4.57 3.78-6.4Z" fill="#000"/><path d="M460.81 68.77c6.63 17.79 16.53 33.63 27.21 49.23 6.14 9.06 13.01 17.52 20.33 25.65 5.83 6.52 12.34 12.3 17.97 19.01 1.8 1.73 2.88 4.3 5.79 3.65 2.33-2.44 3.82-5.64 5.92-8.3 7.46-9.76 16.56-18.41 26.81-25.2 15.61-10.31 33.07-15.9 51.06-20.5-9.67 16.67-12.82 38.51-5.94 56.76 1.5.67 3.42.3 5.04.29 8.31-.19 17.03 1.28 25.01 2.07 12.07 1.56 24.08 3.45 35.99 5.93 4.04.95 7.92.33 12 .4 16.08.99 31.96.57 48.01-.54 9.65-.81 19.23-2.28 28.88-2.98-.4 4.58-.66 9.16-.89 13.75-.57 9.09-4.13 17.01-8.84 24.65-9.95-3.92-20.03-7.46-30.35-10.33-1.88-.41-3.53-1.07-5.15.39-.27 1.08-.24 2.26-.32 3.38 5.68 1.97 11.5 3.45 17.15 5.51 17.64 6.4 34.92 13.78 52.48 20.37 16.11 6.07 32.41 12.26 49.08 16.6-8.65 7.57-17.55 14.81-26.48 22.05-8.56 6.86-16.99 14.92-26.67 20.11-2.63-8.03-5.46-15.93-9.13-23.56-.75-1.39-1.19-2.71-2.86-3.18-2.07-.95-4.06 2.13-3.03 3.98 1.63 4.35 3.84 8.46 5.41 12.85 11.57 30.67 15.21 64.8 13.86 97.4-1.54 27.51-6.56 55.64-18.01 80.87-13.45-6.22-28.93-7-42.98-2.32 7.34-9.79 13.54-20.52 18.79-31.56 1.15 3.79 2.32 7.83 2.47 11.79.29 2.14-.36 4.09 1.46 5.63 2.16.35 3.62-.36 3.86-2.62.58-6.07-1.27-12.58-3.46-18.2-.86-1.86-1.98-4.76-4.27-5.13-2.35-.26-3.18 1.41-4.08 3.19-7.36 16.85-17.73 32.49-29.48 46.6-6.48 7.47-13.83 13.75-21.24 20.14 1.94-8.24 3.31-16.59 3.82-25.05.38-7.88 1.16-15.65.61-23.55-1.07-19.67-2.53-40.19-8.2-59.14 8.07 6.69 16.73 12.52 25.53 18.2 2.07 1.18 4.37 3.83 6.91 3 2.16-1.11 3.07-4.08 3.66-6.26 4.35-18.69 5.01-38.05 2.07-57.01-1.96-13.12-4.71-26.91-10.35-38.98-1.18-2.31-2.33-5.18-4.33-6.89-1.9-1.37-4.28-.35-4.27 2.11.97 3.67 3.47 6.87 4.78 10.46 5.27 13.1 7.73 27.57 9.42 41.53 1.94 16.19.9 32.52-2.66 48.4-11.12-6.87-21.82-14.32-31.73-22.87-13.22-11.6-24.77-24.86-37.19-37.83-7.13-8.17-14.6-16.5-20.11-25.87-4.44-7.38-9.15-14.44-12.68-22.34-2.61-5.93-5.58-11.66-8.62-17.37-1.85-3.36-2.85-7.11-4.71-10.44-2.01-.44-4.02-.12-3.96 2.34.42 4.41 3.13 8.78 5 12.76 4.66 8.54 7.91 17.69 12.82 26.09 2.83 4.84 5.78 9.62 8.71 14.4 4.47 7.23 9.85 13.33 15.3 19.82-1.6 21.82-9.75 43.62-20.09 62.76-8.33 15.16-18.83 29.95-31.87 41.42 3.79-19.38 3.78-38.92 1.68-58.49-1.38-8.49-2.16-18.04-5.6-25.96-2.71-2.85-4.25.39-6.01 2.31-16.95 22.24-26.64 51.96-22.47 79.93-11.59-4.84-22.2-11.81-31.34-20.4-19.38-18.07-32.55-42.29-39.67-67.64-4.46-15.65-6.3-31.8-6.42-48.04.5-14.2 1.81-28.17 6.08-41.8 1.29-4.43 2.16-8.72 4.05-12.98 3.38-7.73 8.07-15 13.1-21.75 9.31-12.18 20.58-23.1 33.36-31.59 7.03-4.77 14.53-8.37 22.74-10.61-4.96 12.95-5.62 27.07-3.96 40.73.28 1.69.3 3.47 1.71 4.67 1.68 1.69 4.84-.29 4.36-2.6-1.74-12.22-1.74-24.37 1.77-36.29.9-3.1 2.62-5.84 3.64-8.88.29-2.67-2.93-3.74-5.05-3.68-10.89 1.27-21.58 7.14-30.54 13.23-12.97 9.12-24.43 20.43-33.86 33.17-8.13 10.93-14.58 23.02-17.51 36.4-11.93 45.6-4.61 96.07 20.61 135.98-11.63-3.97-23.15-10.07-31.74-19.01-5.26-5.42-10.3-11.4-13.98-18.03-.97-1.68-1.85-3.55-3.06-5.06-2.42-.35-4.51.07-5.36 2.59-5.53 14.66-7.77 30.92-8.4 46.51-.06 14.01 1.35 28.4 5.55 41.82-13.18-5.29-25.22-13.25-34.98-23.59-18.9-18.66-31.75-43.75-38.62-69.23-3.14-12.75-4.91-25.88-5.43-38.99-.84-10.37-1.1-20.51.93-30.78.27-2.31 1.27-4.27-.88-6.01-1.96-1.53-3.7-.1-4.96 1.53-6.5 8.39-11.89 17.77-17.05 27.03-6.57 11.7-11.12 24.68-12.88 37.99-.08 2.08-.72 5.72 1.37 6.97 1.12 1.19 3.83.08 3.5-1.72.64-10.24 3.6-20.41 7.66-29.79 4.54-10.05 10.64-19.77 16.35-29.18-1.03 14.63.23 29.49 1.95 44.03 2.01 16.33 6.55 31.94 13.22 46.95-19.72 16.63-36.28 37.99-50.41 59.47-8.4 13.18-16.18 27.14-21.86 41.72-3.98-13.01-6.09-26.65-6.8-40.22-1.09-15.57-.3-31.34 2.05-46.77 1.85-11.05 4.54-22.68 9.67-32.72.58-1.34 1.59-3 1.33-4.49-.09-1.58-1.6-2.35-3.04-2.35-1.86.94-2.72 2.73-3.65 4.48-3.7 7.48-5.98 15.25-7.97 23.32-14.9 2.49-29.97 6.79-43.24 14.14 2.3-13.95 6.71-27.63 11.98-40.73 6.39-15.29 14.4-30.21 24.37-43.48 6.51-8.55 14.13-16.93 23.09-22.97 2.84-1.97 6.11-3.18 8.98-5.1 1.39-1.12 1.25-3.65-.53-4.36-1.2-.81-3.15.1-4.4.54-8.32 3.78-15.43 10.11-21.85 16.5-15.14-10.16-23.54-26.84-27.5-44.2 17.85 1.41 35.72 1.48 53.04-3.62 9.46-2.9 19.55-5.99 28.1-10.99 5.91 6.39 12.61 11.97 20.08 16.45 2.17 1.23 4.21 2.31 6.81 1.72 1.82-.83 1.35-2.69 1.4-4.36-6.86-2.58-12.98-7.33-18.44-12.15-9.73-8.73-16.41-20-22.75-31.26-11.1-19.9-18.12-41.26-22.97-63.45 24.57 13.2 51.02 23.7 78.37 29.43 16.34 3.2 32.79 4.75 49.24 6.98 13.73 2.33 27.67 4.45 41.16 7.94 6.29 1.55 12.59 3.23 18.93 4.55 2.95-.12 2.51-4.67.06-5.22-3.86-1.38-8.01-1.95-11.94-3.13-17.41-4.92-35.57-8.09-53.47-10.74-2.26-12.43-1.09-24.96 1.81-37.17 3.58-14.48 8.81-28.49 15.35-41.88 3.32-6.93 7.04-13.61 10.48-20.47.47-.89.93-1.78 1.4-2.67Z" fill="rgba(185, 160, 95, 1)"/></g></g></svg>