<svg xmlns:dc="http://purl.org/dc/elements/1.1/" xmlns:cc="http://creativecommons.org/ns#" xmlns:rdf="http://www.w3.org/1999/02/22-rdf-syntax-ns#" xmlns:svg="http://www.w3.org/2000/svg" xmlns="http://www.w3.org/2000/svg" viewBox="0 0 762 762" fill="none"><metadata><rdf:RDF><cc:Work><dc:format>image/svg+xml</dc:format><dc:type rdf:resource="http://purl.org/dc/dcmitype/StillImage"/><dc:title>Adventurer</dc:title><dc:creator><cc:Agent><dc:title>Lisa Wischofsky</dc:title></cc:Agent></dc:creator><dc:source>https://www.instagram.com/lischis_adventures/</dc:source><cc:license rdf:resource="https://creativecommons.org/licenses/by/4.0/"/></cc:Work><cc:License rdf:about="https://creativecommons.org/licenses/by/4.0/"><cc:permits rdf:resource="https://creativecommons.org/ns#Reproduction"/><cc:permits rdf:resource="https://creativecommons.org/ns#Distribution"/><cc:permits rdf:resource="https://creativecommons.org/ns#DerivativeWorks"/><cc:requires rdf:resource="https://creativecommons.org/ns#Notice"/><cc:requires rdf:resource="https://creativecommons.org/ns#Attribution"/></cc:License></rdf:RDF></metadata><mask id="avatarsRadiusMask"><rect width="762" height="762" rx="0" ry="0" x="0" y="0" fill="#fff"/></mask><g mask="url(#avatarsRadiusMask)"><path d="M396.01 164.85c37.82 4.9 74.21 19.64 104.8 42.39 6.15 4.84 12.48 9.33 18.02 14.92 23.77 21.98 42.73 49.02 55.13 78.95 9.35 22.31 14.72 46.04 16.64 70.14 6.62.81 13.05 2.14 19.12 5 15.54 6.93 27.08 20.94 31.78 37.21 2.63 9.56 3.56 19.75 1.72 29.55-2.96 18.76-13.72 36.13-29.37 46.92-10.94 7.65-24.49 12.03-37.86 11.68-5.13-.05-10.04-1.6-15.13-1.79-1.85 2.17-3.23 4.84-4.76 7.25-18.66 29.62-44.57 54.51-74.64 72.4-28.1 16.73-59.9 27.16-92.46 30.32-11.08.7-21.87 2.05-32.98.74-51.69-2.3-102.07-23.44-140.15-58.43-29.03-26.55-50.84-60.83-62.54-98.39-7.09-22.85-10.62-46.78-10.07-70.71.52-40.34 12.53-80.58 33.94-114.76 19.1-30.81 45.91-56.58 77.2-74.83 29.63-17.28 63.35-27.68 97.59-29.87 14.66-1.47 29.44-.37 44.02 1.31Z" fill="#000"/><path d="M363 169.06c48.47-1.39 97.32 14.7 135.81 44.12 6.55 4.06 11.72 9.49 17.36 14.64 24.33 22.63 43.2 50.95 54.93 82.02 7.43 19.61 11.86 40.2 13.56 61.09-8.89.74-17.34 2.34-25.38 6.38-2.19 1.03-1.89 4.95.68 5.23 2.35.23 4.98-1.51 7.24-2.2 14.62-5.37 31.32-4.35 44.78 3.68 11.69 6.78 20.09 18.16 23.89 31.06 2.6 8.25 2.68 17.41 1.76 25.95-2.5 17.35-12.35 33.73-26.73 43.81-15.71 11.33-37.17 14.64-54.93 6.2-3.17-1.43-5.94-3.58-9.08-5.05-2.95-1.09-4.88 2.79-2.7 4.75 3.17 2.76 7.34 4.52 11 6.56-20.14 34.15-49.45 62.7-84.41 81.47-30.2 16.31-64.44 25.53-98.78 26.15-27.63.72-55.33-4.04-81.21-13.72-30.32-11.24-57.84-29.43-80.37-52.6-22.67-23.37-39.92-51.88-50.2-82.77-14.96-44.64-14.91-94.01.27-138.59 11.05-33.06 30.28-63.21 55.37-87.39 29.67-28.73 67.65-48.54 108.13-56.67 12.8-2.52 25.94-4.24 39.01-4.12Z" fill="rgba(242, 211, 177, 1)"/><path d="M605.03 404.4c2.63-.1 3.44 3.8 1.36 4.98-3.69 1.83-7.82 2.77-11.64 4.35-5.82 2.04-11.28 4.76-16.68 7.72 4.29 2.34 8.86 4.74 12.71 7.76 2.58 2.09 4.85 4.35 5.33 7.8-.26 3.59-2.73 6.55-5.45 8.69-5.86 4.66-13.92 7.18-20.79 10.26-1.75.62-4.43 1.99-5.59-.26-1.02-1.74-.06-3.11 1.57-3.87 6.65-3.3 14.86-5.62 20.79-10.16 1.37-1.14 3.39-2.74 3.61-4.62-4.07-5.63-12.42-8.59-18.23-12.09-2.34-1.72-2.29-4.24-.16-6.13 7.27-5.64 16.98-9.26 25.57-12.38 2.42-.83 5.03-1.95 7.6-2.05Z" fill="#000"/><g transform="translate(-161 -83)"><path d="M587.369 431.61c12.06 6.36 21.92 16.48 27.94 28.71 5.58-3.45 11.26-6.72 16.83-10.19 1.56-.93 3.14-1.94 4.89-2.46 1.93.56 2.77 1.31 2.72 3.44-.47 1.3-1.75 2-2.83 2.76-6.46 3.95-13.07 7.67-19.41 11.81 6.07 14.16 5.97 31.18.81 45.61-5.25 14.83-16.12 27.57-29.9 35.15-13.07 7.36-28.89 9.8-43.59 7.01-17.87-3.24-34.06-14.37-43.5-29.88-6.26-10.02-9.68-21.74-9.64-33.57-.39-16.27 5.85-32.52 16.82-44.51 9.47-10.42 22.53-17.95 36.46-20.29 14.28-2.79 29.56-.38 42.4 6.41Z" fill="#000"/><path d="M549.2 430.27c14.66-1.79 29.31 1.59 41.46 10.02 11.31 7.71 19.81 19.52 23.46 32.72 3.93 13.37 2.78 28.27-3.06 40.93-6.21 13.86-18.05 25.26-32.25 30.69-9.99 4.03-21.2 5.35-31.81 3.41-16.4-2.64-31.48-12.62-40.35-26.67-5.6-8.78-8.75-18.97-9.37-29.35-.6-14.45 4.24-29.14 13.41-40.34 9.45-11.74 23.58-19.52 38.51-21.41Z" fill="#fff"/><path d="M414.691 454.33c11.57 6.69 20.45 17.75 24.54 30.46 2.68 8.02 3.17 16.86 2.07 25.21-2.04 13.95-9.65 26.85-20.85 35.42-11.38 8.76-26.19 12.83-40.44 10.89-15.79-1.82-30.36-11-39.03-24.29-5.54-8.33-8.47-18.05-9.1-28-.32-7.07 1.17-13.62 2.92-20.39-4.34-2.73-8.65-5.59-12.81-8.6-1.7-1.23-1.83-2.14-1.53-4.17 1.3-1.26 2.74-1.59 4.35-.65 4.19 2.57 8.15 5.53 12.25 8.24 6.69-14.02 19.04-24.86 33.97-29.29 14.45-4.44 30.64-2.5 43.66 5.17Z" fill="#000"/><path d="M378.2 453.3c18.68-3.52 38.38 4.71 49.14 20.33 7.5 10.77 10.85 24.96 7.88 37.84-1.96 10-7.13 19.25-14.57 26.2-8.04 7.66-18.62 12.27-29.65 13.27-20.13 1.85-40.14-9.82-48.62-28.14-7.66-15.97-5.84-35.51 4.6-49.81 7.37-10.31 18.75-17.43 31.22-19.69Z" fill="#fff"/><path d="M526.47 467.49c12.01-2.85 24.87 4.22 29.35 15.63 2.22 6.02 2.33 12.74-.08 18.72-3.17 8.32-10.91 14.59-19.71 15.93-7.62 1.33-15.75-1.14-21.43-6.37-7.55-6.85-10.31-18.03-6.76-27.6 2.92-8.29 10.06-14.42 18.63-16.31ZM398.22 478.36c9.49-1.98 19.61 2.59 24.44 10.99 3.46 5.6 3.67 12.27 2.25 18.54-2.37 7.24-8.51 13.23-15.87 15.27-7.51 2.4-16.26.06-21.98-5.24-7.35-6.81-9.49-18-5.05-27 3.07-6.51 9.18-11.12 16.21-12.56Z" fill="#000"/></g><g transform="translate(-161 -83)"><g fill="#000"><path d="M456.01 380.37c2.26-.07 2.85 1.7 2.65 3.64-.5 4.68-.77 9.78-2.32 14.23-1.33.39-2.66.58-4.03.82-1.12-4.8-.01-10.22.71-15.09.36-1.71.77-3.82 2.99-3.6ZM476.79 386.65c.03 3.21-.36 6.36-.67 9.55 41.69.52 83.32.38 125.01.75 2.13.04 3.96.86 5.89 1.64-.59 1.48-.22 3.83-2.24 4.09-8.05 1.31-16.58.52-24.74.88-17.35.62-34.71.99-52.06 1.53-17.03.2-34.01 1.25-51.05 1.42-3.29.39-6.05-2.72-7.2-5.47.02-4.49 1.02-9.15 2.06-13.5 1.28-2.48 2.83-1.67 5-.89ZM439.84 392.18c-.11 4.87-.05 10.81-2.28 15.24-3.22 1.5-7.12 1.79-10.59 2.47-25.65 4.7-51.32 9.35-76.96 14.09-4.24.69-8.7 2.15-12.99 2.04-2.63-.48-3.33-3.75-.87-5.01 3.2-1.41 6.95-1.74 10.33-2.58 29.1-6.7 58.15-13.59 87.24-20.32.41-1.91.8-3.81 1.27-5.7 1.61-.21 3.23-.24 4.85-.23Z"/></g></g><g transform="translate(-161 -83)"><path d="M480.96 561.69c4.71-.58 10.26.05 13.71 3.66 3.78 3.91 4.15 9.42 3.22 14.53-2.64 11.8-12.86 21.43-24.83 23.27-7.5 1.49-15.57-.3-22.15-4.05-5.15-2.91-8.86-7.64-11.08-13.06-1.31-3.29-1.62-7.23-.43-10.59 1.3-3.11 4.12-5 7.34-5.69 5.66-1.84 11.66.26 16.63 3.04 4.58-5.09 10.57-10.17 17.59-11.11Z" fill="#000"/><path d="M480.51 567.7c3.29-1.03 7.38-.57 10 1.78 2.06 2.03 2.11 5.89 1.71 8.56-1.84 9.78-10.28 17.74-20.07 19.32-6.52 1.31-13.19-.33-18.84-3.68-4.3-2.52-7.44-6.98-8.81-11.72-.7-2.45-.36-5.07 2.04-6.38 2.59-1.08 5.76-1.02 8.48-.49 3.48.7 5.8 2.91 8.97 4.32 1.93-.09 2.62-1.39 3.81-2.64 3.32-3.94 7.69-7.62 12.71-9.07Z" fill="#8F2E45"/></g><g transform="translate(-161 -83)"><path d="M569 416.32c10.67-.28 21.35-.06 32.02-.26 13.97-.61 27.98-.37 41.98-.52 3.87.15 9-.18 12.21 2.31 2.36 1.63 2.22 5.59 2.35 8.14-.11 4.33-.28 9.38-2.31 13.3-5.07 1.98-11.44 1.25-16.84 1.91.43 12.26 1.67 24.56 1.31 36.83-.71 13.91-3.67 28-10.34 40.32-8.09 13.04-19.91 24.39-33.54 31.51-10.42 5.38-21.75 7.4-33.39 7.78-6.22.19-12.08.49-18.21-.84-9.48-2.04-18.88-4.45-26.96-10.06-11.14-7.58-19.27-18.77-25.41-30.6-6.59-13.57-10.14-29.24-13.26-43.94-.53-2.3-2.38-3.48-4.35-4.45-6.63-2.95-14.93-.51-18.8 5.6-.8 2.41-.9 5.14-1.16 7.65-.62 7.61-2.25 15.33-3.88 22.79-3.12 13.58-8.99 26.32-16.8 37.83-4.35 5.79-9.75 11.42-16.22 14.81-10.53 5.74-22.3 10.09-34.41 10.28-7.24-.19-14.15-.39-21.12-2.5-5.48-1.33-10.51-4.8-15.16-7.94-6.41-4.39-11.06-10.29-15.28-16.72-5.3-8.31-9.31-17.34-12.24-26.73-2.84-9.45-5.24-18.79-5.19-28.73-4.55.67-9.39 2.24-13.99 1.96-4.36-.81-5.31-7.51-5.5-11.08.13-2.39-.16-6.76 2.69-7.68 21.6-9.82 44.44-17.06 67.54-22.42 17.03-3.7 34.73-8.24 52.27-6.65 11.18.94 22.83 3.92 31.72 11.06 3.2 2.41 5.43 6.83 9.38 7.59 7.08 1.83 14.45-1.23 20.89-3.96 3.63-10 10.02-17.34 19.06-22.82 6.29-3.84 13.67-6.15 20.7-8.28 16.76-4.03 33.14-4.65 50.24-5.49Z" fill="#000"/><path d="M307.1 478.16c1.21-1.2 3.4-.01 2.44 1.64-1.21 1.2-3.4.01-2.44-1.64Z" fill="#000"/><ellipse cx="605" cy="457.5" rx="14" ry="10.5" fill="#fff"/><ellipse cx="411" cy="476.107" rx="11" ry="8.107" fill="#fff"/></g><g transform="translate(-161 -83)"><path d="M468.52 215.13c6.94 1.1 13.87 1.06 20.73 2.49 12.08 2.4 24.05 5.8 35.97 8.88 32.65 8.77 65.48 16.6 98.79 22.42 21.51 3.8 44.07 6.84 64.59 14.52 11.41 3.93 22.29 9.07 32.62 15.29 4.79 3.71 8.67 8.98 12.11 13.92 14.22 21.21 23.89 44.41 31.31 68.76 6.9 21.11 11.88 42.73 15.9 64.55 2.23 7.65.7 16.32-.57 24.07-3.39 19.05-10.06 36.98-18.7 54.23-10.45 20.22-23.84 39.13-38.51 56.5-9.86 11.15-19.46 21.73-31.67 30.38-9.62 6.79-20.13 13.81-31.32 17.65-1.66.45-2.96 1.41-4.29-.25-1.31-1.13-.26-3.64.02-5.08 3.4-11.32 5.82-22.96 7.27-34.69 1.28-8.83 1.24-17.86 1.68-26.77-.2-9.99-.51-20.07-1.95-29.98-4.41-32.88-16.51-64.58-36.41-91.24-2.1 30.29.44 61.29 8.53 90.59.85 3.38 2.4 6.42 3.66 9.64.45 3.28-2.22 4.61-5.04 3.5-56.62-20.48-106.61-58.8-139.08-109.73-6.07 8.35-11.51 17.11-15.89 26.46-9.76 20.35-14.96 42.87-16.96 65.27-.73 10.16-.43 20.48.37 30.62-1.04 1.22-2.03 3.55-3.8 3.7-1.98.31-2.95-1.43-4.04-2.73-5.53-7.5-11.03-15.14-15.74-23.19-11.89-20.61-21.3-42.72-28.5-65.38-7.11-23.22-13.06-47.36-15.13-71.59-10 11.4-18.73 23.98-26.64 36.9-9.99 16.42-18.42 33.84-24.93 51.93-5.68 15.95-9.81 32.29-10.56 49.26-.12 3.22-3.72 3.08-5.41 1.04-10.24-10.5-18.63-22.91-24.94-36.13-12.99-26.95-17.69-57.25-15.12-86.95-3.79 2.85-7.75 5.47-11.56 8.3-10.49 8.15-19.75 17.77-27.41 28.63-1.43 1.75-2.16 3.66-4.84 3.3-2.71-1.1-1.08-4.12-.92-6.26 3.08-12.66 8.37-24.89 14.36-36.43 14.96-28.28 36.24-53.7 59.71-75.32 29.06-26.31 63.17-48.65 100.49-61.18 4.64-9.04 9.76-18.25 16.08-26.23 4.39-5.56 9.76-10.14 16.48-12.61 6.32-2.13 12.74-2.09 19.26-1.06Z" fill="#000"/><path d="M471.47 220.92c16.52 1.32 33.37 6.32 49.44 10.46 28.05 7.49 56.04 14.49 84.57 19.97 26.74 5.55 53.99 8 79.46 16.85 10.16 3.47 20.58 7.41 29.73 13.09 6.94 4.34 11.2 10.68 15.69 17.34 9.55 15.02 17.21 31.11 23.2 47.87 9.1 25.86 16.26 52.37 21.52 79.28 1.48 7.78.59 15.24-.75 22.96-2.2 12.07-5.68 23.9-10.31 35.27-9.05 22.97-22.57 43.91-37.76 63.27-7.8 10.11-16.44 19.49-25.59 28.4-6.88 6.71-14.47 12.19-22.44 17.54-5.16 3.3-10.53 6.61-16.19 8.98 8.37-31.01 10.61-63.49 5.54-95.25-5.31-34.58-19.2-68.87-41.86-95.74-1.48-1.87-3.87-1.34-4.9.66-2.91 35.82-.97 71.21 10.12 105.6-52.65-20.04-99.88-56.37-130.55-103.86-18.72-29.06-30.97-61.87-33.85-96.44-.21-2.61-2.48-3.65-4.76-2.52-1.33 1.68-.99 3.43-.9 5.42 3.15 31.62 13.79 61.92 29.99 89.19-5.08 7.27-10.08 14.44-14.22 22.3-11.35 21.13-17.93 44.66-20.39 68.46-1.28 10.33-.85 20.55-.44 30.92-9.75-12.84-17.66-26.82-24.4-41.44-14.04-29.91-23.48-62.03-29.02-94.56-2.28-13.88-3.46-27.88-3.82-41.93.21-17.2 2.42-34.32 6.46-51.02 4.9-19.78 13.27-38.9 23.49-56.49 4.91-8.13 10.91-17.87 19.47-22.51 6.98-4.15 15.79-3.03 23.47-2.07Z" fill="rgba(219, 163, 190, 1)"/><path d="M413 262.56c-13.41 28.25-19.79 59.25-20.17 90.44.01 5.72.61 11.41.71 17.13-19.23 21.47-34.89 46.31-47.04 72.4-7.48 16.46-13.79 33.91-17.35 51.67-.98 4.71-1.4 9.5-2.34 14.21-25.34-29.14-36.7-69.23-34.64-107.42-.01-4.76 1.44-8.73-.22-12.99-1.4-1.45-3.5-.88-5.08-.06-4.02 2.11-7.65 5.01-11.42 7.53-8.88 5.98-16.19 13.18-23.6 20.8 3.41-9.6 7.89-18.82 12.92-27.66 19.62-34.48 48.09-64.4 79.67-88.19 19.99-14.92 41.95-27.71 65.26-36.68 1.1-.4 2.2-.79 3.3-1.18Z" fill="rgba(219, 163, 190, 1)"/></g></g></svg>