<svg xmlns:dc="http://purl.org/dc/elements/1.1/" xmlns:cc="http://creativecommons.org/ns#" xmlns:rdf="http://www.w3.org/1999/02/22-rdf-syntax-ns#" xmlns:svg="http://www.w3.org/2000/svg" xmlns="http://www.w3.org/2000/svg" viewBox="0 0 762 762" fill="none"><metadata><rdf:RDF><cc:Work><dc:format>image/svg+xml</dc:format><dc:type rdf:resource="http://purl.org/dc/dcmitype/StillImage"/><dc:title>Adventurer</dc:title><dc:creator><cc:Agent><dc:title>Lisa Wischofsky</dc:title></cc:Agent></dc:creator><dc:source>https://www.instagram.com/lischis_adventures/</dc:source><cc:license rdf:resource="https://creativecommons.org/licenses/by/4.0/"/></cc:Work><cc:License rdf:about="https://creativecommons.org/licenses/by/4.0/"><cc:permits rdf:resource="https://creativecommons.org/ns#Reproduction"/><cc:permits rdf:resource="https://creativecommons.org/ns#Distribution"/><cc:permits rdf:resource="https://creativecommons.org/ns#DerivativeWorks"/><cc:requires rdf:resource="https://creativecommons.org/ns#Notice"/><cc:requires rdf:resource="https://creativecommons.org/ns#Attribution"/></cc:License></rdf:RDF></metadata><mask id="avatarsRadiusMask"><rect width="762" height="762" rx="0" ry="0" x="0" y="0" fill="#fff"/></mask><g mask="url(#avatarsRadiusMask)"><path d="M396.01 164.85c37.82 4.9 74.21 19.64 104.8 42.39 6.15 4.84 12.48 9.33 18.02 14.92 23.77 21.98 42.73 49.02 55.13 78.95 9.35 22.31 14.72 46.04 16.64 70.14 6.62.81 13.05 2.14 19.12 5 15.54 6.93 27.08 20.94 31.78 37.21 2.63 9.56 3.56 19.75 1.72 29.55-2.96 18.76-13.72 36.13-29.37 46.92-10.94 7.65-24.49 12.03-37.86 11.68-5.13-.05-10.04-1.6-15.13-1.79-1.85 2.17-3.23 4.84-4.76 7.25-18.66 29.62-44.57 54.51-74.64 72.4-28.1 16.73-59.9 27.16-92.46 30.32-11.08.7-21.87 2.05-32.98.74-51.69-2.3-102.07-23.44-140.15-58.43-29.03-26.55-50.84-60.83-62.54-98.39-7.09-22.85-10.62-46.78-10.07-70.71.52-40.34 12.53-80.58 33.94-114.76 19.1-30.81 45.91-56.58 77.2-74.83 29.63-17.28 63.35-27.68 97.59-29.87 14.66-1.47 29.44-.37 44.02 1.31Z" fill="#000"/><path d="M363 169.06c48.47-1.39 97.32 14.7 135.81 44.12 6.55 4.06 11.72 9.49 17.36 14.64 24.33 22.63 43.2 50.95 54.93 82.02 7.43 19.61 11.86 40.2 13.56 61.09-8.89.74-17.34 2.34-25.38 6.38-2.19 1.03-1.89 4.95.68 5.23 2.35.23 4.98-1.51 7.24-2.2 14.62-5.37 31.32-4.35 44.78 3.68 11.69 6.78 20.09 18.16 23.89 31.06 2.6 8.25 2.68 17.41 1.76 25.95-2.5 17.35-12.35 33.73-26.73 43.81-15.71 11.33-37.17 14.64-54.93 6.2-3.17-1.43-5.94-3.58-9.08-5.05-2.95-1.09-4.88 2.79-2.7 4.75 3.17 2.76 7.34 4.52 11 6.56-20.14 34.15-49.45 62.7-84.41 81.47-30.2 16.31-64.44 25.53-98.78 26.15-27.63.72-55.33-4.04-81.21-13.72-30.32-11.24-57.84-29.43-80.37-52.6-22.67-23.37-39.92-51.88-50.2-82.77-14.96-44.64-14.91-94.01.27-138.59 11.05-33.06 30.28-63.21 55.37-87.39 29.67-28.73 67.65-48.54 108.13-56.67 12.8-2.52 25.94-4.24 39.01-4.12Z" fill="rgba(158, 86, 34, 1)"/><path d="M605.03 404.4c2.63-.1 3.44 3.8 1.36 4.98-3.69 1.83-7.82 2.77-11.64 4.35-5.82 2.04-11.28 4.76-16.68 7.72 4.29 2.34 8.86 4.74 12.71 7.76 2.58 2.09 4.85 4.35 5.33 7.8-.26 3.59-2.73 6.55-5.45 8.69-5.86 4.66-13.92 7.18-20.79 10.26-1.75.62-4.43 1.99-5.59-.26-1.02-1.74-.06-3.11 1.57-3.87 6.65-3.3 14.86-5.62 20.79-10.16 1.37-1.14 3.39-2.74 3.61-4.62-4.07-5.63-12.42-8.59-18.23-12.09-2.34-1.72-2.29-4.24-.16-6.13 7.27-5.64 16.98-9.26 25.57-12.38 2.42-.83 5.03-1.95 7.6-2.05Z" fill="#000"/><g transform="translate(-161 -83)"><path d="M550.3 424.38c13.71-1.37 27.79 1.67 39.66 8.67 13.24 7.75 23.39 20.21 28.51 34.66 3.39 10.09 4.71 21.28 2.81 31.8-2.34 15.83-10.89 30.39-23.28 40.46-16.89 13.94-40.48 18.23-61.27 11.45-15.53-5.04-28.95-16-36.85-30.31-7.41-12.94-9.69-28.2-7.34-42.86 2.28-13.35 8.74-25.81 18.4-35.3 10.58-10.49 24.52-17.1 39.36-18.57Z" fill="#000"/><path d="M549.26 430.26c15.15-1.85 30.29 1.89 42.62 10.89 15.42 11.05 25 29.85 24.47 48.85.07 22.69-14.11 44.36-34.86 53.52-10.79 4.85-22.8 6.65-34.49 4.51-16.39-2.62-31.5-12.62-40.35-26.67-5.6-8.77-8.74-18.94-9.37-29.31-.6-14.46 4.23-29.16 13.41-40.36 9.44-11.75 23.64-19.57 38.57-21.43Z" fill="#fff"/><path d="M381.25 447.09c12.75-1.32 25.87 1.94 36.48 9.14 12.16 8.15 20.71 21.26 23.31 35.66 1.43 9.16 1.07 18.48-1.94 27.3-4.01 12.2-12.45 22.81-23.42 29.5-10.57 6.48-23.37 9.3-35.67 7.62-15.79-1.82-30.36-11-39.03-24.29-5.54-8.32-8.46-18.03-9.11-27.98-.3-12.3 3.26-24.63 10.57-34.59 9.04-12.53 23.43-20.8 38.81-22.36Z" fill="#000"/><path d="M378.25 453.29c11.25-2.04 22.91-.02 32.86 5.6 17.98 9.94 28.44 31.6 24.26 51.83-2.39 13.37-10.57 25.37-22.02 32.64-7 4.52-15.08 7.02-23.36 7.67-19.83 1.35-39.3-10.23-47.63-28.27-7.75-16.18-5.75-36.01 5.04-50.33 7.38-10.04 18.61-16.93 30.85-19.14Z" fill="#fff"/><path d="M527.25 466.2c10.29-1.32 20.55 4.37 24.64 13.95 4.98 10.77.62 24.2-9.63 30.09-6.84 4.15-16.01 4.32-23.06.59-8.27-4.24-13.57-13.53-12.73-22.85.68-11.13 9.72-20.52 20.78-21.78ZM358.53 480.85c5.9-2.02 12.38-1.11 17.75 1.94 5.34 3.21 9.07 8.43 10.29 14.56 2.56 11.6-5.76 23.81-17.54 25.6-10.32 2.12-21.3-4.15-24.64-14.13-3.92-11.13 2.73-24.59 14.14-27.97Z" fill="#000"/></g><g transform="translate(-161 -83)"><g fill="#000"><path d="M397.06 373.14c6.81.19 14.18 2.86 17.93 8.88 1.05 1.45.63 3.68.72 5.4-6.29.15-12.49.33-18.64 1.83-15.06 3.48-29.35 10.86-41.64 20.15-8.37 6.38-16.34 14.1-21.95 23.07-1.43 2.22-2.41 5.03-4.29 6.89-1.24.26-2.57.28-3.83.35-.05-1.77-.23-3.46.21-5.19 5.72-20.86 19.83-39.34 38.12-50.81 9.83-5.84 21.73-11.05 33.37-10.57ZM578.52 411.66c10.41 1.67 21.2 3.85 30.01 9.97l-.21 4.78c-4.07 1.59-7.29-.15-11.31-.78-6.82-1.2-13.91-1.25-20.83-1.11-29.25 1.32-58.23 9.89-83.97 23.74-1.45.63-2.92 1.06-4.42 1.54-2.58-5.36-3.61-10.91-.13-16.17 5.13-7.67 15.2-12.39 23.63-15.44 21.34-7.36 44.88-9 67.23-6.53Z"/></g></g><g transform="translate(-161 -83)"><path d="M524.16 555.86c.61 6.97-.81 13.29-1.53 20.14-2.76 24.18-9.37 47.95-19.15 70.23-3.65 7.33-6.72 15.74-13.94 20.34-3.86 2.79-9.11 1.94-13.2.16-4.48-2.23-8.94-4.98-12.41-8.63a171.314 171.314 0 0 1-29.94-42.13c-6.76-12.54-11.65-25.76-17.12-38.87-.92-2.1-1.13-4.11 1.07-5.43 4.38-.1 8.65 1.41 13.06 1.45 9.89.33 19.99.52 29.81-.88 17.69-2.04 35.09-7.15 51.54-13.9 4.22-1.53 7.13-4.31 11.81-2.48Z" fill="#000"/><path d="M518.92 562c-2.1 16.35-4.16 32.05-8.89 47.96-9.07-.71-18.45 2.59-26.46 6.61-10.54 5.48-21.2 13.48-27.26 23.89-7.57-9.81-13.74-20.42-19.35-31.44-5.4-10.14-9.36-20.75-13.97-31.24 9.45.8 18.49 2.05 27.99 1.01 23.21-.73 46.69-7.69 67.94-16.79Z" fill="#8F2E45"/><path d="M508.19 616.1c-3.83 13.3-8.82 26.41-15.55 38.52-1.62 2.89-3.68 5.84-6.7 7.39-4.1 1.71-9.13-1.19-12.46-3.5-5.34-3.38-8.58-8.29-12.86-12.75 1.94-5.34 6.21-9.98 10.4-13.7 7.82-6.68 17.09-12.04 26.99-14.9 3.34-1.04 6.72-1.16 10.18-1.06Z" fill="#EA869E"/></g><g transform="translate(-161 -83)"><path fill-rule="evenodd" clip-rule="evenodd" d="M608 415.8c6.186-.151 12.368-.167 18.55-.183 4.483-.012 8.966-.024 13.45-.087.562.005 1.127.006 1.693.008 3.106.01 6.253.02 9.307.502 2.58.53 5.61 1.94 6.09 4.83.91 5.11.46 12.04-1.14 16.99-.46 1.77-1.74 2.1-3.35 2.34-3.462.36-6.945.569-10.423.778-1.253.075-2.506.15-3.757.232.122 4.281.38 8.636.639 13.018.692 11.72 1.395 23.63-.439 34.802-.87 7.47-2.98 14.85-5.73 21.83-3.11 8.55-9.09 16.19-15.42 22.62-9.83 10.36-22.25 18.39-36.2 21.81-10.85 2.39-22.17 2.98-33.23 2.16-9.22-1.58-18.8-3.87-27.06-8.4-10.51-6.05-18.47-15.05-24.78-25.29-8.17-12.62-11.9-27.18-15.47-41.59-.515-2.188-.844-4.449-1.174-6.711-.414-2.834-.827-5.671-1.606-8.369-.48-1.78-2.64-3.07-4.17-3.9-6.71-3.36-16.41-.94-18.99 6.6-.499 2.84-.553 5.746-.608 8.66-.053 2.861-.106 5.73-.582 8.55-1.99 13.03-4.77 26.14-10.56 38.06-5.55 11.58-11.7 22.03-22.47 29.5-12.88 7.76-28.34 13.44-43.57 11.92-6.86-.15-14.05-1.41-20.36-4.13-6.87-3.71-13.8-8.11-18.84-14.16-10.32-12.28-16.95-27.7-20.79-43.17-1.87-6.83-3.04-13.81-2.97-20.91-1.637.243-3.268.56-4.899.877-2.393.466-4.787.931-7.201 1.163-2.24.22-4.26-.69-5.36-2.69-1.96-3.76-2.46-8.38-1.77-12.53.041-.174.078-.354.116-.535.231-1.113.479-2.305 1.614-2.795 27.43-12.56 55.94-20.6 85.48-26.45 11.24-2.31 22.47-3.81 33.98-3.07 10.03.01 19.98 2.36 28.86 7.05 10.79 4.81 24.51 5.41 35.15-.12 3.04-1.482 4.933-3.677 6.926-5.986 1.193-1.383 2.422-2.807 3.954-4.144 9.81-9.08 23.09-13.26 36.12-14.79 13.108-2.381 26.26-3.017 39.523-3.659l2.497-.121c5.544-.149 11.094-.149 16.646-.149 7.446 0 14.893 0 22.324-.361Zm-23 6.26c8.34-.34 16.32-.45 24.15 2.9.646.302 1.365.598 2.113.906 3.164 1.304 6.86 2.826 7.887 5.964 5.81 12.39 8.22 26.56 8.39 40.17.56 12.44-.87 25.5-5.21 37.22-3.71 9.79-10.5 17.11-18.25 23.88-5.21 4.32-11.62 7.49-17.78 10.22-9.15 3.83-19.3 6.8-29.31 6.15-5.792-.342-11.557-1.779-17.192-3.184l-.868-.216c-5.96-1.466-10.686-4.562-15.7-7.847l-.001-.001-.859-.562c-6.8-4.54-12.23-10.46-17.08-16.98-2.766-3.934-4.565-8.67-6.303-13.249a253.502 253.502 0 0 0-1.217-3.161c-4.64-11.94-5.98-24.55-5.87-37.28.09-7.74 1.2-16.94 5.51-23.55 5.13-6.46 12-12.24 19.82-15.08 9.27-2.8 19.13-4.25 28.78-4.96 11.572-1.279 23.168-1.304 34.654-1.328 1.447-.003 2.892-.006 4.336-.012Zm-172.354 22.059c-.891-.021-1.778-.041-2.656-.079-8.612-.872-17.851.939-26.497 2.634-1.173.23-2.335.457-3.483.676-2.29.516-4.571 1.006-6.843 1.494-9.393 2.017-18.626 4-27.677 7.656-.903.361-1.836.713-2.782 1.069-5.765 2.175-12.01 4.53-14.948 10.191-4.839 9.868-3.731 19.612-2.557 29.93.124 1.09.249 2.186.367 3.29 1.93 11.77 6.83 23.25 13.14 33.33 5.06 8.01 10.9 15.08 19.42 19.57 12.78 7.1 27.95 6.15 41.4 1.57 11.36-4.43 21.76-9.82 28.56-20.38 8.84-14.04 13.92-30.65 15.47-47.12.91-9.38-.1-18.83-2.68-27.88-.46-1.39-.98-2.92-1.89-4.09-5.19-5.6-11.6-9.87-19.19-11.35-2.333-.401-4.756-.456-7.154-.511Z" fill="#000"/></g><g transform="translate(-161 -83)"><path d="M459.18 60.01c1.27-.39 2.6-.59 3.99-.59 2.03 3.79 3.18 7.7 4.81 11.67 3.8 9.46 8.7 18.33 13.98 27.03 9.17 14.87 19.17 29.04 30.84 42.07 5.67 6.37 11.82 12.28 17.4 18.74 12.58-18.33 30.15-32.56 50.58-41.28 11.65-4.84 23.97-8.84 36.31-11.46 2.31-.25 5.3-1.43 6.84.98 1.26 1.88-1.11 4.99-2.04 6.69-6.15 9.37-8.98 20.1-10.18 31.14-.64 6.45.63 12.52 2.02 18.77 15.81.63 31.61 2.49 47.25 4.89 9.55 1.37 18.29 4.27 28.05 3.9 21.29 1.03 42.84-.42 63.98-2.98 4.32-.39 8.7-1.1 13.04-1.01 2.56.12 4.37 1.76 4.41 4.38.1 5.17-.3 10.41-.64 15.56-.83 9.42-4.03 18.16-9.12 26.09 8.72 3.55 17.5 6.98 26.27 10.39 18.95 7.15 37.27 14.24 56.97 19.1 2.34.39 3.77 2.84 2.02 4.67-10.14 8.97-20.42 17.76-30.87 26.38-8.99 7.42-18.18 16.03-28.61 21.28 8.01 29.69 10.18 61.19 7.77 91.78-2.09 23.67-6.72 47.09-15.94 69.07-1.09 2.5-2.08 5.23-3.69 7.44-.7 1.02-2.28 1.19-3.37.79-3.1-1.04-5.96-2.72-9.11-3.68-12.41-3.86-26.62-3-38.16 3.16-4.56 2.3-6.8 6.12-10.37 9.63-5.34 5.29-11.04 10.4-16.88 15.13-2.83 2.12-6.03 4.8-9.78 4.52-1.47-.82-2.36-1.36-1.95-3.24.96-4.88 2.67-9.57 3.43-14.52 4.5-26.17 2.29-53.36-1.46-79.49-1.76-10.54-4.11-23.06-12.4-30.58-9.52-9.09-18.15-18.91-27.24-28.4-2.52 20.64-10.19 41.03-20.04 59.26-8.7 16.01-19.82 31.37-33.42 43.59-1.77 1.52-3.72 3.27-5.93 4.1-2.04.31-5.9.06-5.26-2.93.53-3.73 1.87-7.3 2.47-11.03 2.44-14.45 2.74-29.42 1.66-44.02-.85-8.99-1.76-17.85-3.99-26.63-8.87 12.19-15.03 26.42-18.27 41.13-2.72 12.67-3.46 25.58.79 38.02-1.49 1.09-1.93 2.73-4.09 2.03-22.8-7.7-41.14-23.1-55.44-42.16-8.82-2.18-17.29-5.49-25.12-10.1-12.71-7.28-22.16-18.66-30.06-30.77-2.24 7.06-3.88 14.16-4.95 21.5-2.88 20.08-2.21 41.62 4.25 60.99.47 1.39.67 2.78.61 4.16-2.24 2.09-5.2 2.54-8.02 1.34-16.95-6.34-31.39-17.23-43.2-30.84-9.41-10.19-16.62-21.89-22.87-34.22-3.88 3.46-7.75 6.9-11.37 10.64-16.88 17.49-31.5 37.27-43.79 58.22-6.18 10.75-12.06 22.11-15.83 33.94-.83 2.1-1.01 3.99-3.42 4.87-3.03-.6-3.4-3.33-4.45-5.76-4.08-11.71-6.53-24.02-7.71-36.36-2.34-20.77-1.46-41.97 2.1-62.55-12.11 2.34-24.5 5.49-35.64 10.9-3.34 1.52-6.23 3.81-9.48 5.46-3.31-.27-3.49-3.1-3.16-5.8 3.27-20.95 10.36-41.54 19.82-60.49 6.63-13.17 14.67-25.9 24.28-37.11-15.77-10.89-24.48-27.71-29.03-45.92-.39-2.76-1.54-6.62 1.47-8.35 4.01-.88 8.67.37 12.75.56 15.81.91 32.24-.42 47.37-5.32 7.37-2.26 14.61-4.58 21.42-8.26-16.57-22.46-28.08-48.02-34.97-75.02-1.26-5.24-3-10.73-3.16-16.12.03-2.43.57-4.77 3.35-5.15 3.11.11 6.14 2.91 8.93 4.21 20.1 10.45 41.34 18.97 63.29 24.65 15.2 3.81 30.95 5.72 46.49 7.55-1.73-12.81-.74-25.71 2.34-38.24 3.34-13.41 8.02-26.45 13.91-38.94 4.14-9.07 9.09-17.68 13.44-26.65 1.1-2.15 2.18-4.57 3.78-6.4Z" fill="#000"/><path d="M460.81 68.77c6.63 17.79 16.53 33.63 27.21 49.23 6.14 9.06 13.01 17.52 20.33 25.65 5.83 6.52 12.34 12.3 17.97 19.01 1.8 1.73 2.88 4.3 5.79 3.65 2.33-2.44 3.82-5.64 5.92-8.3 7.46-9.76 16.56-18.41 26.81-25.2 15.61-10.31 33.07-15.9 51.06-20.5-9.67 16.67-12.82 38.51-5.94 56.76 1.5.67 3.42.3 5.04.29 8.31-.19 17.03 1.28 25.01 2.07 12.07 1.56 24.08 3.45 35.99 5.93 4.04.95 7.92.33 12 .4 16.08.99 31.96.57 48.01-.54 9.65-.81 19.23-2.28 28.88-2.98-.4 4.58-.66 9.16-.89 13.75-.57 9.09-4.13 17.01-8.84 24.65-9.95-3.92-20.03-7.46-30.35-10.33-1.88-.41-3.53-1.07-5.15.39-.27 1.08-.24 2.26-.32 3.38 5.68 1.97 11.5 3.45 17.15 5.51 17.64 6.4 34.92 13.78 52.48 20.37 16.11 6.07 32.41 12.26 49.08 16.6-8.65 7.57-17.55 14.81-26.48 22.05-8.56 6.86-16.99 14.92-26.67 20.11-2.63-8.03-5.46-15.93-9.13-23.56-.75-1.39-1.19-2.71-2.86-3.18-2.07-.95-4.06 2.13-3.03 3.98 1.63 4.35 3.84 8.46 5.41 12.85 11.57 30.67 15.21 64.8 13.86 97.4-1.54 27.51-6.56 55.64-18.01 80.87-13.45-6.22-28.93-7-42.98-2.32 7.34-9.79 13.54-20.52 18.79-31.56 1.15 3.79 2.32 7.83 2.47 11.79.29 2.14-.36 4.09 1.46 5.63 2.16.35 3.62-.36 3.86-2.62.58-6.07-1.27-12.58-3.46-18.2-.86-1.86-1.98-4.76-4.27-5.13-2.35-.26-3.18 1.41-4.08 3.19-7.36 16.85-17.73 32.49-29.48 46.6-6.48 7.47-13.83 13.75-21.24 20.14 1.94-8.24 3.31-16.59 3.82-25.05.38-7.88 1.16-15.65.61-23.55-1.07-19.67-2.53-40.19-8.2-59.14 8.07 6.69 16.73 12.52 25.53 18.2 2.07 1.18 4.37 3.83 6.91 3 2.16-1.11 3.07-4.08 3.66-6.26 4.35-18.69 5.01-38.05 2.07-57.01-1.96-13.12-4.71-26.91-10.35-38.98-1.18-2.31-2.33-5.18-4.33-6.89-1.9-1.37-4.28-.35-4.27 2.11.97 3.67 3.47 6.87 4.78 10.46 5.27 13.1 7.73 27.57 9.42 41.53 1.94 16.19.9 32.52-2.66 48.4-11.12-6.87-21.82-14.32-31.73-22.87-13.22-11.6-24.77-24.86-37.19-37.83-7.13-8.17-14.6-16.5-20.11-25.87-4.44-7.38-9.15-14.44-12.68-22.34-2.61-5.93-5.58-11.66-8.62-17.37-1.85-3.36-2.85-7.11-4.71-10.44-2.01-.44-4.02-.12-3.96 2.34.42 4.41 3.13 8.78 5 12.76 4.66 8.54 7.91 17.69 12.82 26.09 2.83 4.84 5.78 9.62 8.71 14.4 4.47 7.23 9.85 13.33 15.3 19.82-1.6 21.82-9.75 43.62-20.09 62.76-8.33 15.16-18.83 29.95-31.87 41.42 3.79-19.38 3.78-38.92 1.68-58.49-1.38-8.49-2.16-18.04-5.6-25.96-2.71-2.85-4.25.39-6.01 2.31-16.95 22.24-26.64 51.96-22.47 79.93-11.59-4.84-22.2-11.81-31.34-20.4-19.38-18.07-32.55-42.29-39.67-67.64-4.46-15.65-6.3-31.8-6.42-48.04.5-14.2 1.81-28.17 6.08-41.8 1.29-4.43 2.16-8.72 4.05-12.98 3.38-7.73 8.07-15 13.1-21.75 9.31-12.18 20.58-23.1 33.36-31.59 7.03-4.77 14.53-8.37 22.74-10.61-4.96 12.95-5.62 27.07-3.96 40.73.28 1.69.3 3.47 1.71 4.67 1.68 1.69 4.84-.29 4.36-2.6-1.74-12.22-1.74-24.37 1.77-36.29.9-3.1 2.62-5.84 3.64-8.88.29-2.67-2.93-3.74-5.05-3.68-10.89 1.27-21.58 7.14-30.54 13.23-12.97 9.12-24.43 20.43-33.86 33.17-8.13 10.93-14.58 23.02-17.51 36.4-11.93 45.6-4.61 96.07 20.61 135.98-11.63-3.97-23.15-10.07-31.74-19.01-5.26-5.42-10.3-11.4-13.98-18.03-.97-1.68-1.85-3.55-3.06-5.06-2.42-.35-4.51.07-5.36 2.59-5.53 14.66-7.77 30.92-8.4 46.51-.06 14.01 1.35 28.4 5.55 41.82-13.18-5.29-25.22-13.25-34.98-23.59-18.9-18.66-31.75-43.75-38.62-69.23-3.14-12.75-4.91-25.88-5.43-38.99-.84-10.37-1.1-20.51.93-30.78.27-2.31 1.27-4.27-.88-6.01-1.96-1.53-3.7-.1-4.96 1.53-6.5 8.39-11.89 17.77-17.05 27.03-6.57 11.7-11.12 24.68-12.88 37.99-.08 2.08-.72 5.72 1.37 6.97 1.12 1.19 3.83.08 3.5-1.72.64-10.24 3.6-20.41 7.66-29.79 4.54-10.05 10.64-19.77 16.35-29.18-1.03 14.63.23 29.49 1.95 44.03 2.01 16.33 6.55 31.94 13.22 46.95-19.72 16.63-36.28 37.99-50.41 59.47-8.4 13.18-16.18 27.14-21.86 41.72-3.98-13.01-6.09-26.65-6.8-40.22-1.09-15.57-.3-31.34 2.05-46.77 1.85-11.05 4.54-22.68 9.67-32.72.58-1.34 1.59-3 1.33-4.49-.09-1.58-1.6-2.35-3.04-2.35-1.86.94-2.72 2.73-3.65 4.48-3.7 7.48-5.98 15.25-7.97 23.32-14.9 2.49-29.97 6.79-43.24 14.14 2.3-13.95 6.71-27.63 11.98-40.73 6.39-15.29 14.4-30.21 24.37-43.48 6.51-8.55 14.13-16.93 23.09-22.97 2.84-1.97 6.11-3.18 8.98-5.1 1.39-1.12 1.25-3.65-.53-4.36-1.2-.81-3.15.1-4.4.54-8.32 3.78-15.43 10.11-21.85 16.5-15.14-10.16-23.54-26.84-27.5-44.2 17.85 1.41 35.72 1.48 53.04-3.62 9.46-2.9 19.55-5.99 28.1-10.99 5.91 6.39 12.61 11.97 20.08 16.45 2.17 1.23 4.21 2.31 6.81 1.72 1.82-.83 1.35-2.69 1.4-4.36-6.86-2.58-12.98-7.33-18.44-12.15-9.73-8.73-16.41-20-22.75-31.26-11.1-19.9-18.12-41.26-22.97-63.45 24.57 13.2 51.02 23.7 78.37 29.43 16.34 3.2 32.79 4.75 49.24 6.98 13.73 2.33 27.67 4.45 41.16 7.94 6.29 1.55 12.59 3.23 18.93 4.55 2.95-.12 2.51-4.67.06-5.22-3.86-1.38-8.01-1.95-11.94-3.13-17.41-4.92-35.57-8.09-53.47-10.74-2.26-12.43-1.09-24.96 1.81-37.17 3.58-14.48 8.81-28.49 15.35-41.88 3.32-6.93 7.04-13.61 10.48-20.47.47-.89.93-1.78 1.4-2.67Z" fill="rgba(171, 42, 24, 1)"/></g></g></svg>