<svg xmlns:dc="http://purl.org/dc/elements/1.1/" xmlns:cc="http://creativecommons.org/ns#" xmlns:rdf="http://www.w3.org/1999/02/22-rdf-syntax-ns#" xmlns:svg="http://www.w3.org/2000/svg" xmlns="http://www.w3.org/2000/svg" viewBox="0 0 762 762" fill="none"><metadata><rdf:RDF><cc:Work><dc:format>image/svg+xml</dc:format><dc:type rdf:resource="http://purl.org/dc/dcmitype/StillImage"/><dc:title>Adventurer</dc:title><dc:creator><cc:Agent><dc:title>Lisa Wischofsky</dc:title></cc:Agent></dc:creator><dc:source>https://www.instagram.com/lischis_adventures/</dc:source><cc:license rdf:resource="https://creativecommons.org/licenses/by/4.0/"/></cc:Work><cc:License rdf:about="https://creativecommons.org/licenses/by/4.0/"><cc:permits rdf:resource="https://creativecommons.org/ns#Reproduction"/><cc:permits rdf:resource="https://creativecommons.org/ns#Distribution"/><cc:permits rdf:resource="https://creativecommons.org/ns#DerivativeWorks"/><cc:requires rdf:resource="https://creativecommons.org/ns#Notice"/><cc:requires rdf:resource="https://creativecommons.org/ns#Attribution"/></cc:License></rdf:RDF></metadata><mask id="avatarsRadiusMask"><rect width="762" height="762" rx="0" ry="0" x="0" y="0" fill="#fff"/></mask><g mask="url(#avatarsRadiusMask)"><path d="M396.01 164.85c37.82 4.9 74.21 19.64 104.8 42.39 6.15 4.84 12.48 9.33 18.02 14.92 23.77 21.98 42.73 49.02 55.13 78.95 9.35 22.31 14.72 46.04 16.64 70.14 6.62.81 13.05 2.14 19.12 5 15.54 6.93 27.08 20.94 31.78 37.21 2.63 9.56 3.56 19.75 1.72 29.55-2.96 18.76-13.72 36.13-29.37 46.92-10.94 7.65-24.49 12.03-37.86 11.68-5.13-.05-10.04-1.6-15.13-1.79-1.85 2.17-3.23 4.84-4.76 7.25-18.66 29.62-44.57 54.51-74.64 72.4-28.1 16.73-59.9 27.16-92.46 30.32-11.08.7-21.87 2.05-32.98.74-51.69-2.3-102.07-23.44-140.15-58.43-29.03-26.55-50.84-60.83-62.54-98.39-7.09-22.85-10.62-46.78-10.07-70.71.52-40.34 12.53-80.58 33.94-114.76 19.1-30.81 45.91-56.58 77.2-74.83 29.63-17.28 63.35-27.68 97.59-29.87 14.66-1.47 29.44-.37 44.02 1.31Z" fill="#000"/><path d="M363 169.06c48.47-1.39 97.32 14.7 135.81 44.12 6.55 4.06 11.72 9.49 17.36 14.64 24.33 22.63 43.2 50.95 54.93 82.02 7.43 19.61 11.86 40.2 13.56 61.09-8.89.74-17.34 2.34-25.38 6.38-2.19 1.03-1.89 4.95.68 5.23 2.35.23 4.98-1.51 7.24-2.2 14.62-5.37 31.32-4.35 44.78 3.68 11.69 6.78 20.09 18.16 23.89 31.06 2.6 8.25 2.68 17.41 1.76 25.95-2.5 17.35-12.35 33.73-26.73 43.81-15.71 11.33-37.17 14.64-54.93 6.2-3.17-1.43-5.94-3.58-9.08-5.05-2.95-1.09-4.88 2.79-2.7 4.75 3.17 2.76 7.34 4.52 11 6.56-20.14 34.15-49.45 62.7-84.41 81.47-30.2 16.31-64.44 25.53-98.78 26.15-27.63.72-55.33-4.04-81.21-13.72-30.32-11.24-57.84-29.43-80.37-52.6-22.67-23.37-39.92-51.88-50.2-82.77-14.96-44.64-14.91-94.01.27-138.59 11.05-33.06 30.28-63.21 55.37-87.39 29.67-28.73 67.65-48.54 108.13-56.67 12.8-2.52 25.94-4.24 39.01-4.12Z" fill="rgba(236, 173, 128, 1)"/><path d="M605.03 404.4c2.63-.1 3.44 3.8 1.36 4.98-3.69 1.83-7.82 2.77-11.64 4.35-5.82 2.04-11.28 4.76-16.68 7.72 4.29 2.34 8.86 4.74 12.71 7.76 2.58 2.09 4.85 4.35 5.33 7.8-.26 3.59-2.73 6.55-5.45 8.69-5.86 4.66-13.92 7.18-20.79 10.26-1.75.62-4.43 1.99-5.59-.26-1.02-1.74-.06-3.11 1.57-3.87 6.65-3.3 14.86-5.62 20.79-10.16 1.37-1.14 3.39-2.74 3.61-4.62-4.07-5.63-12.42-8.59-18.23-12.09-2.34-1.72-2.29-4.24-.16-6.13 7.27-5.64 16.98-9.26 25.57-12.38 2.42-.83 5.03-1.95 7.6-2.05Z" fill="#000"/><g transform="translate(-161 -83)"><path d="M558.201 453.21c11.47-1.62 23.68.14 34 5.5 7.61 3.93 14.3 10.28 18.11 18 3.35 6.67 3.82 14.64 2.11 21.82-2.1 8.03-7.22 15.16-13.75 20.2-14.96 11.75-36.54 14.35-54.21 7.75-8.42-3.17-16.53-8.89-21.39-16.55-2.81-4.73-5.22-10.36-5.36-15.93-.71-9.54 3.61-19.3 10.27-26.02 8.05-8.38 18.87-12.97 30.22-14.77Z" fill="#000"/><path d="M559.17 459.11c13.97-2.02 29.72 1.64 39.88 11.85 6.6 6.52 10.35 16.95 7.62 26.05-2.06 8.19-7.68 14.49-14.53 19.15-12.44 8.19-28.98 10.02-43.11 5.63-8.63-2.71-17.05-8.19-21.69-16.11-3.02-5-4.14-10.9-3.59-16.69.76-6.83 4.53-13.12 9.38-17.85 7.05-6.72 16.44-10.78 26.04-12.03Z" fill="#fff"/><path d="M369.481 468.71c17.62-2.69 37.91 3.42 47.71 19.13 5.49 8.51 6.28 20 1.93 29.15-2.91 6.32-7.91 11.64-13.7 15.43-7.34 4.75-15.75 7.1-24.42 7.79-14.63.57-29.81-4.29-39.4-15.79-5.22-6.27-8.18-14.2-7.54-22.41.56-8.27 4.61-15.74 10.51-21.44 6.92-6.46 15.65-10.23 24.91-11.86Z" fill="#000"/><path d="M376.55 474.11c9.64-.35 19.56 2.27 27.37 8.02 5.14 3.82 9.44 9.18 11.19 15.41 1.61 6.2 1.04 12.92-2.15 18.54-4.72 8.62-13.66 14.22-22.97 16.71-13.7 3.71-30.16.71-40.8-8.99-6.28-5.66-10.01-13.74-9.23-22.26.73-5.44 3.14-10.68 6.85-14.72 7.34-8.21 18.86-12.64 29.74-12.71Z" fill="#fff"/><path d="M551.461 477.61c3.69-.8 7.51-.7 10.96.96 6.42 3.03 10.48 10.43 8.89 17.48-1.3 7.25-7.89 12.9-15.3 12.85-8.42.47-15.96-6.52-16.34-14.89-.56-7.44 4.55-14.59 11.79-16.4Z" fill="#000"/><path d="M553.619 483.21c4-.67 7.83.59 10.21 3.96 3.04 4.06 2.26 9.86-1.38 13.27-4.4 3.95-11.88 3.34-15.16-1.77-4-5.83-.62-14.19 6.33-15.46Z" fill="#fff"/><path d="M618.701 484.19c1.69.32 3.64-.24 4.63 1.46 1.61 2.47 2.37 5.58 2.85 8.46 1.44 10.51-2.22 21.79-9.83 29.24-3.27 3.02-7.82 5.97-12.38 6.11-2.73.04-4.27-2.62-2.33-4.8 3.27-1.61 6.54-2.11 9.44-4.56 6.29-5.26 9.64-14.02 9.57-22.11-.01-4.02-1.58-7.21-2.66-10.96.23-.95.47-1.9.71-2.84ZM380.44 488.46c4.44-.82 9.2.5 12.68 3.35 5.75 4.58 7.69 13.08 4.69 19.76-2.56 5.93-8.24 10.22-14.82 10.23-8.45.57-15.94-6.42-16.44-14.79-.99-8.72 5.26-17.04 13.89-18.55Z" fill="#000"/><path d="M379.531 494.79c5.08-1.91 10.94.6 12.92 5.67 2.83 6.48-1.52 14.71-8.68 15.43-4.25.47-7.61-1.26-9.91-4.82-3.44-5.89-.79-13.89 5.67-16.28Z" fill="#fff"/><path d="M330.441 503.6c.44 4.06-1.41 7.43-1.67 11.39-.24 6.08 2.47 12.14 7.29 15.89 2.44 1.9 5.12 2.82 7.78 4.29 1.95.85 1.84 2.03 1.58 3.92-1.51 1.78-3.31 1.46-5.31.8-7.28-2.71-13.55-8.6-15.95-16.08-2.04-6.12-1.77-13.6 1.36-19.29 1.26-1.87 3.04-.88 4.92-.92Z" fill="#000"/></g><g transform="translate(-161 -83)"><g fill="#000"><path d="M456.01 380.37c2.26-.07 2.85 1.7 2.65 3.64-.5 4.68-.77 9.78-2.32 14.23-1.33.39-2.66.58-4.03.82-1.12-4.8-.01-10.22.71-15.09.36-1.71.77-3.82 2.99-3.6ZM476.79 386.65c.03 3.21-.36 6.36-.67 9.55 41.69.52 83.32.38 125.01.75 2.13.04 3.96.86 5.89 1.64-.59 1.48-.22 3.83-2.24 4.09-8.05 1.31-16.58.52-24.74.88-17.35.62-34.71.99-52.06 1.53-17.03.2-34.01 1.25-51.05 1.42-3.29.39-6.05-2.72-7.2-5.47.02-4.49 1.02-9.15 2.06-13.5 1.28-2.48 2.83-1.67 5-.89ZM439.84 392.18c-.11 4.87-.05 10.81-2.28 15.24-3.22 1.5-7.12 1.79-10.59 2.47-25.65 4.7-51.32 9.35-76.96 14.09-4.24.69-8.7 2.15-12.99 2.04-2.63-.48-3.33-3.75-.87-5.01 3.2-1.41 6.95-1.74 10.33-2.58 29.1-6.7 58.15-13.59 87.24-20.32.41-1.91.8-3.81 1.27-5.7 1.61-.21 3.23-.24 4.85-.23Z"/></g></g><g transform="translate(-161 -83)"><path d="M505.02 633.16c9.06.53 16.84 6.73 24.11 11.4-13.09-.12-26.35 2.18-38.98 5.54-9.44 2.61-18.6 6-27.08 10.96 3.26-8.09 7.87-18.07 16.6-21.4 4.01-1.93 7.71-1.13 11.94-.82 3.92-3.32 8-6.13 13.41-5.68Z" fill="#D31E1E"/><path d="M529.13 644.56c2.47.19 4.68 1.43 3.9 4.25-1.38 2.08-4.46 1.3-6.64 1.51-14.91.63-29.68 3.43-43.79 8.28-4.83 1.7-9.55 3.58-13.94 6.24-2 .93-3.37 2.59-5.67 1.42-2.15-1.55-1.16-3.48.08-5.2 8.48-4.96 17.64-8.35 27.08-10.96 12.63-3.36 25.89-5.66 38.98-5.54Z" fill="#000"/><path d="M526.39 650.32c-5.37 9.11-14.18 15.95-24.48 18.5-11.01 3.05-23.17 1.14-33.25-3.98 4.39-2.66 9.11-4.54 13.94-6.24 14.11-4.85 28.88-7.65 43.79-8.28Z" fill="#D31E1E"/></g><g transform="translate(-161 -83)"/><g transform="translate(-161 -83)"><path d="M484 203.33c31.29-2.08 63.42.11 93.86 7.88 21.56 5.49 42.28 13.94 60.91 26.19 23.4-3.86 47.88.89 69.41 10.37 23.12 10.4 43.83 26.51 60.17 45.85 20.85 24.69 35.23 55.1 38.76 87.38.95 12.2.85 25-1.78 36.99-3.78 18.28-12.57 35.32-26.18 48.2-1.82 1.55-3.02 2.25-5.31.99-14.99-8.28-33.71-8.66-49.62-2.89.98 10.55.3 20.85-4.48 30.47-3.28 6.59-8.89 12.66-15.72 15.6-2.72.9-4.6-1.33-3.52-3.92 3.27-8.18 3-16.77 2.8-25.44-.44-7.85-1.2-15.78-2.88-23.46-7.63.85-15.3.3-22.52-2.41-14.89-5.33-27.38-16.81-37.06-29.03-11.73-14.89-20.51-31.76-27.71-49.24-9.49-23.3-16.01-48.04-20.26-72.81-.69-3.84-.89-7.63-2.11-11.36-20.22-1.09-40.52-1.06-60.76-.37-21.77 1.3-43.45 3.39-64.97 6.93-32.55 5.34-65.57 13.27-96.19 25.67-2.58 1.08-5.01 1.84-6.93 4-6.12 6.58-11.48 14.12-16.26 21.73a258.623 258.623 0 0 0-27.01 59.16c-1.07 3.17-1.51 6.79-3.14 9.7-1.4 1.6-3.41 1.03-4.84-.19-12.99-11.2-23.7-25.13-29.72-41.29-4.68-12.69-6.28-26.46-4.45-39.87 2.63-19.03 11.35-36.55 23.18-51.51 18.98-24.07 45.92-42.47 73.52-55.33 34.62-16.21 72.77-25.18 110.81-27.99Z" fill="#000"/><path d="M516.99 208.52c7.67.67 15.35.68 23 1.75 33.2 3.71 67.56 13.49 95.62 32.08.77.48 1.57.87 2.41 1.17 16.25-3.42 33.91-1.59 49.78 2.96 30.6 8.97 57.12 27.97 77.37 52.39 16.77 20.38 29.32 45.13 34.34 71.12 3.13 16.62 3.5 33.55-.67 50.03-3.76 15.64-11.64 30.17-23.15 41.46-15.86-8.13-35.46-8.95-52.2-3.13-2.06.89-5.57 1.75-5.38 4.58 2.09 12.92-.03 27.98-9.67 37.59 1.68-15.13.45-30.63-2.52-45.52-.7-2.94-1.79-3.79-4.91-3.38-8.98 1.36-17.65-.13-25.83-3.94-11.09-5.17-20.71-14.08-28.38-23.49-12.29-15.07-21.65-33.04-28.86-51.04-9.99-25.05-16.61-51.51-20.61-78.15-.54-2.21.24-6.75-2.47-7.6-7.25-.74-14.58-.79-21.85-1.44-13.65.03-27.4-.55-41.01.65-12.68.38-25.4 1.41-38 2.85-26.88 2.95-53.71 7.68-79.89 14.49-19.93 5.25-39.94 11.81-58.66 20.51-11.33 5.32-22.72 11.66-32.4 19.65-6.3 5.29-12.33 11.65-15.53 19.34-.66 1.84-1.64 3.79-.85 5.74 1.79 2.08 4.64 1.44 5.38-1.21 1.99-5.63 5.27-10.27 9.45-14.47 8.11-8.27 18.65-14.73 28.85-20.09-3.96 5.14-7.57 10.45-10.92 16.01-11.9 19.69-21.34 40.94-27.77 63.04-11.05-10.41-20.1-22.43-25.35-36.78-6.99-18.75-5.76-40.16 1.94-58.51 7.92-19.31 22.32-36.42 38.23-49.72 15.57-13.11 33.49-23.75 52-32.14 32.2-14.54 67.35-23.05 102.53-25.87 12.05-.64 23.89-1.8 35.98-.93Z" fill="rgba(121, 106, 69, 1)"/></g></g></svg>