<svg xmlns:dc="http://purl.org/dc/elements/1.1/" xmlns:cc="http://creativecommons.org/ns#" xmlns:rdf="http://www.w3.org/1999/02/22-rdf-syntax-ns#" xmlns:svg="http://www.w3.org/2000/svg" xmlns="http://www.w3.org/2000/svg" viewBox="0 0 762 762" fill="none"><metadata><rdf:RDF><cc:Work><dc:format>image/svg+xml</dc:format><dc:type rdf:resource="http://purl.org/dc/dcmitype/StillImage"/><dc:title>Adventurer</dc:title><dc:creator><cc:Agent><dc:title>Lisa Wischofsky</dc:title></cc:Agent></dc:creator><dc:source>https://www.instagram.com/lischis_adventures/</dc:source><cc:license rdf:resource="https://creativecommons.org/licenses/by/4.0/"/></cc:Work><cc:License rdf:about="https://creativecommons.org/licenses/by/4.0/"><cc:permits rdf:resource="https://creativecommons.org/ns#Reproduction"/><cc:permits rdf:resource="https://creativecommons.org/ns#Distribution"/><cc:permits rdf:resource="https://creativecommons.org/ns#DerivativeWorks"/><cc:requires rdf:resource="https://creativecommons.org/ns#Notice"/><cc:requires rdf:resource="https://creativecommons.org/ns#Attribution"/></cc:License></rdf:RDF></metadata><mask id="avatarsRadiusMask"><rect width="762" height="762" rx="0" ry="0" x="0" y="0" fill="#fff"/></mask><g mask="url(#avatarsRadiusMask)"><path d="M396.01 164.85c37.82 4.9 74.21 19.64 104.8 42.39 6.15 4.84 12.48 9.33 18.02 14.92 23.77 21.98 42.73 49.02 55.13 78.95 9.35 22.31 14.72 46.04 16.64 70.14 6.62.81 13.05 2.14 19.12 5 15.54 6.93 27.08 20.94 31.78 37.21 2.63 9.56 3.56 19.75 1.72 29.55-2.96 18.76-13.72 36.13-29.37 46.92-10.94 7.65-24.49 12.03-37.86 11.68-5.13-.05-10.04-1.6-15.13-1.79-1.85 2.17-3.23 4.84-4.76 7.25-18.66 29.62-44.57 54.51-74.64 72.4-28.1 16.73-59.9 27.16-92.46 30.32-11.08.7-21.87 2.05-32.98.74-51.69-2.3-102.07-23.44-140.15-58.43-29.03-26.55-50.84-60.83-62.54-98.39-7.09-22.85-10.62-46.78-10.07-70.71.52-40.34 12.53-80.58 33.94-114.76 19.1-30.81 45.91-56.58 77.2-74.83 29.63-17.28 63.35-27.68 97.59-29.87 14.66-1.47 29.44-.37 44.02 1.31Z" fill="#000"/><path d="M363 169.06c48.47-1.39 97.32 14.7 135.81 44.12 6.55 4.06 11.72 9.49 17.36 14.64 24.33 22.63 43.2 50.95 54.93 82.02 7.43 19.61 11.86 40.2 13.56 61.09-8.89.74-17.34 2.34-25.38 6.38-2.19 1.03-1.89 4.95.68 5.23 2.35.23 4.98-1.51 7.24-2.2 14.62-5.37 31.32-4.35 44.78 3.68 11.69 6.78 20.09 18.16 23.89 31.06 2.6 8.25 2.68 17.41 1.76 25.95-2.5 17.35-12.35 33.73-26.73 43.81-15.71 11.33-37.17 14.64-54.93 6.2-3.17-1.43-5.94-3.58-9.08-5.05-2.95-1.09-4.88 2.79-2.7 4.75 3.17 2.76 7.34 4.52 11 6.56-20.14 34.15-49.45 62.7-84.41 81.47-30.2 16.31-64.44 25.53-98.78 26.15-27.63.72-55.33-4.04-81.21-13.72-30.32-11.24-57.84-29.43-80.37-52.6-22.67-23.37-39.92-51.88-50.2-82.77-14.96-44.64-14.91-94.01.27-138.59 11.05-33.06 30.28-63.21 55.37-87.39 29.67-28.73 67.65-48.54 108.13-56.67 12.8-2.52 25.94-4.24 39.01-4.12Z" fill="rgba(236, 173, 128, 1)"/><path d="M605.03 404.4c2.63-.1 3.44 3.8 1.36 4.98-3.69 1.83-7.82 2.77-11.64 4.35-5.82 2.04-11.28 4.76-16.68 7.72 4.29 2.34 8.86 4.74 12.71 7.76 2.58 2.09 4.85 4.35 5.33 7.8-.26 3.59-2.73 6.55-5.45 8.69-5.86 4.66-13.92 7.18-20.79 10.26-1.75.62-4.43 1.99-5.59-.26-1.02-1.74-.06-3.11 1.57-3.87 6.65-3.3 14.86-5.62 20.79-10.16 1.37-1.14 3.39-2.74 3.61-4.62-4.07-5.63-12.42-8.59-18.23-12.09-2.34-1.72-2.29-4.24-.16-6.13 7.27-5.64 16.98-9.26 25.57-12.38 2.42-.83 5.03-1.95 7.6-2.05Z" fill="#000"/><g transform="translate(-161 -83)"><g fill="#000"><path d="M619.86 481.79c.88.37 1.76.75 2.63 1.13-.12 1-.28 1.99-.47 2.98-2.21 3.85-5.93 6.93-9 10.11-5.85 5-12.25 9.47-19.16 12.88-14.05 7.01-30.23 9.88-45.84 8.4-19.45-1.64-38.43-9.82-54.21-21.1-1.39-1.13-2.87-1.98-2.46-4.04.53-2.48 3.96-3.31 6.11-2.45 21.21 6.28 42.63 6.72 64.55 5.45 16.26-1.55 32.06-4.27 47.52-9.68 3.54-1.21 6.78-2.79 10.33-3.68ZM440.55 492.43c2.8 1.36 2.21 4.42.14 6.19-10.83 9.97-25.3 16.29-39.72 18.8-7.78.99-15.1 2.3-22.95 1.12-13.82-1.06-27.27-5.1-39.01-12.53-2.15-1.4-4.67-2.9-6.19-5-.62-2.53.72-3.88 3.14-4.18 2.71.28 5.43 1.35 8.08 2.03 7.56 2.13 15.22 3.03 23.01 3.79 21.44 1.58 43.68-.86 64.15-7.53 2.94-.78 6.3-2.97 9.35-2.69Z"/></g></g><g transform="translate(-161 -83)"><g fill="#000"><path d="M501.99 384.96c9.91.12 19.87 3.23 28.83 7.31 3.36 1.88 7.05 4.01 7.31 8.29-5.14-.86-10.14-2.06-15.38-2.28-11.6-.68-23.13 1.36-33.25 7.23-2.54 1.41-4.95 3.26-7.64 4.35-1.8.27-3.92-1.99-3.94-3.73-.18-5.81 1.95-11.92 6.53-15.7 5.03-4.23 11.15-5.3 17.54-5.47ZM414.03 402.61c5.81.15 10.93 5.3 12.51 10.64.8 2.63-.46 5.72-3.53 5.61-8.82.21-18.21.03-26.81 2.26-7.52 2.01-14.74 6.71-21.36 10.74-1.22.81-2.57.96-3.98 1.22.33-1.93.64-3.66 1.94-5.21 3.28-4.33 6.78-8.58 10.74-12.3 5.88-5.17 13.01-8.96 20.32-11.66 3.23-1.11 6.76-1.58 10.17-1.3Z"/></g></g><g transform="translate(-161 -83)"><path d="M521.18 567.25c1.55-.38 3.33-1 4.93-.74 2 .78 2.03 3.01 1.04 4.64-4.12 2.62-10 2.81-14.26 4.89 3.42 13.46 3.76 27.49.01 40.93-3.27 12.19-10.22 24.02-20.72 31.3-7.05 4.98-15.6 7.41-24.21 6.54-11.52-1.1-21.7-8.19-28.53-17.28-9.5-12.6-13.35-27.92-13.48-43.53.34-5.62.98-11.21 2.11-16.73-2.4-.78-5.59-1.13-7.5-2.84-.56-1.23-.2-2.85-.25-4.18 4.52-.02 8.3 1.66 12.66 2.56 29.55 5.95 59.49 3.04 88.2-5.56Z" fill="#000"/><path d="M506.94 577.11c5.23 17.71 3.27 38.43-6.69 54.17-4.13 6.48-9.68 11.96-16.73 15.17-7.99 3.73-17.56 3.43-25.4-.56-8.06-4.01-14.57-11.41-18.7-19.31-7.58-14.67-9.44-32.01-5.52-48.03 10.46 2.49 21.07 3.05 31.77 3.27-1 6.74-.96 13.39-1.18 20.18.01 1.91-.16 4.09.49 5.92 1.1 1.71 4.66 1.2 4.76-1.06.58-8.41-.13-16.75 1.51-25.13 11.98-.25 23.98-2.21 35.69-4.62Z" fill="#EA869E"/></g><g transform="translate(-161 -83)"/><g transform="translate(-161 -83)"><path d="M533.01 175.26c23.79.4 48.51 3.65 71.01 11.66 16.28 5.8 32.62 14.77 43.97 28.07 6.13 7.04 10.29 15.4 12.77 24.37 26.04 6.78 50.37 18.83 71.81 35.04 49.83 37.41 84.55 96.19 89.82 158.61 2.6 30.92-2.24 62.17-16.5 89.91-1.81 3.38-2.39 6.97-3.35 10.62-4.2 15.65-13.91 29.38-26.93 38.95-2.36 11.63-1.97 23.5 2.31 34.64 2.85 7.25 7.24 13.73 13.81 18.08 2.05 1.64 4.85 2.6 3.56 5.85-1.57 1.83-4.17 2.94-6.32 3.95-14.85 6.65-32.54 7.16-48.14 3.08-14.18-3.72-28.32-12.01-36.62-24.34-1.67-2.67-3.76-5.61-4.36-8.75.64-1.66 1.72-2.96 2.8-4.34 5.2-6.3 9.69-13.22 13.38-20.49-3.73-2.09-8.3-3.89-11.29-7-1.36-2.09.55-5.19 3.1-4.13 4.79 2.28 8.88 5.59 14.09 7.19 7.39 2.17 15.45 3.26 23.1 2.15 12.84-1.46 24.66-7.53 34-16.35 10.26-9.82 17.24-23.03 19.49-37.06 1.43-10.89.82-21.85-3.43-32.08-5.8-14.6-18.04-26.28-33.18-30.74-9.62-2.99-19.86-2.7-29.56-.21 4.92 18.06.49 38.38-7.43 54.98-5.61 11.62-13.76 23.08-24.33 30.68-5.76 4.13-13.45 7.21-20.62 6.39-2.37-.47-5.4-.87-4.85-4.07 1.74-2.24 4.67-3.08 6.51-5.32 2.67-3.28 4.13-7.77 5.15-11.82 1.94-8.83 2.32-17.77 1.99-26.78-.94-14.5-2.83-28.73-6.33-42.84-.29-1.65-1.7-1.78-2.96-2.52-12.44-5.32-22.68-14.52-31.33-24.75-11.18-13.42-19.92-29.16-27-45.07-13.4-30.56-21.33-62.1-27.42-94.79-13.56-6.19-28.09-10.34-42.77-12.8-7.48-1.19-15.2-1.72-22.76-1.03-2.69.21-5.01 1.33-7.32 2.63 1.43 2.05 2.66 4.02 4.66 5.57 2.2 1.83 4.94 3.07 6.99 5.06 1.73 1.76-.11 4.93-2.49 4.43-3.42-.63-6.69-2.01-10.07-2.84-15.22-3.93-30.77-6.47-46.48-7.17-11.57-1.29-22.92-.21-34.46.67-16.18 1.69-32.08 5.24-47.27 11.08-2.85 1.07-5.4 2.47-7.69 4.48-15.87 13.64-29.35 29.7-40.62 47.31-9.21 14.62-17.22 30.43-22.03 47.07-7.15 20.98-11.09 43.36-11.29 65.51-1.03 42.68 11.29 85.64 34.33 121.55 18.3 28.74 43.5 52.84 72.79 70.2 2.67 1.67 5.97 2.93 8.2 5.17 1.41 12.11-5.17 23.8-15.12 30.4-14.9 9.99-34.66 9.57-49.98.69-.65 13.6-6 26.36-14.26 37.05-7.52 9.63-18.06 17.89-29.97 21.13-2.07.46-4.11 1.3-5.85-.43-2.19-1.64-.86-5.4-.97-7.77.74-9.31-3.89-17.4-10.42-23.64-5.82 9.01-14.24 15.51-24.2 19.37-21.67 8.36-47.89 4.96-66.63-8.8-9.32-6.84-16.65-16.67-18.95-28.14-.59-2.53.27-4.97 1.75-7.01 4.39-.53 8.47.25 12.82-1.11 9.84-2.82 17.45-11.05 22.16-19.85 7.35-13.64 8.84-29.22 6.22-44.35-21.12-4.51-40.97-13.94-57.08-28.41-15.78-14.09-27.49-32.59-32.96-53.06-5.56-20.24-5-41.79 1.13-61.84 7.79-25.79 24.17-48.1 45.48-64.41-6.18-15.59-2.37-32.35 5.58-46.51 10.11-18 26.44-32.56 45.48-40.53 10.55-4.39 21.99-6.15 33.33-4.41-1.57-8.65-1.73-17.42.28-26.01 3.14-13.78 10.56-26.67 19.45-37.54 12-14.8 27.4-27.29 43.23-37.77 25.01-16.33 52.96-28.68 81.43-37.6 37.3-11.59 76.51-17.88 115.61-17.11Z" fill="#000"/><path d="M557.029 182.49c22.55 2.54 46.19 8.09 65.98 19.54 12.59 7.41 24.02 17.66 29.61 31.45 1.5 3.38 1.9 7.08 3.27 10.48 3.28 1.38 6.95 1.82 10.34 2.95 37.11 11.12 70.57 33.79 96.07 62.79 26.25 29.8 44.85 66.4 51.98 105.56 5.74 31.77 3.53 65.88-9.14 95.79-.87-5.97-1.54-11.81-3.62-17.52-4.99-14.49-15.5-26.88-29.37-33.57-13.66-6.69-29.54-7.44-43.98-2.85-1.49.35-2.56 1.2-2.12 2.87 1.45 6.67 3.01 13.12 2.64 20.02-.98 17.29-7.28 34.34-17.28 48.43-6.43 8.85-14.2 16.29-24.85 19.65 5.32-8.19 6.98-17.45 7.71-27.04.3-8.32.34-16.72-.42-25.01-1.39-12.24-3.15-24.68-6.49-36.55-.62-2.72-2.95-2.85-5.11-3.96-11.05-4.56-20.34-12.68-28.17-21.56-11.87-13.81-20.52-29.54-27.88-46.12-11.89-27.16-19.79-56.57-25.36-85.64-.67-3.19-.86-6.81-2.23-9.78-1.53-1.78-3.61-3.15-5.46-4.6-30.03-23.53-64.56-43.76-101.39-54.37-22.88-6.59-47.01-9.64-70.76-6.96-22.95 2.42-44.75 10.58-63.6 23.88-15.66 11.73-27.95 27.74-35.4 45.82-.59 1.65-1.06 4.24 1.14 4.87 1.9 1.16 3.93-1.98 4.54-3.49 4.24-9.82 9.74-19.03 16.7-27.17 9.68-11.5 22.61-20.49 36.17-26.85 16.73-7.83 34.99-11.75 53.42-12.26 28.59-.78 56.36 6.15 82.57 17.15 21.79 9.2 42.42 21.2 61.48 35.19-12.45-3.8-25.02-6.61-38.03-7.55-5.85-.3-12.48-.4-18.07 1.57-2.66.93-4.96 2.59-6.05 5.25-.78 2.81.34 4.98 1.24 7.56-38.87-9.55-81.35-9.46-119.6 2.9-5.17 1.57-10.09 2.15-14.27 5.87-20.63 17.13-38.22 38.49-51.04 62.04-8.38 14.01-14.53 29.46-18.81 45.2-8.17 27.5-10.85 56.49-8.15 85.04 3.19 33.24 13.89 65.53 31.16 94.11 20.29 33.59 49.23 61.51 83.64 80.42-.52 8.27-4.06 15.31-10.46 20.58-12.99 10.72-33.09 10.82-47 1.8-2.04-1.11-3.62-2.8-6.12-1.92-2.16.59-1.92 3.76-1.98 5.49 0 11.83-4.25 22.93-10.89 32.58-7.06 10.01-16.55 18.2-28.4 21.85.52-7.7-.95-14.9-5.06-21.47-2.72-4.23-6.38-9.06-11.05-11.21-3.89-.2-5.11 3.72-7.14 6.25-8.68 11.85-23.72 17.4-37.93 18.42-16.81.93-34.87-4.47-47.26-16.17-6.13-5.74-10.24-12.61-12.08-20.84 4.93-.02 9.72-.41 14.27-2.47 12-5.09 20.33-16.12 25.08-27.94 4.78-12.27 6.46-26.01 4.1-39.01-.39-2.01-.49-4.59-1.71-6.31-2.07-.89-4.44-1.2-6.63-1.72-20.5-4.83-39.82-15.03-54.83-29.89-12.63-12.41-22.04-28.04-26.93-45.07-6-20.51-5.19-43.02 1.64-63.23 7.27-21.86 21.4-41.43 39.31-55.83 1.88-1.6 4.39-3.01 5.75-5.09.57-3.2-1.82-6.74-2.47-9.88-2.81-11.75.85-24.03 6.23-34.49 8.54-16.01 22.46-29.21 38.69-37.27 12.12-5.82 25.66-9.11 38.89-5.09 1.9.75 3.86-.04 4.25-2.1-.19-1.65-.73-3.29-1.14-4.91-2.31-8.06-2.05-16.97-.09-25.08 2.93-12.24 9.27-23.13 16.94-33 10.9-13.91 24.84-25.68 39.35-35.67 21.6-14.69 45.59-26.09 70.16-34.87 21.36-7.53 43.28-13.27 65.65-16.84 28.33-4.69 57.26-6.23 85.85-3.15ZM768.9 576.63c-.62 8.62-.86 16.92 1.35 25.35 2.58 10.94 8.22 20.45 17.01 27.52-17.31 7.7-37.91 6.99-55.13-.59-10.84-4.82-20.62-12.51-25.97-23.29 5.78-7.29 11.01-14.96 15.18-23.3 4.56.7 9.06 2.06 13.66 2.35 11.81.44 23.51-2.45 33.9-8.04Z" fill="rgba(219, 163, 190, 1)"/></g></g></svg>