<svg xmlns:dc="http://purl.org/dc/elements/1.1/" xmlns:cc="http://creativecommons.org/ns#" xmlns:rdf="http://www.w3.org/1999/02/22-rdf-syntax-ns#" xmlns:svg="http://www.w3.org/2000/svg" xmlns="http://www.w3.org/2000/svg" viewBox="0 0 762 762" fill="none"><metadata><rdf:RDF><cc:Work><dc:format>image/svg+xml</dc:format><dc:type rdf:resource="http://purl.org/dc/dcmitype/StillImage"/><dc:title>Adventurer</dc:title><dc:creator><cc:Agent><dc:title>Lisa Wischofsky</dc:title></cc:Agent></dc:creator><dc:source>https://www.instagram.com/lischis_adventures/</dc:source><cc:license rdf:resource="https://creativecommons.org/licenses/by/4.0/"/></cc:Work><cc:License rdf:about="https://creativecommons.org/licenses/by/4.0/"><cc:permits rdf:resource="https://creativecommons.org/ns#Reproduction"/><cc:permits rdf:resource="https://creativecommons.org/ns#Distribution"/><cc:permits rdf:resource="https://creativecommons.org/ns#DerivativeWorks"/><cc:requires rdf:resource="https://creativecommons.org/ns#Notice"/><cc:requires rdf:resource="https://creativecommons.org/ns#Attribution"/></cc:License></rdf:RDF></metadata><mask id="avatarsRadiusMask"><rect width="762" height="762" rx="0" ry="0" x="0" y="0" fill="#fff"/></mask><g mask="url(#avatarsRadiusMask)"><path d="M396.01 164.85c37.82 4.9 74.21 19.64 104.8 42.39 6.15 4.84 12.48 9.33 18.02 14.92 23.77 21.98 42.73 49.02 55.13 78.95 9.35 22.31 14.72 46.04 16.64 70.14 6.62.81 13.05 2.14 19.12 5 15.54 6.93 27.08 20.94 31.78 37.21 2.63 9.56 3.56 19.75 1.72 29.55-2.96 18.76-13.72 36.13-29.37 46.92-10.94 7.65-24.49 12.03-37.86 11.68-5.13-.05-10.04-1.6-15.13-1.79-1.85 2.17-3.23 4.84-4.76 7.25-18.66 29.62-44.57 54.51-74.64 72.4-28.1 16.73-59.9 27.16-92.46 30.32-11.08.7-21.87 2.05-32.98.74-51.69-2.3-102.07-23.44-140.15-58.43-29.03-26.55-50.84-60.83-62.54-98.39-7.09-22.85-10.62-46.78-10.07-70.71.52-40.34 12.53-80.58 33.94-114.76 19.1-30.81 45.91-56.58 77.2-74.83 29.63-17.28 63.35-27.68 97.59-29.87 14.66-1.47 29.44-.37 44.02 1.31Z" fill="#000"/><path d="M363 169.06c48.47-1.39 97.32 14.7 135.81 44.12 6.55 4.06 11.72 9.49 17.36 14.64 24.33 22.63 43.2 50.95 54.93 82.02 7.43 19.61 11.86 40.2 13.56 61.09-8.89.74-17.34 2.34-25.38 6.38-2.19 1.03-1.89 4.95.68 5.23 2.35.23 4.98-1.51 7.24-2.2 14.62-5.37 31.32-4.35 44.78 3.68 11.69 6.78 20.09 18.16 23.89 31.06 2.6 8.25 2.68 17.41 1.76 25.95-2.5 17.35-12.35 33.73-26.73 43.81-15.71 11.33-37.17 14.64-54.93 6.2-3.17-1.43-5.94-3.58-9.08-5.05-2.95-1.09-4.88 2.79-2.7 4.75 3.17 2.76 7.34 4.52 11 6.56-20.14 34.15-49.45 62.7-84.41 81.47-30.2 16.31-64.44 25.53-98.78 26.15-27.63.72-55.33-4.04-81.21-13.72-30.32-11.24-57.84-29.43-80.37-52.6-22.67-23.37-39.92-51.88-50.2-82.77-14.96-44.64-14.91-94.01.27-138.59 11.05-33.06 30.28-63.21 55.37-87.39 29.67-28.73 67.65-48.54 108.13-56.67 12.8-2.52 25.94-4.24 39.01-4.12Z" fill="rgba(118, 57, 0, 1)"/><path d="M605.03 404.4c2.63-.1 3.44 3.8 1.36 4.98-3.69 1.83-7.82 2.77-11.64 4.35-5.82 2.04-11.28 4.76-16.68 7.72 4.29 2.34 8.86 4.74 12.71 7.76 2.58 2.09 4.85 4.35 5.33 7.8-.26 3.59-2.73 6.55-5.45 8.69-5.86 4.66-13.92 7.18-20.79 10.26-1.75.62-4.43 1.99-5.59-.26-1.02-1.74-.06-3.11 1.57-3.87 6.65-3.3 14.86-5.62 20.79-10.16 1.37-1.14 3.39-2.74 3.61-4.62-4.07-5.63-12.42-8.59-18.23-12.09-2.34-1.72-2.29-4.24-.16-6.13 7.27-5.64 16.98-9.26 25.57-12.38 2.42-.83 5.03-1.95 7.6-2.05Z" fill="#000"/><g transform="translate(-161 -83)"><path d="M556 424.07c14.74-.22 29.47 4.69 41.05 13.82 18.48 14.28 28.19 38.59 24.23 61.66-.97 7.55-3.91 14.28-6.79 21.23-1.41.65-2.88 1.52-4.42 1.77-2.33.07-4.8-.91-7.04-1.55-15.9-4.89-32.42-7.29-49.03-7.62-15.06.4-29.61 2.56-43.09 9.64-3.06 1.28-5.83 4.03-8.97 1.26-8.58-12.42-11.56-28.46-9.81-43.32 1.88-14.82 8.94-28.76 19.83-39 11.84-11.27 27.69-17.72 44.04-17.89Z" fill="#000"/><path d="M557 429.85c13.7-.2 27.09 4.84 37.68 13.45 9.3 7.59 16.22 18.13 19.44 29.7 4.21 14.33 2.58 30.26-4.3 43.51-5.35-.61-10.17-2.65-15.46-3.78-16.05-3.75-32.92-5.8-49.39-4.47-14.09.98-26.96 4.71-39.29 11.59-7.06-12.12-10.21-26.98-7.46-40.82 2.58-15.15 11.3-29.08 23.8-38.03 10.11-7.24 22.5-11.37 34.98-11.15Z" fill="#fff"/><path d="M381.31 447.08c12.98-1.32 26.32 2.09 37.02 9.56 12.03 8.29 20.42 21.5 22.82 35.91 1.2 8.25.97 17.09-1.57 25.09-4.48 15.26-15.89 28.16-30.47 34.49-12.99 5.78-28.14 6.16-41.44 1.18-11.33-4.19-21.14-12.24-27.48-22.52-5.05-8.05-7.68-17.27-8.31-26.71-.33-12.56 3.39-25.14 10.99-35.21 9.07-12.24 23.28-20.27 38.44-21.79Z" fill="#000"/><path d="M376.49 453.67c18.14-4.16 37.8 3.04 49.17 17.7 8.71 11.04 12.73 26.33 9.55 40.13-1.95 9.98-7.12 19.22-14.55 26.16-8.03 7.65-18.6 12.27-29.63 13.27-19.64 1.82-39.23-9.24-48.03-26.86-7.99-15.54-6.9-34.79 2.78-49.34 7-10.7 18.2-18.4 30.71-21.06Z" fill="#fff"/><path d="M519.39 474.75c8.57-2.25 17.85 3.55 19.35 12.31 1.85 8.26-3.88 16.87-12.14 18.52-9.15 2.29-18.91-5.05-19.05-14.53-.72-7.51 4.64-14.5 11.84-16.3ZM403.4 485.62c6.37-2.18 13.28.49 17.27 5.71 4.54 5.93 4.18 14.9-1.03 20.31-5.02 5.79-14.49 6.76-20.65 2.39-4.26-2.85-6.94-7.87-6.92-13-.26-6.95 4.69-13.5 11.33-15.41Z" fill="#000"/></g><g transform="translate(-161 -83)"><g fill="#000"><path d="M397.06 373.14c6.81.19 14.18 2.86 17.93 8.88 1.05 1.45.63 3.68.72 5.4-6.29.15-12.49.33-18.64 1.83-15.06 3.48-29.35 10.86-41.64 20.15-8.37 6.38-16.34 14.1-21.95 23.07-1.43 2.22-2.41 5.03-4.29 6.89-1.24.26-2.57.28-3.83.35-.05-1.77-.23-3.46.21-5.19 5.72-20.86 19.83-39.34 38.12-50.81 9.83-5.84 21.73-11.05 33.37-10.57ZM578.52 411.66c10.41 1.67 21.2 3.85 30.01 9.97l-.21 4.78c-4.07 1.59-7.29-.15-11.31-.78-6.82-1.2-13.91-1.25-20.83-1.11-29.25 1.32-58.23 9.89-83.97 23.74-1.45.63-2.92 1.06-4.42 1.54-2.58-5.36-3.61-10.91-.13-16.17 5.13-7.67 15.2-12.39 23.63-15.44 21.34-7.36 44.88-9 67.23-6.53Z"/></g></g><g transform="translate(-161 -83)"><path d="M516.47 555.6c6.02 4.43 11.7 10.01 15.3 16.62 2.64 4.83 3.27 11.66-.42 16.13-4.14 5.37-11.49 7.58-17.88 8.76-15.67 2.47-31.9.95-47.46-1.59-5.74-1.12-10.18 1.62-16 2.54-8.7 1.59-18.36 2.92-27.06 1-5.13-1.02-10.28-3.2-13.34-7.65-2.78-3.87-2.64-9.34-1.12-13.67 1.56-4.12 4.13-7.95 7.04-11.24 1.33-1.74 3.08-1.01 4.97-1.12.3 1.84 1.06 3.23-.36 4.82-2.61 3.34-5.24 6.37-6.44 10.55-1.12 3.27-.33 6.93 2.4 9.14 3.03 2.37 7.16 3.47 10.93 3.87 7.78.5 15.57.14 23.16-1.73 5.6-1.06 9.96-3.57 15.81-2.51 12.03 1.93 23.78 3.45 36.01 2.81 6.91-.23 13.95-1.07 20.26-4.11 3.23-1.78 6.04-4.15 5.68-8.22-.27-6.05-6.07-11.79-10.25-15.7-2.5-2.65-6.66-4.09-6.02-8.36 1.79-.89 2.95-1.8 4.79-.34Z" fill="#000"/></g><g transform="translate(-161 -83)"/><g transform="translate(-161 -83)"><path d="M561.98 243.31c21.23 2.34 42.86 6.05 63.28 12.4 6.74 2.26 13.88 4.45 20.02 8.06 2.3 1.32.95 3.44-.34 4.94-4.83-1.56-9.35-3.9-14.17-5.5-13.7-4.75-28.06-7.81-42.32-10.35-15.88-2.84-31.99-4.79-48.11-5.34-23.62-1.23-47.3-.15-70.55 4.36-8.27 1.49-16.45 3.43-24.58 5.57-5.58 1.48-10.96 3.38-16.71 4.17-.47-2.51-1.79-4.51 1.29-5.74 18.39-5.59 37.13-9.95 56.23-12.32 25.27-3.25 50.65-2.83 75.96-.25Z" fill="#000"/><path d="M540.34 247.52c16.12.55 32.23 2.5 48.11 5.34 14.26 2.54 28.62 5.6 42.32 10.35 4.82 1.6 9.34 3.94 14.17 5.5 3.72 1.42 7.34 3.25 10.53 5.64 7.29 5.88 14.76 9.98 20.17 18.05 4.36 6.11 5.94 13.33 5.28 20.77.27.68.54 1.37.8 2.05 4.51 1.4 8.74 2.2 12.75 4.34 6.99 3.64 12.76 9.23 17.64 15.35 6.23 8.13 11.33 17.19 15.42 26.57 12.4 28.95 17.9 61.41 19.33 92.73-6.32-.01-12.55.97-18.39 3.44-1.97.69-4.01 1.25-6.02 1.85 1.03-1.33 2.91-2.54 1.2-4.24-1.08-1.43-2.37-1-3.82-.51-12.94 5.11-22.91 13.8-32.65 23.47-.98.93-1.27 2.11-1.68 3.34-1.11-2.07-2.03-4.29-2.92-6.47 3.07-2.7 3.48-7.8 4.61-11.6 3.58-15.4 5.92-31.44 6.65-47.24 2.26-.25 4.81.78 5.45-2.2-.03-2.6-2.05-3.14-3.87-4.38-8.36-4.74-15.62-10.92-22.2-17.87-13.01-13.9-23.24-30.59-29.3-48.65-1.3-3.86-2.25-7.79-3.84-11.55-1.61-4.44-2.07-9.37-3.16-14-5.22-1.46-10.24-2.12-15.65-2.37-16.58-1.56-33.82-.08-50.44.34 9.68-1.36 19.4-2.96 28.95-5.07 2.4-.68 5.89-1.22 7.43-3.37 1.27-2.06.15-4.48-1.98-5.33-4.49-1.49-9.48-1.83-14.19-2.07-11.71-.3-23.32-1.26-35.04-.98-19.94-.26-39.88-.05-59.82-.3 13.19-1.9 26.15-5.54 39.31-7.7 9.66-1.58 19.23-3.67 28.9-5.17 11.56-.15 23.1.17 34.64.83 4.65.44 9.27 1.02 13.95.97.54-.88 1.08-1.76 1.62-2.63-1.04-1.3-1.61-2.52-3.42-2.76-6.81-1.48-14.23-1.23-21.18-1.59-13.29-.89-26.68-.55-40-.54-7.35-.07-14.65.72-22 .78-8.43.14-16.76 1.26-25.17 1.73-32.15 2.67-63.86 8.16-95.3 15.28 4.94-1.66 9.74-3.71 14.63-5.53 28.05-10.48 56.67-19.04 86.04-24.96 2.32-.64 5.72-.87 6.99-3.21.83-2.6-.57-4.03-3.1-4.21-17.01-.67-33.36.83-49.9 2.13-16.71 1.83-33.25 3.7-49.69 7.33-4.21.86-8.44 1.58-12.65 2.45 9.43-3.72 18.93-7.14 28.65-10.03 5.75-.79 11.13-2.69 16.71-4.17 8.13-2.14 16.31-4.08 24.58-5.57 23.25-4.51 46.93-5.59 70.55-4.36Z" fill="rgba(14, 14, 14, 1)"/><path d="M512.09 259.74c2.53.18 3.93 1.61 3.1 4.21-1.27 2.34-4.67 2.57-6.99 3.21-29.37 5.92-57.99 14.48-86.04 24.96-4.89 1.82-9.69 3.87-14.63 5.53 31.44-7.12 63.15-12.61 95.3-15.28 8.41-.47 16.74-1.59 25.17-1.73 7.35-.06 14.65-.85 22-.78 13.32-.01 26.71-.35 40 .54 6.95.36 14.37.11 21.18 1.59 1.81.24 2.38 1.46 3.42 2.76-.54.87-1.08 1.75-1.62 2.63-4.68.05-9.3-.53-13.95-.97-11.54-.66-23.08-.98-34.64-.83-23.1-.33-46.4 1.07-69.4 3.23-35.01 3.45-69.37 10.1-103.48 18.62-2.72.5-6.62 1.91-8.98-.08-.49-1.25-.79-3.41.47-4.31 3.28-2.56 7.52-4.02 11.27-5.79 28.42-12.38 57.92-22.32 87.92-30.09 2.58-.69 5.19-1.21 7.8-1.73-5.32.64-10.66.83-16 1.19-27.55 2.23-54.8 5.84-81.54 13.06-.92-1.62-2.11-2.56-1.49-4.59 2.55-1.97 5.83-2.67 8.89-3.44 4.21-.87 8.44-1.59 12.65-2.45 16.44-3.63 32.98-5.5 49.69-7.33 16.54-1.3 32.89-2.8 49.9-2.13ZM656.08 270.86c2.32-.28 3.81-.12 5.74 1.24 7.25 5.03 14.8 11.12 19.33 18.8 3.79 5.96 5.27 12.61 5.09 19.63 11.72 2.53 20.94 9.68 28.55 18.65 10.27 12.18 17.54 27.39 22.86 42.32 9.41 26.83 13.69 55.2 14.97 83.53.19 2.16-.6 3.94-2.79 4.49-3.93.19-7.73-.2-11.61.79-2.74.45-5.97 1.96-8.72 1.29-.42-1.29-.76-2.61-1.03-3.95 5.84-2.47 12.07-3.45 18.39-3.44-1.43-31.32-6.93-63.78-19.33-92.73-4.09-9.38-9.19-18.44-15.42-26.57-4.88-6.12-10.65-11.71-17.64-15.35-4.01-2.14-8.24-2.94-12.75-4.34-.26-.68-.53-1.37-.8-2.05.66-7.44-.92-14.66-5.28-20.77-5.41-8.07-12.88-12.17-20.17-18.05.14-1.17.34-2.33.61-3.49Z" fill="#000"/><path d="M478.16 298.5c5.98-.43 12.03.07 18.02-.05 19.94.25 39.88.04 59.82.3 11.72-.28 23.33.68 35.04.98 4.71.24 9.7.58 14.19 2.07 2.13.85 3.25 3.27 1.98 5.33-1.54 2.15-5.03 2.69-7.43 3.37-9.55 2.11-19.27 3.71-28.95 5.07 16.62-.42 33.86-1.9 50.44-.34 1.45.29 3.23.29 4.43 1.16.27 1.13.23 2.18-.12 3.17-1.35 1.16-2.93.74-4.59.79-24.87-1.12-49.22 1.18-74 2.5-3.93.24-8.03.64-11.95.13-2.6-.19-3.48-3.91-1.58-5.5 2.33-1.62 5.62-2.04 8.33-2.7 17.46-3.47 35.22-5.46 52.68-9-10.76-1.05-21.67-1.08-32.47-1.15-27.67-.57-55.39-.2-83.07-.54-1.3-.15-3.62-.3-3.67-2.02-.87-1.61 1.29-3.61 2.9-3.57ZM636.75 331.83c1.11-.08 2.22-.16 3.33-.23 1.59 3.76 2.54 7.69 3.84 11.55 6.06 18.06 16.29 34.75 29.3 48.65 6.58 6.95 13.84 13.13 22.2 17.87 1.82 1.24 3.84 1.78 3.87 4.38-.64 2.98-3.19 1.95-5.45 2.2-.73 15.8-3.07 31.84-6.65 47.24-1.13 3.8-1.54 8.9-4.61 11.6-1.09-.56-2.14-1.19-3.15-1.87-.2-2.35.4-4.48 1.01-6.72 3.23-11.12 5-22.86 6.75-34.31.72-6.62 1.54-13.4 1.12-20.06-6.2-4.15-11.91-8.98-17.18-14.26-15.82-16.09-27.82-36.16-34.23-57.81-.7-2.93-1.99-5.41-.15-8.23ZM723.65 455.26c1.71 1.7-.17 2.91-1.2 4.24-10.49 3.65-19.91 11.5-27.71 19.25-2.59 2.32-4.16 5.18-8.06 4.91l-1.18-2.1c.41-1.23.7-2.41 1.68-3.34 9.74-9.67 19.71-18.36 32.65-23.47 1.45-.49 2.74-.92 3.82.51ZM709.55 473.6c2.59-1.04 4.44.66 3.59 3.39-2.71 2.38-6.06 3.96-8.84 6.29-5.1 4.18-9.7 9.03-14.09 13.94-1.55 1.77-3.37 3.24-5.28 4.62-.8-.9-1.57-1.83-2.29-2.78-.09-2.29 2.21-4.21 3.59-5.84 6.77-7.11 14.46-15.2 23.32-19.62Z" fill="#000"/></g></g></svg>