<svg xmlns:dc="http://purl.org/dc/elements/1.1/" xmlns:cc="http://creativecommons.org/ns#" xmlns:rdf="http://www.w3.org/1999/02/22-rdf-syntax-ns#" xmlns:svg="http://www.w3.org/2000/svg" xmlns="http://www.w3.org/2000/svg" viewBox="0 0 762 762" fill="none"><metadata><rdf:RDF><cc:Work><dc:format>image/svg+xml</dc:format><dc:type rdf:resource="http://purl.org/dc/dcmitype/StillImage"/><dc:title>Adventurer</dc:title><dc:creator><cc:Agent><dc:title>Lisa Wischofsky</dc:title></cc:Agent></dc:creator><dc:source>https://www.instagram.com/lischis_adventures/</dc:source><cc:license rdf:resource="https://creativecommons.org/licenses/by/4.0/"/></cc:Work><cc:License rdf:about="https://creativecommons.org/licenses/by/4.0/"><cc:permits rdf:resource="https://creativecommons.org/ns#Reproduction"/><cc:permits rdf:resource="https://creativecommons.org/ns#Distribution"/><cc:permits rdf:resource="https://creativecommons.org/ns#DerivativeWorks"/><cc:requires rdf:resource="https://creativecommons.org/ns#Notice"/><cc:requires rdf:resource="https://creativecommons.org/ns#Attribution"/></cc:License></rdf:RDF></metadata><mask id="avatarsRadiusMask"><rect width="762" height="762" rx="0" ry="0" x="0" y="0" fill="#fff"/></mask><g mask="url(#avatarsRadiusMask)"><path d="M396.01 164.85c37.82 4.9 74.21 19.64 104.8 42.39 6.15 4.84 12.48 9.33 18.02 14.92 23.77 21.98 42.73 49.02 55.13 78.95 9.35 22.31 14.72 46.04 16.64 70.14 6.62.81 13.05 2.14 19.12 5 15.54 6.93 27.08 20.94 31.78 37.21 2.63 9.56 3.56 19.75 1.72 29.55-2.96 18.76-13.72 36.13-29.37 46.92-10.94 7.65-24.49 12.03-37.86 11.68-5.13-.05-10.04-1.6-15.13-1.79-1.85 2.17-3.23 4.84-4.76 7.25-18.66 29.62-44.57 54.51-74.64 72.4-28.1 16.73-59.9 27.16-92.46 30.32-11.08.7-21.87 2.05-32.98.74-51.69-2.3-102.07-23.44-140.15-58.43-29.03-26.55-50.84-60.83-62.54-98.39-7.09-22.85-10.62-46.78-10.07-70.71.52-40.34 12.53-80.58 33.94-114.76 19.1-30.81 45.91-56.58 77.2-74.83 29.63-17.28 63.35-27.68 97.59-29.87 14.66-1.47 29.44-.37 44.02 1.31Z" fill="#000"/><path d="M363 169.06c48.47-1.39 97.32 14.7 135.81 44.12 6.55 4.06 11.72 9.49 17.36 14.64 24.33 22.63 43.2 50.95 54.93 82.02 7.43 19.61 11.86 40.2 13.56 61.09-8.89.74-17.34 2.34-25.38 6.38-2.19 1.03-1.89 4.95.68 5.23 2.35.23 4.98-1.51 7.24-2.2 14.62-5.37 31.32-4.35 44.78 3.68 11.69 6.78 20.09 18.16 23.89 31.06 2.6 8.25 2.68 17.41 1.76 25.95-2.5 17.35-12.35 33.73-26.73 43.81-15.71 11.33-37.17 14.64-54.93 6.2-3.17-1.43-5.94-3.58-9.08-5.05-2.95-1.09-4.88 2.79-2.7 4.75 3.17 2.76 7.34 4.52 11 6.56-20.14 34.15-49.45 62.7-84.41 81.47-30.2 16.31-64.44 25.53-98.78 26.15-27.63.72-55.33-4.04-81.21-13.72-30.32-11.24-57.84-29.43-80.37-52.6-22.67-23.37-39.92-51.88-50.2-82.77-14.96-44.64-14.91-94.01.27-138.59 11.05-33.06 30.28-63.21 55.37-87.39 29.67-28.73 67.65-48.54 108.13-56.67 12.8-2.52 25.94-4.24 39.01-4.12Z" fill="rgba(242, 211, 177, 1)"/><path d="M605.03 404.4c2.63-.1 3.44 3.8 1.36 4.98-3.69 1.83-7.82 2.77-11.64 4.35-5.82 2.04-11.28 4.76-16.68 7.72 4.29 2.34 8.86 4.74 12.71 7.76 2.58 2.09 4.85 4.35 5.33 7.8-.26 3.59-2.73 6.55-5.45 8.69-5.86 4.66-13.92 7.18-20.79 10.26-1.75.62-4.43 1.99-5.59-.26-1.02-1.74-.06-3.11 1.57-3.87 6.65-3.3 14.86-5.62 20.79-10.16 1.37-1.14 3.39-2.74 3.61-4.62-4.07-5.63-12.42-8.59-18.23-12.09-2.34-1.72-2.29-4.24-.16-6.13 7.27-5.64 16.98-9.26 25.57-12.38 2.42-.83 5.03-1.95 7.6-2.05Z" fill="#000"/><g transform="translate(-161 -83)"><path d="M558.201 453.21c11.47-1.62 23.68.14 34 5.5 7.61 3.93 14.3 10.28 18.11 18 3.35 6.67 3.82 14.64 2.11 21.82-2.1 8.03-7.22 15.16-13.75 20.2-14.96 11.75-36.54 14.35-54.21 7.75-8.42-3.17-16.53-8.89-21.39-16.55-2.81-4.73-5.22-10.36-5.36-15.93-.71-9.54 3.61-19.3 10.27-26.02 8.05-8.38 18.87-12.97 30.22-14.77Z" fill="#000"/><path d="M559.17 459.11c13.97-2.02 29.72 1.64 39.88 11.85 6.6 6.52 10.35 16.95 7.62 26.05-2.06 8.19-7.68 14.49-14.53 19.15-12.44 8.19-28.98 10.02-43.11 5.63-8.63-2.71-17.05-8.19-21.69-16.11-3.02-5-4.14-10.9-3.59-16.69.76-6.83 4.53-13.12 9.38-17.85 7.05-6.72 16.44-10.78 26.04-12.03Z" fill="#fff"/><path d="M369.481 468.71c17.62-2.69 37.91 3.42 47.71 19.13 5.49 8.51 6.28 20 1.93 29.15-2.91 6.32-7.91 11.64-13.7 15.43-7.34 4.75-15.75 7.1-24.42 7.79-14.63.57-29.81-4.29-39.4-15.79-5.22-6.27-8.18-14.2-7.54-22.41.56-8.27 4.61-15.74 10.51-21.44 6.92-6.46 15.65-10.23 24.91-11.86Z" fill="#000"/><path d="M376.55 474.11c9.64-.35 19.56 2.27 27.37 8.02 5.14 3.82 9.44 9.18 11.19 15.41 1.61 6.2 1.04 12.92-2.15 18.54-4.72 8.62-13.66 14.22-22.97 16.71-13.7 3.71-30.16.71-40.8-8.99-6.28-5.66-10.01-13.74-9.23-22.26.73-5.44 3.14-10.68 6.85-14.72 7.34-8.21 18.86-12.64 29.74-12.71Z" fill="#fff"/><path d="M551.461 477.61c3.69-.8 7.51-.7 10.96.96 6.42 3.03 10.48 10.43 8.89 17.48-1.3 7.25-7.89 12.9-15.3 12.85-8.42.47-15.96-6.52-16.34-14.89-.56-7.44 4.55-14.59 11.79-16.4Z" fill="#000"/><path d="M553.619 483.21c4-.67 7.83.59 10.21 3.96 3.04 4.06 2.26 9.86-1.38 13.27-4.4 3.95-11.88 3.34-15.16-1.77-4-5.83-.62-14.19 6.33-15.46Z" fill="#fff"/><path d="M618.701 484.19c1.69.32 3.64-.24 4.63 1.46 1.61 2.47 2.37 5.58 2.85 8.46 1.44 10.51-2.22 21.79-9.83 29.24-3.27 3.02-7.82 5.97-12.38 6.11-2.73.04-4.27-2.62-2.33-4.8 3.27-1.61 6.54-2.11 9.44-4.56 6.29-5.26 9.64-14.02 9.57-22.11-.01-4.02-1.58-7.21-2.66-10.96.23-.95.47-1.9.71-2.84ZM380.44 488.46c4.44-.82 9.2.5 12.68 3.35 5.75 4.58 7.69 13.08 4.69 19.76-2.56 5.93-8.24 10.22-14.82 10.23-8.45.57-15.94-6.42-16.44-14.79-.99-8.72 5.26-17.04 13.89-18.55Z" fill="#000"/><path d="M379.531 494.79c5.08-1.91 10.94.6 12.92 5.67 2.83 6.48-1.52 14.71-8.68 15.43-4.25.47-7.61-1.26-9.91-4.82-3.44-5.89-.79-13.89 5.67-16.28Z" fill="#fff"/><path d="M330.441 503.6c.44 4.06-1.41 7.43-1.67 11.39-.24 6.08 2.47 12.14 7.29 15.89 2.44 1.9 5.12 2.82 7.78 4.29 1.95.85 1.84 2.03 1.58 3.92-1.51 1.78-3.31 1.46-5.31.8-7.28-2.71-13.55-8.6-15.95-16.08-2.04-6.12-1.77-13.6 1.36-19.29 1.26-1.87 3.04-.88 4.92-.92Z" fill="#000"/></g><g transform="translate(-161 -83)"><g fill="#000"><path d="M545.03 378.5c24.7.94 48.04 8.97 69.45 20.99 2.26 1.32 4.92 2.49 6.79 4.33 1.3 2.39-.38 5.13-3.2 4.19-16.58-6.21-33.56-9.63-51.06-12.02-20.3-2.34-39.92-3.68-60.2-.13-3.2.44-6.87 2.16-10.08 1.59-2.66-1.69-1.2-6.1 1.29-7.37 13.63-9.33 30.79-12.1 47.01-11.58ZM407.99 396.92c3.51.64 6.6 1.92 9.63 3.78-.15 1.2-.26 2.4-.33 3.62-2.7.74-5.46 1.12-8.24 1.34-13.17 1.15-26.45 5.11-38.81 9.69-12.23 4.75-24.78 10.64-35.19 18.71-2.82 2.03-4.13 4.82-8.08 4.47-.5-.9-1-1.79-1.51-2.67.89-1.59 1.68-3.17 2.76-4.64 9.55-13.17 23.64-23.22 38.61-29.35 12.7-5.15 27.61-8.05 41.16-4.95Z"/></g></g><g transform="translate(-161 -83)"><path d="M517 555.43c13.39-.24 28.69 3.46 38.6 12.98 5.97 5.58 9.72 13.37 9.9 21.58.32 10.21-3.84 19.58-9.89 27.58-9.04 11.85-21.87 20.72-35.47 26.57-7.32 2.84-14.41 5.71-22.15 7.24-16.76 3.21-34.33 1.42-50.03-5.31-13.98-6.01-27.24-14.24-38.31-24.71-5.42-5.3-10.58-11.69-13.28-18.84-2.03-5.48-2.34-11.97 1.22-16.91 3.7-5.37 9.99-7.74 16.18-8.84 12.6-1.77 24.45.42 36.57 3.76 7.36-6.86 15.88-12.06 25.02-16.21 12.99-5.74 27.38-9.28 41.64-8.89Z" fill="#000"/><path d="M542.47 566.35c-3.47 2.67-7.33 4.74-10.83 7.34-4.3 4.07-7.59 10.96-12.77 14.1-5.16.84-10.5-3.32-15.18-1.11-9.25 3.5-18.79 6.01-28.49 7.9-14.14 2.57-29.48 3.77-43.64.89-4.29-1.11-7.12 1.32-11.46 1.88-4.37-4.22-7.53-9.21-12.73-12.59 12.76-5.32 28.76-1.99 41.63 1.51 3.92 1.25 6.04-2.46 8.8-4.48 13.48-10.73 30.18-17.54 47.23-19.85 12.66-1.87 25.64-.74 37.44 4.41Z" fill="#fff"/><path d="M547.96 569.91c7.13 4.29 11.65 12.83 11.82 21.09-.18 7.44-2.97 13.99-6.8 20.24-6.37-2.56-13.17-3.29-19.99-2.88-14.36.89-28.54 4.42-41.91 9.67-9.04 3.64-18.05 8.23-25.74 14.27-3.77 2.98-6.45 6.16-8.76 10.38-7.74-2.15-14.6-5.75-21.53-9.73-9.94-5.85-19.02-12.62-26.5-21.47-3.77-4.64-7.55-10.34-7.78-16.49-.14-2.33.91-4.43 1.72-6.55 5.41 3.65 9.36 8.64 14.22 12.85 4 3.41 9.21-.65 13.75.08 5.81.96 11.66 1.41 17.53 1.74 20.42-.25 40.58-4.31 59.65-11.55 4.16.86 9.89 2.73 13.97 1.05 4.92-2.84 8.62-8.58 12.18-12.91 1.47-1.75 3.81-2.92 5.71-4.17 2.91-1.75 5.48-4.02 8.46-5.62Z" fill="#8F2E45"/><path d="M536 614.18c4.54-.11 8.95.63 13.3 1.9-9.23 11.12-22.42 19.3-35.85 24.38-16.26 6.04-34.23 8.32-51.21 3.94 1.95-2.75 4.09-5.3 6.76-7.39 8.9-7.26 20.21-12.2 30.99-15.97 11.5-3.83 23.86-6.67 36.01-6.86Z" fill="#EA869E"/></g><g transform="translate(-161 -83)"/><g transform="translate(-161 -83)"><path d="M495.43 210.57c6.13 3.22 9.05 9.81 11.76 15.81 10.06-2.06 20.61-3.06 30.82-4.29 25.41-1.74 50.83-2.71 75.32 5.55 12.18 3.88 23 9.89 34.28 15.74 17.64 9.36 36.37 18.29 53.6 28.41 15.9 9.41 29.24 21.83 41 35.99 17.1 24.63 31.51 51.2 43.36 78.72 16.72 38.95 28.42 80.33 33.48 122.45 2.16 18.29 2.98 36.64 2.13 55.05-1.53 26.03-6.05 52.1-17.46 75.75-8.06 16.66-19.52 31.69-35.41 41.54-4.18 2.48-8.61 5.17-13.32 6.43-2.33-.84-2.71-2.31-1.7-4.46 2.19-3.79 4.96-7.14 6.75-11.18 5.38-11.69 8.9-24.52 11.54-37.09 2.54-11.87 3.84-23.84 2.75-35.97-4.86 10.85-10.61 21.32-16.94 31.38-13.14 20.86-30.16 39.2-48.71 55.35-17.09 14.87-35.28 28.25-55.67 38.28-3.83 1.75-7.84 3.61-11.99 4.41-1.75.1-2.65-.74-2.7-2.52 2.13-3.49 5.93-5.86 8.55-9.04 9.44-10.78 16.4-24.11 19.6-38.09 3.56-17.19.55-34.99-6.26-50.99-7.3-16.97-18.45-32.63-30.88-46.24-.08 5.17-.07 10.32.55 15.46 1.09 10.91 1.39 21.53 6.66 31.4.97 1.57.93 4.45-1.49 4.15-8.63-.51-17.3-1.02-25.87-2.15-18.87-3.02-37-11.5-53.2-21.4-20.29-12.58-39.53-27.72-55.66-45.36-26.75-29.44-45.29-67.01-55.91-105.16-6.09-22.7-10.27-46.02-11.81-69.48-.89-7-.75-13.98-.92-21.02-.19-18.69 1.25-37.49 4.45-55.91-19.68 11.33-37.56 25.5-54.52 40.53-24.53 22.24-47.07 46.84-65.85 74.17-2.06 2.75-2.74 5.88-3.15 9.22-1.46 10.23-2.61 20.65-2.48 30.99-.9 43.29 12.06 86.88 35.9 122.98 19.06 29.05 45.36 53.35 75.65 70.33 3.18 1.9 6.92 3.22 9.76 5.61.65 2.37-.71 3.79-1.84 5.67-8.55 12.54-15.56 27.02-18.08 42.07-.87 3.13-4.72 2.08-6.98 1.45-13.75-4.62-27.69-10.65-39.57-19.06-8.12-5.89-15.28-13.2-21.41-21.12-14.12 16.7-30.69 31.46-48.33 44.34-1.58 1.17-3.35 1.43-5.2 1.91-.97-2.46-1.18-3.7-.2-6.21 3.47-9.18 3.87-18.3 4.67-27.96 1.1-26.43-.07-52.66-1.98-79.02-2.95-37.08-7.45-74.28-14.77-110.76-3.05-12.51-5.89-25-8.03-37.72-1.24-7.93-1.11-15.46.31-23.36 3.65-20.11 11.99-38.96 20.91-57.21 7-15.15 14.7-29.92 22.12-44.87 10.08-18.93 19.72-36.94 33.42-53.59 5.27-6.17 11.36-12.64 18.65-16.39 6.03-3.17 12.3-4.4 18.88-5.85 16-3.42 32.09-8.28 47.9-12.45 9.21-2.34 18.48-4.48 27.7-6.79 4.5-8.79 10.01-18.3 17.5-24.87 4.91-4.25 12.21-6.73 18.32-3.56Z" fill="#000"/><path d="M489 214.88c3.5-.24 6.38 2.08 8.33 4.75 5.23 7.5 7.19 15.64 10.21 23.85 1.11 2.53 3.01 1.37 5.02.89-.48-4.35-1.87-8.42-3.32-12.53 18.05-3.14 36.42-5.2 54.76-5.06 13.91-.25 28.37.76 41.78 4.67 9.67 2.55 18.78 6.53 27.65 11.1 11.9 6.12 23.68 12.47 35.67 18.42 13.85 7.36 28.51 14.5 41.21 23.74 10.26 7.89 20.96 16.96 28.06 27.89 17.77 25.76 32.62 53.64 44.52 82.57 18.08 44.16 30.27 92.07 32.5 139.83 1.08 14.12.18 27.96-.95 42.03-2.18 20.44-6.74 41.17-15.65 59.8-7.84 16.41-18.99 30.81-34.68 40.37 7.13-15.03 11.33-30.86 14.31-47.17 2.26-12.95 2.07-26.01.42-39.02-.61-3.83.52-6.94-2.85-9.68-.91.84-2.43 1.57-2.85 2.79-1.43 3.99-2.28 8.14-3.99 12.04-3.8 9.12-8.68 17.84-13.68 26.35-14.88 24.98-34.59 45.62-56.81 64.17-13.8 11.38-28.64 22.24-44.47 30.63 11.12-14.66 19.39-32.65 19.53-51.31.57-18.03-5.07-36.21-13.7-51.9-7.79-13.72-17.34-26.47-28.43-37.7-1.17-1.15-2.33-2.39-3.69-3.32-2.33-.23-3.45.58-3.78 2.89-.75 6.43-.44 13.1-.07 19.56 1.1 10.56 1.84 20.51 5.36 30.6-7.69-.23-15.31-.46-22.88-2.05-19.28-3.9-37.95-13.55-54.28-24.31-18.67-12.28-35.84-26.56-50.64-43.35a229.593 229.593 0 0 1-31.19-46.84c-15.31-29.71-24.3-61.64-29.2-94.61-1.96-12.54-3.08-25.28-3.5-37.96-.79-12.05 0-23.98.61-36 2.53-33.4 10.73-66.22 25.02-96.54 3.91-7.9 8.42-16.18 14.31-22.78 3.06-3.36 6.62-6.38 11.34-6.81Z" fill="rgba(172, 101, 17, 1)"/><path d="M456.6 245.23c-8.58 19-15.03 39-19.07 59.46-17.55 9.49-34.02 21.79-49.34 34.52-23.37 19.86-44.99 41.96-63.89 66.12-12.02 15.53-23.61 32.46-31.52 50.49-1.94 4.87-4.19 9.95-4.91 15.17.29 2.78 4.05 3.44 5.16 1.03 1.17-2.64 1.8-5.52 2.81-8.23 2.65-7.3 6.21-14.3 10-21.07-2.49 21.32-2.13 43.08 1.45 64.26 5.32 32 17.77 62.83 36.17 89.55 20.62 30.17 48.68 55.11 81.14 71.91-8.23 12.73-14.64 26.51-17.96 41.36-16.64-5.92-34.66-13.51-47.62-25.84-4.7-4.5-9.22-8.94-12.53-14.61-1.3-2-4.04-2.42-5.56-.4-12.82 15.59-27.8 29.54-43.56 42.11 1.99-9.91 2.79-19.97 2.92-30.06.59-10.67.56-21.33.02-32-.17-16.38-1.35-32.67-2.65-48.98-3.22-37.11-7.98-74.64-15.82-111.08-2.18-7.76-3.53-15.54-5.18-23.45-1.56-8.22-2.89-16.09-1.51-24.47 3.77-26.28 16.09-48.93 27.2-72.54 5.76-11.6 11.53-23.2 17.43-34.73 9.68-17.93 18.95-35.09 32.19-50.77 4.6-5.13 9.9-10.84 16.15-13.91 5.16-2.62 10.47-3.69 16.06-4.94 16.56-3.5 32.8-8.32 48.86-12.86 7.83-2.1 15.71-4.03 23.56-6.04Z" fill="rgba(172, 101, 17, 1)"/></g></g></svg>