<svg xmlns:dc="http://purl.org/dc/elements/1.1/" xmlns:cc="http://creativecommons.org/ns#" xmlns:rdf="http://www.w3.org/1999/02/22-rdf-syntax-ns#" xmlns:svg="http://www.w3.org/2000/svg" xmlns="http://www.w3.org/2000/svg" viewBox="0 0 762 762" fill="none"><metadata><rdf:RDF><cc:Work><dc:format>image/svg+xml</dc:format><dc:type rdf:resource="http://purl.org/dc/dcmitype/StillImage"/><dc:title>Adventurer</dc:title><dc:creator><cc:Agent><dc:title>Lisa Wischofsky</dc:title></cc:Agent></dc:creator><dc:source>https://www.instagram.com/lischis_adventures/</dc:source><cc:license rdf:resource="https://creativecommons.org/licenses/by/4.0/"/></cc:Work><cc:License rdf:about="https://creativecommons.org/licenses/by/4.0/"><cc:permits rdf:resource="https://creativecommons.org/ns#Reproduction"/><cc:permits rdf:resource="https://creativecommons.org/ns#Distribution"/><cc:permits rdf:resource="https://creativecommons.org/ns#DerivativeWorks"/><cc:requires rdf:resource="https://creativecommons.org/ns#Notice"/><cc:requires rdf:resource="https://creativecommons.org/ns#Attribution"/></cc:License></rdf:RDF></metadata><mask id="avatarsRadiusMask"><rect width="762" height="762" rx="0" ry="0" x="0" y="0" fill="#fff"/></mask><g mask="url(#avatarsRadiusMask)"><path d="M396.01 164.85c37.82 4.9 74.21 19.64 104.8 42.39 6.15 4.84 12.48 9.33 18.02 14.92 23.77 21.98 42.73 49.02 55.13 78.95 9.35 22.31 14.72 46.04 16.64 70.14 6.62.81 13.05 2.14 19.12 5 15.54 6.93 27.08 20.94 31.78 37.21 2.63 9.56 3.56 19.75 1.72 29.55-2.96 18.76-13.72 36.13-29.37 46.92-10.94 7.65-24.49 12.03-37.86 11.68-5.13-.05-10.04-1.6-15.13-1.79-1.85 2.17-3.23 4.84-4.76 7.25-18.66 29.62-44.57 54.51-74.64 72.4-28.1 16.73-59.9 27.16-92.46 30.32-11.08.7-21.87 2.05-32.98.74-51.69-2.3-102.07-23.44-140.15-58.43-29.03-26.55-50.84-60.83-62.54-98.39-7.09-22.85-10.62-46.78-10.07-70.71.52-40.34 12.53-80.58 33.94-114.76 19.1-30.81 45.91-56.58 77.2-74.83 29.63-17.28 63.35-27.68 97.59-29.87 14.66-1.47 29.44-.37 44.02 1.31Z" fill="#000"/><path d="M363 169.06c48.47-1.39 97.32 14.7 135.81 44.12 6.55 4.06 11.72 9.49 17.36 14.64 24.33 22.63 43.2 50.95 54.93 82.02 7.43 19.61 11.86 40.2 13.56 61.09-8.89.74-17.34 2.34-25.38 6.38-2.19 1.03-1.89 4.95.68 5.23 2.35.23 4.98-1.51 7.24-2.2 14.62-5.37 31.32-4.35 44.78 3.68 11.69 6.78 20.09 18.16 23.89 31.06 2.6 8.25 2.68 17.41 1.76 25.95-2.5 17.35-12.35 33.73-26.73 43.81-15.71 11.33-37.17 14.64-54.93 6.2-3.17-1.43-5.94-3.58-9.08-5.05-2.95-1.09-4.88 2.79-2.7 4.75 3.17 2.76 7.34 4.52 11 6.56-20.14 34.15-49.45 62.7-84.41 81.47-30.2 16.31-64.44 25.53-98.78 26.15-27.63.72-55.33-4.04-81.21-13.72-30.32-11.24-57.84-29.43-80.37-52.6-22.67-23.37-39.92-51.88-50.2-82.77-14.96-44.64-14.91-94.01.27-138.59 11.05-33.06 30.28-63.21 55.37-87.39 29.67-28.73 67.65-48.54 108.13-56.67 12.8-2.52 25.94-4.24 39.01-4.12Z" fill="rgba(118, 57, 0, 1)"/><path d="M605.03 404.4c2.63-.1 3.44 3.8 1.36 4.98-3.69 1.83-7.82 2.77-11.64 4.35-5.82 2.04-11.28 4.76-16.68 7.72 4.29 2.34 8.86 4.74 12.71 7.76 2.58 2.09 4.85 4.35 5.33 7.8-.26 3.59-2.73 6.55-5.45 8.69-5.86 4.66-13.92 7.18-20.79 10.26-1.75.62-4.43 1.99-5.59-.26-1.02-1.74-.06-3.11 1.57-3.87 6.65-3.3 14.86-5.62 20.79-10.16 1.37-1.14 3.39-2.74 3.61-4.62-4.07-5.63-12.42-8.59-18.23-12.09-2.34-1.72-2.29-4.24-.16-6.13 7.27-5.64 16.98-9.26 25.57-12.38 2.42-.83 5.03-1.95 7.6-2.05Z" fill="#000"/><g transform="translate(-161 -83)"><path d="M574.47 426.48c13.52 3.69 25.28 11.87 34.03 22.75 7.5-5.17 14.74-10.73 22.37-15.71 1.02.43 2.04.86 3.07 1.28-.34 2.1-.24 3.64-2.24 4.9-6.6 4.79-13.31 9.45-19.92 14.23 3.77 6.35 7.07 12.73 8.56 20.03 1.59 7.69 2.58 16.11 1.14 23.88-.44 2.76-3.06 3.5-5.47 3.7-19.7 1.03-39.42 3.02-59.01 5.35-11.07 1.46-22.16 1.93-33.22 3.58-4.5.68-9.03 1.18-13.54 1.79-4.99.7-9.54 1.77-14.54.33-4.84-13.86-5.54-28.92-1.07-42.97 4.7-15.08 15.13-28.21 28.7-36.27 15.07-9.25 34.17-11.67 51.14-6.87Z" fill="#000"/><path d="M565.47 430.38c17.56 2.52 33.65 13.22 42.62 28.54 6.6 11.12 9.16 23.82 8.14 36.67-4.76.4-9.48.97-14.25 1.18-18.01 1.19-35.9 3.32-53.81 5.48 1.05-2.96 2.25-6.07 2.52-9.21.8-9.37-4.1-18.82-12.31-23.44-5.31-3.21-11.43-3.75-17.45-2.72-11.6 2.17-20.3 13.34-19.52 25.13 0 6.06 2.64 11.12 6.32 15.74-2.43.24-4.86.49-7.3.74-4.69-14.01-4.17-28.8 1.6-42.39 6.22-14.87 18.61-26.86 33.74-32.46 9.48-3.74 19.65-4.48 29.7-3.26Z" fill="#fff"/><path d="M416.519 455.44c12.78 8.07 21.86 21.58 24.51 36.47 1.39 8.37 1.07 16.97-1.24 25.15-5.34 1.09-10.4.57-15.79.57-24.04-.24-48-.16-72 1.46-5.87-.14-12.63 1.57-17.84-1.24-.94-4.53-2.07-9.19-2.27-13.82-.33-10.11 2.18-19.99 6.83-28.94-6-3.98-12.33-7.55-18.19-11.72-1.91-1.41-1.7-2.69-.84-4.69 2.76-1.07 4.51.51 6.78 1.81 5.07 3.31 10.17 6.56 15.27 9.82 7.71-10.76 18.85-18.63 31.73-21.84 14.52-3.7 30.44-1.13 43.05 6.97Z" fill="#000"/><path d="M400.8 454.53c12.36 3.61 23.04 12.14 29.24 23.44 5.79 10.51 7.71 22.67 5.07 34.42l-5.61.12c2.13-4.63 3.58-9.36 2.88-14.52-.91-8.64-7.3-16.11-15.55-18.64-3.85-1.06-7.94-1.15-11.81-.2-9.02 2.14-16.25 10.53-16.65 19.85-.47 4.7.89 8.93 2.74 13.17-13.38.11-26.76.61-40.1 1.61-3.69.2-7.91.69-11.51-.24-1.64-3.05-1.63-7.15-1.78-10.54-.55-13.95 5.57-28.01 15.83-37.42 12.47-11.6 30.91-16.01 47.25-11.05Z" fill="#fff"/></g><g transform="translate(-161 -83)"><g fill="#000"><path d="M606.99 397.59c1.52-.4 3.26.6 4.74.97-.11 1.2-.17 2.45-.47 3.61-1.58 1.49-3.57 2.61-5.39 3.78-22.77 14.6-46.18 28.4-70.32 40.63-11.53 5.73-23.34 11.3-35.55 15.44-6.86 2.19-13.72 4.28-21.01 3.44-3.31-.31-6.16-3.02-6.23-6.43-.04-4.22 3-8.6 5.08-12.15 1.28-2.68 4.5-3.04 6.99-4.12 37.24-13.75 74.44-27.65 111.67-41.45 3.48-1.23 6.91-2.81 10.49-3.72ZM338.99 432.64c29.88 5.94 60.13 12.03 90.02 18.02 2.27.32 4.6.07 6.85.45 2.45 2.3 3.64 6.21 4.54 9.37 1.17 4.09-.15 8.77-3.91 11.01-4 2.62-9.91 2.16-14.5 1.89-8.74-1-17.41-3.8-25.68-6.74-19.61-7.16-38.69-16.93-56.97-26.97-1.67-.96-3.68-1.94-4.79-3.55-.38-2.88 1.85-4.16 4.44-3.48Z"/></g></g><g transform="translate(-161 -83)"><path d="M534.29 562.56c7.92 1.16 15.41 4.36 21.23 9.92 8.09 7.57 12.12 18.53 11.86 29.52.34 9.78-2.38 19.12-6.68 27.81-7.12 14.02-18.35 26.07-31.98 33.93-11.83 6.96-25.09 10.44-38.72 11.36-30.63 1.61-61.2-11.84-82.09-34.04-6.38-8.12-11.86-18.46-11.46-29.06-.09-7.88 4.02-15.65 10.45-20.16 6.92-4.97 14.77-6.31 23.1-6.79 14.2.15 27.79 4.32 40.17 11.12 8.52-12.59 20.01-22.9 34.03-28.96 9.42-4.2 19.83-5.97 30.09-4.65Z" fill="#000"/><path d="M533.47 568.33c9.24 1.28 17.97 6.24 22.9 14.3 5.96 9.59 6.65 21.04 3.81 31.79-4.05-.55-7.9-.69-11.97-.2-10.84.62-21.73 3.37-31.96 6.96 1.41-7.49 2.53-16.65-.57-23.85-1.7-3.84-5.41-6.2-9.58-4.33-6.58 3.12-10.3 11.89-13.02 18.22-4.75-1.63-11.32-3.78-16.06-1.23-3.89 2.19-3.78 6.53-2.42 10.26 2.56 6.21 7.71 11.08 12.64 15.44-12.05 7.91-22.81 17.29-31.17 29.09-14.95-4.74-28.67-13.02-40.01-23.82-6.73-6.44-11.99-15.15-13.61-24.38-1.13-6.35.66-13.23 5.31-17.81 4.47-4.59 11-6.66 17.2-7.5 11.79-1.52 24.47 1.81 35.25 6.5 3.75 1.52 7.09 3.83 10.78 5.43 2.67.3 3.71-3.41 5.1-5.15 9.06-13.35 22.95-24.15 38.65-28.36 5.96-1.82 12.57-1.87 18.73-1.36Z" fill="#8F2E45"/><path d="M508.97 597.86c2.64 2.37 2.74 6.8 2.88 10.12-.08 10.91-3.14 21.91-7.97 31.65-4.01-2.1-7.93-4.17-11.35-7.18-4.32-3.77-9.1-7.97-11.95-13.01-.89-1.45-.92-3-1.16-4.63 5.16-.73 9.19 1.01 13.81 2.87 2.79 1 3.86-1.41 4.96-3.44 2.44-5.54 5.13-13.33 10.78-16.38Z" fill="#D32020"/><path d="M558.62 619.94c-2.6 7.12-6.32 13.69-11.01 19.63-3.77 4.78-8.55 8.9-13.01 13.05-9.94 8.14-22.52 13.35-35.12 15.57-12.51 1.97-25.18 1.2-37.51-1.56 8.12-11.13 18.65-19.92 30.3-27.15 3.76 2.33 7.58 5.16 11.76 6.65 1.39.62 2.77-.42 3.56-1.51 3.17-4.9 4.87-10.02 6.78-15.42.38-1.43 1.62-1.55 2.8-2.1 12.98-4.74 27.57-8.13 41.45-7.16Z" fill="#EA869E"/></g><g transform="translate(-161 -83)"/><g transform="translate(-161 -83)"><path d="M546 236.84c51.64.59 102.7 18.25 141.84 52.31 29.53 25.5 51.1 59.87 60.38 97.84 5.48 21.86 6.56 44.45 4.27 66.83-.37 1.75-.51 5.62-2.95 5.59-4.29.23-8.51.07-12.73 1.15-11.59 2.71-22.8 8.56-31.19 17.07-1.07.88-2.1 2.18-3.65 1.76-1.58 0-2.3-2.02-2.09-3.35.33-3.05 1.49-6.04 2.14-9.04 1.63-6.66 1.85-13.22 2.48-20.01.61-6.79-.3-13.27-.9-20.01-.36-3.74-1.21-7.29-2.07-10.93-9.31-.25-18.37-2.33-26.44-7.1-15.74-8.99-27.31-24.88-35.49-40.72-9.82-19.03-15.94-39.95-20.23-60.86-29.41 12.22-59.85 20.22-91.13 25.91-33.38 5.9-67.33 9.18-101.24 8.96-23.84.16-47.78-1.74-71.25-5.99-1.86-.35-3.49-1.08-3.57-3.22 1.01-3.82 4.01-7.35 6.5-10.34 9.01-10.91 19.03-21.02 29.89-30.09 43.66-36.57 100.53-56.54 157.43-55.76Z" fill="#000"/><path d="M520.21 243.77c41.25-4.16 83.53 2.88 120.79 21.24 32.27 15.9 60.14 40.13 79.22 70.72 21.99 34.84 31.4 77.04 26.37 117.93-14.2.21-27.25 5.84-38.62 14.04 2.82-16.51 3.49-33.39-.05-49.85-.64-2.31-1.12-5.21-2.7-7.07-1.62-1.19-4.31-.73-6.23-.89-8.04.13-16.05-2.86-22.85-7.01-11.69-7.29-20.65-18.64-27.59-30.37-10.76-18.47-17.68-39.72-22.26-60.53-.79-3.27-1.12-6.77-2.27-9.93-.87-1.45-2.45-1.83-3.99-1.22-3.66 1.23-7.15 2.97-10.76 4.32-26.42 10.34-54.42 17.39-82.3 22.45-26.79 4.85-53.78 7.59-80.97 8.7-14.65.16-29.37.42-44-.44-14.27-.89-28.43-2.35-42.52-4.81 38.43-49.69 98.38-81.4 160.73-87.28Z" fill="rgba(175, 175, 175, 1)"/><path d="M718.59 474.55c-.04 1.07.35 2.71-.44 3.56-2.25 2.41-5.16 4.22-7.63 6.41-2.64 2.15-4.81 4.86-7.53 6.88-2.73.46-4.07-1.91-2.73-4.12 2.72-3.78 6.72-6.77 10.22-9.81 2.68-1.91 4.52-4.7 8.11-2.92Z" fill="#000"/></g></g></svg>