<svg xmlns:dc="http://purl.org/dc/elements/1.1/" xmlns:cc="http://creativecommons.org/ns#" xmlns:rdf="http://www.w3.org/1999/02/22-rdf-syntax-ns#" xmlns:svg="http://www.w3.org/2000/svg" xmlns="http://www.w3.org/2000/svg" viewBox="0 0 762 762" fill="none"><metadata><rdf:RDF><cc:Work><dc:format>image/svg+xml</dc:format><dc:type rdf:resource="http://purl.org/dc/dcmitype/StillImage"/><dc:title>Adventurer</dc:title><dc:creator><cc:Agent><dc:title>Lisa Wischofsky</dc:title></cc:Agent></dc:creator><dc:source>https://www.instagram.com/lischis_adventures/</dc:source><cc:license rdf:resource="https://creativecommons.org/licenses/by/4.0/"/></cc:Work><cc:License rdf:about="https://creativecommons.org/licenses/by/4.0/"><cc:permits rdf:resource="https://creativecommons.org/ns#Reproduction"/><cc:permits rdf:resource="https://creativecommons.org/ns#Distribution"/><cc:permits rdf:resource="https://creativecommons.org/ns#DerivativeWorks"/><cc:requires rdf:resource="https://creativecommons.org/ns#Notice"/><cc:requires rdf:resource="https://creativecommons.org/ns#Attribution"/></cc:License></rdf:RDF></metadata><mask id="avatarsRadiusMask"><rect width="762" height="762" rx="0" ry="0" x="0" y="0" fill="#fff"/></mask><g mask="url(#avatarsRadiusMask)"><path d="M396.01 164.85c37.82 4.9 74.21 19.64 104.8 42.39 6.15 4.84 12.48 9.33 18.02 14.92 23.77 21.98 42.73 49.02 55.13 78.95 9.35 22.31 14.72 46.04 16.64 70.14 6.62.81 13.05 2.14 19.12 5 15.54 6.93 27.08 20.94 31.78 37.21 2.63 9.56 3.56 19.75 1.72 29.55-2.96 18.76-13.72 36.13-29.37 46.92-10.94 7.65-24.49 12.03-37.86 11.68-5.13-.05-10.04-1.6-15.13-1.79-1.85 2.17-3.23 4.84-4.76 7.25-18.66 29.62-44.57 54.51-74.64 72.4-28.1 16.73-59.9 27.16-92.46 30.32-11.08.7-21.87 2.05-32.98.74-51.69-2.3-102.07-23.44-140.15-58.43-29.03-26.55-50.84-60.83-62.54-98.39-7.09-22.85-10.62-46.78-10.07-70.71.52-40.34 12.53-80.58 33.94-114.76 19.1-30.81 45.91-56.58 77.2-74.83 29.63-17.28 63.35-27.68 97.59-29.87 14.66-1.47 29.44-.37 44.02 1.31Z" fill="#000"/><path d="M363 169.06c48.47-1.39 97.32 14.7 135.81 44.12 6.55 4.06 11.72 9.49 17.36 14.64 24.33 22.63 43.2 50.95 54.93 82.02 7.43 19.61 11.86 40.2 13.56 61.09-8.89.74-17.34 2.34-25.38 6.38-2.19 1.03-1.89 4.95.68 5.23 2.35.23 4.98-1.51 7.24-2.2 14.62-5.37 31.32-4.35 44.78 3.68 11.69 6.78 20.09 18.16 23.89 31.06 2.6 8.25 2.68 17.41 1.76 25.95-2.5 17.35-12.35 33.73-26.73 43.81-15.71 11.33-37.17 14.64-54.93 6.2-3.17-1.43-5.94-3.58-9.08-5.05-2.95-1.09-4.88 2.79-2.7 4.75 3.17 2.76 7.34 4.52 11 6.56-20.14 34.15-49.45 62.7-84.41 81.47-30.2 16.31-64.44 25.53-98.78 26.15-27.63.72-55.33-4.04-81.21-13.72-30.32-11.24-57.84-29.43-80.37-52.6-22.67-23.37-39.92-51.88-50.2-82.77-14.96-44.64-14.91-94.01.27-138.59 11.05-33.06 30.28-63.21 55.37-87.39 29.67-28.73 67.65-48.54 108.13-56.67 12.8-2.52 25.94-4.24 39.01-4.12Z" fill="rgba(236, 173, 128, 1)"/><path d="M605.03 404.4c2.63-.1 3.44 3.8 1.36 4.98-3.69 1.83-7.82 2.77-11.64 4.35-5.82 2.04-11.28 4.76-16.68 7.72 4.29 2.34 8.86 4.74 12.71 7.76 2.58 2.09 4.85 4.35 5.33 7.8-.26 3.59-2.73 6.55-5.45 8.69-5.86 4.66-13.92 7.18-20.79 10.26-1.75.62-4.43 1.99-5.59-.26-1.02-1.74-.06-3.11 1.57-3.87 6.65-3.3 14.86-5.62 20.79-10.16 1.37-1.14 3.39-2.74 3.61-4.62-4.07-5.63-12.42-8.59-18.23-12.09-2.34-1.72-2.29-4.24-.16-6.13 7.27-5.64 16.98-9.26 25.57-12.38 2.42-.83 5.03-1.95 7.6-2.05Z" fill="#000"/><g transform="translate(-161 -83)"><path fill-rule="evenodd" clip-rule="evenodd" d="M612.99 456.04c-8.4-14.32-22.44-25.12-38.46-29.54-12.78-3.63-26.45-3.13-39.02 1.1-15.79 5.52-29.25 17.14-36.82 32.08-3.28 6.32-5.17 13.09-6.5 20.06-4.4.35-8.76.83-13.04 1.93.188.504.294 1.03.396 1.539.273 1.36.52 2.594 2.244 2.921 2.35.223 4.762 0 7.146-.221.924-.085 1.844-.17 2.754-.229-.56 12.87 2.24 25.63 8.92 36.7 8.71 14.98 23.61 26.14 40.45 30.25 12.14 3.08 25.13 2.44 36.99-1.54 13.99-4.82 26.18-14.48 34.04-27.01 6.48-10.16 9.83-22.06 10.06-34.07.056-3.789-.398-7.446-.857-11.15-.12-.969-.241-1.942-.353-2.92.945-.109 1.903-.19 2.865-.271 2.307-.196 4.636-.393 6.845-.979 1.193-.461 1.438-1.638 1.68-2.801.099-.476.198-.948.36-1.369-4.39-1.13-8.7-.78-13.15-.28-.506-1.176-.99-2.354-1.473-3.528-1.498-3.645-2.981-7.253-5.077-10.672Zm.59 14.63c-4.82-13.64-13.95-25.42-26.54-32.68-13.32-7.97-29.57-10.1-44.6-6.46-14.55 3.64-27.43 12.73-35.54 25.37-4.25 6.79-7.73 14.51-8.83 22.5 5.954-.657 11.92-1.07 17.887-1.483 4.846-.335 9.693-.671 14.533-1.137 3.632-.325 7.273-.513 10.912-.701 4.858-.251 9.713-.501 14.538-1.079 16.386-1.117 32.786-2.395 49.169-3.671l8.471-.659Zm-200.2-17.09c11.97 6.48 20.98 17.39 25.57 30.15 2.69.16 5.36.38 8.03.75-.037.232-.071.462-.106.691-.156 1.028-.308 2.037-.594 3.059-1.042.76-2.471 1.03-3.832 1.287-.572.108-1.133.214-1.648.353 1.33 8.86 1.68 17.54-.78 26.25-3.51 13.23-12.13 24.91-23.71 32.19-10.65 6.72-23.58 9.67-36.09 8.03-16.11-1.81-30.98-11.25-39.64-24.94-6.25-9.68-8.98-21.04-8.76-32.5-2.42-.02-4.82-.1-7.23-.28.077-.367.111-.817.148-1.292.097-1.258.208-2.697 1.152-3.278 1.541-.487 3.188-.684 4.814-.877.61-.073 1.218-.146 1.816-.233 1.39-6.54 3.35-12.87 6.78-18.66 7.75-13.54 21.36-23.31 36.66-26.37 12.6-2.59 26.16-.54 37.42 5.67Zm19.769 30.83c-7.08-18.81-25.97-32.08-46.15-31.86-18.18-.19-35.6 10.43-43.83 26.64-2.2 4.2-3.57 8.69-4.72 13.28 7.002-.467 13.996-1.08 20.99-1.693 6.191-.543 12.382-1.086 18.58-1.527 3.774-.088 7.516-.469 11.258-.851 3.893-.396 7.786-.793 11.712-.859 2.094-.16 4.191-.308 6.29-.456 8.655-.612 17.331-1.225 25.87-2.674Z" fill="#000"/><path d="M615.13 476.4c1.79 9.43 1.83 19.44-.85 28.71-4.02 14.67-13.78 27.56-26.86 35.34-11.86 6.95-25.9 9.98-39.53 7.74-16.06-2.38-30.89-11.65-40.06-25.03-7.65-11.07-11.16-24.46-10.6-37.86 2.78-.26 5.55-.53 8.32-.81.58 6.88 2.87 13.16 8.11 17.84 9.26 8.79 25.12 8.57 33.95-.73 5.71-5.52 7.56-12.65 7.15-20.42 4.5-.49 8.95-1.09 13.47-1.39 15.64-.93 31.25-2.54 46.9-3.39ZM430.931 490.81c1.23-.4 2.51-.66 3.76-.97 3.28 11.9 1.31 24.64-4.45 35.44-6.94 12.82-19.63 22.19-33.98 24.89-17.42 3.66-36.18-3.36-47.37-17.1-8.08-9.7-11.83-22.11-11.18-34.67 16.43-1.61 32.94-2.6 49.35-4.39.17 5.54 1.15 10.77 4.71 15.18 5.35 7.13 14.85 10.26 23.42 7.93 7.1-2.26 13-7.85 15.04-15.09 1.18-3.82.53-7.36.7-11.22Z" fill="#fff"/></g><g transform="translate(-161 -83)"><g fill="#000"><path d="M523.24 384.36c6.17-.42 13.09-.61 18.45 2.95 3.68 2.44 5.4 6.35 4.48 10.74-1.55 6.16-6.62 10.92-11.61 14.5-8.97 6.29-19.71 10.24-30.57 11.53-5.61.53-12.5.43-17.47-2.55-3.63-2.13-5.9-6.12-5.2-10.36 1.02-5.75 5.49-10.49 9.94-13.96 9.19-7.03 20.55-11.34 31.98-12.85ZM392.22 401.23c9.11-.36 18.31.51 26.31 5.24 3.85 2.26 7.34 5.89 7.89 10.49.34 4.21-1.96 7.8-5.19 10.27-4.52 3.55-9.87 5-15.43 5.99-9.95 1.02-20.55.32-29.48-4.58-3.87-2.29-7.88-5.85-8.47-10.57-.73-4.27 2.02-8.47 5.39-10.84 5.4-3.87 12.43-5.69 18.98-6Z"/></g></g><g transform="translate(-161 -83)"><path d="M505.02 633.16c9.06.53 16.84 6.73 24.11 11.4-13.09-.12-26.35 2.18-38.98 5.54-9.44 2.61-18.6 6-27.08 10.96 3.26-8.09 7.87-18.07 16.6-21.4 4.01-1.93 7.71-1.13 11.94-.82 3.92-3.32 8-6.13 13.41-5.68Z" fill="#D31E1E"/><path d="M529.13 644.56c2.47.19 4.68 1.43 3.9 4.25-1.38 2.08-4.46 1.3-6.64 1.51-14.91.63-29.68 3.43-43.79 8.28-4.83 1.7-9.55 3.58-13.94 6.24-2 .93-3.37 2.59-5.67 1.42-2.15-1.55-1.16-3.48.08-5.2 8.48-4.96 17.64-8.35 27.08-10.96 12.63-3.36 25.89-5.66 38.98-5.54Z" fill="#000"/><path d="M526.39 650.32c-5.37 9.11-14.18 15.95-24.48 18.5-11.01 3.05-23.17 1.14-33.25-3.98 4.39-2.66 9.11-4.54 13.94-6.24 14.11-4.85 28.88-7.65 43.79-8.28Z" fill="#D31E1E"/></g><g transform="translate(-161 -83)"/><g transform="translate(-161 -83)"><path d="M561.98 243.31c21.23 2.34 42.86 6.05 63.28 12.4 6.74 2.26 13.88 4.45 20.02 8.06 2.3 1.32.95 3.44-.34 4.94-4.83-1.56-9.35-3.9-14.17-5.5-13.7-4.75-28.06-7.81-42.32-10.35-15.88-2.84-31.99-4.79-48.11-5.34-23.62-1.23-47.3-.15-70.55 4.36-8.27 1.49-16.45 3.43-24.58 5.57-5.58 1.48-10.96 3.38-16.71 4.17-.47-2.51-1.79-4.51 1.29-5.74 18.39-5.59 37.13-9.95 56.23-12.32 25.27-3.25 50.65-2.83 75.96-.25Z" fill="#000"/><path d="M540.34 247.52c16.12.55 32.23 2.5 48.11 5.34 14.26 2.54 28.62 5.6 42.32 10.35 4.82 1.6 9.34 3.94 14.17 5.5 3.72 1.42 7.34 3.25 10.53 5.64 7.29 5.88 14.76 9.98 20.17 18.05 4.36 6.11 5.94 13.33 5.28 20.77.27.68.54 1.37.8 2.05 4.51 1.4 8.74 2.2 12.75 4.34 6.99 3.64 12.76 9.23 17.64 15.35 6.23 8.13 11.33 17.19 15.42 26.57 12.4 28.95 17.9 61.41 19.33 92.73-6.32-.01-12.55.97-18.39 3.44-1.97.69-4.01 1.25-6.02 1.85 1.03-1.33 2.91-2.54 1.2-4.24-1.08-1.43-2.37-1-3.82-.51-12.94 5.11-22.91 13.8-32.65 23.47-.98.93-1.27 2.11-1.68 3.34-1.11-2.07-2.03-4.29-2.92-6.47 3.07-2.7 3.48-7.8 4.61-11.6 3.58-15.4 5.92-31.44 6.65-47.24 2.26-.25 4.81.78 5.45-2.2-.03-2.6-2.05-3.14-3.87-4.38-8.36-4.74-15.62-10.92-22.2-17.87-13.01-13.9-23.24-30.59-29.3-48.65-1.3-3.86-2.25-7.79-3.84-11.55-1.61-4.44-2.07-9.37-3.16-14-5.22-1.46-10.24-2.12-15.65-2.37-16.58-1.56-33.82-.08-50.44.34 9.68-1.36 19.4-2.96 28.95-5.07 2.4-.68 5.89-1.22 7.43-3.37 1.27-2.06.15-4.48-1.98-5.33-4.49-1.49-9.48-1.83-14.19-2.07-11.71-.3-23.32-1.26-35.04-.98-19.94-.26-39.88-.05-59.82-.3 13.19-1.9 26.15-5.54 39.31-7.7 9.66-1.58 19.23-3.67 28.9-5.17 11.56-.15 23.1.17 34.64.83 4.65.44 9.27 1.02 13.95.97.54-.88 1.08-1.76 1.62-2.63-1.04-1.3-1.61-2.52-3.42-2.76-6.81-1.48-14.23-1.23-21.18-1.59-13.29-.89-26.68-.55-40-.54-7.35-.07-14.65.72-22 .78-8.43.14-16.76 1.26-25.17 1.73-32.15 2.67-63.86 8.16-95.3 15.28 4.94-1.66 9.74-3.71 14.63-5.53 28.05-10.48 56.67-19.04 86.04-24.96 2.32-.64 5.72-.87 6.99-3.21.83-2.6-.57-4.03-3.1-4.21-17.01-.67-33.36.83-49.9 2.13-16.71 1.83-33.25 3.7-49.69 7.33-4.21.86-8.44 1.58-12.65 2.45 9.43-3.72 18.93-7.14 28.65-10.03 5.75-.79 11.13-2.69 16.71-4.17 8.13-2.14 16.31-4.08 24.58-5.57 23.25-4.51 46.93-5.59 70.55-4.36Z" fill="rgba(14, 14, 14, 1)"/><path d="M512.09 259.74c2.53.18 3.93 1.61 3.1 4.21-1.27 2.34-4.67 2.57-6.99 3.21-29.37 5.92-57.99 14.48-86.04 24.96-4.89 1.82-9.69 3.87-14.63 5.53 31.44-7.12 63.15-12.61 95.3-15.28 8.41-.47 16.74-1.59 25.17-1.73 7.35-.06 14.65-.85 22-.78 13.32-.01 26.71-.35 40 .54 6.95.36 14.37.11 21.18 1.59 1.81.24 2.38 1.46 3.42 2.76-.54.87-1.08 1.75-1.62 2.63-4.68.05-9.3-.53-13.95-.97-11.54-.66-23.08-.98-34.64-.83-23.1-.33-46.4 1.07-69.4 3.23-35.01 3.45-69.37 10.1-103.48 18.62-2.72.5-6.62 1.91-8.98-.08-.49-1.25-.79-3.41.47-4.31 3.28-2.56 7.52-4.02 11.27-5.79 28.42-12.38 57.92-22.32 87.92-30.09 2.58-.69 5.19-1.21 7.8-1.73-5.32.64-10.66.83-16 1.19-27.55 2.23-54.8 5.84-81.54 13.06-.92-1.62-2.11-2.56-1.49-4.59 2.55-1.97 5.83-2.67 8.89-3.44 4.21-.87 8.44-1.59 12.65-2.45 16.44-3.63 32.98-5.5 49.69-7.33 16.54-1.3 32.89-2.8 49.9-2.13ZM656.08 270.86c2.32-.28 3.81-.12 5.74 1.24 7.25 5.03 14.8 11.12 19.33 18.8 3.79 5.96 5.27 12.61 5.09 19.63 11.72 2.53 20.94 9.68 28.55 18.65 10.27 12.18 17.54 27.39 22.86 42.32 9.41 26.83 13.69 55.2 14.97 83.53.19 2.16-.6 3.94-2.79 4.49-3.93.19-7.73-.2-11.61.79-2.74.45-5.97 1.96-8.72 1.29-.42-1.29-.76-2.61-1.03-3.95 5.84-2.47 12.07-3.45 18.39-3.44-1.43-31.32-6.93-63.78-19.33-92.73-4.09-9.38-9.19-18.44-15.42-26.57-4.88-6.12-10.65-11.71-17.64-15.35-4.01-2.14-8.24-2.94-12.75-4.34-.26-.68-.53-1.37-.8-2.05.66-7.44-.92-14.66-5.28-20.77-5.41-8.07-12.88-12.17-20.17-18.05.14-1.17.34-2.33.61-3.49Z" fill="#000"/><path d="M478.16 298.5c5.98-.43 12.03.07 18.02-.05 19.94.25 39.88.04 59.82.3 11.72-.28 23.33.68 35.04.98 4.71.24 9.7.58 14.19 2.07 2.13.85 3.25 3.27 1.98 5.33-1.54 2.15-5.03 2.69-7.43 3.37-9.55 2.11-19.27 3.71-28.95 5.07 16.62-.42 33.86-1.9 50.44-.34 1.45.29 3.23.29 4.43 1.16.27 1.13.23 2.18-.12 3.17-1.35 1.16-2.93.74-4.59.79-24.87-1.12-49.22 1.18-74 2.5-3.93.24-8.03.64-11.95.13-2.6-.19-3.48-3.91-1.58-5.5 2.33-1.62 5.62-2.04 8.33-2.7 17.46-3.47 35.22-5.46 52.68-9-10.76-1.05-21.67-1.08-32.47-1.15-27.67-.57-55.39-.2-83.07-.54-1.3-.15-3.62-.3-3.67-2.02-.87-1.61 1.29-3.61 2.9-3.57ZM636.75 331.83c1.11-.08 2.22-.16 3.33-.23 1.59 3.76 2.54 7.69 3.84 11.55 6.06 18.06 16.29 34.75 29.3 48.65 6.58 6.95 13.84 13.13 22.2 17.87 1.82 1.24 3.84 1.78 3.87 4.38-.64 2.98-3.19 1.95-5.45 2.2-.73 15.8-3.07 31.84-6.65 47.24-1.13 3.8-1.54 8.9-4.61 11.6-1.09-.56-2.14-1.19-3.15-1.87-.2-2.35.4-4.48 1.01-6.72 3.23-11.12 5-22.86 6.75-34.31.72-6.62 1.54-13.4 1.12-20.06-6.2-4.15-11.91-8.98-17.18-14.26-15.82-16.09-27.82-36.16-34.23-57.81-.7-2.93-1.99-5.41-.15-8.23ZM723.65 455.26c1.71 1.7-.17 2.91-1.2 4.24-10.49 3.65-19.91 11.5-27.71 19.25-2.59 2.32-4.16 5.18-8.06 4.91l-1.18-2.1c.41-1.23.7-2.41 1.68-3.34 9.74-9.67 19.71-18.36 32.65-23.47 1.45-.49 2.74-.92 3.82.51ZM709.55 473.6c2.59-1.04 4.44.66 3.59 3.39-2.71 2.38-6.06 3.96-8.84 6.29-5.1 4.18-9.7 9.03-14.09 13.94-1.55 1.77-3.37 3.24-5.28 4.62-.8-.9-1.57-1.83-2.29-2.78-.09-2.29 2.21-4.21 3.59-5.84 6.77-7.11 14.46-15.2 23.32-19.62Z" fill="#000"/></g></g></svg>