<svg xmlns:dc="http://purl.org/dc/elements/1.1/" xmlns:cc="http://creativecommons.org/ns#" xmlns:rdf="http://www.w3.org/1999/02/22-rdf-syntax-ns#" xmlns:svg="http://www.w3.org/2000/svg" xmlns="http://www.w3.org/2000/svg" viewBox="0 0 762 762" fill="none"><metadata><rdf:RDF><cc:Work><dc:format>image/svg+xml</dc:format><dc:type rdf:resource="http://purl.org/dc/dcmitype/StillImage"/><dc:title>Adventurer</dc:title><dc:creator><cc:Agent><dc:title>Lisa Wischofsky</dc:title></cc:Agent></dc:creator><dc:source>https://www.instagram.com/lischis_adventures/</dc:source><cc:license rdf:resource="https://creativecommons.org/licenses/by/4.0/"/></cc:Work><cc:License rdf:about="https://creativecommons.org/licenses/by/4.0/"><cc:permits rdf:resource="https://creativecommons.org/ns#Reproduction"/><cc:permits rdf:resource="https://creativecommons.org/ns#Distribution"/><cc:permits rdf:resource="https://creativecommons.org/ns#DerivativeWorks"/><cc:requires rdf:resource="https://creativecommons.org/ns#Notice"/><cc:requires rdf:resource="https://creativecommons.org/ns#Attribution"/></cc:License></rdf:RDF></metadata><mask id="avatarsRadiusMask"><rect width="762" height="762" rx="0" ry="0" x="0" y="0" fill="#fff"/></mask><g mask="url(#avatarsRadiusMask)"><path d="M396.01 164.85c37.82 4.9 74.21 19.64 104.8 42.39 6.15 4.84 12.48 9.33 18.02 14.92 23.77 21.98 42.73 49.02 55.13 78.95 9.35 22.31 14.72 46.04 16.64 70.14 6.62.81 13.05 2.14 19.12 5 15.54 6.93 27.08 20.94 31.78 37.21 2.63 9.56 3.56 19.75 1.72 29.55-2.96 18.76-13.72 36.13-29.37 46.92-10.94 7.65-24.49 12.03-37.86 11.68-5.13-.05-10.04-1.6-15.13-1.79-1.85 2.17-3.23 4.84-4.76 7.25-18.66 29.62-44.57 54.51-74.64 72.4-28.1 16.73-59.9 27.16-92.46 30.32-11.08.7-21.87 2.05-32.98.74-51.69-2.3-102.07-23.44-140.15-58.43-29.03-26.55-50.84-60.83-62.54-98.39-7.09-22.85-10.62-46.78-10.07-70.71.52-40.34 12.53-80.58 33.94-114.76 19.1-30.81 45.91-56.58 77.2-74.83 29.63-17.28 63.35-27.68 97.59-29.87 14.66-1.47 29.44-.37 44.02 1.31Z" fill="#000"/><path d="M363 169.06c48.47-1.39 97.32 14.7 135.81 44.12 6.55 4.06 11.72 9.49 17.36 14.64 24.33 22.63 43.2 50.95 54.93 82.02 7.43 19.61 11.86 40.2 13.56 61.09-8.89.74-17.34 2.34-25.38 6.38-2.19 1.03-1.89 4.95.68 5.23 2.35.23 4.98-1.51 7.24-2.2 14.62-5.37 31.32-4.35 44.78 3.68 11.69 6.78 20.09 18.16 23.89 31.06 2.6 8.25 2.68 17.41 1.76 25.95-2.5 17.35-12.35 33.73-26.73 43.81-15.71 11.33-37.17 14.64-54.93 6.2-3.17-1.43-5.94-3.58-9.08-5.05-2.95-1.09-4.88 2.79-2.7 4.75 3.17 2.76 7.34 4.52 11 6.56-20.14 34.15-49.45 62.7-84.41 81.47-30.2 16.31-64.44 25.53-98.78 26.15-27.63.72-55.33-4.04-81.21-13.72-30.32-11.24-57.84-29.43-80.37-52.6-22.67-23.37-39.92-51.88-50.2-82.77-14.96-44.64-14.91-94.01.27-138.59 11.05-33.06 30.28-63.21 55.37-87.39 29.67-28.73 67.65-48.54 108.13-56.67 12.8-2.52 25.94-4.24 39.01-4.12Z" fill="rgba(242, 211, 177, 1)"/><path d="M605.03 404.4c2.63-.1 3.44 3.8 1.36 4.98-3.69 1.83-7.82 2.77-11.64 4.35-5.82 2.04-11.28 4.76-16.68 7.72 4.29 2.34 8.86 4.74 12.71 7.76 2.58 2.09 4.85 4.35 5.33 7.8-.26 3.59-2.73 6.55-5.45 8.69-5.86 4.66-13.92 7.18-20.79 10.26-1.75.62-4.43 1.99-5.59-.26-1.02-1.74-.06-3.11 1.57-3.87 6.65-3.3 14.86-5.62 20.79-10.16 1.37-1.14 3.39-2.74 3.61-4.62-4.07-5.63-12.42-8.59-18.23-12.09-2.34-1.72-2.29-4.24-.16-6.13 7.27-5.64 16.98-9.26 25.57-12.38 2.42-.83 5.03-1.95 7.6-2.05Z" fill="#000"/><g transform="translate(-161 -83)"><path d="M554.99 424.09c15.56-.47 31.18 4.79 43.19 14.7 9.2 7.44 16.2 17.65 20.32 28.71 2.1 5.56 2.58 11.13 3.64 16.92-1.32 1.48-1.69 3.34-4.05 3.02-7.04-.31-13.96-2.04-21.03-2.22-8.77-.09-17.381-.37-26.091.95-9.84 1.63-19.519 2.64-29.069 5.72-11.24 3.04-22.07 7.25-32.49 12.45-3.36 1.62-6.47 3.76-9.89 5.22-2.08.77-4.42.35-5.29-1.92-2.28-7.19-2.82-15.19-2.45-22.69.94-15.99 8.12-31.4 19.67-42.5 11.64-11.32 27.3-17.95 43.54-18.36Z" fill="#000"/><path d="M557 429.85c15.33-.23 30.41 6.15 41.39 16.75 9.87 9.5 15.83 22.19 17.69 35.7-14.89-2.86-29.99-3.76-45.11-2.49-5.99.69-11.93 1.87-17.87 2.88-.91-3.26-1.74-6.35-3.55-9.25-5.97-9.96-19.33-15.24-30.34-11.14-7.24 2.35-13.12 7.85-15.96 14.91-3.08 7.37-2.28 15.5 1.22 22.59-1.92.97-3.83 1.94-5.74 2.91-5.12-21.71 3.1-45.53 20.44-59.53 10.54-8.6 24.19-13.57 37.83-13.33Z" fill="#fff"/><path d="M411.45 452.57c13.11 6.46 23.28 18.27 27.77 32.17 3.17 9.49 3.14 19.25 1.59 29.04-.96.52-1.92 1.05-2.88 1.57-9.78-2.77-19.77-4.68-29.91-5.44-17.91-1.13-36.17-1.69-54.05.02-6.9.17-13.47 2.03-20.42 1.58-.89-2.44-1.7-4.84-1.7-7.47-.18-10.31 2.22-20.81 7.45-29.76 6.91-12.04 18.47-21.18 31.78-25.14 13.26-4.05 27.97-2.75 40.37 3.43Z" fill="#000"/><path d="M397.24 453.61c10.7 2.33 20.53 8.2 27.52 16.64 8.89 10.61 13 24.91 11.07 38.62-4.06-1.25-8.12-2.4-12.33-3.02-12.45-1.82-25.08-2.6-37.65-2.38-.06-3.82.07-7.39-1.47-10.98-3-7.74-10.12-13.39-18.35-14.5-10.08-1.52-20.42 4.34-24.35 13.74-2.23 4.9-1.78 9.64-1.96 14.85-1.73-1.26-1.94-1.37-1.99-3.52-.54-12.06 4.06-24.34 11.92-33.45 11.49-13.49 30.27-19.84 47.59-16Z" fill="#fff"/></g><g transform="translate(-161 -83)"><g fill="#000"><path d="M523.24 384.36c6.17-.42 13.09-.61 18.45 2.95 3.68 2.44 5.4 6.35 4.48 10.74-1.55 6.16-6.62 10.92-11.61 14.5-8.97 6.29-19.71 10.24-30.57 11.53-5.61.53-12.5.43-17.47-2.55-3.63-2.13-5.9-6.12-5.2-10.36 1.02-5.75 5.49-10.49 9.94-13.96 9.19-7.03 20.55-11.34 31.98-12.85ZM392.22 401.23c9.11-.36 18.31.51 26.31 5.24 3.85 2.26 7.34 5.89 7.89 10.49.34 4.21-1.96 7.8-5.19 10.27-4.52 3.55-9.87 5-15.43 5.99-9.95 1.02-20.55.32-29.48-4.58-3.87-2.29-7.88-5.85-8.47-10.57-.73-4.27 2.02-8.47 5.39-10.84 5.4-3.87 12.43-5.69 18.98-6Z"/></g></g><g transform="translate(-161 -83)"><path d="M514.98 571.8c9.94-.79 20.34-.67 29.51 3.7 4.75 2.28 8.76 6.09 9.73 11.45.87 5.24-1.16 9.93-4.09 14.14-5.1 7.1-13.03 12.35-20.62 16.48-16.5 8.76-34.08 12.05-52.5 13.76-20.25 3.08-41.64-1.62-59.12-12.17-6.21-3.9-12.82-9.26-16.03-16-2.56-5.26-2.25-12.01 1.93-16.37 4.77-5.2 12.43-7.15 19.2-7.88 15.6-1.27 30.57 2.31 44.79 8.5 14.37-8.43 30.61-13.9 47.2-15.61Z" fill="#000"/><path d="M540.41 580c-3.76 3.21-7.89 5.79-12.13 8.3-2.67 1.53-3.75 4.13-5.44 6.6-1.56 2.55-3.53 4.72-5.75 6.71-3.02-1.1-5.96-2.85-9.11-3.5-3.03.45-5.9 1.87-8.86 2.66-10.02 2.86-20.67 5.01-31.12 4.92-2.95-.04-5.77.19-8.66.81.26 2.47-.5 4.67 2.82 5.01 14.67.86 29.74-2.01 43.63-6.66 4.74-2.07 7.69 3.08 12.84 1.72 4.35-1.27 7.37-6.6 9.92-10.06 1.78-2.8 4.43-4.12 7.14-5.82 3.66-2.24 6.97-4.85 10.35-7.47 1.44 2.56 3.17 4.68 2.42 7.82-1.4 6.39-6.59 11.01-11.48 14.92-12.52 9.5-28.96 14.76-44.24 17.66-14.49 1.98-27.99 4.19-42.61 1.47-12.77-2.46-26.17-7.51-36.14-16.09-3.77-3.41-8.37-8.53-7.81-14.01.33-3.74 3.92-6.31 7.09-7.71 7.95-3.35 16.73-3.08 25.15-2.22 8.71 1.23 17.39 3.52 25.38 7.26 1.55.63 3.37 1.64 5.08 1.52 3.1-1.25 5.75-3.55 8.75-5.06 8.84-4.63 18.43-7.87 28.23-9.73 11.45-2.02 23.37-2.95 34.55.95Z" fill="#fff"/></g><g transform="translate(-161 -83)"><path d="M569 416.32c10.67-.28 21.35-.06 32.02-.26 13.97-.61 27.98-.37 41.98-.52 3.87.15 9-.18 12.21 2.31 2.36 1.63 2.22 5.59 2.35 8.14-.11 4.33-.28 9.38-2.31 13.3-5.07 1.98-11.44 1.25-16.84 1.91.43 12.26 1.67 24.56 1.31 36.83-.71 13.91-3.67 28-10.34 40.32-8.09 13.04-19.91 24.39-33.54 31.51-10.42 5.38-21.75 7.4-33.39 7.78-6.22.19-12.08.49-18.21-.84-9.48-2.04-18.88-4.45-26.96-10.06-11.14-7.58-19.27-18.77-25.41-30.6-6.59-13.57-10.14-29.24-13.26-43.94-.53-2.3-2.38-3.48-4.35-4.45-6.63-2.95-14.93-.51-18.8 5.6-.8 2.41-.9 5.14-1.16 7.65-.62 7.61-2.25 15.33-3.88 22.79-3.12 13.58-8.99 26.32-16.8 37.83-4.35 5.79-9.75 11.42-16.22 14.81-10.53 5.74-22.3 10.09-34.41 10.28-7.24-.19-14.15-.39-21.12-2.5-5.48-1.33-10.51-4.8-15.16-7.94-6.41-4.39-11.06-10.29-15.28-16.72-5.3-8.31-9.31-17.34-12.24-26.73-2.84-9.45-5.24-18.79-5.19-28.73-4.55.67-9.39 2.24-13.99 1.96-4.36-.81-5.31-7.51-5.5-11.08.13-2.39-.16-6.76 2.69-7.68 21.6-9.82 44.44-17.06 67.54-22.42 17.03-3.7 34.73-8.24 52.27-6.65 11.18.94 22.83 3.92 31.72 11.06 3.2 2.41 5.43 6.83 9.38 7.59 7.08 1.83 14.45-1.23 20.89-3.96 3.63-10 10.02-17.34 19.06-22.82 6.29-3.84 13.67-6.15 20.7-8.28 16.76-4.03 33.14-4.65 50.24-5.49Z" fill="#000"/><path d="M307.1 478.16c1.21-1.2 3.4-.01 2.44 1.64-1.21 1.2-3.4.01-2.44-1.64Z" fill="#000"/><ellipse cx="605" cy="457.5" rx="14" ry="10.5" fill="#fff"/><ellipse cx="411" cy="476.107" rx="11" ry="8.107" fill="#fff"/></g><g transform="translate(-161 -83)"><path d="M427.001 180.22c13.66-1.65 28.43 2.1 39.65 10.1 6.46 4.66 11.91 10.86 14.73 18.39 2.44 6.39 2.44 13.59.02 19.99 32.06-9.47 65.13-14.81 98.6-14.53 7.34.24 14.7.77 22.02 1.36 31.26 3.15 61.83 12.14 88.6 28.85 24.77 15.42 45.3 37.46 58.42 63.57 10.97 21.52 16.93 45.51 18.49 69.55 27.38-6.61 57.44 7.05 73.18 29.82 7.47 10.85 12.2 24.29 10.85 37.57-.13 1.77-1.96 2.94-3.53 3.33-2.67-.59-5.06-2.5-7.55-3.63-13.52-6.58-28.39-10.63-43.29-12.48 27.08 18.39 47.51 46.44 57.06 77.72 4.93 15.87 6.54 32.68 4.73 49.19-2.17 17.43-8.69 34.27-20.53 47.41-1.58 1.79-5.21 2.32-6.1-.35.13-10.2.67-21.98-4.62-31.22-5.22 15.72-14.52 29.93-27.28 40.56-13.95 11.79-31.83 18.96-49.96 20.73-15.14 1.9-30.9-.28-45.38-4.95-4.49 6.33-7.63 13.95-6.6 21.84.31 1.69-1.23 2.42-2.27 3.41-2.36-1.58-4.8-3.03-7.2-4.55-6.03-3.89-11.03-8.84-15.8-14.15-1.1-1.04-1.2-2.3-1.54-3.7 18.34-16.01 33.94-35.22 46.02-56.35 1.42-2.71 4-1.5 6.3-.97 16.61 4.89 34.65.87 48.46-9.28 13.83-9.9 23.33-25.7 26.04-42.44 1.34-10.42.92-20.86-2.89-30.74-4.8-12.99-14.56-23.92-27.21-29.68-11.6-5.35-24.93-5.94-37.12-2.3-4.64 11.57-10.84 22.67-18.5 32.52-7.33 8.85-15.66 17.26-24.94 24.07-1.74 1.18-3.42 2.27-5.27.53-1.49-1.8.46-5.16.77-7.26 3.01-12.75 6.05-26 6.04-39.15.69-11.04.13-22.1-1.74-33.01-.47-2.58-.56-5.58-1.72-7.94-3.03-.36-6.07-.29-9.1-.82-8.12-1.31-15.88-5.75-22.18-10.89-8.23-7-12.82-16.54-13.39-27.32-3.21 6.55-5.1 13.63-4.41 20.98-.05 1.82.74 4.74-.8 6.08-1.77 1.06-4.04 1.42-6.06 1.74-11.96 1.41-24.65.52-35.94-3.89-10.84-4.17-20.21-11.84-26.02-21.95-6.53-11.46-8.23-24.52-6.83-37.5.43-3.38 1.18-6.63 1.39-10.03-4.35 7.91-7.59 16.08-9.05 25.03-1.87 11.12-2.52 23.87 1.43 34.62.42 1.46 1.18 3.28.74 4.78-.46 1.63-2.25 2.16-3.74 1.46-8.64-3.81-14.41-10.36-20.04-17.67-.3 4.62.2 8.47 1.64 12.84.43 1.97 1.93 4.63.37 6.39-1.26 1.89-3.77 1.94-5.77 2.47-15.89 2.97-32.02 5.33-48.17 6.16-8.91 1-18.04.53-27.01.61-19.46-.91-39.74-3.35-57.65-11.49-10.96-5.03-21.17-12.4-26.58-23.5-2.62-5.2-3.29-10.66-3.95-16.36-2.82 2.71-4.81 5.97-6.58 9.43-5.27 10.36-8.36 22.12-8.15 33.78-.02 3.04.85 6.09.6 9.1-.62 2.32-3.69 2.22-5.57 1.82-6.46-1.37-12.82-3.48-18.84-6.2-3.39-1.48-6.43-3.55-9.88-4.89-3.69 16.65-6.4 33.04-6.27 50.17-1.07 51.95 17.71 103.95 51.28 143.56 2.33 2.74 4.84 4.8 5.42 8.6-2.57 2.31-4.41 3.04-7.82 3.42-18.47 2.62-35.95-5.07-49.86-16.74-15.83-13.49-27.07-32.44-31.16-52.84-1.42-6.95-1.3-13.88-1.18-20.93-8.83 9.51-14.85 22.47-15.31 35.52-.07 1.46-2.03 2.45-3.37 2.06-1.44-.42-2.08-1.79-2.74-3.01-10.66-22.27-14.75-47.07-13.37-71.64 1.33-22.07 7.46-44.77 19.46-63.5 8.94-13.91 21.03-25.46 36.58-31.59-9.83-12.89-14.79-28.73-14.32-44.91.46-21.62 9.48-41.91 22.37-58.96 18.86-24.7 46.3-42.88 76.02-51.68 16.44-5.01 33.8-6.64 50.89-4.96 4.75.41 9.29 1.62 14.02 2.3.16-9.93-4.73-18.34-11.58-25.14-8.44-8.17-19.85-14.15-31.61-15.29-2.28-.4-5.06.36-6.16-2.22-.39-2.59 1.56-4.46 3.04-6.31 6.53-7.45 16.58-11.5 26.27-12.52Z" fill="#000"/><path d="M432 185.57c12.72-.13 25.38 4.01 35 12.44 4.89 4.37 8.97 10.43 10.09 16.98 1.2 5.18-.21 10.65-2.96 15.11-.94 1.45-1.77 3.61-.14 4.89 2.26 1.47 5.62.44 8-.28 37.89-11.61 77.5-17.08 117.09-13.66 29.69 2.72 59.1 10.83 84.86 26.08 23.87 13.99 43.94 34.19 57.29 58.46 12.53 22.59 19.03 47.72 20.65 73.43.16 1.73.09 3.43 1.9 4.25 1.37.77 2.61.36 4.05.09 22.77-6.01 48.23 3.95 63.46 21.32 9.11 10.19 14.69 23.12 14.83 36.88-17.83-9.66-38.87-15.32-59.13-16-2.24-.14-3.44.12-4.27 2.34-.09 2.38 1.66 2.91 3.31 4.04 25.97 15.02 46.61 39.28 58.13 66.9 6.68 16.06 10.38 33.74 9.72 51.16-.55 16.94-5.66 34.31-15.99 47.92-.33-4.3-.32-8.67-.95-12.93-1.1-6.42-3.62-12.69-6.54-18.49-.88-1.79-2.5-2.6-4.37-1.62-1.94.73-2.07 2.53-2.73 4.25-3.88 14.55-11.82 28.07-22.75 38.43-10.71 10.27-24.34 17.37-38.73 20.84-17.58 4.26-36.62 3.03-53.83-2.34-2.7-.79-5.23-.38-7.01 1.91-4.42 5.48-7.31 12.89-8.2 19.84-5.31-3.29-9.86-7.46-14.14-11.96 5.8-5.62 11.63-11.18 16.95-17.28 9.95-11.06 18.45-23.23 26.11-35.97 5.49.59 10.72 2.02 16.3 1.99 20.71.13 40.36-10.5 52.67-26.96 8.68-11.39 13.62-25.35 14.44-39.63.42-14.03-3.18-28.16-11.4-39.66-9.07-12.94-23.89-22.09-39.71-23.55-6.72-1.09-13.33-.63-19.96.79-.01-2.3.86-4.32-.84-6.21-1.86-.28-3.23-.3-3.79 1.77-2.44 9.56-7.23 18.62-12.18 27.11-7.03 12.09-16.73 22.41-27.21 31.58 2.61-13.01 5.48-25.43 5.19-38.83.58-14.16-1.1-28.23-4.23-42.03-.29-1.61-1.09-3.04-2.93-3.04-5.56-.05-10.78.23-16.04-1.95-8.25-3.37-16.7-8.93-21.16-16.87-4.31-7.28-4.83-17-4.58-25.25-1.11-2.26-4.04-1.86-5.11.24-2.48 4.31-5.19 8.7-6.88 13.36-2.53 6.44-3.54 13.55-3.4 20.44-15 2.08-31.58.19-44.38-8.44-10.01-6.65-16.51-17.28-18.86-28.98-2.36-12.54-.74-25.5 3.5-37.47.52-1.8 1.7-4.15.8-5.94-1.25-2.18-4.27-1.38-5.82.02-12.05 13.18-18.4 30.2-19.56 47.92-.95 7.66.12 15.06 1.33 22.61-5.82-4.46-10.48-10.1-14.08-16.47-1.44-2.83-5.27-2.46-6.06.66-1.9 7.28-1.45 15.46.95 22.59-29.34 5.69-58.82 8.53-88.7 6.11-16.73-1.75-34.92-5.19-49.53-13.94-8.63-5.19-15.86-12.49-18.53-22.45-1.46-5.19-.63-9.98-.7-15.21-1.29-2.04-3.4-2.33-5.38-1.06-6.86 4.69-10.91 11.29-14.41 18.65-5.22 11.69-8.1 24.61-6.98 37.44-14.7-3.83-28.22-10.5-38.57-21.85-12.44-13.43-17.97-32.14-16.01-50.21.98-12.2 5.23-24.28 10.96-35.04 9.56-17.77 24.08-32.95 40.55-44.47 19.49-13.55 41.96-22.51 65.6-25.16 13.73-1.73 27.65-.6 41.01 2.9 1.91.64 3.22-.56 3.85-2.25 2.2-8.88-.46-17.69-5.46-25.09-9.12-13.46-24.47-22.9-40.55-25.13 7.08-6.84 16.48-9.68 26.15-10.07ZM302.061 404.67c3.03 2.95 6.14 5.72 9.43 8.38-4.55 18.16-7.41 37.21-7.17 55.95-.65 53.87 19.4 107.12 54.71 147.72-10.46 1.84-21.09-.63-30.56-5.09-14.35-6.91-26.33-19.05-34.38-32.68-7.84-13.37-12.61-29.38-11.61-44.95.1-2.69.83-5.39.7-8.07-.78-2.25-3.07-2.59-5.06-1.66-4.18 1.95-7.66 5.88-10.33 9.56-4.92 6.66-8.38 14.23-10.55 22.2-7.43-17.81-10.2-37.82-9.7-57.03.98-23.36 7.22-47.5 20.55-66.95 8.44-12.35 19.69-22.4 33.97-27.38Z" fill="rgba(171, 42, 24, 1)"/></g></g></svg>