<svg xmlns:dc="http://purl.org/dc/elements/1.1/" xmlns:cc="http://creativecommons.org/ns#" xmlns:rdf="http://www.w3.org/1999/02/22-rdf-syntax-ns#" xmlns:svg="http://www.w3.org/2000/svg" xmlns="http://www.w3.org/2000/svg" viewBox="0 0 762 762" fill="none"><metadata><rdf:RDF><cc:Work><dc:format>image/svg+xml</dc:format><dc:type rdf:resource="http://purl.org/dc/dcmitype/StillImage"/><dc:title>Adventurer</dc:title><dc:creator><cc:Agent><dc:title>Lisa Wischofsky</dc:title></cc:Agent></dc:creator><dc:source>https://www.instagram.com/lischis_adventures/</dc:source><cc:license rdf:resource="https://creativecommons.org/licenses/by/4.0/"/></cc:Work><cc:License rdf:about="https://creativecommons.org/licenses/by/4.0/"><cc:permits rdf:resource="https://creativecommons.org/ns#Reproduction"/><cc:permits rdf:resource="https://creativecommons.org/ns#Distribution"/><cc:permits rdf:resource="https://creativecommons.org/ns#DerivativeWorks"/><cc:requires rdf:resource="https://creativecommons.org/ns#Notice"/><cc:requires rdf:resource="https://creativecommons.org/ns#Attribution"/></cc:License></rdf:RDF></metadata><mask id="avatarsRadiusMask"><rect width="762" height="762" rx="0" ry="0" x="0" y="0" fill="#fff"/></mask><g mask="url(#avatarsRadiusMask)"><path d="M396.01 164.85c37.82 4.9 74.21 19.64 104.8 42.39 6.15 4.84 12.48 9.33 18.02 14.92 23.77 21.98 42.73 49.02 55.13 78.95 9.35 22.31 14.72 46.04 16.64 70.14 6.62.81 13.05 2.14 19.12 5 15.54 6.93 27.08 20.94 31.78 37.21 2.63 9.56 3.56 19.75 1.72 29.55-2.96 18.76-13.72 36.13-29.37 46.92-10.94 7.65-24.49 12.03-37.86 11.68-5.13-.05-10.04-1.6-15.13-1.79-1.85 2.17-3.23 4.84-4.76 7.25-18.66 29.62-44.57 54.51-74.64 72.4-28.1 16.73-59.9 27.16-92.46 30.32-11.08.7-21.87 2.05-32.98.74-51.69-2.3-102.07-23.44-140.15-58.43-29.03-26.55-50.84-60.83-62.54-98.39-7.09-22.85-10.62-46.78-10.07-70.71.52-40.34 12.53-80.58 33.94-114.76 19.1-30.81 45.91-56.58 77.2-74.83 29.63-17.28 63.35-27.68 97.59-29.87 14.66-1.47 29.44-.37 44.02 1.31Z" fill="#000"/><path d="M363 169.06c48.47-1.39 97.32 14.7 135.81 44.12 6.55 4.06 11.72 9.49 17.36 14.64 24.33 22.63 43.2 50.95 54.93 82.02 7.43 19.61 11.86 40.2 13.56 61.09-8.89.74-17.34 2.34-25.38 6.38-2.19 1.03-1.89 4.95.68 5.23 2.35.23 4.98-1.51 7.24-2.2 14.62-5.37 31.32-4.35 44.78 3.68 11.69 6.78 20.09 18.16 23.89 31.06 2.6 8.25 2.68 17.41 1.76 25.95-2.5 17.35-12.35 33.73-26.73 43.81-15.71 11.33-37.17 14.64-54.93 6.2-3.17-1.43-5.94-3.58-9.08-5.05-2.95-1.09-4.88 2.79-2.7 4.75 3.17 2.76 7.34 4.52 11 6.56-20.14 34.15-49.45 62.7-84.41 81.47-30.2 16.31-64.44 25.53-98.78 26.15-27.63.72-55.33-4.04-81.21-13.72-30.32-11.24-57.84-29.43-80.37-52.6-22.67-23.37-39.92-51.88-50.2-82.77-14.96-44.64-14.91-94.01.27-138.59 11.05-33.06 30.28-63.21 55.37-87.39 29.67-28.73 67.65-48.54 108.13-56.67 12.8-2.52 25.94-4.24 39.01-4.12Z" fill="rgba(236, 173, 128, 1)"/><path d="M605.03 404.4c2.63-.1 3.44 3.8 1.36 4.98-3.69 1.83-7.82 2.77-11.64 4.35-5.82 2.04-11.28 4.76-16.68 7.72 4.29 2.34 8.86 4.74 12.71 7.76 2.58 2.09 4.85 4.35 5.33 7.8-.26 3.59-2.73 6.55-5.45 8.69-5.86 4.66-13.92 7.18-20.79 10.26-1.75.62-4.43 1.99-5.59-.26-1.02-1.74-.06-3.11 1.57-3.87 6.65-3.3 14.86-5.62 20.79-10.16 1.37-1.14 3.39-2.74 3.61-4.62-4.07-5.63-12.42-8.59-18.23-12.09-2.34-1.72-2.29-4.24-.16-6.13 7.27-5.64 16.98-9.26 25.57-12.38 2.42-.83 5.03-1.95 7.6-2.05Z" fill="#000"/><g transform="translate(-161 -83)"><path d="M506.03 461.12c5.49-1.16 11.66 2.44 16.92 3.98 22.15 7.08 45.9 9.46 69.06 7.74 6.23-.6 12.8-2.41 19.04-2.01 6.2.66 10.39 6.07 10.95 12.06.76 10.8-.8 22-5.08 31.99-5.94 13.99-16.89 25.72-30.44 32.6-21.35 11.08-48.35 9.02-67.75-5.21-14.69-10.49-24.7-27.34-26.67-45.3-.85-8.69-.38-17.4 2.09-25.8 1.39-5.24 6.78-9 11.88-10.05ZM428.25 466.75c3.63 2.23 5.82 6.6 7.78 10.25 5.54 10.79 7 23.18 4.95 35.07-2.05 10.58-7.16 20.51-14.73 28.2-8.25 8.47-19.31 14.15-31.01 15.88-14.37 2.22-29.54-1.48-41.16-10.25-11.27-8.31-19.08-21.07-21.34-34.89-.57-3.68-1.52-7.6.15-11.13 1.65-4.19 5.67-7.09 10.11-7.6 4.94-.59 9.87-1.18 14.78-2 18.38-3.3 35.26-11.25 50.36-22.12 5.88-5.11 13.54-5.46 20.11-1.41Z" fill="#000"/><path d="M513.41 467.65c12.21 5.03 25.51 7.97 38.57 9.71 15.64 2.02 31.39 2.59 47.04.31 3.87-.56 8.11-1.82 11.99-1.53 2.43.08 4.35 2.67 4.82 4.87 1.65 11.7-.21 23.76-5.45 34.37-6.36 13.22-17.88 24.01-31.6 29.27-10.66 4.29-22.51 5.42-33.76 3.03-17.11-3.39-32.41-14.68-40.59-30.1-6.9-12.96-9.37-29-5.07-43.17 1.67-6.19 8.01-9.93 14.05-6.76ZM427.77 474.23c4.78 7.05 7.55 15.26 8.39 23.72 1.24 16.39-6.13 32.97-19.25 42.91-8.79 6.83-19.83 10.35-30.92 10.3-11.61-.38-23-4.71-31.68-12.48-9.68-8.5-15.78-20.84-16.54-33.71-.47-3.19 2.13-6.46 5.26-6.95 3.24-.67 6.63-.78 9.92-1.18 18.5-2.26 36.59-9.6 52.19-19.69 3.09-1.92 5.86-4.31 8.97-6.18 4.4-2.3 10.95-1.13 13.66 3.26Z" fill="#fff"/><path d="M533.54 496.92c12.3-1.1 23.89 8.53 24.08 21.08.84 11.05-7.56 21.22-18.45 22.83-11.91 2.14-23.93-6.81-25.41-18.8-1.92-12.29 7.51-23.97 19.78-25.11ZM400.49 505.5c5.96-1.31 12.63.86 17.06 4.96 6.53 5.99 8.17 16.12 3.72 23.81-4.15 7.79-13.62 11.6-22.08 9.37-8.34-2.18-14.54-9.95-14.42-18.64-.3-9.44 6.57-17.6 15.72-19.5Z" fill="#000"/></g><g transform="translate(-161 -83)"><g fill="#000"><path d="M452.03 395.85c.66 4.64-1.51 9.35-4.21 13-3.6 4.46-7.81 8.36-12.85 11.13-7.66 4.35-15.96 7.71-24.19 10.81-23.79 8.79-48.56 15.1-73.52 19.48-3.35.54-6.97 1.5-10.36 1.11-1.92-.92-2-2.82-1.11-4.52 2.34-1.8 5.49-2.72 8.19-3.89 35.94-14.72 71.88-29.45 107.8-44.2 3.36-1.25 6.59-3.38 10.25-2.92ZM478.97 396c49.32 7.61 98.68 15.15 148.01 22.75 2.58.42 5.33.58 7.81 1.41 2.44 1.14 1.7 5.04-.96 5.26-9.59.95-19.18 1.82-28.83 1.95-15.39.1-30.64.32-45.98-1.18-20.91-1.64-42.24-4.59-62.25-11.06-6.97-2.41-14.88-5.46-20.27-10.64-1.79-1.9-4.09-4.28-3.17-7.13 1.22-2.13 3.6-1.59 5.64-1.36Z"/></g></g><g transform="translate(-161 -83)"><path d="M495.999 576.26c3.08-.09 6.12-.07 9.17.33.43.8.85 1.6 1.28 2.39-.42.82-.84 1.64-1.25 2.47-7.68.86-15.48.06-23.2.66-28.03.19-55.98.31-84.04.55-1.67.13-4.56-.53-4.37-2.68-.53-1.67 1.85-3.31 3.35-3.17 33.02-.15 66.04-.35 99.06-.55Z" fill="#000"/></g><g transform="translate(-161 -83)"/><g transform="translate(-161 -83)"><path d="M440.21 189.23c1.82-.15 3.61-1.05 4.73.89 1.51 2.06 1.09 3.45-.62 5.17-8.4 8.19-15.44 17.64-18.3 29.22 30.03-13.11 63.35-19.56 95.98-20.93 9.35-.74 18.62-.76 27.98-.03 27.24 1.14 54.75 5.74 80.54 14.74 18.43 6.49 36.95 15.6 51.95 28.27 12.36 10.44 22.4 23.27 26.58 39.15 3.77-.25 7.29-.41 10.68 1.56 7.23 3.84 12.41 12.03 16.03 19.14 7.23 14.48 11.37 30.79 14.44 46.61 3.35 17.18 4.82 34.53 5.84 51.98.07 12.96.52 26.14-.8 39.03-.43 4.23-.31 8.7-1.35 12.83-.95 2.98-4.37 2.73-6.88 3.03-8.27.28-17.84 1.75-24.97 6.2-1.32 2.53-1.49 5.65-2.73 8.24-2.01 2.29-4.83 3.94-7.26 5.76-6.26 4.36-12.21 9.15-18.46 13.52-1.79 1.14-4.14 2.68-5.91.62-1.39-1.23-1.39-2.49-1.11-4.22 3.22-19.56 2.88-40.22 2.25-60 .09-7.78-.9-15.44-1.36-23.21-6.69-.5-13.21-2.12-19.27-5.02-14.46-6.84-26.51-18.83-34.18-32.79-6.09-11.04-9.41-23.41-8.23-36.06-52.79 8.56-106.29 13.25-159.78 13.37-10.76-.32-21.48.01-32.23-.92-14.32-.65-28.59-1.9-42.76-4.03-11.24-1.78-22.65-4.02-33.28-8.1-4.9 5.03-8.02 10.78-11.92 16.58-2.31 3.46-3.93 7.34-6.34 10.71-1.04 1.6-3.14 1.8-4.36.29-1.2-2.37-1.6-5.21-2.13-7.8-2.35-12.43-1.19-25.41 4.07-36.97-2.41-4.53-4.62-9.07-5.82-14.09-3.86-14.97-.72-30.8 6.45-44.27 9.36-17.81 24.92-32.5 41.64-43.39 18.57-12.13 39.26-20.34 60.89-25.08Z" fill="#000"/><path d="M435.92 196.13c-6.96 8.05-12.92 16.5-15.33 27.05-.33 2-1.3 4.59-.17 6.42 1.45.75 3.07 1.21 4.61 1.72 41.78-18.93 88.5-24.52 133.96-21.54 29.03 2.24 58.42 8.33 85.13 20.14 15.2 6.8 30.37 15.94 42 27.97 8.88 9.11 15.81 20.3 18.03 32.97.59.44 1.18.89 1.78 1.33 4.08-.71 7.57-1.75 11.44.46 6.46 3.65 10.86 11.47 14.01 17.96 7.34 15.7 11.46 33.35 14.37 50.38 2.02 12.58 3.51 25.29 4.06 38.01.1 8.02.84 15.98.57 24-.42 10.49-.57 20.96-1.8 31.4-7.76.33-15.22.97-22.58 3.66-2.81 1.06-6.39 2.23-8.38 4.57-1.53 2.71-1.97 6.06-2.97 9.01-7.28 5.15-14.53 10.35-21.76 15.59 1.56-9.37 1.41-18.77 2.13-28.21.5-9.4-.6-18.64-.7-28.02-.24-5.39-.22-10.67-.79-16.01-.52-4.67-.51-8.99-2.02-13.48-5.68-.78-11.19-1.07-16.57-3.26-15.98-5.83-29.28-19.16-36.96-34.15-5.18-10.62-8.45-22.91-5.57-34.66-2.58-3.44-7.28-2.27-10.91-1.73-44.79 7.18-90.13 11.61-135.5 12.41-13.01.59-26 .54-39.01-.09-10.01-.16-20-.54-29.97-1.44-17.05-1.48-34.61-3.56-51.02-8.55-5.89-1.88-12.04-4.3-17.01-8.05-10.89-11.01-16.12-27.82-12.69-43 2.91-15.95 12.59-30.49 23.89-41.81 20.34-20.4 48.01-34.01 75.73-41.05ZM340.46 321.25c3.14 4.26 7.23 7.13 11.81 9.64-4.99 6.61-9.55 13.52-14.01 20.49-1.13-8.99-1.42-17.78 1.2-26.56.33-1.19.67-2.38 1-3.57Z" fill="rgba(106, 78, 53, 1)"/><path d="M718.21 480.6c2 1.12 1.55 3.34-.03 4.59-7.96 6.81-16.37 13-24.89 19.08-1.55.96-3.29 1.85-4.72.17-1.79-1.75.01-3.31 1.33-4.57 3.66-3.04 7.78-5.52 11.6-8.35 4.08-2.92 7.87-6.18 11.84-9.23 1.53-1.01 2.91-2.33 4.87-1.69Z" fill="#000"/></g></g></svg>