<svg xmlns:dc="http://purl.org/dc/elements/1.1/" xmlns:cc="http://creativecommons.org/ns#" xmlns:rdf="http://www.w3.org/1999/02/22-rdf-syntax-ns#" xmlns:svg="http://www.w3.org/2000/svg" xmlns="http://www.w3.org/2000/svg" viewBox="0 0 762 762" fill="none"><metadata><rdf:RDF><cc:Work><dc:format>image/svg+xml</dc:format><dc:type rdf:resource="http://purl.org/dc/dcmitype/StillImage"/><dc:title>Adventurer</dc:title><dc:creator><cc:Agent><dc:title>Lisa Wischofsky</dc:title></cc:Agent></dc:creator><dc:source>https://www.instagram.com/lischis_adventures/</dc:source><cc:license rdf:resource="https://creativecommons.org/licenses/by/4.0/"/></cc:Work><cc:License rdf:about="https://creativecommons.org/licenses/by/4.0/"><cc:permits rdf:resource="https://creativecommons.org/ns#Reproduction"/><cc:permits rdf:resource="https://creativecommons.org/ns#Distribution"/><cc:permits rdf:resource="https://creativecommons.org/ns#DerivativeWorks"/><cc:requires rdf:resource="https://creativecommons.org/ns#Notice"/><cc:requires rdf:resource="https://creativecommons.org/ns#Attribution"/></cc:License></rdf:RDF></metadata><mask id="avatarsRadiusMask"><rect width="762" height="762" rx="0" ry="0" x="0" y="0" fill="#fff"/></mask><g mask="url(#avatarsRadiusMask)"><path d="M396.01 164.85c37.82 4.9 74.21 19.64 104.8 42.39 6.15 4.84 12.48 9.33 18.02 14.92 23.77 21.98 42.73 49.02 55.13 78.95 9.35 22.31 14.72 46.04 16.64 70.14 6.62.81 13.05 2.14 19.12 5 15.54 6.93 27.08 20.94 31.78 37.21 2.63 9.56 3.56 19.75 1.72 29.55-2.96 18.76-13.72 36.13-29.37 46.92-10.94 7.65-24.49 12.03-37.86 11.68-5.13-.05-10.04-1.6-15.13-1.79-1.85 2.17-3.23 4.84-4.76 7.25-18.66 29.62-44.57 54.51-74.64 72.4-28.1 16.73-59.9 27.16-92.46 30.32-11.08.7-21.87 2.05-32.98.74-51.69-2.3-102.07-23.44-140.15-58.43-29.03-26.55-50.84-60.83-62.54-98.39-7.09-22.85-10.62-46.78-10.07-70.71.52-40.34 12.53-80.58 33.94-114.76 19.1-30.81 45.91-56.58 77.2-74.83 29.63-17.28 63.35-27.68 97.59-29.87 14.66-1.47 29.44-.37 44.02 1.31Z" fill="#000"/><path d="M363 169.06c48.47-1.39 97.32 14.7 135.81 44.12 6.55 4.06 11.72 9.49 17.36 14.64 24.33 22.63 43.2 50.95 54.93 82.02 7.43 19.61 11.86 40.2 13.56 61.09-8.89.74-17.34 2.34-25.38 6.38-2.19 1.03-1.89 4.95.68 5.23 2.35.23 4.98-1.51 7.24-2.2 14.62-5.37 31.32-4.35 44.78 3.68 11.69 6.78 20.09 18.16 23.89 31.06 2.6 8.25 2.68 17.41 1.76 25.95-2.5 17.35-12.35 33.73-26.73 43.81-15.71 11.33-37.17 14.64-54.93 6.2-3.17-1.43-5.94-3.58-9.08-5.05-2.95-1.09-4.88 2.79-2.7 4.75 3.17 2.76 7.34 4.52 11 6.56-20.14 34.15-49.45 62.7-84.41 81.47-30.2 16.31-64.44 25.53-98.78 26.15-27.63.72-55.33-4.04-81.21-13.72-30.32-11.24-57.84-29.43-80.37-52.6-22.67-23.37-39.92-51.88-50.2-82.77-14.96-44.64-14.91-94.01.27-138.59 11.05-33.06 30.28-63.21 55.37-87.39 29.67-28.73 67.65-48.54 108.13-56.67 12.8-2.52 25.94-4.24 39.01-4.12Z" fill="rgba(236, 173, 128, 1)"/><path d="M605.03 404.4c2.63-.1 3.44 3.8 1.36 4.98-3.69 1.83-7.82 2.77-11.64 4.35-5.82 2.04-11.28 4.76-16.68 7.72 4.29 2.34 8.86 4.74 12.71 7.76 2.58 2.09 4.85 4.35 5.33 7.8-.26 3.59-2.73 6.55-5.45 8.69-5.86 4.66-13.92 7.18-20.79 10.26-1.75.62-4.43 1.99-5.59-.26-1.02-1.74-.06-3.11 1.57-3.87 6.65-3.3 14.86-5.62 20.79-10.16 1.37-1.14 3.39-2.74 3.61-4.62-4.07-5.63-12.42-8.59-18.23-12.09-2.34-1.72-2.29-4.24-.16-6.13 7.27-5.64 16.98-9.26 25.57-12.38 2.42-.83 5.03-1.95 7.6-2.05Z" fill="#000"/><g transform="translate(-161 -83)"><path d="M561.861 423.28c1.79.47 1.92 1.91 1.98 3.5.02 6.73-.89 13.42-.75 20.17 8.34.57 16.09 2.01 24.09 4.41 3.09-7.1 5.83-14.35 8.73-21.52.94-1.82 1.46-4.16 4.03-3.81 2.35.23 2.58 3 1.77 4.75-2.95 7.55-6.03 15.07-9.09 22.57 6.75 2.72 12.58 6.27 18.22 10.84 4.88-4.58 9.61-9.35 14.61-13.8 1.61-1.56 3.31-1.05 5.34-1.14-.17 1.98.27 3.67-1.36 5.17-4.75 4.73-9.71 9.27-14.6 13.87 3.57 5.14 6.56 10.24 6.7 16.71.65 9.87-4.85 18.25-12.06 24.44-11.14 9.42-26.17 14.24-40.45 16.09-16.6 1.82-33.82.84-49.57-5.05-9.18-3.45-18.18-8.76-24.39-16.49-5.05-6.42-7.79-14.69-5.7-22.8 2.47-9.89 9.93-17.25 18.37-22.44 14.79-8.93 32.37-12.08 49.46-12.05.24-6.57.54-13.17 1.11-19.72.06-1.98 1.23-4.28 3.56-3.7ZM371.979 441.39c1.93-.19 2.61 2.2 3.14 3.63 1.19 4.97 1.31 10.2 2.17 15.24 8.52-.82 17.28-.66 25.73.76 10.86 2.02 22.05 6.02 30.13 13.83 4.96 4.66 8.49 11.22 8.27 18.15-.46 7.42-4.43 13.69-9.92 18.48-8.9 7.86-21.44 11.98-33.01 13.71-15.71 2.23-32.97.68-47.39-6.25-8.49-4.18-17-11.26-19.21-20.87-1.28-5.19-.03-9.95 1.98-14.74-3.86-3.53-7.69-7.1-11.45-10.73-.82-1.01-2.4-2.18-2-3.61.02-2.54 3.45-3.08 4.99-1.37 4 3.5 7.71 7.34 11.68 10.88 3.38-3.65 6.97-6.57 11.16-9.24-2.74-6.13-5.52-12.24-8.25-18.36-1.11-2.21-.85-4.39-.69-6.76 1.24.21 2.62.25 3.78.76 1.18 1.19 1.85 2.96 2.57 4.46 2.5 5.77 5.18 11.45 7.58 17.25 5.99-2.57 11.89-4.32 18.29-5.56-.39-5.41-1.7-10.7-2.04-16.11.01-1.53.39-4.08 2.49-3.55Z" fill="#000"/><path d="M539.5 453.67c14.63-2.22 30-1.53 44.23 2.67 9.51 2.94 19.21 7.45 25.93 15.02 4.3 4.85 7.04 11.05 5.99 17.64-1.05 7.24-5.76 12.91-11.35 17.3-8.81 6.84-20.25 10.76-31.11 12.82-15.73 2.81-32.35 2.12-47.64-2.63-9.43-3.02-19.09-7.77-25.56-15.48-4.32-5.09-6.88-12.41-4.86-19 1.56-6.56 6.67-12 11.93-15.92 9.35-6.79 21.12-10.62 32.44-12.42ZM371.53 466.92c15.61-3 32.89-1.76 47.4 5.05 6.37 3.03 13.4 8.25 15.73 15.18 2.07 5.65.38 11.7-3.31 16.24-4.63 5.75-11.74 9.78-18.58 12.34-12.6 4.53-26.55 5.97-39.78 3.81-9.02-1.36-18.44-4.32-25.91-9.68-5.22-3.87-9.62-9.04-9.9-15.83-.19-6.6 3.87-12.11 8.74-16.14 7.19-5.81 16.63-9.2 25.61-10.97Z" fill="#fff"/><path d="M592.24 469.18c2.15-1.56 4.62-.31 5.94 1.67 1.83 3.14 2.15 6.61 2.49 10.16.43 5.18.88 10.72-.25 15.84-.28 1.37-.95 2.62-2.03 3.53-2.92 1.46-6.85-1.24-7.61-4.16-1.98-6.22-1.92-13.23-1.41-19.69.41-2.37.65-5.91 2.87-7.35ZM413.31 476.33c2.36-1.35 5.2-.18 5.96 2.42 1.79 5.09 1.92 10.91 2.05 16.26-.15 3.13-.37 8.05-3.81 9.46-2.59.94-4.59-1.38-5.4-3.58-1.88-5.25-1.76-11.39-1.51-16.9.25-2.35.45-6.27 2.71-7.66Z" fill="#000"/></g><g transform="translate(-161 -83)"><path d="M582.3 370.69c14.06 7.04 27.75 17.35 36.57 30.53 2.05 2.95-1.4 6.24-4.23 4.15-10.56-6.54-22.24-11.16-34.46-13.42-35.66-6.86-74.47 5.14-98.23 33.03-1.67 2.05-4.03 3.59-6.28 1.25-1.68-2.6-2.27-6.05-3.3-8.95-1.92 4.71-3.86 9.5-6.21 14.02-1.55 3.23-6 1.12-7.03-1.42-3.06-6.88-6.21-13.74-9.02-20.73.01 5.63.01 11.25.04 16.88-.19 2.06.27 4.35-2.11 5.22-2.06.23-4.36-1.03-5.3-2.91-3.26-5.88-6.24-11.93-9.49-17.82.96 5.51 2.6 10.99 3.1 16.55.12 1.94-2.28 3.44-4.02 2.36-18.54-7.4-38.31-11.49-58.33-10.09-12.5.92-26.14 4.63-36 12.68-3.09 2.34-5.2 5.51-7.97 8.15-1.65.72-3.27-.24-4.88-.65.08-1.91.11-3.75.73-5.58 6.86-20.67 20.43-39.8 39.98-50.1 13.56-7.32 30.17-9.03 44.62-3.35 11.89 4.55 20.95 13.32 27.67 23.95 2.31-2.84 4.25-6.03 6.75-8.71 1.62-1.56 4.62-1.55 5.63.72 2.52 5.15 4.68 10.51 6.98 15.78 1.49-7.42 3.06-14.81 4.43-22.24.33-1.5.6-3.23 1.58-4.45 1.65-1.25 2.9-.28 4.65.1.27.86.53 1.71.8 2.56 2.08-4.75 4.75-9.11 8.44-12.78 9.1-9.43 21.82-14.25 34.5-16.48 23.85-3.69 48.86 1.12 70.39 11.75Z" fill="#000"/></g><g transform="translate(-161 -83)"><path d="M514.98 571.8c9.94-.79 20.34-.67 29.51 3.7 4.75 2.28 8.76 6.09 9.73 11.45.87 5.24-1.16 9.93-4.09 14.14-5.1 7.1-13.03 12.35-20.62 16.48-16.5 8.76-34.08 12.05-52.5 13.76-20.25 3.08-41.64-1.62-59.12-12.17-6.21-3.9-12.82-9.26-16.03-16-2.56-5.26-2.25-12.01 1.93-16.37 4.77-5.2 12.43-7.15 19.2-7.88 15.6-1.27 30.57 2.31 44.79 8.5 14.37-8.43 30.61-13.9 47.2-15.61Z" fill="#000"/><path d="M540.41 580c-3.76 3.21-7.89 5.79-12.13 8.3-2.67 1.53-3.75 4.13-5.44 6.6-1.56 2.55-3.53 4.72-5.75 6.71-3.02-1.1-5.96-2.85-9.11-3.5-3.03.45-5.9 1.87-8.86 2.66-10.02 2.86-20.67 5.01-31.12 4.92-2.95-.04-5.77.19-8.66.81.26 2.47-.5 4.67 2.82 5.01 14.67.86 29.74-2.01 43.63-6.66 4.74-2.07 7.69 3.08 12.84 1.72 4.35-1.27 7.37-6.6 9.92-10.06 1.78-2.8 4.43-4.12 7.14-5.82 3.66-2.24 6.97-4.85 10.35-7.47 1.44 2.56 3.17 4.68 2.42 7.82-1.4 6.39-6.59 11.01-11.48 14.92-12.52 9.5-28.96 14.76-44.24 17.66-14.49 1.98-27.99 4.19-42.61 1.47-12.77-2.46-26.17-7.51-36.14-16.09-3.77-3.41-8.37-8.53-7.81-14.01.33-3.74 3.92-6.31 7.09-7.71 7.95-3.35 16.73-3.08 25.15-2.22 8.71 1.23 17.39 3.52 25.38 7.26 1.55.63 3.37 1.64 5.08 1.52 3.1-1.25 5.75-3.55 8.75-5.06 8.84-4.63 18.43-7.87 28.23-9.73 11.45-2.02 23.37-2.95 34.55.95Z" fill="#fff"/></g><g transform="translate(-161 -83)"/><g transform="translate(-161 -83)"><path d="M464 199.27c14.7-.99 29.35 2.88 42.56 9.13 14.36 7.28 27.03 17.44 33.33 32.68.94 2.58 1.22 4.93-.73 7.13-1.47.73-3.41.54-5.01.95-3.03 1.03-5.23 3.48-6.47 6.38-2.8 6.28-3.87 13.41-6.1 19.95-2.14 6.98-5.23 13.48-10.18 18.92-12.94 14.24-30.77 24.21-49.42 28.7-14.62 3.6-30.61 3.63-45.02-.92-7.65-2.4-14.09-7.44-18.33-14.22-.78-1.27-.18-3.49 1.55-3.6 4.5-.41 8.77-.47 12.97-2.4 5.81-2.29 9.14-7.75 10.13-13.73 1.02-8.48-.62-15.93-1.51-24.24-1.45-10.46-2.53-21.83-.32-32.23 1.59-7.46 5.07-14.39 10.63-19.67 8.27-8.15 20.5-12.26 31.92-12.83Z" fill="#000"/><path d="M461.97 205.22c13.29-1.46 27.37 1.94 39.52 7.28 14.34 6.57 27.04 15.96 33.62 30.74-5.78 1.27-10.17 4.81-12.51 10.25-4.32 9.88-5.39 21.11-11.12 30.97-3.95 6.61-10.19 12.16-16.28 16.76-17.15 12.78-39.26 20.06-60.69 18.49-9.77-1.17-19.92-2.65-27.16-9.99 3.78-.81 7.36-1.79 10.77-3.65 5.85-3.51 9.66-9.6 10.78-16.28 1.38-11.86-1.12-22.18-2.22-33.79-.78-5.23-.55-10.71-.51-16.05.54-8.52 3.34-17.14 9.57-23.22 6.91-7.09 16.6-10.38 26.23-11.51Z" fill="rgba(89, 36, 84, 1)"/></g></g></svg>