<svg xmlns:dc="http://purl.org/dc/elements/1.1/" xmlns:cc="http://creativecommons.org/ns#" xmlns:rdf="http://www.w3.org/1999/02/22-rdf-syntax-ns#" xmlns:svg="http://www.w3.org/2000/svg" xmlns="http://www.w3.org/2000/svg" viewBox="0 0 762 762" fill="none"><metadata><rdf:RDF><cc:Work><dc:format>image/svg+xml</dc:format><dc:type rdf:resource="http://purl.org/dc/dcmitype/StillImage"/><dc:title>Adventurer</dc:title><dc:creator><cc:Agent><dc:title>Lisa Wischofsky</dc:title></cc:Agent></dc:creator><dc:source>https://www.instagram.com/lischis_adventures/</dc:source><cc:license rdf:resource="https://creativecommons.org/licenses/by/4.0/"/></cc:Work><cc:License rdf:about="https://creativecommons.org/licenses/by/4.0/"><cc:permits rdf:resource="https://creativecommons.org/ns#Reproduction"/><cc:permits rdf:resource="https://creativecommons.org/ns#Distribution"/><cc:permits rdf:resource="https://creativecommons.org/ns#DerivativeWorks"/><cc:requires rdf:resource="https://creativecommons.org/ns#Notice"/><cc:requires rdf:resource="https://creativecommons.org/ns#Attribution"/></cc:License></rdf:RDF></metadata><mask id="avatarsRadiusMask"><rect width="762" height="762" rx="0" ry="0" x="0" y="0" fill="#fff"/></mask><g mask="url(#avatarsRadiusMask)"><path d="M396.01 164.85c37.82 4.9 74.21 19.64 104.8 42.39 6.15 4.84 12.48 9.33 18.02 14.92 23.77 21.98 42.73 49.02 55.13 78.95 9.35 22.31 14.72 46.04 16.64 70.14 6.62.81 13.05 2.14 19.12 5 15.54 6.93 27.08 20.94 31.78 37.21 2.63 9.56 3.56 19.75 1.72 29.55-2.96 18.76-13.72 36.13-29.37 46.92-10.94 7.65-24.49 12.03-37.86 11.68-5.13-.05-10.04-1.6-15.13-1.79-1.85 2.17-3.23 4.84-4.76 7.25-18.66 29.62-44.57 54.51-74.64 72.4-28.1 16.73-59.9 27.16-92.46 30.32-11.08.7-21.87 2.05-32.98.74-51.69-2.3-102.07-23.44-140.15-58.43-29.03-26.55-50.84-60.83-62.54-98.39-7.09-22.85-10.62-46.78-10.07-70.71.52-40.34 12.53-80.58 33.94-114.76 19.1-30.81 45.91-56.58 77.2-74.83 29.63-17.28 63.35-27.68 97.59-29.87 14.66-1.47 29.44-.37 44.02 1.31Z" fill="#000"/><path d="M363 169.06c48.47-1.39 97.32 14.7 135.81 44.12 6.55 4.06 11.72 9.49 17.36 14.64 24.33 22.63 43.2 50.95 54.93 82.02 7.43 19.61 11.86 40.2 13.56 61.09-8.89.74-17.34 2.34-25.38 6.38-2.19 1.03-1.89 4.95.68 5.23 2.35.23 4.98-1.51 7.24-2.2 14.62-5.37 31.32-4.35 44.78 3.68 11.69 6.78 20.09 18.16 23.89 31.06 2.6 8.25 2.68 17.41 1.76 25.95-2.5 17.35-12.35 33.73-26.73 43.81-15.71 11.33-37.17 14.64-54.93 6.2-3.17-1.43-5.94-3.58-9.08-5.05-2.95-1.09-4.88 2.79-2.7 4.75 3.17 2.76 7.34 4.52 11 6.56-20.14 34.15-49.45 62.7-84.41 81.47-30.2 16.31-64.44 25.53-98.78 26.15-27.63.72-55.33-4.04-81.21-13.72-30.32-11.24-57.84-29.43-80.37-52.6-22.67-23.37-39.92-51.88-50.2-82.77-14.96-44.64-14.91-94.01.27-138.59 11.05-33.06 30.28-63.21 55.37-87.39 29.67-28.73 67.65-48.54 108.13-56.67 12.8-2.52 25.94-4.24 39.01-4.12Z" fill="rgba(236, 173, 128, 1)"/><path d="M605.03 404.4c2.63-.1 3.44 3.8 1.36 4.98-3.69 1.83-7.82 2.77-11.64 4.35-5.82 2.04-11.28 4.76-16.68 7.72 4.29 2.34 8.86 4.74 12.71 7.76 2.58 2.09 4.85 4.35 5.33 7.8-.26 3.59-2.73 6.55-5.45 8.69-5.86 4.66-13.92 7.18-20.79 10.26-1.75.62-4.43 1.99-5.59-.26-1.02-1.74-.06-3.11 1.57-3.87 6.65-3.3 14.86-5.62 20.79-10.16 1.37-1.14 3.39-2.74 3.61-4.62-4.07-5.63-12.42-8.59-18.23-12.09-2.34-1.72-2.29-4.24-.16-6.13 7.27-5.64 16.98-9.26 25.57-12.38 2.42-.83 5.03-1.95 7.6-2.05Z" fill="#000"/><g transform="translate(-161 -83)"><path d="M558.201 453.21c11.47-1.62 23.68.14 34 5.5 7.61 3.93 14.3 10.28 18.11 18 3.35 6.67 3.82 14.64 2.11 21.82-2.1 8.03-7.22 15.16-13.75 20.2-14.96 11.75-36.54 14.35-54.21 7.75-8.42-3.17-16.53-8.89-21.39-16.55-2.81-4.73-5.22-10.36-5.36-15.93-.71-9.54 3.61-19.3 10.27-26.02 8.05-8.38 18.87-12.97 30.22-14.77Z" fill="#000"/><path d="M559.17 459.11c13.97-2.02 29.72 1.64 39.88 11.85 6.6 6.52 10.35 16.95 7.62 26.05-2.06 8.19-7.68 14.49-14.53 19.15-12.44 8.19-28.98 10.02-43.11 5.63-8.63-2.71-17.05-8.19-21.69-16.11-3.02-5-4.14-10.9-3.59-16.69.76-6.83 4.53-13.12 9.38-17.85 7.05-6.72 16.44-10.78 26.04-12.03Z" fill="#fff"/><path d="M369.481 468.71c17.62-2.69 37.91 3.42 47.71 19.13 5.49 8.51 6.28 20 1.93 29.15-2.91 6.32-7.91 11.64-13.7 15.43-7.34 4.75-15.75 7.1-24.42 7.79-14.63.57-29.81-4.29-39.4-15.79-5.22-6.27-8.18-14.2-7.54-22.41.56-8.27 4.61-15.74 10.51-21.44 6.92-6.46 15.65-10.23 24.91-11.86Z" fill="#000"/><path d="M376.55 474.11c9.64-.35 19.56 2.27 27.37 8.02 5.14 3.82 9.44 9.18 11.19 15.41 1.61 6.2 1.04 12.92-2.15 18.54-4.72 8.62-13.66 14.22-22.97 16.71-13.7 3.71-30.16.71-40.8-8.99-6.28-5.66-10.01-13.74-9.23-22.26.73-5.44 3.14-10.68 6.85-14.72 7.34-8.21 18.86-12.64 29.74-12.71Z" fill="#fff"/><path d="M551.461 477.61c3.69-.8 7.51-.7 10.96.96 6.42 3.03 10.48 10.43 8.89 17.48-1.3 7.25-7.89 12.9-15.3 12.85-8.42.47-15.96-6.52-16.34-14.89-.56-7.44 4.55-14.59 11.79-16.4Z" fill="#000"/><path d="M553.619 483.21c4-.67 7.83.59 10.21 3.96 3.04 4.06 2.26 9.86-1.38 13.27-4.4 3.95-11.88 3.34-15.16-1.77-4-5.83-.62-14.19 6.33-15.46Z" fill="#fff"/><path d="M618.701 484.19c1.69.32 3.64-.24 4.63 1.46 1.61 2.47 2.37 5.58 2.85 8.46 1.44 10.51-2.22 21.79-9.83 29.24-3.27 3.02-7.82 5.97-12.38 6.11-2.73.04-4.27-2.62-2.33-4.8 3.27-1.61 6.54-2.11 9.44-4.56 6.29-5.26 9.64-14.02 9.57-22.11-.01-4.02-1.58-7.21-2.66-10.96.23-.95.47-1.9.71-2.84ZM380.44 488.46c4.44-.82 9.2.5 12.68 3.35 5.75 4.58 7.69 13.08 4.69 19.76-2.56 5.93-8.24 10.22-14.82 10.23-8.45.57-15.94-6.42-16.44-14.79-.99-8.72 5.26-17.04 13.89-18.55Z" fill="#000"/><path d="M379.531 494.79c5.08-1.91 10.94.6 12.92 5.67 2.83 6.48-1.52 14.71-8.68 15.43-4.25.47-7.61-1.26-9.91-4.82-3.44-5.89-.79-13.89 5.67-16.28Z" fill="#fff"/><path d="M330.441 503.6c.44 4.06-1.41 7.43-1.67 11.39-.24 6.08 2.47 12.14 7.29 15.89 2.44 1.9 5.12 2.82 7.78 4.29 1.95.85 1.84 2.03 1.58 3.92-1.51 1.78-3.31 1.46-5.31.8-7.28-2.71-13.55-8.6-15.95-16.08-2.04-6.12-1.77-13.6 1.36-19.29 1.26-1.87 3.04-.88 4.92-.92Z" fill="#000"/></g><g transform="translate(-161 -83)"><g fill="#000"><path d="M613.54 401.51c1.59 1.01 1.08 2.86 1.24 4.48-.06 11.34-.05 22.7-.12 34.04.32 2.75-2.42 4.22-4.62 5-39.99 13.74-80.12 27.25-120.05 41.12-2.53.2-2.84-1.75-3.51-3.66-1.63-6-3.3-11.98-5.01-17.95.97 5.75.98 11.66 1.36 17.47-.02 1.44.45 3.94-.99 4.85-1.95 1.4-4.07.13-4.6-2.03-3.64-12.73-7.02-25.58-10.66-38.32-.39-1.83-.65-3.91 1.36-4.88 2.11-.49 3.41.47 4 2.44 1.27 4.55 2.55 9.11 3.68 13.7-.73-5.24-.94-10.49-1.18-15.77-.01-1.27-.14-3.73 1.66-3.79 1.47-.26 2.98-.38 4.43-.72 41.23-11.74 82.37-23.44 123.6-35.22 3.27-.87 6.02-2.08 9.41-.76ZM324 433.87c13.64 1.39 27.36 1.44 41 2.58 21.04 1.05 42.11 2.67 63.14 3.42 7.79.78 15.61 1.12 23.44 1.68 2.77 2.19 1.08 8.08 1.91 11.33.56-2.97.18-6.91 1.92-9.46 2.15-1.8 5.08-.17 4.76 2.56-2.36 14.03-4.77 28.14-7.02 42.18-.8 2.93-4.48 2.56-5.29-.15-.27-4.92-.21-9.89-.28-14.83-1.03 4.29-1.47 8.69-2.47 12.98-.43 1.64-1.17 2.84-3.1 2.4-39.48-6.89-79.4-14.23-118.87-21.29-1.88-.2-2.83-1.46-3.09-3.26-1.45-7.98-2.5-16.04-4.12-23.99-.23-1.72-.74-3.14.56-4.58 2.12-2.29 4.72-1.68 7.51-1.57Z"/></g></g><g transform="translate(-161 -83)"><path d="M514.98 571.8c9.94-.79 20.34-.67 29.51 3.7 4.75 2.28 8.76 6.09 9.73 11.45.87 5.24-1.16 9.93-4.09 14.14-5.1 7.1-13.03 12.35-20.62 16.48-16.5 8.76-34.08 12.05-52.5 13.76-20.25 3.08-41.64-1.62-59.12-12.17-6.21-3.9-12.82-9.26-16.03-16-2.56-5.26-2.25-12.01 1.93-16.37 4.77-5.2 12.43-7.15 19.2-7.88 15.6-1.27 30.57 2.31 44.79 8.5 14.37-8.43 30.61-13.9 47.2-15.61Z" fill="#000"/><path d="M540.41 580c-3.76 3.21-7.89 5.79-12.13 8.3-2.67 1.53-3.75 4.13-5.44 6.6-1.56 2.55-3.53 4.72-5.75 6.71-3.02-1.1-5.96-2.85-9.11-3.5-3.03.45-5.9 1.87-8.86 2.66-10.02 2.86-20.67 5.01-31.12 4.92-2.95-.04-5.77.19-8.66.81.26 2.47-.5 4.67 2.82 5.01 14.67.86 29.74-2.01 43.63-6.66 4.74-2.07 7.69 3.08 12.84 1.72 4.35-1.27 7.37-6.6 9.92-10.06 1.78-2.8 4.43-4.12 7.14-5.82 3.66-2.24 6.97-4.85 10.35-7.47 1.44 2.56 3.17 4.68 2.42 7.82-1.4 6.39-6.59 11.01-11.48 14.92-12.52 9.5-28.96 14.76-44.24 17.66-14.49 1.98-27.99 4.19-42.61 1.47-12.77-2.46-26.17-7.51-36.14-16.09-3.77-3.41-8.37-8.53-7.81-14.01.33-3.74 3.92-6.31 7.09-7.71 7.95-3.35 16.73-3.08 25.15-2.22 8.71 1.23 17.39 3.52 25.38 7.26 1.55.63 3.37 1.64 5.08 1.52 3.1-1.25 5.75-3.55 8.75-5.06 8.84-4.63 18.43-7.87 28.23-9.73 11.45-2.02 23.37-2.95 34.55.95Z" fill="#fff"/></g><g transform="translate(-161 -83)"/><g transform="translate(-161 -83)"><path fill-rule="evenodd" clip-rule="evenodd" d="M692.51 249.52c-16.1-13.31-32.55-26-52.02-34.08-17.66-7.24-37.36-8.77-56-4.79-13.1 2.31-25.77 6.18-38.34 10.49l-1.903.699c-6.803 2.495-13.67 5.014-20.137 8.261l-.421.19c-1.186.536-2.298 1.039-3.659.95-4.704-.146-9.557-1.117-14.234-2.054-.77-.154-1.536-.307-2.296-.456-10.572-1.873-21.178-3.354-31.787-4.835-7.403-1.034-14.808-2.068-22.203-3.235-7.36-.74-14.99-.9-22.33.03-9.98 1.8-19.8 5.25-29 9.49-17.44 7.79-34.34 17.4-50.59 27.42-15.22 9.79-29.7 20.74-43.08 32.93-12.2 10.68-22.41 22.96-32.05 35.94-13.07 17.92-23.2 40.15-24.15 62.55-1.78 17.86 1.8 36.62 5.64 54.01 2.343 10.008 4.415 20.072 6.487 30.138a3872.3 3872.3 0 0 0 2.073 10.022c.669 3.962 1.485 7.769 2.291 11.528 1.506 7.029 2.975 13.886 3.379 21.262.068 1.482.168 2.936.267 4.374.337 4.907.661 9.627-.337 14.646-2.68 20.4-11.15 39.67-20.06 58.05-3.634 7.632-7.395 15.02-11.132 22.36-6.629 13.019-13.18 25.887-18.808 39.7-7.41 18.92-12.16 38.47-11.92 58.89.74 14.48 2.29 28.24 8.14 41.66 3.5 8.02 8.12 15.47 14.36 21.66 9.84 9.58 20.8 17.28 32.3 24.71 1.047.731 2.098 1.462 3.151 2.194 13.549 9.423 27.452 19.091 36.619 33.056 6.86 9.62 10.99 20.84 11.06 32.72-.46 6.51-2.32 13.26-6.44 18.43-.72.935-1.542 1.788-2.364 2.641-.98 1.018-1.96 2.036-2.766 3.189-.973 2.133-.221 3.391.805 5.109.071.118.143.238.215.361l.069-.003c2.205-.089 4.343-.175 6.441-.947 26.34-8.81 49.76-26.85 64.64-50.34 8.06-12.68 13.34-26.89 13.82-42.01 10.83 13.98 26.67 22.08 43.77 25.55 16.76 3.67 33.01 3.08 50 2.2 16.47-1.67 32.68-5.52 47.77-12.41 10.247-4.33 19.453-10.017 28.79-15.785 2.135-1.319 4.277-2.643 6.44-3.955a665.209 665.209 0 0 0 8.793-5.517c5.252-3.332 10.489-6.656 15.937-9.743 10.76-6.12 21.78-11.84 33.14-16.76 22.84-9.77 46.37-17.23 71.1-20.3 8.072-1.299 16.172-1.587 24.307-1.875 1.57-.056 3.141-.112 4.713-.175 24.86-.3 50.24 3.84 72.89 14.39 13.89 6.4 26.95 14.9 39.55 23.51 1.93 1.97 7.11.44 6.76-2.58-.883-2.259-2.015-4.39-3.15-6.525-1.603-3.016-3.211-6.042-4.13-9.455-1.1-4.22-1.74-8.64-1.67-13 .84-14.4 3.72-28.54 8.37-42.19 2.32-7.57 5.274-14.87 8.228-22.172 2.51-6.203 5.02-12.407 7.142-18.778 6.86-19.31 10.09-40.41 8.06-60.86-1.19-14.93-6.11-29.83-12.8-43.18-3.921-7.807-8.391-15.347-12.863-22.889-4.516-7.615-9.033-15.233-12.987-23.131-3.59-7.22-6.26-14.74-7.86-22.64-3.543-16.641-5.27-33.85-6.992-51.008-1.077-10.731-2.152-21.442-3.668-31.982-1.71-14.22-4.88-28.17-10.49-41.38-5.99-14.12-13.58-27.62-21.39-40.8-6.341-9.284-13.718-17.941-21.016-26.506l-2.064-2.424c-13.384-15.689-29.645-29.689-45.571-43.402-4.326-3.725-8.627-7.428-12.839-11.138ZM570.579 414.38c-35.93-27.99-65.46-66.46-78.72-110.38-2.92.29-5.81.65-8.66 1.35-27.74 6.4-54.98 15.72-80.53 28.32-14.69 7.54-28.88 15.83-41.79 26.19-13.31 10.78-25.75 22.13-36.67 35.36-1.07 1.31-1.93 2.7-2.51 4.29-11.51 33.4-14.49 69.61-9.01 104.48 5.55 35.09 19.77 68.74 41.17 97.1 16.8 22.42 38.17 41.46 62.14 55.93 32.71 19.58 70.85 30.64 109 30.92 56.8 1.16 113.39-21.24 154.18-60.75 14.83-14.19 27.42-30.51 37.85-48.17.87-1.68 2.18-2.39 3.78-3.25 11.88 4.16 24.82 3.98 36.64-.31 24.78-8.87 42.11-34.19 41.74-60.46.34-15.27-5.88-30.67-17.04-41.16-8.2-7.75-18.94-12.57-30.16-13.67-9.84-.75-19.67.87-28.61 5.09-.39 10.53-5.9 20.07-11.25 28.84-6.21 9.96-12.91 20.55-22.62 27.44-2.05 1.67-5.47.25-4.82-2.52 4.42-17.89 1.21-38.32-2.64-56.11-1.467-.565-3.145-.76-4.809-.954-1.048-.122-2.09-.244-3.071-.456-37.57-6.36-73.62-23.81-103.59-47.12Z" fill="#000"/><path fill-rule="evenodd" clip-rule="evenodd" d="M627.991 217.35c-10-2.72-20.68-3.81-31.01-2.83-21.12 2.59-41.9 9.21-61.75 16.73-4.928 1.796-9.604 4.183-14.272 6.564-3.621 1.847-7.236 3.692-10.958 5.256-2.87 1.05-4.67-.78-3.5-3.59 1.366-1.087 2.96-1.918 4.533-2.737a86.26 86.26 0 0 0 1.517-.803c-13.146-2.571-26.478-4.33-39.786-6.086-4.601-.608-9.198-1.214-13.784-1.854-11.12-2.03-22.97-3.36-34.14-.96-7.64 1.82-15.15 4.32-22.31 7.57-17.65 7.74-34.28 17.14-50.7 27.18-14.46 9.23-28.35 19.51-41.11 30.99-10.07 8.6-19.05 18.33-27.18 28.77-10.6 13.05-19.4 27.22-24.72 43.26-4.24 12.11-5.46 25.45-5.11 38.2.558 14.918 3.791 29.315 7.037 43.767 1.467 6.532 2.936 13.075 4.163 19.683 1.342 5.759 2.473 11.561 3.605 17.364.976 5.008 1.953 10.016 3.065 14.996 2.8 13.3 3.81 26.73 1.39 40.19-2.92 20.96-11.95 40.95-21.27 59.78-3.235 6.799-6.69 13.566-10.149 20.344-5.053 9.899-10.117 19.818-14.521 29.886-5.84 12.73-10.1 26.13-12.86 39.86-3.32 17.82-2.75 36.68 1.88 54.22 3.14 11.19 8.78 22.49 17.26 30.58 9.7 9.43 20.53 16.81 31.82 24.14.96.675 1.923 1.348 2.885 2.021 13.504 9.446 27.03 18.909 36.505 32.649 8 11.07 13.21 23.67 12.96 37.51-.04 7.87-2.77 15.13-6.99 21.67 23.85-9.09 44.82-26.25 58.14-48.06 7.18-12.04 12.36-26.45 11.84-40.61-.04-1.77.02-3.53.12-5.3a18.36 18.36 0 0 0 1.064-.398c1.112-.442 2.282-.906 3.406-.642 1.191.958 2.054 2.102 2.956 3.297.143.19.287.381.434.573 4.35 5.9 9.72 11.14 15.81 15.23 13.92 8.74 29.59 11.92 45.77 13.11 21.08 1 41.8-.52 61.94-7.15 13.01-4.41 25.36-10.47 36.93-17.86 5.674-3.369 11.211-6.855 16.732-10.331 9.882-6.221 19.71-12.408 30.168-17.829 21.93-11.7 45.31-20.86 69.41-26.95 35.52-8.31 73.92-10.15 109.29-.09 20.89 5.83 38.57 16.34 56.51 28.17-5.65-10.64-5.91-22.12-4.5-33.83 1.21-10.4 3.56-20.61 6.81-30.55 2.656-8.83 5.992-17.151 9.319-25.449 4.713-11.756 9.407-23.463 12.121-36.501 4.64-21.13 4.46-43.37-2.55-63.97-4.652-14.12-12.312-27.013-19.973-39.907-4.395-7.396-8.79-14.793-12.617-22.423-4.28-8.33-7.29-17-9.04-26.21-3.387-16.57-5.098-33.548-6.808-50.527-1.503-14.909-3.005-29.819-5.642-44.453-2.6-14.06-7.63-27.43-14.18-40.1-5.25-10.18-10.75-20.27-16.79-30.01-4.356-6.064-9.262-11.767-14.146-17.444-1.148-1.336-2.296-2.669-3.434-4.006-11.32-13.77-24.25-25.71-37.62-37.38-2.841-2.45-5.662-4.913-8.48-7.374-10.39-9.073-20.744-18.114-31.89-26.326-13.03-9.63-27.86-18.76-43.6-23.02Zm-57.412 197.03c-35.93-27.99-65.46-66.46-78.72-110.38-2.92.29-5.81.65-8.66 1.35-27.74 6.4-54.98 15.72-80.53 28.32-14.69 7.54-28.88 15.83-41.79 26.19-13.31 10.78-25.75 22.13-36.67 35.36-1.07 1.31-1.93 2.7-2.51 4.29-11.51 33.4-14.49 69.61-9.01 104.48 5.55 35.09 19.77 68.74 41.17 97.1 16.8 22.42 38.17 41.46 62.14 55.93 32.71 19.58 70.85 30.64 109 30.92 56.8 1.16 113.39-21.24 154.18-60.75 14.83-14.19 27.42-30.51 37.85-48.17.87-1.68 2.18-2.39 3.78-3.25 11.88 4.16 24.82 3.98 36.64-.31 24.78-8.87 42.11-34.19 41.74-60.46.34-15.27-5.88-30.67-17.04-41.16-8.2-7.75-18.94-12.57-30.16-13.67-9.84-.75-19.67.87-28.61 5.09-.39 10.53-5.9 20.07-11.25 28.84-6.21 9.96-12.91 20.55-22.62 27.44-2.05 1.67-5.47.25-4.82-2.52 4.42-17.89 1.21-38.32-2.64-56.11-1.467-.565-3.145-.76-4.809-.954-1.048-.122-2.09-.244-3.071-.456-37.57-6.36-73.62-23.81-103.59-47.12Z" fill="rgba(121, 106, 69, 1)"/><path fill-rule="evenodd" clip-rule="evenodd" d="M493.156 282.416c-.299-2.201-.598-4.404-1.127-6.546-.559-1.848-2.197-1.684-3.73-1.53-.276.028-.548.055-.81.07-.97 2.76-.594 5.327-.195 8.057.074.504.148 1.015.215 1.533.78 4.95 1.8 9.83 3.01 14.69-15.43 2.37-30.64 6.67-45.51 11.38-35.45 11.86-70.66 29.08-98.54 54.35-19.6 16.78-36.29 37.28-49.98 59.09-4.39 7.16-8.43 14.7-11.51 22.51-1.1 3.26 1.64 5.04 4.39 3.29.948-1.31 1.633-2.834 2.306-4.333.236-.526.47-1.048.714-1.557 5.21-11.48 12.03-22.25 19.55-32.35-4.67 18.77-7.78 37.53-7.63 56.93-.44 24.3 3.54 48.72 11.05 71.81 12.73 38.83 36.31 73.94 67.4 100.45 30.14 25.75 67.2 43.24 106.25 50.13 12.24 2.3 24.58 2.99 36.99 3.62 4.946.095 9.905-.267 14.852-.627 2.336-.171 4.67-.341 6.998-.463 33.73-2.85 66.84-13.74 95.82-31.22 32.17-19.38 59.07-46.66 78.01-79.1 1.988.22 3.942.542 5.891.862 3.442.565 6.866 1.128 10.429 1.128 15.79.11 31.24-6.13 43.03-16.54 12.51-10.99 20.97-26.56 23.3-43.05 1.73-9.36.62-19.39-1.87-28.52-4.68-16.23-16.19-30.22-31.69-37.16-13.32-6.15-28.4-6.46-42.35-2.29-3.829.086-7.625.382-11.416.678-6.315.492-12.616.983-19.034.502-24.29-.9-48.15-7.22-70.45-16.69-35.7-15.44-67.67-39.61-92.33-69.67-20.08-24.61-35.3-53.31-41.3-84.69-.302-1.565-.517-3.154-.733-4.744Zm77.423 131.964c-35.93-27.99-65.46-66.46-78.72-110.38-2.92.29-5.81.65-8.66 1.35-27.74 6.4-54.98 15.72-80.53 28.32-14.69 7.54-28.88 15.83-41.79 26.19-13.31 10.78-25.75 22.13-36.67 35.36-1.07 1.31-1.93 2.7-2.51 4.29-11.51 33.4-14.49 69.61-9.01 104.48 5.55 35.09 19.77 68.74 41.17 97.1 16.8 22.42 38.17 41.46 62.14 55.93 32.71 19.58 70.85 30.64 109 30.92 56.8 1.16 113.39-21.24 154.18-60.75 14.83-14.19 27.42-30.51 37.85-48.17.87-1.68 2.18-2.39 3.78-3.25 11.88 4.16 24.82 3.98 36.64-.31 24.78-8.87 42.11-34.19 41.74-60.46.34-15.27-5.88-30.67-17.04-41.16-8.2-7.75-18.94-12.57-30.16-13.67-9.84-.75-19.67.87-28.61 5.09-.39 10.53-5.9 20.07-11.25 28.84-6.21 9.96-12.91 20.55-22.62 27.44-2.05 1.67-5.47.25-4.82-2.52 4.42-17.89 1.21-38.32-2.64-56.11-1.467-.565-3.145-.76-4.809-.954-1.048-.122-2.09-.244-3.071-.456-37.57-6.36-73.62-23.81-103.59-47.12Z" fill="#000"/><path d="M718.119 463.58c-.13 2.59-.21 5.09-.96 7.59-2.69 9.09-7.96 17.08-13.08 24.95-3.61 5.55-7.54 10.87-11.97 15.78 1.41-16.55-1.03-32.44-4.49-48.57 10.19.92 20.3.85 30.5.25Z" fill="rgba(121, 106, 69, 1)"/></g></g></svg>