<svg xmlns:dc="http://purl.org/dc/elements/1.1/" xmlns:cc="http://creativecommons.org/ns#" xmlns:rdf="http://www.w3.org/1999/02/22-rdf-syntax-ns#" xmlns:svg="http://www.w3.org/2000/svg" xmlns="http://www.w3.org/2000/svg" viewBox="0 0 762 762" fill="none"><metadata><rdf:RDF><cc:Work><dc:format>image/svg+xml</dc:format><dc:type rdf:resource="http://purl.org/dc/dcmitype/StillImage"/><dc:title>Adventurer</dc:title><dc:creator><cc:Agent><dc:title>Lisa Wischofsky</dc:title></cc:Agent></dc:creator><dc:source>https://www.instagram.com/lischis_adventures/</dc:source><cc:license rdf:resource="https://creativecommons.org/licenses/by/4.0/"/></cc:Work><cc:License rdf:about="https://creativecommons.org/licenses/by/4.0/"><cc:permits rdf:resource="https://creativecommons.org/ns#Reproduction"/><cc:permits rdf:resource="https://creativecommons.org/ns#Distribution"/><cc:permits rdf:resource="https://creativecommons.org/ns#DerivativeWorks"/><cc:requires rdf:resource="https://creativecommons.org/ns#Notice"/><cc:requires rdf:resource="https://creativecommons.org/ns#Attribution"/></cc:License></rdf:RDF></metadata><mask id="avatarsRadiusMask"><rect width="762" height="762" rx="0" ry="0" x="0" y="0" fill="#fff"/></mask><g mask="url(#avatarsRadiusMask)"><path d="M396.01 164.85c37.82 4.9 74.21 19.64 104.8 42.39 6.15 4.84 12.48 9.33 18.02 14.92 23.77 21.98 42.73 49.02 55.13 78.95 9.35 22.31 14.72 46.04 16.64 70.14 6.62.81 13.05 2.14 19.12 5 15.54 6.93 27.08 20.94 31.78 37.21 2.63 9.56 3.56 19.75 1.72 29.55-2.96 18.76-13.72 36.13-29.37 46.92-10.94 7.65-24.49 12.03-37.86 11.68-5.13-.05-10.04-1.6-15.13-1.79-1.85 2.17-3.23 4.84-4.76 7.25-18.66 29.62-44.57 54.51-74.64 72.4-28.1 16.73-59.9 27.16-92.46 30.32-11.08.7-21.87 2.05-32.98.74-51.69-2.3-102.07-23.44-140.15-58.43-29.03-26.55-50.84-60.83-62.54-98.39-7.09-22.85-10.62-46.78-10.07-70.71.52-40.34 12.53-80.58 33.94-114.76 19.1-30.81 45.91-56.58 77.2-74.83 29.63-17.28 63.35-27.68 97.59-29.87 14.66-1.47 29.44-.37 44.02 1.31Z" fill="#000"/><path d="M363 169.06c48.47-1.39 97.32 14.7 135.81 44.12 6.55 4.06 11.72 9.49 17.36 14.64 24.33 22.63 43.2 50.95 54.93 82.02 7.43 19.61 11.86 40.2 13.56 61.09-8.89.74-17.34 2.34-25.38 6.38-2.19 1.03-1.89 4.95.68 5.23 2.35.23 4.98-1.51 7.24-2.2 14.62-5.37 31.32-4.35 44.78 3.68 11.69 6.78 20.09 18.16 23.89 31.06 2.6 8.25 2.68 17.41 1.76 25.95-2.5 17.35-12.35 33.73-26.73 43.81-15.71 11.33-37.17 14.64-54.93 6.2-3.17-1.43-5.94-3.58-9.08-5.05-2.95-1.09-4.88 2.79-2.7 4.75 3.17 2.76 7.34 4.52 11 6.56-20.14 34.15-49.45 62.7-84.41 81.47-30.2 16.31-64.44 25.53-98.78 26.15-27.63.72-55.33-4.04-81.21-13.72-30.32-11.24-57.84-29.43-80.37-52.6-22.67-23.37-39.92-51.88-50.2-82.77-14.96-44.64-14.91-94.01.27-138.59 11.05-33.06 30.28-63.21 55.37-87.39 29.67-28.73 67.65-48.54 108.13-56.67 12.8-2.52 25.94-4.24 39.01-4.12Z" fill="rgba(158, 86, 34, 1)"/><path d="M605.03 404.4c2.63-.1 3.44 3.8 1.36 4.98-3.69 1.83-7.82 2.77-11.64 4.35-5.82 2.04-11.28 4.76-16.68 7.72 4.29 2.34 8.86 4.74 12.71 7.76 2.58 2.09 4.85 4.35 5.33 7.8-.26 3.59-2.73 6.55-5.45 8.69-5.86 4.66-13.92 7.18-20.79 10.26-1.75.62-4.43 1.99-5.59-.26-1.02-1.74-.06-3.11 1.57-3.87 6.65-3.3 14.86-5.62 20.79-10.16 1.37-1.14 3.39-2.74 3.61-4.62-4.07-5.63-12.42-8.59-18.23-12.09-2.34-1.72-2.29-4.24-.16-6.13 7.27-5.64 16.98-9.26 25.57-12.38 2.42-.83 5.03-1.95 7.6-2.05Z" fill="#000"/><g transform="translate(-161 -83)"><path d="M540.491 447.73c18.9-2.42 39.64-.58 56.96 7.8 8.55 4.17 16.74 10.3 21.22 18.89 3.9 7.34 3.91 16.76-.16 24.03-4.22 8.05-12.01 14.1-19.93 18.24-13.55 7.02-29.41 9.83-44.57 9.65-12.04.02-23.93-1.81-35.21-6.11-8.97-3.47-17.65-8.68-23.74-16.26-4.84-6.12-7.63-14.13-5.89-21.93 1.84-8.56 7.49-15.36 14.39-20.47 10.65-7.84 23.96-11.98 36.93-13.84Z" fill="#000"/><path d="M546.98 452.71c8.4-.27 17.24-.58 25.5 1.08 10.59 1.7 21.45 5.3 30.3 11.45 5.49 3.95 10.43 9.09 12.35 15.73 2.02 6.81-.27 14.13-4.75 19.45-6.1 7.46-15.56 12.38-24.55 15.43-9.89 3.26-20.41 5.08-30.83 4.84-10.21.27-20.5-1.38-30.23-4.45-9.19-3.05-18.45-7.69-24.78-15.23-4.29-5.04-6.9-12.45-4.86-18.97 1.51-6.55 6.69-12.06 11.94-15.96 11.4-8.26 26.07-12.06 39.91-13.37Z" fill="#fff"/><path d="M373.48 460.76c16.32-2.29 34.23-.91 49.1 6.64 7.74 3.99 15.42 10.43 17.96 19.07 2.33 7.1-.17 14.74-4.65 20.42-6.28 7.76-15.27 12.43-24.64 15.41-14.57 4.5-30.41 5.01-45.29 1.76-9.88-2.25-20.02-6.47-27.16-13.89-4.71-4.75-7.92-11.31-7.35-18.12.54-7.22 4.98-13.65 10.43-18.18 8.81-7.42 20.37-11.3 31.6-13.11Z" fill="#000"/><path d="M371.5 466.92c15.62-3 32.92-1.77 47.43 5.05 6.36 3.02 13.43 8.26 15.74 15.2 2.08 5.63.36 11.7-3.32 16.23-4.64 5.76-11.76 9.79-18.6 12.35-12.35 4.41-26.02 5.91-38.99 3.9-9.29-1.29-18.98-4.28-26.67-9.78-5.23-3.9-9.63-9.03-9.91-15.85-.19-6.85 4.17-12.52 9.29-16.58 7.13-5.51 16.25-8.79 25.03-10.52Z" fill="#fff"/><path d="M592.23 469.2c2.12-1.59 4.65-.32 5.95 1.66 2.39 4.01 2.38 9.6 2.79 14.14.21 4.39.49 9.64-1.22 13.75-1.98 4.07-7.41 1.34-8.7-1.8-2.28-6.35-2.19-13.75-1.68-20.4.42-2.36.64-5.94 2.86-7.35ZM416.851 476.07c2.18.53 2.81 3.77 3.31 5.63.82 5.03 1.38 10.25 1.06 15.34-.33 2.54-.69 5.69-3.12 7.13-2.07 1.29-4.27-.03-5.35-1.93-2.07-3.84-2.16-8.98-2.29-13.24.06-4.36-.11-8.73 2.24-12.56 1.44-.39 2.65-.96 4.15-.37Z" fill="#000"/></g><g transform="translate(-161 -83)"><g fill="#000"><path d="M456.01 380.37c2.26-.07 2.85 1.7 2.65 3.64-.5 4.68-.77 9.78-2.32 14.23-1.33.39-2.66.58-4.03.82-1.12-4.8-.01-10.22.71-15.09.36-1.71.77-3.82 2.99-3.6ZM476.79 386.65c.03 3.21-.36 6.36-.67 9.55 41.69.52 83.32.38 125.01.75 2.13.04 3.96.86 5.89 1.64-.59 1.48-.22 3.83-2.24 4.09-8.05 1.31-16.58.52-24.74.88-17.35.62-34.71.99-52.06 1.53-17.03.2-34.01 1.25-51.05 1.42-3.29.39-6.05-2.72-7.2-5.47.02-4.49 1.02-9.15 2.06-13.5 1.28-2.48 2.83-1.67 5-.89ZM439.84 392.18c-.11 4.87-.05 10.81-2.28 15.24-3.22 1.5-7.12 1.79-10.59 2.47-25.65 4.7-51.32 9.35-76.96 14.09-4.24.69-8.7 2.15-12.99 2.04-2.63-.48-3.33-3.75-.87-5.01 3.2-1.41 6.95-1.74 10.33-2.58 29.1-6.7 58.15-13.59 87.24-20.32.41-1.91.8-3.81 1.27-5.7 1.61-.21 3.23-.24 4.85-.23Z"/></g></g><g transform="translate(-161 -83)"><path d="M579.989 568.69c2.42 1 1.92 3.4 1.38 5.45-6.78 13.35-16.08 25.18-28.35 33.9-17.19 12.49-38.88 18.4-60.02 17.58-26.81-.96-53.07-12.04-73.44-29.31-.4-2.42-.49-3.71 1.45-5.42 51.83-7.13 106.78-15.03 158.98-22.2Z" fill="#000"/><path d="M573.86 575.51c-8.17 15.05-20.98 27.46-36.37 34.99-12.46 6.12-26.6 9.44-40.49 9.19-24.71.18-49.01-9.01-68.58-23.87 47.93-6.59 97.73-13.8 145.44-20.31Z" fill="#8F2E45"/></g><g transform="translate(-161 -83)"/><g transform="translate(-161 -83)"><path d="M546 236.84c51.64.59 102.7 18.25 141.84 52.31 29.53 25.5 51.1 59.87 60.38 97.84 5.48 21.86 6.56 44.45 4.27 66.83-.37 1.75-.51 5.62-2.95 5.59-4.29.23-8.51.07-12.73 1.15-11.59 2.71-22.8 8.56-31.19 17.07-1.07.88-2.1 2.18-3.65 1.76-1.58 0-2.3-2.02-2.09-3.35.33-3.05 1.49-6.04 2.14-9.04 1.63-6.66 1.85-13.22 2.48-20.01.61-6.79-.3-13.27-.9-20.01-.36-3.74-1.21-7.29-2.07-10.93-9.31-.25-18.37-2.33-26.44-7.1-15.74-8.99-27.31-24.88-35.49-40.72-9.82-19.03-15.94-39.95-20.23-60.86-29.41 12.22-59.85 20.22-91.13 25.91-33.38 5.9-67.33 9.18-101.24 8.96-23.84.16-47.78-1.74-71.25-5.99-1.86-.35-3.49-1.08-3.57-3.22 1.01-3.82 4.01-7.35 6.5-10.34 9.01-10.91 19.03-21.02 29.89-30.09 43.66-36.57 100.53-56.54 157.43-55.76Z" fill="#000"/><path d="M520.21 243.77c41.25-4.16 83.53 2.88 120.79 21.24 32.27 15.9 60.14 40.13 79.22 70.72 21.99 34.84 31.4 77.04 26.37 117.93-14.2.21-27.25 5.84-38.62 14.04 2.82-16.51 3.49-33.39-.05-49.85-.64-2.31-1.12-5.21-2.7-7.07-1.62-1.19-4.31-.73-6.23-.89-8.04.13-16.05-2.86-22.85-7.01-11.69-7.29-20.65-18.64-27.59-30.37-10.76-18.47-17.68-39.72-22.26-60.53-.79-3.27-1.12-6.77-2.27-9.93-.87-1.45-2.45-1.83-3.99-1.22-3.66 1.23-7.15 2.97-10.76 4.32-26.42 10.34-54.42 17.39-82.3 22.45-26.79 4.85-53.78 7.59-80.97 8.7-14.65.16-29.37.42-44-.44-14.27-.89-28.43-2.35-42.52-4.81 38.43-49.69 98.38-81.4 160.73-87.28Z" fill="rgba(89, 36, 84, 1)"/><path d="M718.59 474.55c-.04 1.07.35 2.71-.44 3.56-2.25 2.41-5.16 4.22-7.63 6.41-2.64 2.15-4.81 4.86-7.53 6.88-2.73.46-4.07-1.91-2.73-4.12 2.72-3.78 6.72-6.77 10.22-9.81 2.68-1.91 4.52-4.7 8.11-2.92Z" fill="#000"/></g></g></svg>