<svg xmlns:dc="http://purl.org/dc/elements/1.1/" xmlns:cc="http://creativecommons.org/ns#" xmlns:rdf="http://www.w3.org/1999/02/22-rdf-syntax-ns#" xmlns:svg="http://www.w3.org/2000/svg" xmlns="http://www.w3.org/2000/svg" viewBox="0 0 762 762" fill="none"><metadata><rdf:RDF><cc:Work><dc:format>image/svg+xml</dc:format><dc:type rdf:resource="http://purl.org/dc/dcmitype/StillImage"/><dc:title>Adventurer</dc:title><dc:creator><cc:Agent><dc:title>Lisa Wischofsky</dc:title></cc:Agent></dc:creator><dc:source>https://www.instagram.com/lischis_adventures/</dc:source><cc:license rdf:resource="https://creativecommons.org/licenses/by/4.0/"/></cc:Work><cc:License rdf:about="https://creativecommons.org/licenses/by/4.0/"><cc:permits rdf:resource="https://creativecommons.org/ns#Reproduction"/><cc:permits rdf:resource="https://creativecommons.org/ns#Distribution"/><cc:permits rdf:resource="https://creativecommons.org/ns#DerivativeWorks"/><cc:requires rdf:resource="https://creativecommons.org/ns#Notice"/><cc:requires rdf:resource="https://creativecommons.org/ns#Attribution"/></cc:License></rdf:RDF></metadata><mask id="avatarsRadiusMask"><rect width="762" height="762" rx="0" ry="0" x="0" y="0" fill="#fff"/></mask><g mask="url(#avatarsRadiusMask)"><path d="M396.01 164.85c37.82 4.9 74.21 19.64 104.8 42.39 6.15 4.84 12.48 9.33 18.02 14.92 23.77 21.98 42.73 49.02 55.13 78.95 9.35 22.31 14.72 46.04 16.64 70.14 6.62.81 13.05 2.14 19.12 5 15.54 6.93 27.08 20.94 31.78 37.21 2.63 9.56 3.56 19.75 1.72 29.55-2.96 18.76-13.72 36.13-29.37 46.92-10.94 7.65-24.49 12.03-37.86 11.68-5.13-.05-10.04-1.6-15.13-1.79-1.85 2.17-3.23 4.84-4.76 7.25-18.66 29.62-44.57 54.51-74.64 72.4-28.1 16.73-59.9 27.16-92.46 30.32-11.08.7-21.87 2.05-32.98.74-51.69-2.3-102.07-23.44-140.15-58.43-29.03-26.55-50.84-60.83-62.54-98.39-7.09-22.85-10.62-46.78-10.07-70.71.52-40.34 12.53-80.58 33.94-114.76 19.1-30.81 45.91-56.58 77.2-74.83 29.63-17.28 63.35-27.68 97.59-29.87 14.66-1.47 29.44-.37 44.02 1.31Z" fill="#000"/><path d="M363 169.06c48.47-1.39 97.32 14.7 135.81 44.12 6.55 4.06 11.72 9.49 17.36 14.64 24.33 22.63 43.2 50.95 54.93 82.02 7.43 19.61 11.86 40.2 13.56 61.09-8.89.74-17.34 2.34-25.38 6.38-2.19 1.03-1.89 4.95.68 5.23 2.35.23 4.98-1.51 7.24-2.2 14.62-5.37 31.32-4.35 44.78 3.68 11.69 6.78 20.09 18.16 23.89 31.06 2.6 8.25 2.68 17.41 1.76 25.95-2.5 17.35-12.35 33.73-26.73 43.81-15.71 11.33-37.17 14.64-54.93 6.2-3.17-1.43-5.94-3.58-9.08-5.05-2.95-1.09-4.88 2.79-2.7 4.75 3.17 2.76 7.34 4.52 11 6.56-20.14 34.15-49.45 62.7-84.41 81.47-30.2 16.31-64.44 25.53-98.78 26.15-27.63.72-55.33-4.04-81.21-13.72-30.32-11.24-57.84-29.43-80.37-52.6-22.67-23.37-39.92-51.88-50.2-82.77-14.96-44.64-14.91-94.01.27-138.59 11.05-33.06 30.28-63.21 55.37-87.39 29.67-28.73 67.65-48.54 108.13-56.67 12.8-2.52 25.94-4.24 39.01-4.12Z" fill="rgba(158, 86, 34, 1)"/><path d="M605.03 404.4c2.63-.1 3.44 3.8 1.36 4.98-3.69 1.83-7.82 2.77-11.64 4.35-5.82 2.04-11.28 4.76-16.68 7.72 4.29 2.34 8.86 4.74 12.71 7.76 2.58 2.09 4.85 4.35 5.33 7.8-.26 3.59-2.73 6.55-5.45 8.69-5.86 4.66-13.92 7.18-20.79 10.26-1.75.62-4.43 1.99-5.59-.26-1.02-1.74-.06-3.11 1.57-3.87 6.65-3.3 14.86-5.62 20.79-10.16 1.37-1.14 3.39-2.74 3.61-4.62-4.07-5.63-12.42-8.59-18.23-12.09-2.34-1.72-2.29-4.24-.16-6.13 7.27-5.64 16.98-9.26 25.57-12.38 2.42-.83 5.03-1.95 7.6-2.05Z" fill="#000"/><g transform="translate(-161 -83)"><path d="M558.201 453.21c11.47-1.62 23.68.14 34 5.5 7.61 3.93 14.3 10.28 18.11 18 3.35 6.67 3.82 14.64 2.11 21.82-2.1 8.03-7.22 15.16-13.75 20.2-14.96 11.75-36.54 14.35-54.21 7.75-8.42-3.17-16.53-8.89-21.39-16.55-2.81-4.73-5.22-10.36-5.36-15.93-.71-9.54 3.61-19.3 10.27-26.02 8.05-8.38 18.87-12.97 30.22-14.77Z" fill="#000"/><path d="M559.17 459.11c13.97-2.02 29.72 1.64 39.88 11.85 6.6 6.52 10.35 16.95 7.62 26.05-2.06 8.19-7.68 14.49-14.53 19.15-12.44 8.19-28.98 10.02-43.11 5.63-8.63-2.71-17.05-8.19-21.69-16.11-3.02-5-4.14-10.9-3.59-16.69.76-6.83 4.53-13.12 9.38-17.85 7.05-6.72 16.44-10.78 26.04-12.03Z" fill="#fff"/><path d="M369.481 468.71c17.62-2.69 37.91 3.42 47.71 19.13 5.49 8.51 6.28 20 1.93 29.15-2.91 6.32-7.91 11.64-13.7 15.43-7.34 4.75-15.75 7.1-24.42 7.79-14.63.57-29.81-4.29-39.4-15.79-5.22-6.27-8.18-14.2-7.54-22.41.56-8.27 4.61-15.74 10.51-21.44 6.92-6.46 15.65-10.23 24.91-11.86Z" fill="#000"/><path d="M376.55 474.11c9.64-.35 19.56 2.27 27.37 8.02 5.14 3.82 9.44 9.18 11.19 15.41 1.61 6.2 1.04 12.92-2.15 18.54-4.72 8.62-13.66 14.22-22.97 16.71-13.7 3.71-30.16.71-40.8-8.99-6.28-5.66-10.01-13.74-9.23-22.26.73-5.44 3.14-10.68 6.85-14.72 7.34-8.21 18.86-12.64 29.74-12.71Z" fill="#fff"/><path d="M551.461 477.61c3.69-.8 7.51-.7 10.96.96 6.42 3.03 10.48 10.43 8.89 17.48-1.3 7.25-7.89 12.9-15.3 12.85-8.42.47-15.96-6.52-16.34-14.89-.56-7.44 4.55-14.59 11.79-16.4Z" fill="#000"/><path d="M553.619 483.21c4-.67 7.83.59 10.21 3.96 3.04 4.06 2.26 9.86-1.38 13.27-4.4 3.95-11.88 3.34-15.16-1.77-4-5.83-.62-14.19 6.33-15.46Z" fill="#fff"/><path d="M618.701 484.19c1.69.32 3.64-.24 4.63 1.46 1.61 2.47 2.37 5.58 2.85 8.46 1.44 10.51-2.22 21.79-9.83 29.24-3.27 3.02-7.82 5.97-12.38 6.11-2.73.04-4.27-2.62-2.33-4.8 3.27-1.61 6.54-2.11 9.44-4.56 6.29-5.26 9.64-14.02 9.57-22.11-.01-4.02-1.58-7.21-2.66-10.96.23-.95.47-1.9.71-2.84ZM380.44 488.46c4.44-.82 9.2.5 12.68 3.35 5.75 4.58 7.69 13.08 4.69 19.76-2.56 5.93-8.24 10.22-14.82 10.23-8.45.57-15.94-6.42-16.44-14.79-.99-8.72 5.26-17.04 13.89-18.55Z" fill="#000"/><path d="M379.531 494.79c5.08-1.91 10.94.6 12.92 5.67 2.83 6.48-1.52 14.71-8.68 15.43-4.25.47-7.61-1.26-9.91-4.82-3.44-5.89-.79-13.89 5.67-16.28Z" fill="#fff"/><path d="M330.441 503.6c.44 4.06-1.41 7.43-1.67 11.39-.24 6.08 2.47 12.14 7.29 15.89 2.44 1.9 5.12 2.82 7.78 4.29 1.95.85 1.84 2.03 1.58 3.92-1.51 1.78-3.31 1.46-5.31.8-7.28-2.71-13.55-8.6-15.95-16.08-2.04-6.12-1.77-13.6 1.36-19.29 1.26-1.87 3.04-.88 4.92-.92Z" fill="#000"/></g><g transform="translate(-161 -83)"><g fill="#000"><path d="M545.03 378.5c24.7.94 48.04 8.97 69.45 20.99 2.26 1.32 4.92 2.49 6.79 4.33 1.3 2.39-.38 5.13-3.2 4.19-16.58-6.21-33.56-9.63-51.06-12.02-20.3-2.34-39.92-3.68-60.2-.13-3.2.44-6.87 2.16-10.08 1.59-2.66-1.69-1.2-6.1 1.29-7.37 13.63-9.33 30.79-12.1 47.01-11.58ZM407.99 396.92c3.51.64 6.6 1.92 9.63 3.78-.15 1.2-.26 2.4-.33 3.62-2.7.74-5.46 1.12-8.24 1.34-13.17 1.15-26.45 5.11-38.81 9.69-12.23 4.75-24.78 10.64-35.19 18.71-2.82 2.03-4.13 4.82-8.08 4.47-.5-.9-1-1.79-1.51-2.67.89-1.59 1.68-3.17 2.76-4.64 9.55-13.17 23.64-23.22 38.61-29.35 12.7-5.15 27.61-8.05 41.16-4.95Z"/></g></g><g transform="translate(-161 -83)"><path d="M517.9 557.82c1.53.3 2.76 1.6 2.73 3.2-7.1 16.81-15.06 33.2-25.17 48.42-4.62 6.97-9.13 14.14-14.43 20.61-2.18 3.27-7.96 2.92-10.79.72-6.93-4.92-13.33-10.65-19.13-16.87-9.22-10.37-17.94-20.12-24.71-32.38-.81-1.89-2.3-3.93-.75-5.87.54-1.24 2.97-.86 3.53.16 5.13 9.16 11.47 17.71 18.52 25.49 6.97 8.11 14.24 15.76 22.74 22.29 1.12.81 2.37 1.74 3.71 2.1 2.61.27 3.89-1.32 5.32-3.19 13.52-19.03 25.72-38.76 34.68-60.38.81-2.01 1.46-3.68 3.75-4.3Z" fill="#000"/></g><g transform="translate(-161 -83)"><path fill-rule="evenodd" clip-rule="evenodd" d="M531.31 506.71c7.34 4.5 12.1 12.74 12.79 21.28.97 9.95-4.19 20.21-12.55 25.62-6.49 4.08-14.6 5.58-22.07 3.66-11.77-2.85-20.88-13.75-20.98-25.94-8.63-10.18-25.54-13.93-36.48-5.26-3.23 2.99-6.61 7.32-6.74 11.91-1.66 12.18-12 22.15-24.27 23.27-12.14 1.5-24.49-6.08-28.61-17.62-4.63-11.86-.12-25.8 10.5-32.77 7.52-4.92 17.38-5.88 25.69-2.42 7.77 3.11 13.23 9.62 16.01 17.4 5.32-6.87 13.8-10.32 22.4-10.1 8.25-.07 15.45 3.28 21.98 8.05 1.86-6.67 5.57-12.57 11.32-16.53 9.06-6.39 21.73-6.65 31.01-.55Zm-22.64 2.4c6.34-2.22 13.56-1.59 19.29 1.93 7.13 4.28 11.43 12.68 10.61 20.98-.62 9.97-8.38 18.29-18.07 20.26-11.33 2.28-23.02-5.13-25.9-16.28-3.05-11.13 3.23-23.06 14.07-26.89Zm-70.58 15.77c-3.84-8.69-13.49-14.16-22.91-12.75-7.54 1.13-14.05 5.85-17.14 12.87-3.66 8.33-1.84 17.98 4.56 24.43 6.05 6.06 15.65 8.07 23.59 4.82 6.8-2.63 12.26-9.01 13.4-16.26.51-4.56.7-8.92-1.5-13.11Z" fill="#000"/></g><g transform="translate(-161 -83)"><path d="M577 185.99c12.56.52 24.92 2.91 36.69 7.34 19.34 7.52 36.92 19.79 51.12 34.87 10.01 10.27 18.45 22.23 28.18 32.81 5.38 5.64 11.4 10.83 17.98 15.03 9.34 5.99 20.44 8.43 30.91 11.95 11.45 3.52 22.49 7.95 32.48 14.66 16.08 10.6 27.97 27.68 34 45.84 4.26 13.32 6.58 28.46 3.31 42.24-.44 2.06-4 2.35-4.83.42-1.55-3.18-2.55-6.58-4.35-9.66-4.92-8.83-11.74-16.71-19.11-23.6 8.39 11.73 10.45 26.92 6.35 40.64-2.18 7.04-6.91 12.22-11.85 17.47 1.07 5 2.42 9.87 2.78 15 .83 7.44-.72 14.85-4.01 21.55-1.83 3.7-3.82 8.3-7.12 10.9-2.45.96-5.66-1.44-8.05-2.04-4.22-1.16-9.11-2.4-13.47-1.58-.92 1.15-1.64 2.54-2.32 3.85-6.27 12.57-13.95 24.49-21.97 36-8.43 11.51-18.39 22.71-30.08 30.98-3.38 2.26-8.04 5.08-12.06 2.73-3.62-2.51-3.4-8.06-3.01-11.93 2.13-16.26 1.17-33.16 1.31-49.74-13.71-.07-27.19-3.83-39.15-10.47-27.01-14.79-46.68-44.18-47.16-75.32-10.44 8.35-22.76 12.93-35.73 15.68-3.06.5-7.25 1.37-10.03-.4-1.38-2.25-.65-3.64 1.07-5.31 12.2-11.63 21.85-25.4 26.06-41.92 3.24-13.11 1.8-27.25-7.02-37.92-6.39-7.81-15.97-12.65-25.73-14.69-10.95-2.42-22.3-1.71-33.16.81-1.78.29-3.32.98-5.02.01-2.02-2.1-1.31-4.35-1.21-6.97-10.53 3.42-20.8 8.27-29.8 14.73-1.69 1.15-2.95 2.02-5.08 1.29-3-1.37-5.26-4.26-8.06-6.03-9.57-6.5-21.51-10.09-32.81-12.06 3.09 2.78 6.56 5.41 9.16 8.66 1.33 1.69 1.67 3.88.06 5.52-1.81.91-4.28.66-6.27.75-12.12-.12-24.95.39-36.48 4.5-2.9 2.13-4.69 6.32-6.61 9.34-13.1 22.16-19.31 48.44-18.81 74.09-.1 1.51.01 2.93-.9 4.22-2.42 1.36-4.13-.06-6.24-1.18-6.46-4-12.78-8.85-17.67-14.71-4.95 10.26-13.85 18.43-24.47 22.53-2.93 8.25-4.09 17.46-5.89 26.13-.98 4.72-1.27 9.57-2.3 14.26-.62 2.41-3.48 2.92-4.89.88-8.85-11.78-10.65-25.55-12.68-39.68-4.42-1.06-8.63-2.43-12.32-5.17-2.33-1.72-5.26-4.17-5.34-7.3-.18-1.64 1.87-2.73 2.95-3.68 3.72-2.69 7.04-5.81 10.43-8.88-9.04-3.02-16.29-9.65-19.79-18.55-4.63-11.72-2.82-24.7 1.71-36.14 7.24-17.5 20.9-32.37 37.32-41.7 9.36-5.44 19.26-8.34 30.02-9.31 2.47-12.27 6.43-24.12 12.69-35.01 8.31-14.55 20.19-26.92 34.74-35.31 18.02-10.48 39.99-14.47 60.56-11.22 19.61 2.83 37.5 11.29 53.18 23.23 6.35-5.85 13-11.3 20.34-15.87 17.15-11.02 37.01-17.42 57.45-17.56Z" fill="#000"/><path d="M574 191.82c13.68-.16 27.49 2.9 40.18 7.92 17.13 7.21 32.75 18.07 45.52 31.57 11.18 11.08 20.17 24.6 31.18 35.8 8.12 7.99 17.16 15.18 27.88 19.33 14.86 5.72 30.25 8.62 44.48 16.33 10.26 5.33 19.08 12.65 26.09 21.85 11.58 15.28 18.1 34.28 18.09 53.47-9.08-14.42-21.71-28.89-37.44-36.12-2.32-1.17-4.91.43-4.39 3.12 1.24 2.31 3.39 4.24 5.15 6.16 4.34 4.64 8.73 9.76 11.46 15.52 4.63 9.62 5.1 20.99 1.65 31.06-1.87 5.16-5.39 9.02-9.08 12.94-1.32 1.65-3.14 2.79-2.41 5.17 2.12 8.74 4.13 16.81 2.26 25.88-1.53 5.65-4.2 11.07-7.44 15.92-5.38-2.08-10.61-3.24-16.36-3.69.29-1.6 1.07-3.52.41-5.08-1.11-1.09-2.54-1.81-3.92-.65-1.05.99-1.67 2.48-2.32 3.76-7.59 16.37-17 31.76-27.55 46.39-5.29 6.93-11 13.64-17.42 19.56-4.77 4.26-9.35 8.35-15.32 10.87-1.05-4.72-.08-8.96.24-13.69.57-8.74 1.03-17.46.55-26.22-.36-5.85-.33-11.7-.3-17.56 14.53-1.24 29.22-7.38 39.18-18.2 1.74-1.94 1.13-4.44-1.5-5-5.28-1.39-9.7-3.35-14.06-6.66 8.57.3 16.94-.51 24.93-3.8 10.32-4.01 19.45-11.76 24.28-21.81 3.67-7.21 4.18-16.11 2.91-23.98-.33-2.79-4.06-4.2-5.14-1.07.58 7.83 1.16 15.08-2.57 22.31-8.02 16.66-28.58 24.67-46.23 22.25-2.21-.25-5.17-2-7.2-.75-.51.65-.86 1.41-1.05 2.3 3.65 7.89 10.62 12.02 18.32 15.29-12.74 11.22-30.26 15.35-46.88 12.9-29.5-4.16-55.1-26.14-65.73-53.67-3.84-9.81-5.25-20.09-5.33-30.57-.11-2.81-3.24-4.19-5.3-2.12-10.39 9.28-23.17 14.34-36.7 17.05 8.49-9.03 15.57-19.17 20.3-30.67 3.97-9.95 5.77-20.58 4.34-31.25-1.26-9.25-5.48-18.02-12.13-24.6-8.69-8.88-21.4-13.71-33.63-14.73-8.9-1.1-18.11-.17-26.87 1.61.5-2.27 1.83-4.39.13-6.47-1.35-1.84-4.2-.81-6.08-.46-11.97 3.29-23.41 9.33-33.56 16.43-12.62-12.28-32.58-17.48-49.6-19.43-17.25-1.97-35.12-.68-51.85 4.04-4.84 1.46-9.77 3.11-14.26 5.47-2.22 1.08-2.15 4.34.19 5.18 1.17.71 2.89-.4 4.08-.78 15.59-7.15 33.83-9.37 50.83-9 3.21.18 7.14.02 9.75 2.1 3.87 2.77 7.29 6.2 10.89 9.31-12.71-.21-24.9-.07-37.07 4.14-3.72 1.6-5.96 5.43-8.09 8.69-5.04 8.22-9.78 16.93-13.09 26-6.28 16.54-8.91 34.41-9.19 52.04-6.95-4.66-13.95-10.26-17.98-17.73-1.6-2.68-2.53-5.59-3.65-8.47-1.07-2.16-4.43-2-4.84.65-.47 3.75 2.19 7.97 3.94 11.15-2.89 7.95-8.63 14.36-15.65 18.94-6.99 4.39-14.88 5.59-23.03 5.29-7.14.1-13.82-1.94-19.31-6.56 4.47-4.11 9.61-7.88 13.72-12.34 1.51-1.32 1.38-3.63-.21-4.83-1.99-1.04-4.27-1.57-6.37-2.4-6.34-2.45-11.45-7.52-14.14-13.75-3.14-6.95-3.13-15.28-1.67-22.64 3.23-14.28 11.32-26.93 21.9-36.92 11.41-10.85 27.14-19.47 43.12-20.15 1.61-.18 3.11-.26 4.47-1.25 1.43-2.26 1.57-5.45 2.18-8.02 2.92-13.13 8.28-25.74 16.07-36.72 10.81-15.31 26.38-27.09 44.3-32.76 13.07-4.27 26.81-4.85 40.38-3.06 18.15 2.64 34.75 10.46 49.37 21.37-1.42 1.67-5.59 3.88-4.44 6.47.29 1.55 2.42 2.01 3.5 1.15 5.61-3.87 10.31-9.11 15.68-13.33 18.28-14.8 40.73-24.92 64.45-25.79Z" fill="rgba(175, 175, 175, 1)"/><path d="M298.56 409.23c4.76-.11 9.41.06 14.11-.96-2.64 9.82-4.31 19.91-6.39 29.86-4.82-9.17-6.25-18.76-7.72-28.9Z" fill="rgba(175, 175, 175, 1)"/></g></g></svg>