<svg xmlns:dc="http://purl.org/dc/elements/1.1/" xmlns:cc="http://creativecommons.org/ns#" xmlns:rdf="http://www.w3.org/1999/02/22-rdf-syntax-ns#" xmlns:svg="http://www.w3.org/2000/svg" xmlns="http://www.w3.org/2000/svg" viewBox="0 0 762 762" fill="none"><metadata><rdf:RDF><cc:Work><dc:format>image/svg+xml</dc:format><dc:type rdf:resource="http://purl.org/dc/dcmitype/StillImage"/><dc:title>Adventurer</dc:title><dc:creator><cc:Agent><dc:title>Lisa Wischofsky</dc:title></cc:Agent></dc:creator><dc:source>https://www.instagram.com/lischis_adventures/</dc:source><cc:license rdf:resource="https://creativecommons.org/licenses/by/4.0/"/></cc:Work><cc:License rdf:about="https://creativecommons.org/licenses/by/4.0/"><cc:permits rdf:resource="https://creativecommons.org/ns#Reproduction"/><cc:permits rdf:resource="https://creativecommons.org/ns#Distribution"/><cc:permits rdf:resource="https://creativecommons.org/ns#DerivativeWorks"/><cc:requires rdf:resource="https://creativecommons.org/ns#Notice"/><cc:requires rdf:resource="https://creativecommons.org/ns#Attribution"/></cc:License></rdf:RDF></metadata><mask id="avatarsRadiusMask"><rect width="762" height="762" rx="0" ry="0" x="0" y="0" fill="#fff"/></mask><g mask="url(#avatarsRadiusMask)"><path d="M396.01 164.85c37.82 4.9 74.21 19.64 104.8 42.39 6.15 4.84 12.48 9.33 18.02 14.92 23.77 21.98 42.73 49.02 55.13 78.95 9.35 22.31 14.72 46.04 16.64 70.14 6.62.81 13.05 2.14 19.12 5 15.54 6.93 27.08 20.94 31.78 37.21 2.63 9.56 3.56 19.75 1.72 29.55-2.96 18.76-13.72 36.13-29.37 46.92-10.94 7.65-24.49 12.03-37.86 11.68-5.13-.05-10.04-1.6-15.13-1.79-1.85 2.17-3.23 4.84-4.76 7.25-18.66 29.62-44.57 54.51-74.64 72.4-28.1 16.73-59.9 27.16-92.46 30.32-11.08.7-21.87 2.05-32.98.74-51.69-2.3-102.07-23.44-140.15-58.43-29.03-26.55-50.84-60.83-62.54-98.39-7.09-22.85-10.62-46.78-10.07-70.71.52-40.34 12.53-80.58 33.94-114.76 19.1-30.81 45.91-56.58 77.2-74.83 29.63-17.28 63.35-27.68 97.59-29.87 14.66-1.47 29.44-.37 44.02 1.31Z" fill="#000"/><path d="M363 169.06c48.47-1.39 97.32 14.7 135.81 44.12 6.55 4.06 11.72 9.49 17.36 14.64 24.33 22.63 43.2 50.95 54.93 82.02 7.43 19.61 11.86 40.2 13.56 61.09-8.89.74-17.34 2.34-25.38 6.38-2.19 1.03-1.89 4.95.68 5.23 2.35.23 4.98-1.51 7.24-2.2 14.62-5.37 31.32-4.35 44.78 3.68 11.69 6.78 20.09 18.16 23.89 31.06 2.6 8.25 2.68 17.41 1.76 25.95-2.5 17.35-12.35 33.73-26.73 43.81-15.71 11.33-37.17 14.64-54.93 6.2-3.17-1.43-5.94-3.58-9.08-5.05-2.95-1.09-4.88 2.79-2.7 4.75 3.17 2.76 7.34 4.52 11 6.56-20.14 34.15-49.45 62.7-84.41 81.47-30.2 16.31-64.44 25.53-98.78 26.15-27.63.72-55.33-4.04-81.21-13.72-30.32-11.24-57.84-29.43-80.37-52.6-22.67-23.37-39.92-51.88-50.2-82.77-14.96-44.64-14.91-94.01.27-138.59 11.05-33.06 30.28-63.21 55.37-87.39 29.67-28.73 67.65-48.54 108.13-56.67 12.8-2.52 25.94-4.24 39.01-4.12Z" fill="rgba(236, 173, 128, 1)"/><path d="M605.03 404.4c2.63-.1 3.44 3.8 1.36 4.98-3.69 1.83-7.82 2.77-11.64 4.35-5.82 2.04-11.28 4.76-16.68 7.72 4.29 2.34 8.86 4.74 12.71 7.76 2.58 2.09 4.85 4.35 5.33 7.8-.26 3.59-2.73 6.55-5.45 8.69-5.86 4.66-13.92 7.18-20.79 10.26-1.75.62-4.43 1.99-5.59-.26-1.02-1.74-.06-3.11 1.57-3.87 6.65-3.3 14.86-5.62 20.79-10.16 1.37-1.14 3.39-2.74 3.61-4.62-4.07-5.63-12.42-8.59-18.23-12.09-2.34-1.72-2.29-4.24-.16-6.13 7.27-5.64 16.98-9.26 25.57-12.38 2.42-.83 5.03-1.95 7.6-2.05Z" fill="#000"/><g transform="translate(-161 -83)"><path d="M380.24 447.22c13.3-1.66 27.11 1.75 38.11 9.43 12.06 8.33 20.46 21.6 22.82 36.06 1.19 8.28.93 17.07-1.63 25.08-3.95 13.25-13.11 24.77-25.11 31.65-10.01 5.78-21.98 8.36-33.47 6.98-16.14-1.57-31.14-10.83-39.98-24.4-5.54-8.33-8.46-18.04-9.11-27.98-.3-12.3 3.26-24.62 10.56-34.57 8.83-12.25 22.8-20.48 37.81-22.25Z" fill="#000"/><path d="M378.24 453.29c19.42-3.65 39.86 5.43 50.31 22.16 6.62 10.49 9.49 23.85 6.67 36.03-2.57 13.31-10.96 25.19-22.49 32.27-6.86 4.28-14.7 6.65-22.74 7.28-19.82 1.35-39.29-10.22-47.62-28.26-7.76-16.18-5.77-36.01 5.02-50.34 7.38-10.03 18.61-16.92 30.85-19.14Z" fill="#fff"/><path d="M589.99 474.91c13.08-.59 26.98-1.27 39.85 1.48 2.15.58 2.9 1.33 2.29 3.68-2.1 1.76-6.09 3.3-6.83 6.12-.03 6 9.05 5.9 9.69 10.8-.29 2.95-2.42 3.33-4.97 3.14-7.67-.63-15.32-1.24-23.02-1.41-16.02-.09-32.02-.23-48.01.88-7.56.7-15.21.63-22.77 1.17-11.11 1.03-22.13 1.31-33.14 3.36-2.67.49-5.51 1.11-8.23 1.06-2.01-1.24-3.05-5.54-.56-6.86 5.33-3.02 11.33-5.1 17.18-6.87 15.08-4.97 30.76-8.25 46.26-11.64 10.64-2.42 21.43-3.76 32.26-4.91ZM405.43 479.68c3.46-.9 6.91-.99 10.4-.21 8.85 2.09 15.44 10.43 15.31 19.55.24 11.12-10.03 21.17-21.19 20.13-9.28-.52-17.48-7.87-18.76-17.12-1.71-9.8 4.73-19.67 14.24-22.35Z" fill="#000"/></g><g transform="translate(-161 -83)"><g fill="#000"><path d="M606.99 397.59c1.52-.4 3.26.6 4.74.97-.11 1.2-.17 2.45-.47 3.61-1.58 1.49-3.57 2.61-5.39 3.78-22.77 14.6-46.18 28.4-70.32 40.63-11.53 5.73-23.34 11.3-35.55 15.44-6.86 2.19-13.72 4.28-21.01 3.44-3.31-.31-6.16-3.02-6.23-6.43-.04-4.22 3-8.6 5.08-12.15 1.28-2.68 4.5-3.04 6.99-4.12 37.24-13.75 74.44-27.65 111.67-41.45 3.48-1.23 6.91-2.81 10.49-3.72ZM338.99 432.64c29.88 5.94 60.13 12.03 90.02 18.02 2.27.32 4.6.07 6.85.45 2.45 2.3 3.64 6.21 4.54 9.37 1.17 4.09-.15 8.77-3.91 11.01-4 2.62-9.91 2.16-14.5 1.89-8.74-1-17.41-3.8-25.68-6.74-19.61-7.16-38.69-16.93-56.97-26.97-1.67-.96-3.68-1.94-4.79-3.55-.38-2.88 1.85-4.16 4.44-3.48Z"/></g></g><g transform="translate(-161 -83)"><path d="M534.29 562.56c7.92 1.16 15.41 4.36 21.23 9.92 8.09 7.57 12.12 18.53 11.86 29.52.34 9.78-2.38 19.12-6.68 27.81-7.12 14.02-18.35 26.07-31.98 33.93-11.83 6.96-25.09 10.44-38.72 11.36-30.63 1.61-61.2-11.84-82.09-34.04-6.38-8.12-11.86-18.46-11.46-29.06-.09-7.88 4.02-15.65 10.45-20.16 6.92-4.97 14.77-6.31 23.1-6.79 14.2.15 27.79 4.32 40.17 11.12 8.52-12.59 20.01-22.9 34.03-28.96 9.42-4.2 19.83-5.97 30.09-4.65Z" fill="#000"/><path d="M533.47 568.33c9.24 1.28 17.97 6.24 22.9 14.3 5.96 9.59 6.65 21.04 3.81 31.79-4.05-.55-7.9-.69-11.97-.2-10.84.62-21.73 3.37-31.96 6.96 1.41-7.49 2.53-16.65-.57-23.85-1.7-3.84-5.41-6.2-9.58-4.33-6.58 3.12-10.3 11.89-13.02 18.22-4.75-1.63-11.32-3.78-16.06-1.23-3.89 2.19-3.78 6.53-2.42 10.26 2.56 6.21 7.71 11.08 12.64 15.44-12.05 7.91-22.81 17.29-31.17 29.09-14.95-4.74-28.67-13.02-40.01-23.82-6.73-6.44-11.99-15.15-13.61-24.38-1.13-6.35.66-13.23 5.31-17.81 4.47-4.59 11-6.66 17.2-7.5 11.79-1.52 24.47 1.81 35.25 6.5 3.75 1.52 7.09 3.83 10.78 5.43 2.67.3 3.71-3.41 5.1-5.15 9.06-13.35 22.95-24.15 38.65-28.36 5.96-1.82 12.57-1.87 18.73-1.36Z" fill="#8F2E45"/><path d="M508.97 597.86c2.64 2.37 2.74 6.8 2.88 10.12-.08 10.91-3.14 21.91-7.97 31.65-4.01-2.1-7.93-4.17-11.35-7.18-4.32-3.77-9.1-7.97-11.95-13.01-.89-1.45-.92-3-1.16-4.63 5.16-.73 9.19 1.01 13.81 2.87 2.79 1 3.86-1.41 4.96-3.44 2.44-5.54 5.13-13.33 10.78-16.38Z" fill="#D32020"/><path d="M558.62 619.94c-2.6 7.12-6.32 13.69-11.01 19.63-3.77 4.78-8.55 8.9-13.01 13.05-9.94 8.14-22.52 13.35-35.12 15.57-12.51 1.97-25.18 1.2-37.51-1.56 8.12-11.13 18.65-19.92 30.3-27.15 3.76 2.33 7.58 5.16 11.76 6.65 1.39.62 2.77-.42 3.56-1.51 3.17-4.9 4.87-10.02 6.78-15.42.38-1.43 1.62-1.55 2.8-2.1 12.98-4.74 27.57-8.13 41.45-7.16Z" fill="#EA869E"/></g><g transform="translate(-161 -83)"/><g transform="translate(-161 -83)"><path d="M375.55 193.45c2.29.84 2.42 2.81 3.16 4.82 1.6 6.11 5.41 11.82 9.28 16.74 4.64 5.47 9.71 10.7 16.39 13.62 7.97 3.49 17.14 5.25 25.62 7.11 14.17 2.79 28.59 4.48 42.98 5.6 15.33 1.57 30.62 1.41 46 2.34 20.31.07 40.75.62 61.02-.72 8.04-.01 16-.21 24.01-.94 10.03-.85 20-.5 30.02.32 10.29.7 20.48 3.01 30.49 5.39 7.68 2.72 15.47 5.31 22.79 8.9 24.69 10.84 47.05 26.91 65.21 46.85 21.41 23.46 36.94 52.42 42.96 83.71 3.99 21.66 3.31 44.78-3.41 65.84-2 7.32-4.69 14.36-9.06 20.62-4.22-3.25-7.94-6.65-13.02-8.62-12.04-6.25-26.11-6.86-39.01-3.08-2.85.59-3.47 2.94-4.95 5.08-9.69 15.52-21.69 29.57-35.87 41.17-8.97 7.15-18.54 13.76-28.35 19.71-1.01-.26-2.02-.53-3.03-.8-.15-3.14.07-6.02.7-9.1 1.43-7.33 1.48-14.57 1.61-22.01-.1-10.39-.27-20.69-1.6-31.01-1.24-11.29-3.14-22.56-4.96-33.78-7.05-.75-14.02-.48-21.03-1.56-36.12-4.41-70.63-19.63-99.94-40.93 1.11 8.39 3.5 14.36 8.72 21.01 2.13 2.34 1.82 5.91-.96 7.56-12.26 6.9-27.16 9.97-41.06 11.15-22.88 1.67-46.11-1.49-67.78-8.98-17.86-6.35-34.96-15.6-47.2-30.43-.38 8.22 1.11 16.73 4.47 24.26 1.24 2.34.37 5.24-2.02 6.44-9.71 5.18-20.85 5.81-31.55 4.06-13.94-2.8-25.87-10.22-35.99-20.01-2.35 7.35-3.77 14.91-5.85 22.34-1.73 6.79-2.4 13.84-3.65 20.73-1.65 2.24-4.43-.42-5.61-1.95-7.25-9.61-9.55-22.14-10.1-33.9.23-11.48 2.52-22.8 8.05-32.94-5.5-13.18-7.7-27.55-4.8-41.64-8.7 4.47-17.92 9.96-23.46 18.28-1.42 1.86-2.08 4.91-4.76 5.12-1.73-.49-3.15-1.13-4.01-2.78-6.07-10.44-8.14-23.33-6.77-35.25 1.44-14.25 7.67-27.95 16.1-39.41 12.27-16.55 30.01-29.25 49.65-35.46 11.99-3.75 25.44-5.47 37.82-2.9-7.36-14.86-4.93-34.66 6.11-47.09 1.7-1.66 3.94-4.65 6.64-3.48Z" fill="#000"/><path d="M373.68 200.56c3.8 11 11.32 21.1 20.31 28.43 7.26 5.9 16.11 8.1 25 10.28 32.12 7.51 66.11 9.27 99.01 10.04 25.98.19 52.08.37 78.03-.96 24.52-2.2 49.01-.52 72.46 7.33 35.02 11.44 66.47 33.71 89.06 62.8 17.7 22.88 29.91 49.67 33.52 78.52 2.99 22.98.01 46.56-9.68 67.69-5.71-3.68-11.96-6.54-18.42-8.61-9.91-2.71-20.7-2.63-30.63-.03.14-1.76.99-3.88 0-5.47-.9-1.43-3.66-1.25-4.12.62-1.31 3.26-2.7 6.42-4.59 9.39-9.51 15.6-21.46 29.82-35.41 41.63-7.28 6.24-15.18 11.35-23 16.83 2.31-14.15 2.32-28.8 1.04-43.05-1.01-17.38-4.35-34.86-7.51-51.98-1.05-4.6-1.58-9.81-3.63-14.08-1.19-2.26-4.96-1.88-4.75 1.1 1.05 4.73 2.41 9.33 3 14.17-40.43-.57-80.05-15.54-112.88-38.73-2.76-2.04-5.49-4.1-8.4-5.93-1.97.81-4.26.74-4.4 3.43.19 10.59 3.42 20.4 10.09 28.69-19.34 9.79-40.49 11.18-61.78 9.93-22.09-1.76-44.54-7.72-63.85-18.76-8.82-5.15-17.78-11.9-23.55-20.43-1.26-1.76-2.3-3.37-4.56-3.9-1.5-.36-2.86.54-3.27 1.98-2.32 11.41-.49 22.74 3.7 33.47-12.75 6.06-26.97 4.78-39.58-.92-17.34-7.87-30.98-23.55-37.67-41.25-4.27-11.59-5.94-24.73-2.8-36.81.39-2.08 1.02-3.95-.81-5.55-2.33-2.16-5.15-.46-7.54.64-7.11 3.79-14.47 8.08-20.14 13.86-2.26 2.17-4.02 4.68-6.1 6.99-4.86-9.64-5.97-20.29-4.73-30.92 1.96-13.23 7.54-25.62 15.66-36.2 10.12-13.14 23.76-23.61 39.11-29.9 13.01-5.31 27.17-7.47 41.13-5.48 2.34.31 4.8 1.2 7.14.97 1.97-1.4 3.95-3.18 2.09-5.65-4.72-6.65-6.5-14.68-5.65-22.75.66-7.61 3.52-16.01 9.1-21.43Z" fill="rgba(121, 106, 69, 1)"/><path d="M306.22 384.93c3 4.76 5.9 9.49 9.52 13.82-1.41 6.83-3.79 13.39-5.19 20.23-1.19 5.76-2.88 11.38-4.1 17.14-2.71-5.69-4.36-11.7-5.08-17.95-.96-11.48-.09-22.7 4.85-33.24Z" fill="rgba(121, 106, 69, 1)"/><path d="M718.52 576.52c2-.97 4.89.54 6.99.86 4.98 1.42 11.33.38 15.77 3.11-.68 3.94-1.37 7.58-.07 11.49 1.55 4.78 4.46 9.26 8.09 12.73 2.31 2.22 5.24 3.43 7.64 5.46.63 1.83.16 3.65-1.91 4.06-4.17.53-8.72-.74-12.83-1.45-9.89-2.16-20.9-4.07-29.82-9.04-2.15-1.37-5.67-3.16-6.21-5.88-.5-1.7.62-2.87 1.53-4.16 4.24-5.24 7.06-11.67 10.82-17.18Z" fill="#000"/><path d="M721.29 582c4.54 1.01 9.14 1.53 13.73 2.24-.96 9.38 3.55 16.92 9.62 23.59-10.51-2.6-23.31-4.53-32.26-10.92 3.33-4.82 6.06-9.82 8.91-14.91Z" fill="rgba(121, 106, 69, 1)"/></g></g></svg>