<svg xmlns:dc="http://purl.org/dc/elements/1.1/" xmlns:cc="http://creativecommons.org/ns#" xmlns:rdf="http://www.w3.org/1999/02/22-rdf-syntax-ns#" xmlns:svg="http://www.w3.org/2000/svg" xmlns="http://www.w3.org/2000/svg" viewBox="0 0 762 762" fill="none"><metadata><rdf:RDF><cc:Work><dc:format>image/svg+xml</dc:format><dc:type rdf:resource="http://purl.org/dc/dcmitype/StillImage"/><dc:title>Adventurer</dc:title><dc:creator><cc:Agent><dc:title>Lisa Wischofsky</dc:title></cc:Agent></dc:creator><dc:source>https://www.instagram.com/lischis_adventures/</dc:source><cc:license rdf:resource="https://creativecommons.org/licenses/by/4.0/"/></cc:Work><cc:License rdf:about="https://creativecommons.org/licenses/by/4.0/"><cc:permits rdf:resource="https://creativecommons.org/ns#Reproduction"/><cc:permits rdf:resource="https://creativecommons.org/ns#Distribution"/><cc:permits rdf:resource="https://creativecommons.org/ns#DerivativeWorks"/><cc:requires rdf:resource="https://creativecommons.org/ns#Notice"/><cc:requires rdf:resource="https://creativecommons.org/ns#Attribution"/></cc:License></rdf:RDF></metadata><mask id="avatarsRadiusMask"><rect width="762" height="762" rx="0" ry="0" x="0" y="0" fill="#fff"/></mask><g mask="url(#avatarsRadiusMask)"><path d="M396.01 164.85c37.82 4.9 74.21 19.64 104.8 42.39 6.15 4.84 12.48 9.33 18.02 14.92 23.77 21.98 42.73 49.02 55.13 78.95 9.35 22.31 14.72 46.04 16.64 70.14 6.62.81 13.05 2.14 19.12 5 15.54 6.93 27.08 20.94 31.78 37.21 2.63 9.56 3.56 19.75 1.72 29.55-2.96 18.76-13.72 36.13-29.37 46.92-10.94 7.65-24.49 12.03-37.86 11.68-5.13-.05-10.04-1.6-15.13-1.79-1.85 2.17-3.23 4.84-4.76 7.25-18.66 29.62-44.57 54.51-74.64 72.4-28.1 16.73-59.9 27.16-92.46 30.32-11.08.7-21.87 2.05-32.98.74-51.69-2.3-102.07-23.44-140.15-58.43-29.03-26.55-50.84-60.83-62.54-98.39-7.09-22.85-10.62-46.78-10.07-70.71.52-40.34 12.53-80.58 33.94-114.76 19.1-30.81 45.91-56.58 77.2-74.83 29.63-17.28 63.35-27.68 97.59-29.87 14.66-1.47 29.44-.37 44.02 1.31Z" fill="#000"/><path d="M363 169.06c48.47-1.39 97.32 14.7 135.81 44.12 6.55 4.06 11.72 9.49 17.36 14.64 24.33 22.63 43.2 50.95 54.93 82.02 7.43 19.61 11.86 40.2 13.56 61.09-8.89.74-17.34 2.34-25.38 6.38-2.19 1.03-1.89 4.95.68 5.23 2.35.23 4.98-1.51 7.24-2.2 14.62-5.37 31.32-4.35 44.78 3.68 11.69 6.78 20.09 18.16 23.89 31.06 2.6 8.25 2.68 17.41 1.76 25.95-2.5 17.35-12.35 33.73-26.73 43.81-15.71 11.33-37.17 14.64-54.93 6.2-3.17-1.43-5.94-3.58-9.08-5.05-2.95-1.09-4.88 2.79-2.7 4.75 3.17 2.76 7.34 4.52 11 6.56-20.14 34.15-49.45 62.7-84.41 81.47-30.2 16.31-64.44 25.53-98.78 26.15-27.63.72-55.33-4.04-81.21-13.72-30.32-11.24-57.84-29.43-80.37-52.6-22.67-23.37-39.92-51.88-50.2-82.77-14.96-44.64-14.91-94.01.27-138.59 11.05-33.06 30.28-63.21 55.37-87.39 29.67-28.73 67.65-48.54 108.13-56.67 12.8-2.52 25.94-4.24 39.01-4.12Z" fill="rgba(242, 211, 177, 1)"/><path d="M605.03 404.4c2.63-.1 3.44 3.8 1.36 4.98-3.69 1.83-7.82 2.77-11.64 4.35-5.82 2.04-11.28 4.76-16.68 7.72 4.29 2.34 8.86 4.74 12.71 7.76 2.58 2.09 4.85 4.35 5.33 7.8-.26 3.59-2.73 6.55-5.45 8.69-5.86 4.66-13.92 7.18-20.79 10.26-1.75.62-4.43 1.99-5.59-.26-1.02-1.74-.06-3.11 1.57-3.87 6.65-3.3 14.86-5.62 20.79-10.16 1.37-1.14 3.39-2.74 3.61-4.62-4.07-5.63-12.42-8.59-18.23-12.09-2.34-1.72-2.29-4.24-.16-6.13 7.27-5.64 16.98-9.26 25.57-12.38 2.42-.83 5.03-1.95 7.6-2.05Z" fill="#000"/><g transform="translate(-161 -83)"><path d="M550.3 424.38c22.91-2.41 46.19 7.99 59.51 26.79 8.38 11.53 12.6 25.62 12.34 39.84-.45 10.96-3.32 21.75-8.93 31.21-8.53 14.65-23.03 25.87-39.46 30.13-13.66 3.68-28.41 2.77-41.51-2.57-13.65-5.57-25.24-15.76-32.37-28.67-7.41-12.95-9.7-28.21-7.34-42.87 2.24-13.11 8.51-25.37 17.91-34.79 10.63-10.77 24.77-17.58 39.85-19.07Z" fill="#000"/><path d="M549.26 430.26c15.15-1.85 30.28 1.89 42.62 10.89 15.43 11.05 25 29.84 24.48 48.85.05 22.69-14.12 44.35-34.86 53.52-10.79 4.85-22.81 6.65-34.5 4.52-16.4-2.64-31.49-12.63-40.35-26.67-5.6-8.78-8.74-18.95-9.37-29.32-.6-14.46 4.23-29.16 13.41-40.36 9.45-11.75 23.64-19.57 38.57-21.43Z" fill="#fff"/><path d="M381.24 447.1c12.75-1.33 25.88 1.93 36.49 9.13 12.44 8.34 21.16 21.91 23.47 36.73 1.17 8.18.85 16.9-1.66 24.82-3.88 13.03-12.79 24.38-24.49 31.29-10.44 6.22-22.99 8.89-35.05 7.23-15.79-1.81-30.35-10.99-39.02-24.28-5.54-8.32-8.46-18.03-9.11-27.97-.3-12.31 3.26-24.64 10.57-34.6 9.04-12.53 23.43-20.8 38.8-22.35Z" fill="#000"/><path d="M376.5 453.67c18.86-4.33 39.25 3.64 50.42 19.36 7.92 11.03 11.42 25.76 8.17 39.05-2.03 9.76-7.16 18.79-14.44 25.58-8.03 7.66-18.61 12.28-29.64 13.28-19.88 1.83-39.68-9.53-48.32-27.49-7.78-15.66-6.41-34.9 3.48-49.31 7.02-10.4 18.06-17.87 30.33-20.47Z" fill="#fff"/><path d="M576.41 464.4c5.74-1.68 12.29-1.2 17.67 1.49 9.98 4.7 16.69 17.39 12.92 28.14-2.09 8.4-8.81 15.23-17.18 17.45-6.55 1.67-13.68.8-19.44-2.84-8.89-5.49-13.54-16.73-10.71-26.86 2.08-8.31 8.57-14.91 16.74-17.38ZM408.46 478.49c12.74-1.61 25.04 8.55 25.32 21.49 1.08 12.38-9.26 24.22-21.78 24.29-12.48.61-23.88-9.65-23.87-22.26-.71-11.8 8.69-22.33 20.33-23.52Z" fill="#000"/></g><g transform="translate(-161 -83)"><path d="M582.3 370.69c14.06 7.04 27.75 17.35 36.57 30.53 2.05 2.95-1.4 6.24-4.23 4.15-10.56-6.54-22.24-11.16-34.46-13.42-35.66-6.86-74.47 5.14-98.23 33.03-1.67 2.05-4.03 3.59-6.28 1.25-1.68-2.6-2.27-6.05-3.3-8.95-1.92 4.71-3.86 9.5-6.21 14.02-1.55 3.23-6 1.12-7.03-1.42-3.06-6.88-6.21-13.74-9.02-20.73.01 5.63.01 11.25.04 16.88-.19 2.06.27 4.35-2.11 5.22-2.06.23-4.36-1.03-5.3-2.91-3.26-5.88-6.24-11.93-9.49-17.82.96 5.51 2.6 10.99 3.1 16.55.12 1.94-2.28 3.44-4.02 2.36-18.54-7.4-38.31-11.49-58.33-10.09-12.5.92-26.14 4.63-36 12.68-3.09 2.34-5.2 5.51-7.97 8.15-1.65.72-3.27-.24-4.88-.65.08-1.91.11-3.75.73-5.58 6.86-20.67 20.43-39.8 39.98-50.1 13.56-7.32 30.17-9.03 44.62-3.35 11.89 4.55 20.95 13.32 27.67 23.95 2.31-2.84 4.25-6.03 6.75-8.71 1.62-1.56 4.62-1.55 5.63.72 2.52 5.15 4.68 10.51 6.98 15.78 1.49-7.42 3.06-14.81 4.43-22.24.33-1.5.6-3.23 1.58-4.45 1.65-1.25 2.9-.28 4.65.1.27.86.53 1.71.8 2.56 2.08-4.75 4.75-9.11 8.44-12.78 9.1-9.43 21.82-14.25 34.5-16.48 23.85-3.69 48.86 1.12 70.39 11.75Z" fill="#000"/></g><g transform="translate(-161 -83)"><path d="M524.16 555.86c.61 6.97-.81 13.29-1.53 20.14-2.76 24.18-9.37 47.95-19.15 70.23-3.65 7.33-6.72 15.74-13.94 20.34-3.86 2.79-9.11 1.94-13.2.16-4.48-2.23-8.94-4.98-12.41-8.63a171.314 171.314 0 0 1-29.94-42.13c-6.76-12.54-11.65-25.76-17.12-38.87-.92-2.1-1.13-4.11 1.07-5.43 4.38-.1 8.65 1.41 13.06 1.45 9.89.33 19.99.52 29.81-.88 17.69-2.04 35.09-7.15 51.54-13.9 4.22-1.53 7.13-4.31 11.81-2.48Z" fill="#000"/><path d="M518.92 562c-2.1 16.35-4.16 32.05-8.89 47.96-9.07-.71-18.45 2.59-26.46 6.61-10.54 5.48-21.2 13.48-27.26 23.89-7.57-9.81-13.74-20.42-19.35-31.44-5.4-10.14-9.36-20.75-13.97-31.24 9.45.8 18.49 2.05 27.99 1.01 23.21-.73 46.69-7.69 67.94-16.79Z" fill="#8F2E45"/><path d="M508.19 616.1c-3.83 13.3-8.82 26.41-15.55 38.52-1.62 2.89-3.68 5.84-6.7 7.39-4.1 1.71-9.13-1.19-12.46-3.5-5.34-3.38-8.58-8.29-12.86-12.75 1.94-5.34 6.21-9.98 10.4-13.7 7.82-6.68 17.09-12.04 26.99-14.9 3.34-1.04 6.72-1.16 10.18-1.06Z" fill="#EA869E"/></g><g transform="translate(-161 -83)"/><g transform="translate(-161 -83)"><path d="M375.55 193.45c2.29.84 2.42 2.81 3.16 4.82 1.6 6.11 5.41 11.82 9.28 16.74 4.64 5.47 9.71 10.7 16.39 13.62 7.97 3.49 17.14 5.25 25.62 7.11 14.17 2.79 28.59 4.48 42.98 5.6 15.33 1.57 30.62 1.41 46 2.34 20.31.07 40.75.62 61.02-.72 8.04-.01 16-.21 24.01-.94 10.03-.85 20-.5 30.02.32 10.29.7 20.48 3.01 30.49 5.39 7.68 2.72 15.47 5.31 22.79 8.9 24.69 10.84 47.05 26.91 65.21 46.85 21.41 23.46 36.94 52.42 42.96 83.71 3.99 21.66 3.31 44.78-3.41 65.84-2 7.32-4.69 14.36-9.06 20.62-4.22-3.25-7.94-6.65-13.02-8.62-12.04-6.25-26.11-6.86-39.01-3.08-2.85.59-3.47 2.94-4.95 5.08-9.69 15.52-21.69 29.57-35.87 41.17-8.97 7.15-18.54 13.76-28.35 19.71-1.01-.26-2.02-.53-3.03-.8-.15-3.14.07-6.02.7-9.1 1.43-7.33 1.48-14.57 1.61-22.01-.1-10.39-.27-20.69-1.6-31.01-1.24-11.29-3.14-22.56-4.96-33.78-7.05-.75-14.02-.48-21.03-1.56-36.12-4.41-70.63-19.63-99.94-40.93 1.11 8.39 3.5 14.36 8.72 21.01 2.13 2.34 1.82 5.91-.96 7.56-12.26 6.9-27.16 9.97-41.06 11.15-22.88 1.67-46.11-1.49-67.78-8.98-17.86-6.35-34.96-15.6-47.2-30.43-.38 8.22 1.11 16.73 4.47 24.26 1.24 2.34.37 5.24-2.02 6.44-9.71 5.18-20.85 5.81-31.55 4.06-13.94-2.8-25.87-10.22-35.99-20.01-2.35 7.35-3.77 14.91-5.85 22.34-1.73 6.79-2.4 13.84-3.65 20.73-1.65 2.24-4.43-.42-5.61-1.95-7.25-9.61-9.55-22.14-10.1-33.9.23-11.48 2.52-22.8 8.05-32.94-5.5-13.18-7.7-27.55-4.8-41.64-8.7 4.47-17.92 9.96-23.46 18.28-1.42 1.86-2.08 4.91-4.76 5.12-1.73-.49-3.15-1.13-4.01-2.78-6.07-10.44-8.14-23.33-6.77-35.25 1.44-14.25 7.67-27.95 16.1-39.41 12.27-16.55 30.01-29.25 49.65-35.46 11.99-3.75 25.44-5.47 37.82-2.9-7.36-14.86-4.93-34.66 6.11-47.09 1.7-1.66 3.94-4.65 6.64-3.48Z" fill="#000"/><path d="M373.68 200.56c3.8 11 11.32 21.1 20.31 28.43 7.26 5.9 16.11 8.1 25 10.28 32.12 7.51 66.11 9.27 99.01 10.04 25.98.19 52.08.37 78.03-.96 24.52-2.2 49.01-.52 72.46 7.33 35.02 11.44 66.47 33.71 89.06 62.8 17.7 22.88 29.91 49.67 33.52 78.52 2.99 22.98.01 46.56-9.68 67.69-5.71-3.68-11.96-6.54-18.42-8.61-9.91-2.71-20.7-2.63-30.63-.03.14-1.76.99-3.88 0-5.47-.9-1.43-3.66-1.25-4.12.62-1.31 3.26-2.7 6.42-4.59 9.39-9.51 15.6-21.46 29.82-35.41 41.63-7.28 6.24-15.18 11.35-23 16.83 2.31-14.15 2.32-28.8 1.04-43.05-1.01-17.38-4.35-34.86-7.51-51.98-1.05-4.6-1.58-9.81-3.63-14.08-1.19-2.26-4.96-1.88-4.75 1.1 1.05 4.73 2.41 9.33 3 14.17-40.43-.57-80.05-15.54-112.88-38.73-2.76-2.04-5.49-4.1-8.4-5.93-1.97.81-4.26.74-4.4 3.43.19 10.59 3.42 20.4 10.09 28.69-19.34 9.79-40.49 11.18-61.78 9.93-22.09-1.76-44.54-7.72-63.85-18.76-8.82-5.15-17.78-11.9-23.55-20.43-1.26-1.76-2.3-3.37-4.56-3.9-1.5-.36-2.86.54-3.27 1.98-2.32 11.41-.49 22.74 3.7 33.47-12.75 6.06-26.97 4.78-39.58-.92-17.34-7.87-30.98-23.55-37.67-41.25-4.27-11.59-5.94-24.73-2.8-36.81.39-2.08 1.02-3.95-.81-5.55-2.33-2.16-5.15-.46-7.54.64-7.11 3.79-14.47 8.08-20.14 13.86-2.26 2.17-4.02 4.68-6.1 6.99-4.86-9.64-5.97-20.29-4.73-30.92 1.96-13.23 7.54-25.62 15.66-36.2 10.12-13.14 23.76-23.61 39.11-29.9 13.01-5.31 27.17-7.47 41.13-5.48 2.34.31 4.8 1.2 7.14.97 1.97-1.4 3.95-3.18 2.09-5.65-4.72-6.65-6.5-14.68-5.65-22.75.66-7.61 3.52-16.01 9.1-21.43Z" fill="rgba(14, 14, 14, 1)"/><path d="M306.22 384.93c3 4.76 5.9 9.49 9.52 13.82-1.41 6.83-3.79 13.39-5.19 20.23-1.19 5.76-2.88 11.38-4.1 17.14-2.71-5.69-4.36-11.7-5.08-17.95-.96-11.48-.09-22.7 4.85-33.24Z" fill="rgba(14, 14, 14, 1)"/><path d="M718.52 576.52c2-.97 4.89.54 6.99.86 4.98 1.42 11.33.38 15.77 3.11-.68 3.94-1.37 7.58-.07 11.49 1.55 4.78 4.46 9.26 8.09 12.73 2.31 2.22 5.24 3.43 7.64 5.46.63 1.83.16 3.65-1.91 4.06-4.17.53-8.72-.74-12.83-1.45-9.89-2.16-20.9-4.07-29.82-9.04-2.15-1.37-5.67-3.16-6.21-5.88-.5-1.7.62-2.87 1.53-4.16 4.24-5.24 7.06-11.67 10.82-17.18Z" fill="#000"/><path d="M721.29 582c4.54 1.01 9.14 1.53 13.73 2.24-.96 9.38 3.55 16.92 9.62 23.59-10.51-2.6-23.31-4.53-32.26-10.92 3.33-4.82 6.06-9.82 8.91-14.91Z" fill="rgba(14, 14, 14, 1)"/></g></g></svg>