<svg xmlns:dc="http://purl.org/dc/elements/1.1/" xmlns:cc="http://creativecommons.org/ns#" xmlns:rdf="http://www.w3.org/1999/02/22-rdf-syntax-ns#" xmlns:svg="http://www.w3.org/2000/svg" xmlns="http://www.w3.org/2000/svg" viewBox="0 0 762 762" fill="none"><metadata><rdf:RDF><cc:Work><dc:format>image/svg+xml</dc:format><dc:type rdf:resource="http://purl.org/dc/dcmitype/StillImage"/><dc:title>Adventurer</dc:title><dc:creator><cc:Agent><dc:title>Lisa Wischofsky</dc:title></cc:Agent></dc:creator><dc:source>https://www.instagram.com/lischis_adventures/</dc:source><cc:license rdf:resource="https://creativecommons.org/licenses/by/4.0/"/></cc:Work><cc:License rdf:about="https://creativecommons.org/licenses/by/4.0/"><cc:permits rdf:resource="https://creativecommons.org/ns#Reproduction"/><cc:permits rdf:resource="https://creativecommons.org/ns#Distribution"/><cc:permits rdf:resource="https://creativecommons.org/ns#DerivativeWorks"/><cc:requires rdf:resource="https://creativecommons.org/ns#Notice"/><cc:requires rdf:resource="https://creativecommons.org/ns#Attribution"/></cc:License></rdf:RDF></metadata><mask id="avatarsRadiusMask"><rect width="762" height="762" rx="0" ry="0" x="0" y="0" fill="#fff"/></mask><g mask="url(#avatarsRadiusMask)"><path d="M396.01 164.85c37.82 4.9 74.21 19.64 104.8 42.39 6.15 4.84 12.48 9.33 18.02 14.92 23.77 21.98 42.73 49.02 55.13 78.95 9.35 22.31 14.72 46.04 16.64 70.14 6.62.81 13.05 2.14 19.12 5 15.54 6.93 27.08 20.94 31.78 37.21 2.63 9.56 3.56 19.75 1.72 29.55-2.96 18.76-13.72 36.13-29.37 46.92-10.94 7.65-24.49 12.03-37.86 11.68-5.13-.05-10.04-1.6-15.13-1.79-1.85 2.17-3.23 4.84-4.76 7.25-18.66 29.62-44.57 54.51-74.64 72.4-28.1 16.73-59.9 27.16-92.46 30.32-11.08.7-21.87 2.05-32.98.74-51.69-2.3-102.07-23.44-140.15-58.43-29.03-26.55-50.84-60.83-62.54-98.39-7.09-22.85-10.62-46.78-10.07-70.71.52-40.34 12.53-80.58 33.94-114.76 19.1-30.81 45.91-56.58 77.2-74.83 29.63-17.28 63.35-27.68 97.59-29.87 14.66-1.47 29.44-.37 44.02 1.31Z" fill="#000"/><path d="M363 169.06c48.47-1.39 97.32 14.7 135.81 44.12 6.55 4.06 11.72 9.49 17.36 14.64 24.33 22.63 43.2 50.95 54.93 82.02 7.43 19.61 11.86 40.2 13.56 61.09-8.89.74-17.34 2.34-25.38 6.38-2.19 1.03-1.89 4.95.68 5.23 2.35.23 4.98-1.51 7.24-2.2 14.62-5.37 31.32-4.35 44.78 3.68 11.69 6.78 20.09 18.16 23.89 31.06 2.6 8.25 2.68 17.41 1.76 25.95-2.5 17.35-12.35 33.73-26.73 43.81-15.71 11.33-37.17 14.64-54.93 6.2-3.17-1.43-5.94-3.58-9.08-5.05-2.95-1.09-4.88 2.79-2.7 4.75 3.17 2.76 7.34 4.52 11 6.56-20.14 34.15-49.45 62.7-84.41 81.47-30.2 16.31-64.44 25.53-98.78 26.15-27.63.72-55.33-4.04-81.21-13.72-30.32-11.24-57.84-29.43-80.37-52.6-22.67-23.37-39.92-51.88-50.2-82.77-14.96-44.64-14.91-94.01.27-138.59 11.05-33.06 30.28-63.21 55.37-87.39 29.67-28.73 67.65-48.54 108.13-56.67 12.8-2.52 25.94-4.24 39.01-4.12Z" fill="rgba(118, 57, 0, 1)"/><path d="M605.03 404.4c2.63-.1 3.44 3.8 1.36 4.98-3.69 1.83-7.82 2.77-11.64 4.35-5.82 2.04-11.28 4.76-16.68 7.72 4.29 2.34 8.86 4.74 12.71 7.76 2.58 2.09 4.85 4.35 5.33 7.8-.26 3.59-2.73 6.55-5.45 8.69-5.86 4.66-13.92 7.18-20.79 10.26-1.75.62-4.43 1.99-5.59-.26-1.02-1.74-.06-3.11 1.57-3.87 6.65-3.3 14.86-5.62 20.79-10.16 1.37-1.14 3.39-2.74 3.61-4.62-4.07-5.63-12.42-8.59-18.23-12.09-2.34-1.72-2.29-4.24-.16-6.13 7.27-5.64 16.98-9.26 25.57-12.38 2.42-.83 5.03-1.95 7.6-2.05Z" fill="#000"/><g transform="translate(-161 -83)"><path d="M558.201 453.21c11.47-1.62 23.68.14 34 5.5 7.61 3.93 14.3 10.28 18.11 18 3.35 6.67 3.82 14.64 2.11 21.82-2.1 8.03-7.22 15.16-13.75 20.2-14.96 11.75-36.54 14.35-54.21 7.75-8.42-3.17-16.53-8.89-21.39-16.55-2.81-4.73-5.22-10.36-5.36-15.93-.71-9.54 3.61-19.3 10.27-26.02 8.05-8.38 18.87-12.97 30.22-14.77Z" fill="#000"/><path d="M559.17 459.11c13.97-2.02 29.72 1.64 39.88 11.85 6.6 6.52 10.35 16.95 7.62 26.05-2.06 8.19-7.68 14.49-14.53 19.15-12.44 8.19-28.98 10.02-43.11 5.63-8.63-2.71-17.05-8.19-21.69-16.11-3.02-5-4.14-10.9-3.59-16.69.76-6.83 4.53-13.12 9.38-17.85 7.05-6.72 16.44-10.78 26.04-12.03Z" fill="#fff"/><path d="M369.481 468.71c17.62-2.69 37.91 3.42 47.71 19.13 5.49 8.51 6.28 20 1.93 29.15-2.91 6.32-7.91 11.64-13.7 15.43-7.34 4.75-15.75 7.1-24.42 7.79-14.63.57-29.81-4.29-39.4-15.79-5.22-6.27-8.18-14.2-7.54-22.41.56-8.27 4.61-15.74 10.51-21.44 6.92-6.46 15.65-10.23 24.91-11.86Z" fill="#000"/><path d="M376.55 474.11c9.64-.35 19.56 2.27 27.37 8.02 5.14 3.82 9.44 9.18 11.19 15.41 1.61 6.2 1.04 12.92-2.15 18.54-4.72 8.62-13.66 14.22-22.97 16.71-13.7 3.71-30.16.71-40.8-8.99-6.28-5.66-10.01-13.74-9.23-22.26.73-5.44 3.14-10.68 6.85-14.72 7.34-8.21 18.86-12.64 29.74-12.71Z" fill="#fff"/><path d="M551.461 477.61c3.69-.8 7.51-.7 10.96.96 6.42 3.03 10.48 10.43 8.89 17.48-1.3 7.25-7.89 12.9-15.3 12.85-8.42.47-15.96-6.52-16.34-14.89-.56-7.44 4.55-14.59 11.79-16.4Z" fill="#000"/><path d="M553.619 483.21c4-.67 7.83.59 10.21 3.96 3.04 4.06 2.26 9.86-1.38 13.27-4.4 3.95-11.88 3.34-15.16-1.77-4-5.83-.62-14.19 6.33-15.46Z" fill="#fff"/><path d="M618.701 484.19c1.69.32 3.64-.24 4.63 1.46 1.61 2.47 2.37 5.58 2.85 8.46 1.44 10.51-2.22 21.79-9.83 29.24-3.27 3.02-7.82 5.97-12.38 6.11-2.73.04-4.27-2.62-2.33-4.8 3.27-1.61 6.54-2.11 9.44-4.56 6.29-5.26 9.64-14.02 9.57-22.11-.01-4.02-1.58-7.21-2.66-10.96.23-.95.47-1.9.71-2.84ZM380.44 488.46c4.44-.82 9.2.5 12.68 3.35 5.75 4.58 7.69 13.08 4.69 19.76-2.56 5.93-8.24 10.22-14.82 10.23-8.45.57-15.94-6.42-16.44-14.79-.99-8.72 5.26-17.04 13.89-18.55Z" fill="#000"/><path d="M379.531 494.79c5.08-1.91 10.94.6 12.92 5.67 2.83 6.48-1.52 14.71-8.68 15.43-4.25.47-7.61-1.26-9.91-4.82-3.44-5.89-.79-13.89 5.67-16.28Z" fill="#fff"/><path d="M330.441 503.6c.44 4.06-1.41 7.43-1.67 11.39-.24 6.08 2.47 12.14 7.29 15.89 2.44 1.9 5.12 2.82 7.78 4.29 1.95.85 1.84 2.03 1.58 3.92-1.51 1.78-3.31 1.46-5.31.8-7.28-2.71-13.55-8.6-15.95-16.08-2.04-6.12-1.77-13.6 1.36-19.29 1.26-1.87 3.04-.88 4.92-.92Z" fill="#000"/></g><g transform="translate(-161 -83)"><g fill="#000"><path d="M530.96 352.34c21.47-3.31 42.8 3.14 60.6 15.09 12.06 8.19 22.9 19.68 28.97 33.03 1.1 2.96-.3 3.73-2.51 5.27-3.95-2.26-6.87-5.58-10.47-8.29-12.99-9.78-28.03-16.38-43.78-20.25-14.93-3.51-30.56-5.05-45.8-2.8-4.78.41-9.28 1.92-13.97 2.67-2.41.2-5.1-1.21-4.21-4.04 1.9-4.15 4.23-8.5 7.6-11.65 6.04-5.62 15.64-7.85 23.57-9.03ZM383 428.83c13.38-.82 26.33-.61 39.03 4.23 5.85 2.37 11.52 5.91 13.93 12.05 1.38 4.31.91 8.87-1.73 12.61-4.9-.76-9.4-2.6-14.18-3.82-23.13-6.33-47.19-8.01-71.04-5.96-4.88.33-9.86 2.03-14.72 1.78-1.78-.48-1.17-2.2-.97-3.54.88-2.51 3.58-3.86 5.76-5.09 13.75-7.25 28.55-10.65 43.92-12.26Z"/></g></g><g transform="translate(-161 -83)"><path d="M534.29 562.56c7.92 1.16 15.41 4.36 21.23 9.92 8.09 7.57 12.12 18.53 11.86 29.52.34 9.78-2.38 19.12-6.68 27.81-7.12 14.02-18.35 26.07-31.98 33.93-11.83 6.96-25.09 10.44-38.72 11.36-30.63 1.61-61.2-11.84-82.09-34.04-6.38-8.12-11.86-18.46-11.46-29.06-.09-7.88 4.02-15.65 10.45-20.16 6.92-4.97 14.77-6.31 23.1-6.79 14.2.15 27.79 4.32 40.17 11.12 8.52-12.59 20.01-22.9 34.03-28.96 9.42-4.2 19.83-5.97 30.09-4.65Z" fill="#000"/><path d="M533.47 568.33c9.24 1.28 17.97 6.24 22.9 14.3 5.96 9.59 6.65 21.04 3.81 31.79-4.05-.55-7.9-.69-11.97-.2-10.84.62-21.73 3.37-31.96 6.96 1.41-7.49 2.53-16.65-.57-23.85-1.7-3.84-5.41-6.2-9.58-4.33-6.58 3.12-10.3 11.89-13.02 18.22-4.75-1.63-11.32-3.78-16.06-1.23-3.89 2.19-3.78 6.53-2.42 10.26 2.56 6.21 7.71 11.08 12.64 15.44-12.05 7.91-22.81 17.29-31.17 29.09-14.95-4.74-28.67-13.02-40.01-23.82-6.73-6.44-11.99-15.15-13.61-24.38-1.13-6.35.66-13.23 5.31-17.81 4.47-4.59 11-6.66 17.2-7.5 11.79-1.52 24.47 1.81 35.25 6.5 3.75 1.52 7.09 3.83 10.78 5.43 2.67.3 3.71-3.41 5.1-5.15 9.06-13.35 22.95-24.15 38.65-28.36 5.96-1.82 12.57-1.87 18.73-1.36Z" fill="#8F2E45"/><path d="M508.97 597.86c2.64 2.37 2.74 6.8 2.88 10.12-.08 10.91-3.14 21.91-7.97 31.65-4.01-2.1-7.93-4.17-11.35-7.18-4.32-3.77-9.1-7.97-11.95-13.01-.89-1.45-.92-3-1.16-4.63 5.16-.73 9.19 1.01 13.81 2.87 2.79 1 3.86-1.41 4.96-3.44 2.44-5.54 5.13-13.33 10.78-16.38Z" fill="#D32020"/><path d="M558.62 619.94c-2.6 7.12-6.32 13.69-11.01 19.63-3.77 4.78-8.55 8.9-13.01 13.05-9.94 8.14-22.52 13.35-35.12 15.57-12.51 1.97-25.18 1.2-37.51-1.56 8.12-11.13 18.65-19.92 30.3-27.15 3.76 2.33 7.58 5.16 11.76 6.65 1.39.62 2.77-.42 3.56-1.51 3.17-4.9 4.87-10.02 6.78-15.42.38-1.43 1.62-1.55 2.8-2.1 12.98-4.74 27.57-8.13 41.45-7.16Z" fill="#EA869E"/></g><g transform="translate(-161 -83)"/><g transform="translate(-161 -83)"><path d="M532.999 229.54c18.88-.71 37.77.27 56.5 2.83 15.16 1.94 30.23 4.2 45.03 8.12 11.74 2.6 23 6.22 34.07 10.89 11.41 5.25 22.64 9.96 33.46 16.54 6.75 4.1 13.28 8.65 19.34 13.71 15.97 13.04 29.08 30.59 40.28 47.78 9.45 14.99 17.6 30.84 24.98 46.94 15.13 33.87 27.86 68.59 38.99 103.96 10.1 32.93 17.26 67.27 19.34 101.7.53 13.7-.8 27.65-4.15 40.95-4.62 16.2-11.04 31.86-19.36 46.51-3.17 5.57-7.2 10.76-11.43 15.57-1.7 1.67-3.02 3.63-5.73 2.62-1.96-.72-1.19-4.26-.98-5.86 1.45-7.35 2.14-14.47 2.48-21.94-1.81 6.38-4.65 12.31-7.79 18.12-5.93 11.22-13.66 21.44-22.49 30.53-20.39 21.03-45.34 37.74-70.44 52.61-14.04 8.38-28.83 15.19-43.31 22.71-1.74.82-3.71 1.03-4.9-.77-1.18-1.44-.4-2.61.13-4.11 6.67-15.17 11.73-31.39 13.79-47.87-6.86 20.52-18.33 39.84-32.94 55.79-1.7 1.97-4.65 3.03-6.1.19.06-3.21 1.82-6.45 2.75-9.51 9.89-30.31 16-61.76 18.54-93.54 1.18-9.62 1.41-19.33 2.31-28.99 1.76-31.27 3.61-62.68 3.36-94.02-.04-10.02.14-20-.59-30.01-.8-29.21-4.06-58.41-9.01-87.2-29.68-5.4-58.9-13.52-87.32-23.62-30.72-10.94-60.55-24.07-89.06-39.92-19.34-10.87-38.65-23.08-55.61-37.41-7.59-6.4-14.91-13.33-21.32-20.91-19.39 14.41-37.15 30.78-52.49 49.46-1.56 1.97-1.47 5.18-1.97 7.58-2.22 13.41-4.59 26.79-6.6 40.23-6.28 40.25-9.8 81.05-9.54 121.8.2 4.21-.4 8.58 1.37 12.39 9.42 22.69 22.62 43.74 39.01 62.04 24.33 27.06 55.44 48.14 89.84 60.12 2.21.67 3.57 1.77 5.12 3.45-3.28 4.61-8.77 7.71-13.11 11.41-21.46 16.81-40.42 36.28-58.11 56.96-1.9 2.04-3.1 5.16-5.31 6.78-8.93.23-18.1-2.03-27.04-2.63-10.43-.59-20.8-2.13-31.19-3.08 2.4 8.01 6.29 15.58 9.52 23.28 1.65 2.57-2.52 6.32-5 4.96-8.78-4.43-16.52-10.62-22.95-18.07-12.23-13.95-22.94-30.13-29.42-47.58-5.68-15.2-9.81-30.85-11.58-47-.65-7.35-1.67-14.63-1.78-22.03-.31-14.64-.41-29.42 1.04-44 1.34-22.43 4.53-44.78 8.87-66.82 3.78-20.67 8.69-41.07 14.09-61.37.7-3.07 2.5-6.76 1.43-9.82-1.95-7.26-3.66-14.52-4.48-22.01-.95-11.53-.17-23.14 2.15-34.47 2.31-10.3 6.35-20.37 11-29.83 9.57-18.9 21.15-36.22 33.65-53.29 7.25-9.62 14.91-19.1 23.37-27.68 9.15-9 19.63-16.72 30.41-23.66 11.19-7.53 25.97-9.32 38.88-12.05 5.5-1.05 10.66-3.07 16.03-4.55 3.93-.83 7.16-3.74 10.84-5.61 11.55-6.62 24.08-11.15 37.14-13.69 14.46-2.61 29.32-3.45 43.99-3.61Z" fill="#000"/><path d="M557.001 235.19c20.49 1.08 40.81 3.68 60.98 7.39 11.35 2.36 22.61 5.35 33.71 8.7 12.96 4.55 25.52 10.06 37.79 16.24 15.37 7.89 29.41 18.14 41.23 30.77 24.61 26.6 42.05 59.75 56.12 92.91 12.69 29.61 23.61 59.99 33.27 90.72 7.71 24.86 13.43 50.27 16.87 76.08 2.82 21.32 3.77 44.94-2.33 65.77-4.75 15.36-10.75 30.23-18.63 44.25-1.76 3.06-3.82 5.91-5.96 8.7 1.23-11.18 1.57-22.48 1.45-33.72-.81-8.66.66-17.28.8-26 .93-8.67.9-17.34.74-26.03.09-2.77-3.5-4.92-4.84-1.78-.89 4.73-.07 9.95-.52 14.8-1.04 14.06-1.19 29.06-4.25 42.82-4.48 22.45-17.46 43.08-33.44 59.18-20.51 20.62-45.95 37.43-71.02 52-11.18 6.49-22.75 12.08-34.32 17.81 9.63-23.24 13.71-47.8 14.8-72.83.09-1.68-.56-3.05-1.09-4.6-1.17.13-2.34.27-3.51.43-.84.92-1.16 2.01-1.4 3.2-3.28 16.31-9.14 32.19-16.44 47.12-4.37 9.09-9.77 17.41-15.73 25.52 1.85-6.85 4.09-13.58 5.84-20.46 9.42-34.05 12.29-71.02 14.36-106.18.81-7.26.76-14.69 1.18-21.99.96-13.32 1.17-26.65 1.57-39.99.1-25.44.49-51.18-1.34-76.55-.85-13.15-2.42-26.24-3.86-39.33-1.21-8.47-2.57-16.92-3.85-25.39 9.85 1.79 19.83 2.92 29.8 3.72 3.47.31 7.4 1.1 10.83.38 2.61-1.65 1.99-4.76-.97-5.4-32.84-1.8-66.05-8.75-97.61-17.9-33.67-9.84-66.49-22.51-98-37.93-19.57-9.67-38.94-20.5-56.88-32.95-18.37-12.8-37.62-28.17-50.01-47.06-1.38-2.23-2.96-1.6-5.16-1.26-.74 4.8 2.58 7.24 4.94 10.93-4.34 3.62-8.91 6.96-13.24 10.59-24.28 20.01-45.36 43.44-61.45 70.55-.72 1.39-1.69 2.99-1.72 4.58-.43 2.33 3.43 3.54 4.44 1.45 4.55-8.5 10.07-16.01 15.71-23.81-11.31 56.47-17.57 113.72-16.1 171.36.26 39.62 4.71 79.33 12.02 118.24.64 2.49 2.61 2.02 4.65 2.36.64-1.88 1-3.45.56-5.45-3.85-21.87-7.28-44-9.02-66.15-1.44-11.78-1.53-23.81-2.3-35.61 10.06 21.82 24.1 41.9 40.64 59.3 23.54 24.76 52.8 43.63 84.78 55.53-10.65 8.24-21.02 16.8-30.88 25.98-9.29 8.76-17.93 18.11-26.32 27.72-4.2 4.72-8.32 9.48-12.05 14.59-3.8-.25-7.58-.62-11.34-1.23-11.8-1.63-23.68-2.14-35.5-3.61-3.92-.07-9.32-1.83-12.83.35-2.92 2.06-1.8 5.97-.85 8.8 2.09 5.47 4.63 10.79 6.95 16.17-11.32-6.92-19.18-16.67-26.96-27.19-8.22-11.26-14.92-23.57-19.4-36.79-4.17-11.76-7.35-23.85-9.15-36.2-1.89-14.54-2.95-29.14-2.61-43.81-.35-9.72.94-19.29 1.27-28.99 1.5-19.79 4.08-39.55 7.83-59.04 4.33-23.17 9.41-46.22 15.34-69.03.58-2.77 2.18-5.97 1.2-8.74-2.82-10.27-5.1-20.48-4.99-31.2.3-10.19 1.28-20.19 4.28-29.97 5.2-17.13 14.4-32.97 23.87-48.06 11.05-17.04 23.14-34.14 36.93-49.08 9.53-10.43 21.29-19.2 33.14-26.84 12.87-8.52 29.99-9.43 44.57-13.6-3.4 3.32-6.89 6.52-10.43 9.69-.94 1.04-2.78 2.36-2.59 3.88-.41 2.3 2.72 3.08 4.18 1.78 4.98-4.35 9.84-8.87 14.63-13.43 6.95-6.58 16.13-11.26 24.74-15.31 12.99-5.99 26.72-8.98 40.9-10.39 17.37-1.27 34.55-2.19 51.98-1.48Z" fill="rgba(229, 215, 163, 1)"/></g></g></svg>