<svg xmlns:dc="http://purl.org/dc/elements/1.1/" xmlns:cc="http://creativecommons.org/ns#" xmlns:rdf="http://www.w3.org/1999/02/22-rdf-syntax-ns#" xmlns:svg="http://www.w3.org/2000/svg" xmlns="http://www.w3.org/2000/svg" viewBox="0 0 762 762" fill="none"><metadata><rdf:RDF><cc:Work><dc:format>image/svg+xml</dc:format><dc:type rdf:resource="http://purl.org/dc/dcmitype/StillImage"/><dc:title>Adventurer</dc:title><dc:creator><cc:Agent><dc:title>Lisa Wischofsky</dc:title></cc:Agent></dc:creator><dc:source>https://www.instagram.com/lischis_adventures/</dc:source><cc:license rdf:resource="https://creativecommons.org/licenses/by/4.0/"/></cc:Work><cc:License rdf:about="https://creativecommons.org/licenses/by/4.0/"><cc:permits rdf:resource="https://creativecommons.org/ns#Reproduction"/><cc:permits rdf:resource="https://creativecommons.org/ns#Distribution"/><cc:permits rdf:resource="https://creativecommons.org/ns#DerivativeWorks"/><cc:requires rdf:resource="https://creativecommons.org/ns#Notice"/><cc:requires rdf:resource="https://creativecommons.org/ns#Attribution"/></cc:License></rdf:RDF></metadata><mask id="avatarsRadiusMask"><rect width="762" height="762" rx="0" ry="0" x="0" y="0" fill="#fff"/></mask><g mask="url(#avatarsRadiusMask)"><path d="M396.01 164.85c37.82 4.9 74.21 19.64 104.8 42.39 6.15 4.84 12.48 9.33 18.02 14.92 23.77 21.98 42.73 49.02 55.13 78.95 9.35 22.31 14.72 46.04 16.64 70.14 6.62.81 13.05 2.14 19.12 5 15.54 6.93 27.08 20.94 31.78 37.21 2.63 9.56 3.56 19.75 1.72 29.55-2.96 18.76-13.72 36.13-29.37 46.92-10.94 7.65-24.49 12.03-37.86 11.68-5.13-.05-10.04-1.6-15.13-1.79-1.85 2.17-3.23 4.84-4.76 7.25-18.66 29.62-44.57 54.51-74.64 72.4-28.1 16.73-59.9 27.16-92.46 30.32-11.08.7-21.87 2.05-32.98.74-51.69-2.3-102.07-23.44-140.15-58.43-29.03-26.55-50.84-60.83-62.54-98.39-7.09-22.85-10.62-46.78-10.07-70.71.52-40.34 12.53-80.58 33.94-114.76 19.1-30.81 45.91-56.58 77.2-74.83 29.63-17.28 63.35-27.68 97.59-29.87 14.66-1.47 29.44-.37 44.02 1.31Z" fill="#000"/><path d="M363 169.06c48.47-1.39 97.32 14.7 135.81 44.12 6.55 4.06 11.72 9.49 17.36 14.64 24.33 22.63 43.2 50.95 54.93 82.02 7.43 19.61 11.86 40.2 13.56 61.09-8.89.74-17.34 2.34-25.38 6.38-2.19 1.03-1.89 4.95.68 5.23 2.35.23 4.98-1.51 7.24-2.2 14.62-5.37 31.32-4.35 44.78 3.68 11.69 6.78 20.09 18.16 23.89 31.06 2.6 8.25 2.68 17.41 1.76 25.95-2.5 17.35-12.35 33.73-26.73 43.81-15.71 11.33-37.17 14.64-54.93 6.2-3.17-1.43-5.94-3.58-9.08-5.05-2.95-1.09-4.88 2.79-2.7 4.75 3.17 2.76 7.34 4.52 11 6.56-20.14 34.15-49.45 62.7-84.41 81.47-30.2 16.31-64.44 25.53-98.78 26.15-27.63.72-55.33-4.04-81.21-13.72-30.32-11.24-57.84-29.43-80.37-52.6-22.67-23.37-39.92-51.88-50.2-82.77-14.96-44.64-14.91-94.01.27-138.59 11.05-33.06 30.28-63.21 55.37-87.39 29.67-28.73 67.65-48.54 108.13-56.67 12.8-2.52 25.94-4.24 39.01-4.12Z" fill="rgba(158, 86, 34, 1)"/><path d="M605.03 404.4c2.63-.1 3.44 3.8 1.36 4.98-3.69 1.83-7.82 2.77-11.64 4.35-5.82 2.04-11.28 4.76-16.68 7.72 4.29 2.34 8.86 4.74 12.71 7.76 2.58 2.09 4.85 4.35 5.33 7.8-.26 3.59-2.73 6.55-5.45 8.69-5.86 4.66-13.92 7.18-20.79 10.26-1.75.62-4.43 1.99-5.59-.26-1.02-1.74-.06-3.11 1.57-3.87 6.65-3.3 14.86-5.62 20.79-10.16 1.37-1.14 3.39-2.74 3.61-4.62-4.07-5.63-12.42-8.59-18.23-12.09-2.34-1.72-2.29-4.24-.16-6.13 7.27-5.64 16.98-9.26 25.57-12.38 2.42-.83 5.03-1.95 7.6-2.05Z" fill="#000"/><g transform="translate(-161 -83)"><g fill="#000"><path d="M619.37 468.64c3.87 2.59 8.11 5.27 11.16 8.82.29 1.66.07 3.43.04 5.12-1.93.6-3.41 1.04-5.39.26-29.11-10.45-62.11-9.7-91.33-.07-12.55 4.26-25.01 10.37-35.3 18.8-1.32 1.05-3.89 2.91-5.29 1.13-1.71-1.56-.64-3.53.19-5.23 7.13-12.76 17.99-23.13 30.66-30.34 29.02-16.58 66.88-16.42 95.26 1.51ZM405.49 480.39c11.64 2.56 23.55 8.63 31.21 17.94 2.79 3.9 6.46 8.06 5.87 13.18-1.58-.03-3.27.69-4.53-.5-4.31-3.48-8.75-6.1-13.92-8.1-15.2-5.93-32.51-7.16-48.6-5.04-12.43 1.78-26.06 5.7-35.99 13.69-1.91 1.29-3.18 2.8-5.68 1.81-1.2-1.87-1.02-4.43.33-6.17 16.01-21.77 45.05-31.82 71.31-26.81Z"/></g></g><g transform="translate(-161 -83)"><path d="M582.3 370.69c14.06 7.04 27.75 17.35 36.57 30.53 2.05 2.95-1.4 6.24-4.23 4.15-10.56-6.54-22.24-11.16-34.46-13.42-35.66-6.86-74.47 5.14-98.23 33.03-1.67 2.05-4.03 3.59-6.28 1.25-1.68-2.6-2.27-6.05-3.3-8.95-1.92 4.71-3.86 9.5-6.21 14.02-1.55 3.23-6 1.12-7.03-1.42-3.06-6.88-6.21-13.74-9.02-20.73.01 5.63.01 11.25.04 16.88-.19 2.06.27 4.35-2.11 5.22-2.06.23-4.36-1.03-5.3-2.91-3.26-5.88-6.24-11.93-9.49-17.82.96 5.51 2.6 10.99 3.1 16.55.12 1.94-2.28 3.44-4.02 2.36-18.54-7.4-38.31-11.49-58.33-10.09-12.5.92-26.14 4.63-36 12.68-3.09 2.34-5.2 5.51-7.97 8.15-1.65.72-3.27-.24-4.88-.65.08-1.91.11-3.75.73-5.58 6.86-20.67 20.43-39.8 39.98-50.1 13.56-7.32 30.17-9.03 44.62-3.35 11.89 4.55 20.95 13.32 27.67 23.95 2.31-2.84 4.25-6.03 6.75-8.71 1.62-1.56 4.62-1.55 5.63.72 2.52 5.15 4.68 10.51 6.98 15.78 1.49-7.42 3.06-14.81 4.43-22.24.33-1.5.6-3.23 1.58-4.45 1.65-1.25 2.9-.28 4.65.1.27.86.53 1.71.8 2.56 2.08-4.75 4.75-9.11 8.44-12.78 9.1-9.43 21.82-14.25 34.5-16.48 23.85-3.69 48.86 1.12 70.39 11.75Z" fill="#000"/></g><g transform="translate(-161 -83)"><path d="M524.2 555.79c.49 6.88-.8 13.42-1.56 20.21-2.78 24.19-9.38 47.95-19.15 70.23-3.65 7.33-6.74 15.74-13.95 20.34-4.25 3.06-10.3 1.77-14.6-.52-9.49-4.69-15.15-12.28-21.77-20.2-10.97-13.41-18.85-28.33-26.05-44.01-3.56-8.19-6.83-16.5-10.25-24.74-.87-2.13-1.17-4.09 1.07-5.43 4.72-.01 9.31 1.49 14.06 1.51 9.29.24 18.74.4 27.98-.82 19.98-2.29 39.64-8.3 57.99-16.44 2.13-1.07 4.03-.6 6.23-.13Z" fill="#000"/><path d="M518.93 561.99c-1.93 15.16-3.98 30.2-8.01 44.98-4.69 16.77-10.27 33.84-19.05 48.96-2.17 3.44-5.29 7.34-9.89 6.51-7.43-1.55-14.07-7.99-18.68-13.73-9.88-10.97-17.89-23.26-24.61-36.38-6.13-11.12-10.64-22.89-15.69-34.52 4.8.44 9.6.8 14.4 1.2 1.13 5.94 4.59 11.51 8.45 16.07 5.08 5.94 12.23 9.8 20.13 9.97 6.25-.49 12.08-3.13 16.68-7.36 8.02-7.35 11.96-17.07 14.48-27.43 7.39-2.48 14.64-5.15 21.79-8.27Z" fill="#8F2E45"/><path d="M490.65 572.12c-2.55 8.79-7.09 18.39-14.95 23.59-5.47 3.77-12.71 4.39-18.57 1.12-7.01-3.86-10.91-10.5-13.93-17.65 16.1-.33 32.01-2.32 47.45-7.06Z" fill="#fff"/></g><g transform="translate(-161 -83)"/><g transform="translate(-161 -83)"><path d="M464 199.27c14.7-.99 29.35 2.88 42.56 9.13 14.36 7.28 27.03 17.44 33.33 32.68.94 2.58 1.22 4.93-.73 7.13-1.47.73-3.41.54-5.01.95-3.03 1.03-5.23 3.48-6.47 6.38-2.8 6.28-3.87 13.41-6.1 19.95-2.14 6.98-5.23 13.48-10.18 18.92-12.94 14.24-30.77 24.21-49.42 28.7-14.62 3.6-30.61 3.63-45.02-.92-7.65-2.4-14.09-7.44-18.33-14.22-.78-1.27-.18-3.49 1.55-3.6 4.5-.41 8.77-.47 12.97-2.4 5.81-2.29 9.14-7.75 10.13-13.73 1.02-8.48-.62-15.93-1.51-24.24-1.45-10.46-2.53-21.83-.32-32.23 1.59-7.46 5.07-14.39 10.63-19.67 8.27-8.15 20.5-12.26 31.92-12.83Z" fill="#000"/><path d="M461.97 205.22c13.29-1.46 27.37 1.94 39.52 7.28 14.34 6.57 27.04 15.96 33.62 30.74-5.78 1.27-10.17 4.81-12.51 10.25-4.32 9.88-5.39 21.11-11.12 30.97-3.95 6.61-10.19 12.16-16.28 16.76-17.15 12.78-39.26 20.06-60.69 18.49-9.77-1.17-19.92-2.65-27.16-9.99 3.78-.81 7.36-1.79 10.77-3.65 5.85-3.51 9.66-9.6 10.78-16.28 1.38-11.86-1.12-22.18-2.22-33.79-.78-5.23-.55-10.71-.51-16.05.54-8.52 3.34-17.14 9.57-23.22 6.91-7.09 16.6-10.38 26.23-11.51Z" fill="rgba(106, 78, 53, 1)"/></g></g></svg>