<svg xmlns:dc="http://purl.org/dc/elements/1.1/" xmlns:cc="http://creativecommons.org/ns#" xmlns:rdf="http://www.w3.org/1999/02/22-rdf-syntax-ns#" xmlns:svg="http://www.w3.org/2000/svg" xmlns="http://www.w3.org/2000/svg" viewBox="0 0 762 762" fill="none"><metadata><rdf:RDF><cc:Work><dc:format>image/svg+xml</dc:format><dc:type rdf:resource="http://purl.org/dc/dcmitype/StillImage"/><dc:title>Adventurer</dc:title><dc:creator><cc:Agent><dc:title>Lisa Wischofsky</dc:title></cc:Agent></dc:creator><dc:source>https://www.instagram.com/lischis_adventures/</dc:source><cc:license rdf:resource="https://creativecommons.org/licenses/by/4.0/"/></cc:Work><cc:License rdf:about="https://creativecommons.org/licenses/by/4.0/"><cc:permits rdf:resource="https://creativecommons.org/ns#Reproduction"/><cc:permits rdf:resource="https://creativecommons.org/ns#Distribution"/><cc:permits rdf:resource="https://creativecommons.org/ns#DerivativeWorks"/><cc:requires rdf:resource="https://creativecommons.org/ns#Notice"/><cc:requires rdf:resource="https://creativecommons.org/ns#Attribution"/></cc:License></rdf:RDF></metadata><mask id="avatarsRadiusMask"><rect width="762" height="762" rx="0" ry="0" x="0" y="0" fill="#fff"/></mask><g mask="url(#avatarsRadiusMask)"><path d="M396.01 164.85c37.82 4.9 74.21 19.64 104.8 42.39 6.15 4.84 12.48 9.33 18.02 14.92 23.77 21.98 42.73 49.02 55.13 78.95 9.35 22.31 14.72 46.04 16.64 70.14 6.62.81 13.05 2.14 19.12 5 15.54 6.93 27.08 20.94 31.78 37.21 2.63 9.56 3.56 19.75 1.72 29.55-2.96 18.76-13.72 36.13-29.37 46.92-10.94 7.65-24.49 12.03-37.86 11.68-5.13-.05-10.04-1.6-15.13-1.79-1.85 2.17-3.23 4.84-4.76 7.25-18.66 29.62-44.57 54.51-74.64 72.4-28.1 16.73-59.9 27.16-92.46 30.32-11.08.7-21.87 2.05-32.98.74-51.69-2.3-102.07-23.44-140.15-58.43-29.03-26.55-50.84-60.83-62.54-98.39-7.09-22.85-10.62-46.78-10.07-70.71.52-40.34 12.53-80.58 33.94-114.76 19.1-30.81 45.91-56.58 77.2-74.83 29.63-17.28 63.35-27.68 97.59-29.87 14.66-1.47 29.44-.37 44.02 1.31Z" fill="#000"/><path d="M363 169.06c48.47-1.39 97.32 14.7 135.81 44.12 6.55 4.06 11.72 9.49 17.36 14.64 24.33 22.63 43.2 50.95 54.93 82.02 7.43 19.61 11.86 40.2 13.56 61.09-8.89.74-17.34 2.34-25.38 6.38-2.19 1.03-1.89 4.95.68 5.23 2.35.23 4.98-1.51 7.24-2.2 14.62-5.37 31.32-4.35 44.78 3.68 11.69 6.78 20.09 18.16 23.89 31.06 2.6 8.25 2.68 17.41 1.76 25.95-2.5 17.35-12.35 33.73-26.73 43.81-15.71 11.33-37.17 14.64-54.93 6.2-3.17-1.43-5.94-3.58-9.08-5.05-2.95-1.09-4.88 2.79-2.7 4.75 3.17 2.76 7.34 4.52 11 6.56-20.14 34.15-49.45 62.7-84.41 81.47-30.2 16.31-64.44 25.53-98.78 26.15-27.63.72-55.33-4.04-81.21-13.72-30.32-11.24-57.84-29.43-80.37-52.6-22.67-23.37-39.92-51.88-50.2-82.77-14.96-44.64-14.91-94.01.27-138.59 11.05-33.06 30.28-63.21 55.37-87.39 29.67-28.73 67.65-48.54 108.13-56.67 12.8-2.52 25.94-4.24 39.01-4.12Z" fill="rgba(236, 173, 128, 1)"/><path d="M605.03 404.4c2.63-.1 3.44 3.8 1.36 4.98-3.69 1.83-7.82 2.77-11.64 4.35-5.82 2.04-11.28 4.76-16.68 7.72 4.29 2.34 8.86 4.74 12.71 7.76 2.58 2.09 4.85 4.35 5.33 7.8-.26 3.59-2.73 6.55-5.45 8.69-5.86 4.66-13.92 7.18-20.79 10.26-1.75.62-4.43 1.99-5.59-.26-1.02-1.74-.06-3.11 1.57-3.87 6.65-3.3 14.86-5.62 20.79-10.16 1.37-1.14 3.39-2.74 3.61-4.62-4.07-5.63-12.42-8.59-18.23-12.09-2.34-1.72-2.29-4.24-.16-6.13 7.27-5.64 16.98-9.26 25.57-12.38 2.42-.83 5.03-1.95 7.6-2.05Z" fill="#000"/><g transform="translate(-161 -83)"><path d="M587.369 431.61c12.06 6.36 21.92 16.48 27.94 28.71 5.58-3.45 11.26-6.72 16.83-10.19 1.56-.93 3.14-1.94 4.89-2.46 1.93.56 2.77 1.31 2.72 3.44-.47 1.3-1.75 2-2.83 2.76-6.46 3.95-13.07 7.67-19.41 11.81 6.07 14.16 5.97 31.18.81 45.61-5.25 14.83-16.12 27.57-29.9 35.15-13.07 7.36-28.89 9.8-43.59 7.01-17.87-3.24-34.06-14.37-43.5-29.88-6.26-10.02-9.68-21.74-9.64-33.57-.39-16.27 5.85-32.52 16.82-44.51 9.47-10.42 22.53-17.95 36.46-20.29 14.28-2.79 29.56-.38 42.4 6.41Z" fill="#000"/><path d="M549.2 430.27c14.66-1.79 29.31 1.59 41.46 10.02 11.31 7.71 19.81 19.52 23.46 32.72 3.93 13.37 2.78 28.27-3.06 40.93-6.21 13.86-18.05 25.26-32.25 30.69-9.99 4.03-21.2 5.35-31.81 3.41-16.4-2.64-31.48-12.62-40.35-26.67-5.6-8.78-8.75-18.97-9.37-29.35-.6-14.45 4.24-29.14 13.41-40.34 9.45-11.74 23.58-19.52 38.51-21.41Z" fill="#fff"/><path d="M414.691 454.33c11.57 6.69 20.45 17.75 24.54 30.46 2.68 8.02 3.17 16.86 2.07 25.21-2.04 13.95-9.65 26.85-20.85 35.42-11.38 8.76-26.19 12.83-40.44 10.89-15.79-1.82-30.36-11-39.03-24.29-5.54-8.33-8.47-18.05-9.1-28-.32-7.07 1.17-13.62 2.92-20.39-4.34-2.73-8.65-5.59-12.81-8.6-1.7-1.23-1.83-2.14-1.53-4.17 1.3-1.26 2.74-1.59 4.35-.65 4.19 2.57 8.15 5.53 12.25 8.24 6.69-14.02 19.04-24.86 33.97-29.29 14.45-4.44 30.64-2.5 43.66 5.17Z" fill="#000"/><path d="M378.2 453.3c18.68-3.52 38.38 4.71 49.14 20.33 7.5 10.77 10.85 24.96 7.88 37.84-1.96 10-7.13 19.25-14.57 26.2-8.04 7.66-18.62 12.27-29.65 13.27-20.13 1.85-40.14-9.82-48.62-28.14-7.66-15.97-5.84-35.51 4.6-49.81 7.37-10.31 18.75-17.43 31.22-19.69Z" fill="#fff"/><path d="M526.47 467.49c12.01-2.85 24.87 4.22 29.35 15.63 2.22 6.02 2.33 12.74-.08 18.72-3.17 8.32-10.91 14.59-19.71 15.93-7.62 1.33-15.75-1.14-21.43-6.37-7.55-6.85-10.31-18.03-6.76-27.6 2.92-8.29 10.06-14.42 18.63-16.31ZM398.22 478.36c9.49-1.98 19.61 2.59 24.44 10.99 3.46 5.6 3.67 12.27 2.25 18.54-2.37 7.24-8.51 13.23-15.87 15.27-7.51 2.4-16.26.06-21.98-5.24-7.35-6.81-9.49-18-5.05-27 3.07-6.51 9.18-11.12 16.21-12.56Z" fill="#000"/></g><g transform="translate(-161 -83)"><g fill="#000"><path d="M523.24 384.36c6.17-.42 13.09-.61 18.45 2.95 3.68 2.44 5.4 6.35 4.48 10.74-1.55 6.16-6.62 10.92-11.61 14.5-8.97 6.29-19.71 10.24-30.57 11.53-5.61.53-12.5.43-17.47-2.55-3.63-2.13-5.9-6.12-5.2-10.36 1.02-5.75 5.49-10.49 9.94-13.96 9.19-7.03 20.55-11.34 31.98-12.85ZM392.22 401.23c9.11-.36 18.31.51 26.31 5.24 3.85 2.26 7.34 5.89 7.89 10.49.34 4.21-1.96 7.8-5.19 10.27-4.52 3.55-9.87 5-15.43 5.99-9.95 1.02-20.55.32-29.48-4.58-3.87-2.29-7.88-5.85-8.47-10.57-.73-4.27 2.02-8.47 5.39-10.84 5.4-3.87 12.43-5.69 18.98-6Z"/></g></g><g transform="translate(-161 -83)"><path d="M480.96 561.69c4.71-.58 10.26.05 13.71 3.66 3.78 3.91 4.15 9.42 3.22 14.53-2.64 11.8-12.86 21.43-24.83 23.27-7.5 1.49-15.57-.3-22.15-4.05-5.15-2.91-8.86-7.64-11.08-13.06-1.31-3.29-1.62-7.23-.43-10.59 1.3-3.11 4.12-5 7.34-5.69 5.66-1.84 11.66.26 16.63 3.04 4.58-5.09 10.57-10.17 17.59-11.11Z" fill="#000"/><path d="M480.51 567.7c3.29-1.03 7.38-.57 10 1.78 2.06 2.03 2.11 5.89 1.71 8.56-1.84 9.78-10.28 17.74-20.07 19.32-6.52 1.31-13.19-.33-18.84-3.68-4.3-2.52-7.44-6.98-8.81-11.72-.7-2.45-.36-5.07 2.04-6.38 2.59-1.08 5.76-1.02 8.48-.49 3.48.7 5.8 2.91 8.97 4.32 1.93-.09 2.62-1.39 3.81-2.64 3.32-3.94 7.69-7.62 12.71-9.07Z" fill="#8F2E45"/></g><g transform="translate(-161 -83)"/><g transform="translate(-161 -83)"><path d="M464 199.27c14.7-.99 29.35 2.88 42.56 9.13 14.36 7.28 27.03 17.44 33.33 32.68.94 2.58 1.22 4.93-.73 7.13-1.47.73-3.41.54-5.01.95-3.03 1.03-5.23 3.48-6.47 6.38-2.8 6.28-3.87 13.41-6.1 19.95-2.14 6.98-5.23 13.48-10.18 18.92-12.94 14.24-30.77 24.21-49.42 28.7-14.62 3.6-30.61 3.63-45.02-.92-7.65-2.4-14.09-7.44-18.33-14.22-.78-1.27-.18-3.49 1.55-3.6 4.5-.41 8.77-.47 12.97-2.4 5.81-2.29 9.14-7.75 10.13-13.73 1.02-8.48-.62-15.93-1.51-24.24-1.45-10.46-2.53-21.83-.32-32.23 1.59-7.46 5.07-14.39 10.63-19.67 8.27-8.15 20.5-12.26 31.92-12.83Z" fill="#000"/><path d="M461.97 205.22c13.29-1.46 27.37 1.94 39.52 7.28 14.34 6.57 27.04 15.96 33.62 30.74-5.78 1.27-10.17 4.81-12.51 10.25-4.32 9.88-5.39 21.11-11.12 30.97-3.95 6.61-10.19 12.16-16.28 16.76-17.15 12.78-39.26 20.06-60.69 18.49-9.77-1.17-19.92-2.65-27.16-9.99 3.78-.81 7.36-1.79 10.77-3.65 5.85-3.51 9.66-9.6 10.78-16.28 1.38-11.86-1.12-22.18-2.22-33.79-.78-5.23-.55-10.71-.51-16.05.54-8.52 3.34-17.14 9.57-23.22 6.91-7.09 16.6-10.38 26.23-11.51Z" fill="rgba(86, 35, 6, 1)"/></g></g></svg>