<svg xmlns:dc="http://purl.org/dc/elements/1.1/" xmlns:cc="http://creativecommons.org/ns#" xmlns:rdf="http://www.w3.org/1999/02/22-rdf-syntax-ns#" xmlns:svg="http://www.w3.org/2000/svg" xmlns="http://www.w3.org/2000/svg" viewBox="0 0 762 762" fill="none"><metadata><rdf:RDF><cc:Work><dc:format>image/svg+xml</dc:format><dc:type rdf:resource="http://purl.org/dc/dcmitype/StillImage"/><dc:title>Adventurer</dc:title><dc:creator><cc:Agent><dc:title>Lisa Wischofsky</dc:title></cc:Agent></dc:creator><dc:source>https://www.instagram.com/lischis_adventures/</dc:source><cc:license rdf:resource="https://creativecommons.org/licenses/by/4.0/"/></cc:Work><cc:License rdf:about="https://creativecommons.org/licenses/by/4.0/"><cc:permits rdf:resource="https://creativecommons.org/ns#Reproduction"/><cc:permits rdf:resource="https://creativecommons.org/ns#Distribution"/><cc:permits rdf:resource="https://creativecommons.org/ns#DerivativeWorks"/><cc:requires rdf:resource="https://creativecommons.org/ns#Notice"/><cc:requires rdf:resource="https://creativecommons.org/ns#Attribution"/></cc:License></rdf:RDF></metadata><mask id="avatarsRadiusMask"><rect width="762" height="762" rx="0" ry="0" x="0" y="0" fill="#fff"/></mask><g mask="url(#avatarsRadiusMask)"><path d="M396.01 164.85c37.82 4.9 74.21 19.64 104.8 42.39 6.15 4.84 12.48 9.33 18.02 14.92 23.77 21.98 42.73 49.02 55.13 78.95 9.35 22.31 14.72 46.04 16.64 70.14 6.62.81 13.05 2.14 19.12 5 15.54 6.93 27.08 20.94 31.78 37.21 2.63 9.56 3.56 19.75 1.72 29.55-2.96 18.76-13.72 36.13-29.37 46.92-10.94 7.65-24.49 12.03-37.86 11.68-5.13-.05-10.04-1.6-15.13-1.79-1.85 2.17-3.23 4.84-4.76 7.25-18.66 29.62-44.57 54.51-74.64 72.4-28.1 16.73-59.9 27.16-92.46 30.32-11.08.7-21.87 2.05-32.98.74-51.69-2.3-102.07-23.44-140.15-58.43-29.03-26.55-50.84-60.83-62.54-98.39-7.09-22.85-10.62-46.78-10.07-70.71.52-40.34 12.53-80.58 33.94-114.76 19.1-30.81 45.91-56.58 77.2-74.83 29.63-17.28 63.35-27.68 97.59-29.87 14.66-1.47 29.44-.37 44.02 1.31Z" fill="#000"/><path d="M363 169.06c48.47-1.39 97.32 14.7 135.81 44.12 6.55 4.06 11.72 9.49 17.36 14.64 24.33 22.63 43.2 50.95 54.93 82.02 7.43 19.61 11.86 40.2 13.56 61.09-8.89.74-17.34 2.34-25.38 6.38-2.19 1.03-1.89 4.95.68 5.23 2.35.23 4.98-1.51 7.24-2.2 14.62-5.37 31.32-4.35 44.78 3.68 11.69 6.78 20.09 18.16 23.89 31.06 2.6 8.25 2.68 17.41 1.76 25.95-2.5 17.35-12.35 33.73-26.73 43.81-15.71 11.33-37.17 14.64-54.93 6.2-3.17-1.43-5.94-3.58-9.08-5.05-2.95-1.09-4.88 2.79-2.7 4.75 3.17 2.76 7.34 4.52 11 6.56-20.14 34.15-49.45 62.7-84.41 81.47-30.2 16.31-64.44 25.53-98.78 26.15-27.63.72-55.33-4.04-81.21-13.72-30.32-11.24-57.84-29.43-80.37-52.6-22.67-23.37-39.92-51.88-50.2-82.77-14.96-44.64-14.91-94.01.27-138.59 11.05-33.06 30.28-63.21 55.37-87.39 29.67-28.73 67.65-48.54 108.13-56.67 12.8-2.52 25.94-4.24 39.01-4.12Z" fill="rgba(242, 211, 177, 1)"/><path d="M605.03 404.4c2.63-.1 3.44 3.8 1.36 4.98-3.69 1.83-7.82 2.77-11.64 4.35-5.82 2.04-11.28 4.76-16.68 7.72 4.29 2.34 8.86 4.74 12.71 7.76 2.58 2.09 4.85 4.35 5.33 7.8-.26 3.59-2.73 6.55-5.45 8.69-5.86 4.66-13.92 7.18-20.79 10.26-1.75.62-4.43 1.99-5.59-.26-1.02-1.74-.06-3.11 1.57-3.87 6.65-3.3 14.86-5.62 20.79-10.16 1.37-1.14 3.39-2.74 3.61-4.62-4.07-5.63-12.42-8.59-18.23-12.09-2.34-1.72-2.29-4.24-.16-6.13 7.27-5.64 16.98-9.26 25.57-12.38 2.42-.83 5.03-1.95 7.6-2.05Z" fill="#000"/><g transform="translate(-161 -83)"><path d="M559.03 444.54c11.35-.74 22.51-.03 33.16 4.25 11.38 4.42 21.31 12.41 26.22 23.8 1.35 3.29 3.11 7.56 2.23 11.12-3.07 3.24-8.56 1.01-12.56 1.02-12.66-.59-25.44-.46-38.07.6-13.92 1.01-28.4 1.71-41.93 5.23-8.57 1.76-17 4.47-25.23 7.41-3.69 1.26-6.8 2.95-10.86 2.21 1.31-16.83 12.96-31.41 26.26-40.95 12.13-8.21 26.19-13.34 40.78-14.69Z" fill="#000"/><path d="M572.98 450.16c11.61 1.09 23.19 4.98 31.87 13 4.94 4.52 8.31 10.31 10.19 16.72-16.72-2.17-34.3-.87-51.09.1-7.64.88-15.37.98-22.94 2.25 1.15-9.27 2.15-18.43 1.05-27.77 10.01-3.52 20.28-5.48 30.92-4.3Z" fill="#fff"/><path d="M369.22 468.68c17.1-2.83 35.63-.23 50.88 8.19 8.69 4.83 16.86 12.07 20.61 21.48.73 2.06 1.58 4.59-.73 5.96-2.65.08-5.37-.59-7.99-1.01-9.41-1.81-19.4-2.11-28.99-2.57-10.7-.45-21.3.47-31.99.59-12.49.84-24.77 2.93-37.1 5-2.45.58-3.14-2.39-3.07-4.24.15-12.37 9.08-22.32 19.76-27.45 6-2.54 12.23-4.67 18.62-5.95Z" fill="#000"/><path d="M516.85 467.34c-.57 6.96-.53 13.45.13 20.4-6.16 1.8-12.2 3.88-18.22 6.1 3.2-10.63 9.88-19.24 18.09-26.5ZM374.58 473.35c9.89-.51 19.68.03 29.2 2.93 12.4 3.71 23.79 10.16 30.58 21.56-20.19-3.58-39.98-2.61-60.31-2.46.88-7.35.67-14.65.53-22.03ZM350.49 480.58c-.28 5.86-.25 11.64.01 17.5-4.71.28-9.41.74-14.04 1.68 1.62-7 5.15-12.07 10.65-16.56 1.12-.89 2.25-1.76 3.38-2.62Z" fill="#fff"/></g><g transform="translate(-161 -83)"><g fill="#000"><path d="M545.03 378.5c24.7.94 48.04 8.97 69.45 20.99 2.26 1.32 4.92 2.49 6.79 4.33 1.3 2.39-.38 5.13-3.2 4.19-16.58-6.21-33.56-9.63-51.06-12.02-20.3-2.34-39.92-3.68-60.2-.13-3.2.44-6.87 2.16-10.08 1.59-2.66-1.69-1.2-6.1 1.29-7.37 13.63-9.33 30.79-12.1 47.01-11.58ZM407.99 396.92c3.51.64 6.6 1.92 9.63 3.78-.15 1.2-.26 2.4-.33 3.62-2.7.74-5.46 1.12-8.24 1.34-13.17 1.15-26.45 5.11-38.81 9.69-12.23 4.75-24.78 10.64-35.19 18.71-2.82 2.03-4.13 4.82-8.08 4.47-.5-.9-1-1.79-1.51-2.67.89-1.59 1.68-3.17 2.76-4.64 9.55-13.17 23.64-23.22 38.61-29.35 12.7-5.15 27.61-8.05 41.16-4.95Z"/></g></g><g transform="translate(-161 -83)"><path d="M517 555.43c13.39-.24 28.69 3.46 38.6 12.98 5.97 5.58 9.72 13.37 9.9 21.58.32 10.21-3.84 19.58-9.89 27.58-9.04 11.85-21.87 20.72-35.47 26.57-7.32 2.84-14.41 5.71-22.15 7.24-16.76 3.21-34.33 1.42-50.03-5.31-13.98-6.01-27.24-14.24-38.31-24.71-5.42-5.3-10.58-11.69-13.28-18.84-2.03-5.48-2.34-11.97 1.22-16.91 3.7-5.37 9.99-7.74 16.18-8.84 12.6-1.77 24.45.42 36.57 3.76 7.36-6.86 15.88-12.06 25.02-16.21 12.99-5.74 27.38-9.28 41.64-8.89Z" fill="#000"/><path d="M542.47 566.35c-3.47 2.67-7.33 4.74-10.83 7.34-4.3 4.07-7.59 10.96-12.77 14.1-5.16.84-10.5-3.32-15.18-1.11-9.25 3.5-18.79 6.01-28.49 7.9-14.14 2.57-29.48 3.77-43.64.89-4.29-1.11-7.12 1.32-11.46 1.88-4.37-4.22-7.53-9.21-12.73-12.59 12.76-5.32 28.76-1.99 41.63 1.51 3.92 1.25 6.04-2.46 8.8-4.48 13.48-10.73 30.18-17.54 47.23-19.85 12.66-1.87 25.64-.74 37.44 4.41Z" fill="#fff"/><path d="M547.96 569.91c7.13 4.29 11.65 12.83 11.82 21.09-.18 7.44-2.97 13.99-6.8 20.24-6.37-2.56-13.17-3.29-19.99-2.88-14.36.89-28.54 4.42-41.91 9.67-9.04 3.64-18.05 8.23-25.74 14.27-3.77 2.98-6.45 6.16-8.76 10.38-7.74-2.15-14.6-5.75-21.53-9.73-9.94-5.85-19.02-12.62-26.5-21.47-3.77-4.64-7.55-10.34-7.78-16.49-.14-2.33.91-4.43 1.72-6.55 5.41 3.65 9.36 8.64 14.22 12.85 4 3.41 9.21-.65 13.75.08 5.81.96 11.66 1.41 17.53 1.74 20.42-.25 40.58-4.31 59.65-11.55 4.16.86 9.89 2.73 13.97 1.05 4.92-2.84 8.62-8.58 12.18-12.91 1.47-1.75 3.81-2.92 5.71-4.17 2.91-1.75 5.48-4.02 8.46-5.62Z" fill="#8F2E45"/><path d="M536 614.18c4.54-.11 8.95.63 13.3 1.9-9.23 11.12-22.42 19.3-35.85 24.38-16.26 6.04-34.23 8.32-51.21 3.94 1.95-2.75 4.09-5.3 6.76-7.39 8.9-7.26 20.21-12.2 30.99-15.97 11.5-3.83 23.86-6.67 36.01-6.86Z" fill="#EA869E"/></g><g transform="translate(-161 -83)"/><g transform="translate(-161 -83)"><path d="M468.52 215.13c6.94 1.1 13.87 1.06 20.73 2.49 12.08 2.4 24.05 5.8 35.97 8.88 32.65 8.77 65.48 16.6 98.79 22.42 21.51 3.8 44.07 6.84 64.59 14.52 11.41 3.93 22.29 9.07 32.62 15.29 4.79 3.71 8.67 8.98 12.11 13.92 14.22 21.21 23.89 44.41 31.31 68.76 6.9 21.11 11.88 42.73 15.9 64.55 2.23 7.65.7 16.32-.57 24.07-3.39 19.05-10.06 36.98-18.7 54.23-10.45 20.22-23.84 39.13-38.51 56.5-9.86 11.15-19.46 21.73-31.67 30.38-9.62 6.79-20.13 13.81-31.32 17.65-1.66.45-2.96 1.41-4.29-.25-1.31-1.13-.26-3.64.02-5.08 3.4-11.32 5.82-22.96 7.27-34.69 1.28-8.83 1.24-17.86 1.68-26.77-.2-9.99-.51-20.07-1.95-29.98-4.41-32.88-16.51-64.58-36.41-91.24-2.1 30.29.44 61.29 8.53 90.59.85 3.38 2.4 6.42 3.66 9.64.45 3.28-2.22 4.61-5.04 3.5-56.62-20.48-106.61-58.8-139.08-109.73-6.07 8.35-11.51 17.11-15.89 26.46-9.76 20.35-14.96 42.87-16.96 65.27-.73 10.16-.43 20.48.37 30.62-1.04 1.22-2.03 3.55-3.8 3.7-1.98.31-2.95-1.43-4.04-2.73-5.53-7.5-11.03-15.14-15.74-23.19-11.89-20.61-21.3-42.72-28.5-65.38-7.11-23.22-13.06-47.36-15.13-71.59-10 11.4-18.73 23.98-26.64 36.9-9.99 16.42-18.42 33.84-24.93 51.93-5.68 15.95-9.81 32.29-10.56 49.26-.12 3.22-3.72 3.08-5.41 1.04-10.24-10.5-18.63-22.91-24.94-36.13-12.99-26.95-17.69-57.25-15.12-86.95-3.79 2.85-7.75 5.47-11.56 8.3-10.49 8.15-19.75 17.77-27.41 28.63-1.43 1.75-2.16 3.66-4.84 3.3-2.71-1.1-1.08-4.12-.92-6.26 3.08-12.66 8.37-24.89 14.36-36.43 14.96-28.28 36.24-53.7 59.71-75.32 29.06-26.31 63.17-48.65 100.49-61.18 4.64-9.04 9.76-18.25 16.08-26.23 4.39-5.56 9.76-10.14 16.48-12.61 6.32-2.13 12.74-2.09 19.26-1.06Z" fill="#000"/><path d="M471.47 220.92c16.52 1.32 33.37 6.32 49.44 10.46 28.05 7.49 56.04 14.49 84.57 19.97 26.74 5.55 53.99 8 79.46 16.85 10.16 3.47 20.58 7.41 29.73 13.09 6.94 4.34 11.2 10.68 15.69 17.34 9.55 15.02 17.21 31.11 23.2 47.87 9.1 25.86 16.26 52.37 21.52 79.28 1.48 7.78.59 15.24-.75 22.96-2.2 12.07-5.68 23.9-10.31 35.27-9.05 22.97-22.57 43.91-37.76 63.27-7.8 10.11-16.44 19.49-25.59 28.4-6.88 6.71-14.47 12.19-22.44 17.54-5.16 3.3-10.53 6.61-16.19 8.98 8.37-31.01 10.61-63.49 5.54-95.25-5.31-34.58-19.2-68.87-41.86-95.74-1.48-1.87-3.87-1.34-4.9.66-2.91 35.82-.97 71.21 10.12 105.6-52.65-20.04-99.88-56.37-130.55-103.86-18.72-29.06-30.97-61.87-33.85-96.44-.21-2.61-2.48-3.65-4.76-2.52-1.33 1.68-.99 3.43-.9 5.42 3.15 31.62 13.79 61.92 29.99 89.19-5.08 7.27-10.08 14.44-14.22 22.3-11.35 21.13-17.93 44.66-20.39 68.46-1.28 10.33-.85 20.55-.44 30.92-9.75-12.84-17.66-26.82-24.4-41.44-14.04-29.91-23.48-62.03-29.02-94.56-2.28-13.88-3.46-27.88-3.82-41.93.21-17.2 2.42-34.32 6.46-51.02 4.9-19.78 13.27-38.9 23.49-56.49 4.91-8.13 10.91-17.87 19.47-22.51 6.98-4.15 15.79-3.03 23.47-2.07Z" fill="rgba(14, 14, 14, 1)"/><path d="M413 262.56c-13.41 28.25-19.79 59.25-20.17 90.44.01 5.72.61 11.41.71 17.13-19.23 21.47-34.89 46.31-47.04 72.4-7.48 16.46-13.79 33.91-17.35 51.67-.98 4.71-1.4 9.5-2.34 14.21-25.34-29.14-36.7-69.23-34.64-107.42-.01-4.76 1.44-8.73-.22-12.99-1.4-1.45-3.5-.88-5.08-.06-4.02 2.11-7.65 5.01-11.42 7.53-8.88 5.98-16.19 13.18-23.6 20.8 3.41-9.6 7.89-18.82 12.92-27.66 19.62-34.48 48.09-64.4 79.67-88.19 19.99-14.92 41.95-27.71 65.26-36.68 1.1-.4 2.2-.79 3.3-1.18Z" fill="rgba(14, 14, 14, 1)"/></g></g></svg>