<svg xmlns:dc="http://purl.org/dc/elements/1.1/" xmlns:cc="http://creativecommons.org/ns#" xmlns:rdf="http://www.w3.org/1999/02/22-rdf-syntax-ns#" xmlns:svg="http://www.w3.org/2000/svg" xmlns="http://www.w3.org/2000/svg" viewBox="0 0 762 762" fill="none"><metadata><rdf:RDF><cc:Work><dc:format>image/svg+xml</dc:format><dc:type rdf:resource="http://purl.org/dc/dcmitype/StillImage"/><dc:title>Adventurer</dc:title><dc:creator><cc:Agent><dc:title>Lisa Wischofsky</dc:title></cc:Agent></dc:creator><dc:source>https://www.instagram.com/lischis_adventures/</dc:source><cc:license rdf:resource="https://creativecommons.org/licenses/by/4.0/"/></cc:Work><cc:License rdf:about="https://creativecommons.org/licenses/by/4.0/"><cc:permits rdf:resource="https://creativecommons.org/ns#Reproduction"/><cc:permits rdf:resource="https://creativecommons.org/ns#Distribution"/><cc:permits rdf:resource="https://creativecommons.org/ns#DerivativeWorks"/><cc:requires rdf:resource="https://creativecommons.org/ns#Notice"/><cc:requires rdf:resource="https://creativecommons.org/ns#Attribution"/></cc:License></rdf:RDF></metadata><mask id="avatarsRadiusMask"><rect width="762" height="762" rx="0" ry="0" x="0" y="0" fill="#fff"/></mask><g mask="url(#avatarsRadiusMask)"><path d="M396.01 164.85c37.82 4.9 74.21 19.64 104.8 42.39 6.15 4.84 12.48 9.33 18.02 14.92 23.77 21.98 42.73 49.02 55.13 78.95 9.35 22.31 14.72 46.04 16.64 70.14 6.62.81 13.05 2.14 19.12 5 15.54 6.93 27.08 20.94 31.78 37.21 2.63 9.56 3.56 19.75 1.72 29.55-2.96 18.76-13.72 36.13-29.37 46.92-10.94 7.65-24.49 12.03-37.86 11.68-5.13-.05-10.04-1.6-15.13-1.79-1.85 2.17-3.23 4.84-4.76 7.25-18.66 29.62-44.57 54.51-74.64 72.4-28.1 16.73-59.9 27.16-92.46 30.32-11.08.7-21.87 2.05-32.98.74-51.69-2.3-102.07-23.44-140.15-58.43-29.03-26.55-50.84-60.83-62.54-98.39-7.09-22.85-10.62-46.78-10.07-70.71.52-40.34 12.53-80.58 33.94-114.76 19.1-30.81 45.91-56.58 77.2-74.83 29.63-17.28 63.35-27.68 97.59-29.87 14.66-1.47 29.44-.37 44.02 1.31Z" fill="#000"/><path d="M363 169.06c48.47-1.39 97.32 14.7 135.81 44.12 6.55 4.06 11.72 9.49 17.36 14.64 24.33 22.63 43.2 50.95 54.93 82.02 7.43 19.61 11.86 40.2 13.56 61.09-8.89.74-17.34 2.34-25.38 6.38-2.19 1.03-1.89 4.95.68 5.23 2.35.23 4.98-1.51 7.24-2.2 14.62-5.37 31.32-4.35 44.78 3.68 11.69 6.78 20.09 18.16 23.89 31.06 2.6 8.25 2.68 17.41 1.76 25.95-2.5 17.35-12.35 33.73-26.73 43.81-15.71 11.33-37.17 14.64-54.93 6.2-3.17-1.43-5.94-3.58-9.08-5.05-2.95-1.09-4.88 2.79-2.7 4.75 3.17 2.76 7.34 4.52 11 6.56-20.14 34.15-49.45 62.7-84.41 81.47-30.2 16.31-64.44 25.53-98.78 26.15-27.63.72-55.33-4.04-81.21-13.72-30.32-11.24-57.84-29.43-80.37-52.6-22.67-23.37-39.92-51.88-50.2-82.77-14.96-44.64-14.91-94.01.27-138.59 11.05-33.06 30.28-63.21 55.37-87.39 29.67-28.73 67.65-48.54 108.13-56.67 12.8-2.52 25.94-4.24 39.01-4.12Z" fill="rgba(158, 86, 34, 1)"/><path d="M605.03 404.4c2.63-.1 3.44 3.8 1.36 4.98-3.69 1.83-7.82 2.77-11.64 4.35-5.82 2.04-11.28 4.76-16.68 7.72 4.29 2.34 8.86 4.74 12.71 7.76 2.58 2.09 4.85 4.35 5.33 7.8-.26 3.59-2.73 6.55-5.45 8.69-5.86 4.66-13.92 7.18-20.79 10.26-1.75.62-4.43 1.99-5.59-.26-1.02-1.74-.06-3.11 1.57-3.87 6.65-3.3 14.86-5.62 20.79-10.16 1.37-1.14 3.39-2.74 3.61-4.62-4.07-5.63-12.42-8.59-18.23-12.09-2.34-1.72-2.29-4.24-.16-6.13 7.27-5.64 16.98-9.26 25.57-12.38 2.42-.83 5.03-1.95 7.6-2.05Z" fill="#000"/><g transform="translate(-161 -83)"><path d="M547.51 424.76c18.86-2.87 38.7 3.12 52.85 15.9 11.97 10.64 19.78 25.9 21.39 41.84 1.71 15.31-2.41 31.35-11.25 43.98-7.71 11.16-18.93 19.73-31.67 24.34-12.1 4.21-25.39 4.98-37.82 1.79-17.06-4.16-32.1-15.58-40.76-30.86-13-22.14-11.12-51.53 4.58-71.84 10.24-13.51 25.83-22.9 42.68-25.15Z" fill="#000"/><path d="M549.22 430.26c14.42-1.74 28.8 1.48 40.84 9.62 11.38 7.55 20.01 19.23 23.84 32.34 4.19 13.59 3.12 28.81-2.84 41.72-6.11 13.63-17.66 24.89-31.56 30.42-10.22 4.24-21.57 5.65-32.49 3.68-14.04-2.26-27.16-9.91-36.18-20.89-8.37-10.16-13.06-23.03-13.59-36.15-.3-14.15 4.47-28.34 13.45-39.31 9.46-11.76 23.58-19.54 38.53-21.43Z" fill="#fff"/><path d="M381.2 447.1c13.73-1.44 27.86 2.44 38.86 10.79 11.09 8.32 18.78 20.92 21.08 34.59 1.23 8.34.97 17.27-1.61 25.34-4.45 14.93-15.53 27.6-29.73 33.99-13.38 6.19-29.15 6.58-42.86 1.22-12.89-4.96-23.64-14.96-29.59-27.41-4.7-9.99-6.75-21.7-4.67-32.61 1.84-12.02 7.9-23.26 16.82-31.51 8.64-8.08 19.94-13.17 31.7-14.4Z" fill="#000"/><path d="M378.22 453.3c9.78-1.75 19.88-.54 28.93 3.59 13.18 5.84 23.37 17.71 27.22 31.6 5.15 17-.4 36.49-13.2 48.68-12.66 12.44-32.08 17.22-49 11.63-15.74-4.88-28.38-17.93-32.71-33.83-4.79-16.91.16-35.55 12.57-47.94 7.11-7.13 16.28-11.91 26.19-13.73Z" fill="#fff"/><path d="M558.77 456.74c-3.87 4-6.69 8.52-6.65 14.27-.67 8.63 4.49 17.13 12.5 20.42 5.98 2.45 12.26 1.32 17.64-2.01-.16 9.44-2.85 18.5-9.28 25.58-9.4 10.74-24.98 15.07-38.53 10.43-14.35-4.54-24.66-18.38-24.98-33.42-.48-13.96 7.47-27.4 20.04-33.54 9.2-4.73 19.51-4.72 29.26-1.73ZM391.97 467.88c8-1.43 15.68.54 22.74 4.28-3.02 3.08-5.46 6.31-5.51 10.82-.66 7.23 4.57 14.26 11.76 15.48 3.41.68 6.2-.46 9.41-1.41 1.12 12.27-4.48 24.69-14.77 31.55-11.64 7.9-28.39 6.99-39.25-1.91-9.69-7.58-14.38-20.74-11.76-32.74 2.72-13.31 13.84-24.22 27.38-26.07Z" fill="#000"/><path d="M527.44 489.51c2.29-1 4.8-1.33 6.96.16 3.54 2.29 3.45 7.56.77 10.49-2.67 3.03-7.74 3.21-10.32-.06-2.84-3.42-1.31-8.7 2.59-10.59ZM379.44 495.55c4.76-1.63 9.31 3.59 7.07 8.01-1.61 3.62-6.93 4.37-9.39 1.3-2.61-2.97-1.48-8.01 2.32-9.31ZM536.5 504.69c2.48-.77 5.29-.59 7.77.12 6.15 2.42 8.05 11.23 3.58 16.06-3.97 4.75-11.78 4.84-15.7-.02-4.44-5.37-2.44-13.92 4.35-16.16ZM386.51 512.74c3.42-1.11 7.14-.63 9.61 2.16 3.49 3.38 3.36 9.65-.57 12.65-4.05 3.44-10.78 1.72-13.23-2.86-2.58-4.29-.61-10.32 4.19-11.95Z" fill="#fff"/></g><g transform="translate(-161 -83)"><g fill="#000"><path d="M456.01 380.37c2.26-.07 2.85 1.7 2.65 3.64-.5 4.68-.77 9.78-2.32 14.23-1.33.39-2.66.58-4.03.82-1.12-4.8-.01-10.22.71-15.09.36-1.71.77-3.82 2.99-3.6ZM476.79 386.65c.03 3.21-.36 6.36-.67 9.55 41.69.52 83.32.38 125.01.75 2.13.04 3.96.86 5.89 1.64-.59 1.48-.22 3.83-2.24 4.09-8.05 1.31-16.58.52-24.74.88-17.35.62-34.71.99-52.06 1.53-17.03.2-34.01 1.25-51.05 1.42-3.29.39-6.05-2.72-7.2-5.47.02-4.49 1.02-9.15 2.06-13.5 1.28-2.48 2.83-1.67 5-.89ZM439.84 392.18c-.11 4.87-.05 10.81-2.28 15.24-3.22 1.5-7.12 1.79-10.59 2.47-25.65 4.7-51.32 9.35-76.96 14.09-4.24.69-8.7 2.15-12.99 2.04-2.63-.48-3.33-3.75-.87-5.01 3.2-1.41 6.95-1.74 10.33-2.58 29.1-6.7 58.15-13.59 87.24-20.32.41-1.91.8-3.81 1.27-5.7 1.61-.21 3.23-.24 4.85-.23Z"/></g></g><g transform="translate(-161 -83)"><path d="M524.2 555.79c.49 6.88-.8 13.42-1.56 20.21-2.78 24.19-9.38 47.95-19.15 70.23-3.65 7.33-6.74 15.74-13.95 20.34-4.25 3.06-10.3 1.77-14.6-.52-9.49-4.69-15.15-12.28-21.77-20.2-10.97-13.41-18.85-28.33-26.05-44.01-3.56-8.19-6.83-16.5-10.25-24.74-.87-2.13-1.17-4.09 1.07-5.43 4.72-.01 9.31 1.49 14.06 1.51 9.29.24 18.74.4 27.98-.82 19.98-2.29 39.64-8.3 57.99-16.44 2.13-1.07 4.03-.6 6.23-.13Z" fill="#000"/><path d="M518.93 561.99c-1.93 15.16-3.98 30.2-8.01 44.98-4.69 16.77-10.27 33.84-19.05 48.96-2.17 3.44-5.29 7.34-9.89 6.51-7.43-1.55-14.07-7.99-18.68-13.73-9.88-10.97-17.89-23.26-24.61-36.38-6.13-11.12-10.64-22.89-15.69-34.52 4.8.44 9.6.8 14.4 1.2 1.13 5.94 4.59 11.51 8.45 16.07 5.08 5.94 12.23 9.8 20.13 9.97 6.25-.49 12.08-3.13 16.68-7.36 8.02-7.35 11.96-17.07 14.48-27.43 7.39-2.48 14.64-5.15 21.79-8.27Z" fill="#8F2E45"/><path d="M490.65 572.12c-2.55 8.79-7.09 18.39-14.95 23.59-5.47 3.77-12.71 4.39-18.57 1.12-7.01-3.86-10.91-10.5-13.93-17.65 16.1-.33 32.01-2.32 47.45-7.06Z" fill="#fff"/></g><g transform="translate(-161 -83)"/><g transform="translate(-161 -83)"><path d="M549.85 190.34c28.12 6.52 52.12 22.5 71.64 43.42 6.68.4 12.99.53 19.5 2.13 9.62 2.07 18.73 5.85 27.23 10.78 18.87 11.11 33.56 27.63 44.09 46.69 11.84 4.95 22.02 14.45 30.3 24.06 12.76 14.92 22.87 32.39 30.53 50.41 9.3 22.05 15.57 46.14 15.73 70.17-.35 10.01-1.44 21.67-6.25 30.63-1.21 2.46-3.07 2.31-5.12.86-9.35-7.25-22.57-10.86-34.28-9.69 1.63 15.88-1.6 31.7-8.26 46.12-9.19 20.29-24.69 38.82-44.24 49.79-4.02 2.18-8.3 4.32-12.76 5.38-1.76.32-2.97-.28-3.39-2.08-.05-2.01 1.74-4 2.76-5.65 3.37-4.85 5.88-10.47 8.05-15.95 4.56-11.85 7.56-24.35 9.54-36.87 2.6-18.13 3.84-37.33-.71-55.25-4.17 2.95-8.4 6.69-13.18 8.55-2.69.02-3.74-2.55-3.03-4.83 1.05-3.17 2.81-6.03 3.73-9.27 4.48-15.3 2.45-30.98-3.11-45.69-2.44 9.25-5.35 19.79-11.46 27.33.1 5.3.63 11.07-.55 16.27-1.09 2.73-3.14 2.23-5.26.99-23.87-14.54-48.74-25.02-74.6-35.35-26.62-10.6-52.29-23.4-76.97-37.94-9.43-5.51-18.36-11.75-27.11-18.27 4.53 8.59 10.12 16.51 16.53 23.79 6.48 7.29 13.2 14.14 21.24 19.72 1.98 1.38 4.28 2.63 5.97 4.35.44 2.6-1.55 5.28-4.17 5.67-4.94 1.26-10.19 1.48-15.25 2.08-6.63.78-13.2.31-19.8-.44-13.11-1.03-26.11-4.43-38.37-9.11-26.47-10.18-51.08-28.08-67.21-51.59-11.27 10.9-20.58 26.33-18.77 42.55.04 2.18-.96 5.37-3.78 4.66-10.5-2.56-19.07-8.49-26.68-15.98-4.61 7.54-7.8 15.69-10.61 24.03-5.76 17.9-9.78 36.47-11.4 55.21-.62 6.31.3 12.42-.81 18.7-2.19-.09-4.08.17-5.85-1.39-8.87-7.01-14.14-18.24-16.35-29.13-3.49-17.49-.92-35.81 5.48-52.34 5.82-14.78 14.69-28.26 27.08-38.35-3.51-15.13-1.38-30.89 6.11-44.49 8.8-16.34 24.05-28.56 41.68-34.22 5.62-16.59 17.89-29.84 33.46-37.65 14.47-7.25 31.54-10.93 47.69-9.67 11.45-14.38 27.08-24.24 44.32-30.26 17.93-6.7 38.12-7.02 56.67-2.88Z" fill="#000"/><path d="M577.46 206.72c23.94 12.58 44.25 33.18 59.45 55.34 14.69 20.99 24.67 43.97 32.82 68.15.92 2.22 1.67 3.62 4.41 2.99 2.19-2.33.92-4.74.22-7.4-3.58-10.51-7.72-20.84-12.27-30.96-9.01-19.91-20.9-38.53-35.12-55.12 6.13.64 12.14 1.37 18.07 3.15 16.64 4.81 31.17 14.55 43.09 26.99 17.01 17.85 28.34 41.05 33.13 65.17 4.87 24.85 3.13 50.56-7.23 73.83-6.21 13.94-15.45 25.93-27.61 35.18 1.68-5.23 3.03-10.52 3.19-16.04 1.05-14.93-1.86-30.66-9.7-43.54.48-6.13.46-12.39-.2-18.51-.22-1.63-.53-3.77-1.86-4.91-1.48-1.44-4.4-.18-4.23 1.96.03 2 .38 4.04.61 6.03 1.74 15.3-1.56 30.19-7.76 44.14-2.92-21.59-9.05-43.12-19.22-62.46-5.97-11.33-13.73-21.25-21.95-31.01-1.25-1.41-2.55-2.92-4.1-3.99-1.21-.28-2.54-.23-3.78-.28-.08 2.02-.7 3.56.9 5.16 5.55 6.21 10.78 12.67 15.61 19.45 11.09 15.7 18.38 34.39 22.9 52.99 3.51 12.81 5.43 25.9 5.3 39.2-20.88-12.19-42.86-22.14-65.29-31.1-16.23-6.48-32.34-13.19-47.94-21.11-25.69-13.04-50.56-26.52-72.41-45.53-7.43-6.72-14.91-14.95-18.77-24.3-1.34-3.06.01-5.6-.18-8.69-1.76-1.83-4.94-.96-5.53 1.5-1.12 4.34.54 9.38 2.58 13.24 5.02 9.54 12.07 17.07 20 24.23.62 3.12 1.45 6.17 2.88 9.02 6.23 12.35 14.76 22.8 24.52 32.51 4.9 5.09 10.43 9.36 16.08 13.57-13.85 2.34-28.31 1.94-42.1-.67-27.99-5.3-54.5-19.07-74.84-39.04-14.05-13.95-24.97-30.87-29.25-50.4-1.27-7.25-2.38-14.29-1.03-21.63 1.7-15.87 10.5-30.27 23.36-39.6 15.06-11.01 32.68-14.92 51.06-15.6-3.51 6.86-7.41 14.03-7.75 21.86 1.63 1.37 3.7 3.27 4.96.32 2.58-14.61 11.24-26.51 22.62-35.68 13.36-10.81 30.03-17.91 46.92-20.84 22.78-3.28 45.17 1.99 65.44 12.43ZM365.99 277.45c-4.21 20.99 1.63 41.26 12.39 59.27-12.5 11.63-22.28 27.92-21.58 45.49-5.02-2.07-9.83-4.52-14.1-7.92-9.2-7.16-15.68-17.79-17.79-29.26-2.14-9.71-.73-20.25 2.65-29.51 6.53-17.66 20.99-31.33 38.43-38.07Z" fill="rgba(106, 78, 53, 1)"/><path d="M716.569 301.91c13.45 8.66 24.21 21.14 33.09 34.32 15.29 23.14 26.1 49.5 31.15 76.78 2.82 16.66 3.97 33.98-1.88 50.16-10.74-6.85-24.16-10.51-36.87-9.01-.94-2.37-1.44-6.38-3.95-7.58-2.25-.29-3.6 1.24-3.25 3.38 1.09 4.7 2.61 9.18 2.89 14.04 1.09 14.67-3.28 30.02-9.72 43.1-9.31 18.57-24.33 35.75-43.09 45.13 8.7-16.48 13.5-35.45 16.09-53.82 1.3-8.39 1.57-16.94 2.07-25.41-.38-11.03-.88-21.55-4.12-32.17 20.65-20.23 30.72-50.32 30.46-78.83.5-20.58-4.4-41.39-12.87-60.09ZM321.76 355.38c1.93 4.38 4.08 8.56 6.8 12.5-3.82 5.84-6.69 12.14-9.22 18.62-5.78 15.33-9.76 31.16-12.48 47.3-1.51 9.42-2.66 18.86-2.6 28.41-4.67-5.29-7.79-10.94-9.85-17.69-4.09-13.24-3.46-28.17-.29-41.54 4.34-17.93 13.71-35.31 27.64-47.6Z" fill="rgba(106, 78, 53, 1)"/><path d="M828.81 471.13c17.42 1.96 33.18 10.6 46.61 21.5 2.32 2 5.11 3.85 6.9 6.35.35 2.87-1.08 4.29-3.89 3.55-9.95-2.95-20.26-2.95-30.47-1.54-9.95 1.5-19.65 3.94-28.66 8.52 10.18 2.33 19.88 6.94 28.61 12.61 12.04 7.86 22.05 18.53 28.47 31.45 1.08 2.23 2.11 4.39 3.95 6.11 14.84 14.06 23.05 34.95 22.25 55.32-.35 17.11-7.16 34.05-19.82 45.76-1.41 1.2-2.76 2.26-4.68 1.33-1.07-.57-3.48-1.46-3.02-3.03 1.12-14.84-.91-29.57-8.17-42.72-.3 7.34-.86 14.55-2.86 21.65-9.2 34.76-38.54 63.65-73.82 71.29-11.31 2.27-23.65 2.37-34.78-.87-2.49-.44-4.1-4.1-1.81-5.65 3.77-1.65 7.71-2.81 11.36-4.79 2.14-1.21 5.18-2.35 6.23-4.7 2.24-4.43 3.7-9.29 4.86-14.09 1.71-9.26 3.01-17.88-.38-26.96-3.88-1.81-7.93-2.88-11.46-5.44-16.09-10.91-25.51-31.14-24.43-50.45-11.18 11.73-26.72 20.86-42.99 22.67-1.77.22-4.13-.04-4.52-2.16-.41-1.47.01-2.43.92-3.56 9.38-11.13 17.06-23.16 24.44-35.67.81-1.74 3.89-.9 5.37-.7 9.7 2.28 19.81 2.31 29.47-.24 17.24-4.43 31.77-16.71 39.85-32.46 9.68-18.65 10.06-42.2-1.48-60.13-1.47-2.22-1.84-3.36-1.6-6.06 2.03-.87 4.03-1.8 6.01-2.76 9.99-5.1 22.63-5.48 33.54-4.13Z" fill="#000"/><path d="M829.45 476.87c14.81 2.29 27.71 9.16 39.64 17.96-4.37-.54-8.7-.87-13.09-.39-14.58 1.08-30.75 4.27-43.15 12.39-1.95 1.34-4.17 3-3.3 5.68.37 2.07 3.92 1.75 5.44 2.06 7.29.48 13.48 3.3 19.91 6.47 12.93 6.66 25.34 16.59 32.89 29.18-7.42-3.82-16.36-7.27-24.8-7.03-2.54.26-3.37 3.76-.93 4.95 3.15 1.13 6.68 1.07 9.93 1.94 14.1 3.56 25.95 13.09 33.8 25.15 7.51 11.43 11.33 25.12 11.12 38.77-.17 15.06-5.77 29.88-16.19 40.83-.31-6.86-.06-14.18-1.58-20.86-1.85-8.87-4.75-17.59-10.17-24.95-1.25-1.78-2.95-2.95-3.26-5.05-1.21-5.49-2.39-10.71-4.92-15.81-.62-1.15-1.8-2.06-2.71-2.96-.97.65-1.89 1.36-2.77 2.12-.72 1.34.37 3.18.8 4.51 4.69 10.97 5.93 23.17 4.26 34.95-3.84 27.95-22.13 53.15-46.37 67.16-15.23 8.77-32.9 13-50.43 10.66 15.04-6.75 28.2-16.93 37.04-30.99 5.09-7.69 7.04-16.61 7.64-25.69.29-3.44-4.31-4.57-5.39-1.16-1.11 6.19-1.38 12.24-4.08 18.08-4.44 9.6-12.13 18.04-20.24 24.72 3.1-8.14 4.66-16.87 4.84-25.56-.03-5.73-.91-12.2-4.02-17.14-5.74-1.34-11.12-3.71-15.58-7.64-11.33-9.67-17.99-24.38-18.36-39.22.23-6.22 1.62-11.46 4.74-16.83 16.12-3.23 30.55-12.51 40.48-25.55 8.56-11.08 13.6-24.67 14.62-38.62.81-13.46-2.41-26.68-9.48-38.17 10.65-5.6 22.03-5.39 33.67-3.96Z" fill="rgba(106, 78, 53, 1)"/><path d="M296 486.85c4.47-.02 9.38.68 13.36 2.84 2.06.95 1.67 3.45 2 5.31.94 12.36 3.69 24.36 7.28 36.2 6.01 19.36 14.33 37.99 24.86 55.31 5.2 8.32 10.71 16.38 17.38 23.6 2.01 2.3 3.73 4.59 2.02 7.7-5.68 10.58-14.84 19.58-24.47 26.61-7.32 5.24-15.3 9.63-24.3 11.02-2.1 7.3-3.62 15.05-2.09 22.61-.26.82-.53 1.64-.8 2.47-1.93.32-3.58.63-5.43-.24-11.58-4.75-23.02-11.3-32.1-19.99-8.91-8.46-15.3-19.22-17.62-31.35-4.67-2.09-7.23-5.81-10.46-9.55a49.163 49.163 0 0 1-11.16-29.38c-.78-10.42 3.18-20.81 7.34-30.18 5.19-10.88 11.84-22.03 20.68-30.35 3.32-3.23 7.04-5.84 10.74-8.61-7.05 1.94-13.72 4.25-19.46 8.95-1.27.79-3.37 2.97-4.85 1.71-2.71-1.16-1.77-4.56-1.23-6.77 3.56-11.28 11.32-21.31 20.92-28.13 8.11-5.73 17.35-9.6 27.39-9.78Z" fill="#000"/><path d="M288.21 493.66c5.99-1.68 11.45-1.42 17.33.45.28 5.97 1.24 11.83 2.29 17.7 3.93 19.8 10.64 38.76 19.42 56.91 8.06 16.68 18.14 32.9 30.47 46.78-7.31 12.28-18.39 22.4-30.8 29.39-4.8 2.66-9.51 4.3-14.96 5.02-2.13.17-2.38 1.28-3.04 3.03-2.38 6.8-3.26 13.86-3.24 21.04-15.13-6.64-30.17-16.49-38.46-31.22-6.46-11.21-7.62-24.54-4.51-37 3.39-13.86 11.02-26.19 19.93-37.18 1.56-1.74 2.18-4.9-.62-5.74-2.01-.54-3.26 1.41-4.45 2.67-12.87 16.15-22.68 34.75-22.38 55.93-6.02-6.07-10.94-12.92-13.31-21.23-1.97-7.55-2.48-15.35-.35-22.93 3.52-12.67 9.78-24.65 17.42-35.31 7.43-10.39 17.63-17.53 28.92-23.2 2.45-1.61 1.1-5.03-1.79-4.88-10.9-.17-22.06 3.25-31.48 8.67 6.1-13.88 18.85-25.15 33.61-28.9ZM721.61 582.54c6.87 1.49 13.81 1.62 20.81 1.7-10.21 14.14-24.97 24.49-42 28.56 7.94-9.54 14.4-19.92 21.19-30.26Z" fill="rgba(106, 78, 53, 1)"/></g></g></svg>