<svg xmlns:dc="http://purl.org/dc/elements/1.1/" xmlns:cc="http://creativecommons.org/ns#" xmlns:rdf="http://www.w3.org/1999/02/22-rdf-syntax-ns#" xmlns:svg="http://www.w3.org/2000/svg" xmlns="http://www.w3.org/2000/svg" viewBox="0 0 762 762" fill="none"><metadata><rdf:RDF><cc:Work><dc:format>image/svg+xml</dc:format><dc:type rdf:resource="http://purl.org/dc/dcmitype/StillImage"/><dc:title>Adventurer</dc:title><dc:creator><cc:Agent><dc:title>Lisa Wischofsky</dc:title></cc:Agent></dc:creator><dc:source>https://www.instagram.com/lischis_adventures/</dc:source><cc:license rdf:resource="https://creativecommons.org/licenses/by/4.0/"/></cc:Work><cc:License rdf:about="https://creativecommons.org/licenses/by/4.0/"><cc:permits rdf:resource="https://creativecommons.org/ns#Reproduction"/><cc:permits rdf:resource="https://creativecommons.org/ns#Distribution"/><cc:permits rdf:resource="https://creativecommons.org/ns#DerivativeWorks"/><cc:requires rdf:resource="https://creativecommons.org/ns#Notice"/><cc:requires rdf:resource="https://creativecommons.org/ns#Attribution"/></cc:License></rdf:RDF></metadata><mask id="avatarsRadiusMask"><rect width="762" height="762" rx="0" ry="0" x="0" y="0" fill="#fff"/></mask><g mask="url(#avatarsRadiusMask)"><path d="M396.01 164.85c37.82 4.9 74.21 19.64 104.8 42.39 6.15 4.84 12.48 9.33 18.02 14.92 23.77 21.98 42.73 49.02 55.13 78.95 9.35 22.31 14.72 46.04 16.64 70.14 6.62.81 13.05 2.14 19.12 5 15.54 6.93 27.08 20.94 31.78 37.21 2.63 9.56 3.56 19.75 1.72 29.55-2.96 18.76-13.72 36.13-29.37 46.92-10.94 7.65-24.49 12.03-37.86 11.68-5.13-.05-10.04-1.6-15.13-1.79-1.85 2.17-3.23 4.84-4.76 7.25-18.66 29.62-44.57 54.51-74.64 72.4-28.1 16.73-59.9 27.16-92.46 30.32-11.08.7-21.87 2.05-32.98.74-51.69-2.3-102.07-23.44-140.15-58.43-29.03-26.55-50.84-60.83-62.54-98.39-7.09-22.85-10.62-46.78-10.07-70.71.52-40.34 12.53-80.58 33.94-114.76 19.1-30.81 45.91-56.58 77.2-74.83 29.63-17.28 63.35-27.68 97.59-29.87 14.66-1.47 29.44-.37 44.02 1.31Z" fill="#000"/><path d="M363 169.06c48.47-1.39 97.32 14.7 135.81 44.12 6.55 4.06 11.72 9.49 17.36 14.64 24.33 22.63 43.2 50.95 54.93 82.02 7.43 19.61 11.86 40.2 13.56 61.09-8.89.74-17.34 2.34-25.38 6.38-2.19 1.03-1.89 4.95.68 5.23 2.35.23 4.98-1.51 7.24-2.2 14.62-5.37 31.32-4.35 44.78 3.68 11.69 6.78 20.09 18.16 23.89 31.06 2.6 8.25 2.68 17.41 1.76 25.95-2.5 17.35-12.35 33.73-26.73 43.81-15.71 11.33-37.17 14.64-54.93 6.2-3.17-1.43-5.94-3.58-9.08-5.05-2.95-1.09-4.88 2.79-2.7 4.75 3.17 2.76 7.34 4.52 11 6.56-20.14 34.15-49.45 62.7-84.41 81.47-30.2 16.31-64.44 25.53-98.78 26.15-27.63.72-55.33-4.04-81.21-13.72-30.32-11.24-57.84-29.43-80.37-52.6-22.67-23.37-39.92-51.88-50.2-82.77-14.96-44.64-14.91-94.01.27-138.59 11.05-33.06 30.28-63.21 55.37-87.39 29.67-28.73 67.65-48.54 108.13-56.67 12.8-2.52 25.94-4.24 39.01-4.12Z" fill="rgba(242, 211, 177, 1)"/><path d="M605.03 404.4c2.63-.1 3.44 3.8 1.36 4.98-3.69 1.83-7.82 2.77-11.64 4.35-5.82 2.04-11.28 4.76-16.68 7.72 4.29 2.34 8.86 4.74 12.71 7.76 2.58 2.09 4.85 4.35 5.33 7.8-.26 3.59-2.73 6.55-5.45 8.69-5.86 4.66-13.92 7.18-20.79 10.26-1.75.62-4.43 1.99-5.59-.26-1.02-1.74-.06-3.11 1.57-3.87 6.65-3.3 14.86-5.62 20.79-10.16 1.37-1.14 3.39-2.74 3.61-4.62-4.07-5.63-12.42-8.59-18.23-12.09-2.34-1.72-2.29-4.24-.16-6.13 7.27-5.64 16.98-9.26 25.57-12.38 2.42-.83 5.03-1.95 7.6-2.05Z" fill="#000"/><g transform="translate(-161 -83)"><path d="M587.369 431.61c12.06 6.36 21.92 16.48 27.94 28.71 5.58-3.45 11.26-6.72 16.83-10.19 1.56-.93 3.14-1.94 4.89-2.46 1.93.56 2.77 1.31 2.72 3.44-.47 1.3-1.75 2-2.83 2.76-6.46 3.95-13.07 7.67-19.41 11.81 6.07 14.16 5.97 31.18.81 45.61-5.25 14.83-16.12 27.57-29.9 35.15-13.07 7.36-28.89 9.8-43.59 7.01-17.87-3.24-34.06-14.37-43.5-29.88-6.26-10.02-9.68-21.74-9.64-33.57-.39-16.27 5.85-32.52 16.82-44.51 9.47-10.42 22.53-17.95 36.46-20.29 14.28-2.79 29.56-.38 42.4 6.41Z" fill="#000"/><path d="M549.2 430.27c14.66-1.79 29.31 1.59 41.46 10.02 11.31 7.71 19.81 19.52 23.46 32.72 3.93 13.37 2.78 28.27-3.06 40.93-6.21 13.86-18.05 25.26-32.25 30.69-9.99 4.03-21.2 5.35-31.81 3.41-16.4-2.64-31.48-12.62-40.35-26.67-5.6-8.78-8.75-18.97-9.37-29.35-.6-14.45 4.24-29.14 13.41-40.34 9.45-11.74 23.58-19.52 38.51-21.41Z" fill="#fff"/><path d="M414.691 454.33c11.57 6.69 20.45 17.75 24.54 30.46 2.68 8.02 3.17 16.86 2.07 25.21-2.04 13.95-9.65 26.85-20.85 35.42-11.38 8.76-26.19 12.83-40.44 10.89-15.79-1.82-30.36-11-39.03-24.29-5.54-8.33-8.47-18.05-9.1-28-.32-7.07 1.17-13.62 2.92-20.39-4.34-2.73-8.65-5.59-12.81-8.6-1.7-1.23-1.83-2.14-1.53-4.17 1.3-1.26 2.74-1.59 4.35-.65 4.19 2.57 8.15 5.53 12.25 8.24 6.69-14.02 19.04-24.86 33.97-29.29 14.45-4.44 30.64-2.5 43.66 5.17Z" fill="#000"/><path d="M378.2 453.3c18.68-3.52 38.38 4.71 49.14 20.33 7.5 10.77 10.85 24.96 7.88 37.84-1.96 10-7.13 19.25-14.57 26.2-8.04 7.66-18.62 12.27-29.65 13.27-20.13 1.85-40.14-9.82-48.62-28.14-7.66-15.97-5.84-35.51 4.6-49.81 7.37-10.31 18.75-17.43 31.22-19.69Z" fill="#fff"/><path d="M526.47 467.49c12.01-2.85 24.87 4.22 29.35 15.63 2.22 6.02 2.33 12.74-.08 18.72-3.17 8.32-10.91 14.59-19.71 15.93-7.62 1.33-15.75-1.14-21.43-6.37-7.55-6.85-10.31-18.03-6.76-27.6 2.92-8.29 10.06-14.42 18.63-16.31ZM398.22 478.36c9.49-1.98 19.61 2.59 24.44 10.99 3.46 5.6 3.67 12.27 2.25 18.54-2.37 7.24-8.51 13.23-15.87 15.27-7.51 2.4-16.26.06-21.98-5.24-7.35-6.81-9.49-18-5.05-27 3.07-6.51 9.18-11.12 16.21-12.56Z" fill="#000"/></g><g transform="translate(-161 -83)"><g fill="#000"><path d="M523.24 384.36c6.17-.42 13.09-.61 18.45 2.95 3.68 2.44 5.4 6.35 4.48 10.74-1.55 6.16-6.62 10.92-11.61 14.5-8.97 6.29-19.71 10.24-30.57 11.53-5.61.53-12.5.43-17.47-2.55-3.63-2.13-5.9-6.12-5.2-10.36 1.02-5.75 5.49-10.49 9.94-13.96 9.19-7.03 20.55-11.34 31.98-12.85ZM392.22 401.23c9.11-.36 18.31.51 26.31 5.24 3.85 2.26 7.34 5.89 7.89 10.49.34 4.21-1.96 7.8-5.19 10.27-4.52 3.55-9.87 5-15.43 5.99-9.95 1.02-20.55.32-29.48-4.58-3.87-2.29-7.88-5.85-8.47-10.57-.73-4.27 2.02-8.47 5.39-10.84 5.4-3.87 12.43-5.69 18.98-6Z"/></g></g><g transform="translate(-161 -83)"><path d="M525.03 563.67c.41.78.8 1.57 1.14 2.37.47 2.66-1.95 3.31-3.81 4.34-3.98 1.77-8.05 3.4-12.12 4.98-17.66 6.32-35.39 11.11-54.24 11.94-6.5.5-12.94.62-19.44.04-4.9-.57-10.15-.63-14.87-2.03-2.35-.88-2.73-3.93-.4-5.07 2.68-.12 5.48.83 8.18 1.02 7.2.89 14.3.61 21.54.61 22.49-.76 45.02-6.79 65.7-15.48 2.76-1.19 5.22-2.59 8.32-2.72Z" fill="#000"/></g><g transform="translate(-161 -83)"/><g transform="translate(-161 -83)"><path d="M532.999 229.54c18.88-.71 37.77.27 56.5 2.83 15.16 1.94 30.23 4.2 45.03 8.12 11.74 2.6 23 6.22 34.07 10.89 11.41 5.25 22.64 9.96 33.46 16.54 6.75 4.1 13.28 8.65 19.34 13.71 15.97 13.04 29.08 30.59 40.28 47.78 9.45 14.99 17.6 30.84 24.98 46.94 15.13 33.87 27.86 68.59 38.99 103.96 10.1 32.93 17.26 67.27 19.34 101.7.53 13.7-.8 27.65-4.15 40.95-4.62 16.2-11.04 31.86-19.36 46.51-3.17 5.57-7.2 10.76-11.43 15.57-1.7 1.67-3.02 3.63-5.73 2.62-1.96-.72-1.19-4.26-.98-5.86 1.45-7.35 2.14-14.47 2.48-21.94-1.81 6.38-4.65 12.31-7.79 18.12-5.93 11.22-13.66 21.44-22.49 30.53-20.39 21.03-45.34 37.74-70.44 52.61-14.04 8.38-28.83 15.19-43.31 22.71-1.74.82-3.71 1.03-4.9-.77-1.18-1.44-.4-2.61.13-4.11 6.67-15.17 11.73-31.39 13.79-47.87-6.86 20.52-18.33 39.84-32.94 55.79-1.7 1.97-4.65 3.03-6.1.19.06-3.21 1.82-6.45 2.75-9.51 9.89-30.31 16-61.76 18.54-93.54 1.18-9.62 1.41-19.33 2.31-28.99 1.76-31.27 3.61-62.68 3.36-94.02-.04-10.02.14-20-.59-30.01-.8-29.21-4.06-58.41-9.01-87.2-29.68-5.4-58.9-13.52-87.32-23.62-30.72-10.94-60.55-24.07-89.06-39.92-19.34-10.87-38.65-23.08-55.61-37.41-7.59-6.4-14.91-13.33-21.32-20.91-19.39 14.41-37.15 30.78-52.49 49.46-1.56 1.97-1.47 5.18-1.97 7.58-2.22 13.41-4.59 26.79-6.6 40.23-6.28 40.25-9.8 81.05-9.54 121.8.2 4.21-.4 8.58 1.37 12.39 9.42 22.69 22.62 43.74 39.01 62.04 24.33 27.06 55.44 48.14 89.84 60.12 2.21.67 3.57 1.77 5.12 3.45-3.28 4.61-8.77 7.71-13.11 11.41-21.46 16.81-40.42 36.28-58.11 56.96-1.9 2.04-3.1 5.16-5.31 6.78-8.93.23-18.1-2.03-27.04-2.63-10.43-.59-20.8-2.13-31.19-3.08 2.4 8.01 6.29 15.58 9.52 23.28 1.65 2.57-2.52 6.32-5 4.96-8.78-4.43-16.52-10.62-22.95-18.07-12.23-13.95-22.94-30.13-29.42-47.58-5.68-15.2-9.81-30.85-11.58-47-.65-7.35-1.67-14.63-1.78-22.03-.31-14.64-.41-29.42 1.04-44 1.34-22.43 4.53-44.78 8.87-66.82 3.78-20.67 8.69-41.07 14.09-61.37.7-3.07 2.5-6.76 1.43-9.82-1.95-7.26-3.66-14.52-4.48-22.01-.95-11.53-.17-23.14 2.15-34.47 2.31-10.3 6.35-20.37 11-29.83 9.57-18.9 21.15-36.22 33.65-53.29 7.25-9.62 14.91-19.1 23.37-27.68 9.15-9 19.63-16.72 30.41-23.66 11.19-7.53 25.97-9.32 38.88-12.05 5.5-1.05 10.66-3.07 16.03-4.55 3.93-.83 7.16-3.74 10.84-5.61 11.55-6.62 24.08-11.15 37.14-13.69 14.46-2.61 29.32-3.45 43.99-3.61Z" fill="#000"/><path d="M557.001 235.19c20.49 1.08 40.81 3.68 60.98 7.39 11.35 2.36 22.61 5.35 33.71 8.7 12.96 4.55 25.52 10.06 37.79 16.24 15.37 7.89 29.41 18.14 41.23 30.77 24.61 26.6 42.05 59.75 56.12 92.91 12.69 29.61 23.61 59.99 33.27 90.72 7.71 24.86 13.43 50.27 16.87 76.08 2.82 21.32 3.77 44.94-2.33 65.77-4.75 15.36-10.75 30.23-18.63 44.25-1.76 3.06-3.82 5.91-5.96 8.7 1.23-11.18 1.57-22.48 1.45-33.72-.81-8.66.66-17.28.8-26 .93-8.67.9-17.34.74-26.03.09-2.77-3.5-4.92-4.84-1.78-.89 4.73-.07 9.95-.52 14.8-1.04 14.06-1.19 29.06-4.25 42.82-4.48 22.45-17.46 43.08-33.44 59.18-20.51 20.62-45.95 37.43-71.02 52-11.18 6.49-22.75 12.08-34.32 17.81 9.63-23.24 13.71-47.8 14.8-72.83.09-1.68-.56-3.05-1.09-4.6-1.17.13-2.34.27-3.51.43-.84.92-1.16 2.01-1.4 3.2-3.28 16.31-9.14 32.19-16.44 47.12-4.37 9.09-9.77 17.41-15.73 25.52 1.85-6.85 4.09-13.58 5.84-20.46 9.42-34.05 12.29-71.02 14.36-106.18.81-7.26.76-14.69 1.18-21.99.96-13.32 1.17-26.65 1.57-39.99.1-25.44.49-51.18-1.34-76.55-.85-13.15-2.42-26.24-3.86-39.33-1.21-8.47-2.57-16.92-3.85-25.39 9.85 1.79 19.83 2.92 29.8 3.72 3.47.31 7.4 1.1 10.83.38 2.61-1.65 1.99-4.76-.97-5.4-32.84-1.8-66.05-8.75-97.61-17.9-33.67-9.84-66.49-22.51-98-37.93-19.57-9.67-38.94-20.5-56.88-32.95-18.37-12.8-37.62-28.17-50.01-47.06-1.38-2.23-2.96-1.6-5.16-1.26-.74 4.8 2.58 7.24 4.94 10.93-4.34 3.62-8.91 6.96-13.24 10.59-24.28 20.01-45.36 43.44-61.45 70.55-.72 1.39-1.69 2.99-1.72 4.58-.43 2.33 3.43 3.54 4.44 1.45 4.55-8.5 10.07-16.01 15.71-23.81-11.31 56.47-17.57 113.72-16.1 171.36.26 39.62 4.71 79.33 12.02 118.24.64 2.49 2.61 2.02 4.65 2.36.64-1.88 1-3.45.56-5.45-3.85-21.87-7.28-44-9.02-66.15-1.44-11.78-1.53-23.81-2.3-35.61 10.06 21.82 24.1 41.9 40.64 59.3 23.54 24.76 52.8 43.63 84.78 55.53-10.65 8.24-21.02 16.8-30.88 25.98-9.29 8.76-17.93 18.11-26.32 27.72-4.2 4.72-8.32 9.48-12.05 14.59-3.8-.25-7.58-.62-11.34-1.23-11.8-1.63-23.68-2.14-35.5-3.61-3.92-.07-9.32-1.83-12.83.35-2.92 2.06-1.8 5.97-.85 8.8 2.09 5.47 4.63 10.79 6.95 16.17-11.32-6.92-19.18-16.67-26.96-27.19-8.22-11.26-14.92-23.57-19.4-36.79-4.17-11.76-7.35-23.85-9.15-36.2-1.89-14.54-2.95-29.14-2.61-43.81-.35-9.72.94-19.29 1.27-28.99 1.5-19.79 4.08-39.55 7.83-59.04 4.33-23.17 9.41-46.22 15.34-69.03.58-2.77 2.18-5.97 1.2-8.74-2.82-10.27-5.1-20.48-4.99-31.2.3-10.19 1.28-20.19 4.28-29.97 5.2-17.13 14.4-32.97 23.87-48.06 11.05-17.04 23.14-34.14 36.93-49.08 9.53-10.43 21.29-19.2 33.14-26.84 12.87-8.52 29.99-9.43 44.57-13.6-3.4 3.32-6.89 6.52-10.43 9.69-.94 1.04-2.78 2.36-2.59 3.88-.41 2.3 2.72 3.08 4.18 1.78 4.98-4.35 9.84-8.87 14.63-13.43 6.95-6.58 16.13-11.26 24.74-15.31 12.99-5.99 26.72-8.98 40.9-10.39 17.37-1.27 34.55-2.19 51.98-1.48Z" fill="rgba(185, 160, 95, 1)"/></g></g></svg>