<svg xmlns:dc="http://purl.org/dc/elements/1.1/" xmlns:cc="http://creativecommons.org/ns#" xmlns:rdf="http://www.w3.org/1999/02/22-rdf-syntax-ns#" xmlns:svg="http://www.w3.org/2000/svg" xmlns="http://www.w3.org/2000/svg" viewBox="0 0 762 762" fill="none"><metadata><rdf:RDF><cc:Work><dc:format>image/svg+xml</dc:format><dc:type rdf:resource="http://purl.org/dc/dcmitype/StillImage"/><dc:title>Adventurer</dc:title><dc:creator><cc:Agent><dc:title>Lisa Wischofsky</dc:title></cc:Agent></dc:creator><dc:source>https://www.instagram.com/lischis_adventures/</dc:source><cc:license rdf:resource="https://creativecommons.org/licenses/by/4.0/"/></cc:Work><cc:License rdf:about="https://creativecommons.org/licenses/by/4.0/"><cc:permits rdf:resource="https://creativecommons.org/ns#Reproduction"/><cc:permits rdf:resource="https://creativecommons.org/ns#Distribution"/><cc:permits rdf:resource="https://creativecommons.org/ns#DerivativeWorks"/><cc:requires rdf:resource="https://creativecommons.org/ns#Notice"/><cc:requires rdf:resource="https://creativecommons.org/ns#Attribution"/></cc:License></rdf:RDF></metadata><mask id="avatarsRadiusMask"><rect width="762" height="762" rx="0" ry="0" x="0" y="0" fill="#fff"/></mask><g mask="url(#avatarsRadiusMask)"><path d="M396.01 164.85c37.82 4.9 74.21 19.64 104.8 42.39 6.15 4.84 12.48 9.33 18.02 14.92 23.77 21.98 42.73 49.02 55.13 78.95 9.35 22.31 14.72 46.04 16.64 70.14 6.62.81 13.05 2.14 19.12 5 15.54 6.93 27.08 20.94 31.78 37.21 2.63 9.56 3.56 19.75 1.72 29.55-2.96 18.76-13.72 36.13-29.37 46.92-10.94 7.65-24.49 12.03-37.86 11.68-5.13-.05-10.04-1.6-15.13-1.79-1.85 2.17-3.23 4.84-4.76 7.25-18.66 29.62-44.57 54.51-74.64 72.4-28.1 16.73-59.9 27.16-92.46 30.32-11.08.7-21.87 2.05-32.98.74-51.69-2.3-102.07-23.44-140.15-58.43-29.03-26.55-50.84-60.83-62.54-98.39-7.09-22.85-10.62-46.78-10.07-70.71.52-40.34 12.53-80.58 33.94-114.76 19.1-30.81 45.91-56.58 77.2-74.83 29.63-17.28 63.35-27.68 97.59-29.87 14.66-1.47 29.44-.37 44.02 1.31Z" fill="#000"/><path d="M363 169.06c48.47-1.39 97.32 14.7 135.81 44.12 6.55 4.06 11.72 9.49 17.36 14.64 24.33 22.63 43.2 50.95 54.93 82.02 7.43 19.61 11.86 40.2 13.56 61.09-8.89.74-17.34 2.34-25.38 6.38-2.19 1.03-1.89 4.95.68 5.23 2.35.23 4.98-1.51 7.24-2.2 14.62-5.37 31.32-4.35 44.78 3.68 11.69 6.78 20.09 18.16 23.89 31.06 2.6 8.25 2.68 17.41 1.76 25.95-2.5 17.35-12.35 33.73-26.73 43.81-15.71 11.33-37.17 14.64-54.93 6.2-3.17-1.43-5.94-3.58-9.08-5.05-2.95-1.09-4.88 2.79-2.7 4.75 3.17 2.76 7.34 4.52 11 6.56-20.14 34.15-49.45 62.7-84.41 81.47-30.2 16.31-64.44 25.53-98.78 26.15-27.63.72-55.33-4.04-81.21-13.72-30.32-11.24-57.84-29.43-80.37-52.6-22.67-23.37-39.92-51.88-50.2-82.77-14.96-44.64-14.91-94.01.27-138.59 11.05-33.06 30.28-63.21 55.37-87.39 29.67-28.73 67.65-48.54 108.13-56.67 12.8-2.52 25.94-4.24 39.01-4.12Z" fill="rgba(236, 173, 128, 1)"/><path d="M605.03 404.4c2.63-.1 3.44 3.8 1.36 4.98-3.69 1.83-7.82 2.77-11.64 4.35-5.82 2.04-11.28 4.76-16.68 7.72 4.29 2.34 8.86 4.74 12.71 7.76 2.58 2.09 4.85 4.35 5.33 7.8-.26 3.59-2.73 6.55-5.45 8.69-5.86 4.66-13.92 7.18-20.79 10.26-1.75.62-4.43 1.99-5.59-.26-1.02-1.74-.06-3.11 1.57-3.87 6.65-3.3 14.86-5.62 20.79-10.16 1.37-1.14 3.39-2.74 3.61-4.62-4.07-5.63-12.42-8.59-18.23-12.09-2.34-1.72-2.29-4.24-.16-6.13 7.27-5.64 16.98-9.26 25.57-12.38 2.42-.83 5.03-1.95 7.6-2.05Z" fill="#000"/><g transform="translate(-161 -83)"><path fill-rule="evenodd" clip-rule="evenodd" d="M612.99 456.04c-8.4-14.32-22.44-25.12-38.46-29.54-12.78-3.63-26.45-3.13-39.02 1.1-15.79 5.52-29.25 17.14-36.82 32.08-3.28 6.32-5.17 13.09-6.5 20.06-4.4.35-8.76.83-13.04 1.93.188.504.294 1.03.396 1.539.273 1.36.52 2.594 2.244 2.921 2.35.223 4.762 0 7.146-.221.924-.085 1.844-.17 2.754-.229-.56 12.87 2.24 25.63 8.92 36.7 8.71 14.98 23.61 26.14 40.45 30.25 12.14 3.08 25.13 2.44 36.99-1.54 13.99-4.82 26.18-14.48 34.04-27.01 6.48-10.16 9.83-22.06 10.06-34.07.056-3.789-.398-7.446-.857-11.15-.12-.969-.241-1.942-.353-2.92.945-.109 1.903-.19 2.865-.271 2.307-.196 4.636-.393 6.845-.979 1.193-.461 1.438-1.638 1.68-2.801.099-.476.198-.948.36-1.369-4.39-1.13-8.7-.78-13.15-.28-.506-1.176-.99-2.354-1.473-3.528-1.498-3.645-2.981-7.253-5.077-10.672Zm.59 14.63c-4.82-13.64-13.95-25.42-26.54-32.68-13.32-7.97-29.57-10.1-44.6-6.46-14.55 3.64-27.43 12.73-35.54 25.37-4.25 6.79-7.73 14.51-8.83 22.5 5.954-.657 11.92-1.07 17.887-1.483 4.846-.335 9.693-.671 14.533-1.137 3.632-.325 7.273-.513 10.912-.701 4.858-.251 9.713-.501 14.538-1.079 16.386-1.117 32.786-2.395 49.169-3.671l8.471-.659Zm-200.2-17.09c11.97 6.48 20.98 17.39 25.57 30.15 2.69.16 5.36.38 8.03.75-.037.232-.071.462-.106.691-.156 1.028-.308 2.037-.594 3.059-1.042.76-2.471 1.03-3.832 1.287-.572.108-1.133.214-1.648.353 1.33 8.86 1.68 17.54-.78 26.25-3.51 13.23-12.13 24.91-23.71 32.19-10.65 6.72-23.58 9.67-36.09 8.03-16.11-1.81-30.98-11.25-39.64-24.94-6.25-9.68-8.98-21.04-8.76-32.5-2.42-.02-4.82-.1-7.23-.28.077-.367.111-.817.148-1.292.097-1.258.208-2.697 1.152-3.278 1.541-.487 3.188-.684 4.814-.877.61-.073 1.218-.146 1.816-.233 1.39-6.54 3.35-12.87 6.78-18.66 7.75-13.54 21.36-23.31 36.66-26.37 12.6-2.59 26.16-.54 37.42 5.67Zm19.769 30.83c-7.08-18.81-25.97-32.08-46.15-31.86-18.18-.19-35.6 10.43-43.83 26.64-2.2 4.2-3.57 8.69-4.72 13.28 7.002-.467 13.996-1.08 20.99-1.693 6.191-.543 12.382-1.086 18.58-1.527 3.774-.088 7.516-.469 11.258-.851 3.893-.396 7.786-.793 11.712-.859 2.094-.16 4.191-.308 6.29-.456 8.655-.612 17.331-1.225 25.87-2.674Z" fill="#000"/><path d="M615.13 476.4c1.79 9.43 1.83 19.44-.85 28.71-4.02 14.67-13.78 27.56-26.86 35.34-11.86 6.95-25.9 9.98-39.53 7.74-16.06-2.38-30.89-11.65-40.06-25.03-7.65-11.07-11.16-24.46-10.6-37.86 2.78-.26 5.55-.53 8.32-.81.58 6.88 2.87 13.16 8.11 17.84 9.26 8.79 25.12 8.57 33.95-.73 5.71-5.52 7.56-12.65 7.15-20.42 4.5-.49 8.95-1.09 13.47-1.39 15.64-.93 31.25-2.54 46.9-3.39ZM430.931 490.81c1.23-.4 2.51-.66 3.76-.97 3.28 11.9 1.31 24.64-4.45 35.44-6.94 12.82-19.63 22.19-33.98 24.89-17.42 3.66-36.18-3.36-47.37-17.1-8.08-9.7-11.83-22.11-11.18-34.67 16.43-1.61 32.94-2.6 49.35-4.39.17 5.54 1.15 10.77 4.71 15.18 5.35 7.13 14.85 10.26 23.42 7.93 7.1-2.26 13-7.85 15.04-15.09 1.18-3.82.53-7.36.7-11.22Z" fill="#fff"/></g><g transform="translate(-161 -83)"><g fill="#000"><path d="M530.96 352.34c21.47-3.31 42.8 3.14 60.6 15.09 12.06 8.19 22.9 19.68 28.97 33.03 1.1 2.96-.3 3.73-2.51 5.27-3.95-2.26-6.87-5.58-10.47-8.29-12.99-9.78-28.03-16.38-43.78-20.25-14.93-3.51-30.56-5.05-45.8-2.8-4.78.41-9.28 1.92-13.97 2.67-2.41.2-5.1-1.21-4.21-4.04 1.9-4.15 4.23-8.5 7.6-11.65 6.04-5.62 15.64-7.85 23.57-9.03ZM383 428.83c13.38-.82 26.33-.61 39.03 4.23 5.85 2.37 11.52 5.91 13.93 12.05 1.38 4.31.91 8.87-1.73 12.61-4.9-.76-9.4-2.6-14.18-3.82-23.13-6.33-47.19-8.01-71.04-5.96-4.88.33-9.86 2.03-14.72 1.78-1.78-.48-1.17-2.2-.97-3.54.88-2.51 3.58-3.86 5.76-5.09 13.75-7.25 28.55-10.65 43.92-12.26Z"/></g></g><g transform="translate(-161 -83)"><path d="M484.8 621.32c16.47 4.71 28.68 20.38 30.53 37.23-2.5-6.68-5.83-12.9-10.89-18-7.03-7.19-17.26-12.19-27.46-11.67-8.01.26-15.78 4.06-20.78 10.34-5.49 6.8-7.7 16.06-6.72 24.66-.69-4.65-1.85-9.1-1.76-13.88.06-8.73 3.26-17.51 9.96-23.32 7.32-6.42 17.9-8.12 27.12-5.36Z" fill="#D31E1E"/><path d="M476.979 628.88c10.2-.52 20.43 4.48 27.46 11.67 5.06 5.1 8.39 11.32 10.89 18 .52 3.48 2.26 6.4-1.37 8.77-8.33.15-16.63.8-24.96 1-12.29.95-24.72.47-36.92 1.94-1.96-1.87-2.34-3.75-2.6-6.38-.98-8.6 1.23-17.86 6.72-24.66 5-6.28 12.77-10.08 20.78-10.34Z" fill="#000"/><path d="M484.479 635.49c12.63 3.09 22.12 13.94 25.51 26.24-18.28.41-36.54 1.67-54.78 2.21-.69-8.6 1.23-17 7.57-23.16 5.82-5.68 13.94-7.02 21.7-5.29Z" fill="#fff"/><path d="M513.96 667.32c-9.3 7.26-23.55 8.73-34.96 9.09-8.63-.08-19.86-.57-26.92-6.15 12.2-1.47 24.63-.99 36.92-1.94 8.33-.2 16.63-.85 24.96-1Z" fill="#D31E1E"/></g><g transform="translate(-161 -83)"/><g transform="translate(-161 -83)"><path d="M484 203.33c31.29-2.08 63.42.11 93.86 7.88 21.56 5.49 42.28 13.94 60.91 26.19 23.4-3.86 47.88.89 69.41 10.37 23.12 10.4 43.83 26.51 60.17 45.85 20.85 24.69 35.23 55.1 38.76 87.38.95 12.2.85 25-1.78 36.99-3.78 18.28-12.57 35.32-26.18 48.2-1.82 1.55-3.02 2.25-5.31.99-14.99-8.28-33.71-8.66-49.62-2.89.98 10.55.3 20.85-4.48 30.47-3.28 6.59-8.89 12.66-15.72 15.6-2.72.9-4.6-1.33-3.52-3.92 3.27-8.18 3-16.77 2.8-25.44-.44-7.85-1.2-15.78-2.88-23.46-7.63.85-15.3.3-22.52-2.41-14.89-5.33-27.38-16.81-37.06-29.03-11.73-14.89-20.51-31.76-27.71-49.24-9.49-23.3-16.01-48.04-20.26-72.81-.69-3.84-.89-7.63-2.11-11.36-20.22-1.09-40.52-1.06-60.76-.37-21.77 1.3-43.45 3.39-64.97 6.93-32.55 5.34-65.57 13.27-96.19 25.67-2.58 1.08-5.01 1.84-6.93 4-6.12 6.58-11.48 14.12-16.26 21.73a258.623 258.623 0 0 0-27.01 59.16c-1.07 3.17-1.51 6.79-3.14 9.7-1.4 1.6-3.41 1.03-4.84-.19-12.99-11.2-23.7-25.13-29.72-41.29-4.68-12.69-6.28-26.46-4.45-39.87 2.63-19.03 11.35-36.55 23.18-51.51 18.98-24.07 45.92-42.47 73.52-55.33 34.62-16.21 72.77-25.18 110.81-27.99Z" fill="#000"/><path d="M516.99 208.52c7.67.67 15.35.68 23 1.75 33.2 3.71 67.56 13.49 95.62 32.08.77.48 1.57.87 2.41 1.17 16.25-3.42 33.91-1.59 49.78 2.96 30.6 8.97 57.12 27.97 77.37 52.39 16.77 20.38 29.32 45.13 34.34 71.12 3.13 16.62 3.5 33.55-.67 50.03-3.76 15.64-11.64 30.17-23.15 41.46-15.86-8.13-35.46-8.95-52.2-3.13-2.06.89-5.57 1.75-5.38 4.58 2.09 12.92-.03 27.98-9.67 37.59 1.68-15.13.45-30.63-2.52-45.52-.7-2.94-1.79-3.79-4.91-3.38-8.98 1.36-17.65-.13-25.83-3.94-11.09-5.17-20.71-14.08-28.38-23.49-12.29-15.07-21.65-33.04-28.86-51.04-9.99-25.05-16.61-51.51-20.61-78.15-.54-2.21.24-6.75-2.47-7.6-7.25-.74-14.58-.79-21.85-1.44-13.65.03-27.4-.55-41.01.65-12.68.38-25.4 1.41-38 2.85-26.88 2.95-53.71 7.68-79.89 14.49-19.93 5.25-39.94 11.81-58.66 20.51-11.33 5.32-22.72 11.66-32.4 19.65-6.3 5.29-12.33 11.65-15.53 19.34-.66 1.84-1.64 3.79-.85 5.74 1.79 2.08 4.64 1.44 5.38-1.21 1.99-5.63 5.27-10.27 9.45-14.47 8.11-8.27 18.65-14.73 28.85-20.09-3.96 5.14-7.57 10.45-10.92 16.01-11.9 19.69-21.34 40.94-27.77 63.04-11.05-10.41-20.1-22.43-25.35-36.78-6.99-18.75-5.76-40.16 1.94-58.51 7.92-19.31 22.32-36.42 38.23-49.72 15.57-13.11 33.49-23.75 52-32.14 32.2-14.54 67.35-23.05 102.53-25.87 12.05-.64 23.89-1.8 35.98-.93Z" fill="rgba(185, 160, 95, 1)"/></g></g></svg>