<svg xmlns:dc="http://purl.org/dc/elements/1.1/" xmlns:cc="http://creativecommons.org/ns#" xmlns:rdf="http://www.w3.org/1999/02/22-rdf-syntax-ns#" xmlns:svg="http://www.w3.org/2000/svg" xmlns="http://www.w3.org/2000/svg" viewBox="0 0 762 762" fill="none"><metadata><rdf:RDF><cc:Work><dc:format>image/svg+xml</dc:format><dc:type rdf:resource="http://purl.org/dc/dcmitype/StillImage"/><dc:title>Adventurer</dc:title><dc:creator><cc:Agent><dc:title>Lisa Wischofsky</dc:title></cc:Agent></dc:creator><dc:source>https://www.instagram.com/lischis_adventures/</dc:source><cc:license rdf:resource="https://creativecommons.org/licenses/by/4.0/"/></cc:Work><cc:License rdf:about="https://creativecommons.org/licenses/by/4.0/"><cc:permits rdf:resource="https://creativecommons.org/ns#Reproduction"/><cc:permits rdf:resource="https://creativecommons.org/ns#Distribution"/><cc:permits rdf:resource="https://creativecommons.org/ns#DerivativeWorks"/><cc:requires rdf:resource="https://creativecommons.org/ns#Notice"/><cc:requires rdf:resource="https://creativecommons.org/ns#Attribution"/></cc:License></rdf:RDF></metadata><mask id="avatarsRadiusMask"><rect width="762" height="762" rx="0" ry="0" x="0" y="0" fill="#fff"/></mask><g mask="url(#avatarsRadiusMask)"><path d="M396.01 164.85c37.82 4.9 74.21 19.64 104.8 42.39 6.15 4.84 12.48 9.33 18.02 14.92 23.77 21.98 42.73 49.02 55.13 78.95 9.35 22.31 14.72 46.04 16.64 70.14 6.62.81 13.05 2.14 19.12 5 15.54 6.93 27.08 20.94 31.78 37.21 2.63 9.56 3.56 19.75 1.72 29.55-2.96 18.76-13.72 36.13-29.37 46.92-10.94 7.65-24.49 12.03-37.86 11.68-5.13-.05-10.04-1.6-15.13-1.79-1.85 2.17-3.23 4.84-4.76 7.25-18.66 29.62-44.57 54.51-74.64 72.4-28.1 16.73-59.9 27.16-92.46 30.32-11.08.7-21.87 2.05-32.98.74-51.69-2.3-102.07-23.44-140.15-58.43-29.03-26.55-50.84-60.83-62.54-98.39-7.09-22.85-10.62-46.78-10.07-70.71.52-40.34 12.53-80.58 33.94-114.76 19.1-30.81 45.91-56.58 77.2-74.83 29.63-17.28 63.35-27.68 97.59-29.87 14.66-1.47 29.44-.37 44.02 1.31Z" fill="#000"/><path d="M363 169.06c48.47-1.39 97.32 14.7 135.81 44.12 6.55 4.06 11.72 9.49 17.36 14.64 24.33 22.63 43.2 50.95 54.93 82.02 7.43 19.61 11.86 40.2 13.56 61.09-8.89.74-17.34 2.34-25.38 6.38-2.19 1.03-1.89 4.95.68 5.23 2.35.23 4.98-1.51 7.24-2.2 14.62-5.37 31.32-4.35 44.78 3.68 11.69 6.78 20.09 18.16 23.89 31.06 2.6 8.25 2.68 17.41 1.76 25.95-2.5 17.35-12.35 33.73-26.73 43.81-15.71 11.33-37.17 14.64-54.93 6.2-3.17-1.43-5.94-3.58-9.08-5.05-2.95-1.09-4.88 2.79-2.7 4.75 3.17 2.76 7.34 4.52 11 6.56-20.14 34.15-49.45 62.7-84.41 81.47-30.2 16.31-64.44 25.53-98.78 26.15-27.63.72-55.33-4.04-81.21-13.72-30.32-11.24-57.84-29.43-80.37-52.6-22.67-23.37-39.92-51.88-50.2-82.77-14.96-44.64-14.91-94.01.27-138.59 11.05-33.06 30.28-63.21 55.37-87.39 29.67-28.73 67.65-48.54 108.13-56.67 12.8-2.52 25.94-4.24 39.01-4.12Z" fill="rgba(118, 57, 0, 1)"/><path d="M605.03 404.4c2.63-.1 3.44 3.8 1.36 4.98-3.69 1.83-7.82 2.77-11.64 4.35-5.82 2.04-11.28 4.76-16.68 7.72 4.29 2.34 8.86 4.74 12.71 7.76 2.58 2.09 4.85 4.35 5.33 7.8-.26 3.59-2.73 6.55-5.45 8.69-5.86 4.66-13.92 7.18-20.79 10.26-1.75.62-4.43 1.99-5.59-.26-1.02-1.74-.06-3.11 1.57-3.87 6.65-3.3 14.86-5.62 20.79-10.16 1.37-1.14 3.39-2.74 3.61-4.62-4.07-5.63-12.42-8.59-18.23-12.09-2.34-1.72-2.29-4.24-.16-6.13 7.27-5.64 16.98-9.26 25.57-12.38 2.42-.83 5.03-1.95 7.6-2.05Z" fill="#000"/><g transform="translate(-161 -83)"><path d="M558.201 453.21c11.47-1.62 23.68.14 34 5.5 7.61 3.93 14.3 10.28 18.11 18 3.35 6.67 3.82 14.64 2.11 21.82-2.1 8.03-7.22 15.16-13.75 20.2-14.96 11.75-36.54 14.35-54.21 7.75-8.42-3.17-16.53-8.89-21.39-16.55-2.81-4.73-5.22-10.36-5.36-15.93-.71-9.54 3.61-19.3 10.27-26.02 8.05-8.38 18.87-12.97 30.22-14.77Z" fill="#000"/><path d="M559.17 459.11c13.97-2.02 29.72 1.64 39.88 11.85 6.6 6.52 10.35 16.95 7.62 26.05-2.06 8.19-7.68 14.49-14.53 19.15-12.44 8.19-28.98 10.02-43.11 5.63-8.63-2.71-17.05-8.19-21.69-16.11-3.02-5-4.14-10.9-3.59-16.69.76-6.83 4.53-13.12 9.38-17.85 7.05-6.72 16.44-10.78 26.04-12.03Z" fill="#fff"/><path d="M369.481 468.71c17.62-2.69 37.91 3.42 47.71 19.13 5.49 8.51 6.28 20 1.93 29.15-2.91 6.32-7.91 11.64-13.7 15.43-7.34 4.75-15.75 7.1-24.42 7.79-14.63.57-29.81-4.29-39.4-15.79-5.22-6.27-8.18-14.2-7.54-22.41.56-8.27 4.61-15.74 10.51-21.44 6.92-6.46 15.65-10.23 24.91-11.86Z" fill="#000"/><path d="M376.55 474.11c9.64-.35 19.56 2.27 27.37 8.02 5.14 3.82 9.44 9.18 11.19 15.41 1.61 6.2 1.04 12.92-2.15 18.54-4.72 8.62-13.66 14.22-22.97 16.71-13.7 3.71-30.16.71-40.8-8.99-6.28-5.66-10.01-13.74-9.23-22.26.73-5.44 3.14-10.68 6.85-14.72 7.34-8.21 18.86-12.64 29.74-12.71Z" fill="#fff"/><path d="M551.461 477.61c3.69-.8 7.51-.7 10.96.96 6.42 3.03 10.48 10.43 8.89 17.48-1.3 7.25-7.89 12.9-15.3 12.85-8.42.47-15.96-6.52-16.34-14.89-.56-7.44 4.55-14.59 11.79-16.4Z" fill="#000"/><path d="M553.619 483.21c4-.67 7.83.59 10.21 3.96 3.04 4.06 2.26 9.86-1.38 13.27-4.4 3.95-11.88 3.34-15.16-1.77-4-5.83-.62-14.19 6.33-15.46Z" fill="#fff"/><path d="M618.701 484.19c1.69.32 3.64-.24 4.63 1.46 1.61 2.47 2.37 5.58 2.85 8.46 1.44 10.51-2.22 21.79-9.83 29.24-3.27 3.02-7.82 5.97-12.38 6.11-2.73.04-4.27-2.62-2.33-4.8 3.27-1.61 6.54-2.11 9.44-4.56 6.29-5.26 9.64-14.02 9.57-22.11-.01-4.02-1.58-7.21-2.66-10.96.23-.95.47-1.9.71-2.84ZM380.44 488.46c4.44-.82 9.2.5 12.68 3.35 5.75 4.58 7.69 13.08 4.69 19.76-2.56 5.93-8.24 10.22-14.82 10.23-8.45.57-15.94-6.42-16.44-14.79-.99-8.72 5.26-17.04 13.89-18.55Z" fill="#000"/><path d="M379.531 494.79c5.08-1.91 10.94.6 12.92 5.67 2.83 6.48-1.52 14.71-8.68 15.43-4.25.47-7.61-1.26-9.91-4.82-3.44-5.89-.79-13.89 5.67-16.28Z" fill="#fff"/><path d="M330.441 503.6c.44 4.06-1.41 7.43-1.67 11.39-.24 6.08 2.47 12.14 7.29 15.89 2.44 1.9 5.12 2.82 7.78 4.29 1.95.85 1.84 2.03 1.58 3.92-1.51 1.78-3.31 1.46-5.31.8-7.28-2.71-13.55-8.6-15.95-16.08-2.04-6.12-1.77-13.6 1.36-19.29 1.26-1.87 3.04-.88 4.92-.92Z" fill="#000"/></g><g transform="translate(-161 -83)"><g fill="#000"><path d="M501.99 384.96c9.91.12 19.87 3.23 28.83 7.31 3.36 1.88 7.05 4.01 7.31 8.29-5.14-.86-10.14-2.06-15.38-2.28-11.6-.68-23.13 1.36-33.25 7.23-2.54 1.41-4.95 3.26-7.64 4.35-1.8.27-3.92-1.99-3.94-3.73-.18-5.81 1.95-11.92 6.53-15.7 5.03-4.23 11.15-5.3 17.54-5.47ZM414.03 402.61c5.81.15 10.93 5.3 12.51 10.64.8 2.63-.46 5.72-3.53 5.61-8.82.21-18.21.03-26.81 2.26-7.52 2.01-14.74 6.71-21.36 10.74-1.22.81-2.57.96-3.98 1.22.33-1.93.64-3.66 1.94-5.21 3.28-4.33 6.78-8.58 10.74-12.3 5.88-5.17 13.01-8.96 20.32-11.66 3.23-1.11 6.76-1.58 10.17-1.3Z"/></g></g><g transform="translate(-161 -83)"><path d="M505.05 609.63c4.67 1.28 8.87 4.71 12.16 8.17 1.37 1.66 3.56 3.88 3.05 6.2-.46 2.46-3.75 3.02-5.05.83-2.59-3.53-5.52-6.54-9.45-8.58-2.27-1.46-6.72-.53-6.61-4.14.48-3.02 3.52-2.9 5.9-2.48ZM498 622.96c4.97 1.51 8.45 5.86 8.78 11.06 1.3 13.18-9.39 25.8-21.75 29.19-12.46 3.66-28.87-1.1-35.07-13.17-2.47-4.21-3.73-9.26-1.94-13.96 1.78-4.05 5.82-5.66 9.97-6.1 5.09-.59 9.55 1.11 13.9 3.54 3.82-4.04 7.74-7.59 12.91-9.81 4.07-1.76 8.96-1.98 13.2-.75Z" fill="#000"/><path d="M498.91 630.09c3.25 3.38 2.26 9.5.47 13.39-4.28 10.05-15.11 16.13-25.9 14.99-7.3-1.19-14.31-4.11-18.2-10.76-1.43-2.56-3.43-6.58-2.01-9.44 2.28-3.76 8.77-3.17 12.28-1.81 2.75.77 5.53 4.09 8.39 3.59 3.67-3.56 6.48-7.47 11.18-9.88 4.32-2.4 9.63-3.3 13.79-.08Z" fill="#8F2E45"/></g><g transform="translate(-161 -83)"/><g transform="translate(-161 -83)"><path d="M659.42 36.42c1.88-.59 3.59-1.19 5.56-.58.87.92 1.68 1.9 2.44 2.93-3.42 5.06-6.01 10.48-8.69 15.95-12.22 25.23-20.41 54.18-19.54 82.36 14.8-1.49 29.92-1.55 44.81-1.19 20.39.41 40.21 3.24 60.24 6.83 1.95.42 3.48 1.07 3.69 3.29.11 3.07-2.87 3.52-4.95 5-11.35 6.77-21.47 15.87-30.98 24.99-15.02 14.51-26.84 32.82-36.53 51.22 30.01 5.2 58.94 19.94 83.13 38.16 2 1.54 4.54 3.24 5.72 5.51-.49 4.16-4.62 4.34-7.75 5.73-19.34 6.6-36.87 16.49-54.05 27.41 12.87 7.93 25.13 16.95 36.31 27.14 1.62 1.69 3.56 3.07 3.01 5.72-.17 1.85-2.91 2.88-4.35 3.62-7.78 3.39-15.78 6.43-23.83 9.12-2.25.76-3.23-.07-4.44-1.88-10.35-16.7-24.88-31.41-39.8-44.08-12.12-10.19-25.26-19.49-39.34-26.76-2.63-1.31-5.02-2.57-8.04-2.55-5.66 0-11.38.22-17.04.52-31.98 2.5-63.58 10.35-92.98 23.17-15.63 6.95-31.29 15.52-44.41 26.58-2.06 1.61-4.08 4.07-6.59 4.91-5.84-.87-11.53-3.37-17.05-5.39-18.8-6.99-35.07-19.92-48.92-34.17-11.07-10.95-20.32-23.26-28.72-36.33-6.21-9.48-11.98-19.09-16.47-29.52-1.35-3.24-3.13-6.64-3.66-10.13.03-1.27 1.24-3.6 2.76-3.18 3.12 1 5.98 2.84 8.97 4.18 5.95 2.87 12.19 4.68 18.56 6.35 12.07 3.37 24.58 5.79 36.9 8.26-1.22-7.7-1.19-15.42-.84-23.18 1.36-21.95 7.11-43.14 15.36-63.45 6.36-15.81 14.59-30.82 24.27-44.83 10.5-15.13 22.52-29.48 36.6-41.4 2.59-1.92 5.45-4.42 8.73-2.24 2.16.95 1.11 3.69.98 5.48-3.73 17.06-.34 34.65 4.34 51.17 2.58 9.3 6.68 17.9 10.94 26.53 3.57-4.73 7.39-9.12 11.56-13.33 20.76-21 45.01-39.18 69.72-55.27 20.28-12.69 41.84-24.51 64.37-32.67Z" fill="#000"/><path d="M658.74 42.89c-13.93 25.15-23.31 52.27-25.15 81.11-.23 5.43-.08 10.88-.11 16.31 1.06.84 2.06 2.5 3.49 2.48 6.34-.46 12.64-1.45 19.03-1.47 11.29.01 22.53-.29 33.8.65 16.34.46 32.31 2.84 48.39 5.6-14.22 9.19-27.15 20.55-38.6 32.99-11.62 13.42-21.35 28.79-29.59 44.49-.84 1.79-2.11 3.88-1 5.83 1.09 1.27 2.48 1.14 4 1.45 6.07.75 11.98 2.28 17.81 4.11 23.61 7.44 45.88 19.46 65.48 34.54-7.37 2.62-14.68 5.33-21.78 8.63-11.78 5.22-23.15 12-34.08 18.82-2.3 1.72-7.83 3.98-5.62 7.67 3.14 1.96 6.6 3.32 9.63 5.48 10.61 7.16 20.98 14.93 30.25 23.78-6.92 3.08-14.03 5.65-21.17 8.19-10.01-15.57-22.53-28.52-36.26-40.81-14.82-12.9-31-24.61-48.78-33.08-2.07-1.03-4.22-1.1-6.48-1.07-37.47.07-74.99 8.41-109.48 22.91-19.05 8.2-37.07 18.24-52.66 32.05-6.1-1.86-12.09-4.07-17.98-6.52-11.45-4.89-21.52-11.87-30.92-19.97-12.08-10.66-23.1-22.44-32.36-35.65-9.32-13.5-18.34-26.55-24.8-41.73 18.11 8.03 38.79 11.36 58.18 15.01 2.62.06 6.37 1.91 7.43-1.52-.16-2.73-.85-5.43-1.16-8.15-1.38-9.74-.01-20.28 1.14-30.04 5.2-33.79 18.61-66.43 38.2-94.43 10.21-14.56 21.56-28.03 35.14-39.59-1.4 8.92-1.38 18.06-.6 27.04 1.98 16.19 6.47 32.3 13.82 46.91 1.72 3.24 3.05 6.96 5.36 9.82 1.05 1.28 3.52 1.71 4.41.03 5.22-8.96 12.75-15.69 20.2-22.87 19.17-17.78 40.21-33.6 62.13-47.81 19.22-12.03 39.43-23.2 60.69-31.19Z" fill="rgba(89, 36, 84, 1)"/></g></g></svg>