<svg xmlns:dc="http://purl.org/dc/elements/1.1/" xmlns:cc="http://creativecommons.org/ns#" xmlns:rdf="http://www.w3.org/1999/02/22-rdf-syntax-ns#" xmlns:svg="http://www.w3.org/2000/svg" xmlns="http://www.w3.org/2000/svg" viewBox="0 0 762 762" fill="none"><metadata><rdf:RDF><cc:Work><dc:format>image/svg+xml</dc:format><dc:type rdf:resource="http://purl.org/dc/dcmitype/StillImage"/><dc:title>Adventurer</dc:title><dc:creator><cc:Agent><dc:title>Lisa Wischofsky</dc:title></cc:Agent></dc:creator><dc:source>https://www.instagram.com/lischis_adventures/</dc:source><cc:license rdf:resource="https://creativecommons.org/licenses/by/4.0/"/></cc:Work><cc:License rdf:about="https://creativecommons.org/licenses/by/4.0/"><cc:permits rdf:resource="https://creativecommons.org/ns#Reproduction"/><cc:permits rdf:resource="https://creativecommons.org/ns#Distribution"/><cc:permits rdf:resource="https://creativecommons.org/ns#DerivativeWorks"/><cc:requires rdf:resource="https://creativecommons.org/ns#Notice"/><cc:requires rdf:resource="https://creativecommons.org/ns#Attribution"/></cc:License></rdf:RDF></metadata><mask id="avatarsRadiusMask"><rect width="762" height="762" rx="0" ry="0" x="0" y="0" fill="#fff"/></mask><g mask="url(#avatarsRadiusMask)"><path d="M396.01 164.85c37.82 4.9 74.21 19.64 104.8 42.39 6.15 4.84 12.48 9.33 18.02 14.92 23.77 21.98 42.73 49.02 55.13 78.95 9.35 22.31 14.72 46.04 16.64 70.14 6.62.81 13.05 2.14 19.12 5 15.54 6.93 27.08 20.94 31.78 37.21 2.63 9.56 3.56 19.75 1.72 29.55-2.96 18.76-13.72 36.13-29.37 46.92-10.94 7.65-24.49 12.03-37.86 11.68-5.13-.05-10.04-1.6-15.13-1.79-1.85 2.17-3.23 4.84-4.76 7.25-18.66 29.62-44.57 54.51-74.64 72.4-28.1 16.73-59.9 27.16-92.46 30.32-11.08.7-21.87 2.05-32.98.74-51.69-2.3-102.07-23.44-140.15-58.43-29.03-26.55-50.84-60.83-62.54-98.39-7.09-22.85-10.62-46.78-10.07-70.71.52-40.34 12.53-80.58 33.94-114.76 19.1-30.81 45.91-56.58 77.2-74.83 29.63-17.28 63.35-27.68 97.59-29.87 14.66-1.47 29.44-.37 44.02 1.31Z" fill="#000"/><path d="M363 169.06c48.47-1.39 97.32 14.7 135.81 44.12 6.55 4.06 11.72 9.49 17.36 14.64 24.33 22.63 43.2 50.95 54.93 82.02 7.43 19.61 11.86 40.2 13.56 61.09-8.89.74-17.34 2.34-25.38 6.38-2.19 1.03-1.89 4.95.68 5.23 2.35.23 4.98-1.51 7.24-2.2 14.62-5.37 31.32-4.35 44.78 3.68 11.69 6.78 20.09 18.16 23.89 31.06 2.6 8.25 2.68 17.41 1.76 25.95-2.5 17.35-12.35 33.73-26.73 43.81-15.71 11.33-37.17 14.64-54.93 6.2-3.17-1.43-5.94-3.58-9.08-5.05-2.95-1.09-4.88 2.79-2.7 4.75 3.17 2.76 7.34 4.52 11 6.56-20.14 34.15-49.45 62.7-84.41 81.47-30.2 16.31-64.44 25.53-98.78 26.15-27.63.72-55.33-4.04-81.21-13.72-30.32-11.24-57.84-29.43-80.37-52.6-22.67-23.37-39.92-51.88-50.2-82.77-14.96-44.64-14.91-94.01.27-138.59 11.05-33.06 30.28-63.21 55.37-87.39 29.67-28.73 67.65-48.54 108.13-56.67 12.8-2.52 25.94-4.24 39.01-4.12Z" fill="rgba(236, 173, 128, 1)"/><path d="M605.03 404.4c2.63-.1 3.44 3.8 1.36 4.98-3.69 1.83-7.82 2.77-11.64 4.35-5.82 2.04-11.28 4.76-16.68 7.72 4.29 2.34 8.86 4.74 12.71 7.76 2.58 2.09 4.85 4.35 5.33 7.8-.26 3.59-2.73 6.55-5.45 8.69-5.86 4.66-13.92 7.18-20.79 10.26-1.75.62-4.43 1.99-5.59-.26-1.02-1.74-.06-3.11 1.57-3.87 6.65-3.3 14.86-5.62 20.79-10.16 1.37-1.14 3.39-2.74 3.61-4.62-4.07-5.63-12.42-8.59-18.23-12.09-2.34-1.72-2.29-4.24-.16-6.13 7.27-5.64 16.98-9.26 25.57-12.38 2.42-.83 5.03-1.95 7.6-2.05Z" fill="#000"/><g transform="translate(-161 -83)"><path d="M574.47 426.48c13.52 3.69 25.28 11.87 34.03 22.75 7.5-5.17 14.74-10.73 22.37-15.71 1.02.43 2.04.86 3.07 1.28-.34 2.1-.24 3.64-2.24 4.9-6.6 4.79-13.31 9.45-19.92 14.23 3.77 6.35 7.07 12.73 8.56 20.03 1.59 7.69 2.58 16.11 1.14 23.88-.44 2.76-3.06 3.5-5.47 3.7-19.7 1.03-39.42 3.02-59.01 5.35-11.07 1.46-22.16 1.93-33.22 3.58-4.5.68-9.03 1.18-13.54 1.79-4.99.7-9.54 1.77-14.54.33-4.84-13.86-5.54-28.92-1.07-42.97 4.7-15.08 15.13-28.21 28.7-36.27 15.07-9.25 34.17-11.67 51.14-6.87Z" fill="#000"/><path d="M565.47 430.38c17.56 2.52 33.65 13.22 42.62 28.54 6.6 11.12 9.16 23.82 8.14 36.67-4.76.4-9.48.97-14.25 1.18-18.01 1.19-35.9 3.32-53.81 5.48 1.05-2.96 2.25-6.07 2.52-9.21.8-9.37-4.1-18.82-12.31-23.44-5.31-3.21-11.43-3.75-17.45-2.72-11.6 2.17-20.3 13.34-19.52 25.13 0 6.06 2.64 11.12 6.32 15.74-2.43.24-4.86.49-7.3.74-4.69-14.01-4.17-28.8 1.6-42.39 6.22-14.87 18.61-26.86 33.74-32.46 9.48-3.74 19.65-4.48 29.7-3.26Z" fill="#fff"/><path d="M416.519 455.44c12.78 8.07 21.86 21.58 24.51 36.47 1.39 8.37 1.07 16.97-1.24 25.15-5.34 1.09-10.4.57-15.79.57-24.04-.24-48-.16-72 1.46-5.87-.14-12.63 1.57-17.84-1.24-.94-4.53-2.07-9.19-2.27-13.82-.33-10.11 2.18-19.99 6.83-28.94-6-3.98-12.33-7.55-18.19-11.72-1.91-1.41-1.7-2.69-.84-4.69 2.76-1.07 4.51.51 6.78 1.81 5.07 3.31 10.17 6.56 15.27 9.82 7.71-10.76 18.85-18.63 31.73-21.84 14.52-3.7 30.44-1.13 43.05 6.97Z" fill="#000"/><path d="M400.8 454.53c12.36 3.61 23.04 12.14 29.24 23.44 5.79 10.51 7.71 22.67 5.07 34.42l-5.61.12c2.13-4.63 3.58-9.36 2.88-14.52-.91-8.64-7.3-16.11-15.55-18.64-3.85-1.06-7.94-1.15-11.81-.2-9.02 2.14-16.25 10.53-16.65 19.85-.47 4.7.89 8.93 2.74 13.17-13.38.11-26.76.61-40.1 1.61-3.69.2-7.91.69-11.51-.24-1.64-3.05-1.63-7.15-1.78-10.54-.55-13.95 5.57-28.01 15.83-37.42 12.47-11.6 30.91-16.01 47.25-11.05Z" fill="#fff"/></g><g transform="translate(-161 -83)"><path d="M582.3 370.69c14.06 7.04 27.75 17.35 36.57 30.53 2.05 2.95-1.4 6.24-4.23 4.15-10.56-6.54-22.24-11.16-34.46-13.42-35.66-6.86-74.47 5.14-98.23 33.03-1.67 2.05-4.03 3.59-6.28 1.25-1.68-2.6-2.27-6.05-3.3-8.95-1.92 4.71-3.86 9.5-6.21 14.02-1.55 3.23-6 1.12-7.03-1.42-3.06-6.88-6.21-13.74-9.02-20.73.01 5.63.01 11.25.04 16.88-.19 2.06.27 4.35-2.11 5.22-2.06.23-4.36-1.03-5.3-2.91-3.26-5.88-6.24-11.93-9.49-17.82.96 5.51 2.6 10.99 3.1 16.55.12 1.94-2.28 3.44-4.02 2.36-18.54-7.4-38.31-11.49-58.33-10.09-12.5.92-26.14 4.63-36 12.68-3.09 2.34-5.2 5.51-7.97 8.15-1.65.72-3.27-.24-4.88-.65.08-1.91.11-3.75.73-5.58 6.86-20.67 20.43-39.8 39.98-50.1 13.56-7.32 30.17-9.03 44.62-3.35 11.89 4.55 20.95 13.32 27.67 23.95 2.31-2.84 4.25-6.03 6.75-8.71 1.62-1.56 4.62-1.55 5.63.72 2.52 5.15 4.68 10.51 6.98 15.78 1.49-7.42 3.06-14.81 4.43-22.24.33-1.5.6-3.23 1.58-4.45 1.65-1.25 2.9-.28 4.65.1.27.86.53 1.71.8 2.56 2.08-4.75 4.75-9.11 8.44-12.78 9.1-9.43 21.82-14.25 34.5-16.48 23.85-3.69 48.86 1.12 70.39 11.75Z" fill="#000"/></g><g transform="translate(-161 -83)"><path d="M526 559.6c18.01-.01 37.23 2.15 53.99 9.09-52.2 7.17-107.15 15.07-158.98 22.2 8.03-6.99 17.68-12.32 27.44-16.47 12.23-5.1 26.26-9.18 39.59-7.43.98.15 1.86.04 2.63-.34 10.24-5.91 23.77-6.7 35.33-7.05Z" fill="#D31E1E"/><path d="M579.989 568.69c2.42 1 1.92 3.4 1.38 5.45-6.78 13.35-16.08 25.18-28.35 33.9-17.19 12.49-38.88 18.4-60.02 17.58-26.81-.96-53.07-12.04-73.44-29.31-.4-2.42-.49-3.71 1.45-5.42 51.83-7.13 106.78-15.03 158.98-22.2Z" fill="#000"/><path d="M581.371 574.14c-1.11 4.61-1.85 9.19-3.65 13.62-5.36 13.94-16.05 25.4-28.38 33.56-13.59 8.87-29.26 14.15-45.36 15.89-19.66 2.09-40.79-1.09-58.01-11.18-11.76-6.82-21.37-16.99-26.41-29.72 20.37 17.27 46.63 28.35 73.44 29.31 21.14.82 42.83-5.09 60.02-17.58 12.27-8.72 21.57-20.55 28.35-33.9Z" fill="#D31E1E"/><path d="M573.86 575.51c-8.17 15.05-20.98 27.46-36.37 34.99-12.46 6.12-26.6 9.44-40.49 9.19-24.71.18-49.01-9.01-68.58-23.87 47.93-6.59 97.73-13.8 145.44-20.31Z" fill="#fff"/></g><g transform="translate(-161 -83)"/><g transform="translate(-161 -83)"><path d="M440.21 189.23c1.82-.15 3.61-1.05 4.73.89 1.51 2.06 1.09 3.45-.62 5.17-8.4 8.19-15.44 17.64-18.3 29.22 30.03-13.11 63.35-19.56 95.98-20.93 9.35-.74 18.62-.76 27.98-.03 27.24 1.14 54.75 5.74 80.54 14.74 18.43 6.49 36.95 15.6 51.95 28.27 12.36 10.44 22.4 23.27 26.58 39.15 3.77-.25 7.29-.41 10.68 1.56 7.23 3.84 12.41 12.03 16.03 19.14 7.23 14.48 11.37 30.79 14.44 46.61 3.35 17.18 4.82 34.53 5.84 51.98.07 12.96.52 26.14-.8 39.03-.43 4.23-.31 8.7-1.35 12.83-.95 2.98-4.37 2.73-6.88 3.03-8.27.28-17.84 1.75-24.97 6.2-1.32 2.53-1.49 5.65-2.73 8.24-2.01 2.29-4.83 3.94-7.26 5.76-6.26 4.36-12.21 9.15-18.46 13.52-1.79 1.14-4.14 2.68-5.91.62-1.39-1.23-1.39-2.49-1.11-4.22 3.22-19.56 2.88-40.22 2.25-60 .09-7.78-.9-15.44-1.36-23.21-6.69-.5-13.21-2.12-19.27-5.02-14.46-6.84-26.51-18.83-34.18-32.79-6.09-11.04-9.41-23.41-8.23-36.06-52.79 8.56-106.29 13.25-159.78 13.37-10.76-.32-21.48.01-32.23-.92-14.32-.65-28.59-1.9-42.76-4.03-11.24-1.78-22.65-4.02-33.28-8.1-4.9 5.03-8.02 10.78-11.92 16.58-2.31 3.46-3.93 7.34-6.34 10.71-1.04 1.6-3.14 1.8-4.36.29-1.2-2.37-1.6-5.21-2.13-7.8-2.35-12.43-1.19-25.41 4.07-36.97-2.41-4.53-4.62-9.07-5.82-14.09-3.86-14.97-.72-30.8 6.45-44.27 9.36-17.81 24.92-32.5 41.64-43.39 18.57-12.13 39.26-20.34 60.89-25.08Z" fill="#000"/><path d="M435.92 196.13c-6.96 8.05-12.92 16.5-15.33 27.05-.33 2-1.3 4.59-.17 6.42 1.45.75 3.07 1.21 4.61 1.72 41.78-18.93 88.5-24.52 133.96-21.54 29.03 2.24 58.42 8.33 85.13 20.14 15.2 6.8 30.37 15.94 42 27.97 8.88 9.11 15.81 20.3 18.03 32.97.59.44 1.18.89 1.78 1.33 4.08-.71 7.57-1.75 11.44.46 6.46 3.65 10.86 11.47 14.01 17.96 7.34 15.7 11.46 33.35 14.37 50.38 2.02 12.58 3.51 25.29 4.06 38.01.1 8.02.84 15.98.57 24-.42 10.49-.57 20.96-1.8 31.4-7.76.33-15.22.97-22.58 3.66-2.81 1.06-6.39 2.23-8.38 4.57-1.53 2.71-1.97 6.06-2.97 9.01-7.28 5.15-14.53 10.35-21.76 15.59 1.56-9.37 1.41-18.77 2.13-28.21.5-9.4-.6-18.64-.7-28.02-.24-5.39-.22-10.67-.79-16.01-.52-4.67-.51-8.99-2.02-13.48-5.68-.78-11.19-1.07-16.57-3.26-15.98-5.83-29.28-19.16-36.96-34.15-5.18-10.62-8.45-22.91-5.57-34.66-2.58-3.44-7.28-2.27-10.91-1.73-44.79 7.18-90.13 11.61-135.5 12.41-13.01.59-26 .54-39.01-.09-10.01-.16-20-.54-29.97-1.44-17.05-1.48-34.61-3.56-51.02-8.55-5.89-1.88-12.04-4.3-17.01-8.05-10.89-11.01-16.12-27.82-12.69-43 2.91-15.95 12.59-30.49 23.89-41.81 20.34-20.4 48.01-34.01 75.73-41.05ZM340.46 321.25c3.14 4.26 7.23 7.13 11.81 9.64-4.99 6.61-9.55 13.52-14.01 20.49-1.13-8.99-1.42-17.78 1.2-26.56.33-1.19.67-2.38 1-3.57Z" fill="rgba(185, 160, 95, 1)"/><path d="M718.21 480.6c2 1.12 1.55 3.34-.03 4.59-7.96 6.81-16.37 13-24.89 19.08-1.55.96-3.29 1.85-4.72.17-1.79-1.75.01-3.31 1.33-4.57 3.66-3.04 7.78-5.52 11.6-8.35 4.08-2.92 7.87-6.18 11.84-9.23 1.53-1.01 2.91-2.33 4.87-1.69Z" fill="#000"/></g></g></svg>