<svg xmlns:dc="http://purl.org/dc/elements/1.1/" xmlns:cc="http://creativecommons.org/ns#" xmlns:rdf="http://www.w3.org/1999/02/22-rdf-syntax-ns#" xmlns:svg="http://www.w3.org/2000/svg" xmlns="http://www.w3.org/2000/svg" viewBox="0 0 762 762" fill="none"><metadata><rdf:RDF><cc:Work><dc:format>image/svg+xml</dc:format><dc:type rdf:resource="http://purl.org/dc/dcmitype/StillImage"/><dc:title>Adventurer</dc:title><dc:creator><cc:Agent><dc:title>Lisa Wischofsky</dc:title></cc:Agent></dc:creator><dc:source>https://www.instagram.com/lischis_adventures/</dc:source><cc:license rdf:resource="https://creativecommons.org/licenses/by/4.0/"/></cc:Work><cc:License rdf:about="https://creativecommons.org/licenses/by/4.0/"><cc:permits rdf:resource="https://creativecommons.org/ns#Reproduction"/><cc:permits rdf:resource="https://creativecommons.org/ns#Distribution"/><cc:permits rdf:resource="https://creativecommons.org/ns#DerivativeWorks"/><cc:requires rdf:resource="https://creativecommons.org/ns#Notice"/><cc:requires rdf:resource="https://creativecommons.org/ns#Attribution"/></cc:License></rdf:RDF></metadata><mask id="avatarsRadiusMask"><rect width="762" height="762" rx="0" ry="0" x="0" y="0" fill="#fff"/></mask><g mask="url(#avatarsRadiusMask)"><path d="M396.01 164.85c37.82 4.9 74.21 19.64 104.8 42.39 6.15 4.84 12.48 9.33 18.02 14.92 23.77 21.98 42.73 49.02 55.13 78.95 9.35 22.31 14.72 46.04 16.64 70.14 6.62.81 13.05 2.14 19.12 5 15.54 6.93 27.08 20.94 31.78 37.21 2.63 9.56 3.56 19.75 1.72 29.55-2.96 18.76-13.72 36.13-29.37 46.92-10.94 7.65-24.49 12.03-37.86 11.68-5.13-.05-10.04-1.6-15.13-1.79-1.85 2.17-3.23 4.84-4.76 7.25-18.66 29.62-44.57 54.51-74.64 72.4-28.1 16.73-59.9 27.16-92.46 30.32-11.08.7-21.87 2.05-32.98.74-51.69-2.3-102.07-23.44-140.15-58.43-29.03-26.55-50.84-60.83-62.54-98.39-7.09-22.85-10.62-46.78-10.07-70.71.52-40.34 12.53-80.58 33.94-114.76 19.1-30.81 45.91-56.58 77.2-74.83 29.63-17.28 63.35-27.68 97.59-29.87 14.66-1.47 29.44-.37 44.02 1.31Z" fill="#000"/><path d="M363 169.06c48.47-1.39 97.32 14.7 135.81 44.12 6.55 4.06 11.72 9.49 17.36 14.64 24.33 22.63 43.2 50.95 54.93 82.02 7.43 19.61 11.86 40.2 13.56 61.09-8.89.74-17.34 2.34-25.38 6.38-2.19 1.03-1.89 4.95.68 5.23 2.35.23 4.98-1.51 7.24-2.2 14.62-5.37 31.32-4.35 44.78 3.68 11.69 6.78 20.09 18.16 23.89 31.06 2.6 8.25 2.68 17.41 1.76 25.95-2.5 17.35-12.35 33.73-26.73 43.81-15.71 11.33-37.17 14.64-54.93 6.2-3.17-1.43-5.94-3.58-9.08-5.05-2.95-1.09-4.88 2.79-2.7 4.75 3.17 2.76 7.34 4.52 11 6.56-20.14 34.15-49.45 62.7-84.41 81.47-30.2 16.31-64.44 25.53-98.78 26.15-27.63.72-55.33-4.04-81.21-13.72-30.32-11.24-57.84-29.43-80.37-52.6-22.67-23.37-39.92-51.88-50.2-82.77-14.96-44.64-14.91-94.01.27-138.59 11.05-33.06 30.28-63.21 55.37-87.39 29.67-28.73 67.65-48.54 108.13-56.67 12.8-2.52 25.94-4.24 39.01-4.12Z" fill="rgba(118, 57, 0, 1)"/><path d="M605.03 404.4c2.63-.1 3.44 3.8 1.36 4.98-3.69 1.83-7.82 2.77-11.64 4.35-5.82 2.04-11.28 4.76-16.68 7.72 4.29 2.34 8.86 4.74 12.71 7.76 2.58 2.09 4.85 4.35 5.33 7.8-.26 3.59-2.73 6.55-5.45 8.69-5.86 4.66-13.92 7.18-20.79 10.26-1.75.62-4.43 1.99-5.59-.26-1.02-1.74-.06-3.11 1.57-3.87 6.65-3.3 14.86-5.62 20.79-10.16 1.37-1.14 3.39-2.74 3.61-4.62-4.07-5.63-12.42-8.59-18.23-12.09-2.34-1.72-2.29-4.24-.16-6.13 7.27-5.64 16.98-9.26 25.57-12.38 2.42-.83 5.03-1.95 7.6-2.05Z" fill="#000"/><g transform="translate(-161 -83)"><path d="M550.3 424.38c22.91-2.41 46.19 7.99 59.51 26.79 8.38 11.53 12.6 25.62 12.34 39.84-.45 10.96-3.32 21.75-8.93 31.21-8.53 14.65-23.03 25.87-39.46 30.13-13.66 3.68-28.41 2.77-41.51-2.57-13.65-5.57-25.24-15.76-32.37-28.67-7.41-12.95-9.7-28.21-7.34-42.87 2.24-13.11 8.51-25.37 17.91-34.79 10.63-10.77 24.77-17.58 39.85-19.07Z" fill="#000"/><path d="M549.26 430.26c15.15-1.85 30.28 1.89 42.62 10.89 15.43 11.05 25 29.84 24.48 48.85.05 22.69-14.12 44.35-34.86 53.52-10.79 4.85-22.81 6.65-34.5 4.52-16.4-2.64-31.49-12.63-40.35-26.67-5.6-8.78-8.74-18.95-9.37-29.32-.6-14.46 4.23-29.16 13.41-40.36 9.45-11.75 23.64-19.57 38.57-21.43Z" fill="#fff"/><path d="M381.24 447.1c12.75-1.33 25.88 1.93 36.49 9.13 12.44 8.34 21.16 21.91 23.47 36.73 1.17 8.18.85 16.9-1.66 24.82-3.88 13.03-12.79 24.38-24.49 31.29-10.44 6.22-22.99 8.89-35.05 7.23-15.79-1.81-30.35-10.99-39.02-24.28-5.54-8.32-8.46-18.03-9.11-27.97-.3-12.31 3.26-24.64 10.57-34.6 9.04-12.53 23.43-20.8 38.8-22.35Z" fill="#000"/><path d="M376.5 453.67c18.86-4.33 39.25 3.64 50.42 19.36 7.92 11.03 11.42 25.76 8.17 39.05-2.03 9.76-7.16 18.79-14.44 25.58-8.03 7.66-18.61 12.28-29.64 13.28-19.88 1.83-39.68-9.53-48.32-27.49-7.78-15.66-6.41-34.9 3.48-49.31 7.02-10.4 18.06-17.87 30.33-20.47Z" fill="#fff"/><path d="M576.41 464.4c5.74-1.68 12.29-1.2 17.67 1.49 9.98 4.7 16.69 17.39 12.92 28.14-2.09 8.4-8.81 15.23-17.18 17.45-6.55 1.67-13.68.8-19.44-2.84-8.89-5.49-13.54-16.73-10.71-26.86 2.08-8.31 8.57-14.91 16.74-17.38ZM408.46 478.49c12.74-1.61 25.04 8.55 25.32 21.49 1.08 12.38-9.26 24.22-21.78 24.29-12.48.61-23.88-9.65-23.87-22.26-.71-11.8 8.69-22.33 20.33-23.52Z" fill="#000"/></g><g transform="translate(-161 -83)"><g fill="#000"><path d="M456.01 380.37c2.26-.07 2.85 1.7 2.65 3.64-.5 4.68-.77 9.78-2.32 14.23-1.33.39-2.66.58-4.03.82-1.12-4.8-.01-10.22.71-15.09.36-1.71.77-3.82 2.99-3.6ZM476.79 386.65c.03 3.21-.36 6.36-.67 9.55 41.69.52 83.32.38 125.01.75 2.13.04 3.96.86 5.89 1.64-.59 1.48-.22 3.83-2.24 4.09-8.05 1.31-16.58.52-24.74.88-17.35.62-34.71.99-52.06 1.53-17.03.2-34.01 1.25-51.05 1.42-3.29.39-6.05-2.72-7.2-5.47.02-4.49 1.02-9.15 2.06-13.5 1.28-2.48 2.83-1.67 5-.89ZM439.84 392.18c-.11 4.87-.05 10.81-2.28 15.24-3.22 1.5-7.12 1.79-10.59 2.47-25.65 4.7-51.32 9.35-76.96 14.09-4.24.69-8.7 2.15-12.99 2.04-2.63-.48-3.33-3.75-.87-5.01 3.2-1.41 6.95-1.74 10.33-2.58 29.1-6.7 58.15-13.59 87.24-20.32.41-1.91.8-3.81 1.27-5.7 1.61-.21 3.23-.24 4.85-.23Z"/></g></g><g transform="translate(-161 -83)"><path d="M495.22 560.98c15.47 1.86 31.27 5.52 44.44 14.2 7.06 4.63 13.5 11.35 15.37 19.82 2.36 8.6-3.62 18.23-11.69 21.37-7.22 3.03-14.02 1.8-21.35.17-5.96-.95-11.95-1.6-17.99-1.84-22.56-.95-45.14.85-67.19 5.75-5.75 1.01-11.12 3.3-16.8 3.71-6.48.14-13.08-3.06-16.8-8.41-3.08-4.19-4.42-9.63-4.29-14.77.61-7.76 5.39-14.89 11.17-19.87 9.78-8.61 22.92-13.67 35.41-16.81 16.28-3.82 33.07-4.79 49.72-3.32Z" fill="#000"/><path d="M505.97 568.6c-10.26 7.49-23.29 11.5-35.8 12.93-14.13 1.18-28.18.17-41.49-5.01 8.86-4.74 19.44-6.95 29.27-8.73 16.06-2.16 32.07-2.4 48.02.81Z" fill="#fff"/><path d="M513.77 570.3c11.07 3.23 22.56 7.72 30.43 16.52 4.18 4.76 6.93 11.23 4 17.39-3.01 6.16-9.66 8.56-16.2 7.98-22.43-4.47-46.27-4.38-68.96-2.05-12.25 1.6-24.14 3.39-36.04 6.83-5.67 1.38-11.31 2.18-16.17-1.8-6.59-5.25-7.41-14.6-3.49-21.74 3.42-5.84 8.89-10.26 14.64-13.66 4.08 2.55 8.45 3.69 13.04 4.97 21.88 5.68 46.86 3.96 67.01-6.71 4.26-2.11 7.8-5.14 11.74-7.73Z" fill="#8F2E45"/></g><g transform="translate(-161 -83)"><path fill-rule="evenodd" clip-rule="evenodd" d="M531.31 506.71c7.34 4.5 12.1 12.74 12.79 21.28.97 9.95-4.19 20.21-12.55 25.62-6.49 4.08-14.6 5.58-22.07 3.66-11.77-2.85-20.88-13.75-20.98-25.94-8.63-10.18-25.54-13.93-36.48-5.26-3.23 2.99-6.61 7.32-6.74 11.91-1.66 12.18-12 22.15-24.27 23.27-12.14 1.5-24.49-6.08-28.61-17.62-4.63-11.86-.12-25.8 10.5-32.77 7.52-4.92 17.38-5.88 25.69-2.42 7.77 3.11 13.23 9.62 16.01 17.4 5.32-6.87 13.8-10.32 22.4-10.1 8.25-.07 15.45 3.28 21.98 8.05 1.86-6.67 5.57-12.57 11.32-16.53 9.06-6.39 21.73-6.65 31.01-.55Zm-22.64 2.4c6.34-2.22 13.56-1.59 19.29 1.93 7.13 4.28 11.43 12.68 10.61 20.98-.62 9.97-8.38 18.29-18.07 20.26-11.33 2.28-23.02-5.13-25.9-16.28-3.05-11.13 3.23-23.06 14.07-26.89Zm-70.58 15.77c-3.84-8.69-13.49-14.16-22.91-12.75-7.54 1.13-14.05 5.85-17.14 12.87-3.66 8.33-1.84 17.98 4.56 24.43 6.05 6.06 15.65 8.07 23.59 4.82 6.8-2.63 12.26-9.01 13.4-16.26.51-4.56.7-8.92-1.5-13.11Z" fill="#000"/></g><g transform="translate(-161 -83)"><path d="M577 185.99c12.56.52 24.92 2.91 36.69 7.34 19.34 7.52 36.92 19.79 51.12 34.87 10.01 10.27 18.45 22.23 28.18 32.81 5.38 5.64 11.4 10.83 17.98 15.03 9.34 5.99 20.44 8.43 30.91 11.95 11.45 3.52 22.49 7.95 32.48 14.66 16.08 10.6 27.97 27.68 34 45.84 4.26 13.32 6.58 28.46 3.31 42.24-.44 2.06-4 2.35-4.83.42-1.55-3.18-2.55-6.58-4.35-9.66-4.92-8.83-11.74-16.71-19.11-23.6 8.39 11.73 10.45 26.92 6.35 40.64-2.18 7.04-6.91 12.22-11.85 17.47 1.07 5 2.42 9.87 2.78 15 .83 7.44-.72 14.85-4.01 21.55-1.83 3.7-3.82 8.3-7.12 10.9-2.45.96-5.66-1.44-8.05-2.04-4.22-1.16-9.11-2.4-13.47-1.58-.92 1.15-1.64 2.54-2.32 3.85-6.27 12.57-13.95 24.49-21.97 36-8.43 11.51-18.39 22.71-30.08 30.98-3.38 2.26-8.04 5.08-12.06 2.73-3.62-2.51-3.4-8.06-3.01-11.93 2.13-16.26 1.17-33.16 1.31-49.74-13.71-.07-27.19-3.83-39.15-10.47-27.01-14.79-46.68-44.18-47.16-75.32-10.44 8.35-22.76 12.93-35.73 15.68-3.06.5-7.25 1.37-10.03-.4-1.38-2.25-.65-3.64 1.07-5.31 12.2-11.63 21.85-25.4 26.06-41.92 3.24-13.11 1.8-27.25-7.02-37.92-6.39-7.81-15.97-12.65-25.73-14.69-10.95-2.42-22.3-1.71-33.16.81-1.78.29-3.32.98-5.02.01-2.02-2.1-1.31-4.35-1.21-6.97-10.53 3.42-20.8 8.27-29.8 14.73-1.69 1.15-2.95 2.02-5.08 1.29-3-1.37-5.26-4.26-8.06-6.03-9.57-6.5-21.51-10.09-32.81-12.06 3.09 2.78 6.56 5.41 9.16 8.66 1.33 1.69 1.67 3.88.06 5.52-1.81.91-4.28.66-6.27.75-12.12-.12-24.95.39-36.48 4.5-2.9 2.13-4.69 6.32-6.61 9.34-13.1 22.16-19.31 48.44-18.81 74.09-.1 1.51.01 2.93-.9 4.22-2.42 1.36-4.13-.06-6.24-1.18-6.46-4-12.78-8.85-17.67-14.71-4.95 10.26-13.85 18.43-24.47 22.53-2.93 8.25-4.09 17.46-5.89 26.13-.98 4.72-1.27 9.57-2.3 14.26-.62 2.41-3.48 2.92-4.89.88-8.85-11.78-10.65-25.55-12.68-39.68-4.42-1.06-8.63-2.43-12.32-5.17-2.33-1.72-5.26-4.17-5.34-7.3-.18-1.64 1.87-2.73 2.95-3.68 3.72-2.69 7.04-5.81 10.43-8.88-9.04-3.02-16.29-9.65-19.79-18.55-4.63-11.72-2.82-24.7 1.71-36.14 7.24-17.5 20.9-32.37 37.32-41.7 9.36-5.44 19.26-8.34 30.02-9.31 2.47-12.27 6.43-24.12 12.69-35.01 8.31-14.55 20.19-26.92 34.74-35.31 18.02-10.48 39.99-14.47 60.56-11.22 19.61 2.83 37.5 11.29 53.18 23.23 6.35-5.85 13-11.3 20.34-15.87 17.15-11.02 37.01-17.42 57.45-17.56Z" fill="#000"/><path d="M574 191.82c13.68-.16 27.49 2.9 40.18 7.92 17.13 7.21 32.75 18.07 45.52 31.57 11.18 11.08 20.17 24.6 31.18 35.8 8.12 7.99 17.16 15.18 27.88 19.33 14.86 5.72 30.25 8.62 44.48 16.33 10.26 5.33 19.08 12.65 26.09 21.85 11.58 15.28 18.1 34.28 18.09 53.47-9.08-14.42-21.71-28.89-37.44-36.12-2.32-1.17-4.91.43-4.39 3.12 1.24 2.31 3.39 4.24 5.15 6.16 4.34 4.64 8.73 9.76 11.46 15.52 4.63 9.62 5.1 20.99 1.65 31.06-1.87 5.16-5.39 9.02-9.08 12.94-1.32 1.65-3.14 2.79-2.41 5.17 2.12 8.74 4.13 16.81 2.26 25.88-1.53 5.65-4.2 11.07-7.44 15.92-5.38-2.08-10.61-3.24-16.36-3.69.29-1.6 1.07-3.52.41-5.08-1.11-1.09-2.54-1.81-3.92-.65-1.05.99-1.67 2.48-2.32 3.76-7.59 16.37-17 31.76-27.55 46.39-5.29 6.93-11 13.64-17.42 19.56-4.77 4.26-9.35 8.35-15.32 10.87-1.05-4.72-.08-8.96.24-13.69.57-8.74 1.03-17.46.55-26.22-.36-5.85-.33-11.7-.3-17.56 14.53-1.24 29.22-7.38 39.18-18.2 1.74-1.94 1.13-4.44-1.5-5-5.28-1.39-9.7-3.35-14.06-6.66 8.57.3 16.94-.51 24.93-3.8 10.32-4.01 19.45-11.76 24.28-21.81 3.67-7.21 4.18-16.11 2.91-23.98-.33-2.79-4.06-4.2-5.14-1.07.58 7.83 1.16 15.08-2.57 22.31-8.02 16.66-28.58 24.67-46.23 22.25-2.21-.25-5.17-2-7.2-.75-.51.65-.86 1.41-1.05 2.3 3.65 7.89 10.62 12.02 18.32 15.29-12.74 11.22-30.26 15.35-46.88 12.9-29.5-4.16-55.1-26.14-65.73-53.67-3.84-9.81-5.25-20.09-5.33-30.57-.11-2.81-3.24-4.19-5.3-2.12-10.39 9.28-23.17 14.34-36.7 17.05 8.49-9.03 15.57-19.17 20.3-30.67 3.97-9.95 5.77-20.58 4.34-31.25-1.26-9.25-5.48-18.02-12.13-24.6-8.69-8.88-21.4-13.71-33.63-14.73-8.9-1.1-18.11-.17-26.87 1.61.5-2.27 1.83-4.39.13-6.47-1.35-1.84-4.2-.81-6.08-.46-11.97 3.29-23.41 9.33-33.56 16.43-12.62-12.28-32.58-17.48-49.6-19.43-17.25-1.97-35.12-.68-51.85 4.04-4.84 1.46-9.77 3.11-14.26 5.47-2.22 1.08-2.15 4.34.19 5.18 1.17.71 2.89-.4 4.08-.78 15.59-7.15 33.83-9.37 50.83-9 3.21.18 7.14.02 9.75 2.1 3.87 2.77 7.29 6.2 10.89 9.31-12.71-.21-24.9-.07-37.07 4.14-3.72 1.6-5.96 5.43-8.09 8.69-5.04 8.22-9.78 16.93-13.09 26-6.28 16.54-8.91 34.41-9.19 52.04-6.95-4.66-13.95-10.26-17.98-17.73-1.6-2.68-2.53-5.59-3.65-8.47-1.07-2.16-4.43-2-4.84.65-.47 3.75 2.19 7.97 3.94 11.15-2.89 7.95-8.63 14.36-15.65 18.94-6.99 4.39-14.88 5.59-23.03 5.29-7.14.1-13.82-1.94-19.31-6.56 4.47-4.11 9.61-7.88 13.72-12.34 1.51-1.32 1.38-3.63-.21-4.83-1.99-1.04-4.27-1.57-6.37-2.4-6.34-2.45-11.45-7.52-14.14-13.75-3.14-6.95-3.13-15.28-1.67-22.64 3.23-14.28 11.32-26.93 21.9-36.92 11.41-10.85 27.14-19.47 43.12-20.15 1.61-.18 3.11-.26 4.47-1.25 1.43-2.26 1.57-5.45 2.18-8.02 2.92-13.13 8.28-25.74 16.07-36.72 10.81-15.31 26.38-27.09 44.3-32.76 13.07-4.27 26.81-4.85 40.38-3.06 18.15 2.64 34.75 10.46 49.37 21.37-1.42 1.67-5.59 3.88-4.44 6.47.29 1.55 2.42 2.01 3.5 1.15 5.61-3.87 10.31-9.11 15.68-13.33 18.28-14.8 40.73-24.92 64.45-25.79Z" fill="rgba(185, 160, 95, 1)"/><path d="M298.56 409.23c4.76-.11 9.41.06 14.11-.96-2.64 9.82-4.31 19.91-6.39 29.86-4.82-9.17-6.25-18.76-7.72-28.9Z" fill="rgba(185, 160, 95, 1)"/></g></g></svg>