<svg xmlns:dc="http://purl.org/dc/elements/1.1/" xmlns:cc="http://creativecommons.org/ns#" xmlns:rdf="http://www.w3.org/1999/02/22-rdf-syntax-ns#" xmlns:svg="http://www.w3.org/2000/svg" xmlns="http://www.w3.org/2000/svg" viewBox="0 0 762 762" fill="none"><metadata><rdf:RDF><cc:Work><dc:format>image/svg+xml</dc:format><dc:type rdf:resource="http://purl.org/dc/dcmitype/StillImage"/><dc:title>Adventurer</dc:title><dc:creator><cc:Agent><dc:title>Lisa Wischofsky</dc:title></cc:Agent></dc:creator><dc:source>https://www.instagram.com/lischis_adventures/</dc:source><cc:license rdf:resource="https://creativecommons.org/licenses/by/4.0/"/></cc:Work><cc:License rdf:about="https://creativecommons.org/licenses/by/4.0/"><cc:permits rdf:resource="https://creativecommons.org/ns#Reproduction"/><cc:permits rdf:resource="https://creativecommons.org/ns#Distribution"/><cc:permits rdf:resource="https://creativecommons.org/ns#DerivativeWorks"/><cc:requires rdf:resource="https://creativecommons.org/ns#Notice"/><cc:requires rdf:resource="https://creativecommons.org/ns#Attribution"/></cc:License></rdf:RDF></metadata><mask id="avatarsRadiusMask"><rect width="762" height="762" rx="0" ry="0" x="0" y="0" fill="#fff"/></mask><g mask="url(#avatarsRadiusMask)"><path d="M396.01 164.85c37.82 4.9 74.21 19.64 104.8 42.39 6.15 4.84 12.48 9.33 18.02 14.92 23.77 21.98 42.73 49.02 55.13 78.95 9.35 22.31 14.72 46.04 16.64 70.14 6.62.81 13.05 2.14 19.12 5 15.54 6.93 27.08 20.94 31.78 37.21 2.63 9.56 3.56 19.75 1.72 29.55-2.96 18.76-13.72 36.13-29.37 46.92-10.94 7.65-24.49 12.03-37.86 11.68-5.13-.05-10.04-1.6-15.13-1.79-1.85 2.17-3.23 4.84-4.76 7.25-18.66 29.62-44.57 54.51-74.64 72.4-28.1 16.73-59.9 27.16-92.46 30.32-11.08.7-21.87 2.05-32.98.74-51.69-2.3-102.07-23.44-140.15-58.43-29.03-26.55-50.84-60.83-62.54-98.39-7.09-22.85-10.62-46.78-10.07-70.71.52-40.34 12.53-80.58 33.94-114.76 19.1-30.81 45.91-56.58 77.2-74.83 29.63-17.28 63.35-27.68 97.59-29.87 14.66-1.47 29.44-.37 44.02 1.31Z" fill="#000"/><path d="M363 169.06c48.47-1.39 97.32 14.7 135.81 44.12 6.55 4.06 11.72 9.49 17.36 14.64 24.33 22.63 43.2 50.95 54.93 82.02 7.43 19.61 11.86 40.2 13.56 61.09-8.89.74-17.34 2.34-25.38 6.38-2.19 1.03-1.89 4.95.68 5.23 2.35.23 4.98-1.51 7.24-2.2 14.62-5.37 31.32-4.35 44.78 3.68 11.69 6.78 20.09 18.16 23.89 31.06 2.6 8.25 2.68 17.41 1.76 25.95-2.5 17.35-12.35 33.73-26.73 43.81-15.71 11.33-37.17 14.64-54.93 6.2-3.17-1.43-5.94-3.58-9.08-5.05-2.95-1.09-4.88 2.79-2.7 4.75 3.17 2.76 7.34 4.52 11 6.56-20.14 34.15-49.45 62.7-84.41 81.47-30.2 16.31-64.44 25.53-98.78 26.15-27.63.72-55.33-4.04-81.21-13.72-30.32-11.24-57.84-29.43-80.37-52.6-22.67-23.37-39.92-51.88-50.2-82.77-14.96-44.64-14.91-94.01.27-138.59 11.05-33.06 30.28-63.21 55.37-87.39 29.67-28.73 67.65-48.54 108.13-56.67 12.8-2.52 25.94-4.24 39.01-4.12Z" fill="rgba(236, 173, 128, 1)"/><path d="M605.03 404.4c2.63-.1 3.44 3.8 1.36 4.98-3.69 1.83-7.82 2.77-11.64 4.35-5.82 2.04-11.28 4.76-16.68 7.72 4.29 2.34 8.86 4.74 12.71 7.76 2.58 2.09 4.85 4.35 5.33 7.8-.26 3.59-2.73 6.55-5.45 8.69-5.86 4.66-13.92 7.18-20.79 10.26-1.75.62-4.43 1.99-5.59-.26-1.02-1.74-.06-3.11 1.57-3.87 6.65-3.3 14.86-5.62 20.79-10.16 1.37-1.14 3.39-2.74 3.61-4.62-4.07-5.63-12.42-8.59-18.23-12.09-2.34-1.72-2.29-4.24-.16-6.13 7.27-5.64 16.98-9.26 25.57-12.38 2.42-.83 5.03-1.95 7.6-2.05Z" fill="#000"/><g transform="translate(-161 -83)"><g fill="#000"><path d="M619.86 481.79c.88.37 1.76.75 2.63 1.13-.12 1-.28 1.99-.47 2.98-2.21 3.85-5.93 6.93-9 10.11-5.85 5-12.25 9.47-19.16 12.88-14.05 7.01-30.23 9.88-45.84 8.4-19.45-1.64-38.43-9.82-54.21-21.1-1.39-1.13-2.87-1.98-2.46-4.04.53-2.48 3.96-3.31 6.11-2.45 21.21 6.28 42.63 6.72 64.55 5.45 16.26-1.55 32.06-4.27 47.52-9.68 3.54-1.21 6.78-2.79 10.33-3.68ZM440.55 492.43c2.8 1.36 2.21 4.42.14 6.19-10.83 9.97-25.3 16.29-39.72 18.8-7.78.99-15.1 2.3-22.95 1.12-13.82-1.06-27.27-5.1-39.01-12.53-2.15-1.4-4.67-2.9-6.19-5-.62-2.53.72-3.88 3.14-4.18 2.71.28 5.43 1.35 8.08 2.03 7.56 2.13 15.22 3.03 23.01 3.79 21.44 1.58 43.68-.86 64.15-7.53 2.94-.78 6.3-2.97 9.35-2.69Z"/></g></g><g transform="translate(-161 -83)"><g fill="#000"><path d="M456.01 380.37c2.26-.07 2.85 1.7 2.65 3.64-.5 4.68-.77 9.78-2.32 14.23-1.33.39-2.66.58-4.03.82-1.12-4.8-.01-10.22.71-15.09.36-1.71.77-3.82 2.99-3.6ZM476.79 386.65c.03 3.21-.36 6.36-.67 9.55 41.69.52 83.32.38 125.01.75 2.13.04 3.96.86 5.89 1.64-.59 1.48-.22 3.83-2.24 4.09-8.05 1.31-16.58.52-24.74.88-17.35.62-34.71.99-52.06 1.53-17.03.2-34.01 1.25-51.05 1.42-3.29.39-6.05-2.72-7.2-5.47.02-4.49 1.02-9.15 2.06-13.5 1.28-2.48 2.83-1.67 5-.89ZM439.84 392.18c-.11 4.87-.05 10.81-2.28 15.24-3.22 1.5-7.12 1.79-10.59 2.47-25.65 4.7-51.32 9.35-76.96 14.09-4.24.69-8.7 2.15-12.99 2.04-2.63-.48-3.33-3.75-.87-5.01 3.2-1.41 6.95-1.74 10.33-2.58 29.1-6.7 58.15-13.59 87.24-20.32.41-1.91.8-3.81 1.27-5.7 1.61-.21 3.23-.24 4.85-.23Z"/></g></g><g transform="translate(-161 -83)"><path d="M505.05 609.63c4.67 1.28 8.87 4.71 12.16 8.17 1.37 1.66 3.56 3.88 3.05 6.2-.46 2.46-3.75 3.02-5.05.83-2.59-3.53-5.52-6.54-9.45-8.58-2.27-1.46-6.72-.53-6.61-4.14.48-3.02 3.52-2.9 5.9-2.48ZM498 622.96c4.97 1.51 8.45 5.86 8.78 11.06 1.3 13.18-9.39 25.8-21.75 29.19-12.46 3.66-28.87-1.1-35.07-13.17-2.47-4.21-3.73-9.26-1.94-13.96 1.78-4.05 5.82-5.66 9.97-6.1 5.09-.59 9.55 1.11 13.9 3.54 3.82-4.04 7.74-7.59 12.91-9.81 4.07-1.76 8.96-1.98 13.2-.75Z" fill="#000"/><path d="M498.91 630.09c3.25 3.38 2.26 9.5.47 13.39-4.28 10.05-15.11 16.13-25.9 14.99-7.3-1.19-14.31-4.11-18.2-10.76-1.43-2.56-3.43-6.58-2.01-9.44 2.28-3.76 8.77-3.17 12.28-1.81 2.75.77 5.53 4.09 8.39 3.59 3.67-3.56 6.48-7.47 11.18-9.88 4.32-2.4 9.63-3.3 13.79-.08Z" fill="#8F2E45"/></g><g transform="translate(-161 -83)"/><g transform="translate(-161 -83)"><path d="M484 203.33c31.29-2.08 63.42.11 93.86 7.88 21.56 5.49 42.28 13.94 60.91 26.19 23.4-3.86 47.88.89 69.41 10.37 23.12 10.4 43.83 26.51 60.17 45.85 20.85 24.69 35.23 55.1 38.76 87.38.95 12.2.85 25-1.78 36.99-3.78 18.28-12.57 35.32-26.18 48.2-1.82 1.55-3.02 2.25-5.31.99-14.99-8.28-33.71-8.66-49.62-2.89.98 10.55.3 20.85-4.48 30.47-3.28 6.59-8.89 12.66-15.72 15.6-2.72.9-4.6-1.33-3.52-3.92 3.27-8.18 3-16.77 2.8-25.44-.44-7.85-1.2-15.78-2.88-23.46-7.63.85-15.3.3-22.52-2.41-14.89-5.33-27.38-16.81-37.06-29.03-11.73-14.89-20.51-31.76-27.71-49.24-9.49-23.3-16.01-48.04-20.26-72.81-.69-3.84-.89-7.63-2.11-11.36-20.22-1.09-40.52-1.06-60.76-.37-21.77 1.3-43.45 3.39-64.97 6.93-32.55 5.34-65.57 13.27-96.19 25.67-2.58 1.08-5.01 1.84-6.93 4-6.12 6.58-11.48 14.12-16.26 21.73a258.623 258.623 0 0 0-27.01 59.16c-1.07 3.17-1.51 6.79-3.14 9.7-1.4 1.6-3.41 1.03-4.84-.19-12.99-11.2-23.7-25.13-29.72-41.29-4.68-12.69-6.28-26.46-4.45-39.87 2.63-19.03 11.35-36.55 23.18-51.51 18.98-24.07 45.92-42.47 73.52-55.33 34.62-16.21 72.77-25.18 110.81-27.99Z" fill="#000"/><path d="M516.99 208.52c7.67.67 15.35.68 23 1.75 33.2 3.71 67.56 13.49 95.62 32.08.77.48 1.57.87 2.41 1.17 16.25-3.42 33.91-1.59 49.78 2.96 30.6 8.97 57.12 27.97 77.37 52.39 16.77 20.38 29.32 45.13 34.34 71.12 3.13 16.62 3.5 33.55-.67 50.03-3.76 15.64-11.64 30.17-23.15 41.46-15.86-8.13-35.46-8.95-52.2-3.13-2.06.89-5.57 1.75-5.38 4.58 2.09 12.92-.03 27.98-9.67 37.59 1.68-15.13.45-30.63-2.52-45.52-.7-2.94-1.79-3.79-4.91-3.38-8.98 1.36-17.65-.13-25.83-3.94-11.09-5.17-20.71-14.08-28.38-23.49-12.29-15.07-21.65-33.04-28.86-51.04-9.99-25.05-16.61-51.51-20.61-78.15-.54-2.21.24-6.75-2.47-7.6-7.25-.74-14.58-.79-21.85-1.44-13.65.03-27.4-.55-41.01.65-12.68.38-25.4 1.41-38 2.85-26.88 2.95-53.71 7.68-79.89 14.49-19.93 5.25-39.94 11.81-58.66 20.51-11.33 5.32-22.72 11.66-32.4 19.65-6.3 5.29-12.33 11.65-15.53 19.34-.66 1.84-1.64 3.79-.85 5.74 1.79 2.08 4.64 1.44 5.38-1.21 1.99-5.63 5.27-10.27 9.45-14.47 8.11-8.27 18.65-14.73 28.85-20.09-3.96 5.14-7.57 10.45-10.92 16.01-11.9 19.69-21.34 40.94-27.77 63.04-11.05-10.41-20.1-22.43-25.35-36.78-6.99-18.75-5.76-40.16 1.94-58.51 7.92-19.31 22.32-36.42 38.23-49.72 15.57-13.11 33.49-23.75 52-32.14 32.2-14.54 67.35-23.05 102.53-25.87 12.05-.64 23.89-1.8 35.98-.93Z" fill="rgba(89, 36, 84, 1)"/></g></g></svg>