<svg xmlns:dc="http://purl.org/dc/elements/1.1/" xmlns:cc="http://creativecommons.org/ns#" xmlns:rdf="http://www.w3.org/1999/02/22-rdf-syntax-ns#" xmlns:svg="http://www.w3.org/2000/svg" xmlns="http://www.w3.org/2000/svg" viewBox="0 0 762 762" fill="none"><metadata><rdf:RDF><cc:Work><dc:format>image/svg+xml</dc:format><dc:type rdf:resource="http://purl.org/dc/dcmitype/StillImage"/><dc:title>Adventurer</dc:title><dc:creator><cc:Agent><dc:title>Lisa Wischofsky</dc:title></cc:Agent></dc:creator><dc:source>https://www.instagram.com/lischis_adventures/</dc:source><cc:license rdf:resource="https://creativecommons.org/licenses/by/4.0/"/></cc:Work><cc:License rdf:about="https://creativecommons.org/licenses/by/4.0/"><cc:permits rdf:resource="https://creativecommons.org/ns#Reproduction"/><cc:permits rdf:resource="https://creativecommons.org/ns#Distribution"/><cc:permits rdf:resource="https://creativecommons.org/ns#DerivativeWorks"/><cc:requires rdf:resource="https://creativecommons.org/ns#Notice"/><cc:requires rdf:resource="https://creativecommons.org/ns#Attribution"/></cc:License></rdf:RDF></metadata><mask id="avatarsRadiusMask"><rect width="762" height="762" rx="0" ry="0" x="0" y="0" fill="#fff"/></mask><g mask="url(#avatarsRadiusMask)"><path d="M396.01 164.85c37.82 4.9 74.21 19.64 104.8 42.39 6.15 4.84 12.48 9.33 18.02 14.92 23.77 21.98 42.73 49.02 55.13 78.95 9.35 22.31 14.72 46.04 16.64 70.14 6.62.81 13.05 2.14 19.12 5 15.54 6.93 27.08 20.94 31.78 37.21 2.63 9.56 3.56 19.75 1.72 29.55-2.96 18.76-13.72 36.13-29.37 46.92-10.94 7.65-24.49 12.03-37.86 11.68-5.13-.05-10.04-1.6-15.13-1.79-1.85 2.17-3.23 4.84-4.76 7.25-18.66 29.62-44.57 54.51-74.64 72.4-28.1 16.73-59.9 27.16-92.46 30.32-11.08.7-21.87 2.05-32.98.74-51.69-2.3-102.07-23.44-140.15-58.43-29.03-26.55-50.84-60.83-62.54-98.39-7.09-22.85-10.62-46.78-10.07-70.71.52-40.34 12.53-80.58 33.94-114.76 19.1-30.81 45.91-56.58 77.2-74.83 29.63-17.28 63.35-27.68 97.59-29.87 14.66-1.47 29.44-.37 44.02 1.31Z" fill="#000"/><path d="M363 169.06c48.47-1.39 97.32 14.7 135.81 44.12 6.55 4.06 11.72 9.49 17.36 14.64 24.33 22.63 43.2 50.95 54.93 82.02 7.43 19.61 11.86 40.2 13.56 61.09-8.89.74-17.34 2.34-25.38 6.38-2.19 1.03-1.89 4.95.68 5.23 2.35.23 4.98-1.51 7.24-2.2 14.62-5.37 31.32-4.35 44.78 3.68 11.69 6.78 20.09 18.16 23.89 31.06 2.6 8.25 2.68 17.41 1.76 25.95-2.5 17.35-12.35 33.73-26.73 43.81-15.71 11.33-37.17 14.64-54.93 6.2-3.17-1.43-5.94-3.58-9.08-5.05-2.95-1.09-4.88 2.79-2.7 4.75 3.17 2.76 7.34 4.52 11 6.56-20.14 34.15-49.45 62.7-84.41 81.47-30.2 16.31-64.44 25.53-98.78 26.15-27.63.72-55.33-4.04-81.21-13.72-30.32-11.24-57.84-29.43-80.37-52.6-22.67-23.37-39.92-51.88-50.2-82.77-14.96-44.64-14.91-94.01.27-138.59 11.05-33.06 30.28-63.21 55.37-87.39 29.67-28.73 67.65-48.54 108.13-56.67 12.8-2.52 25.94-4.24 39.01-4.12Z" fill="rgba(236, 173, 128, 1)"/><path d="M605.03 404.4c2.63-.1 3.44 3.8 1.36 4.98-3.69 1.83-7.82 2.77-11.64 4.35-5.82 2.04-11.28 4.76-16.68 7.72 4.29 2.34 8.86 4.74 12.71 7.76 2.58 2.09 4.85 4.35 5.33 7.8-.26 3.59-2.73 6.55-5.45 8.69-5.86 4.66-13.92 7.18-20.79 10.26-1.75.62-4.43 1.99-5.59-.26-1.02-1.74-.06-3.11 1.57-3.87 6.65-3.3 14.86-5.62 20.79-10.16 1.37-1.14 3.39-2.74 3.61-4.62-4.07-5.63-12.42-8.59-18.23-12.09-2.34-1.72-2.29-4.24-.16-6.13 7.27-5.64 16.98-9.26 25.57-12.38 2.42-.83 5.03-1.95 7.6-2.05Z" fill="#000"/><g transform="translate(-161 -83)"><path d="M380.24 447.22c13.3-1.66 27.11 1.75 38.11 9.43 12.06 8.33 20.46 21.6 22.82 36.06 1.19 8.28.93 17.07-1.63 25.08-3.95 13.25-13.11 24.77-25.11 31.65-10.01 5.78-21.98 8.36-33.47 6.98-16.14-1.57-31.14-10.83-39.98-24.4-5.54-8.33-8.46-18.04-9.11-27.98-.3-12.3 3.26-24.62 10.56-34.57 8.83-12.25 22.8-20.48 37.81-22.25Z" fill="#000"/><path d="M378.24 453.29c19.42-3.65 39.86 5.43 50.31 22.16 6.62 10.49 9.49 23.85 6.67 36.03-2.57 13.31-10.96 25.19-22.49 32.27-6.86 4.28-14.7 6.65-22.74 7.28-19.82 1.35-39.29-10.22-47.62-28.26-7.76-16.18-5.77-36.01 5.02-50.34 7.38-10.03 18.61-16.92 30.85-19.14Z" fill="#fff"/><path d="M589.99 474.91c13.08-.59 26.98-1.27 39.85 1.48 2.15.58 2.9 1.33 2.29 3.68-2.1 1.76-6.09 3.3-6.83 6.12-.03 6 9.05 5.9 9.69 10.8-.29 2.95-2.42 3.33-4.97 3.14-7.67-.63-15.32-1.24-23.02-1.41-16.02-.09-32.02-.23-48.01.88-7.56.7-15.21.63-22.77 1.17-11.11 1.03-22.13 1.31-33.14 3.36-2.67.49-5.51 1.11-8.23 1.06-2.01-1.24-3.05-5.54-.56-6.86 5.33-3.02 11.33-5.1 17.18-6.87 15.08-4.97 30.76-8.25 46.26-11.64 10.64-2.42 21.43-3.76 32.26-4.91ZM405.43 479.68c3.46-.9 6.91-.99 10.4-.21 8.85 2.09 15.44 10.43 15.31 19.55.24 11.12-10.03 21.17-21.19 20.13-9.28-.52-17.48-7.87-18.76-17.12-1.71-9.8 4.73-19.67 14.24-22.35Z" fill="#000"/></g><g transform="translate(-161 -83)"><path d="M582.3 370.69c14.06 7.04 27.75 17.35 36.57 30.53 2.05 2.95-1.4 6.24-4.23 4.15-10.56-6.54-22.24-11.16-34.46-13.42-35.66-6.86-74.47 5.14-98.23 33.03-1.67 2.05-4.03 3.59-6.28 1.25-1.68-2.6-2.27-6.05-3.3-8.95-1.92 4.71-3.86 9.5-6.21 14.02-1.55 3.23-6 1.12-7.03-1.42-3.06-6.88-6.21-13.74-9.02-20.73.01 5.63.01 11.25.04 16.88-.19 2.06.27 4.35-2.11 5.22-2.06.23-4.36-1.03-5.3-2.91-3.26-5.88-6.24-11.93-9.49-17.82.96 5.51 2.6 10.99 3.1 16.55.12 1.94-2.28 3.44-4.02 2.36-18.54-7.4-38.31-11.49-58.33-10.09-12.5.92-26.14 4.63-36 12.68-3.09 2.34-5.2 5.51-7.97 8.15-1.65.72-3.27-.24-4.88-.65.08-1.91.11-3.75.73-5.58 6.86-20.67 20.43-39.8 39.98-50.1 13.56-7.32 30.17-9.03 44.62-3.35 11.89 4.55 20.95 13.32 27.67 23.95 2.31-2.84 4.25-6.03 6.75-8.71 1.62-1.56 4.62-1.55 5.63.72 2.52 5.15 4.68 10.51 6.98 15.78 1.49-7.42 3.06-14.81 4.43-22.24.33-1.5.6-3.23 1.58-4.45 1.65-1.25 2.9-.28 4.65.1.27.86.53 1.71.8 2.56 2.08-4.75 4.75-9.11 8.44-12.78 9.1-9.43 21.82-14.25 34.5-16.48 23.85-3.69 48.86 1.12 70.39 11.75Z" fill="#000"/></g><g transform="translate(-161 -83)"><path d="M517 555.43c13.39-.24 28.69 3.46 38.6 12.98 5.97 5.58 9.72 13.37 9.9 21.58.32 10.21-3.84 19.58-9.89 27.58-9.04 11.85-21.87 20.72-35.47 26.57-7.32 2.84-14.41 5.71-22.15 7.24-16.76 3.21-34.33 1.42-50.03-5.31-13.98-6.01-27.24-14.24-38.31-24.71-5.42-5.3-10.58-11.69-13.28-18.84-2.03-5.48-2.34-11.97 1.22-16.91 3.7-5.37 9.99-7.74 16.18-8.84 12.6-1.77 24.45.42 36.57 3.76 7.36-6.86 15.88-12.06 25.02-16.21 12.99-5.74 27.38-9.28 41.64-8.89Z" fill="#000"/><path d="M542.47 566.35c-3.47 2.67-7.33 4.74-10.83 7.34-4.3 4.07-7.59 10.96-12.77 14.1-5.16.84-10.5-3.32-15.18-1.11-9.25 3.5-18.79 6.01-28.49 7.9-14.14 2.57-29.48 3.77-43.64.89-4.29-1.11-7.12 1.32-11.46 1.88-4.37-4.22-7.53-9.21-12.73-12.59 12.76-5.32 28.76-1.99 41.63 1.51 3.92 1.25 6.04-2.46 8.8-4.48 13.48-10.73 30.18-17.54 47.23-19.85 12.66-1.87 25.64-.74 37.44 4.41Z" fill="#fff"/><path d="M547.96 569.91c7.13 4.29 11.65 12.83 11.82 21.09-.18 7.44-2.97 13.99-6.8 20.24-6.37-2.56-13.17-3.29-19.99-2.88-14.36.89-28.54 4.42-41.91 9.67-9.04 3.64-18.05 8.23-25.74 14.27-3.77 2.98-6.45 6.16-8.76 10.38-7.74-2.15-14.6-5.75-21.53-9.73-9.94-5.85-19.02-12.62-26.5-21.47-3.77-4.64-7.55-10.34-7.78-16.49-.14-2.33.91-4.43 1.72-6.55 5.41 3.65 9.36 8.64 14.22 12.85 4 3.41 9.21-.65 13.75.08 5.81.96 11.66 1.41 17.53 1.74 20.42-.25 40.58-4.31 59.65-11.55 4.16.86 9.89 2.73 13.97 1.05 4.92-2.84 8.62-8.58 12.18-12.91 1.47-1.75 3.81-2.92 5.71-4.17 2.91-1.75 5.48-4.02 8.46-5.62Z" fill="#8F2E45"/><path d="M536 614.18c4.54-.11 8.95.63 13.3 1.9-9.23 11.12-22.42 19.3-35.85 24.38-16.26 6.04-34.23 8.32-51.21 3.94 1.95-2.75 4.09-5.3 6.76-7.39 8.9-7.26 20.21-12.2 30.99-15.97 11.5-3.83 23.86-6.67 36.01-6.86Z" fill="#EA869E"/></g><g transform="translate(-161 -83)"><path d="M569 416.32c10.67-.28 21.35-.06 32.02-.26 13.97-.61 27.98-.37 41.98-.52 3.87.15 9-.18 12.21 2.31 2.36 1.63 2.22 5.59 2.35 8.14-.11 4.33-.28 9.38-2.31 13.3-5.07 1.98-11.44 1.25-16.84 1.91.43 12.26 1.67 24.56 1.31 36.83-.71 13.91-3.67 28-10.34 40.32-8.09 13.04-19.91 24.39-33.54 31.51-10.42 5.38-21.75 7.4-33.39 7.78-6.22.19-12.08.49-18.21-.84-9.48-2.04-18.88-4.45-26.96-10.06-11.14-7.58-19.27-18.77-25.41-30.6-6.59-13.57-10.14-29.24-13.26-43.94-.53-2.3-2.38-3.48-4.35-4.45-6.63-2.95-14.93-.51-18.8 5.6-.8 2.41-.9 5.14-1.16 7.65-.62 7.61-2.25 15.33-3.88 22.79-3.12 13.58-8.99 26.32-16.8 37.83-4.35 5.79-9.75 11.42-16.22 14.81-10.53 5.74-22.3 10.09-34.41 10.28-7.24-.19-14.15-.39-21.12-2.5-5.48-1.33-10.51-4.8-15.16-7.94-6.41-4.39-11.06-10.29-15.28-16.72-5.3-8.31-9.31-17.34-12.24-26.73-2.84-9.45-5.24-18.79-5.19-28.73-4.55.67-9.39 2.24-13.99 1.96-4.36-.81-5.31-7.51-5.5-11.08.13-2.39-.16-6.76 2.69-7.68 21.6-9.82 44.44-17.06 67.54-22.42 17.03-3.7 34.73-8.24 52.27-6.65 11.18.94 22.83 3.92 31.72 11.06 3.2 2.41 5.43 6.83 9.38 7.59 7.08 1.83 14.45-1.23 20.89-3.96 3.63-10 10.02-17.34 19.06-22.82 6.29-3.84 13.67-6.15 20.7-8.28 16.76-4.03 33.14-4.65 50.24-5.49Z" fill="#000"/><path d="M307.1 478.16c1.21-1.2 3.4-.01 2.44 1.64-1.21 1.2-3.4.01-2.44-1.64Z" fill="#000"/><ellipse cx="605" cy="457.5" rx="14" ry="10.5" fill="#fff"/><ellipse cx="411" cy="476.107" rx="11" ry="8.107" fill="#fff"/></g><g transform="translate(-161 -83)"><path d="M570.1 171.12c2.7-1.1 4.86.53 5.77 3.03 2.52 7.64.94 16.43-1.66 23.86 6.48-3.59 13.39-6.19 20.8-6.93 16.37-1.93 32.5 2.34 46.87 10.06 11.74 6.32 21.47 14.77 30.85 24.14 9.6 9.66 21.27 19.21 34.32 23.63 7.54 2.7 15.81 2.89 23.47.6 2.04-.41 5.19-1.67 6.83.13 1.79 1.49.79 4.22.41 6.16-3.44 11.52-8.62 22.16-18.63 29.35 13.15 5.47 24.07 15.42 30.67 28.05 6.97 13.36 10.31 28.75 9.85 43.8.18 10.63-1.91 21.02-5.17 31.09 7.9 8.29 12.39 19.6 13.57 30.89 1.41 13.68-1.53 28.27-7.79 40.49-.83 1.82-2.61 1.18-4.23 1.2-4.34-.47-8.67-.77-13.05-.55-5.76.18-11.48 1.98-16.8 4.1-2.08.74-3.91 1.64-6.19 1.18-7.42-1.35-13.55-5.5-20.8-7.86 3.16 4.34 6.34 8.78 8.9 13.51.75 1.5 1.67 3.25 1.71 4.95-.2 2.36-3.48 3.2-4.7.95-3.95-7.23-8.22-14.15-13.57-20.46-2.62-2.55.39-6.24 3.46-5.65 4.24.67 8.31 2.66 12.38 4-3.53-5.07-7.16-10.32-11.45-14.78-2.1-2.21-4.79-3.86-6.77-6.17-.21-1.4.2-2.79.56-4.13 4.76-14.21 4.39-30.14.84-44.58-3.02-12.04-8.09-23.41-16.24-32.87-5.19-2.21-10.31-4.5-15.09-7.53-11.31-6.79-20.74-16.09-31.81-23.09-14.45-9.38-34.11-10.05-49.5-2.6-1.53.58-3.16.43-3.59-1.39-1.38-2.7.5-4.42 1.82-6.59 4.8-6.68 9.79-13.23 14.87-19.7-7.2 4.08-13.74 9.19-19.66 14.96-2.68 2.56-4.67 5.61-6.49 8.82-1.67.22-3.32.46-5.01.53-2.36-2.87-2.98-6.13-6.39-8.19-6.3-4.16-15.37-3.7-22.47-2.41-18.86 3.77-37.4 10.11-56.99 10.68-11.29.24-22.31-2.23-31.72-8.65-7.4 5.01-15.22 8.92-24.09 10.52-14.21 2.64-29.42 1.1-43.3-2.65-7.6 6.08-12.8 13.53-18.89 20.99-6.11 7.91-12.18 16.25-16.78 25.14-.94 1.59-1.8 3.69-3.32 4.79-4.21 2.58-8.99 3.91-13.9 4.22-8.41.63-17.47-.66-24.46-5.7-6.15-4.36-9.73-11.12-11.06-18.44-1.82-9.79-.42-20.25 3.01-29.55.72-2.26 3.56-3.14 4.88-.95 2.24 4.49 3.21 8.75 8.41 10.77 4.66 1.45 10.38-1.11 14.72-2.83-9.74-8.83-13.85-22.08-12.35-34.98 2.22-20.18 13.37-39.57 27.31-54 11.38-12.03 25.89-20.44 42.02-24.23 6.3-1.41 13.09-3.16 19.56-2.78 2.36.01 3.09 3.47 1.25 4.8-8.72 7.82-11.67 20.96-8.92 32.13 3.31-5.65 6.47-11.3 10.72-16.32 15.36-18.65 39.23-29.38 62.9-32.15 9.31-1.42 18.61-1.21 27.98-1.94 23.32-.58 46.76-3.72 67.92-14.1 5.09-2.37 9.17-6.43 14.21-8.77Z" fill="#000"/><path d="M570.84 177.21c1.49 7.08-.16 14.83-3.21 21.3-.89 2.17-3.47 4.75-2.27 7.14.66.99 2.49 2.2 3.65 1.46 3.95-2.02 7.55-4.64 11.68-6.37 8.88-4.17 18.62-5.19 28.32-4.15 17.41 1.95 33.16 9.72 46.57 20.79 8.21 6.5 14.87 14.47 22.92 21.12 8.47 7.05 17.91 13.3 28.56 16.47 8.23 2.63 16.65 2.52 24.94.2-2.7 7.89-6.3 16.45-12.52 22.24-2.66 2.59-5.91 4.11-8.96 6.14-1.58 1.4-1.88 2.79-.78 4.65 3.34 1.07 6.75 1.48 9.95 3.07 8.13 4 15.35 10.01 20.6 17.41 7.63 10.82 11.85 24.24 13.29 37.32.96 12.24.27 24.41-3.35 36.2-.65 2.25-1.8 4.41-2.21 6.71 2.41 3.31 5.73 5.75 7.68 9.49 9.74 16.68 8.52 36.33 1.61 53.8-.55.87-.85 3.17-2.27 2.65-9.5-1.33-18.92-.14-27.86 3.3-1.99.69-4.04 1.82-6.15 2.01-1.55-.29-3.02-.78-4.52-1.26-5.87-9.68-12.69-19.4-21.4-26.74 8.34-25.83 2.83-55.65-12.4-77.86 11.21 1.9 21.8-.94 31.88-5.7 3.26-1.62 6.9-2.97 9.8-5.19 1.96-2.18.13-4.9-2.51-4.99-10.43-.26-19.63-7.62-26.08-15.25-5.01-6.27-10.12-13.17-9.26-21.64l-2.52-.84c-.87.34-1.73.67-2.59 1.01-1.64 5.44.39 10.12 2.84 14.89 6.55 11.63 16.23 21.31 28.77 26.31-7.59 3.76-16.47 6.78-25.04 6.25-8.22-.47-16.34-3.82-23.41-7.89-11.69-6.68-20.86-15.57-31.85-23.02-6.58-4.45-13.81-7.71-21.71-8.89-9.2-1.24-18.9-.96-27.79 1.92 4.99-6.94 10.15-13.8 15.73-20.28 1.39-1.64 2.85-3.31 4.01-5.13 1.07-1.34.41-3.66.39-5.25-2.12-.08-3.97-.19-5.88.88-13.18 6.46-26.47 15.61-35.24 27.53-2.83-3.87-6.2-6.94-10.81-8.49-9.01-3.08-19.37-1.66-28.44.45-18.22 3.91-37.25 10.25-55.99 8.76-12.1-.7-23.85-6.98-31.13-16.66-9.11-12.69-10.45-30.62-3.34-44.54 5.55-11.46 14.91-20.42 26.23-26.14-.52 4.75-.8 9.25 1.08 13.78 2.73 7.25 8.81 12.62 16.13 14.95 9.24 2.96 19.27 3.43 28.51 6.53 1.73.51 3.7 1.4 5.52 1.22 1.37-.12 1.91-1.98 2.66-2.91-1.53-1.47-3.06-2.78-5.12-3.44-8.14-2.8-17.14-3.81-25.54-5.66-3.46-.85-6.98-1.96-9.93-4.01-5.89-3.98-9.21-11.67-7.6-18.66 1.24-4.4 5.19-5.34 8.01-8.93-.41-.99-.82-1.98-1.23-2.98-4.65-.57-9.3 2.49-13.52 4.28-15.1 6.94-27.29 19.65-32.86 35.39-6.33 17.72-1.32 39.39 13.03 51.81-3.69 2.2-7.39 4.3-11.41 5.85-9.58 3.86-20.34 3.93-30.5 3.25-17.9-1.2-35.13-7.22-48.71-19.16-2.04-1.91-3.22-4.43-5.18-6.37-2.11-.28-3.33.49-3.45 2.66.09 3.72 3.46 6.98 6.12 9.23 7.21 5.82 15.33 10.57 23.97 13.91-3.48 3.42-6.88 6.89-9.94 10.69-8.55 10.36-17.55 21.23-23.89 33.1-1.58 2.94-2.97 5.58-6.39 6.66-7.21 2.16-16.06 1.77-23.04-1.09-5.29-2.1-9.39-6.33-11.55-11.57-3.34-7.73-2.79-17.08-1.33-25.19 2.87 2.55 5.39 5.53 9.39 6.26 6.59 1.24 12.61-.92 18.53-3.57 2.05-.95 3.77-2.2 4.31-4.52.01-1.94-2.18-3.08-3.43-4.31-5.68-4.68-9.01-11.41-10.31-18.57-1.43-9.46.26-18.64 3.42-27.56 5.53-15.43 15.4-29.43 27.62-40.3 12.23-10.85 27.58-17.05 43.68-19.26-4.17 7.89-7 16.02-6.09 25.1.52 3.93 1.11 8.57 3.28 11.98 1.61 1.53 3.79 3.88 6.12 2.21 3.04-9.99 8.95-18.47 16.15-25.92 14.09-13.83 32.37-22.11 51.77-25.16 11.39-1.64 22.51-2.1 33.98-2.41 23.39-.99 45.88-4.15 67.14-14.51 4.54-2.22 8.45-5.27 12.67-7.99Z" fill="rgba(106, 78, 53, 1)"/><path d="M699.75 472.19c2.29 3.51 3.87 7.52 5.66 11.31.84 2.24 2.29 4.44.8 6.75-1.17.48-2.24.64-3.4.03-1.9-2.6-2.85-5.96-4.27-8.85-1.46-3.54-3.75-6.02-3.23-10.08 1.49-.01 3.5-.75 4.44.84Z" fill="#000"/></g></g></svg>