<svg xmlns:dc="http://purl.org/dc/elements/1.1/" xmlns:cc="http://creativecommons.org/ns#" xmlns:rdf="http://www.w3.org/1999/02/22-rdf-syntax-ns#" xmlns:svg="http://www.w3.org/2000/svg" xmlns="http://www.w3.org/2000/svg" viewBox="0 0 762 762" fill="none"><metadata><rdf:RDF><cc:Work><dc:format>image/svg+xml</dc:format><dc:type rdf:resource="http://purl.org/dc/dcmitype/StillImage"/><dc:title>Adventurer</dc:title><dc:creator><cc:Agent><dc:title>Lisa Wischofsky</dc:title></cc:Agent></dc:creator><dc:source>https://www.instagram.com/lischis_adventures/</dc:source><cc:license rdf:resource="https://creativecommons.org/licenses/by/4.0/"/></cc:Work><cc:License rdf:about="https://creativecommons.org/licenses/by/4.0/"><cc:permits rdf:resource="https://creativecommons.org/ns#Reproduction"/><cc:permits rdf:resource="https://creativecommons.org/ns#Distribution"/><cc:permits rdf:resource="https://creativecommons.org/ns#DerivativeWorks"/><cc:requires rdf:resource="https://creativecommons.org/ns#Notice"/><cc:requires rdf:resource="https://creativecommons.org/ns#Attribution"/></cc:License></rdf:RDF></metadata><mask id="avatarsRadiusMask"><rect width="762" height="762" rx="0" ry="0" x="0" y="0" fill="#fff"/></mask><g mask="url(#avatarsRadiusMask)"><path d="M396.01 164.85c37.82 4.9 74.21 19.64 104.8 42.39 6.15 4.84 12.48 9.33 18.02 14.92 23.77 21.98 42.73 49.02 55.13 78.95 9.35 22.31 14.72 46.04 16.64 70.14 6.62.81 13.05 2.14 19.12 5 15.54 6.93 27.08 20.94 31.78 37.21 2.63 9.56 3.56 19.75 1.72 29.55-2.96 18.76-13.72 36.13-29.37 46.92-10.94 7.65-24.49 12.03-37.86 11.68-5.13-.05-10.04-1.6-15.13-1.79-1.85 2.17-3.23 4.84-4.76 7.25-18.66 29.62-44.57 54.51-74.64 72.4-28.1 16.73-59.9 27.16-92.46 30.32-11.08.7-21.87 2.05-32.98.74-51.69-2.3-102.07-23.44-140.15-58.43-29.03-26.55-50.84-60.83-62.54-98.39-7.09-22.85-10.62-46.78-10.07-70.71.52-40.34 12.53-80.58 33.94-114.76 19.1-30.81 45.91-56.58 77.2-74.83 29.63-17.28 63.35-27.68 97.59-29.87 14.66-1.47 29.44-.37 44.02 1.31Z" fill="#000"/><path d="M363 169.06c48.47-1.39 97.32 14.7 135.81 44.12 6.55 4.06 11.72 9.49 17.36 14.64 24.33 22.63 43.2 50.95 54.93 82.02 7.43 19.61 11.86 40.2 13.56 61.09-8.89.74-17.34 2.34-25.38 6.38-2.19 1.03-1.89 4.95.68 5.23 2.35.23 4.98-1.51 7.24-2.2 14.62-5.37 31.32-4.35 44.78 3.68 11.69 6.78 20.09 18.16 23.89 31.06 2.6 8.25 2.68 17.41 1.76 25.95-2.5 17.35-12.35 33.73-26.73 43.81-15.71 11.33-37.17 14.64-54.93 6.2-3.17-1.43-5.94-3.58-9.08-5.05-2.95-1.09-4.88 2.79-2.7 4.75 3.17 2.76 7.34 4.52 11 6.56-20.14 34.15-49.45 62.7-84.41 81.47-30.2 16.31-64.44 25.53-98.78 26.15-27.63.72-55.33-4.04-81.21-13.72-30.32-11.24-57.84-29.43-80.37-52.6-22.67-23.37-39.92-51.88-50.2-82.77-14.96-44.64-14.91-94.01.27-138.59 11.05-33.06 30.28-63.21 55.37-87.39 29.67-28.73 67.65-48.54 108.13-56.67 12.8-2.52 25.94-4.24 39.01-4.12Z" fill="rgba(158, 86, 34, 1)"/><path d="M605.03 404.4c2.63-.1 3.44 3.8 1.36 4.98-3.69 1.83-7.82 2.77-11.64 4.35-5.82 2.04-11.28 4.76-16.68 7.72 4.29 2.34 8.86 4.74 12.71 7.76 2.58 2.09 4.85 4.35 5.33 7.8-.26 3.59-2.73 6.55-5.45 8.69-5.86 4.66-13.92 7.18-20.79 10.26-1.75.62-4.43 1.99-5.59-.26-1.02-1.74-.06-3.11 1.57-3.87 6.65-3.3 14.86-5.62 20.79-10.16 1.37-1.14 3.39-2.74 3.61-4.62-4.07-5.63-12.42-8.59-18.23-12.09-2.34-1.72-2.29-4.24-.16-6.13 7.27-5.64 16.98-9.26 25.57-12.38 2.42-.83 5.03-1.95 7.6-2.05Z" fill="#000"/><g transform="translate(-161 -83)"><path d="M589.95 433.05c11.85 6.92 21.04 17.51 26.71 29.97 5.93-3.13 11.67-6.68 17.68-9.63 1.79-.95 4.4.55 3.98 2.62.21 1.48-2.02 2.51-3.06 3.23-5.45 3-10.88 6.04-16.34 9.03 1.7 6.87 3.23 13.6 3.24 20.73-.06 12.85-3.69 25.61-10.87 36.3-7.59 11.54-18.88 20.44-31.79 25.28-12.26 4.43-25.85 5.28-38.5 2.03-16.54-4.02-31.31-14.98-40.01-29.6-6.06-9.89-9.33-21.42-9.3-33.01-.36-15.55 5.31-31.11 15.41-42.91 9.58-11.27 23.24-19.42 37.87-21.9 15.25-2.97 31.61-.02 44.98 7.86Z" fill="#000"/><path d="M549.2 430.27c15.9-1.97 31.74 2.27 44.36 12.14 14.46 11.18 23.27 29.28 22.81 47.59.02 22.44-13.8 43.89-34.2 53.21-10.96 5.08-23.24 7-35.17 4.83-16.66-2.69-31.92-12.91-40.74-27.3-5.36-8.64-8.37-18.58-8.98-28.72-.61-14.7 4.4-29.62 13.88-40.9 9.43-11.43 23.36-18.99 38.04-20.85Z" fill="#fff"/><path d="M390.01 446.91c12.75.68 25.11 5.93 34.43 14.65 10.09 9.4 16.54 22.67 17.29 36.47.83 11.45-1.96 22.93-8.01 32.68-8.01 13.08-21.63 22.43-36.73 25.14-13.17 2.48-27.29-.07-38.71-7.1-12.63-7.66-21.86-20.5-25-34.94-2.36-9.41-1.56-18.93 1.03-28.19-3.77-1.54-7.54-3.03-11.33-4.49-1.89-.79-4.01-1.45-5.35-3.09-.4-2.4.76-3.92 3.21-3.62 5.2 1.25 9.98 4.21 15.17 5.57 1.39-1.65 2.24-3.81 3.31-5.68 10.02-17.81 30.31-28.73 50.69-27.4Z" fill="#000"/><path d="M376.509 453.66c18.62-4.25 38.75 3.44 50 18.81 5.72 7.69 9.02 16.99 9.73 26.52.67 13.61-4.44 27.48-14.06 37.18-7.97 8.25-18.78 13.44-30.18 14.66-19.94 2.3-40.08-8.85-49.01-26.78-7.86-15.29-6.93-34.22 2.37-48.68 6.97-11.03 18.38-18.99 31.15-21.71Z" fill="#fff"/><path d="M578.28 465.43c6.24-.76 12.69.82 17.74 4.57 6.29 4.65 10.27 12.14 10.18 20.01-.35 4.78-1.83 9.65-4.57 13.62-4.1 6.13-11.27 10.06-18.6 10.54-8.21.49-16.42-3.28-21.25-9.97-6.02-7.97-6.24-19.8-.63-28.03 3.84-5.84 10.23-9.78 17.13-10.74ZM408.45 478.49c7.22-.86 14.79 2 19.61 7.47 4.03 4.47 6.02 10.02 5.74 16.04.04 12-10.69 22.79-22.8 22.28-12.1.09-22.88-10.05-22.87-22.26-.71-11.81 8.67-22.32 20.32-23.53Z" fill="#000"/></g><g transform="translate(-161 -83)"><path d="M582.3 370.69c14.06 7.04 27.75 17.35 36.57 30.53 2.05 2.95-1.4 6.24-4.23 4.15-10.56-6.54-22.24-11.16-34.46-13.42-35.66-6.86-74.47 5.14-98.23 33.03-1.67 2.05-4.03 3.59-6.28 1.25-1.68-2.6-2.27-6.05-3.3-8.95-1.92 4.71-3.86 9.5-6.21 14.02-1.55 3.23-6 1.12-7.03-1.42-3.06-6.88-6.21-13.74-9.02-20.73.01 5.63.01 11.25.04 16.88-.19 2.06.27 4.35-2.11 5.22-2.06.23-4.36-1.03-5.3-2.91-3.26-5.88-6.24-11.93-9.49-17.82.96 5.51 2.6 10.99 3.1 16.55.12 1.94-2.28 3.44-4.02 2.36-18.54-7.4-38.31-11.49-58.33-10.09-12.5.92-26.14 4.63-36 12.68-3.09 2.34-5.2 5.51-7.97 8.15-1.65.72-3.27-.24-4.88-.65.08-1.91.11-3.75.73-5.58 6.86-20.67 20.43-39.8 39.98-50.1 13.56-7.32 30.17-9.03 44.62-3.35 11.89 4.55 20.95 13.32 27.67 23.95 2.31-2.84 4.25-6.03 6.75-8.71 1.62-1.56 4.62-1.55 5.63.72 2.52 5.15 4.68 10.51 6.98 15.78 1.49-7.42 3.06-14.81 4.43-22.24.33-1.5.6-3.23 1.58-4.45 1.65-1.25 2.9-.28 4.65.1.27.86.53 1.71.8 2.56 2.08-4.75 4.75-9.11 8.44-12.78 9.1-9.43 21.82-14.25 34.5-16.48 23.85-3.69 48.86 1.12 70.39 11.75Z" fill="#000"/></g><g transform="translate(-161 -83)"><path d="M473.001 557.77c14.54-.55 30.84 1.36 43.71 8.62-20.68 8.69-43.21 14.72-65.7 15.48-7.24 0-14.34.28-21.54-.61.7-5.83 3.09-9.58 7.73-13.05 9.92-7.31 23.76-9.76 35.8-10.44Z" fill="#D31E1E"/><path d="M525.03 563.67c.41.78.8 1.57 1.14 2.37.47 2.66-1.95 3.31-3.81 4.34-3.98 1.77-8.05 3.4-12.12 4.98-17.66 6.32-35.39 11.11-54.24 11.94-6.5.5-12.94.62-19.44.04-4.9-.57-10.15-.63-14.87-2.03-2.35-.88-2.73-3.93-.4-5.07 2.68-.12 5.48.83 8.18 1.02 7.2.89 14.3.61 21.54.61 22.49-.76 45.02-6.79 65.7-15.48 2.76-1.19 5.22-2.59 8.32-2.72Z" fill="#000"/><path d="M510.241 575.36c-1.96 10.16-10.37 17.27-19.22 21.68-10.52 5.13-22.48 6.64-34 4.71-8.71-1.77-16.51-6.13-20.46-14.41 6.5.58 12.94.46 19.44-.04 18.85-.83 36.58-5.62 54.24-11.94Z" fill="#D31E1E"/></g><g transform="translate(-161 -83)"/><g transform="translate(-161 -83)"><path d="M468.52 215.13c6.94 1.1 13.87 1.06 20.73 2.49 12.08 2.4 24.05 5.8 35.97 8.88 32.65 8.77 65.48 16.6 98.79 22.42 21.51 3.8 44.07 6.84 64.59 14.52 11.41 3.93 22.29 9.07 32.62 15.29 4.79 3.71 8.67 8.98 12.11 13.92 14.22 21.21 23.89 44.41 31.31 68.76 6.9 21.11 11.88 42.73 15.9 64.55 2.23 7.65.7 16.32-.57 24.07-3.39 19.05-10.06 36.98-18.7 54.23-10.45 20.22-23.84 39.13-38.51 56.5-9.86 11.15-19.46 21.73-31.67 30.38-9.62 6.79-20.13 13.81-31.32 17.65-1.66.45-2.96 1.41-4.29-.25-1.31-1.13-.26-3.64.02-5.08 3.4-11.32 5.82-22.96 7.27-34.69 1.28-8.83 1.24-17.86 1.68-26.77-.2-9.99-.51-20.07-1.95-29.98-4.41-32.88-16.51-64.58-36.41-91.24-2.1 30.29.44 61.29 8.53 90.59.85 3.38 2.4 6.42 3.66 9.64.45 3.28-2.22 4.61-5.04 3.5-56.62-20.48-106.61-58.8-139.08-109.73-6.07 8.35-11.51 17.11-15.89 26.46-9.76 20.35-14.96 42.87-16.96 65.27-.73 10.16-.43 20.48.37 30.62-1.04 1.22-2.03 3.55-3.8 3.7-1.98.31-2.95-1.43-4.04-2.73-5.53-7.5-11.03-15.14-15.74-23.19-11.89-20.61-21.3-42.72-28.5-65.38-7.11-23.22-13.06-47.36-15.13-71.59-10 11.4-18.73 23.98-26.64 36.9-9.99 16.42-18.42 33.84-24.93 51.93-5.68 15.95-9.81 32.29-10.56 49.26-.12 3.22-3.72 3.08-5.41 1.04-10.24-10.5-18.63-22.91-24.94-36.13-12.99-26.95-17.69-57.25-15.12-86.95-3.79 2.85-7.75 5.47-11.56 8.3-10.49 8.15-19.75 17.77-27.41 28.63-1.43 1.75-2.16 3.66-4.84 3.3-2.71-1.1-1.08-4.12-.92-6.26 3.08-12.66 8.37-24.89 14.36-36.43 14.96-28.28 36.24-53.7 59.71-75.32 29.06-26.31 63.17-48.65 100.49-61.18 4.64-9.04 9.76-18.25 16.08-26.23 4.39-5.56 9.76-10.14 16.48-12.61 6.32-2.13 12.74-2.09 19.26-1.06Z" fill="#000"/><path d="M471.47 220.92c16.52 1.32 33.37 6.32 49.44 10.46 28.05 7.49 56.04 14.49 84.57 19.97 26.74 5.55 53.99 8 79.46 16.85 10.16 3.47 20.58 7.41 29.73 13.09 6.94 4.34 11.2 10.68 15.69 17.34 9.55 15.02 17.21 31.11 23.2 47.87 9.1 25.86 16.26 52.37 21.52 79.28 1.48 7.78.59 15.24-.75 22.96-2.2 12.07-5.68 23.9-10.31 35.27-9.05 22.97-22.57 43.91-37.76 63.27-7.8 10.11-16.44 19.49-25.59 28.4-6.88 6.71-14.47 12.19-22.44 17.54-5.16 3.3-10.53 6.61-16.19 8.98 8.37-31.01 10.61-63.49 5.54-95.25-5.31-34.58-19.2-68.87-41.86-95.74-1.48-1.87-3.87-1.34-4.9.66-2.91 35.82-.97 71.21 10.12 105.6-52.65-20.04-99.88-56.37-130.55-103.86-18.72-29.06-30.97-61.87-33.85-96.44-.21-2.61-2.48-3.65-4.76-2.52-1.33 1.68-.99 3.43-.9 5.42 3.15 31.62 13.79 61.92 29.99 89.19-5.08 7.27-10.08 14.44-14.22 22.3-11.35 21.13-17.93 44.66-20.39 68.46-1.28 10.33-.85 20.55-.44 30.92-9.75-12.84-17.66-26.82-24.4-41.44-14.04-29.91-23.48-62.03-29.02-94.56-2.28-13.88-3.46-27.88-3.82-41.93.21-17.2 2.42-34.32 6.46-51.02 4.9-19.78 13.27-38.9 23.49-56.49 4.91-8.13 10.91-17.87 19.47-22.51 6.98-4.15 15.79-3.03 23.47-2.07Z" fill="rgba(62, 172, 44, 1)"/><path d="M413 262.56c-13.41 28.25-19.79 59.25-20.17 90.44.01 5.72.61 11.41.71 17.13-19.23 21.47-34.89 46.31-47.04 72.4-7.48 16.46-13.79 33.91-17.35 51.67-.98 4.71-1.4 9.5-2.34 14.21-25.34-29.14-36.7-69.23-34.64-107.42-.01-4.76 1.44-8.73-.22-12.99-1.4-1.45-3.5-.88-5.08-.06-4.02 2.11-7.65 5.01-11.42 7.53-8.88 5.98-16.19 13.18-23.6 20.8 3.41-9.6 7.89-18.82 12.92-27.66 19.62-34.48 48.09-64.4 79.67-88.19 19.99-14.92 41.95-27.71 65.26-36.68 1.1-.4 2.2-.79 3.3-1.18Z" fill="rgba(62, 172, 44, 1)"/></g></g></svg>