<svg xmlns:dc="http://purl.org/dc/elements/1.1/" xmlns:cc="http://creativecommons.org/ns#" xmlns:rdf="http://www.w3.org/1999/02/22-rdf-syntax-ns#" xmlns:svg="http://www.w3.org/2000/svg" xmlns="http://www.w3.org/2000/svg" viewBox="0 0 762 762" fill="none"><metadata><rdf:RDF><cc:Work><dc:format>image/svg+xml</dc:format><dc:type rdf:resource="http://purl.org/dc/dcmitype/StillImage"/><dc:title>Adventurer</dc:title><dc:creator><cc:Agent><dc:title>Lisa Wischofsky</dc:title></cc:Agent></dc:creator><dc:source>https://www.instagram.com/lischis_adventures/</dc:source><cc:license rdf:resource="https://creativecommons.org/licenses/by/4.0/"/></cc:Work><cc:License rdf:about="https://creativecommons.org/licenses/by/4.0/"><cc:permits rdf:resource="https://creativecommons.org/ns#Reproduction"/><cc:permits rdf:resource="https://creativecommons.org/ns#Distribution"/><cc:permits rdf:resource="https://creativecommons.org/ns#DerivativeWorks"/><cc:requires rdf:resource="https://creativecommons.org/ns#Notice"/><cc:requires rdf:resource="https://creativecommons.org/ns#Attribution"/></cc:License></rdf:RDF></metadata><mask id="avatarsRadiusMask"><rect width="762" height="762" rx="0" ry="0" x="0" y="0" fill="#fff"/></mask><g mask="url(#avatarsRadiusMask)"><path d="M396.01 164.85c37.82 4.9 74.21 19.64 104.8 42.39 6.15 4.84 12.48 9.33 18.02 14.92 23.77 21.98 42.73 49.02 55.13 78.95 9.35 22.31 14.72 46.04 16.64 70.14 6.62.81 13.05 2.14 19.12 5 15.54 6.93 27.08 20.94 31.78 37.21 2.63 9.56 3.56 19.75 1.72 29.55-2.96 18.76-13.72 36.13-29.37 46.92-10.94 7.65-24.49 12.03-37.86 11.68-5.13-.05-10.04-1.6-15.13-1.79-1.85 2.17-3.23 4.84-4.76 7.25-18.66 29.62-44.57 54.51-74.64 72.4-28.1 16.73-59.9 27.16-92.46 30.32-11.08.7-21.87 2.05-32.98.74-51.69-2.3-102.07-23.44-140.15-58.43-29.03-26.55-50.84-60.83-62.54-98.39-7.09-22.85-10.62-46.78-10.07-70.71.52-40.34 12.53-80.58 33.94-114.76 19.1-30.81 45.91-56.58 77.2-74.83 29.63-17.28 63.35-27.68 97.59-29.87 14.66-1.47 29.44-.37 44.02 1.31Z" fill="#000"/><path d="M363 169.06c48.47-1.39 97.32 14.7 135.81 44.12 6.55 4.06 11.72 9.49 17.36 14.64 24.33 22.63 43.2 50.95 54.93 82.02 7.43 19.61 11.86 40.2 13.56 61.09-8.89.74-17.34 2.34-25.38 6.38-2.19 1.03-1.89 4.95.68 5.23 2.35.23 4.98-1.51 7.24-2.2 14.62-5.37 31.32-4.35 44.78 3.68 11.69 6.78 20.09 18.16 23.89 31.06 2.6 8.25 2.68 17.41 1.76 25.95-2.5 17.35-12.35 33.73-26.73 43.81-15.71 11.33-37.17 14.64-54.93 6.2-3.17-1.43-5.94-3.58-9.08-5.05-2.95-1.09-4.88 2.79-2.7 4.75 3.17 2.76 7.34 4.52 11 6.56-20.14 34.15-49.45 62.7-84.41 81.47-30.2 16.31-64.44 25.53-98.78 26.15-27.63.72-55.33-4.04-81.21-13.72-30.32-11.24-57.84-29.43-80.37-52.6-22.67-23.37-39.92-51.88-50.2-82.77-14.96-44.64-14.91-94.01.27-138.59 11.05-33.06 30.28-63.21 55.37-87.39 29.67-28.73 67.65-48.54 108.13-56.67 12.8-2.52 25.94-4.24 39.01-4.12Z" fill="rgba(158, 86, 34, 1)"/><path d="M605.03 404.4c2.63-.1 3.44 3.8 1.36 4.98-3.69 1.83-7.82 2.77-11.64 4.35-5.82 2.04-11.28 4.76-16.68 7.72 4.29 2.34 8.86 4.74 12.71 7.76 2.58 2.09 4.85 4.35 5.33 7.8-.26 3.59-2.73 6.55-5.45 8.69-5.86 4.66-13.92 7.18-20.79 10.26-1.75.62-4.43 1.99-5.59-.26-1.02-1.74-.06-3.11 1.57-3.87 6.65-3.3 14.86-5.62 20.79-10.16 1.37-1.14 3.39-2.74 3.61-4.62-4.07-5.63-12.42-8.59-18.23-12.09-2.34-1.72-2.29-4.24-.16-6.13 7.27-5.64 16.98-9.26 25.57-12.38 2.42-.83 5.03-1.95 7.6-2.05Z" fill="#000"/><g transform="translate(-161 -83)"><path d="M555 424.09c15.07-.45 30.21 4.46 42.06 13.81 18.47 14.28 28.15 38.55 24.23 61.62-.99 7.61-3.96 14.36-6.83 21.38-1.43.59-2.9 1.25-4.4 1.62-3.14-.02-6.34-1.41-9.37-2.2-15.51-4.54-31.55-6.76-47.69-6.93-13.3.45-27.29 2.4-39.34 8.31-2.83 1.28-5.61 2.99-8.59 3.86-3.52-.25-4.36-3.15-5.94-5.74-7.02-13.13-9.05-28.5-6.31-43.08 2.57-13.26 9.31-25.52 19.15-34.79 11.6-11.03 27.01-17.44 43.03-17.86Z" fill="#000"/><path d="M557.001 429.85c13.47-.19 26.63 4.66 37.13 13.01 9.59 7.63 16.7 18.34 20 30.15 4.23 14.46 2.5 30.12-4.26 43.54-6.14-.92-11.86-3.14-17.94-4.39-16.73-3.67-34.37-5.5-51.43-3.48-12.36 1.34-23.99 5.14-34.84 11.18-6.86-11.98-10.07-26.23-7.61-39.92 2-12.66 8.2-24.57 17.42-33.47 10.95-10.62 26.24-16.88 41.53-16.62Z" fill="#fff"/><path d="M381.25 447.09c12.75-1.3 25.87 1.93 36.48 9.14 12.3 8.24 20.94 21.6 23.4 36.21 1.25 8.35.98 17.27-1.59 25.36-3.82 12.78-12.47 23.95-23.86 30.89-10.28 6.31-22.73 9.17-34.72 7.73-15.89-1.56-30.69-10.55-39.57-23.79-5.78-8.44-8.88-18.4-9.5-28.58-.36-12.78 3.55-25.59 11.4-35.73 9.08-11.92 23.05-19.71 37.96-21.23Z" fill="#000"/><path d="M376.499 453.66c11.24-2.5 23.12-.85 33.29 4.51 17.34 8.91 28.1 28.42 26.3 47.83-1.13 11.3-5.9 22.08-13.91 30.17-8.21 8.51-19.42 13.72-31.18 14.77-19.4 1.77-38.75-8.99-47.69-26.26-8.31-15.63-7.35-35.21 2.46-49.94 7-10.71 18.22-18.41 30.73-21.08Z" fill="#fff"/><path d="M519.431 474.74c8.56-2.21 17.77 3.55 19.3 12.29 1.86 8.33-3.88 16.92-12.2 18.57-9.21 2.17-18.82-5.06-18.99-14.59-.68-7.52 4.66-14.48 11.89-16.27ZM403.43 485.61c9.52-3.24 20.05 4.41 20.34 14.34.81 8.84-6.85 17.06-15.74 16.75-8.62.39-16.04-7.14-15.96-15.68-.25-6.97 4.7-13.5 11.36-15.41ZM598.819 532.68c1.05.34 2.11.69 3.16 1.06-.43 1.65-.27 3.31-1.72 4.43-6.89 5.73-16.13 10.13-25.25 9.91-3.84-.08-8.61-1-11.46-3.78-.26-1.17-.33-2.4-.44-3.59.93-.31 1.87-.63 2.81-.94 4.52 2.16 9.07 3.47 14.1 2.21 7.46-1.28 12.59-5.51 18.8-9.3ZM347.061 547.76c2.26-.49 3.85 1.46 5.53 2.62 9.4 7.75 21.34 11.38 33.42 11.45 5.83.1 10.84-2.25 16.7-1.34-.51 2.38-.06 4.38-2.93 5.06-18.1 4.87-38.96.17-52.89-12.49-1.77-1.38-2.24-4.33.17-5.3Z" fill="#000"/></g><g transform="translate(-161 -83)"><path d="M582.3 370.69c14.06 7.04 27.75 17.35 36.57 30.53 2.05 2.95-1.4 6.24-4.23 4.15-10.56-6.54-22.24-11.16-34.46-13.42-35.66-6.86-74.47 5.14-98.23 33.03-1.67 2.05-4.03 3.59-6.28 1.25-1.68-2.6-2.27-6.05-3.3-8.95-1.92 4.71-3.86 9.5-6.21 14.02-1.55 3.23-6 1.12-7.03-1.42-3.06-6.88-6.21-13.74-9.02-20.73.01 5.63.01 11.25.04 16.88-.19 2.06.27 4.35-2.11 5.22-2.06.23-4.36-1.03-5.3-2.91-3.26-5.88-6.24-11.93-9.49-17.82.96 5.51 2.6 10.99 3.1 16.55.12 1.94-2.28 3.44-4.02 2.36-18.54-7.4-38.31-11.49-58.33-10.09-12.5.92-26.14 4.63-36 12.68-3.09 2.34-5.2 5.51-7.97 8.15-1.65.72-3.27-.24-4.88-.65.08-1.91.11-3.75.73-5.58 6.86-20.67 20.43-39.8 39.98-50.1 13.56-7.32 30.17-9.03 44.62-3.35 11.89 4.55 20.95 13.32 27.67 23.95 2.31-2.84 4.25-6.03 6.75-8.71 1.62-1.56 4.62-1.55 5.63.72 2.52 5.15 4.68 10.51 6.98 15.78 1.49-7.42 3.06-14.81 4.43-22.24.33-1.5.6-3.23 1.58-4.45 1.65-1.25 2.9-.28 4.65.1.27.86.53 1.71.8 2.56 2.08-4.75 4.75-9.11 8.44-12.78 9.1-9.43 21.82-14.25 34.5-16.48 23.85-3.69 48.86 1.12 70.39 11.75Z" fill="#000"/></g><g transform="translate(-161 -83)"><path d="M526 559.6c18.01-.01 37.23 2.15 53.99 9.09-52.2 7.17-107.15 15.07-158.98 22.2 8.03-6.99 17.68-12.32 27.44-16.47 12.23-5.1 26.26-9.18 39.59-7.43.98.15 1.86.04 2.63-.34 10.24-5.91 23.77-6.7 35.33-7.05Z" fill="#D31E1E"/><path d="M579.989 568.69c2.42 1 1.92 3.4 1.38 5.45-6.78 13.35-16.08 25.18-28.35 33.9-17.19 12.49-38.88 18.4-60.02 17.58-26.81-.96-53.07-12.04-73.44-29.31-.4-2.42-.49-3.71 1.45-5.42 51.83-7.13 106.78-15.03 158.98-22.2Z" fill="#000"/><path d="M581.371 574.14c-1.11 4.61-1.85 9.19-3.65 13.62-5.36 13.94-16.05 25.4-28.38 33.56-13.59 8.87-29.26 14.15-45.36 15.89-19.66 2.09-40.79-1.09-58.01-11.18-11.76-6.82-21.37-16.99-26.41-29.72 20.37 17.27 46.63 28.35 73.44 29.31 21.14.82 42.83-5.09 60.02-17.58 12.27-8.72 21.57-20.55 28.35-33.9Z" fill="#D31E1E"/><path d="M573.86 575.51c-8.17 15.05-20.98 27.46-36.37 34.99-12.46 6.12-26.6 9.44-40.49 9.19-24.71.18-49.01-9.01-68.58-23.87 47.93-6.59 97.73-13.8 145.44-20.31Z" fill="#fff"/></g><g transform="translate(-161 -83)"/><g transform="translate(-161 -83)"><path d="M565.501 177.73c23.36 3.36 48.26 10.26 67.75 24.01 13.17 9.16 23.45 21.91 27.48 37.64 19.22 5.08 37.68 12.83 54.59 23.32 36.7 22.51 66.35 55.55 85.51 94.05 3.61-5.78 6.83-11.35 11.53-16.37 4.48-4.73 9.2-8.75 15.77-10.09 12.14-2.06 24.81.69 35.04 7.52 5.66 3.97 11.75 9.5 13.54 16.43 1.74 7.53 1.45 15.73-1.18 23.02-1.94 5.29-6.01 8.67-10.53 11.72-9.83 6.38-20.28 11.12-31.15 15.42 9.83-1.52 20.23-2.48 30.15-1.45 5 .43 9.62 2.51 13.74 5.29 7.38 5.15 13.37 12.49 17.63 20.38 3.28 6.45 1.63 13.01-1.71 19.02-4.51 7.78-10.13 16.28-17.48 21.64-4.61 3.42-10.77 3.23-16.21 2.64-10.48-1.27-19.84-7.7-28.03-13.96 6.06 7.44 13.71 15.98 14.07 26.04.18 8.76-2.83 18.05-5.88 26.19-2.05 4.92-4.85 10.92-10.56 12.26-7.65 1.45-15.52 1.57-23.03-.76-1.47 2.6-2.57 5.14-3.11 8.1-3.61 17.09-13.75 32.38-27.84 42.66-2.35 11.64-1.98 23.54 2.3 34.69 2.81 7.17 7.3 13.81 13.82 18.09 1.26 1.03 3.53 2.06 3.87 3.75.43 2.83-2.64 3.92-4.62 5.06-16.64 8.22-37.28 8.43-54.71 2.66-15.04-5.01-29.36-15.17-35.93-30-.86-2.08.28-3.33 1.46-4.88 5.51-6.66 10.43-13.94 14.27-21.69-3.76-2.07-8.29-3.89-11.32-6.97-1.3-2.18.63-5.13 3.13-4.12 3.98 1.98 7.57 4.64 11.72 6.35 15.77 5.97 33.69 3.93 48.08-4.72 16.7-9.85 28.26-27.48 31.02-46.63 1.17-9.82.7-19.65-2.74-28.99-4.53-12.85-13.87-23.77-26.12-29.83-2.25-.93-4.52-2.79-6.94-1.32-9.27 4.8-18.88 8.71-28.45 12.83.04 20.56-7.72 41.2-20.16 57.44-6.72 8.48-15.82 17.06-26.74 19.34-3.74.85-8.97 1.16-12.18-1.32-1.43-3.99 3.9-4.57 5.83-7.01 5.59-6.54 6.64-17.01 7.48-25.22.91-17.28-1.51-34.85-4.99-51.75-.47-2.08-.81-4.29-1.63-6.27-3.46-1.91-7.2-3.24-10.54-5.41-15.08-9.17-27.11-23.9-36.27-38.78-13.14-21.32-22.39-45.73-29.41-69.7-5.03-17.11-8.74-34.52-12.07-52.03-14.3-6.56-29.72-10.8-45.25-13.21-7.3-.85-15.05-1.53-22.33-.32-2.03.3-3.49 1.4-5.24 2.38.95 1.39 1.87 2.93 3.03 4.16 3 3.13 7.12 4.38 9.8 7.93-1.42 1.84-1.82 3.56-4.58 2.75-17.81-5.53-36.36-8.92-55-9.8-8.53-.83-17.12-.88-25.66-.06-19.62.97-39.22 4.92-57.53 12.06-3.78 1.34-6.66 3.83-9.57 6.48-15.59 13.85-28.96 30.36-39.91 48.08-8.33 13.74-15.66 28.48-20.09 43.96-6.51 18.8-10.12 38.7-11.19 58.54-.3 13.42-.29 26.73 1.72 40.04 4.28 32.13 15.9 63.27 33.67 90.38 18.32 28.13 43.32 51.74 72.23 68.75 2.48 1.54 5.5 2.69 7.59 4.74 1.36 12.16-5.14 23.77-15.13 30.42-14.84 9.98-34.71 9.58-49.97.66-.63 13.12-5.64 25.51-13.43 35.98-7.58 10.15-18.49 18.88-30.85 22.24-2.03.46-4.07 1.27-5.76-.45-2.11-1.71-1.04-4.4-1.03-6.73 1.11-9.62-3.59-18.28-10.42-24.7-8.61 13.56-23.26 21.03-38.86 23.2-17.45 2.47-36.22-1.56-50.71-11.73-9.93-6.93-17.68-16.94-20.15-28.97-.66-2.55.32-4.96 1.74-7.05 4.45-.48 8.47.34 12.83-1.08 9.18-2.66 16.3-9.85 21.05-17.9 8.23-13.98 10.17-30.53 7.29-46.35-22.05-4.69-42.7-14.79-59.14-30.31-14.29-13.37-25.06-30.67-30.42-49.51-5.92-20.41-5.62-42.3.45-62.64 7.62-25.97 24.22-48.87 45.73-65.15-5.9-14.91-2.74-30.85 4.52-44.63 9.74-18.42 25.97-33.43 45.04-41.82 10.95-4.81 22.93-6.94 34.82-5.01-2-10.59-1.58-21.3 1.77-31.57 5.84-18.75 19.22-35.37 33.55-48.46 19.04-17.4 41.67-31.08 64.98-41.96 25.02-11.61 51.5-20.2 78.45-25.98 37.09-7.95 76.05-10.64 113.71-5.65Z" fill="#000"/><path d="M506.98 181.51c20.9-1.41 41.85-.54 62.53 2.71 19.96 3.42 39.9 9.1 57.1 20.07 11.41 7.35 21.8 17.65 26.51 30.62 1.2 2.98 1.52 6.27 2.8 9.2 2.96 1.07 6.13 1.56 9.14 2.49 32.16 9.42 61.57 27.48 85.52 50.81 19.23 18.82 35.17 41.05 46.71 65.38-1.56 2.73-2.96 5.54-4.39 8.34-.99-7.41-2.34-14.59-5.7-21.34-3.47-6.66-7.95-13.48-14.16-17.88-6.18-4.55-14.51-6.08-22.04-6.08-9.24-.09-18.85.66-27.72 3.39-3.97 1.16-6.78 4.06-8.22 7.89-1.85 5.26-2.27 11.17-3.33 16.66-1.06 8.2-.94 17.39 2.56 25.04 1.73 3.78 4.68 6.54 8.14 8.75 7 4.46 14.75 7.83 21.82 12.21 3.38 2.1 6.74 4.2 10.21 6.12-10.96 2.12-21.69 3.55-32.23 7.48-5.56 2.12-11.26 4.38-16.31 7.56-5.78 3.8-8.25 10.47-10.08 16.84-2.25 8.97-4.63 17.71-3.4 27.03.84 4.12 4.16 6.96 7.24 9.51 5.23 4.39 11.35 7.49 18.28 7.82 3.9.15 7.23-1.09 10.83-2.4-1.26 17.73-7.41 34.86-17.82 49.26-6.4 8.49-13.95 15.8-24.33 19.02 5.28-8.06 6.92-17.56 7.68-27.01.28-8.32.33-16.7-.43-25-1.42-12.22-3.17-24.63-6.45-36.5-.56-2.38-2.3-2.72-4.25-3.64-11.69-4.59-21.98-13.5-30.01-23.02-10.97-13.03-19.03-27.54-26.05-42.99-12.45-27.95-20.57-57.89-26.3-87.88-.64-3.15-.86-6.75-2.23-9.67-1.4-1.55-3.22-2.76-4.85-4.06-21.52-16.92-44.92-31.84-69.93-43.05-25.26-11.2-52.1-18.67-79.82-19.6-32.44-1.25-64.87 7.63-90.58 27.81-13.79 11.48-24.49 26.07-31.39 42.61-.66 1.6-.87 3.27.17 4.76 1.66.75 2.67.63 3.99-.63 1.79-2.32 2.69-5.38 4.02-7.98 6.69-13.6 16.41-26.21 28.56-35.36 24.23-18.7 55.37-26.76 85.69-25.37 19.52.58 39.19 4.99 57.57 11.46 27.43 9.61 52.57 23.78 76.08 40.75-15.64-4.69-32.75-8.61-49.15-7.51-4.09.5-10.14 1.51-12.41 5.41-1.95 3.01-.7 6.01.66 8.92-34.36-8.49-71.19-9.33-105.68-1.09-6.32 1.47-12.45 3.6-18.72 5.27-3.06.87-5.94 1.64-8.47 3.67-17.5 14.1-32.5 31.48-44.73 50.29-3.52 5.02-5.94 10.63-9.31 15.76-7.26 13.02-12.82 27.04-16.74 41.42-13.48 44.77-12.38 93.62 3.03 137.76 11.34 32.64 30.42 62.59 55.16 86.72 14.36 14.1 30.68 26.04 48.26 35.81-.47 9.6-5.83 18.03-13.94 23.03-13.83 8.63-32.11 7.41-45.3-1.89-2.37-1.77-5.93-1.42-6.2 2.05-.02 8.47-1.27 16.66-4.9 24.37-6.47 14.71-18.89 27.91-34.5 32.76 1.21-12.25-4.37-24.07-13.97-31.56-1.88-1.57-4.3-1.36-5.94.4-1.67 2.03-2.9 4.38-4.59 6.4-4.04 4.82-9.16 8.56-14.84 11.22-20.35 9.55-46.06 6.63-64.16-6.54-8.4-6.12-14.79-14.69-17-24.96 5.25.06 10.3-.39 15.07-2.73 11.73-5.25 20.15-16.65 24.63-28.39 4.69-12.42 6.06-26.19 3.61-39.25-.45-2.08-.23-5.46-2.98-5.91-22.56-4.42-43.79-14.88-60.13-31.18-15.1-14.76-25.48-34.32-29.21-55.1-3.57-18.84-1.37-38.84 5.36-56.75 7.76-21.01 22-39.63 39.62-53.37 1.77-1.59 4.8-2.78 4.24-5.67-.63-3.39-2.59-6.46-3.02-9.95-2.27-13.17 2.97-27.17 9.93-38.19 9.76-15.07 24.25-27.37 40.94-34.07 10.43-4.14 22.39-6.02 33.28-2.63 2.22.66 3.66.14 4.32-2.14-.78-4.75-2.66-9.08-2.66-14.01-.87-14.08 4.14-27.19 11.37-39.01 7.45-11.76 17.07-22.29 27.66-31.28 12.16-10.52 25.73-19.47 39.76-27.28 46.01-25.14 98.33-39.31 150.52-42.93Z" fill="rgba(219, 163, 190, 1)"/><path d="M755.01 331.81c6.12.48 12.7 2.65 17.21 6.97 4.01 3.74 7.09 8.56 9.61 13.4 4.5 9.12 5.17 18.42 5.85 28.38.03 1.87 1.25 3.92 3.35 3.58 2.15-.43 3.27-3.23 4.13-4.99 4.12-9.23 9.2-17.79 14.74-26.22 3.78-5.77 8.72-11.82 14.79-15.27 5.45-2.8 12.45-2.84 18.35-1.7 9.85 1.83 19.15 6.59 25.43 14.54 2.21 2.82 3.06 6.17 3.44 9.68.59 5.52-.16 11.21-2.42 16.3-1.73 3.85-5.9 6.49-9.34 8.69-11.87 7.45-24.47 12.23-37.35 17.54-2.22.97-5.18 1.5-6.95 3.18-1.98 2.21.55 5.43 3.13 4.99 7.5-.85 15.06-.84 22.53-1.95 7.57-1 15.4-1.25 22.97-.13 8.98 1.63 16.58 8.91 21.71 16.09 2.21 3.14 5.24 7.09 5.08 11.1.18 3.97-2.11 7.89-4.08 11.2-3.78 6.06-8.21 12.74-13.97 17.07-3.48 2.63-8.11 2.59-12.23 2-8.09-1.14-14.87-5.22-21.44-9.84-8.19-6.13-16.34-12.26-23.94-19.12-1.34-1.44-3.79-1.28-4.95.28-1.11 1.18-.65 3.29.34 4.44 4.41 5.85 9.13 11.49 14.14 16.84 4.91 5.37 9.72 11.22 13.04 17.72 2.71 5.3 2.41 10.98 1.13 16.64-1.42 5.9-3.24 11.77-5.69 17.33-1.49 3.03-2.93 5.98-6.62 6.57-7.24.9-15.15 1.21-21.74-2.4-.51-7.78-1.41-15.4-4.27-22.72-4.97-13.48-14.73-24.54-27.29-31.46.19-1.72.83-3.77.34-5.46-.63-1.85-2.45-1.71-3.94-1.03-10.98 6.03-22.59 11.22-34.26 15.78-6 2.34-12.28 7.21-18.87 6.4-6.34-.73-12.45-4.93-16.84-9.38-2.45-2.48-2.35-5.6-2.22-8.85.47-6.47 2.07-12.97 3.74-19.23 1.63-5.3 3.37-10.62 8.49-13.54 8.77-4.92 18.55-8.26 28.36-10.4 8.5-1.6 17.01-3.15 25.47-4.97 2.66-.19 2.41-4.29.21-5.04-8.08-3.63-15.1-8.82-22.74-13.2-5.35-2.94-10.84-5.78-15.97-9.08-2.87-1.84-5.25-4.25-6.44-7.51-2.26-6.32-2.62-13.43-1.52-20.03.88-5.37 1.37-11.13 3.22-16.26 1.64-4.14 6.46-4.54 10.24-5.4 7.94-1.78 15.95-1.76 24.04-1.53Z" fill="#E57E5E"/><path d="M790.44 409.47c2.96-.75 4.69.55 6.07 3.06 2.39 5.09 3.79 11.26.33 16.22-1.51 2.26-4.31 2.51-6.26.68-2.91-2.51-3.02-6.9-3.32-10.44-.06-3.45-.22-7.53 3.18-9.52Z" fill="#000"/><path d="M768.929 576.59c-.82 8.2-.86 16.93 1.19 24.96 2.5 11.03 8.18 20.9 17.12 27.95-19.36 8.47-42.08 6.76-60.49-3.29-8.31-4.63-16.32-11.75-20.39-20.48 5.36-7.58 10.97-14.85 14.95-23.33 5.42.68 10.3 2.51 15.68 2.39 11.12-.05 22.2-2.79 31.94-8.2Z" fill="rgba(219, 163, 190, 1)"/></g></g></svg>