<svg xmlns:dc="http://purl.org/dc/elements/1.1/" xmlns:cc="http://creativecommons.org/ns#" xmlns:rdf="http://www.w3.org/1999/02/22-rdf-syntax-ns#" xmlns:svg="http://www.w3.org/2000/svg" xmlns="http://www.w3.org/2000/svg" viewBox="0 0 762 762" fill="none"><metadata><rdf:RDF><cc:Work><dc:format>image/svg+xml</dc:format><dc:type rdf:resource="http://purl.org/dc/dcmitype/StillImage"/><dc:title>Adventurer</dc:title><dc:creator><cc:Agent><dc:title>Lisa Wischofsky</dc:title></cc:Agent></dc:creator><dc:source>https://www.instagram.com/lischis_adventures/</dc:source><cc:license rdf:resource="https://creativecommons.org/licenses/by/4.0/"/></cc:Work><cc:License rdf:about="https://creativecommons.org/licenses/by/4.0/"><cc:permits rdf:resource="https://creativecommons.org/ns#Reproduction"/><cc:permits rdf:resource="https://creativecommons.org/ns#Distribution"/><cc:permits rdf:resource="https://creativecommons.org/ns#DerivativeWorks"/><cc:requires rdf:resource="https://creativecommons.org/ns#Notice"/><cc:requires rdf:resource="https://creativecommons.org/ns#Attribution"/></cc:License></rdf:RDF></metadata><mask id="avatarsRadiusMask"><rect width="762" height="762" rx="0" ry="0" x="0" y="0" fill="#fff"/></mask><g mask="url(#avatarsRadiusMask)"><path d="M396.01 164.85c37.82 4.9 74.21 19.64 104.8 42.39 6.15 4.84 12.48 9.33 18.02 14.92 23.77 21.98 42.73 49.02 55.13 78.95 9.35 22.31 14.72 46.04 16.64 70.14 6.62.81 13.05 2.14 19.12 5 15.54 6.93 27.08 20.94 31.78 37.21 2.63 9.56 3.56 19.75 1.72 29.55-2.96 18.76-13.72 36.13-29.37 46.92-10.94 7.65-24.49 12.03-37.86 11.68-5.13-.05-10.04-1.6-15.13-1.79-1.85 2.17-3.23 4.84-4.76 7.25-18.66 29.62-44.57 54.51-74.64 72.4-28.1 16.73-59.9 27.16-92.46 30.32-11.08.7-21.87 2.05-32.98.74-51.69-2.3-102.07-23.44-140.15-58.43-29.03-26.55-50.84-60.83-62.54-98.39-7.09-22.85-10.62-46.78-10.07-70.71.52-40.34 12.53-80.58 33.94-114.76 19.1-30.81 45.91-56.58 77.2-74.83 29.63-17.28 63.35-27.68 97.59-29.87 14.66-1.47 29.44-.37 44.02 1.31Z" fill="#000"/><path d="M363 169.06c48.47-1.39 97.32 14.7 135.81 44.12 6.55 4.06 11.72 9.49 17.36 14.64 24.33 22.63 43.2 50.95 54.93 82.02 7.43 19.61 11.86 40.2 13.56 61.09-8.89.74-17.34 2.34-25.38 6.38-2.19 1.03-1.89 4.95.68 5.23 2.35.23 4.98-1.51 7.24-2.2 14.62-5.37 31.32-4.35 44.78 3.68 11.69 6.78 20.09 18.16 23.89 31.06 2.6 8.25 2.68 17.41 1.76 25.95-2.5 17.35-12.35 33.73-26.73 43.81-15.71 11.33-37.17 14.64-54.93 6.2-3.17-1.43-5.94-3.58-9.08-5.05-2.95-1.09-4.88 2.79-2.7 4.75 3.17 2.76 7.34 4.52 11 6.56-20.14 34.15-49.45 62.7-84.41 81.47-30.2 16.31-64.44 25.53-98.78 26.15-27.63.72-55.33-4.04-81.21-13.72-30.32-11.24-57.84-29.43-80.37-52.6-22.67-23.37-39.92-51.88-50.2-82.77-14.96-44.64-14.91-94.01.27-138.59 11.05-33.06 30.28-63.21 55.37-87.39 29.67-28.73 67.65-48.54 108.13-56.67 12.8-2.52 25.94-4.24 39.01-4.12Z" fill="rgba(236, 173, 128, 1)"/><path d="M605.03 404.4c2.63-.1 3.44 3.8 1.36 4.98-3.69 1.83-7.82 2.77-11.64 4.35-5.82 2.04-11.28 4.76-16.68 7.72 4.29 2.34 8.86 4.74 12.71 7.76 2.58 2.09 4.85 4.35 5.33 7.8-.26 3.59-2.73 6.55-5.45 8.69-5.86 4.66-13.92 7.18-20.79 10.26-1.75.62-4.43 1.99-5.59-.26-1.02-1.74-.06-3.11 1.57-3.87 6.65-3.3 14.86-5.62 20.79-10.16 1.37-1.14 3.39-2.74 3.61-4.62-4.07-5.63-12.42-8.59-18.23-12.09-2.34-1.72-2.29-4.24-.16-6.13 7.27-5.64 16.98-9.26 25.57-12.38 2.42-.83 5.03-1.95 7.6-2.05Z" fill="#000"/><g transform="translate(-161 -83)"><path d="M547.51 424.76c18.86-2.87 38.7 3.12 52.85 15.9 11.97 10.64 19.78 25.9 21.39 41.84 1.71 15.31-2.41 31.35-11.25 43.98-7.71 11.16-18.93 19.73-31.67 24.34-12.1 4.21-25.39 4.98-37.82 1.79-17.06-4.16-32.1-15.58-40.76-30.86-13-22.14-11.12-51.53 4.58-71.84 10.24-13.51 25.83-22.9 42.68-25.15Z" fill="#000"/><path d="M549.22 430.26c14.42-1.74 28.8 1.48 40.84 9.62 11.38 7.55 20.01 19.23 23.84 32.34 4.19 13.59 3.12 28.81-2.84 41.72-6.11 13.63-17.66 24.89-31.56 30.42-10.22 4.24-21.57 5.65-32.49 3.68-14.04-2.26-27.16-9.91-36.18-20.89-8.37-10.16-13.06-23.03-13.59-36.15-.3-14.15 4.47-28.34 13.45-39.31 9.46-11.76 23.58-19.54 38.53-21.43Z" fill="#fff"/><path d="M381.2 447.1c13.73-1.44 27.86 2.44 38.86 10.79 11.09 8.32 18.78 20.92 21.08 34.59 1.23 8.34.97 17.27-1.61 25.34-4.45 14.93-15.53 27.6-29.73 33.99-13.38 6.19-29.15 6.58-42.86 1.22-12.89-4.96-23.64-14.96-29.59-27.41-4.7-9.99-6.75-21.7-4.67-32.61 1.84-12.02 7.9-23.26 16.82-31.51 8.64-8.08 19.94-13.17 31.7-14.4Z" fill="#000"/><path d="M378.22 453.3c9.78-1.75 19.88-.54 28.93 3.59 13.18 5.84 23.37 17.71 27.22 31.6 5.15 17-.4 36.49-13.2 48.68-12.66 12.44-32.08 17.22-49 11.63-15.74-4.88-28.38-17.93-32.71-33.83-4.79-16.91.16-35.55 12.57-47.94 7.11-7.13 16.28-11.91 26.19-13.73Z" fill="#fff"/><path d="M558.77 456.74c-3.87 4-6.69 8.52-6.65 14.27-.67 8.63 4.49 17.13 12.5 20.42 5.98 2.45 12.26 1.32 17.64-2.01-.16 9.44-2.85 18.5-9.28 25.58-9.4 10.74-24.98 15.07-38.53 10.43-14.35-4.54-24.66-18.38-24.98-33.42-.48-13.96 7.47-27.4 20.04-33.54 9.2-4.73 19.51-4.72 29.26-1.73ZM391.97 467.88c8-1.43 15.68.54 22.74 4.28-3.02 3.08-5.46 6.31-5.51 10.82-.66 7.23 4.57 14.26 11.76 15.48 3.41.68 6.2-.46 9.41-1.41 1.12 12.27-4.48 24.69-14.77 31.55-11.64 7.9-28.39 6.99-39.25-1.91-9.69-7.58-14.38-20.74-11.76-32.74 2.72-13.31 13.84-24.22 27.38-26.07Z" fill="#000"/><path d="M527.44 489.51c2.29-1 4.8-1.33 6.96.16 3.54 2.29 3.45 7.56.77 10.49-2.67 3.03-7.74 3.21-10.32-.06-2.84-3.42-1.31-8.7 2.59-10.59ZM379.44 495.55c4.76-1.63 9.31 3.59 7.07 8.01-1.61 3.62-6.93 4.37-9.39 1.3-2.61-2.97-1.48-8.01 2.32-9.31ZM536.5 504.69c2.48-.77 5.29-.59 7.77.12 6.15 2.42 8.05 11.23 3.58 16.06-3.97 4.75-11.78 4.84-15.7-.02-4.44-5.37-2.44-13.92 4.35-16.16ZM386.51 512.74c3.42-1.11 7.14-.63 9.61 2.16 3.49 3.38 3.36 9.65-.57 12.65-4.05 3.44-10.78 1.72-13.23-2.86-2.58-4.29-.61-10.32 4.19-11.95Z" fill="#fff"/></g><g transform="translate(-161 -83)"><g fill="#000"><path d="M397.06 373.14c6.81.19 14.18 2.86 17.93 8.88 1.05 1.45.63 3.68.72 5.4-6.29.15-12.49.33-18.64 1.83-15.06 3.48-29.35 10.86-41.64 20.15-8.37 6.38-16.34 14.1-21.95 23.07-1.43 2.22-2.41 5.03-4.29 6.89-1.24.26-2.57.28-3.83.35-.05-1.77-.23-3.46.21-5.19 5.72-20.86 19.83-39.34 38.12-50.81 9.83-5.84 21.73-11.05 33.37-10.57ZM578.52 411.66c10.41 1.67 21.2 3.85 30.01 9.97l-.21 4.78c-4.07 1.59-7.29-.15-11.31-.78-6.82-1.2-13.91-1.25-20.83-1.11-29.25 1.32-58.23 9.89-83.97 23.74-1.45.63-2.92 1.06-4.42 1.54-2.58-5.36-3.61-10.91-.13-16.17 5.13-7.67 15.2-12.39 23.63-15.44 21.34-7.36 44.88-9 67.23-6.53Z"/></g></g><g transform="translate(-161 -83)"><path d="M505.05 609.63c4.67 1.28 8.87 4.71 12.16 8.17 1.37 1.66 3.56 3.88 3.05 6.2-.46 2.46-3.75 3.02-5.05.83-2.59-3.53-5.52-6.54-9.45-8.58-2.27-1.46-6.72-.53-6.61-4.14.48-3.02 3.52-2.9 5.9-2.48ZM498 622.96c4.97 1.51 8.45 5.86 8.78 11.06 1.3 13.18-9.39 25.8-21.75 29.19-12.46 3.66-28.87-1.1-35.07-13.17-2.47-4.21-3.73-9.26-1.94-13.96 1.78-4.05 5.82-5.66 9.97-6.1 5.09-.59 9.55 1.11 13.9 3.54 3.82-4.04 7.74-7.59 12.91-9.81 4.07-1.76 8.96-1.98 13.2-.75Z" fill="#000"/><path d="M498.91 630.09c3.25 3.38 2.26 9.5.47 13.39-4.28 10.05-15.11 16.13-25.9 14.99-7.3-1.19-14.31-4.11-18.2-10.76-1.43-2.56-3.43-6.58-2.01-9.44 2.28-3.76 8.77-3.17 12.28-1.81 2.75.77 5.53 4.09 8.39 3.59 3.67-3.56 6.48-7.47 11.18-9.88 4.32-2.4 9.63-3.3 13.79-.08Z" fill="#8F2E45"/></g><g transform="translate(-161 -83)"/><g transform="translate(-161 -83)"><path d="M453.2 221.61c2.21-.27 4.98-1.02 6.98.24 1.24 1.36 1.45 3.15.26 4.63-1.79 2.14-4.27 3.78-6.41 5.56-3.41 2.7-6.44 5.78-9.34 9.02 42.11-10.14 86.31-12.16 129.32-7.8 29.11 3.23 59.17 9.68 85.96 21.78 14.5 6.6 29.04 15.29 39.91 27.1 8.19 8.82 13.87 19.65 14.68 31.81 4.11.73 8.02 1.54 11.52 3.93 7.77 5.07 13.16 13.9 16.87 22.21 6.17 13.97 9.48 29.58 11.32 44.68 1.44 14.22 2.28 28.42 1.41 42.71-.77 9.55-1.26 19.04-2.9 28.5-.31 1.34-.38 2.48-1.9 2.96-6.68.79-14.42.76-20.72 3.28-8.91 3.44-17.56 7.19-25.67 12.28-1.32.69-2.96 1.95-4.49 1.71-2.19-.24-3.37-2.51-2.32-4.48 2.53-5.43 5.76-10.57 8.68-15.8-6.02 2.64-12.06 5.11-17.67 8.58-1.73-1.26-3.39-2.16-3.59-4.51-.8-10.39-.59-21.07-1.62-31.42-1.37-1.32-3.04-2.36-4.6-3.44-6.33-4.24-12.39-8.86-18.09-13.93-1.62-1.44-3.07-3.01-4.02-4.98-10.46-23.77-17.68-48.87-19.99-74.79-7.84-.12-15.53-.68-23.31-1.64 1.97 1.75 4.83 3.53 5.6 6.16-.59 2.42-2.44 3.03-4.5 3.91-16.3 6.38-34.16 8.45-51.57 8.32-28.17-.34-56.38-6.53-82.39-17.28 3.54 3.97 7.07 7.88 11.18 11.29 1.55 1.39 3.59 2.88 4.44 4.81-.4 2.74-2.48 4.16-5.19 3.87-17.56-1.57-34.69-4.94-51.98-8.28-.03 5.89 1.26 11.62 1.58 17.47-.53 2.09-3.1 2.4-4.66 1.39-1.51-.97-2.78-2.13-4.07-3.36-8.85-8.62-17.57-16.99-25.34-26.64-1.33-1.43-2.64-3.63-4.73-3.82-7.55-1.08-15.23-2.38-22.85-2.53-4.05-.32-8.11 2.52-11.73 4.14-3.99 2.2-8.7 3.84-12.19 6.76-3.79 4.64-6.91 9.88-10.25 14.84-.45.79-1.04 1.28-1.77 1.49-8.33-1.12-16.34-5.15-22.4-10.97-9.12-8.72-13.66-19.69-17.66-31.41-.54-2.03-1.27-4.85.9-6.18 1.83-1.13 4.53.36 6.3 1.04 6.38 3.09 12.35 6.6 19.33 8.27-2.34-6.14-3.46-12.38-1.98-18.89 2.68-16.01 11.76-30.26 24.41-40.28 3.04-2.34 6.36-5.05 10.04-6.27 2.8-.94 5.11 1.61 4.52 4.34-1.28 5.31-3.56 10.35-5 15.63 12.4-11.21 24.93-21.55 39.94-29.18 16.29-8.48 33.75-13.53 51.75-16.83Z" fill="#000"/><path d="M450.12 228.04c-5.19 4.72-9.97 9.43-13.78 15.38-.84 1.16-1.07 2.4-.7 3.73 1.82 1.82 3.7 1.07 5.9.67 40.59-10.55 83.76-13.02 125.46-9.5 29.47 2.8 59.86 8.8 87.18 20.45 13.59 5.88 27.45 13.55 38.15 23.91 7.48 7.21 13.64 15.93 15.7 26.28.69 2.94.11 6.71 1.67 9.32 1.38 2.44 3.94 1.6 6.35 2.06 5.02.19 9.74 4.04 12.91 7.67 6.53 7.69 10.68 17.91 13.56 27.48 3.87 13.13 5.96 26.89 7.01 40.51 1.03 19.32.63 38.69-2.14 57.86-6.56.8-12.89.91-19.19 3.2-7.35 1.85-14.27 5.92-21.2 9.18 2.07-3.71 4.38-7.45 5.96-11.39.67-1.68.76-3.07.12-4.77-2.01-1.54-4.06-1.01-6.22-.2-5.46 2.18-10.8 4.68-16.04 7.32-.85-10.21-.82-20.99-1.73-31.14-2.41-2.88-6.24-4.63-9.23-6.9-5.8-4.16-12.24-8.34-17.08-13.59a291.93 291.93 0 0 1-15-42.52c-2.78-11.4-5.34-23.23-5.7-34.98-.92-1.52-3.34-2.06-4.99-2.14-8.91-.26-18.33-.36-27.06-2.22-2.29-.55-4.42-.8-6.06-2.66-3.42-3.13-6.26-7.32-10.13-9.86-3.03-.65-4.48 2.19-2.62 4.5 6.25 6.77 12.88 13.28 19.87 19.27-15.08 5.76-32.04 7.59-48.09 7.61-30.09-.71-60.12-7.57-87.45-20.24-2.3-1.02-3.76-1.09-5.88.4-1.33 2.51.15 4.05 1.6 5.97 4.64 5.53 9.78 10.68 14.87 15.79-15.12-1.45-30.18-4.47-45.13-7.15-2.79-.56-5.77-.2-6.82 2.83-1.02 4.14-.1 9.02.48 13.21-7.48-7.47-15.14-15.06-21.84-23.23-5.32-6.4-10.39-12.98-15.47-19.56-.91-1.12-2.52-2.88-4.12-2.26-2.13.55-2.2 2.92-1.22 4.55 1.98 3.1 4.46 5.9 6.62 8.88-6-1.22-12.07-1.31-18.12-2.13-2.31-.23-4.35-.76-6.51.38-7.37 3.44-14.7 7.11-21.78 11.11-4.25 4.28-7.22 10.11-10.72 15.05-6.07-1.3-11.71-4.17-16.25-8.42-8.32-7.58-12.19-17.05-16.16-27.3 6.67 3.15 14.39 7.66 21.89 7.81 2.18-.02 5.06.24 6.31-1.98 1.18-1.78-.38-2.92-1.28-4.33-3.47-4.3-3.4-10.18-2.97-15.39 2.34-17.31 12.85-31.59 26.82-41.58-2.03 6.47-4.54 13.3-4.96 20.11-.26 3.05 3.27 4.11 5.21 2.08 12.54-12.42 26.66-24.43 42.32-32.72 14.98-8.07 31.05-13.04 47.68-16.41Z" fill="rgba(62, 172, 44, 1)"/><path d="M712.34 472.27c2.12-1.15 4.61 1.35 3.65 3.55-1.63 1.76-4.04 2.94-6.12 4.12-6.07 3.25-11.97 6.8-17.87 10.35-.9-.36-1.8-.73-2.7-1.09.23-1.3-.04-2.88 1.1-3.78 3.09-2.65 6.94-4.47 10.4-6.6 3.86-2.15 7.59-4.59 11.54-6.55Z" fill="#000"/></g></g></svg>