<svg xmlns:dc="http://purl.org/dc/elements/1.1/" xmlns:cc="http://creativecommons.org/ns#" xmlns:rdf="http://www.w3.org/1999/02/22-rdf-syntax-ns#" xmlns:svg="http://www.w3.org/2000/svg" xmlns="http://www.w3.org/2000/svg" viewBox="0 0 762 762" fill="none"><metadata><rdf:RDF><cc:Work><dc:format>image/svg+xml</dc:format><dc:type rdf:resource="http://purl.org/dc/dcmitype/StillImage"/><dc:title>Adventurer</dc:title><dc:creator><cc:Agent><dc:title>Lisa Wischofsky</dc:title></cc:Agent></dc:creator><dc:source>https://www.instagram.com/lischis_adventures/</dc:source><cc:license rdf:resource="https://creativecommons.org/licenses/by/4.0/"/></cc:Work><cc:License rdf:about="https://creativecommons.org/licenses/by/4.0/"><cc:permits rdf:resource="https://creativecommons.org/ns#Reproduction"/><cc:permits rdf:resource="https://creativecommons.org/ns#Distribution"/><cc:permits rdf:resource="https://creativecommons.org/ns#DerivativeWorks"/><cc:requires rdf:resource="https://creativecommons.org/ns#Notice"/><cc:requires rdf:resource="https://creativecommons.org/ns#Attribution"/></cc:License></rdf:RDF></metadata><mask id="avatarsRadiusMask"><rect width="762" height="762" rx="0" ry="0" x="0" y="0" fill="#fff"/></mask><g mask="url(#avatarsRadiusMask)"><path d="M396.01 164.85c37.82 4.9 74.21 19.64 104.8 42.39 6.15 4.84 12.48 9.33 18.02 14.92 23.77 21.98 42.73 49.02 55.13 78.95 9.35 22.31 14.72 46.04 16.64 70.14 6.62.81 13.05 2.14 19.12 5 15.54 6.93 27.08 20.94 31.78 37.21 2.63 9.56 3.56 19.75 1.72 29.55-2.96 18.76-13.72 36.13-29.37 46.92-10.94 7.65-24.49 12.03-37.86 11.68-5.13-.05-10.04-1.6-15.13-1.79-1.85 2.17-3.23 4.84-4.76 7.25-18.66 29.62-44.57 54.51-74.64 72.4-28.1 16.73-59.9 27.16-92.46 30.32-11.08.7-21.87 2.05-32.98.74-51.69-2.3-102.07-23.44-140.15-58.43-29.03-26.55-50.84-60.83-62.54-98.39-7.09-22.85-10.62-46.78-10.07-70.71.52-40.34 12.53-80.58 33.94-114.76 19.1-30.81 45.91-56.58 77.2-74.83 29.63-17.28 63.35-27.68 97.59-29.87 14.66-1.47 29.44-.37 44.02 1.31Z" fill="#000"/><path d="M363 169.06c48.47-1.39 97.32 14.7 135.81 44.12 6.55 4.06 11.72 9.49 17.36 14.64 24.33 22.63 43.2 50.95 54.93 82.02 7.43 19.61 11.86 40.2 13.56 61.09-8.89.74-17.34 2.34-25.38 6.38-2.19 1.03-1.89 4.95.68 5.23 2.35.23 4.98-1.51 7.24-2.2 14.62-5.37 31.32-4.35 44.78 3.68 11.69 6.78 20.09 18.16 23.89 31.06 2.6 8.25 2.68 17.41 1.76 25.95-2.5 17.35-12.35 33.73-26.73 43.81-15.71 11.33-37.17 14.64-54.93 6.2-3.17-1.43-5.94-3.58-9.08-5.05-2.95-1.09-4.88 2.79-2.7 4.75 3.17 2.76 7.34 4.52 11 6.56-20.14 34.15-49.45 62.7-84.41 81.47-30.2 16.31-64.44 25.53-98.78 26.15-27.63.72-55.33-4.04-81.21-13.72-30.32-11.24-57.84-29.43-80.37-52.6-22.67-23.37-39.92-51.88-50.2-82.77-14.96-44.64-14.91-94.01.27-138.59 11.05-33.06 30.28-63.21 55.37-87.39 29.67-28.73 67.65-48.54 108.13-56.67 12.8-2.52 25.94-4.24 39.01-4.12Z" fill="rgba(236, 173, 128, 1)"/><path d="M605.03 404.4c2.63-.1 3.44 3.8 1.36 4.98-3.69 1.83-7.82 2.77-11.64 4.35-5.82 2.04-11.28 4.76-16.68 7.72 4.29 2.34 8.86 4.74 12.71 7.76 2.58 2.09 4.85 4.35 5.33 7.8-.26 3.59-2.73 6.55-5.45 8.69-5.86 4.66-13.92 7.18-20.79 10.26-1.75.62-4.43 1.99-5.59-.26-1.02-1.74-.06-3.11 1.57-3.87 6.65-3.3 14.86-5.62 20.79-10.16 1.37-1.14 3.39-2.74 3.61-4.62-4.07-5.63-12.42-8.59-18.23-12.09-2.34-1.72-2.29-4.24-.16-6.13 7.27-5.64 16.98-9.26 25.57-12.38 2.42-.83 5.03-1.95 7.6-2.05Z" fill="#000"/><g transform="translate(-161 -83)"><path d="M540.491 447.73c18.9-2.42 39.64-.58 56.96 7.8 8.55 4.17 16.74 10.3 21.22 18.89 3.9 7.34 3.91 16.76-.16 24.03-4.22 8.05-12.01 14.1-19.93 18.24-13.55 7.02-29.41 9.83-44.57 9.65-12.04.02-23.93-1.81-35.21-6.11-8.97-3.47-17.65-8.68-23.74-16.26-4.84-6.12-7.63-14.13-5.89-21.93 1.84-8.56 7.49-15.36 14.39-20.47 10.65-7.84 23.96-11.98 36.93-13.84Z" fill="#000"/><path d="M546.98 452.71c8.4-.27 17.24-.58 25.5 1.08 10.59 1.7 21.45 5.3 30.3 11.45 5.49 3.95 10.43 9.09 12.35 15.73 2.02 6.81-.27 14.13-4.75 19.45-6.1 7.46-15.56 12.38-24.55 15.43-9.89 3.26-20.41 5.08-30.83 4.84-10.21.27-20.5-1.38-30.23-4.45-9.19-3.05-18.45-7.69-24.78-15.23-4.29-5.04-6.9-12.45-4.86-18.97 1.51-6.55 6.69-12.06 11.94-15.96 11.4-8.26 26.07-12.06 39.91-13.37Z" fill="#fff"/><path d="M373.48 460.76c16.32-2.29 34.23-.91 49.1 6.64 7.74 3.99 15.42 10.43 17.96 19.07 2.33 7.1-.17 14.74-4.65 20.42-6.28 7.76-15.27 12.43-24.64 15.41-14.57 4.5-30.41 5.01-45.29 1.76-9.88-2.25-20.02-6.47-27.16-13.89-4.71-4.75-7.92-11.31-7.35-18.12.54-7.22 4.98-13.65 10.43-18.18 8.81-7.42 20.37-11.3 31.6-13.11Z" fill="#000"/><path d="M371.5 466.92c15.62-3 32.92-1.77 47.43 5.05 6.36 3.02 13.43 8.26 15.74 15.2 2.08 5.63.36 11.7-3.32 16.23-4.64 5.76-11.76 9.79-18.6 12.35-12.35 4.41-26.02 5.91-38.99 3.9-9.29-1.29-18.98-4.28-26.67-9.78-5.23-3.9-9.63-9.03-9.91-15.85-.19-6.85 4.17-12.52 9.29-16.58 7.13-5.51 16.25-8.79 25.03-10.52Z" fill="#fff"/><path d="M592.23 469.2c2.12-1.59 4.65-.32 5.95 1.66 2.39 4.01 2.38 9.6 2.79 14.14.21 4.39.49 9.64-1.22 13.75-1.98 4.07-7.41 1.34-8.7-1.8-2.28-6.35-2.19-13.75-1.68-20.4.42-2.36.64-5.94 2.86-7.35ZM416.851 476.07c2.18.53 2.81 3.77 3.31 5.63.82 5.03 1.38 10.25 1.06 15.34-.33 2.54-.69 5.69-3.12 7.13-2.07 1.29-4.27-.03-5.35-1.93-2.07-3.84-2.16-8.98-2.29-13.24.06-4.36-.11-8.73 2.24-12.56 1.44-.39 2.65-.96 4.15-.37Z" fill="#000"/></g><g transform="translate(-161 -83)"><g fill="#000"><path d="M501.99 384.96c9.91.12 19.87 3.23 28.83 7.31 3.36 1.88 7.05 4.01 7.31 8.29-5.14-.86-10.14-2.06-15.38-2.28-11.6-.68-23.13 1.36-33.25 7.23-2.54 1.41-4.95 3.26-7.64 4.35-1.8.27-3.92-1.99-3.94-3.73-.18-5.81 1.95-11.92 6.53-15.7 5.03-4.23 11.15-5.3 17.54-5.47ZM414.03 402.61c5.81.15 10.93 5.3 12.51 10.64.8 2.63-.46 5.72-3.53 5.61-8.82.21-18.21.03-26.81 2.26-7.52 2.01-14.74 6.71-21.36 10.74-1.22.81-2.57.96-3.98 1.22.33-1.93.64-3.66 1.94-5.21 3.28-4.33 6.78-8.58 10.74-12.3 5.88-5.17 13.01-8.96 20.32-11.66 3.23-1.11 6.76-1.58 10.17-1.3Z"/></g></g><g transform="translate(-161 -83)"><path d="M517 555.43c13.39-.24 28.69 3.46 38.6 12.98 5.97 5.58 9.72 13.37 9.9 21.58.32 10.21-3.84 19.58-9.89 27.58-9.04 11.85-21.87 20.72-35.47 26.57-7.32 2.84-14.41 5.71-22.15 7.24-16.76 3.21-34.33 1.42-50.03-5.31-13.98-6.01-27.24-14.24-38.31-24.71-5.42-5.3-10.58-11.69-13.28-18.84-2.03-5.48-2.34-11.97 1.22-16.91 3.7-5.37 9.99-7.74 16.18-8.84 12.6-1.77 24.45.42 36.57 3.76 7.36-6.86 15.88-12.06 25.02-16.21 12.99-5.74 27.38-9.28 41.64-8.89Z" fill="#000"/><path d="M542.47 566.35c-3.47 2.67-7.33 4.74-10.83 7.34-4.3 4.07-7.59 10.96-12.77 14.1-5.16.84-10.5-3.32-15.18-1.11-9.25 3.5-18.79 6.01-28.49 7.9-14.14 2.57-29.48 3.77-43.64.89-4.29-1.11-7.12 1.32-11.46 1.88-4.37-4.22-7.53-9.21-12.73-12.59 12.76-5.32 28.76-1.99 41.63 1.51 3.92 1.25 6.04-2.46 8.8-4.48 13.48-10.73 30.18-17.54 47.23-19.85 12.66-1.87 25.64-.74 37.44 4.41Z" fill="#fff"/><path d="M547.96 569.91c7.13 4.29 11.65 12.83 11.82 21.09-.18 7.44-2.97 13.99-6.8 20.24-6.37-2.56-13.17-3.29-19.99-2.88-14.36.89-28.54 4.42-41.91 9.67-9.04 3.64-18.05 8.23-25.74 14.27-3.77 2.98-6.45 6.16-8.76 10.38-7.74-2.15-14.6-5.75-21.53-9.73-9.94-5.85-19.02-12.62-26.5-21.47-3.77-4.64-7.55-10.34-7.78-16.49-.14-2.33.91-4.43 1.72-6.55 5.41 3.65 9.36 8.64 14.22 12.85 4 3.41 9.21-.65 13.75.08 5.81.96 11.66 1.41 17.53 1.74 20.42-.25 40.58-4.31 59.65-11.55 4.16.86 9.89 2.73 13.97 1.05 4.92-2.84 8.62-8.58 12.18-12.91 1.47-1.75 3.81-2.92 5.71-4.17 2.91-1.75 5.48-4.02 8.46-5.62Z" fill="#8F2E45"/><path d="M536 614.18c4.54-.11 8.95.63 13.3 1.9-9.23 11.12-22.42 19.3-35.85 24.38-16.26 6.04-34.23 8.32-51.21 3.94 1.95-2.75 4.09-5.3 6.76-7.39 8.9-7.26 20.21-12.2 30.99-15.97 11.5-3.83 23.86-6.67 36.01-6.86Z" fill="#EA869E"/></g><g transform="translate(-161 -83)"/><g transform="translate(-161 -83)"><path d="M440.21 189.23c1.82-.15 3.61-1.05 4.73.89 1.51 2.06 1.09 3.45-.62 5.17-8.4 8.19-15.44 17.64-18.3 29.22 30.03-13.11 63.35-19.56 95.98-20.93 9.35-.74 18.62-.76 27.98-.03 27.24 1.14 54.75 5.74 80.54 14.74 18.43 6.49 36.95 15.6 51.95 28.27 12.36 10.44 22.4 23.27 26.58 39.15 3.77-.25 7.29-.41 10.68 1.56 7.23 3.84 12.41 12.03 16.03 19.14 7.23 14.48 11.37 30.79 14.44 46.61 3.35 17.18 4.82 34.53 5.84 51.98.07 12.96.52 26.14-.8 39.03-.43 4.23-.31 8.7-1.35 12.83-.95 2.98-4.37 2.73-6.88 3.03-8.27.28-17.84 1.75-24.97 6.2-1.32 2.53-1.49 5.65-2.73 8.24-2.01 2.29-4.83 3.94-7.26 5.76-6.26 4.36-12.21 9.15-18.46 13.52-1.79 1.14-4.14 2.68-5.91.62-1.39-1.23-1.39-2.49-1.11-4.22 3.22-19.56 2.88-40.22 2.25-60 .09-7.78-.9-15.44-1.36-23.21-6.69-.5-13.21-2.12-19.27-5.02-14.46-6.84-26.51-18.83-34.18-32.79-6.09-11.04-9.41-23.41-8.23-36.06-52.79 8.56-106.29 13.25-159.78 13.37-10.76-.32-21.48.01-32.23-.92-14.32-.65-28.59-1.9-42.76-4.03-11.24-1.78-22.65-4.02-33.28-8.1-4.9 5.03-8.02 10.78-11.92 16.58-2.31 3.46-3.93 7.34-6.34 10.71-1.04 1.6-3.14 1.8-4.36.29-1.2-2.37-1.6-5.21-2.13-7.8-2.35-12.43-1.19-25.41 4.07-36.97-2.41-4.53-4.62-9.07-5.82-14.09-3.86-14.97-.72-30.8 6.45-44.27 9.36-17.81 24.92-32.5 41.64-43.39 18.57-12.13 39.26-20.34 60.89-25.08Z" fill="#000"/><path d="M435.92 196.13c-6.96 8.05-12.92 16.5-15.33 27.05-.33 2-1.3 4.59-.17 6.42 1.45.75 3.07 1.21 4.61 1.72 41.78-18.93 88.5-24.52 133.96-21.54 29.03 2.24 58.42 8.33 85.13 20.14 15.2 6.8 30.37 15.94 42 27.97 8.88 9.11 15.81 20.3 18.03 32.97.59.44 1.18.89 1.78 1.33 4.08-.71 7.57-1.75 11.44.46 6.46 3.65 10.86 11.47 14.01 17.96 7.34 15.7 11.46 33.35 14.37 50.38 2.02 12.58 3.51 25.29 4.06 38.01.1 8.02.84 15.98.57 24-.42 10.49-.57 20.96-1.8 31.4-7.76.33-15.22.97-22.58 3.66-2.81 1.06-6.39 2.23-8.38 4.57-1.53 2.71-1.97 6.06-2.97 9.01-7.28 5.15-14.53 10.35-21.76 15.59 1.56-9.37 1.41-18.77 2.13-28.21.5-9.4-.6-18.64-.7-28.02-.24-5.39-.22-10.67-.79-16.01-.52-4.67-.51-8.99-2.02-13.48-5.68-.78-11.19-1.07-16.57-3.26-15.98-5.83-29.28-19.16-36.96-34.15-5.18-10.62-8.45-22.91-5.57-34.66-2.58-3.44-7.28-2.27-10.91-1.73-44.79 7.18-90.13 11.61-135.5 12.41-13.01.59-26 .54-39.01-.09-10.01-.16-20-.54-29.97-1.44-17.05-1.48-34.61-3.56-51.02-8.55-5.89-1.88-12.04-4.3-17.01-8.05-10.89-11.01-16.12-27.82-12.69-43 2.91-15.95 12.59-30.49 23.89-41.81 20.34-20.4 48.01-34.01 75.73-41.05ZM340.46 321.25c3.14 4.26 7.23 7.13 11.81 9.64-4.99 6.61-9.55 13.52-14.01 20.49-1.13-8.99-1.42-17.78 1.2-26.56.33-1.19.67-2.38 1-3.57Z" fill="rgba(172, 101, 17, 1)"/><path d="M718.21 480.6c2 1.12 1.55 3.34-.03 4.59-7.96 6.81-16.37 13-24.89 19.08-1.55.96-3.29 1.85-4.72.17-1.79-1.75.01-3.31 1.33-4.57 3.66-3.04 7.78-5.52 11.6-8.35 4.08-2.92 7.87-6.18 11.84-9.23 1.53-1.01 2.91-2.33 4.87-1.69Z" fill="#000"/></g></g></svg>