<svg xmlns:dc="http://purl.org/dc/elements/1.1/" xmlns:cc="http://creativecommons.org/ns#" xmlns:rdf="http://www.w3.org/1999/02/22-rdf-syntax-ns#" xmlns:svg="http://www.w3.org/2000/svg" xmlns="http://www.w3.org/2000/svg" viewBox="0 0 762 762" fill="none"><metadata><rdf:RDF><cc:Work><dc:format>image/svg+xml</dc:format><dc:type rdf:resource="http://purl.org/dc/dcmitype/StillImage"/><dc:title>Adventurer</dc:title><dc:creator><cc:Agent><dc:title>Lisa Wischofsky</dc:title></cc:Agent></dc:creator><dc:source>https://www.instagram.com/lischis_adventures/</dc:source><cc:license rdf:resource="https://creativecommons.org/licenses/by/4.0/"/></cc:Work><cc:License rdf:about="https://creativecommons.org/licenses/by/4.0/"><cc:permits rdf:resource="https://creativecommons.org/ns#Reproduction"/><cc:permits rdf:resource="https://creativecommons.org/ns#Distribution"/><cc:permits rdf:resource="https://creativecommons.org/ns#DerivativeWorks"/><cc:requires rdf:resource="https://creativecommons.org/ns#Notice"/><cc:requires rdf:resource="https://creativecommons.org/ns#Attribution"/></cc:License></rdf:RDF></metadata><mask id="avatarsRadiusMask"><rect width="762" height="762" rx="0" ry="0" x="0" y="0" fill="#fff"/></mask><g mask="url(#avatarsRadiusMask)"><path d="M396.01 164.85c37.82 4.9 74.21 19.64 104.8 42.39 6.15 4.84 12.48 9.33 18.02 14.92 23.77 21.98 42.73 49.02 55.13 78.95 9.35 22.31 14.72 46.04 16.64 70.14 6.62.81 13.05 2.14 19.12 5 15.54 6.93 27.08 20.94 31.78 37.21 2.63 9.56 3.56 19.75 1.72 29.55-2.96 18.76-13.72 36.13-29.37 46.92-10.94 7.65-24.49 12.03-37.86 11.68-5.13-.05-10.04-1.6-15.13-1.79-1.85 2.17-3.23 4.84-4.76 7.25-18.66 29.62-44.57 54.51-74.64 72.4-28.1 16.73-59.9 27.16-92.46 30.32-11.08.7-21.87 2.05-32.98.74-51.69-2.3-102.07-23.44-140.15-58.43-29.03-26.55-50.84-60.83-62.54-98.39-7.09-22.85-10.62-46.78-10.07-70.71.52-40.34 12.53-80.58 33.94-114.76 19.1-30.81 45.91-56.58 77.2-74.83 29.63-17.28 63.35-27.68 97.59-29.87 14.66-1.47 29.44-.37 44.02 1.31Z" fill="#000"/><path d="M363 169.06c48.47-1.39 97.32 14.7 135.81 44.12 6.55 4.06 11.72 9.49 17.36 14.64 24.33 22.63 43.2 50.95 54.93 82.02 7.43 19.61 11.86 40.2 13.56 61.09-8.89.74-17.34 2.34-25.38 6.38-2.19 1.03-1.89 4.95.68 5.23 2.35.23 4.98-1.51 7.24-2.2 14.62-5.37 31.32-4.35 44.78 3.68 11.69 6.78 20.09 18.16 23.89 31.06 2.6 8.25 2.68 17.41 1.76 25.95-2.5 17.35-12.35 33.73-26.73 43.81-15.71 11.33-37.17 14.64-54.93 6.2-3.17-1.43-5.94-3.58-9.08-5.05-2.95-1.09-4.88 2.79-2.7 4.75 3.17 2.76 7.34 4.52 11 6.56-20.14 34.15-49.45 62.7-84.41 81.47-30.2 16.31-64.44 25.53-98.78 26.15-27.63.72-55.33-4.04-81.21-13.72-30.32-11.24-57.84-29.43-80.37-52.6-22.67-23.37-39.92-51.88-50.2-82.77-14.96-44.64-14.91-94.01.27-138.59 11.05-33.06 30.28-63.21 55.37-87.39 29.67-28.73 67.65-48.54 108.13-56.67 12.8-2.52 25.94-4.24 39.01-4.12Z" fill="rgba(236, 173, 128, 1)"/><path d="M605.03 404.4c2.63-.1 3.44 3.8 1.36 4.98-3.69 1.83-7.82 2.77-11.64 4.35-5.82 2.04-11.28 4.76-16.68 7.72 4.29 2.34 8.86 4.74 12.71 7.76 2.58 2.09 4.85 4.35 5.33 7.8-.26 3.59-2.73 6.55-5.45 8.69-5.86 4.66-13.92 7.18-20.79 10.26-1.75.62-4.43 1.99-5.59-.26-1.02-1.74-.06-3.11 1.57-3.87 6.65-3.3 14.86-5.62 20.79-10.16 1.37-1.14 3.39-2.74 3.61-4.62-4.07-5.63-12.42-8.59-18.23-12.09-2.34-1.72-2.29-4.24-.16-6.13 7.27-5.64 16.98-9.26 25.57-12.38 2.42-.83 5.03-1.95 7.6-2.05Z" fill="#000"/><g transform="translate(-161 -83)"><path d="M574.47 426.48c13.52 3.69 25.28 11.87 34.03 22.75 7.5-5.17 14.74-10.73 22.37-15.71 1.02.43 2.04.86 3.07 1.28-.34 2.1-.24 3.64-2.24 4.9-6.6 4.79-13.31 9.45-19.92 14.23 3.77 6.35 7.07 12.73 8.56 20.03 1.59 7.69 2.58 16.11 1.14 23.88-.44 2.76-3.06 3.5-5.47 3.7-19.7 1.03-39.42 3.02-59.01 5.35-11.07 1.46-22.16 1.93-33.22 3.58-4.5.68-9.03 1.18-13.54 1.79-4.99.7-9.54 1.77-14.54.33-4.84-13.86-5.54-28.92-1.07-42.97 4.7-15.08 15.13-28.21 28.7-36.27 15.07-9.25 34.17-11.67 51.14-6.87Z" fill="#000"/><path d="M565.47 430.38c17.56 2.52 33.65 13.22 42.62 28.54 6.6 11.12 9.16 23.82 8.14 36.67-4.76.4-9.48.97-14.25 1.18-18.01 1.19-35.9 3.32-53.81 5.48 1.05-2.96 2.25-6.07 2.52-9.21.8-9.37-4.1-18.82-12.31-23.44-5.31-3.21-11.43-3.75-17.45-2.72-11.6 2.17-20.3 13.34-19.52 25.13 0 6.06 2.64 11.12 6.32 15.74-2.43.24-4.86.49-7.3.74-4.69-14.01-4.17-28.8 1.6-42.39 6.22-14.87 18.61-26.86 33.74-32.46 9.48-3.74 19.65-4.48 29.7-3.26Z" fill="#fff"/><path d="M416.519 455.44c12.78 8.07 21.86 21.58 24.51 36.47 1.39 8.37 1.07 16.97-1.24 25.15-5.34 1.09-10.4.57-15.79.57-24.04-.24-48-.16-72 1.46-5.87-.14-12.63 1.57-17.84-1.24-.94-4.53-2.07-9.19-2.27-13.82-.33-10.11 2.18-19.99 6.83-28.94-6-3.98-12.33-7.55-18.19-11.72-1.91-1.41-1.7-2.69-.84-4.69 2.76-1.07 4.51.51 6.78 1.81 5.07 3.31 10.17 6.56 15.27 9.82 7.71-10.76 18.85-18.63 31.73-21.84 14.52-3.7 30.44-1.13 43.05 6.97Z" fill="#000"/><path d="M400.8 454.53c12.36 3.61 23.04 12.14 29.24 23.44 5.79 10.51 7.71 22.67 5.07 34.42l-5.61.12c2.13-4.63 3.58-9.36 2.88-14.52-.91-8.64-7.3-16.11-15.55-18.64-3.85-1.06-7.94-1.15-11.81-.2-9.02 2.14-16.25 10.53-16.65 19.85-.47 4.7.89 8.93 2.74 13.17-13.38.11-26.76.61-40.1 1.61-3.69.2-7.91.69-11.51-.24-1.64-3.05-1.63-7.15-1.78-10.54-.55-13.95 5.57-28.01 15.83-37.42 12.47-11.6 30.91-16.01 47.25-11.05Z" fill="#fff"/></g><g transform="translate(-161 -83)"><g fill="#000"><path d="M501.99 384.96c9.91.12 19.87 3.23 28.83 7.31 3.36 1.88 7.05 4.01 7.31 8.29-5.14-.86-10.14-2.06-15.38-2.28-11.6-.68-23.13 1.36-33.25 7.23-2.54 1.41-4.95 3.26-7.64 4.35-1.8.27-3.92-1.99-3.94-3.73-.18-5.81 1.95-11.92 6.53-15.7 5.03-4.23 11.15-5.3 17.54-5.47ZM414.03 402.61c5.81.15 10.93 5.3 12.51 10.64.8 2.63-.46 5.72-3.53 5.61-8.82.21-18.21.03-26.81 2.26-7.52 2.01-14.74 6.71-21.36 10.74-1.22.81-2.57.96-3.98 1.22.33-1.93.64-3.66 1.94-5.21 3.28-4.33 6.78-8.58 10.74-12.3 5.88-5.17 13.01-8.96 20.32-11.66 3.23-1.11 6.76-1.58 10.17-1.3Z"/></g></g><g transform="translate(-161 -83)"><path d="M473.001 557.77c14.54-.55 30.84 1.36 43.71 8.62-20.68 8.69-43.21 14.72-65.7 15.48-7.24 0-14.34.28-21.54-.61.7-5.83 3.09-9.58 7.73-13.05 9.92-7.31 23.76-9.76 35.8-10.44Z" fill="#D31E1E"/><path d="M525.03 563.67c.41.78.8 1.57 1.14 2.37.47 2.66-1.95 3.31-3.81 4.34-3.98 1.77-8.05 3.4-12.12 4.98-17.66 6.32-35.39 11.11-54.24 11.94-6.5.5-12.94.62-19.44.04-4.9-.57-10.15-.63-14.87-2.03-2.35-.88-2.73-3.93-.4-5.07 2.68-.12 5.48.83 8.18 1.02 7.2.89 14.3.61 21.54.61 22.49-.76 45.02-6.79 65.7-15.48 2.76-1.19 5.22-2.59 8.32-2.72Z" fill="#000"/><path d="M510.241 575.36c-1.96 10.16-10.37 17.27-19.22 21.68-10.52 5.13-22.48 6.64-34 4.71-8.71-1.77-16.51-6.13-20.46-14.41 6.5.58 12.94.46 19.44-.04 18.85-.83 36.58-5.62 54.24-11.94Z" fill="#D31E1E"/></g><g transform="translate(-161 -83)"><path d="M569 416.32c10.67-.28 21.35-.06 32.02-.26 13.97-.61 27.98-.37 41.98-.52 3.87.15 9-.18 12.21 2.31 2.36 1.63 2.22 5.59 2.35 8.14-.11 4.33-.28 9.38-2.31 13.3-5.07 1.98-11.44 1.25-16.84 1.91.43 12.26 1.67 24.56 1.31 36.83-.71 13.91-3.67 28-10.34 40.32-8.09 13.04-19.91 24.39-33.54 31.51-10.42 5.38-21.75 7.4-33.39 7.78-6.22.19-12.08.49-18.21-.84-9.48-2.04-18.88-4.45-26.96-10.06-11.14-7.58-19.27-18.77-25.41-30.6-6.59-13.57-10.14-29.24-13.26-43.94-.53-2.3-2.38-3.48-4.35-4.45-6.63-2.95-14.93-.51-18.8 5.6-.8 2.41-.9 5.14-1.16 7.65-.62 7.61-2.25 15.33-3.88 22.79-3.12 13.58-8.99 26.32-16.8 37.83-4.35 5.79-9.75 11.42-16.22 14.81-10.53 5.74-22.3 10.09-34.41 10.28-7.24-.19-14.15-.39-21.12-2.5-5.48-1.33-10.51-4.8-15.16-7.94-6.41-4.39-11.06-10.29-15.28-16.72-5.3-8.31-9.31-17.34-12.24-26.73-2.84-9.45-5.24-18.79-5.19-28.73-4.55.67-9.39 2.24-13.99 1.96-4.36-.81-5.31-7.51-5.5-11.08.13-2.39-.16-6.76 2.69-7.68 21.6-9.82 44.44-17.06 67.54-22.42 17.03-3.7 34.73-8.24 52.27-6.65 11.18.94 22.83 3.92 31.72 11.06 3.2 2.41 5.43 6.83 9.38 7.59 7.08 1.83 14.45-1.23 20.89-3.96 3.63-10 10.02-17.34 19.06-22.82 6.29-3.84 13.67-6.15 20.7-8.28 16.76-4.03 33.14-4.65 50.24-5.49Z" fill="#000"/><path d="M307.1 478.16c1.21-1.2 3.4-.01 2.44 1.64-1.21 1.2-3.4.01-2.44-1.64Z" fill="#000"/><ellipse cx="605" cy="457.5" rx="14" ry="10.5" fill="#fff"/><ellipse cx="411" cy="476.107" rx="11" ry="8.107" fill="#fff"/></g><g transform="translate(-161 -83)"><path d="M484 203.33c31.29-2.08 63.42.11 93.86 7.88 21.56 5.49 42.28 13.94 60.91 26.19 23.4-3.86 47.88.89 69.41 10.37 23.12 10.4 43.83 26.51 60.17 45.85 20.85 24.69 35.23 55.1 38.76 87.38.95 12.2.85 25-1.78 36.99-3.78 18.28-12.57 35.32-26.18 48.2-1.82 1.55-3.02 2.25-5.31.99-14.99-8.28-33.71-8.66-49.62-2.89.98 10.55.3 20.85-4.48 30.47-3.28 6.59-8.89 12.66-15.72 15.6-2.72.9-4.6-1.33-3.52-3.92 3.27-8.18 3-16.77 2.8-25.44-.44-7.85-1.2-15.78-2.88-23.46-7.63.85-15.3.3-22.52-2.41-14.89-5.33-27.38-16.81-37.06-29.03-11.73-14.89-20.51-31.76-27.71-49.24-9.49-23.3-16.01-48.04-20.26-72.81-.69-3.84-.89-7.63-2.11-11.36-20.22-1.09-40.52-1.06-60.76-.37-21.77 1.3-43.45 3.39-64.97 6.93-32.55 5.34-65.57 13.27-96.19 25.67-2.58 1.08-5.01 1.84-6.93 4-6.12 6.58-11.48 14.12-16.26 21.73a258.623 258.623 0 0 0-27.01 59.16c-1.07 3.17-1.51 6.79-3.14 9.7-1.4 1.6-3.41 1.03-4.84-.19-12.99-11.2-23.7-25.13-29.72-41.29-4.68-12.69-6.28-26.46-4.45-39.87 2.63-19.03 11.35-36.55 23.18-51.51 18.98-24.07 45.92-42.47 73.52-55.33 34.62-16.21 72.77-25.18 110.81-27.99Z" fill="#000"/><path d="M516.99 208.52c7.67.67 15.35.68 23 1.75 33.2 3.71 67.56 13.49 95.62 32.08.77.48 1.57.87 2.41 1.17 16.25-3.42 33.91-1.59 49.78 2.96 30.6 8.97 57.12 27.97 77.37 52.39 16.77 20.38 29.32 45.13 34.34 71.12 3.13 16.62 3.5 33.55-.67 50.03-3.76 15.64-11.64 30.17-23.15 41.46-15.86-8.13-35.46-8.95-52.2-3.13-2.06.89-5.57 1.75-5.38 4.58 2.09 12.92-.03 27.98-9.67 37.59 1.68-15.13.45-30.63-2.52-45.52-.7-2.94-1.79-3.79-4.91-3.38-8.98 1.36-17.65-.13-25.83-3.94-11.09-5.17-20.71-14.08-28.38-23.49-12.29-15.07-21.65-33.04-28.86-51.04-9.99-25.05-16.61-51.51-20.61-78.15-.54-2.21.24-6.75-2.47-7.6-7.25-.74-14.58-.79-21.85-1.44-13.65.03-27.4-.55-41.01.65-12.68.38-25.4 1.41-38 2.85-26.88 2.95-53.71 7.68-79.89 14.49-19.93 5.25-39.94 11.81-58.66 20.51-11.33 5.32-22.72 11.66-32.4 19.65-6.3 5.29-12.33 11.65-15.53 19.34-.66 1.84-1.64 3.79-.85 5.74 1.79 2.08 4.64 1.44 5.38-1.21 1.99-5.63 5.27-10.27 9.45-14.47 8.11-8.27 18.65-14.73 28.85-20.09-3.96 5.14-7.57 10.45-10.92 16.01-11.9 19.69-21.34 40.94-27.77 63.04-11.05-10.41-20.1-22.43-25.35-36.78-6.99-18.75-5.76-40.16 1.94-58.51 7.92-19.31 22.32-36.42 38.23-49.72 15.57-13.11 33.49-23.75 52-32.14 32.2-14.54 67.35-23.05 102.53-25.87 12.05-.64 23.89-1.8 35.98-.93Z" fill="rgba(219, 163, 190, 1)"/></g></g></svg>