<svg xmlns:dc="http://purl.org/dc/elements/1.1/" xmlns:cc="http://creativecommons.org/ns#" xmlns:rdf="http://www.w3.org/1999/02/22-rdf-syntax-ns#" xmlns:svg="http://www.w3.org/2000/svg" xmlns="http://www.w3.org/2000/svg" viewBox="0 0 762 762" fill="none"><metadata><rdf:RDF><cc:Work><dc:format>image/svg+xml</dc:format><dc:type rdf:resource="http://purl.org/dc/dcmitype/StillImage"/><dc:title>Adventurer</dc:title><dc:creator><cc:Agent><dc:title>Lisa Wischofsky</dc:title></cc:Agent></dc:creator><dc:source>https://www.instagram.com/lischis_adventures/</dc:source><cc:license rdf:resource="https://creativecommons.org/licenses/by/4.0/"/></cc:Work><cc:License rdf:about="https://creativecommons.org/licenses/by/4.0/"><cc:permits rdf:resource="https://creativecommons.org/ns#Reproduction"/><cc:permits rdf:resource="https://creativecommons.org/ns#Distribution"/><cc:permits rdf:resource="https://creativecommons.org/ns#DerivativeWorks"/><cc:requires rdf:resource="https://creativecommons.org/ns#Notice"/><cc:requires rdf:resource="https://creativecommons.org/ns#Attribution"/></cc:License></rdf:RDF></metadata><mask id="avatarsRadiusMask"><rect width="762" height="762" rx="0" ry="0" x="0" y="0" fill="#fff"/></mask><g mask="url(#avatarsRadiusMask)"><path d="M396.01 164.85c37.82 4.9 74.21 19.64 104.8 42.39 6.15 4.84 12.48 9.33 18.02 14.92 23.77 21.98 42.73 49.02 55.13 78.95 9.35 22.31 14.72 46.04 16.64 70.14 6.62.81 13.05 2.14 19.12 5 15.54 6.93 27.08 20.94 31.78 37.21 2.63 9.56 3.56 19.75 1.72 29.55-2.96 18.76-13.72 36.13-29.37 46.92-10.94 7.65-24.49 12.03-37.86 11.68-5.13-.05-10.04-1.6-15.13-1.79-1.85 2.17-3.23 4.84-4.76 7.25-18.66 29.62-44.57 54.51-74.64 72.4-28.1 16.73-59.9 27.16-92.46 30.32-11.08.7-21.87 2.05-32.98.74-51.69-2.3-102.07-23.44-140.15-58.43-29.03-26.55-50.84-60.83-62.54-98.39-7.09-22.85-10.62-46.78-10.07-70.71.52-40.34 12.53-80.58 33.94-114.76 19.1-30.81 45.91-56.58 77.2-74.83 29.63-17.28 63.35-27.68 97.59-29.87 14.66-1.47 29.44-.37 44.02 1.31Z" fill="#000"/><path d="M363 169.06c48.47-1.39 97.32 14.7 135.81 44.12 6.55 4.06 11.72 9.49 17.36 14.64 24.33 22.63 43.2 50.95 54.93 82.02 7.43 19.61 11.86 40.2 13.56 61.09-8.89.74-17.34 2.34-25.38 6.38-2.19 1.03-1.89 4.95.68 5.23 2.35.23 4.98-1.51 7.24-2.2 14.62-5.37 31.32-4.35 44.78 3.68 11.69 6.78 20.09 18.16 23.89 31.06 2.6 8.25 2.68 17.41 1.76 25.95-2.5 17.35-12.35 33.73-26.73 43.81-15.71 11.33-37.17 14.64-54.93 6.2-3.17-1.43-5.94-3.58-9.08-5.05-2.95-1.09-4.88 2.79-2.7 4.75 3.17 2.76 7.34 4.52 11 6.56-20.14 34.15-49.45 62.7-84.41 81.47-30.2 16.31-64.44 25.53-98.78 26.15-27.63.72-55.33-4.04-81.21-13.72-30.32-11.24-57.84-29.43-80.37-52.6-22.67-23.37-39.92-51.88-50.2-82.77-14.96-44.64-14.91-94.01.27-138.59 11.05-33.06 30.28-63.21 55.37-87.39 29.67-28.73 67.65-48.54 108.13-56.67 12.8-2.52 25.94-4.24 39.01-4.12Z" fill="rgba(236, 173, 128, 1)"/><path d="M605.03 404.4c2.63-.1 3.44 3.8 1.36 4.98-3.69 1.83-7.82 2.77-11.64 4.35-5.82 2.04-11.28 4.76-16.68 7.72 4.29 2.34 8.86 4.74 12.71 7.76 2.58 2.09 4.85 4.35 5.33 7.8-.26 3.59-2.73 6.55-5.45 8.69-5.86 4.66-13.92 7.18-20.79 10.26-1.75.62-4.43 1.99-5.59-.26-1.02-1.74-.06-3.11 1.57-3.87 6.65-3.3 14.86-5.62 20.79-10.16 1.37-1.14 3.39-2.74 3.61-4.62-4.07-5.63-12.42-8.59-18.23-12.09-2.34-1.72-2.29-4.24-.16-6.13 7.27-5.64 16.98-9.26 25.57-12.38 2.42-.83 5.03-1.95 7.6-2.05Z" fill="#000"/><g transform="translate(-161 -83)"><path d="M558.201 453.21c11.47-1.62 23.68.14 34 5.5 7.61 3.93 14.3 10.28 18.11 18 3.35 6.67 3.82 14.64 2.11 21.82-2.1 8.03-7.22 15.16-13.75 20.2-14.96 11.75-36.54 14.35-54.21 7.75-8.42-3.17-16.53-8.89-21.39-16.55-2.81-4.73-5.22-10.36-5.36-15.93-.71-9.54 3.61-19.3 10.27-26.02 8.05-8.38 18.87-12.97 30.22-14.77Z" fill="#000"/><path d="M559.17 459.11c13.97-2.02 29.72 1.64 39.88 11.85 6.6 6.52 10.35 16.95 7.62 26.05-2.06 8.19-7.68 14.49-14.53 19.15-12.44 8.19-28.98 10.02-43.11 5.63-8.63-2.71-17.05-8.19-21.69-16.11-3.02-5-4.14-10.9-3.59-16.69.76-6.83 4.53-13.12 9.38-17.85 7.05-6.72 16.44-10.78 26.04-12.03Z" fill="#fff"/><path d="M369.481 468.71c17.62-2.69 37.91 3.42 47.71 19.13 5.49 8.51 6.28 20 1.93 29.15-2.91 6.32-7.91 11.64-13.7 15.43-7.34 4.75-15.75 7.1-24.42 7.79-14.63.57-29.81-4.29-39.4-15.79-5.22-6.27-8.18-14.2-7.54-22.41.56-8.27 4.61-15.74 10.51-21.44 6.92-6.46 15.65-10.23 24.91-11.86Z" fill="#000"/><path d="M376.55 474.11c9.64-.35 19.56 2.27 27.37 8.02 5.14 3.82 9.44 9.18 11.19 15.41 1.61 6.2 1.04 12.92-2.15 18.54-4.72 8.62-13.66 14.22-22.97 16.71-13.7 3.71-30.16.71-40.8-8.99-6.28-5.66-10.01-13.74-9.23-22.26.73-5.44 3.14-10.68 6.85-14.72 7.34-8.21 18.86-12.64 29.74-12.71Z" fill="#fff"/><path d="M551.461 477.61c3.69-.8 7.51-.7 10.96.96 6.42 3.03 10.48 10.43 8.89 17.48-1.3 7.25-7.89 12.9-15.3 12.85-8.42.47-15.96-6.52-16.34-14.89-.56-7.44 4.55-14.59 11.79-16.4Z" fill="#000"/><path d="M553.619 483.21c4-.67 7.83.59 10.21 3.96 3.04 4.06 2.26 9.86-1.38 13.27-4.4 3.95-11.88 3.34-15.16-1.77-4-5.83-.62-14.19 6.33-15.46Z" fill="#fff"/><path d="M618.701 484.19c1.69.32 3.64-.24 4.63 1.46 1.61 2.47 2.37 5.58 2.85 8.46 1.44 10.51-2.22 21.79-9.83 29.24-3.27 3.02-7.82 5.97-12.38 6.11-2.73.04-4.27-2.62-2.33-4.8 3.27-1.61 6.54-2.11 9.44-4.56 6.29-5.26 9.64-14.02 9.57-22.11-.01-4.02-1.58-7.21-2.66-10.96.23-.95.47-1.9.71-2.84ZM380.44 488.46c4.44-.82 9.2.5 12.68 3.35 5.75 4.58 7.69 13.08 4.69 19.76-2.56 5.93-8.24 10.22-14.82 10.23-8.45.57-15.94-6.42-16.44-14.79-.99-8.72 5.26-17.04 13.89-18.55Z" fill="#000"/><path d="M379.531 494.79c5.08-1.91 10.94.6 12.92 5.67 2.83 6.48-1.52 14.71-8.68 15.43-4.25.47-7.61-1.26-9.91-4.82-3.44-5.89-.79-13.89 5.67-16.28Z" fill="#fff"/><path d="M330.441 503.6c.44 4.06-1.41 7.43-1.67 11.39-.24 6.08 2.47 12.14 7.29 15.89 2.44 1.9 5.12 2.82 7.78 4.29 1.95.85 1.84 2.03 1.58 3.92-1.51 1.78-3.31 1.46-5.31.8-7.28-2.71-13.55-8.6-15.95-16.08-2.04-6.12-1.77-13.6 1.36-19.29 1.26-1.87 3.04-.88 4.92-.92Z" fill="#000"/></g><g transform="translate(-161 -83)"><g fill="#000"><path d="M452.03 395.85c.66 4.64-1.51 9.35-4.21 13-3.6 4.46-7.81 8.36-12.85 11.13-7.66 4.35-15.96 7.71-24.19 10.81-23.79 8.79-48.56 15.1-73.52 19.48-3.35.54-6.97 1.5-10.36 1.11-1.92-.92-2-2.82-1.11-4.52 2.34-1.8 5.49-2.72 8.19-3.89 35.94-14.72 71.88-29.45 107.8-44.2 3.36-1.25 6.59-3.38 10.25-2.92ZM478.97 396c49.32 7.61 98.68 15.15 148.01 22.75 2.58.42 5.33.58 7.81 1.41 2.44 1.14 1.7 5.04-.96 5.26-9.59.95-19.18 1.82-28.83 1.95-15.39.1-30.64.32-45.98-1.18-20.91-1.64-42.24-4.59-62.25-11.06-6.97-2.41-14.88-5.46-20.27-10.64-1.79-1.9-4.09-4.28-3.17-7.13 1.22-2.13 3.6-1.59 5.64-1.36Z"/></g></g><g transform="translate(-161 -83)"><path d="M524.2 555.79c.49 6.88-.8 13.42-1.56 20.21-2.78 24.19-9.38 47.95-19.15 70.23-3.65 7.33-6.74 15.74-13.95 20.34-4.25 3.06-10.3 1.77-14.6-.52-9.49-4.69-15.15-12.28-21.77-20.2-10.97-13.41-18.85-28.33-26.05-44.01-3.56-8.19-6.83-16.5-10.25-24.74-.87-2.13-1.17-4.09 1.07-5.43 4.72-.01 9.31 1.49 14.06 1.51 9.29.24 18.74.4 27.98-.82 19.98-2.29 39.64-8.3 57.99-16.44 2.13-1.07 4.03-.6 6.23-.13Z" fill="#000"/><path d="M518.93 561.99c-1.93 15.16-3.98 30.2-8.01 44.98-4.69 16.77-10.27 33.84-19.05 48.96-2.17 3.44-5.29 7.34-9.89 6.51-7.43-1.55-14.07-7.99-18.68-13.73-9.88-10.97-17.89-23.26-24.61-36.38-6.13-11.12-10.64-22.89-15.69-34.52 4.8.44 9.6.8 14.4 1.2 1.13 5.94 4.59 11.51 8.45 16.07 5.08 5.94 12.23 9.8 20.13 9.97 6.25-.49 12.08-3.13 16.68-7.36 8.02-7.35 11.96-17.07 14.48-27.43 7.39-2.48 14.64-5.15 21.79-8.27Z" fill="#8F2E45"/><path d="M490.65 572.12c-2.55 8.79-7.09 18.39-14.95 23.59-5.47 3.77-12.71 4.39-18.57 1.12-7.01-3.86-10.91-10.5-13.93-17.65 16.1-.33 32.01-2.32 47.45-7.06Z" fill="#fff"/></g><g transform="translate(-161 -83)"/><g transform="translate(-161 -83)"><path d="M578.021 188.75c20.11 2.94 39.91 10.75 55.91 23.39 2.1 1.87 4.46 1.74 7.09 2.18 19.51 2.64 38.23 10.66 53.51 23.09 1.99 1.61 3.99 3.67 6.31 4.77 28.99 12.55 53.19 34.98 68.39 62.64 13.71 24.69 20.24 52.12 21.99 80.17.34 9.96.34 20.06-.06 30.01a318.49 318.49 0 0 1-7.71 51.21c-.43 1.8-1.34 3.32-2.25 4.91-2.05-.67-3.92-1.33-5.56-2.77-5-4.23-11.87-6.17-18.17-7.46-5.66-.9-11.99-1.34-17.57.16-2.11 1.79-3.68 4.26-5.55 6.31-10.74 12.2-24.25 22.42-38 30.98-3.13 1.96-6.53 4.08-10.28 4.51-2.6-.34-3.27-2.27-2.65-4.62 2.33-10.35 4.44-20.56 4.47-31.23.06-25.84-4.55-51.08-10.84-76.05-3.07-11.07-6.18-22.45-10.72-32.95-8.36 19.37-19.77 36.74-36.52 49.85-2.23 1.24-4.81.49-5.06-2.29-3.13-20.61-10.71-38.82-19-57.74-1.56 8.42-2.71 16.86-4.96 25.14-2.14 8.54-5.35 16.52-8.05 24.86-.67 1.75-1.02 3.57-2.62 4.73-2.53.53-5.13-1.15-7.03-2.66-8.48-6.86-16.93-13.76-24.93-21.06-5.4-4.97-10.22-10.43-15.17-15.83-9.86-10.42-18.77-21.86-27.42-33.3-4.18 21.58-10.58 42.69-18.76 63.09-.77 1.63-1.64 4.42-3.82 4.44-2.01.38-3.63-1.27-3.74-3.22-.53-5.66-.34-11.37-.98-17.03-1.33-13.62-1.06-27.18-.95-40.84-5.57 8.33-10.43 17.16-15.01 26.07-5.65 10.93-9.6 22.7-11.75 34.81-.49 2.6-.57 5.45-1.53 7.92-1.21 2.16-3.44.98-5.13.17-22.36-12.03-38.05-33.76-45.33-57.81-9.27 10.68-17.96 21.78-25.32 33.88-7.41 11.92-13.61 23.99-16.69 37.79-.75 3.47-.15 6.64-.28 10.1-.15 1.69-1.61 2.89-3.29 2.87-2.61 0-5.35-1.17-7.76-2.12-13.19-5.54-25.61-12.68-36.72-21.72-3.96 12.27-6.13 24.94-7.53 37.73-1.74 17.51-2.51 35.26.77 52.65.22 1.8.78 3.31-.49 4.88-1.99.81-4.03.5-5.58-1-2.92-2.75-5.29-6.15-7.63-9.39-12.58-18.37-19.93-40.62-19.39-62.97.09-17.91 5.15-34.62 12.62-50.74 1.96-4.28 4.57-8.12 7.25-11.97-1.44-13.27-.56-26.7 3.24-39.52 3.91-13.77 11.67-25.84 21.7-35.95-4.4-19.14-4.1-39.19 5.66-56.68 8.55-15.21 23.03-24.62 38.75-31.25 16.48-6.7 34.16-10.96 51.87-6.63 10.28 2.19 19.41 7.74 26.75 15.18 16.47-13.91 37.7-23.22 59.5-22.76 2.73.13 6.05-.28 8.6.78 1.92 2.06 2.87 5.23 4.16 7.74 18.09-10.11 38.99-11.92 59.26-9.45Z" fill="#000"/><path d="M555.99 193.61c30.92-1.67 63.31 10.02 84.84 32.56 1.93 1.8 3.48 1.7 5.28-.19.49-2.5-1.44-3.77-2.73-5.64 17.64 3.34 34.3 10.59 48.16 22.08 17.62 14.38 29.99 34.14 37.68 55.38 6.57 17.94 9.79 37.17 10.8 56.2.27 3.49-.1 7.09.46 10.54 1.17 2.8 4.72 2.43 5.37-.5.74-5.23-.49-10.8-.55-16.09-2.32-34.01-12.45-67.38-34.09-94.2 19.44 11.18 36.12 26.92 48.16 45.87 15.64 24.27 23.89 53.7 25.78 82.36 1.09 8.22.57 16.63.68 25.02-.86 18.8-3.24 37.45-7.51 55.79-10.13-6.5-22.08-8.93-33.99-8.52 7.53-11.31 14.81-23.95 18.04-37.24.73-2.47-.84-3.23-2.28-4.82-1.9 1.21-2.94 1.99-3.51 4.24-3.16 11.63-8.79 21.9-15.3 31.95-12.48 20.09-31.44 35.46-51.44 47.63 2.92-12.96 4.74-26.75 3.51-40.03-.97-22.11-4.94-43.59-10.37-65-3.84-13.54-7.7-26.95-13.87-39.65 5.25-13.23 8.53-27.09 8.83-41.35-.38-19.8-7.24-39.62-15.26-57.55-1.01-2.02-1.79-4.29-4.59-3.6-2.47 1.02-1.92 3.2-1.07 5.18 6.41 14.06 11.88 29.17 14.26 44.49.9 7.07.87 14.42.21 21.52-1.54 11.85-5.18 23.56-9.95 34.51-4.86 11.07-10.38 21.66-17.89 31.2-4.07 5.39-8.87 10.04-13.83 14.58-2.76-13.47-6.73-26.48-12.12-39.13-9.91-25.17-22.82-48.17-36.49-71.42-2.04-3.22-3.83-6.87-6.45-9.63-1.68-1.58-4.12-.37-4.46 1.8.1 3.69 1.29 7.36 1.75 11.03.78 3.8.58 7.72 1.37 11.5 1.64 1 2.38.77 3.98-.14 1.46-2.83.68-6.78.35-9.85 7.82 13.86 15.54 27.81 22.65 42.05.51 1.23 1.61 2.83 1.15 4.18-1.31 5.38-2.54 10.77-3.22 16.28-1.96 13.48-6.14 26.25-10.73 39.03-12.29-9.9-25.23-20.13-35.72-31.91-8.27-8.79-16.37-17.66-23.85-27.14-3.9-4.87-7.87-9.6-10.88-15.11 1.09-6.29 2.27-12.56 3.3-18.85 2.52-14.54 3.7-29.33 5.02-44.02.67-17.9.94-36.8-4.23-54.1-.78-1.59.99-1.83 1.97-2.54 10.11-5.25 21.46-7.95 32.78-8.75Z" fill="rgba(86, 35, 6, 1)"/><path d="M511.589 195.39c6.55 12.83 8.05 26.43 8.38 40.63.54 7.69.03 15.31-.29 22.99-1.44 17.52-3.11 34.95-6.51 52.21-4.19 24.82-9.95 49.13-19.15 72.6-1.1-15.28-1-30.51-.85-45.82 0-3.62.9-7.56.16-11.11-1.27-2.62-4.94-2.2-6.41.02-5.8 7.34-10.58 15.72-15.14 23.87-4.6 8.49-8.91 16.81-11.97 26.01-2.52 7.17-4.07 14.54-5.51 21.98-9.4-5.68-17.68-12.99-24.28-21.78-15.03-19.77-21.99-45.33-21.06-69.99.27-20.85 6.16-41.66 16.41-59.79 10.17-17.93 25.33-33.68 43.87-42.97 13.1-6.67 27.68-9.66 42.35-8.85Z" fill="rgba(86, 35, 6, 1)"/><path d="M426.54 205.45c5.8 2.6 11.13 6.33 15.64 10.81-32.91 31.53-46.22 80.5-35.5 124.6-15.43 16.95-29.32 36.09-39.04 56.9-3.72 8.67-7.35 18.28-7.55 27.8-12.04-4.82-23.47-11.05-33.9-18.77-5.91-4.42-10.98-9.84-14.43-16.4-7.06-13.58-9.31-29.23-7.63-44.36 1.56-17.9 8.56-34.92 20.85-48.13 3.01 9.19 5.82 18.33 12.21 25.88 1.54 1.74 4.64 1.28 5.41-.96 1.34-3.93 1.95-8.05 3.5-11.94 4.79-12.64 12.44-24.26 21.92-33.88 9.19-8.99 20.29-16.27 31.18-23.03 1.35-4.43-3.22-4.35-5.84-2.63-10.75 6.76-21.93 14.06-30.84 23.16-11.1 11.53-19.79 25.94-24.08 41.4-5.6-10.16-8.85-21.76-10.85-33.13-1.21-6.45-1.04-13.24-.83-19.78 1.15-15.18 7.77-29.81 19.58-39.66 12.43-10.45 28.44-17.01 44.2-20.48 11.93-2.82 24.61-1.97 36 2.6ZM299.779 374.92c1.73 5.3 3.13 10.63 5.61 15.66 2.19 4.84 5.28 9.05 8.6 13.16-5.15 14.04-7.4 29.41-9.04 44.22-1.32 14.9-1.69 29.84-.05 44.74-11-15.33-18.37-33-20.07-51.89-.91-6.58-.77-13.22.16-19.78 1.2-13.27 5.21-25.59 10.42-37.78 1.24-2.89 2.71-5.66 4.37-8.33Z" fill="rgba(86, 35, 6, 1)"/><path d="M786.069 557.43c1.97.91 3.08 3.45 3.24 5.51.45 5.68-.39 11.42-2.94 16.55-.92 2.26-2.37 3.94-1.86 6.51 1.89 12.46 5.08 23.75 5.3 36 1.27 15.65-1.38 31.16-10.62 44.13-1.71 2.46-4.18 4.4-5.79 6.89-1.87 15.7-6.25 32.17-14.6 45.73-9.55 14.74-22.91 27.8-39.11 34.95-1.83 1.01-5.79 1.28-6.08 3.74-2 6.85-4.97 13.43-8.57 19.59-6.16 10.26-15.13 19.15-24.49 26.52-6.77 5.19-13.5 10.06-21.2 13.79-11.18 5.91-23.6 9.85-35.39 14.49 2.9 3.15 6.99 4.8 9.52 8.67 1.31 2.2.75 5.13-1.57 6.38-4.48 2.79-11.02 2.37-16.11 2.47-.63 9.65 3.05 17.57 6.93 26.09 4.76 10.26 8.79 20.86 12.25 31.62 3.67 11.65 5.21 23.97 2.39 35.98-2.59 11.27-8.21 21.07-15.1 30.23-4.13 5.3-9.21 9.3-14.59 13.29-2.84 1.23-3.56-1.77-4.63-3.64-4.46-9.81-12.49-17.01-21.94-21.93-12.5-6.91-24.96-12.44-34.25-23.62 0 5.46.36 10.81 2.42 15.93-.71.96-1.35 2.15-2.33 2.82-2.1.49-3.42-.95-5-2.05-7.85-6.3-14.31-14.25-18.93-23.2-6.33-11.84-9.05-25.38-6.44-38.67 2.57-14.66 11.13-27 20.13-38.48 7.06-8.79 15.97-14.75 25.53-20.48-.59-2.03-1.84-3.95-1.04-6.08 1.31-4.33 4.71-6.2 8.49-8.12-.56-2.68-1.01-5.34-.74-8.1.98-10.33 4.94-20.4 11.51-28.46 1.85-2.52 4.14-4.07 4.24-7.45.68-6.97 2.33-13.72 5.24-20.1 6.33-13.58 13.92-25.91 27.59-33.13 2.53-11.55 6.32-22.6 12.64-32.66 5.36-8.32 11.31-15.99 19.5-21.71.4-6.12 1.51-12.35 3.6-18.12 2.08-1.97 4.79-3.27 7.07-5.02 11.07-8.33 20.94-18.52 30.26-28.7 9.16-10.19 17.69-20.5 24.48-32.45 1.36-2.37 1.93-6.56 4.9-7.35 3.77.4 7.18 2.45 11.02 2.8 6.81.78 13.83.44 20.49-1.21 11.17-2.74 23.01-8.44 30.25-17.64 1.38-1.48 2.02-2.69 4.33-2.31Z" fill="#000"/><path d="M784.281 565.83c-.4 4.06-1.03 7.99-2.92 11.66-3.57 7.27-9.94 13.55-15.86 18.98-8.12 7.05-16.96 13.3-26.16 18.87a229.61 229.61 0 0 0-23.82 16.68c-1.09-8.39-1.63-16.55-1.4-25.02.2-4.39-.85-10.29 1.86-13.99 2.27-3.46 4.27-6.93 6.06-10.66 8.1 2.75 16.6 2.88 25 1.79 13.8-2.17 27.43-8.16 37.24-18.31ZM779.71 589.98c1.96 10.75 4.12 21.25 4.55 32.02.76 13.45-.83 26.55-8.07 38.18-4.87 8.03-12.47 13.46-21.07 16.93-14.92 6.49-31.63 9.97-47.62 12.74-6.29 1.39-12.48 3.39-18.5 5.65-.81-5.01-.58-9.53.4-14.48 2.47-11.7 7.97-22.72 16.04-31.56 11.32-12.59 26.16-22.71 40.57-31.44 12.47-7.96 24.11-16.65 33.7-28.04ZM708.291 603.5c-.1 10.73.81 21.4 2.6 31.98-4.38 4.29-8.59 8.78-12.62 13.41.04-9.5-1.89-18.61-3.03-27.96-.38-2.06 1.16-2.97 2.27-4.45 3.77-4.18 7.33-8.53 10.78-12.98ZM690.14 624.82c1.72 10.39 3.41 20.6 2.68 31.2-.45 1.83-1.65 3.52-2.47 5.21-5.77 11.47-9.09 23.91-6.99 36.81-6.07 3.1-12.02 6.32-17.47 10.44-4.1-6.23-7.25-13.14-8.69-20.49-2.34-11.64-3.27-23.17.31-34.68 12.54-8.03 22.13-18.17 32.63-28.49ZM649.73 673.93c.36 5.52 1.13 11.07 2.19 16.5 1.6 7.96 5.1 15.17 9.56 21.9-13.02 12.41-21.92 29.28-24.77 47.04-4.95 2.24-9.59 4.92-14.11 7.91-2.39-6.62-1.81-14.24-1.88-21.28-.07-10.46 1.68-20.74 4.41-30.82 4.36-15.74 12.42-30.24 24.6-41.25ZM767.539 677.3c-2.51 14.63-7.369 29.98-16.159 42.11-5.31 7.22-11.291 14.02-18.401 19.52-7.37 5.45-15.709 10.9-24.949 12.15-10.42 1.1-20.811-.3-31.051-.22-11.38.54-23.219 1.92-33.959 5.94 2.86-13.57 9.65-26.57 18.97-36.81 7.72-8.48 17.27-13.68 27.57-18.4 8.79-3.71 18.01-6.22 27.46-7.56 17.09-3.44 35.349-7.82 50.519-16.73ZM616.211 728.79c-.44 5.47-1.43 10.71-1.35 16.21.01 9.07-.51 17.39 3 26.01-9.63 7.63-17.15 17.15-23.81 27.4-1.77-3.64-3.27-7.3-3.51-11.39-1.59-13.14 1.92-25.79 8.27-37.22 3.66-6.96 8.14-13.59 14.21-18.66 1.06-.8 2.12-1.58 3.19-2.35ZM708.429 756.83c-1.83 4.88-3.83 9.68-6.34 14.26-7.19 13.33-19.75 24.32-31.97 32.99-10.39 7.55-22.87 12.94-34.91 17.27-6.25 2.75-12.03 3.73-17.39 7.62-9.1-3.91-18.36-5.68-28.04-7.84 1.9-6.7 4.93-12.81 8.67-18.66 7.45-12.27 16.87-23.14 28.77-31.28 7.7-5.14 16.46-8.77 25.32-11.36 10.59-2.28 21.62-3.83 32.46-3.15 7.78.65 15.65.79 23.43.15ZM584.51 785.7c.63 6.63 2.37 12.77 6.32 18.22-2.94 5.11-5.09 10.45-6.79 16.08-2.86-.54-6.09-.88-8.73-2.16-2.48-10.85 2.83-23.45 9.2-32.14ZM571.49 824.74c4.87-1.83 10.53.53 15.49 1.39 14.96 3.41 29.15 5.64 40.86 16.44-11.57 3-25.49-.82-36.8-3.77-8.17-2.45-17.91-4.58-24.72-9.87 1.47-1.81 2.85-3.47 5.17-4.19ZM567.08 836.63c7.08 3.2 14.3 5.64 21.84 7.52-6.19 11.42-7.1 25.23-5.42 37.89 1.05 8.7 3.93 16.94 7.59 24.85.74 1.75 3.53 2.31 4.52.69 1.72-1.96-.28-5.06-.98-7.16-4.47-9.89-6.33-20.63-6.4-31.43.5-8.29 1.59-16.24 6.11-23.4 5.35 1.42 10.75 2.6 16.25 3.27-1.25 14.32 6.2 25.65 11.12 38.45 4.84 12.83 10.57 26.47 11.38 40.23.61 12.09-3.58 24.37-10.1 34.45-4.08 6.69-8.67 12.75-15.32 17.09-2.71-5.04-5.9-9.7-10.18-13.56-7.89-7.7-17.05-11.02-26.41-16.61-8.12-4.65-15.58-9.15-20.83-17.18-8.15-11.61-8.19-27.17-7.04-40.74 1.74-13.45 6.02-28.32 14.93-38.85.83-.95 1.19-1.98 1.09-3.09-.73-1.77-2.65-2.24-4.1-1.06-3.29 2.71-5.66 6.79-7.71 10.48-6.03 10.92-8.95 23.26-10.34 35.57-.87 12.26.09 24.59 5.23 35.9-1.25 5.28-1.19 10.59-.96 15.98-11.33-11.07-19.12-25.98-20.1-41.92-.04-11.72 3.68-22.93 10.02-32.73 5.1-7.79 10.61-16.19 17.73-22.27 5.62-4.66 11.68-8.85 18.08-12.37Z" fill="rgba(86, 35, 6, 1)"/></g></g></svg>