<svg xmlns:dc="http://purl.org/dc/elements/1.1/" xmlns:cc="http://creativecommons.org/ns#" xmlns:rdf="http://www.w3.org/1999/02/22-rdf-syntax-ns#" xmlns:svg="http://www.w3.org/2000/svg" xmlns="http://www.w3.org/2000/svg" viewBox="0 0 762 762" fill="none"><metadata><rdf:RDF><cc:Work><dc:format>image/svg+xml</dc:format><dc:type rdf:resource="http://purl.org/dc/dcmitype/StillImage"/><dc:title>Adventurer</dc:title><dc:creator><cc:Agent><dc:title>Lisa Wischofsky</dc:title></cc:Agent></dc:creator><dc:source>https://www.instagram.com/lischis_adventures/</dc:source><cc:license rdf:resource="https://creativecommons.org/licenses/by/4.0/"/></cc:Work><cc:License rdf:about="https://creativecommons.org/licenses/by/4.0/"><cc:permits rdf:resource="https://creativecommons.org/ns#Reproduction"/><cc:permits rdf:resource="https://creativecommons.org/ns#Distribution"/><cc:permits rdf:resource="https://creativecommons.org/ns#DerivativeWorks"/><cc:requires rdf:resource="https://creativecommons.org/ns#Notice"/><cc:requires rdf:resource="https://creativecommons.org/ns#Attribution"/></cc:License></rdf:RDF></metadata><mask id="avatarsRadiusMask"><rect width="762" height="762" rx="0" ry="0" x="0" y="0" fill="#fff"/></mask><g mask="url(#avatarsRadiusMask)"><path d="M396.01 164.85c37.82 4.9 74.21 19.64 104.8 42.39 6.15 4.84 12.48 9.33 18.02 14.92 23.77 21.98 42.73 49.02 55.13 78.95 9.35 22.31 14.72 46.04 16.64 70.14 6.62.81 13.05 2.14 19.12 5 15.54 6.93 27.08 20.94 31.78 37.21 2.63 9.56 3.56 19.75 1.72 29.55-2.96 18.76-13.72 36.13-29.37 46.92-10.94 7.65-24.49 12.03-37.86 11.68-5.13-.05-10.04-1.6-15.13-1.79-1.85 2.17-3.23 4.84-4.76 7.25-18.66 29.62-44.57 54.51-74.64 72.4-28.1 16.73-59.9 27.16-92.46 30.32-11.08.7-21.87 2.05-32.98.74-51.69-2.3-102.07-23.44-140.15-58.43-29.03-26.55-50.84-60.83-62.54-98.39-7.09-22.85-10.62-46.78-10.07-70.71.52-40.34 12.53-80.58 33.94-114.76 19.1-30.81 45.91-56.58 77.2-74.83 29.63-17.28 63.35-27.68 97.59-29.87 14.66-1.47 29.44-.37 44.02 1.31Z" fill="#000"/><path d="M363 169.06c48.47-1.39 97.32 14.7 135.81 44.12 6.55 4.06 11.72 9.49 17.36 14.64 24.33 22.63 43.2 50.95 54.93 82.02 7.43 19.61 11.86 40.2 13.56 61.09-8.89.74-17.34 2.34-25.38 6.38-2.19 1.03-1.89 4.95.68 5.23 2.35.23 4.98-1.51 7.24-2.2 14.62-5.37 31.32-4.35 44.78 3.68 11.69 6.78 20.09 18.16 23.89 31.06 2.6 8.25 2.68 17.41 1.76 25.95-2.5 17.35-12.35 33.73-26.73 43.81-15.71 11.33-37.17 14.64-54.93 6.2-3.17-1.43-5.94-3.58-9.08-5.05-2.95-1.09-4.88 2.79-2.7 4.75 3.17 2.76 7.34 4.52 11 6.56-20.14 34.15-49.45 62.7-84.41 81.47-30.2 16.31-64.44 25.53-98.78 26.15-27.63.72-55.33-4.04-81.21-13.72-30.32-11.24-57.84-29.43-80.37-52.6-22.67-23.37-39.92-51.88-50.2-82.77-14.96-44.64-14.91-94.01.27-138.59 11.05-33.06 30.28-63.21 55.37-87.39 29.67-28.73 67.65-48.54 108.13-56.67 12.8-2.52 25.94-4.24 39.01-4.12Z" fill="rgba(236, 173, 128, 1)"/><path d="M605.03 404.4c2.63-.1 3.44 3.8 1.36 4.98-3.69 1.83-7.82 2.77-11.64 4.35-5.82 2.04-11.28 4.76-16.68 7.72 4.29 2.34 8.86 4.74 12.71 7.76 2.58 2.09 4.85 4.35 5.33 7.8-.26 3.59-2.73 6.55-5.45 8.69-5.86 4.66-13.92 7.18-20.79 10.26-1.75.62-4.43 1.99-5.59-.26-1.02-1.74-.06-3.11 1.57-3.87 6.65-3.3 14.86-5.62 20.79-10.16 1.37-1.14 3.39-2.74 3.61-4.62-4.07-5.63-12.42-8.59-18.23-12.09-2.34-1.72-2.29-4.24-.16-6.13 7.27-5.64 16.98-9.26 25.57-12.38 2.42-.83 5.03-1.95 7.6-2.05Z" fill="#000"/><g transform="translate(-161 -83)"><path d="M559.011 424.1c16.41.51 32.33 7.36 43.93 18.98 5.76 5.61 9.95 12.31 13.6 19.43 7.87-5.09 15.8-10.08 23.76-15.03 1.25 1.09 2.42 2.25 3.56 3.46-3.17 3.52-7.07 5.39-10.96 7.93-4.77 3.03-9.55 6.03-14.3 9.08 3.17 10 4.53 20.39 2.8 30.81-2.05 14.92-9.59 28.86-20.75 38.93-11.58 10.56-26.96 16.72-42.65 16.84-12.98.34-26.07-3.48-36.9-10.63-12.44-8.06-21.81-20.51-26.4-34.58-4.57-14.5-4.06-30.74 1.79-44.81 5.41-13.38 15.56-24.82 28.12-31.91 10.31-6.04 22.51-8.85 34.4-8.5Z" fill="#000"/><path d="M549.27 430.26c14.65-1.77 29.27 1.62 41.4 10.04 12.46 8.48 21.37 21.87 24.46 36.62 2.62 12.36 1.24 25.52-4.07 37.02-6.12 13.64-17.67 24.9-31.58 30.43-10.22 4.23-21.57 5.65-32.48 3.67-16.41-2.65-31.48-12.62-40.35-26.68-5.6-8.77-8.74-18.94-9.37-29.31-.61-14.46 4.23-29.15 13.41-40.36 9.47-11.77 23.62-19.56 38.58-21.43Z" fill="#fff"/><path d="M414.051 453.95c10.75 6.03 19.24 15.78 23.87 27.2 3.49 8.51 4.54 17.78 3.61 26.9-1.79 17.13-12.16 32.86-27.1 41.38-16.49 9.64-37.66 9.77-54.3.41-14.42-7.99-24.75-22.55-27.4-38.84-1.81-8.9-.64-17.67 1.89-26.29-5.82-3.63-12.13-6.62-17.74-10.55-1.95-1.1-1.44-4.12.68-4.64 1.65-.48 3.18.59 4.6 1.28 4.83 2.83 9.64 5.66 14.48 8.47 6.58-14.13 18.65-25.2 33.59-29.87 14.42-4.66 30.66-2.95 43.82 4.55Z" fill="#000"/><path d="M378.27 453.29c15.03-2.78 30.94 1.95 42.11 12.35 10.06 9.24 15.9 22.72 15.93 36.37-.17 8.05-2.22 16.17-6.07 23.26-6.94 12.82-19.64 22.21-33.98 24.9-8.07 1.72-16.23 1.09-24.08-1.36-19.1-5.88-33.31-23.78-34.38-43.79-.98-12.79 3.48-25.72 11.85-35.41 7.31-8.53 17.57-14.32 28.62-16.32Z" fill="#fff"/><path d="M527.27 466.19c7.37-.9 15.21 1.78 20.25 7.29 3.82 4.17 6.28 9.79 6.41 15.47.28 7.26-3.03 14.7-8.73 19.24-6.96 5.83-17.24 6.92-25.36 2.96-8.64-4.1-14.23-13.61-13.38-23.18.7-11.14 9.74-20.51 20.81-21.78ZM358.54 480.84c11.41-3.87 24.34 3 27.54 14.59 3.77 11.69-4.02 24.86-16.03 27.32-10.63 2.65-22.19-3.54-25.66-13.94-3.92-11.13 2.75-24.59 14.15-27.97Z" fill="#000"/></g><g transform="translate(-161 -83)"><g fill="#000"><path d="M613.54 401.51c1.59 1.01 1.08 2.86 1.24 4.48-.06 11.34-.05 22.7-.12 34.04.32 2.75-2.42 4.22-4.62 5-39.99 13.74-80.12 27.25-120.05 41.12-2.53.2-2.84-1.75-3.51-3.66-1.63-6-3.3-11.98-5.01-17.95.97 5.75.98 11.66 1.36 17.47-.02 1.44.45 3.94-.99 4.85-1.95 1.4-4.07.13-4.6-2.03-3.64-12.73-7.02-25.58-10.66-38.32-.39-1.83-.65-3.91 1.36-4.88 2.11-.49 3.41.47 4 2.44 1.27 4.55 2.55 9.11 3.68 13.7-.73-5.24-.94-10.49-1.18-15.77-.01-1.27-.14-3.73 1.66-3.79 1.47-.26 2.98-.38 4.43-.72 41.23-11.74 82.37-23.44 123.6-35.22 3.27-.87 6.02-2.08 9.41-.76ZM324 433.87c13.64 1.39 27.36 1.44 41 2.58 21.04 1.05 42.11 2.67 63.14 3.42 7.79.78 15.61 1.12 23.44 1.68 2.77 2.19 1.08 8.08 1.91 11.33.56-2.97.18-6.91 1.92-9.46 2.15-1.8 5.08-.17 4.76 2.56-2.36 14.03-4.77 28.14-7.02 42.18-.8 2.93-4.48 2.56-5.29-.15-.27-4.92-.21-9.89-.28-14.83-1.03 4.29-1.47 8.69-2.47 12.98-.43 1.64-1.17 2.84-3.1 2.4-39.48-6.89-79.4-14.23-118.87-21.29-1.88-.2-2.83-1.46-3.09-3.26-1.45-7.98-2.5-16.04-4.12-23.99-.23-1.72-.74-3.14.56-4.58 2.12-2.29 4.72-1.68 7.51-1.57Z"/></g></g><g transform="translate(-161 -83)"><path d="M495.22 560.98c15.47 1.86 31.27 5.52 44.44 14.2 7.06 4.63 13.5 11.35 15.37 19.82 2.36 8.6-3.62 18.23-11.69 21.37-7.22 3.03-14.02 1.8-21.35.17-5.96-.95-11.95-1.6-17.99-1.84-22.56-.95-45.14.85-67.19 5.75-5.75 1.01-11.12 3.3-16.8 3.71-6.48.14-13.08-3.06-16.8-8.41-3.08-4.19-4.42-9.63-4.29-14.77.61-7.76 5.39-14.89 11.17-19.87 9.78-8.61 22.92-13.67 35.41-16.81 16.28-3.82 33.07-4.79 49.72-3.32Z" fill="#000"/><path d="M505.97 568.6c-10.26 7.49-23.29 11.5-35.8 12.93-14.13 1.18-28.18.17-41.49-5.01 8.86-4.74 19.44-6.95 29.27-8.73 16.06-2.16 32.07-2.4 48.02.81Z" fill="#fff"/><path d="M513.77 570.3c11.07 3.23 22.56 7.72 30.43 16.52 4.18 4.76 6.93 11.23 4 17.39-3.01 6.16-9.66 8.56-16.2 7.98-22.43-4.47-46.27-4.38-68.96-2.05-12.25 1.6-24.14 3.39-36.04 6.83-5.67 1.38-11.31 2.18-16.17-1.8-6.59-5.25-7.41-14.6-3.49-21.74 3.42-5.84 8.89-10.26 14.64-13.66 4.08 2.55 8.45 3.69 13.04 4.97 21.88 5.68 46.86 3.96 67.01-6.71 4.26-2.11 7.8-5.14 11.74-7.73Z" fill="#8F2E45"/></g><g transform="translate(-161 -83)"><path d="M569 416.32c10.67-.28 21.35-.06 32.02-.26 13.97-.61 27.98-.37 41.98-.52 3.87.15 9-.18 12.21 2.31 2.36 1.63 2.22 5.59 2.35 8.14-.11 4.33-.28 9.38-2.31 13.3-5.07 1.98-11.44 1.25-16.84 1.91.43 12.26 1.67 24.56 1.31 36.83-.71 13.91-3.67 28-10.34 40.32-8.09 13.04-19.91 24.39-33.54 31.51-10.42 5.38-21.75 7.4-33.39 7.78-6.22.19-12.08.49-18.21-.84-9.48-2.04-18.88-4.45-26.96-10.06-11.14-7.58-19.27-18.77-25.41-30.6-6.59-13.57-10.14-29.24-13.26-43.94-.53-2.3-2.38-3.48-4.35-4.45-6.63-2.95-14.93-.51-18.8 5.6-.8 2.41-.9 5.14-1.16 7.65-.62 7.61-2.25 15.33-3.88 22.79-3.12 13.58-8.99 26.32-16.8 37.83-4.35 5.79-9.75 11.42-16.22 14.81-10.53 5.74-22.3 10.09-34.41 10.28-7.24-.19-14.15-.39-21.12-2.5-5.48-1.33-10.51-4.8-15.16-7.94-6.41-4.39-11.06-10.29-15.28-16.72-5.3-8.31-9.31-17.34-12.24-26.73-2.84-9.45-5.24-18.79-5.19-28.73-4.55.67-9.39 2.24-13.99 1.96-4.36-.81-5.31-7.51-5.5-11.08.13-2.39-.16-6.76 2.69-7.68 21.6-9.82 44.44-17.06 67.54-22.42 17.03-3.7 34.73-8.24 52.27-6.65 11.18.94 22.83 3.92 31.72 11.06 3.2 2.41 5.43 6.83 9.38 7.59 7.08 1.83 14.45-1.23 20.89-3.96 3.63-10 10.02-17.34 19.06-22.82 6.29-3.84 13.67-6.15 20.7-8.28 16.76-4.03 33.14-4.65 50.24-5.49Z" fill="#000"/><path d="M307.1 478.16c1.21-1.2 3.4-.01 2.44 1.64-1.21 1.2-3.4.01-2.44-1.64Z" fill="#000"/><ellipse cx="605" cy="457.5" rx="14" ry="10.5" fill="#fff"/><ellipse cx="411" cy="476.107" rx="11" ry="8.107" fill="#fff"/></g><g transform="translate(-161 -83)"><path d="M558.951 229.03c42.79 5.47 86.55 16.98 124.87 37.14 25.87 13.7 50.73 32.25 67.08 56.9 4.03 5.76 5.84 12.02 8.5 18.42 4.82 11.93 7.66 24.08 10.94 36.48 8.15 31 18.05 61.58 29.08 91.67 12.75 34.88 27.1 69.13 43.48 102.47 1.38 2.89 3.07 5.61 4.58 8.44.79 1.29.95 2.64-.07 3.87-4.2 5.3-10.21 9.55-15.88 13.17-12.36 7.78-26.12 13.86-39.74 19.06-17.53 6.75-35.51 12.03-53.78 16.4-19.33 4.41-39.19 8.1-59.01 9.27-3.88.27-7.08 1.24-10.63-.99.44-2.51.4-4.67 2.51-6.43 5.57-5.07 11.11-10.17 16.19-15.75-20.68 10.84-42.26 20.23-64.53 27.32-2.9.78-6.51 2.34-9.5 1.63-1.91-.9-2.18-2.76-1.41-4.57 8.68-19.2 12.22-41.76 15.07-62.52 2.75-23.29 4.35-46.56 4.27-70.01.17-18.2-.06-36.52-1.73-54.65-37.54-3.85-74.6-14.97-108.79-30.81-24.29-11.44-48.04-25.91-68.03-43.92-8.73-7.82-16.61-16.49-23.4-26.05-1.18 9.47-.96 18.92-.91 28.43.04 3.6.31 7.14 1.33 10.62.3 1.71 1.19 3.24-.05 4.78-1.13 1.71-3.72 1.12-5.36.59-13.04-4.41-23.45-13.85-30.45-25.57-7.23-12.18-10.64-26.3-10.09-40.44-12.51 9.15-22.51 20.24-32.34 32.12-12.23 14.92-23.97 31.11-32.67 48.37-1.41 2.75-2.68 5.53-3.37 8.56-10.56 47.51-4.58 98.34 16.78 142.08 16.83 34.93 43.23 65.08 75.57 86.46 1.23.82 2.49 1.63 3.58 2.62.7 1.71.91 3.01-.43 4.47-2.39 1.45-5.35 2.07-7.99 2.95-21.93 6.94-44.06 13.5-65.68 21.35-21.93 7.99-43.23 17.6-65.19 25.49-1.48-.94-2.4-1.89-3.38-3.35 3.59-7.74 9.35-14.05 12.51-22.1 9.79-24.32 9.99-51.18 9.35-77-.01-14.72-1.27-29.31-1.91-44-1.4-21.67-2.62-43.28-3.34-64.99-.54-27.33-2.12-55.73-.08-83.02 1.38-22.02 5.38-44.24 13.1-64.95 2.93-8.14 7.28-15.5 13.27-21.76 4.93-5.04 9.88-10.17 15.26-14.73 5.27-4.53 10.94-8.33 16.41-12.67 15.83-12.45 31.02-25.71 47-37.98 15.54-12.15 32.73-23.31 50.98-30.93 6.82-2.61 13.75-4.55 21.11-4.62 32.31-2.3 64.79-1.35 96.92 2.68Z" fill="#000"/><path d="M512.029 231.18c48.03 1.54 97.38 9.85 142.16 27.69 20.17 8.07 40 18.43 57.36 31.56 13.45 10.21 26.05 22.58 35.21 36.82 2.92 4.41 5.03 9.23 6.66 14.24 2.52 7.89 5.94 15.35 7.68 23.5 8.47 35.02 19.38 69.33 31.6 103.22 13.41 36.54 28.2 72.75 45.58 107.6 1.05 2.22 2.24 4.32 3.6 6.37-6.44 6.13-13.67 11.04-21.5 15.2-21.42 11.5-45.25 19.7-68.65 26.14-24.31 6.64-49.09 11.35-74.24 13.22 7.93-7.18 15.43-14.78 22.24-23.02 1.37-1.68 2.86-3.16 4.75-4.25 6.22-3.65 12.3-7.57 18.14-11.81 1.4-.95 2.15-2.33 3.08-3.71-1.18-1.25-1.77-2.49-3.73-2.44-2.92 1.32-5.48 3.54-8.17 5.28-10.55 7.05-21.68 13.26-32.94 19.1-19.85 10-40.54 19.11-61.85 25.54 5.54-14.49 8.81-30.13 11.3-45.41 3.94-24.86 5.79-49.85 6.47-74.99.48-33.68-.48-66.73-5.93-100.04-.27-1.55-.85-3.63-2.85-3.38-2.95-.22-3.12 2.38-2.78 4.6 1.55 9.43 2.75 18.91 3.56 28.44-34.23-4.03-67.73-13.41-99.24-27.36-21.3-9.47-42-21.12-60.52-35.32-11.48-8.87-22.5-19.07-31.33-30.62-2.43-3.12-4.16-6.25-7.22-8.83-1.3-1.38-2.8-1.09-4.48-.69-1.95 2.03-2.29 4.48-2.59 7.15-1.46 12.71-1.86 25.75-.17 38.45-7.28-2.8-13.78-7.98-18.83-13.86-17.36-20.53-20.44-52.48-6.43-75.59 1.17-1.88 1.48-4.26-.83-5.38-2.29-.27-2.93.74-4.12 2.4-5.14 8.19-7.77 17.21-9.21 26.71-12.46 7.4-23.07 18.7-32.67 29.44-9.12 10.63-17.7 21.78-25.43 33.47-9.83 14.73-17.74 30.79-23.36 47.59-1.76 5.81-3.42 11.82-4.08 17.85-.05 2.91 2.91 4.18 5.05 2.21.64-1.59 1.02-3.3 1.51-4.94-3.08 41.61 5.55 83.86 25.08 120.75 17.09 32.57 42.33 60.79 72.8 81.38-25.22 8.11-51.64 15.73-76.72 25.43-16.32 6.22-32.23 13.34-48.45 19.81 4.74-7.11 8.92-14.47 11.33-22.74 8.19-25.28 7.62-51.75 7.15-77.99-.85-11.32-.8-22.66-1.75-33.97-.75-10.33-.93-20.7-1.9-31.01-.66-12.99-1.05-26-1.75-38.99-.68-23.33-.6-46.66-.53-70 .54-22.17 3.54-44.45 9.66-65.79 1.65-5.86 4.4-11.15 6.94-16.65 4.07-8.32 10.29-13.78 16.67-20.2 5.83-5.99 12.45-10.93 19.16-15.86 27.33-20.89 53.74-46.31 83.8-63.19 7.25-4.11 14.64-7.79 22.72-10 7.3-2.15 14.41-2.29 21.96-2.69 13.64-.78 27.36-.5 41.03-.44Z" fill="rgba(171, 42, 24, 1)"/></g></g></svg>