<svg xmlns:dc="http://purl.org/dc/elements/1.1/" xmlns:cc="http://creativecommons.org/ns#" xmlns:rdf="http://www.w3.org/1999/02/22-rdf-syntax-ns#" xmlns:svg="http://www.w3.org/2000/svg" xmlns="http://www.w3.org/2000/svg" viewBox="0 0 762 762" fill="none"><metadata><rdf:RDF><cc:Work><dc:format>image/svg+xml</dc:format><dc:type rdf:resource="http://purl.org/dc/dcmitype/StillImage"/><dc:title>Adventurer</dc:title><dc:creator><cc:Agent><dc:title>Lisa Wischofsky</dc:title></cc:Agent></dc:creator><dc:source>https://www.instagram.com/lischis_adventures/</dc:source><cc:license rdf:resource="https://creativecommons.org/licenses/by/4.0/"/></cc:Work><cc:License rdf:about="https://creativecommons.org/licenses/by/4.0/"><cc:permits rdf:resource="https://creativecommons.org/ns#Reproduction"/><cc:permits rdf:resource="https://creativecommons.org/ns#Distribution"/><cc:permits rdf:resource="https://creativecommons.org/ns#DerivativeWorks"/><cc:requires rdf:resource="https://creativecommons.org/ns#Notice"/><cc:requires rdf:resource="https://creativecommons.org/ns#Attribution"/></cc:License></rdf:RDF></metadata><mask id="avatarsRadiusMask"><rect width="762" height="762" rx="0" ry="0" x="0" y="0" fill="#fff"/></mask><g mask="url(#avatarsRadiusMask)"><path d="M396.01 164.85c37.82 4.9 74.21 19.64 104.8 42.39 6.15 4.84 12.48 9.33 18.02 14.92 23.77 21.98 42.73 49.02 55.13 78.95 9.35 22.31 14.72 46.04 16.64 70.14 6.62.81 13.05 2.14 19.12 5 15.54 6.93 27.08 20.94 31.78 37.21 2.63 9.56 3.56 19.75 1.72 29.55-2.96 18.76-13.72 36.13-29.37 46.92-10.94 7.65-24.49 12.03-37.86 11.68-5.13-.05-10.04-1.6-15.13-1.79-1.85 2.17-3.23 4.84-4.76 7.25-18.66 29.62-44.57 54.51-74.64 72.4-28.1 16.73-59.9 27.16-92.46 30.32-11.08.7-21.87 2.05-32.98.74-51.69-2.3-102.07-23.44-140.15-58.43-29.03-26.55-50.84-60.83-62.54-98.39-7.09-22.85-10.62-46.78-10.07-70.71.52-40.34 12.53-80.58 33.94-114.76 19.1-30.81 45.91-56.58 77.2-74.83 29.63-17.28 63.35-27.68 97.59-29.87 14.66-1.47 29.44-.37 44.02 1.31Z" fill="#000"/><path d="M363 169.06c48.47-1.39 97.32 14.7 135.81 44.12 6.55 4.06 11.72 9.49 17.36 14.64 24.33 22.63 43.2 50.95 54.93 82.02 7.43 19.61 11.86 40.2 13.56 61.09-8.89.74-17.34 2.34-25.38 6.38-2.19 1.03-1.89 4.95.68 5.23 2.35.23 4.98-1.51 7.24-2.2 14.62-5.37 31.32-4.35 44.78 3.68 11.69 6.78 20.09 18.16 23.89 31.06 2.6 8.25 2.68 17.41 1.76 25.95-2.5 17.35-12.35 33.73-26.73 43.81-15.71 11.33-37.17 14.64-54.93 6.2-3.17-1.43-5.94-3.58-9.08-5.05-2.95-1.09-4.88 2.79-2.7 4.75 3.17 2.76 7.34 4.52 11 6.56-20.14 34.15-49.45 62.7-84.41 81.47-30.2 16.31-64.44 25.53-98.78 26.15-27.63.72-55.33-4.04-81.21-13.72-30.32-11.24-57.84-29.43-80.37-52.6-22.67-23.37-39.92-51.88-50.2-82.77-14.96-44.64-14.91-94.01.27-138.59 11.05-33.06 30.28-63.21 55.37-87.39 29.67-28.73 67.65-48.54 108.13-56.67 12.8-2.52 25.94-4.24 39.01-4.12Z" fill="rgba(118, 57, 0, 1)"/><path d="M605.03 404.4c2.63-.1 3.44 3.8 1.36 4.98-3.69 1.83-7.82 2.77-11.64 4.35-5.82 2.04-11.28 4.76-16.68 7.72 4.29 2.34 8.86 4.74 12.71 7.76 2.58 2.09 4.85 4.35 5.33 7.8-.26 3.59-2.73 6.55-5.45 8.69-5.86 4.66-13.92 7.18-20.79 10.26-1.75.62-4.43 1.99-5.59-.26-1.02-1.74-.06-3.11 1.57-3.87 6.65-3.3 14.86-5.62 20.79-10.16 1.37-1.14 3.39-2.74 3.61-4.62-4.07-5.63-12.42-8.59-18.23-12.09-2.34-1.72-2.29-4.24-.16-6.13 7.27-5.64 16.98-9.26 25.57-12.38 2.42-.83 5.03-1.95 7.6-2.05Z" fill="#000"/><g transform="translate(-161 -83)"><path d="M550.3 424.38c22.91-2.41 46.19 7.99 59.51 26.79 8.38 11.53 12.6 25.62 12.34 39.84-.45 10.96-3.32 21.75-8.93 31.21-8.53 14.65-23.03 25.87-39.46 30.13-13.66 3.68-28.41 2.77-41.51-2.57-13.65-5.57-25.24-15.76-32.37-28.67-7.41-12.95-9.7-28.21-7.34-42.87 2.24-13.11 8.51-25.37 17.91-34.79 10.63-10.77 24.77-17.58 39.85-19.07Z" fill="#000"/><path d="M549.26 430.26c15.15-1.85 30.28 1.89 42.62 10.89 15.43 11.05 25 29.84 24.48 48.85.05 22.69-14.12 44.35-34.86 53.52-10.79 4.85-22.81 6.65-34.5 4.52-16.4-2.64-31.49-12.63-40.35-26.67-5.6-8.78-8.74-18.95-9.37-29.32-.6-14.46 4.23-29.16 13.41-40.36 9.45-11.75 23.64-19.57 38.57-21.43Z" fill="#fff"/><path d="M381.24 447.1c12.75-1.33 25.88 1.93 36.49 9.13 12.44 8.34 21.16 21.91 23.47 36.73 1.17 8.18.85 16.9-1.66 24.82-3.88 13.03-12.79 24.38-24.49 31.29-10.44 6.22-22.99 8.89-35.05 7.23-15.79-1.81-30.35-10.99-39.02-24.28-5.54-8.32-8.46-18.03-9.11-27.97-.3-12.31 3.26-24.64 10.57-34.6 9.04-12.53 23.43-20.8 38.8-22.35Z" fill="#000"/><path d="M376.5 453.67c18.86-4.33 39.25 3.64 50.42 19.36 7.92 11.03 11.42 25.76 8.17 39.05-2.03 9.76-7.16 18.79-14.44 25.58-8.03 7.66-18.61 12.28-29.64 13.28-19.88 1.83-39.68-9.53-48.32-27.49-7.78-15.66-6.41-34.9 3.48-49.31 7.02-10.4 18.06-17.87 30.33-20.47Z" fill="#fff"/><path d="M576.41 464.4c5.74-1.68 12.29-1.2 17.67 1.49 9.98 4.7 16.69 17.39 12.92 28.14-2.09 8.4-8.81 15.23-17.18 17.45-6.55 1.67-13.68.8-19.44-2.84-8.89-5.49-13.54-16.73-10.71-26.86 2.08-8.31 8.57-14.91 16.74-17.38ZM408.46 478.49c12.74-1.61 25.04 8.55 25.32 21.49 1.08 12.38-9.26 24.22-21.78 24.29-12.48.61-23.88-9.65-23.87-22.26-.71-11.8 8.69-22.33 20.33-23.52Z" fill="#000"/></g><g transform="translate(-161 -83)"><g fill="#000"><path d="M456.01 380.37c2.26-.07 2.85 1.7 2.65 3.64-.5 4.68-.77 9.78-2.32 14.23-1.33.39-2.66.58-4.03.82-1.12-4.8-.01-10.22.71-15.09.36-1.71.77-3.82 2.99-3.6ZM476.79 386.65c.03 3.21-.36 6.36-.67 9.55 41.69.52 83.32.38 125.01.75 2.13.04 3.96.86 5.89 1.64-.59 1.48-.22 3.83-2.24 4.09-8.05 1.31-16.58.52-24.74.88-17.35.62-34.71.99-52.06 1.53-17.03.2-34.01 1.25-51.05 1.42-3.29.39-6.05-2.72-7.2-5.47.02-4.49 1.02-9.15 2.06-13.5 1.28-2.48 2.83-1.67 5-.89ZM439.84 392.18c-.11 4.87-.05 10.81-2.28 15.24-3.22 1.5-7.12 1.79-10.59 2.47-25.65 4.7-51.32 9.35-76.96 14.09-4.24.69-8.7 2.15-12.99 2.04-2.63-.48-3.33-3.75-.87-5.01 3.2-1.41 6.95-1.74 10.33-2.58 29.1-6.7 58.15-13.59 87.24-20.32.41-1.91.8-3.81 1.27-5.7 1.61-.21 3.23-.24 4.85-.23Z"/></g></g><g transform="translate(-161 -83)"><path d="M517 555.43c13.39-.24 28.69 3.46 38.6 12.98 5.97 5.58 9.72 13.37 9.9 21.58.32 10.21-3.84 19.58-9.89 27.58-9.04 11.85-21.87 20.72-35.47 26.57-7.32 2.84-14.41 5.71-22.15 7.24-16.76 3.21-34.33 1.42-50.03-5.31-13.98-6.01-27.24-14.24-38.31-24.71-5.42-5.3-10.58-11.69-13.28-18.84-2.03-5.48-2.34-11.97 1.22-16.91 3.7-5.37 9.99-7.74 16.18-8.84 12.6-1.77 24.45.42 36.57 3.76 7.36-6.86 15.88-12.06 25.02-16.21 12.99-5.74 27.38-9.28 41.64-8.89Z" fill="#000"/><path d="M542.47 566.35c-3.47 2.67-7.33 4.74-10.83 7.34-4.3 4.07-7.59 10.96-12.77 14.1-5.16.84-10.5-3.32-15.18-1.11-9.25 3.5-18.79 6.01-28.49 7.9-14.14 2.57-29.48 3.77-43.64.89-4.29-1.11-7.12 1.32-11.46 1.88-4.37-4.22-7.53-9.21-12.73-12.59 12.76-5.32 28.76-1.99 41.63 1.51 3.92 1.25 6.04-2.46 8.8-4.48 13.48-10.73 30.18-17.54 47.23-19.85 12.66-1.87 25.64-.74 37.44 4.41Z" fill="#fff"/><path d="M547.96 569.91c7.13 4.29 11.65 12.83 11.82 21.09-.18 7.44-2.97 13.99-6.8 20.24-6.37-2.56-13.17-3.29-19.99-2.88-14.36.89-28.54 4.42-41.91 9.67-9.04 3.64-18.05 8.23-25.74 14.27-3.77 2.98-6.45 6.16-8.76 10.38-7.74-2.15-14.6-5.75-21.53-9.73-9.94-5.85-19.02-12.62-26.5-21.47-3.77-4.64-7.55-10.34-7.78-16.49-.14-2.33.91-4.43 1.72-6.55 5.41 3.65 9.36 8.64 14.22 12.85 4 3.41 9.21-.65 13.75.08 5.81.96 11.66 1.41 17.53 1.74 20.42-.25 40.58-4.31 59.65-11.55 4.16.86 9.89 2.73 13.97 1.05 4.92-2.84 8.62-8.58 12.18-12.91 1.47-1.75 3.81-2.92 5.71-4.17 2.91-1.75 5.48-4.02 8.46-5.62Z" fill="#8F2E45"/><path d="M536 614.18c4.54-.11 8.95.63 13.3 1.9-9.23 11.12-22.42 19.3-35.85 24.38-16.26 6.04-34.23 8.32-51.21 3.94 1.95-2.75 4.09-5.3 6.76-7.39 8.9-7.26 20.21-12.2 30.99-15.97 11.5-3.83 23.86-6.67 36.01-6.86Z" fill="#EA869E"/></g><g transform="translate(-161 -83)"/><g transform="translate(-161 -83)"><path d="M464 199.27c14.7-.99 29.35 2.88 42.56 9.13 14.36 7.28 27.03 17.44 33.33 32.68.94 2.58 1.22 4.93-.73 7.13-1.47.73-3.41.54-5.01.95-3.03 1.03-5.23 3.48-6.47 6.38-2.8 6.28-3.87 13.41-6.1 19.95-2.14 6.98-5.23 13.48-10.18 18.92-12.94 14.24-30.77 24.21-49.42 28.7-14.62 3.6-30.61 3.63-45.02-.92-7.65-2.4-14.09-7.44-18.33-14.22-.78-1.27-.18-3.49 1.55-3.6 4.5-.41 8.77-.47 12.97-2.4 5.81-2.29 9.14-7.75 10.13-13.73 1.02-8.48-.62-15.93-1.51-24.24-1.45-10.46-2.53-21.83-.32-32.23 1.59-7.46 5.07-14.39 10.63-19.67 8.27-8.15 20.5-12.26 31.92-12.83Z" fill="#000"/><path d="M461.97 205.22c13.29-1.46 27.37 1.94 39.52 7.28 14.34 6.57 27.04 15.96 33.62 30.74-5.78 1.27-10.17 4.81-12.51 10.25-4.32 9.88-5.39 21.11-11.12 30.97-3.95 6.61-10.19 12.16-16.28 16.76-17.15 12.78-39.26 20.06-60.69 18.49-9.77-1.17-19.92-2.65-27.16-9.99 3.78-.81 7.36-1.79 10.77-3.65 5.85-3.51 9.66-9.6 10.78-16.28 1.38-11.86-1.12-22.18-2.22-33.79-.78-5.23-.55-10.71-.51-16.05.54-8.52 3.34-17.14 9.57-23.22 6.91-7.09 16.6-10.38 26.23-11.51Z" fill="rgba(14, 14, 14, 1)"/></g></g></svg>