<svg xmlns:dc="http://purl.org/dc/elements/1.1/" xmlns:cc="http://creativecommons.org/ns#" xmlns:rdf="http://www.w3.org/1999/02/22-rdf-syntax-ns#" xmlns:svg="http://www.w3.org/2000/svg" xmlns="http://www.w3.org/2000/svg" viewBox="0 0 762 762" fill="none"><metadata><rdf:RDF><cc:Work><dc:format>image/svg+xml</dc:format><dc:type rdf:resource="http://purl.org/dc/dcmitype/StillImage"/><dc:title>Adventurer</dc:title><dc:creator><cc:Agent><dc:title>Lisa Wischofsky</dc:title></cc:Agent></dc:creator><dc:source>https://www.instagram.com/lischis_adventures/</dc:source><cc:license rdf:resource="https://creativecommons.org/licenses/by/4.0/"/></cc:Work><cc:License rdf:about="https://creativecommons.org/licenses/by/4.0/"><cc:permits rdf:resource="https://creativecommons.org/ns#Reproduction"/><cc:permits rdf:resource="https://creativecommons.org/ns#Distribution"/><cc:permits rdf:resource="https://creativecommons.org/ns#DerivativeWorks"/><cc:requires rdf:resource="https://creativecommons.org/ns#Notice"/><cc:requires rdf:resource="https://creativecommons.org/ns#Attribution"/></cc:License></rdf:RDF></metadata><mask id="avatarsRadiusMask"><rect width="762" height="762" rx="0" ry="0" x="0" y="0" fill="#fff"/></mask><g mask="url(#avatarsRadiusMask)"><path d="M396.01 164.85c37.82 4.9 74.21 19.64 104.8 42.39 6.15 4.84 12.48 9.33 18.02 14.92 23.77 21.98 42.73 49.02 55.13 78.95 9.35 22.31 14.72 46.04 16.64 70.14 6.62.81 13.05 2.14 19.12 5 15.54 6.93 27.08 20.94 31.78 37.21 2.63 9.56 3.56 19.75 1.72 29.55-2.96 18.76-13.72 36.13-29.37 46.92-10.94 7.65-24.49 12.03-37.86 11.68-5.13-.05-10.04-1.6-15.13-1.79-1.85 2.17-3.23 4.84-4.76 7.25-18.66 29.62-44.57 54.51-74.64 72.4-28.1 16.73-59.9 27.16-92.46 30.32-11.08.7-21.87 2.05-32.98.74-51.69-2.3-102.07-23.44-140.15-58.43-29.03-26.55-50.84-60.83-62.54-98.39-7.09-22.85-10.62-46.78-10.07-70.71.52-40.34 12.53-80.58 33.94-114.76 19.1-30.81 45.91-56.58 77.2-74.83 29.63-17.28 63.35-27.68 97.59-29.87 14.66-1.47 29.44-.37 44.02 1.31Z" fill="#000"/><path d="M363 169.06c48.47-1.39 97.32 14.7 135.81 44.12 6.55 4.06 11.72 9.49 17.36 14.64 24.33 22.63 43.2 50.95 54.93 82.02 7.43 19.61 11.86 40.2 13.56 61.09-8.89.74-17.34 2.34-25.38 6.38-2.19 1.03-1.89 4.95.68 5.23 2.35.23 4.98-1.51 7.24-2.2 14.62-5.37 31.32-4.35 44.78 3.68 11.69 6.78 20.09 18.16 23.89 31.06 2.6 8.25 2.68 17.41 1.76 25.95-2.5 17.35-12.35 33.73-26.73 43.81-15.71 11.33-37.17 14.64-54.93 6.2-3.17-1.43-5.94-3.58-9.08-5.05-2.95-1.09-4.88 2.79-2.7 4.75 3.17 2.76 7.34 4.52 11 6.56-20.14 34.15-49.45 62.7-84.41 81.47-30.2 16.31-64.44 25.53-98.78 26.15-27.63.72-55.33-4.04-81.21-13.72-30.32-11.24-57.84-29.43-80.37-52.6-22.67-23.37-39.92-51.88-50.2-82.77-14.96-44.64-14.91-94.01.27-138.59 11.05-33.06 30.28-63.21 55.37-87.39 29.67-28.73 67.65-48.54 108.13-56.67 12.8-2.52 25.94-4.24 39.01-4.12Z" fill="rgba(158, 86, 34, 1)"/><path d="M605.03 404.4c2.63-.1 3.44 3.8 1.36 4.98-3.69 1.83-7.82 2.77-11.64 4.35-5.82 2.04-11.28 4.76-16.68 7.72 4.29 2.34 8.86 4.74 12.71 7.76 2.58 2.09 4.85 4.35 5.33 7.8-.26 3.59-2.73 6.55-5.45 8.69-5.86 4.66-13.92 7.18-20.79 10.26-1.75.62-4.43 1.99-5.59-.26-1.02-1.74-.06-3.11 1.57-3.87 6.65-3.3 14.86-5.62 20.79-10.16 1.37-1.14 3.39-2.74 3.61-4.62-4.07-5.63-12.42-8.59-18.23-12.09-2.34-1.72-2.29-4.24-.16-6.13 7.27-5.64 16.98-9.26 25.57-12.38 2.42-.83 5.03-1.95 7.6-2.05Z" fill="#000"/><g transform="translate(-161 -83)"><path d="M587.369 431.61c12.06 6.36 21.92 16.48 27.94 28.71 5.58-3.45 11.26-6.72 16.83-10.19 1.56-.93 3.14-1.94 4.89-2.46 1.93.56 2.77 1.31 2.72 3.44-.47 1.3-1.75 2-2.83 2.76-6.46 3.95-13.07 7.67-19.41 11.81 6.07 14.16 5.97 31.18.81 45.61-5.25 14.83-16.12 27.57-29.9 35.15-13.07 7.36-28.89 9.8-43.59 7.01-17.87-3.24-34.06-14.37-43.5-29.88-6.26-10.02-9.68-21.74-9.64-33.57-.39-16.27 5.85-32.52 16.82-44.51 9.47-10.42 22.53-17.95 36.46-20.29 14.28-2.79 29.56-.38 42.4 6.41Z" fill="#000"/><path d="M549.2 430.27c14.66-1.79 29.31 1.59 41.46 10.02 11.31 7.71 19.81 19.52 23.46 32.72 3.93 13.37 2.78 28.27-3.06 40.93-6.21 13.86-18.05 25.26-32.25 30.69-9.99 4.03-21.2 5.35-31.81 3.41-16.4-2.64-31.48-12.62-40.35-26.67-5.6-8.78-8.75-18.97-9.37-29.35-.6-14.45 4.24-29.14 13.41-40.34 9.45-11.74 23.58-19.52 38.51-21.41Z" fill="#fff"/><path d="M414.691 454.33c11.57 6.69 20.45 17.75 24.54 30.46 2.68 8.02 3.17 16.86 2.07 25.21-2.04 13.95-9.65 26.85-20.85 35.42-11.38 8.76-26.19 12.83-40.44 10.89-15.79-1.82-30.36-11-39.03-24.29-5.54-8.33-8.47-18.05-9.1-28-.32-7.07 1.17-13.62 2.92-20.39-4.34-2.73-8.65-5.59-12.81-8.6-1.7-1.23-1.83-2.14-1.53-4.17 1.3-1.26 2.74-1.59 4.35-.65 4.19 2.57 8.15 5.53 12.25 8.24 6.69-14.02 19.04-24.86 33.97-29.29 14.45-4.44 30.64-2.5 43.66 5.17Z" fill="#000"/><path d="M378.2 453.3c18.68-3.52 38.38 4.71 49.14 20.33 7.5 10.77 10.85 24.96 7.88 37.84-1.96 10-7.13 19.25-14.57 26.2-8.04 7.66-18.62 12.27-29.65 13.27-20.13 1.85-40.14-9.82-48.62-28.14-7.66-15.97-5.84-35.51 4.6-49.81 7.37-10.31 18.75-17.43 31.22-19.69Z" fill="#fff"/><path d="M526.47 467.49c12.01-2.85 24.87 4.22 29.35 15.63 2.22 6.02 2.33 12.74-.08 18.72-3.17 8.32-10.91 14.59-19.71 15.93-7.62 1.33-15.75-1.14-21.43-6.37-7.55-6.85-10.31-18.03-6.76-27.6 2.92-8.29 10.06-14.42 18.63-16.31ZM398.22 478.36c9.49-1.98 19.61 2.59 24.44 10.99 3.46 5.6 3.67 12.27 2.25 18.54-2.37 7.24-8.51 13.23-15.87 15.27-7.51 2.4-16.26.06-21.98-5.24-7.35-6.81-9.49-18-5.05-27 3.07-6.51 9.18-11.12 16.21-12.56Z" fill="#000"/></g><g transform="translate(-161 -83)"><g fill="#000"><path d="M613.54 401.51c1.59 1.01 1.08 2.86 1.24 4.48-.06 11.34-.05 22.7-.12 34.04.32 2.75-2.42 4.22-4.62 5-39.99 13.74-80.12 27.25-120.05 41.12-2.53.2-2.84-1.75-3.51-3.66-1.63-6-3.3-11.98-5.01-17.95.97 5.75.98 11.66 1.36 17.47-.02 1.44.45 3.94-.99 4.85-1.95 1.4-4.07.13-4.6-2.03-3.64-12.73-7.02-25.58-10.66-38.32-.39-1.83-.65-3.91 1.36-4.88 2.11-.49 3.41.47 4 2.44 1.27 4.55 2.55 9.11 3.68 13.7-.73-5.24-.94-10.49-1.18-15.77-.01-1.27-.14-3.73 1.66-3.79 1.47-.26 2.98-.38 4.43-.72 41.23-11.74 82.37-23.44 123.6-35.22 3.27-.87 6.02-2.08 9.41-.76ZM324 433.87c13.64 1.39 27.36 1.44 41 2.58 21.04 1.05 42.11 2.67 63.14 3.42 7.79.78 15.61 1.12 23.44 1.68 2.77 2.19 1.08 8.08 1.91 11.33.56-2.97.18-6.91 1.92-9.46 2.15-1.8 5.08-.17 4.76 2.56-2.36 14.03-4.77 28.14-7.02 42.18-.8 2.93-4.48 2.56-5.29-.15-.27-4.92-.21-9.89-.28-14.83-1.03 4.29-1.47 8.69-2.47 12.98-.43 1.64-1.17 2.84-3.1 2.4-39.48-6.89-79.4-14.23-118.87-21.29-1.88-.2-2.83-1.46-3.09-3.26-1.45-7.98-2.5-16.04-4.12-23.99-.23-1.72-.74-3.14.56-4.58 2.12-2.29 4.72-1.68 7.51-1.57Z"/></g></g><g transform="translate(-161 -83)"><path d="M462.23 552.76c5.89 1.34 11.98 4.52 15.69 9.38 1.25 2.25.03 5.01-2.77 4.63-2.26-1.24-3.96-3.38-6.13-4.8-4.31-2.87-9.86-4.48-15.03-3.68-2.57.46-5.36 1.6-6.83 3.87-1.53 2.09-1.29 4.76-.4 7.05 1.72 4.44 6 7.87 10.25 9.73 2.3 1.06 5.25 1.28 7.29 2.75 1.69 1.8.58 4.36-1.73 4.78-4.61 1.03-8.66 2.66-11.62 6.51-5.51 6.68-4.73 16.7 1.35 22.74 6.13 6.67 17.21 7.51 24.26 1.85 2.43-1.87 3.59-4.35 5.54-6.58 2.97-1.44 5.07 1.04 3.97 3.91-4.62 9.77-16.97 14.49-27.13 11.4-8.93-2.41-15.86-10.12-17.26-19.27-1.55-9.44 3.19-18.64 11.31-23.48-5.73-2.95-10.81-7.86-12.37-14.28-1.54-5.3.79-11.27 5.45-14.2 4.69-3.25 10.76-3.16 16.16-2.31Z" fill="#000"/></g><g transform="translate(-161 -83)"/><g transform="translate(-161 -83)"><path d="M484 203.33c31.29-2.08 63.42.11 93.86 7.88 21.56 5.49 42.28 13.94 60.91 26.19 23.4-3.86 47.88.89 69.41 10.37 23.12 10.4 43.83 26.51 60.17 45.85 20.85 24.69 35.23 55.1 38.76 87.38.95 12.2.85 25-1.78 36.99-3.78 18.28-12.57 35.32-26.18 48.2-1.82 1.55-3.02 2.25-5.31.99-14.99-8.28-33.71-8.66-49.62-2.89.98 10.55.3 20.85-4.48 30.47-3.28 6.59-8.89 12.66-15.72 15.6-2.72.9-4.6-1.33-3.52-3.92 3.27-8.18 3-16.77 2.8-25.44-.44-7.85-1.2-15.78-2.88-23.46-7.63.85-15.3.3-22.52-2.41-14.89-5.33-27.38-16.81-37.06-29.03-11.73-14.89-20.51-31.76-27.71-49.24-9.49-23.3-16.01-48.04-20.26-72.81-.69-3.84-.89-7.63-2.11-11.36-20.22-1.09-40.52-1.06-60.76-.37-21.77 1.3-43.45 3.39-64.97 6.93-32.55 5.34-65.57 13.27-96.19 25.67-2.58 1.08-5.01 1.84-6.93 4-6.12 6.58-11.48 14.12-16.26 21.73a258.623 258.623 0 0 0-27.01 59.16c-1.07 3.17-1.51 6.79-3.14 9.7-1.4 1.6-3.41 1.03-4.84-.19-12.99-11.2-23.7-25.13-29.72-41.29-4.68-12.69-6.28-26.46-4.45-39.87 2.63-19.03 11.35-36.55 23.18-51.51 18.98-24.07 45.92-42.47 73.52-55.33 34.62-16.21 72.77-25.18 110.81-27.99Z" fill="#000"/><path d="M516.99 208.52c7.67.67 15.35.68 23 1.75 33.2 3.71 67.56 13.49 95.62 32.08.77.48 1.57.87 2.41 1.17 16.25-3.42 33.91-1.59 49.78 2.96 30.6 8.97 57.12 27.97 77.37 52.39 16.77 20.38 29.32 45.13 34.34 71.12 3.13 16.62 3.5 33.55-.67 50.03-3.76 15.64-11.64 30.17-23.15 41.46-15.86-8.13-35.46-8.95-52.2-3.13-2.06.89-5.57 1.75-5.38 4.58 2.09 12.92-.03 27.98-9.67 37.59 1.68-15.13.45-30.63-2.52-45.52-.7-2.94-1.79-3.79-4.91-3.38-8.98 1.36-17.65-.13-25.83-3.94-11.09-5.17-20.71-14.08-28.38-23.49-12.29-15.07-21.65-33.04-28.86-51.04-9.99-25.05-16.61-51.51-20.61-78.15-.54-2.21.24-6.75-2.47-7.6-7.25-.74-14.58-.79-21.85-1.44-13.65.03-27.4-.55-41.01.65-12.68.38-25.4 1.41-38 2.85-26.88 2.95-53.71 7.68-79.89 14.49-19.93 5.25-39.94 11.81-58.66 20.51-11.33 5.32-22.72 11.66-32.4 19.65-6.3 5.29-12.33 11.65-15.53 19.34-.66 1.84-1.64 3.79-.85 5.74 1.79 2.08 4.64 1.44 5.38-1.21 1.99-5.63 5.27-10.27 9.45-14.47 8.11-8.27 18.65-14.73 28.85-20.09-3.96 5.14-7.57 10.45-10.92 16.01-11.9 19.69-21.34 40.94-27.77 63.04-11.05-10.41-20.1-22.43-25.35-36.78-6.99-18.75-5.76-40.16 1.94-58.51 7.92-19.31 22.32-36.42 38.23-49.72 15.57-13.11 33.49-23.75 52-32.14 32.2-14.54 67.35-23.05 102.53-25.87 12.05-.64 23.89-1.8 35.98-.93Z" fill="rgba(171, 42, 24, 1)"/></g></g></svg>