<svg xmlns:dc="http://purl.org/dc/elements/1.1/" xmlns:cc="http://creativecommons.org/ns#" xmlns:rdf="http://www.w3.org/1999/02/22-rdf-syntax-ns#" xmlns:svg="http://www.w3.org/2000/svg" xmlns="http://www.w3.org/2000/svg" viewBox="0 0 762 762" fill="none"><metadata><rdf:RDF><cc:Work><dc:format>image/svg+xml</dc:format><dc:type rdf:resource="http://purl.org/dc/dcmitype/StillImage"/><dc:title>Adventurer</dc:title><dc:creator><cc:Agent><dc:title>Lisa Wischofsky</dc:title></cc:Agent></dc:creator><dc:source>https://www.instagram.com/lischis_adventures/</dc:source><cc:license rdf:resource="https://creativecommons.org/licenses/by/4.0/"/></cc:Work><cc:License rdf:about="https://creativecommons.org/licenses/by/4.0/"><cc:permits rdf:resource="https://creativecommons.org/ns#Reproduction"/><cc:permits rdf:resource="https://creativecommons.org/ns#Distribution"/><cc:permits rdf:resource="https://creativecommons.org/ns#DerivativeWorks"/><cc:requires rdf:resource="https://creativecommons.org/ns#Notice"/><cc:requires rdf:resource="https://creativecommons.org/ns#Attribution"/></cc:License></rdf:RDF></metadata><mask id="avatarsRadiusMask"><rect width="762" height="762" rx="0" ry="0" x="0" y="0" fill="#fff"/></mask><g mask="url(#avatarsRadiusMask)"><path d="M396.01 164.85c37.82 4.9 74.21 19.64 104.8 42.39 6.15 4.84 12.48 9.33 18.02 14.92 23.77 21.98 42.73 49.02 55.13 78.95 9.35 22.31 14.72 46.04 16.64 70.14 6.62.81 13.05 2.14 19.12 5 15.54 6.93 27.08 20.94 31.78 37.21 2.63 9.56 3.56 19.75 1.72 29.55-2.96 18.76-13.72 36.13-29.37 46.92-10.94 7.65-24.49 12.03-37.86 11.68-5.13-.05-10.04-1.6-15.13-1.79-1.85 2.17-3.23 4.84-4.76 7.25-18.66 29.62-44.57 54.51-74.64 72.4-28.1 16.73-59.9 27.16-92.46 30.32-11.08.7-21.87 2.05-32.98.74-51.69-2.3-102.07-23.44-140.15-58.43-29.03-26.55-50.84-60.83-62.54-98.39-7.09-22.85-10.62-46.78-10.07-70.71.52-40.34 12.53-80.58 33.94-114.76 19.1-30.81 45.91-56.58 77.2-74.83 29.63-17.28 63.35-27.68 97.59-29.87 14.66-1.47 29.44-.37 44.02 1.31Z" fill="#000"/><path d="M363 169.06c48.47-1.39 97.32 14.7 135.81 44.12 6.55 4.06 11.72 9.49 17.36 14.64 24.33 22.63 43.2 50.95 54.93 82.02 7.43 19.61 11.86 40.2 13.56 61.09-8.89.74-17.34 2.34-25.38 6.38-2.19 1.03-1.89 4.95.68 5.23 2.35.23 4.98-1.51 7.24-2.2 14.62-5.37 31.32-4.35 44.78 3.68 11.69 6.78 20.09 18.16 23.89 31.06 2.6 8.25 2.68 17.41 1.76 25.95-2.5 17.35-12.35 33.73-26.73 43.81-15.71 11.33-37.17 14.64-54.93 6.2-3.17-1.43-5.94-3.58-9.08-5.05-2.95-1.09-4.88 2.79-2.7 4.75 3.17 2.76 7.34 4.52 11 6.56-20.14 34.15-49.45 62.7-84.41 81.47-30.2 16.31-64.44 25.53-98.78 26.15-27.63.72-55.33-4.04-81.21-13.72-30.32-11.24-57.84-29.43-80.37-52.6-22.67-23.37-39.92-51.88-50.2-82.77-14.96-44.64-14.91-94.01.27-138.59 11.05-33.06 30.28-63.21 55.37-87.39 29.67-28.73 67.65-48.54 108.13-56.67 12.8-2.52 25.94-4.24 39.01-4.12Z" fill="rgba(242, 211, 177, 1)"/><path d="M605.03 404.4c2.63-.1 3.44 3.8 1.36 4.98-3.69 1.83-7.82 2.77-11.64 4.35-5.82 2.04-11.28 4.76-16.68 7.72 4.29 2.34 8.86 4.74 12.71 7.76 2.58 2.09 4.85 4.35 5.33 7.8-.26 3.59-2.73 6.55-5.45 8.69-5.86 4.66-13.92 7.18-20.79 10.26-1.75.62-4.43 1.99-5.59-.26-1.02-1.74-.06-3.11 1.57-3.87 6.65-3.3 14.86-5.62 20.79-10.16 1.37-1.14 3.39-2.74 3.61-4.62-4.07-5.63-12.42-8.59-18.23-12.09-2.34-1.72-2.29-4.24-.16-6.13 7.27-5.64 16.98-9.26 25.57-12.38 2.42-.83 5.03-1.95 7.6-2.05Z" fill="#000"/><g transform="translate(-161 -83)"><path d="M547.51 424.76c18.86-2.87 38.7 3.12 52.85 15.9 11.97 10.64 19.78 25.9 21.39 41.84 1.71 15.31-2.41 31.35-11.25 43.98-7.71 11.16-18.93 19.73-31.67 24.34-12.1 4.21-25.39 4.98-37.82 1.79-17.06-4.16-32.1-15.58-40.76-30.86-13-22.14-11.12-51.53 4.58-71.84 10.24-13.51 25.83-22.9 42.68-25.15Z" fill="#000"/><path d="M549.22 430.26c14.42-1.74 28.8 1.48 40.84 9.62 11.38 7.55 20.01 19.23 23.84 32.34 4.19 13.59 3.12 28.81-2.84 41.72-6.11 13.63-17.66 24.89-31.56 30.42-10.22 4.24-21.57 5.65-32.49 3.68-14.04-2.26-27.16-9.91-36.18-20.89-8.37-10.16-13.06-23.03-13.59-36.15-.3-14.15 4.47-28.34 13.45-39.31 9.46-11.76 23.58-19.54 38.53-21.43Z" fill="#fff"/><path d="M381.2 447.1c13.73-1.44 27.86 2.44 38.86 10.79 11.09 8.32 18.78 20.92 21.08 34.59 1.23 8.34.97 17.27-1.61 25.34-4.45 14.93-15.53 27.6-29.73 33.99-13.38 6.19-29.15 6.58-42.86 1.22-12.89-4.96-23.64-14.96-29.59-27.41-4.7-9.99-6.75-21.7-4.67-32.61 1.84-12.02 7.9-23.26 16.82-31.51 8.64-8.08 19.94-13.17 31.7-14.4Z" fill="#000"/><path d="M378.22 453.3c9.78-1.75 19.88-.54 28.93 3.59 13.18 5.84 23.37 17.71 27.22 31.6 5.15 17-.4 36.49-13.2 48.68-12.66 12.44-32.08 17.22-49 11.63-15.74-4.88-28.38-17.93-32.71-33.83-4.79-16.91.16-35.55 12.57-47.94 7.11-7.13 16.28-11.91 26.19-13.73Z" fill="#fff"/><path d="M558.77 456.74c-3.87 4-6.69 8.52-6.65 14.27-.67 8.63 4.49 17.13 12.5 20.42 5.98 2.45 12.26 1.32 17.64-2.01-.16 9.44-2.85 18.5-9.28 25.58-9.4 10.74-24.98 15.07-38.53 10.43-14.35-4.54-24.66-18.38-24.98-33.42-.48-13.96 7.47-27.4 20.04-33.54 9.2-4.73 19.51-4.72 29.26-1.73ZM391.97 467.88c8-1.43 15.68.54 22.74 4.28-3.02 3.08-5.46 6.31-5.51 10.82-.66 7.23 4.57 14.26 11.76 15.48 3.41.68 6.2-.46 9.41-1.41 1.12 12.27-4.48 24.69-14.77 31.55-11.64 7.9-28.39 6.99-39.25-1.91-9.69-7.58-14.38-20.74-11.76-32.74 2.72-13.31 13.84-24.22 27.38-26.07Z" fill="#000"/><path d="M527.44 489.51c2.29-1 4.8-1.33 6.96.16 3.54 2.29 3.45 7.56.77 10.49-2.67 3.03-7.74 3.21-10.32-.06-2.84-3.42-1.31-8.7 2.59-10.59ZM379.44 495.55c4.76-1.63 9.31 3.59 7.07 8.01-1.61 3.62-6.93 4.37-9.39 1.3-2.61-2.97-1.48-8.01 2.32-9.31ZM536.5 504.69c2.48-.77 5.29-.59 7.77.12 6.15 2.42 8.05 11.23 3.58 16.06-3.97 4.75-11.78 4.84-15.7-.02-4.44-5.37-2.44-13.92 4.35-16.16ZM386.51 512.74c3.42-1.11 7.14-.63 9.61 2.16 3.49 3.38 3.36 9.65-.57 12.65-4.05 3.44-10.78 1.72-13.23-2.86-2.58-4.29-.61-10.32 4.19-11.95Z" fill="#fff"/></g><g transform="translate(-161 -83)"><path d="M582.3 370.69c14.06 7.04 27.75 17.35 36.57 30.53 2.05 2.95-1.4 6.24-4.23 4.15-10.56-6.54-22.24-11.16-34.46-13.42-35.66-6.86-74.47 5.14-98.23 33.03-1.67 2.05-4.03 3.59-6.28 1.25-1.68-2.6-2.27-6.05-3.3-8.95-1.92 4.71-3.86 9.5-6.21 14.02-1.55 3.23-6 1.12-7.03-1.42-3.06-6.88-6.21-13.74-9.02-20.73.01 5.63.01 11.25.04 16.88-.19 2.06.27 4.35-2.11 5.22-2.06.23-4.36-1.03-5.3-2.91-3.26-5.88-6.24-11.93-9.49-17.82.96 5.51 2.6 10.99 3.1 16.55.12 1.94-2.28 3.44-4.02 2.36-18.54-7.4-38.31-11.49-58.33-10.09-12.5.92-26.14 4.63-36 12.68-3.09 2.34-5.2 5.51-7.97 8.15-1.65.72-3.27-.24-4.88-.65.08-1.91.11-3.75.73-5.58 6.86-20.67 20.43-39.8 39.98-50.1 13.56-7.32 30.17-9.03 44.62-3.35 11.89 4.55 20.95 13.32 27.67 23.95 2.31-2.84 4.25-6.03 6.75-8.71 1.62-1.56 4.62-1.55 5.63.72 2.52 5.15 4.68 10.51 6.98 15.78 1.49-7.42 3.06-14.81 4.43-22.24.33-1.5.6-3.23 1.58-4.45 1.65-1.25 2.9-.28 4.65.1.27.86.53 1.71.8 2.56 2.08-4.75 4.75-9.11 8.44-12.78 9.1-9.43 21.82-14.25 34.5-16.48 23.85-3.69 48.86 1.12 70.39 11.75Z" fill="#000"/></g><g transform="translate(-161 -83)"><path d="M521.18 567.25c1.55-.38 3.33-1 4.93-.74 2 .78 2.03 3.01 1.04 4.64-4.12 2.62-10 2.81-14.26 4.89 3.42 13.46 3.76 27.49.01 40.93-3.27 12.19-10.22 24.02-20.72 31.3-7.05 4.98-15.6 7.41-24.21 6.54-11.52-1.1-21.7-8.19-28.53-17.28-9.5-12.6-13.35-27.92-13.48-43.53.34-5.62.98-11.21 2.11-16.73-2.4-.78-5.59-1.13-7.5-2.84-.56-1.23-.2-2.85-.25-4.18 4.52-.02 8.3 1.66 12.66 2.56 29.55 5.95 59.49 3.04 88.2-5.56Z" fill="#000"/><path d="M506.94 577.11c5.23 17.71 3.27 38.43-6.69 54.17-4.13 6.48-9.68 11.96-16.73 15.17-7.99 3.73-17.56 3.43-25.4-.56-8.06-4.01-14.57-11.41-18.7-19.31-7.58-14.67-9.44-32.01-5.52-48.03 10.46 2.49 21.07 3.05 31.77 3.27-1 6.74-.96 13.39-1.18 20.18.01 1.91-.16 4.09.49 5.92 1.1 1.71 4.66 1.2 4.76-1.06.58-8.41-.13-16.75 1.51-25.13 11.98-.25 23.98-2.21 35.69-4.62Z" fill="#EA869E"/></g><g transform="translate(-161 -83)"/><g transform="translate(-161 -83)"><path d="M558.951 229.03c42.79 5.47 86.55 16.98 124.87 37.14 25.87 13.7 50.73 32.25 67.08 56.9 4.03 5.76 5.84 12.02 8.5 18.42 4.82 11.93 7.66 24.08 10.94 36.48 8.15 31 18.05 61.58 29.08 91.67 12.75 34.88 27.1 69.13 43.48 102.47 1.38 2.89 3.07 5.61 4.58 8.44.79 1.29.95 2.64-.07 3.87-4.2 5.3-10.21 9.55-15.88 13.17-12.36 7.78-26.12 13.86-39.74 19.06-17.53 6.75-35.51 12.03-53.78 16.4-19.33 4.41-39.19 8.1-59.01 9.27-3.88.27-7.08 1.24-10.63-.99.44-2.51.4-4.67 2.51-6.43 5.57-5.07 11.11-10.17 16.19-15.75-20.68 10.84-42.26 20.23-64.53 27.32-2.9.78-6.51 2.34-9.5 1.63-1.91-.9-2.18-2.76-1.41-4.57 8.68-19.2 12.22-41.76 15.07-62.52 2.75-23.29 4.35-46.56 4.27-70.01.17-18.2-.06-36.52-1.73-54.65-37.54-3.85-74.6-14.97-108.79-30.81-24.29-11.44-48.04-25.91-68.03-43.92-8.73-7.82-16.61-16.49-23.4-26.05-1.18 9.47-.96 18.92-.91 28.43.04 3.6.31 7.14 1.33 10.62.3 1.71 1.19 3.24-.05 4.78-1.13 1.71-3.72 1.12-5.36.59-13.04-4.41-23.45-13.85-30.45-25.57-7.23-12.18-10.64-26.3-10.09-40.44-12.51 9.15-22.51 20.24-32.34 32.12-12.23 14.92-23.97 31.11-32.67 48.37-1.41 2.75-2.68 5.53-3.37 8.56-10.56 47.51-4.58 98.34 16.78 142.08 16.83 34.93 43.23 65.08 75.57 86.46 1.23.82 2.49 1.63 3.58 2.62.7 1.71.91 3.01-.43 4.47-2.39 1.45-5.35 2.07-7.99 2.95-21.93 6.94-44.06 13.5-65.68 21.35-21.93 7.99-43.23 17.6-65.19 25.49-1.48-.94-2.4-1.89-3.38-3.35 3.59-7.74 9.35-14.05 12.51-22.1 9.79-24.32 9.99-51.18 9.35-77-.01-14.72-1.27-29.31-1.91-44-1.4-21.67-2.62-43.28-3.34-64.99-.54-27.33-2.12-55.73-.08-83.02 1.38-22.02 5.38-44.24 13.1-64.95 2.93-8.14 7.28-15.5 13.27-21.76 4.93-5.04 9.88-10.17 15.26-14.73 5.27-4.53 10.94-8.33 16.41-12.67 15.83-12.45 31.02-25.71 47-37.98 15.54-12.15 32.73-23.31 50.98-30.93 6.82-2.61 13.75-4.55 21.11-4.62 32.31-2.3 64.79-1.35 96.92 2.68Z" fill="#000"/><path d="M512.029 231.18c48.03 1.54 97.38 9.85 142.16 27.69 20.17 8.07 40 18.43 57.36 31.56 13.45 10.21 26.05 22.58 35.21 36.82 2.92 4.41 5.03 9.23 6.66 14.24 2.52 7.89 5.94 15.35 7.68 23.5 8.47 35.02 19.38 69.33 31.6 103.22 13.41 36.54 28.2 72.75 45.58 107.6 1.05 2.22 2.24 4.32 3.6 6.37-6.44 6.13-13.67 11.04-21.5 15.2-21.42 11.5-45.25 19.7-68.65 26.14-24.31 6.64-49.09 11.35-74.24 13.22 7.93-7.18 15.43-14.78 22.24-23.02 1.37-1.68 2.86-3.16 4.75-4.25 6.22-3.65 12.3-7.57 18.14-11.81 1.4-.95 2.15-2.33 3.08-3.71-1.18-1.25-1.77-2.49-3.73-2.44-2.92 1.32-5.48 3.54-8.17 5.28-10.55 7.05-21.68 13.26-32.94 19.1-19.85 10-40.54 19.11-61.85 25.54 5.54-14.49 8.81-30.13 11.3-45.41 3.94-24.86 5.79-49.85 6.47-74.99.48-33.68-.48-66.73-5.93-100.04-.27-1.55-.85-3.63-2.85-3.38-2.95-.22-3.12 2.38-2.78 4.6 1.55 9.43 2.75 18.91 3.56 28.44-34.23-4.03-67.73-13.41-99.24-27.36-21.3-9.47-42-21.12-60.52-35.32-11.48-8.87-22.5-19.07-31.33-30.62-2.43-3.12-4.16-6.25-7.22-8.83-1.3-1.38-2.8-1.09-4.48-.69-1.95 2.03-2.29 4.48-2.59 7.15-1.46 12.71-1.86 25.75-.17 38.45-7.28-2.8-13.78-7.98-18.83-13.86-17.36-20.53-20.44-52.48-6.43-75.59 1.17-1.88 1.48-4.26-.83-5.38-2.29-.27-2.93.74-4.12 2.4-5.14 8.19-7.77 17.21-9.21 26.71-12.46 7.4-23.07 18.7-32.67 29.44-9.12 10.63-17.7 21.78-25.43 33.47-9.83 14.73-17.74 30.79-23.36 47.59-1.76 5.81-3.42 11.82-4.08 17.85-.05 2.91 2.91 4.18 5.05 2.21.64-1.59 1.02-3.3 1.51-4.94-3.08 41.61 5.55 83.86 25.08 120.75 17.09 32.57 42.33 60.79 72.8 81.38-25.22 8.11-51.64 15.73-76.72 25.43-16.32 6.22-32.23 13.34-48.45 19.81 4.74-7.11 8.92-14.47 11.33-22.74 8.19-25.28 7.62-51.75 7.15-77.99-.85-11.32-.8-22.66-1.75-33.97-.75-10.33-.93-20.7-1.9-31.01-.66-12.99-1.05-26-1.75-38.99-.68-23.33-.6-46.66-.53-70 .54-22.17 3.54-44.45 9.66-65.79 1.65-5.86 4.4-11.15 6.94-16.65 4.07-8.32 10.29-13.78 16.67-20.2 5.83-5.99 12.45-10.93 19.16-15.86 27.33-20.89 53.74-46.31 83.8-63.19 7.25-4.11 14.64-7.79 22.72-10 7.3-2.15 14.41-2.29 21.96-2.69 13.64-.78 27.36-.5 41.03-.44Z" fill="rgba(89, 36, 84, 1)"/></g></g></svg>