<svg xmlns:dc="http://purl.org/dc/elements/1.1/" xmlns:cc="http://creativecommons.org/ns#" xmlns:rdf="http://www.w3.org/1999/02/22-rdf-syntax-ns#" xmlns:svg="http://www.w3.org/2000/svg" xmlns="http://www.w3.org/2000/svg" viewBox="0 0 762 762" fill="none"><metadata><rdf:RDF><cc:Work><dc:format>image/svg+xml</dc:format><dc:type rdf:resource="http://purl.org/dc/dcmitype/StillImage"/><dc:title>Adventurer</dc:title><dc:creator><cc:Agent><dc:title>Lisa Wischofsky</dc:title></cc:Agent></dc:creator><dc:source>https://www.instagram.com/lischis_adventures/</dc:source><cc:license rdf:resource="https://creativecommons.org/licenses/by/4.0/"/></cc:Work><cc:License rdf:about="https://creativecommons.org/licenses/by/4.0/"><cc:permits rdf:resource="https://creativecommons.org/ns#Reproduction"/><cc:permits rdf:resource="https://creativecommons.org/ns#Distribution"/><cc:permits rdf:resource="https://creativecommons.org/ns#DerivativeWorks"/><cc:requires rdf:resource="https://creativecommons.org/ns#Notice"/><cc:requires rdf:resource="https://creativecommons.org/ns#Attribution"/></cc:License></rdf:RDF></metadata><mask id="avatarsRadiusMask"><rect width="762" height="762" rx="0" ry="0" x="0" y="0" fill="#fff"/></mask><g mask="url(#avatarsRadiusMask)"><path d="M396.01 164.85c37.82 4.9 74.21 19.64 104.8 42.39 6.15 4.84 12.48 9.33 18.02 14.92 23.77 21.98 42.73 49.02 55.13 78.95 9.35 22.31 14.72 46.04 16.64 70.14 6.62.81 13.05 2.14 19.12 5 15.54 6.93 27.08 20.94 31.78 37.21 2.63 9.56 3.56 19.75 1.72 29.55-2.96 18.76-13.72 36.13-29.37 46.92-10.94 7.65-24.49 12.03-37.86 11.68-5.13-.05-10.04-1.6-15.13-1.79-1.85 2.17-3.23 4.84-4.76 7.25-18.66 29.62-44.57 54.51-74.64 72.4-28.1 16.73-59.9 27.16-92.46 30.32-11.08.7-21.87 2.05-32.98.74-51.69-2.3-102.07-23.44-140.15-58.43-29.03-26.55-50.84-60.83-62.54-98.39-7.09-22.85-10.62-46.78-10.07-70.71.52-40.34 12.53-80.58 33.94-114.76 19.1-30.81 45.91-56.58 77.2-74.83 29.63-17.28 63.35-27.68 97.59-29.87 14.66-1.47 29.44-.37 44.02 1.31Z" fill="#000"/><path d="M363 169.06c48.47-1.39 97.32 14.7 135.81 44.12 6.55 4.06 11.72 9.49 17.36 14.64 24.33 22.63 43.2 50.95 54.93 82.02 7.43 19.61 11.86 40.2 13.56 61.09-8.89.74-17.34 2.34-25.38 6.38-2.19 1.03-1.89 4.95.68 5.23 2.35.23 4.98-1.51 7.24-2.2 14.62-5.37 31.32-4.35 44.78 3.68 11.69 6.78 20.09 18.16 23.89 31.06 2.6 8.25 2.68 17.41 1.76 25.95-2.5 17.35-12.35 33.73-26.73 43.81-15.71 11.33-37.17 14.64-54.93 6.2-3.17-1.43-5.94-3.58-9.08-5.05-2.95-1.09-4.88 2.79-2.7 4.75 3.17 2.76 7.34 4.52 11 6.56-20.14 34.15-49.45 62.7-84.41 81.47-30.2 16.31-64.44 25.53-98.78 26.15-27.63.72-55.33-4.04-81.21-13.72-30.32-11.24-57.84-29.43-80.37-52.6-22.67-23.37-39.92-51.88-50.2-82.77-14.96-44.64-14.91-94.01.27-138.59 11.05-33.06 30.28-63.21 55.37-87.39 29.67-28.73 67.65-48.54 108.13-56.67 12.8-2.52 25.94-4.24 39.01-4.12Z" fill="rgba(118, 57, 0, 1)"/><path d="M605.03 404.4c2.63-.1 3.44 3.8 1.36 4.98-3.69 1.83-7.82 2.77-11.64 4.35-5.82 2.04-11.28 4.76-16.68 7.72 4.29 2.34 8.86 4.74 12.71 7.76 2.58 2.09 4.85 4.35 5.33 7.8-.26 3.59-2.73 6.55-5.45 8.69-5.86 4.66-13.92 7.18-20.79 10.26-1.75.62-4.43 1.99-5.59-.26-1.02-1.74-.06-3.11 1.57-3.87 6.65-3.3 14.86-5.62 20.79-10.16 1.37-1.14 3.39-2.74 3.61-4.62-4.07-5.63-12.42-8.59-18.23-12.09-2.34-1.72-2.29-4.24-.16-6.13 7.27-5.64 16.98-9.26 25.57-12.38 2.42-.83 5.03-1.95 7.6-2.05Z" fill="#000"/><g transform="translate(-161 -83)"><path fill-rule="evenodd" clip-rule="evenodd" d="M612.99 456.04c-8.4-14.32-22.44-25.12-38.46-29.54-12.78-3.63-26.45-3.13-39.02 1.1-15.79 5.52-29.25 17.14-36.82 32.08-3.28 6.32-5.17 13.09-6.5 20.06-4.4.35-8.76.83-13.04 1.93.188.504.294 1.03.396 1.539.273 1.36.52 2.594 2.244 2.921 2.35.223 4.762 0 7.146-.221.924-.085 1.844-.17 2.754-.229-.56 12.87 2.24 25.63 8.92 36.7 8.71 14.98 23.61 26.14 40.45 30.25 12.14 3.08 25.13 2.44 36.99-1.54 13.99-4.82 26.18-14.48 34.04-27.01 6.48-10.16 9.83-22.06 10.06-34.07.056-3.789-.398-7.446-.857-11.15-.12-.969-.241-1.942-.353-2.92.945-.109 1.903-.19 2.865-.271 2.307-.196 4.636-.393 6.845-.979 1.193-.461 1.438-1.638 1.68-2.801.099-.476.198-.948.36-1.369-4.39-1.13-8.7-.78-13.15-.28-.506-1.176-.99-2.354-1.473-3.528-1.498-3.645-2.981-7.253-5.077-10.672Zm.59 14.63c-4.82-13.64-13.95-25.42-26.54-32.68-13.32-7.97-29.57-10.1-44.6-6.46-14.55 3.64-27.43 12.73-35.54 25.37-4.25 6.79-7.73 14.51-8.83 22.5 5.954-.657 11.92-1.07 17.887-1.483 4.846-.335 9.693-.671 14.533-1.137 3.632-.325 7.273-.513 10.912-.701 4.858-.251 9.713-.501 14.538-1.079 16.386-1.117 32.786-2.395 49.169-3.671l8.471-.659Zm-200.2-17.09c11.97 6.48 20.98 17.39 25.57 30.15 2.69.16 5.36.38 8.03.75-.037.232-.071.462-.106.691-.156 1.028-.308 2.037-.594 3.059-1.042.76-2.471 1.03-3.832 1.287-.572.108-1.133.214-1.648.353 1.33 8.86 1.68 17.54-.78 26.25-3.51 13.23-12.13 24.91-23.71 32.19-10.65 6.72-23.58 9.67-36.09 8.03-16.11-1.81-30.98-11.25-39.64-24.94-6.25-9.68-8.98-21.04-8.76-32.5-2.42-.02-4.82-.1-7.23-.28.077-.367.111-.817.148-1.292.097-1.258.208-2.697 1.152-3.278 1.541-.487 3.188-.684 4.814-.877.61-.073 1.218-.146 1.816-.233 1.39-6.54 3.35-12.87 6.78-18.66 7.75-13.54 21.36-23.31 36.66-26.37 12.6-2.59 26.16-.54 37.42 5.67Zm19.769 30.83c-7.08-18.81-25.97-32.08-46.15-31.86-18.18-.19-35.6 10.43-43.83 26.64-2.2 4.2-3.57 8.69-4.72 13.28 7.002-.467 13.996-1.08 20.99-1.693 6.191-.543 12.382-1.086 18.58-1.527 3.774-.088 7.516-.469 11.258-.851 3.893-.396 7.786-.793 11.712-.859 2.094-.16 4.191-.308 6.29-.456 8.655-.612 17.331-1.225 25.87-2.674Z" fill="#000"/><path d="M615.13 476.4c1.79 9.43 1.83 19.44-.85 28.71-4.02 14.67-13.78 27.56-26.86 35.34-11.86 6.95-25.9 9.98-39.53 7.74-16.06-2.38-30.89-11.65-40.06-25.03-7.65-11.07-11.16-24.46-10.6-37.86 2.78-.26 5.55-.53 8.32-.81.58 6.88 2.87 13.16 8.11 17.84 9.26 8.79 25.12 8.57 33.95-.73 5.71-5.52 7.56-12.65 7.15-20.42 4.5-.49 8.95-1.09 13.47-1.39 15.64-.93 31.25-2.54 46.9-3.39ZM430.931 490.81c1.23-.4 2.51-.66 3.76-.97 3.28 11.9 1.31 24.64-4.45 35.44-6.94 12.82-19.63 22.19-33.98 24.89-17.42 3.66-36.18-3.36-47.37-17.1-8.08-9.7-11.83-22.11-11.18-34.67 16.43-1.61 32.94-2.6 49.35-4.39.17 5.54 1.15 10.77 4.71 15.18 5.35 7.13 14.85 10.26 23.42 7.93 7.1-2.26 13-7.85 15.04-15.09 1.18-3.82.53-7.36.7-11.22Z" fill="#fff"/></g><g transform="translate(-161 -83)"><g fill="#000"><path d="M456.01 380.37c2.26-.07 2.85 1.7 2.65 3.64-.5 4.68-.77 9.78-2.32 14.23-1.33.39-2.66.58-4.03.82-1.12-4.8-.01-10.22.71-15.09.36-1.71.77-3.82 2.99-3.6ZM476.79 386.65c.03 3.21-.36 6.36-.67 9.55 41.69.52 83.32.38 125.01.75 2.13.04 3.96.86 5.89 1.64-.59 1.48-.22 3.83-2.24 4.09-8.05 1.31-16.58.52-24.74.88-17.35.62-34.71.99-52.06 1.53-17.03.2-34.01 1.25-51.05 1.42-3.29.39-6.05-2.72-7.2-5.47.02-4.49 1.02-9.15 2.06-13.5 1.28-2.48 2.83-1.67 5-.89ZM439.84 392.18c-.11 4.87-.05 10.81-2.28 15.24-3.22 1.5-7.12 1.79-10.59 2.47-25.65 4.7-51.32 9.35-76.96 14.09-4.24.69-8.7 2.15-12.99 2.04-2.63-.48-3.33-3.75-.87-5.01 3.2-1.41 6.95-1.74 10.33-2.58 29.1-6.7 58.15-13.59 87.24-20.32.41-1.91.8-3.81 1.27-5.7 1.61-.21 3.23-.24 4.85-.23Z"/></g></g><g transform="translate(-161 -83)"><path d="M469.99 539.64c9.45-.62 18.37 5.2 25.18 11.18 9.61 8.8 17.31 20.09 23.54 31.49 12.62 23.56 20.84 50.09 23.56 76.68.49 4.4 1.53 8.68-2.43 11.86-7.32 3.5-15.84 4.95-23.84 6.01-15.97 1.38-32.52-.85-47.99-4.85-2.36-.75-4.53-.89-5.44-3.57-9.45-20.8-15.71-43.16-17.97-65.91-1.01-12.34-1.07-24.91 1.8-37.02 1.62-6.56 4.25-13.27 8.72-18.42 3.72-4.29 9.1-7.4 14.87-7.45Z" fill="#000"/><path d="M474.49 545.63c9.4 2.08 17.07 9.35 23.35 16.25-13.95 5.98-30.91 9.6-45.86 5.81 1.27-6.17 3.77-12.91 8.25-17.49 3.61-3.79 9.07-5.91 14.26-4.57Z" fill="#fff"/><path d="M501.86 566.88c12.64 16.83 21.52 36.66 27.44 56.79-6.29 1.3-11.94 3.96-17.5 7.1-11.57 6.75-22.43 15.88-30.04 26.97-2.28 3.53-4.69 6.5-4.54 10.94-2.97-.77-5.95-1.45-8.96-2.06-8.42-17.85-13.97-37.13-16.92-56.63-1.6-12.46-2.48-24.55-.38-37.02 5.4 1.04 10.5 2.3 16.05 1.94 5.01-.39 10.05-.95 14.99-1.89 6.9-1.27 13.26-3.89 19.86-6.14Z" fill="#8F2E45"/><path d="M527.55 629.64c1.49-.65 2.4.12 3.76.63 2.74 11.73 5.07 23.49 5.63 35.56-7.95 3.25-16.19 4.63-24.68 5.56-10.48.94-20.25-.66-30.6-1.81 4.52-9.01 10.37-16.33 17.9-23 8.13-7.09 17.68-13.56 27.99-16.94Z" fill="#EA869E"/></g><g transform="translate(-161 -83)"/><g transform="translate(-161 -83)"><path d="M710 136.07c13.24.24 26.31 5 36.52 13.46 1.21.98.91 2.91.06 4.06-1.68 1.03-3.69.41-5.59.35-5.65-.69-11.55.5-16.98 2.04-12.91 4-23.14 12.48-31.39 22.98 6.62-2.05 13.43-3.29 20.38-3.09 16.88.57 32.84 6.13 47.21 14.82 18.32 11.01 34.24 27.37 43.43 46.77 5.27 11.65 8.47 25.7 5.14 38.31-2.2 9.36-8.08 17.65-16.18 22.84-6.59 4.38-13.96 6.17-21.69 7.32 3.32 5.51 7 10.6 9.72 16.46 8.04 16.74 11.45 36.25 13.37 54.6.41 7.32.97 14.68 1.12 22.01-.55 10.16-.34 20-1.94 30.01-1.12 10.04-2.97 20.24-6.34 29.78-1.4 3.58-3.49 8.17-6.96 10.17-1.69 1.04-3.31-.29-4.82-1.01-8.3-5-18.1-7.98-27.83-7.83-.65 8.95-2.4 17.69-6.25 25.84-6.78 14.8-19.55 27.14-35.47 31.42-8.59 2.46-16.87 2.15-25.38-.38-2.04-.61-2.26-3.3-.64-4.51 2.68-2.35 5.58-4.22 7.77-7.1 8.39-10.46 13.01-24.19 14.59-37.38.84-9.95.76-21.37-4.69-30.14-1.66-2.86-4.4-4.04-6.58-6.33-.96-7.17-2.25-14.12-5.56-20.65-.97-2.35-2.76-4.66-1.35-7.22 1.6-3.26 3.65-6.32 5.49-9.46-3.46.37-6.58.53-9.29-2.02-5.15-4.91-8.49-12.05-10.29-18.85-1.17-4.41-3.25-8.8-3.76-13.33-.08-1.5.97-2.33 2.31-2.63 4.29-1.15 7.64-3.52 11.39-5.87 3.81-2.49 6.27-6.03 8.63-9.84-8.05.83-16.4.9-24.37-.59-10.85-2.17-19.93-7.21-29.66-12.17-4.69-2.61-9.12-4.82-11.86-9.69-10.78-2.65-21.55-5.27-32.22-8.35-17.6-4.85-34.63-10.57-53.04-11.33-16.11-.8-32.51 1.38-48.21 4.96-4.73 1-8.77 3.17-12.67 5.94l-2.67-1.38c.41-6.97 4.56-13.87 7.67-20-7.67 5.81-14.89 12.66-20.58 20.44-1.42 1.85-2.31 4.44-4 5.99-4.52 1.37-9.83.66-14.54.85-6.74.17-13.37-.63-20.07-1.04-6.19 1.86-11.99 5.3-18.07 7.56-13.36 5.04-27.07 7.99-41.33 5.23-3.68 3.89-7.04 7.95-10.11 12.34-7.81 11.18-14.82 22.89-20.91 35.1-6.07 11.54-9.84 23.62-13.9 35.96-1.37 4.85-1.94 9.87-3.31 14.73-1.13 3.95-1.29 8.03-2.03 12.04-2.22 2.37-6.51 2.96-9.33 4.68-8.18 4.56-15.12 11.87-20.67 19.34-7 9.62-12.85 20.82-15.26 32.54-.83 3.78-.5 7.48-.83 11.28-1.32 2.17-4.1 2.43-5.3.01-3.77-8.32-5.02-18.04-5.03-27.11.79-36.46 25.5-71.26 58.99-85.24-3.96-10.03-5.25-21.05-5.62-31.76-.47-10.63 1.6-20.68 3.7-31.02 2.92-12.75 7.5-25.03 15.02-35.81-6.42-1.12-12.34-3.39-16.99-8.12-7.72-7.59-10.19-17.56-10.82-28.05-.1-15.17 4.83-29.99 13.44-42.43 7.37-10.62 17.27-19.22 29.66-23.37 4.28-10.87 11.41-20.26 21.35-26.51 2.78-1.29 4.53-.47 5.85 2.17-1.59 4.44-2.38 8.51-2.63 13.24 6.06-4.32 12.94-6.47 20.16-7.88 10.58-2.31 22.01-1.74 32.35 1.42 8.19 2.84 16.56 8.86 19.97 17.09 3.72 7.78 3.18 17.56.27 25.52 16.58-4.98 34.1-8.19 51.45-7.69 10.21.01 20.53 1.25 30.36 4.05 6.91 1.86 13.54 5.68 19.64 9.38 3.03 1.77 5.19 4.13 7.08 7.04 18.97-6.26 38.97-9.12 58.93-8.11 10.32.59 20.63 2.74 30.57 5.53-1.71-4.19-3.11-8.47-3.84-12.95-2.28-11.66-.07-24.27 4.68-35.06 11.9-26.99 40.99-45.65 70.58-44.37Z" fill="#000"/><path d="M734.401 148.17c-16.04 1.07-30.95 9.91-41.59 21.65-17.71 19.52-25.76 47.45-19.11 73.21-8.69-4.65-17.76-8.81-27.11-11.92-4.55-7.56-7.05-16.26-6.84-25.11-.21-14.87 6.18-29.28 15.94-40.29 11.88-13.49 29.28-22.62 47.3-23.79 10.84-.95 21.74 1.27 31.41 6.25ZM362.87 174.96c-1.84 8.37-.76 16.47.06 24.85.69 8.34 3.06 16.76 5.61 24.7 2.72 8.97 8.47 17.4 13.62 25.2-1.29 1.61-2.42 4.14-4.39 4.96-5.84 2.7-11.59 5.56-17.04 9.02-4.27-2.03-7.61-5.28-10.35-9.08-4.99-7.95-7.69-17.22-7.81-26.61-.52-14.2 3.18-28.85 10.24-41.19 2.57-4.66 6.25-8.22 10.06-11.85Z" fill="rgba(106, 78, 53, 1)"/><path d="M404.001 178.78c8.4.2 16.5 1.88 23.36 6.96 4.73 3.18 7.86 7.78 9.32 13.26 2.07 7.36.52 14.84-3.23 21.35-12.48 4.24-25.88 8.9-37.05 15.96-4.04 2.44-7.53 5.52-10.78 8.92-4.76-6.99-9.51-14.57-11.91-22.74-3.33-10.58-5.66-21.23-5.66-32.38 2.74-2.49 4.97-5.03 8.49-6.47 8.66-3.64 18.08-5.37 27.46-4.86ZM764.53 200.49c15.71 11.23 29.31 26.77 36.12 45.01 3.12 8.1 4.28 16.89 3.17 25.51-1.21 9.14-6.42 17.62-14.22 22.6-6.57 4.24-14.94 6.67-22.76 6.48-2.52-2.13-4.53-4.77-7.24-6.73-10.48-8.08-22.99-13.92-34.4-20.67-14.78-8.2-29.09-17.25-43.86-25.47-7.8-18.71-4.23-41.47 5.26-58.93 6.52-3.8 13.64-6.1 21.22-6.39 19.95-1.35 40.7 7.15 56.71 18.59ZM340.61 200.33c-5.04 16.86-6.01 36.79 2.33 52.77 2.66 5.92 7.11 10.48 12.27 14.3-8.98 6.05-16.66 13.53-23.29 22.07-4.39-.4-8.5-.68-12.34-3.05-7.61-4.37-11.36-12.31-12.96-20.64-2.08-13.67 1.18-27.44 7.72-39.48 5.39-9.84 13.46-19.12 23.45-24.46.94-.51 1.87-1.01 2.82-1.51ZM503.959 217.04c6.11.36 12.13 1.53 17.99 3.26 5.63 1.57 11.09 4.69 16.18 7.56 2.36 1.29 4.26 3.07 6.09 5.01-7.57 3.32-14.98 6.87-21.87 11.47-13.74 9.11-25.18 20.91-34.61 34.39-1.71.52-3.35 1.05-4.8 2.13-11.52 7.87-22.38 18.04-29.59 30.07-9.41.52-18.95.19-28.3-1.05-9.76-1.03-20.34-3.08-28.83-8.24-6.48-3.82-11.59-10.08-15.34-16.52-1.41-2.17-1.67-5.83-3.87-7.26-2.44-.79-4.08 1.66-3.55 3.9 1.2 5.79 5.45 11.19 9.13 15.68 7.5 8.97 18.18 13.96 29.49 16.15-11.65 5.12-23.23 9.22-36.07 9.93-7.96.24-15.83-1.21-22.06-6.46-3.72-2.65-5.85-6.38-8.88-9.66-2.57 1.27-3.57 2.44-2.58 5.38 2.8 5.58 8.97 9.83 14.19 13.01-5.77 6.62-10.89 13.84-15.66 21.22-8.32 13.3-16.1 27.39-21.9 41.98-3.89-12.65-4.68-25.86-3.69-39 1.95-14.44 4.84-28.22 11.25-41.41a108.3 108.3 0 0 1 20.43-27.47c8.14-7.57 17.26-13.91 27.18-18.93.61 1.55.89 2.58 2.59 3.15 2.86-.25 3.57-2.44 4.94-4.52 4.1-7.17 8.75-13.67 15.69-18.34 8.01-5.44 17.23-9.29 26.29-12.62 25.05-9.27 53.35-16.26 80.16-12.81Z" fill="rgba(106, 78, 53, 1)"/><path d="M583.02 229.46c10.71-1.57 21.23-.99 31.99-.58 25.87 3.58 48.38 14.37 70.68 27.4 16.77 9.98 33.62 19.88 50.7 29.3 7.05 3.99 13.87 7.68 20.24 12.77 4.73 3.78 8.27 9.46 11.57 14.46 11.4 15.37 16.04 35.55 18.85 54.15 2.32 18.47 3.16 36.97 1.07 55.51-.65 8.18-1.64 16.51-3.53 24.5-1.35 5.98-2.77 11.67-6.3 16.79-9.26-5.87-20.31-9.31-31.31-9.16-.64-16.96-8.52-34.08-22.55-44.03-1.58-1.33-4.41-1.47-5.01.88-.71 2.66 1.52 3.45 3.14 4.97 8.58 6.54 14.31 16.46 17.01 26.8 6.09 22.99-2.99 49.92-23.16 63.07-8.5 5.65-18.19 7.59-28.3 6.76 11.45-11.72 17.49-28.01 19.39-44.06 1.01-6.99.87-14.09-.55-21.02-1.4-7.88-4.65-15.19-11.46-19.84-1.03-6.66-2.48-13.13-5.37-19.26-.51-1.5-1.59-2.81-.6-4.34 2.3-4.14 5.52-8.46 6.93-13.01.49-1.89-.24-4.37-2.43-4.7-2.98-.51-5.99 2.25-8.86 1.94-2.28-.98-3.94-3.68-5.24-5.7-4.23-6.51-4.97-13.3-7.83-20.73 5.2-3.17 11.54-6.11 15.53-10.74 3.03-3.34 4.96-7.17 6.92-11.18 12.03-2.49 22.51-9.09 30.18-18.64 1.31-1.7.7-4.52-1.73-4.54-1.89-.32-2.95 1.5-4.17 2.6-4.12 4.43-8.55 8.32-14.06 10.94-11.32 5.6-24.38 6.57-36.78 5.21-11.83-1.63-21.39-6.86-31.88-12.1-1.85-.97-3.61-2.07-5.38-3.19 6.7 1.35 13.47 2.05 20.27 2.59 11.12.98 22.49-.12 33.58-1.03 2.89-.36 2.75-2.12 2.96-4.55-2.2-.61-4.26-1.1-6.57-.82-11.36.83-22.64 1.53-34.01.34-23.1-2.28-46.78-9.57-69.15-15.79-17.69-5.12-35.26-8.8-53.8-7.66-13.99.86-27.98 3.33-41.67 6.28.31-1.79.74-3.44 1.69-5.02 9.83-17.03 22.32-32.16 38.33-43.73 17.97-12.7 38.9-19.48 60.67-21.84ZM315.949 399.62c-1.71 5.5-4.05 10.6-4.98 16.35-1.06 6.39-3.51 12.25-3.76 18.8-6.6 2.41-12.54 5.98-17.66 10.79-12.91 11.96-22.7 27.69-27.44 44.64-.47-5.41-.71-10.78-.3-16.21 3.11-31.89 24.67-61.71 54.14-74.37Z" fill="rgba(106, 78, 53, 1)"/><path d="M726.49 578.08c4.4.81 9.05.53 13.51.78 6.37.29 12.05-1.36 18.11-3 1.75-.5 3.08-.62 4.71.32 4.13 2.29 7.33 6.43 9.44 10.58 3.81 7.66 3.97 16.13 2.95 24.46-2.62 15.4-12.03 30.42-25.8 38.17-2.2 1.24-3.98 1.76-5.94-.25-.42-2.59 2.02-5.15 2.69-7.65 1.1-4.28.95-8.97.21-13.3-2.75-13.09-11.11-25-22.31-32.27-4.56-3.18-9.5-2.82-12.55-7.94 2.53-3.7 4.59-7.71 7.13-11.39 2.37-1.18 5.41 1.04 7.85 1.49Z" fill="#000"/><path d="M759.941 581.02c8.54 5.73 11.2 17.36 9.91 27-1.6 12.75-7.92 24.18-17.52 32.65 1.67-10.5-1.47-21.18-6.74-30.22-6.12-10.4-15.53-19.36-26.96-23.6.85-1.44 1.71-2.89 2.56-4.33 6.61 2.32 12.98 1.44 19.81 1.76 6.74.23 12.5-1.96 18.94-3.26Z" fill="rgba(106, 78, 53, 1)"/></g></g></svg>