<svg xmlns:dc="http://purl.org/dc/elements/1.1/" xmlns:cc="http://creativecommons.org/ns#" xmlns:rdf="http://www.w3.org/1999/02/22-rdf-syntax-ns#" xmlns:svg="http://www.w3.org/2000/svg" xmlns="http://www.w3.org/2000/svg" viewBox="0 0 762 762" fill="none"><metadata><rdf:RDF><cc:Work><dc:format>image/svg+xml</dc:format><dc:type rdf:resource="http://purl.org/dc/dcmitype/StillImage"/><dc:title>Adventurer</dc:title><dc:creator><cc:Agent><dc:title>Lisa Wischofsky</dc:title></cc:Agent></dc:creator><dc:source>https://www.instagram.com/lischis_adventures/</dc:source><cc:license rdf:resource="https://creativecommons.org/licenses/by/4.0/"/></cc:Work><cc:License rdf:about="https://creativecommons.org/licenses/by/4.0/"><cc:permits rdf:resource="https://creativecommons.org/ns#Reproduction"/><cc:permits rdf:resource="https://creativecommons.org/ns#Distribution"/><cc:permits rdf:resource="https://creativecommons.org/ns#DerivativeWorks"/><cc:requires rdf:resource="https://creativecommons.org/ns#Notice"/><cc:requires rdf:resource="https://creativecommons.org/ns#Attribution"/></cc:License></rdf:RDF></metadata><mask id="avatarsRadiusMask"><rect width="762" height="762" rx="0" ry="0" x="0" y="0" fill="#fff"/></mask><g mask="url(#avatarsRadiusMask)"><path d="M396.01 164.85c37.82 4.9 74.21 19.64 104.8 42.39 6.15 4.84 12.48 9.33 18.02 14.92 23.77 21.98 42.73 49.02 55.13 78.95 9.35 22.31 14.72 46.04 16.64 70.14 6.62.81 13.05 2.14 19.12 5 15.54 6.93 27.08 20.94 31.78 37.21 2.63 9.56 3.56 19.75 1.72 29.55-2.96 18.76-13.72 36.13-29.37 46.92-10.94 7.65-24.49 12.03-37.86 11.68-5.13-.05-10.04-1.6-15.13-1.79-1.85 2.17-3.23 4.84-4.76 7.25-18.66 29.62-44.57 54.51-74.64 72.4-28.1 16.73-59.9 27.16-92.46 30.32-11.08.7-21.87 2.05-32.98.74-51.69-2.3-102.07-23.44-140.15-58.43-29.03-26.55-50.84-60.83-62.54-98.39-7.09-22.85-10.62-46.78-10.07-70.71.52-40.34 12.53-80.58 33.94-114.76 19.1-30.81 45.91-56.58 77.2-74.83 29.63-17.28 63.35-27.68 97.59-29.87 14.66-1.47 29.44-.37 44.02 1.31Z" fill="#000"/><path d="M363 169.06c48.47-1.39 97.32 14.7 135.81 44.12 6.55 4.06 11.72 9.49 17.36 14.64 24.33 22.63 43.2 50.95 54.93 82.02 7.43 19.61 11.86 40.2 13.56 61.09-8.89.74-17.34 2.34-25.38 6.38-2.19 1.03-1.89 4.95.68 5.23 2.35.23 4.98-1.51 7.24-2.2 14.62-5.37 31.32-4.35 44.78 3.68 11.69 6.78 20.09 18.16 23.89 31.06 2.6 8.25 2.68 17.41 1.76 25.95-2.5 17.35-12.35 33.73-26.73 43.81-15.71 11.33-37.17 14.64-54.93 6.2-3.17-1.43-5.94-3.58-9.08-5.05-2.95-1.09-4.88 2.79-2.7 4.75 3.17 2.76 7.34 4.52 11 6.56-20.14 34.15-49.45 62.7-84.41 81.47-30.2 16.31-64.44 25.53-98.78 26.15-27.63.72-55.33-4.04-81.21-13.72-30.32-11.24-57.84-29.43-80.37-52.6-22.67-23.37-39.92-51.88-50.2-82.77-14.96-44.64-14.91-94.01.27-138.59 11.05-33.06 30.28-63.21 55.37-87.39 29.67-28.73 67.65-48.54 108.13-56.67 12.8-2.52 25.94-4.24 39.01-4.12Z" fill="rgba(236, 173, 128, 1)"/><path d="M605.03 404.4c2.63-.1 3.44 3.8 1.36 4.98-3.69 1.83-7.82 2.77-11.64 4.35-5.82 2.04-11.28 4.76-16.68 7.72 4.29 2.34 8.86 4.74 12.71 7.76 2.58 2.09 4.85 4.35 5.33 7.8-.26 3.59-2.73 6.55-5.45 8.69-5.86 4.66-13.92 7.18-20.79 10.26-1.75.62-4.43 1.99-5.59-.26-1.02-1.74-.06-3.11 1.57-3.87 6.65-3.3 14.86-5.62 20.79-10.16 1.37-1.14 3.39-2.74 3.61-4.62-4.07-5.63-12.42-8.59-18.23-12.09-2.34-1.72-2.29-4.24-.16-6.13 7.27-5.64 16.98-9.26 25.57-12.38 2.42-.83 5.03-1.95 7.6-2.05Z" fill="#000"/><g transform="translate(-161 -83)"><path d="M559.011 424.1c16.41.51 32.33 7.36 43.93 18.98 5.76 5.61 9.95 12.31 13.6 19.43 7.87-5.09 15.8-10.08 23.76-15.03 1.25 1.09 2.42 2.25 3.56 3.46-3.17 3.52-7.07 5.39-10.96 7.93-4.77 3.03-9.55 6.03-14.3 9.08 3.17 10 4.53 20.39 2.8 30.81-2.05 14.92-9.59 28.86-20.75 38.93-11.58 10.56-26.96 16.72-42.65 16.84-12.98.34-26.07-3.48-36.9-10.63-12.44-8.06-21.81-20.51-26.4-34.58-4.57-14.5-4.06-30.74 1.79-44.81 5.41-13.38 15.56-24.82 28.12-31.91 10.31-6.04 22.51-8.85 34.4-8.5Z" fill="#000"/><path d="M549.27 430.26c14.65-1.77 29.27 1.62 41.4 10.04 12.46 8.48 21.37 21.87 24.46 36.62 2.62 12.36 1.24 25.52-4.07 37.02-6.12 13.64-17.67 24.9-31.58 30.43-10.22 4.23-21.57 5.65-32.48 3.67-16.41-2.65-31.48-12.62-40.35-26.68-5.6-8.77-8.74-18.94-9.37-29.31-.61-14.46 4.23-29.15 13.41-40.36 9.47-11.77 23.62-19.56 38.58-21.43Z" fill="#fff"/><path d="M414.051 453.95c10.75 6.03 19.24 15.78 23.87 27.2 3.49 8.51 4.54 17.78 3.61 26.9-1.79 17.13-12.16 32.86-27.1 41.38-16.49 9.64-37.66 9.77-54.3.41-14.42-7.99-24.75-22.55-27.4-38.84-1.81-8.9-.64-17.67 1.89-26.29-5.82-3.63-12.13-6.62-17.74-10.55-1.95-1.1-1.44-4.12.68-4.64 1.65-.48 3.18.59 4.6 1.28 4.83 2.83 9.64 5.66 14.48 8.47 6.58-14.13 18.65-25.2 33.59-29.87 14.42-4.66 30.66-2.95 43.82 4.55Z" fill="#000"/><path d="M378.27 453.29c15.03-2.78 30.94 1.95 42.11 12.35 10.06 9.24 15.9 22.72 15.93 36.37-.17 8.05-2.22 16.17-6.07 23.26-6.94 12.82-19.64 22.21-33.98 24.9-8.07 1.72-16.23 1.09-24.08-1.36-19.1-5.88-33.31-23.78-34.38-43.79-.98-12.79 3.48-25.72 11.85-35.41 7.31-8.53 17.57-14.32 28.62-16.32Z" fill="#fff"/><path d="M527.27 466.19c7.37-.9 15.21 1.78 20.25 7.29 3.82 4.17 6.28 9.79 6.41 15.47.28 7.26-3.03 14.7-8.73 19.24-6.96 5.83-17.24 6.92-25.36 2.96-8.64-4.1-14.23-13.61-13.38-23.18.7-11.14 9.74-20.51 20.81-21.78ZM358.54 480.84c11.41-3.87 24.34 3 27.54 14.59 3.77 11.69-4.02 24.86-16.03 27.32-10.63 2.65-22.19-3.54-25.66-13.94-3.92-11.13 2.75-24.59 14.15-27.97Z" fill="#000"/></g><g transform="translate(-161 -83)"><g fill="#000"><path d="M545.03 378.5c24.7.94 48.04 8.97 69.45 20.99 2.26 1.32 4.92 2.49 6.79 4.33 1.3 2.39-.38 5.13-3.2 4.19-16.58-6.21-33.56-9.63-51.06-12.02-20.3-2.34-39.92-3.68-60.2-.13-3.2.44-6.87 2.16-10.08 1.59-2.66-1.69-1.2-6.1 1.29-7.37 13.63-9.33 30.79-12.1 47.01-11.58ZM407.99 396.92c3.51.64 6.6 1.92 9.63 3.78-.15 1.2-.26 2.4-.33 3.62-2.7.74-5.46 1.12-8.24 1.34-13.17 1.15-26.45 5.11-38.81 9.69-12.23 4.75-24.78 10.64-35.19 18.71-2.82 2.03-4.13 4.82-8.08 4.47-.5-.9-1-1.79-1.51-2.67.89-1.59 1.68-3.17 2.76-4.64 9.55-13.17 23.64-23.22 38.61-29.35 12.7-5.15 27.61-8.05 41.16-4.95Z"/></g></g><g transform="translate(-161 -83)"><path d="M462.23 552.76c5.89 1.34 11.98 4.52 15.69 9.38 1.25 2.25.03 5.01-2.77 4.63-2.26-1.24-3.96-3.38-6.13-4.8-4.31-2.87-9.86-4.48-15.03-3.68-2.57.46-5.36 1.6-6.83 3.87-1.53 2.09-1.29 4.76-.4 7.05 1.72 4.44 6 7.87 10.25 9.73 2.3 1.06 5.25 1.28 7.29 2.75 1.69 1.8.58 4.36-1.73 4.78-4.61 1.03-8.66 2.66-11.62 6.51-5.51 6.68-4.73 16.7 1.35 22.74 6.13 6.67 17.21 7.51 24.26 1.85 2.43-1.87 3.59-4.35 5.54-6.58 2.97-1.44 5.07 1.04 3.97 3.91-4.62 9.77-16.97 14.49-27.13 11.4-8.93-2.41-15.86-10.12-17.26-19.27-1.55-9.44 3.19-18.64 11.31-23.48-5.73-2.95-10.81-7.86-12.37-14.28-1.54-5.3.79-11.27 5.45-14.2 4.69-3.25 10.76-3.16 16.16-2.31Z" fill="#000"/></g><g transform="translate(-161 -83)"/><g transform="translate(-161 -83)"><path d="M561.98 243.31c21.23 2.34 42.86 6.05 63.28 12.4 6.74 2.26 13.88 4.45 20.02 8.06 2.3 1.32.95 3.44-.34 4.94-4.83-1.56-9.35-3.9-14.17-5.5-13.7-4.75-28.06-7.81-42.32-10.35-15.88-2.84-31.99-4.79-48.11-5.34-23.62-1.23-47.3-.15-70.55 4.36-8.27 1.49-16.45 3.43-24.58 5.57-5.58 1.48-10.96 3.38-16.71 4.17-.47-2.51-1.79-4.51 1.29-5.74 18.39-5.59 37.13-9.95 56.23-12.32 25.27-3.25 50.65-2.83 75.96-.25Z" fill="#000"/><path d="M540.34 247.52c16.12.55 32.23 2.5 48.11 5.34 14.26 2.54 28.62 5.6 42.32 10.35 4.82 1.6 9.34 3.94 14.17 5.5 3.72 1.42 7.34 3.25 10.53 5.64 7.29 5.88 14.76 9.98 20.17 18.05 4.36 6.11 5.94 13.33 5.28 20.77.27.68.54 1.37.8 2.05 4.51 1.4 8.74 2.2 12.75 4.34 6.99 3.64 12.76 9.23 17.64 15.35 6.23 8.13 11.33 17.19 15.42 26.57 12.4 28.95 17.9 61.41 19.33 92.73-6.32-.01-12.55.97-18.39 3.44-1.97.69-4.01 1.25-6.02 1.85 1.03-1.33 2.91-2.54 1.2-4.24-1.08-1.43-2.37-1-3.82-.51-12.94 5.11-22.91 13.8-32.65 23.47-.98.93-1.27 2.11-1.68 3.34-1.11-2.07-2.03-4.29-2.92-6.47 3.07-2.7 3.48-7.8 4.61-11.6 3.58-15.4 5.92-31.44 6.65-47.24 2.26-.25 4.81.78 5.45-2.2-.03-2.6-2.05-3.14-3.87-4.38-8.36-4.74-15.62-10.92-22.2-17.87-13.01-13.9-23.24-30.59-29.3-48.65-1.3-3.86-2.25-7.79-3.84-11.55-1.61-4.44-2.07-9.37-3.16-14-5.22-1.46-10.24-2.12-15.65-2.37-16.58-1.56-33.82-.08-50.44.34 9.68-1.36 19.4-2.96 28.95-5.07 2.4-.68 5.89-1.22 7.43-3.37 1.27-2.06.15-4.48-1.98-5.33-4.49-1.49-9.48-1.83-14.19-2.07-11.71-.3-23.32-1.26-35.04-.98-19.94-.26-39.88-.05-59.82-.3 13.19-1.9 26.15-5.54 39.31-7.7 9.66-1.58 19.23-3.67 28.9-5.17 11.56-.15 23.1.17 34.64.83 4.65.44 9.27 1.02 13.95.97.54-.88 1.08-1.76 1.62-2.63-1.04-1.3-1.61-2.52-3.42-2.76-6.81-1.48-14.23-1.23-21.18-1.59-13.29-.89-26.68-.55-40-.54-7.35-.07-14.65.72-22 .78-8.43.14-16.76 1.26-25.17 1.73-32.15 2.67-63.86 8.16-95.3 15.28 4.94-1.66 9.74-3.71 14.63-5.53 28.05-10.48 56.67-19.04 86.04-24.96 2.32-.64 5.72-.87 6.99-3.21.83-2.6-.57-4.03-3.1-4.21-17.01-.67-33.36.83-49.9 2.13-16.71 1.83-33.25 3.7-49.69 7.33-4.21.86-8.44 1.58-12.65 2.45 9.43-3.72 18.93-7.14 28.65-10.03 5.75-.79 11.13-2.69 16.71-4.17 8.13-2.14 16.31-4.08 24.58-5.57 23.25-4.51 46.93-5.59 70.55-4.36Z" fill="rgba(133, 194, 198, 1)"/><path d="M512.09 259.74c2.53.18 3.93 1.61 3.1 4.21-1.27 2.34-4.67 2.57-6.99 3.21-29.37 5.92-57.99 14.48-86.04 24.96-4.89 1.82-9.69 3.87-14.63 5.53 31.44-7.12 63.15-12.61 95.3-15.28 8.41-.47 16.74-1.59 25.17-1.73 7.35-.06 14.65-.85 22-.78 13.32-.01 26.71-.35 40 .54 6.95.36 14.37.11 21.18 1.59 1.81.24 2.38 1.46 3.42 2.76-.54.87-1.08 1.75-1.62 2.63-4.68.05-9.3-.53-13.95-.97-11.54-.66-23.08-.98-34.64-.83-23.1-.33-46.4 1.07-69.4 3.23-35.01 3.45-69.37 10.1-103.48 18.62-2.72.5-6.62 1.91-8.98-.08-.49-1.25-.79-3.41.47-4.31 3.28-2.56 7.52-4.02 11.27-5.79 28.42-12.38 57.92-22.32 87.92-30.09 2.58-.69 5.19-1.21 7.8-1.73-5.32.64-10.66.83-16 1.19-27.55 2.23-54.8 5.84-81.54 13.06-.92-1.62-2.11-2.56-1.49-4.59 2.55-1.97 5.83-2.67 8.89-3.44 4.21-.87 8.44-1.59 12.65-2.45 16.44-3.63 32.98-5.5 49.69-7.33 16.54-1.3 32.89-2.8 49.9-2.13ZM656.08 270.86c2.32-.28 3.81-.12 5.74 1.24 7.25 5.03 14.8 11.12 19.33 18.8 3.79 5.96 5.27 12.61 5.09 19.63 11.72 2.53 20.94 9.68 28.55 18.65 10.27 12.18 17.54 27.39 22.86 42.32 9.41 26.83 13.69 55.2 14.97 83.53.19 2.16-.6 3.94-2.79 4.49-3.93.19-7.73-.2-11.61.79-2.74.45-5.97 1.96-8.72 1.29-.42-1.29-.76-2.61-1.03-3.95 5.84-2.47 12.07-3.45 18.39-3.44-1.43-31.32-6.93-63.78-19.33-92.73-4.09-9.38-9.19-18.44-15.42-26.57-4.88-6.12-10.65-11.71-17.64-15.35-4.01-2.14-8.24-2.94-12.75-4.34-.26-.68-.53-1.37-.8-2.05.66-7.44-.92-14.66-5.28-20.77-5.41-8.07-12.88-12.17-20.17-18.05.14-1.17.34-2.33.61-3.49Z" fill="#000"/><path d="M478.16 298.5c5.98-.43 12.03.07 18.02-.05 19.94.25 39.88.04 59.82.3 11.72-.28 23.33.68 35.04.98 4.71.24 9.7.58 14.19 2.07 2.13.85 3.25 3.27 1.98 5.33-1.54 2.15-5.03 2.69-7.43 3.37-9.55 2.11-19.27 3.71-28.95 5.07 16.62-.42 33.86-1.9 50.44-.34 1.45.29 3.23.29 4.43 1.16.27 1.13.23 2.18-.12 3.17-1.35 1.16-2.93.74-4.59.79-24.87-1.12-49.22 1.18-74 2.5-3.93.24-8.03.64-11.95.13-2.6-.19-3.48-3.91-1.58-5.5 2.33-1.62 5.62-2.04 8.33-2.7 17.46-3.47 35.22-5.46 52.68-9-10.76-1.05-21.67-1.08-32.47-1.15-27.67-.57-55.39-.2-83.07-.54-1.3-.15-3.62-.3-3.67-2.02-.87-1.61 1.29-3.61 2.9-3.57ZM636.75 331.83c1.11-.08 2.22-.16 3.33-.23 1.59 3.76 2.54 7.69 3.84 11.55 6.06 18.06 16.29 34.75 29.3 48.65 6.58 6.95 13.84 13.13 22.2 17.87 1.82 1.24 3.84 1.78 3.87 4.38-.64 2.98-3.19 1.95-5.45 2.2-.73 15.8-3.07 31.84-6.65 47.24-1.13 3.8-1.54 8.9-4.61 11.6-1.09-.56-2.14-1.19-3.15-1.87-.2-2.35.4-4.48 1.01-6.72 3.23-11.12 5-22.86 6.75-34.31.72-6.62 1.54-13.4 1.12-20.06-6.2-4.15-11.91-8.98-17.18-14.26-15.82-16.09-27.82-36.16-34.23-57.81-.7-2.93-1.99-5.41-.15-8.23ZM723.65 455.26c1.71 1.7-.17 2.91-1.2 4.24-10.49 3.65-19.91 11.5-27.71 19.25-2.59 2.32-4.16 5.18-8.06 4.91l-1.18-2.1c.41-1.23.7-2.41 1.68-3.34 9.74-9.67 19.71-18.36 32.65-23.47 1.45-.49 2.74-.92 3.82.51ZM709.55 473.6c2.59-1.04 4.44.66 3.59 3.39-2.71 2.38-6.06 3.96-8.84 6.29-5.1 4.18-9.7 9.03-14.09 13.94-1.55 1.77-3.37 3.24-5.28 4.62-.8-.9-1.57-1.83-2.29-2.78-.09-2.29 2.21-4.21 3.59-5.84 6.77-7.11 14.46-15.2 23.32-19.62Z" fill="#000"/></g></g></svg>