<svg xmlns:dc="http://purl.org/dc/elements/1.1/" xmlns:cc="http://creativecommons.org/ns#" xmlns:rdf="http://www.w3.org/1999/02/22-rdf-syntax-ns#" xmlns:svg="http://www.w3.org/2000/svg" xmlns="http://www.w3.org/2000/svg" viewBox="0 0 762 762" fill="none"><metadata><rdf:RDF><cc:Work><dc:format>image/svg+xml</dc:format><dc:type rdf:resource="http://purl.org/dc/dcmitype/StillImage"/><dc:title>Adventurer</dc:title><dc:creator><cc:Agent><dc:title>Lisa Wischofsky</dc:title></cc:Agent></dc:creator><dc:source>https://www.instagram.com/lischis_adventures/</dc:source><cc:license rdf:resource="https://creativecommons.org/licenses/by/4.0/"/></cc:Work><cc:License rdf:about="https://creativecommons.org/licenses/by/4.0/"><cc:permits rdf:resource="https://creativecommons.org/ns#Reproduction"/><cc:permits rdf:resource="https://creativecommons.org/ns#Distribution"/><cc:permits rdf:resource="https://creativecommons.org/ns#DerivativeWorks"/><cc:requires rdf:resource="https://creativecommons.org/ns#Notice"/><cc:requires rdf:resource="https://creativecommons.org/ns#Attribution"/></cc:License></rdf:RDF></metadata><mask id="avatarsRadiusMask"><rect width="762" height="762" rx="0" ry="0" x="0" y="0" fill="#fff"/></mask><g mask="url(#avatarsRadiusMask)"><path d="M396.01 164.85c37.82 4.9 74.21 19.64 104.8 42.39 6.15 4.84 12.48 9.33 18.02 14.92 23.77 21.98 42.73 49.02 55.13 78.95 9.35 22.31 14.72 46.04 16.64 70.14 6.62.81 13.05 2.14 19.12 5 15.54 6.93 27.08 20.94 31.78 37.21 2.63 9.56 3.56 19.75 1.72 29.55-2.96 18.76-13.72 36.13-29.37 46.92-10.94 7.65-24.49 12.03-37.86 11.68-5.13-.05-10.04-1.6-15.13-1.79-1.85 2.17-3.23 4.84-4.76 7.25-18.66 29.62-44.57 54.51-74.64 72.4-28.1 16.73-59.9 27.16-92.46 30.32-11.08.7-21.87 2.05-32.98.74-51.69-2.3-102.07-23.44-140.15-58.43-29.03-26.55-50.84-60.83-62.54-98.39-7.09-22.85-10.62-46.78-10.07-70.71.52-40.34 12.53-80.58 33.94-114.76 19.1-30.81 45.91-56.58 77.2-74.83 29.63-17.28 63.35-27.68 97.59-29.87 14.66-1.47 29.44-.37 44.02 1.31Z" fill="#000"/><path d="M363 169.06c48.47-1.39 97.32 14.7 135.81 44.12 6.55 4.06 11.72 9.49 17.36 14.64 24.33 22.63 43.2 50.95 54.93 82.02 7.43 19.61 11.86 40.2 13.56 61.09-8.89.74-17.34 2.34-25.38 6.38-2.19 1.03-1.89 4.95.68 5.23 2.35.23 4.98-1.51 7.24-2.2 14.62-5.37 31.32-4.35 44.78 3.68 11.69 6.78 20.09 18.16 23.89 31.06 2.6 8.25 2.68 17.41 1.76 25.95-2.5 17.35-12.35 33.73-26.73 43.81-15.71 11.33-37.17 14.64-54.93 6.2-3.17-1.43-5.94-3.58-9.08-5.05-2.95-1.09-4.88 2.79-2.7 4.75 3.17 2.76 7.34 4.52 11 6.56-20.14 34.15-49.45 62.7-84.41 81.47-30.2 16.31-64.44 25.53-98.78 26.15-27.63.72-55.33-4.04-81.21-13.72-30.32-11.24-57.84-29.43-80.37-52.6-22.67-23.37-39.92-51.88-50.2-82.77-14.96-44.64-14.91-94.01.27-138.59 11.05-33.06 30.28-63.21 55.37-87.39 29.67-28.73 67.65-48.54 108.13-56.67 12.8-2.52 25.94-4.24 39.01-4.12Z" fill="rgba(236, 173, 128, 1)"/><path d="M605.03 404.4c2.63-.1 3.44 3.8 1.36 4.98-3.69 1.83-7.82 2.77-11.64 4.35-5.82 2.04-11.28 4.76-16.68 7.72 4.29 2.34 8.86 4.74 12.71 7.76 2.58 2.09 4.85 4.35 5.33 7.8-.26 3.59-2.73 6.55-5.45 8.69-5.86 4.66-13.92 7.18-20.79 10.26-1.75.62-4.43 1.99-5.59-.26-1.02-1.74-.06-3.11 1.57-3.87 6.65-3.3 14.86-5.62 20.79-10.16 1.37-1.14 3.39-2.74 3.61-4.62-4.07-5.63-12.42-8.59-18.23-12.09-2.34-1.72-2.29-4.24-.16-6.13 7.27-5.64 16.98-9.26 25.57-12.38 2.42-.83 5.03-1.95 7.6-2.05Z" fill="#000"/><g transform="translate(-161 -83)"><path d="M561.861 423.28c1.79.47 1.92 1.91 1.98 3.5.02 6.73-.89 13.42-.75 20.17 8.34.57 16.09 2.01 24.09 4.41 3.09-7.1 5.83-14.35 8.73-21.52.94-1.82 1.46-4.16 4.03-3.81 2.35.23 2.58 3 1.77 4.75-2.95 7.55-6.03 15.07-9.09 22.57 6.75 2.72 12.58 6.27 18.22 10.84 4.88-4.58 9.61-9.35 14.61-13.8 1.61-1.56 3.31-1.05 5.34-1.14-.17 1.98.27 3.67-1.36 5.17-4.75 4.73-9.71 9.27-14.6 13.87 3.57 5.14 6.56 10.24 6.7 16.71.65 9.87-4.85 18.25-12.06 24.44-11.14 9.42-26.17 14.24-40.45 16.09-16.6 1.82-33.82.84-49.57-5.05-9.18-3.45-18.18-8.76-24.39-16.49-5.05-6.42-7.79-14.69-5.7-22.8 2.47-9.89 9.93-17.25 18.37-22.44 14.79-8.93 32.37-12.08 49.46-12.05.24-6.57.54-13.17 1.11-19.72.06-1.98 1.23-4.28 3.56-3.7ZM371.979 441.39c1.93-.19 2.61 2.2 3.14 3.63 1.19 4.97 1.31 10.2 2.17 15.24 8.52-.82 17.28-.66 25.73.76 10.86 2.02 22.05 6.02 30.13 13.83 4.96 4.66 8.49 11.22 8.27 18.15-.46 7.42-4.43 13.69-9.92 18.48-8.9 7.86-21.44 11.98-33.01 13.71-15.71 2.23-32.97.68-47.39-6.25-8.49-4.18-17-11.26-19.21-20.87-1.28-5.19-.03-9.95 1.98-14.74-3.86-3.53-7.69-7.1-11.45-10.73-.82-1.01-2.4-2.18-2-3.61.02-2.54 3.45-3.08 4.99-1.37 4 3.5 7.71 7.34 11.68 10.88 3.38-3.65 6.97-6.57 11.16-9.24-2.74-6.13-5.52-12.24-8.25-18.36-1.11-2.21-.85-4.39-.69-6.76 1.24.21 2.62.25 3.78.76 1.18 1.19 1.85 2.96 2.57 4.46 2.5 5.77 5.18 11.45 7.58 17.25 5.99-2.57 11.89-4.32 18.29-5.56-.39-5.41-1.7-10.7-2.04-16.11.01-1.53.39-4.08 2.49-3.55Z" fill="#000"/><path d="M539.5 453.67c14.63-2.22 30-1.53 44.23 2.67 9.51 2.94 19.21 7.45 25.93 15.02 4.3 4.85 7.04 11.05 5.99 17.64-1.05 7.24-5.76 12.91-11.35 17.3-8.81 6.84-20.25 10.76-31.11 12.82-15.73 2.81-32.35 2.12-47.64-2.63-9.43-3.02-19.09-7.77-25.56-15.48-4.32-5.09-6.88-12.41-4.86-19 1.56-6.56 6.67-12 11.93-15.92 9.35-6.79 21.12-10.62 32.44-12.42ZM371.53 466.92c15.61-3 32.89-1.76 47.4 5.05 6.37 3.03 13.4 8.25 15.73 15.18 2.07 5.65.38 11.7-3.31 16.24-4.63 5.75-11.74 9.78-18.58 12.34-12.6 4.53-26.55 5.97-39.78 3.81-9.02-1.36-18.44-4.32-25.91-9.68-5.22-3.87-9.62-9.04-9.9-15.83-.19-6.6 3.87-12.11 8.74-16.14 7.19-5.81 16.63-9.2 25.61-10.97Z" fill="#fff"/><path d="M592.24 469.18c2.15-1.56 4.62-.31 5.94 1.67 1.83 3.14 2.15 6.61 2.49 10.16.43 5.18.88 10.72-.25 15.84-.28 1.37-.95 2.62-2.03 3.53-2.92 1.46-6.85-1.24-7.61-4.16-1.98-6.22-1.92-13.23-1.41-19.69.41-2.37.65-5.91 2.87-7.35ZM413.31 476.33c2.36-1.35 5.2-.18 5.96 2.42 1.79 5.09 1.92 10.91 2.05 16.26-.15 3.13-.37 8.05-3.81 9.46-2.59.94-4.59-1.38-5.4-3.58-1.88-5.25-1.76-11.39-1.51-16.9.25-2.35.45-6.27 2.71-7.66Z" fill="#000"/></g><g transform="translate(-161 -83)"><g fill="#000"><path d="M530.96 352.34c21.47-3.31 42.8 3.14 60.6 15.09 12.06 8.19 22.9 19.68 28.97 33.03 1.1 2.96-.3 3.73-2.51 5.27-3.95-2.26-6.87-5.58-10.47-8.29-12.99-9.78-28.03-16.38-43.78-20.25-14.93-3.51-30.56-5.05-45.8-2.8-4.78.41-9.28 1.92-13.97 2.67-2.41.2-5.1-1.21-4.21-4.04 1.9-4.15 4.23-8.5 7.6-11.65 6.04-5.62 15.64-7.85 23.57-9.03ZM383 428.83c13.38-.82 26.33-.61 39.03 4.23 5.85 2.37 11.52 5.91 13.93 12.05 1.38 4.31.91 8.87-1.73 12.61-4.9-.76-9.4-2.6-14.18-3.82-23.13-6.33-47.19-8.01-71.04-5.96-4.88.33-9.86 2.03-14.72 1.78-1.78-.48-1.17-2.2-.97-3.54.88-2.51 3.58-3.86 5.76-5.09 13.75-7.25 28.55-10.65 43.92-12.26Z"/></g></g><g transform="translate(-161 -83)"><path d="M517.87 557.3c2.33.19 3.18 2.72 2.32 4.67-1.39 3.57-3.16 6.99-4.64 10.53-8.44 19.32-19.56 37.08-31.84 54.17-1.41 1.83-2.87 3.96-4.81 5.27-2.97.78-6.11.75-8.65-1.18-9.12-6.48-17.13-14.16-24.3-22.74-7.03-7.83-13.49-16.1-18.86-25.17-1.05-2.12-2.54-4.48-1.19-6.81 1-1.56 3.22-2 4.86-2.55 11.13-3.09 22.19-6.48 33.39-9.29 11.78-2.84 23.79-4.72 35.86-5.71 5.9-.54 11.94-1.42 17.86-1.19Z" fill="#000"/><path d="M513.81 563.01c-8.96 21.23-21 40.76-34.34 59.49-.92 1.14-2.13 2.83-3.66 3.09-2.18.55-3.7-.86-5.38-1.99-8.5-6.53-15.77-14.19-22.74-22.28-6.22-6.86-11.88-14.33-16.59-22.31 14.95-3.99 29.9-8.63 45.12-11.4 12.45-2.49 25.01-3.27 37.59-4.6Z" fill="#8F2E45"/></g><g transform="translate(-161 -83)"/><g transform="translate(-161 -83)"><path d="M495.43 210.57c6.13 3.22 9.05 9.81 11.76 15.81 10.06-2.06 20.61-3.06 30.82-4.29 25.41-1.74 50.83-2.71 75.32 5.55 12.18 3.88 23 9.89 34.28 15.74 17.64 9.36 36.37 18.29 53.6 28.41 15.9 9.41 29.24 21.83 41 35.99 17.1 24.63 31.51 51.2 43.36 78.72 16.72 38.95 28.42 80.33 33.48 122.45 2.16 18.29 2.98 36.64 2.13 55.05-1.53 26.03-6.05 52.1-17.46 75.75-8.06 16.66-19.52 31.69-35.41 41.54-4.18 2.48-8.61 5.17-13.32 6.43-2.33-.84-2.71-2.31-1.7-4.46 2.19-3.79 4.96-7.14 6.75-11.18 5.38-11.69 8.9-24.52 11.54-37.09 2.54-11.87 3.84-23.84 2.75-35.97-4.86 10.85-10.61 21.32-16.94 31.38-13.14 20.86-30.16 39.2-48.71 55.35-17.09 14.87-35.28 28.25-55.67 38.28-3.83 1.75-7.84 3.61-11.99 4.41-1.75.1-2.65-.74-2.7-2.52 2.13-3.49 5.93-5.86 8.55-9.04 9.44-10.78 16.4-24.11 19.6-38.09 3.56-17.19.55-34.99-6.26-50.99-7.3-16.97-18.45-32.63-30.88-46.24-.08 5.17-.07 10.32.55 15.46 1.09 10.91 1.39 21.53 6.66 31.4.97 1.57.93 4.45-1.49 4.15-8.63-.51-17.3-1.02-25.87-2.15-18.87-3.02-37-11.5-53.2-21.4-20.29-12.58-39.53-27.72-55.66-45.36-26.75-29.44-45.29-67.01-55.91-105.16-6.09-22.7-10.27-46.02-11.81-69.48-.89-7-.75-13.98-.92-21.02-.19-18.69 1.25-37.49 4.45-55.91-19.68 11.33-37.56 25.5-54.52 40.53-24.53 22.24-47.07 46.84-65.85 74.17-2.06 2.75-2.74 5.88-3.15 9.22-1.46 10.23-2.61 20.65-2.48 30.99-.9 43.29 12.06 86.88 35.9 122.98 19.06 29.05 45.36 53.35 75.65 70.33 3.18 1.9 6.92 3.22 9.76 5.61.65 2.37-.71 3.79-1.84 5.67-8.55 12.54-15.56 27.02-18.08 42.07-.87 3.13-4.72 2.08-6.98 1.45-13.75-4.62-27.69-10.65-39.57-19.06-8.12-5.89-15.28-13.2-21.41-21.12-14.12 16.7-30.69 31.46-48.33 44.34-1.58 1.17-3.35 1.43-5.2 1.91-.97-2.46-1.18-3.7-.2-6.21 3.47-9.18 3.87-18.3 4.67-27.96 1.1-26.43-.07-52.66-1.98-79.02-2.95-37.08-7.45-74.28-14.77-110.76-3.05-12.51-5.89-25-8.03-37.72-1.24-7.93-1.11-15.46.31-23.36 3.65-20.11 11.99-38.96 20.91-57.21 7-15.15 14.7-29.92 22.12-44.87 10.08-18.93 19.72-36.94 33.42-53.59 5.27-6.17 11.36-12.64 18.65-16.39 6.03-3.17 12.3-4.4 18.88-5.85 16-3.42 32.09-8.28 47.9-12.45 9.21-2.34 18.48-4.48 27.7-6.79 4.5-8.79 10.01-18.3 17.5-24.87 4.91-4.25 12.21-6.73 18.32-3.56Z" fill="#000"/><path d="M489 214.88c3.5-.24 6.38 2.08 8.33 4.75 5.23 7.5 7.19 15.64 10.21 23.85 1.11 2.53 3.01 1.37 5.02.89-.48-4.35-1.87-8.42-3.32-12.53 18.05-3.14 36.42-5.2 54.76-5.06 13.91-.25 28.37.76 41.78 4.67 9.67 2.55 18.78 6.53 27.65 11.1 11.9 6.12 23.68 12.47 35.67 18.42 13.85 7.36 28.51 14.5 41.21 23.74 10.26 7.89 20.96 16.96 28.06 27.89 17.77 25.76 32.62 53.64 44.52 82.57 18.08 44.16 30.27 92.07 32.5 139.83 1.08 14.12.18 27.96-.95 42.03-2.18 20.44-6.74 41.17-15.65 59.8-7.84 16.41-18.99 30.81-34.68 40.37 7.13-15.03 11.33-30.86 14.31-47.17 2.26-12.95 2.07-26.01.42-39.02-.61-3.83.52-6.94-2.85-9.68-.91.84-2.43 1.57-2.85 2.79-1.43 3.99-2.28 8.14-3.99 12.04-3.8 9.12-8.68 17.84-13.68 26.35-14.88 24.98-34.59 45.62-56.81 64.17-13.8 11.38-28.64 22.24-44.47 30.63 11.12-14.66 19.39-32.65 19.53-51.31.57-18.03-5.07-36.21-13.7-51.9-7.79-13.72-17.34-26.47-28.43-37.7-1.17-1.15-2.33-2.39-3.69-3.32-2.33-.23-3.45.58-3.78 2.89-.75 6.43-.44 13.1-.07 19.56 1.1 10.56 1.84 20.51 5.36 30.6-7.69-.23-15.31-.46-22.88-2.05-19.28-3.9-37.95-13.55-54.28-24.31-18.67-12.28-35.84-26.56-50.64-43.35a229.593 229.593 0 0 1-31.19-46.84c-15.31-29.71-24.3-61.64-29.2-94.61-1.96-12.54-3.08-25.28-3.5-37.96-.79-12.05 0-23.98.61-36 2.53-33.4 10.73-66.22 25.02-96.54 3.91-7.9 8.42-16.18 14.31-22.78 3.06-3.36 6.62-6.38 11.34-6.81Z" fill="rgba(171, 42, 24, 1)"/><path d="M456.6 245.23c-8.58 19-15.03 39-19.07 59.46-17.55 9.49-34.02 21.79-49.34 34.52-23.37 19.86-44.99 41.96-63.89 66.12-12.02 15.53-23.61 32.46-31.52 50.49-1.94 4.87-4.19 9.95-4.91 15.17.29 2.78 4.05 3.44 5.16 1.03 1.17-2.64 1.8-5.52 2.81-8.23 2.65-7.3 6.21-14.3 10-21.07-2.49 21.32-2.13 43.08 1.45 64.26 5.32 32 17.77 62.83 36.17 89.55 20.62 30.17 48.68 55.11 81.14 71.91-8.23 12.73-14.64 26.51-17.96 41.36-16.64-5.92-34.66-13.51-47.62-25.84-4.7-4.5-9.22-8.94-12.53-14.61-1.3-2-4.04-2.42-5.56-.4-12.82 15.59-27.8 29.54-43.56 42.11 1.99-9.91 2.79-19.97 2.92-30.06.59-10.67.56-21.33.02-32-.17-16.38-1.35-32.67-2.65-48.98-3.22-37.11-7.98-74.64-15.82-111.08-2.18-7.76-3.53-15.54-5.18-23.45-1.56-8.22-2.89-16.09-1.51-24.47 3.77-26.28 16.09-48.93 27.2-72.54 5.76-11.6 11.53-23.2 17.43-34.73 9.68-17.93 18.95-35.09 32.19-50.77 4.6-5.13 9.9-10.84 16.15-13.91 5.16-2.62 10.47-3.69 16.06-4.94 16.56-3.5 32.8-8.32 48.86-12.86 7.83-2.1 15.71-4.03 23.56-6.04Z" fill="rgba(171, 42, 24, 1)"/></g></g></svg>