<svg xmlns:dc="http://purl.org/dc/elements/1.1/" xmlns:cc="http://creativecommons.org/ns#" xmlns:rdf="http://www.w3.org/1999/02/22-rdf-syntax-ns#" xmlns:svg="http://www.w3.org/2000/svg" xmlns="http://www.w3.org/2000/svg" viewBox="0 0 762 762" fill="none"><metadata><rdf:RDF><cc:Work><dc:format>image/svg+xml</dc:format><dc:type rdf:resource="http://purl.org/dc/dcmitype/StillImage"/><dc:title>Adventurer</dc:title><dc:creator><cc:Agent><dc:title>Lisa Wischofsky</dc:title></cc:Agent></dc:creator><dc:source>https://www.instagram.com/lischis_adventures/</dc:source><cc:license rdf:resource="https://creativecommons.org/licenses/by/4.0/"/></cc:Work><cc:License rdf:about="https://creativecommons.org/licenses/by/4.0/"><cc:permits rdf:resource="https://creativecommons.org/ns#Reproduction"/><cc:permits rdf:resource="https://creativecommons.org/ns#Distribution"/><cc:permits rdf:resource="https://creativecommons.org/ns#DerivativeWorks"/><cc:requires rdf:resource="https://creativecommons.org/ns#Notice"/><cc:requires rdf:resource="https://creativecommons.org/ns#Attribution"/></cc:License></rdf:RDF></metadata><mask id="avatarsRadiusMask"><rect width="762" height="762" rx="0" ry="0" x="0" y="0" fill="#fff"/></mask><g mask="url(#avatarsRadiusMask)"><path d="M396.01 164.85c37.82 4.9 74.21 19.64 104.8 42.39 6.15 4.84 12.48 9.33 18.02 14.92 23.77 21.98 42.73 49.02 55.13 78.95 9.35 22.31 14.72 46.04 16.64 70.14 6.62.81 13.05 2.14 19.12 5 15.54 6.93 27.08 20.94 31.78 37.21 2.63 9.56 3.56 19.75 1.72 29.55-2.96 18.76-13.72 36.13-29.37 46.92-10.94 7.65-24.49 12.03-37.86 11.68-5.13-.05-10.04-1.6-15.13-1.79-1.85 2.17-3.23 4.84-4.76 7.25-18.66 29.62-44.57 54.51-74.64 72.4-28.1 16.73-59.9 27.16-92.46 30.32-11.08.7-21.87 2.05-32.98.74-51.69-2.3-102.07-23.44-140.15-58.43-29.03-26.55-50.84-60.83-62.54-98.39-7.09-22.85-10.62-46.78-10.07-70.71.52-40.34 12.53-80.58 33.94-114.76 19.1-30.81 45.91-56.58 77.2-74.83 29.63-17.28 63.35-27.68 97.59-29.87 14.66-1.47 29.44-.37 44.02 1.31Z" fill="#000"/><path d="M363 169.06c48.47-1.39 97.32 14.7 135.81 44.12 6.55 4.06 11.72 9.49 17.36 14.64 24.33 22.63 43.2 50.95 54.93 82.02 7.43 19.61 11.86 40.2 13.56 61.09-8.89.74-17.34 2.34-25.38 6.38-2.19 1.03-1.89 4.95.68 5.23 2.35.23 4.98-1.51 7.24-2.2 14.62-5.37 31.32-4.35 44.78 3.68 11.69 6.78 20.09 18.16 23.89 31.06 2.6 8.25 2.68 17.41 1.76 25.95-2.5 17.35-12.35 33.73-26.73 43.81-15.71 11.33-37.17 14.64-54.93 6.2-3.17-1.43-5.94-3.58-9.08-5.05-2.95-1.09-4.88 2.79-2.7 4.75 3.17 2.76 7.34 4.52 11 6.56-20.14 34.15-49.45 62.7-84.41 81.47-30.2 16.31-64.44 25.53-98.78 26.15-27.63.72-55.33-4.04-81.21-13.72-30.32-11.24-57.84-29.43-80.37-52.6-22.67-23.37-39.92-51.88-50.2-82.77-14.96-44.64-14.91-94.01.27-138.59 11.05-33.06 30.28-63.21 55.37-87.39 29.67-28.73 67.65-48.54 108.13-56.67 12.8-2.52 25.94-4.24 39.01-4.12Z" fill="rgba(118, 57, 0, 1)"/><path d="M605.03 404.4c2.63-.1 3.44 3.8 1.36 4.98-3.69 1.83-7.82 2.77-11.64 4.35-5.82 2.04-11.28 4.76-16.68 7.72 4.29 2.34 8.86 4.74 12.71 7.76 2.58 2.09 4.85 4.35 5.33 7.8-.26 3.59-2.73 6.55-5.45 8.69-5.86 4.66-13.92 7.18-20.79 10.26-1.75.62-4.43 1.99-5.59-.26-1.02-1.74-.06-3.11 1.57-3.87 6.65-3.3 14.86-5.62 20.79-10.16 1.37-1.14 3.39-2.74 3.61-4.62-4.07-5.63-12.42-8.59-18.23-12.09-2.34-1.72-2.29-4.24-.16-6.13 7.27-5.64 16.98-9.26 25.57-12.38 2.42-.83 5.03-1.95 7.6-2.05Z" fill="#000"/><g transform="translate(-161 -83)"><path d="M554.99 424.09c15.56-.47 31.18 4.79 43.19 14.7 9.2 7.44 16.2 17.65 20.32 28.71 2.1 5.56 2.58 11.13 3.64 16.92-1.32 1.48-1.69 3.34-4.05 3.02-7.04-.31-13.96-2.04-21.03-2.22-8.77-.09-17.381-.37-26.091.95-9.84 1.63-19.519 2.64-29.069 5.72-11.24 3.04-22.07 7.25-32.49 12.45-3.36 1.62-6.47 3.76-9.89 5.22-2.08.77-4.42.35-5.29-1.92-2.28-7.19-2.82-15.19-2.45-22.69.94-15.99 8.12-31.4 19.67-42.5 11.64-11.32 27.3-17.95 43.54-18.36Z" fill="#000"/><path d="M557 429.85c15.33-.23 30.41 6.15 41.39 16.75 9.87 9.5 15.83 22.19 17.69 35.7-14.89-2.86-29.99-3.76-45.11-2.49-5.99.69-11.93 1.87-17.87 2.88-.91-3.26-1.74-6.35-3.55-9.25-5.97-9.96-19.33-15.24-30.34-11.14-7.24 2.35-13.12 7.85-15.96 14.91-3.08 7.37-2.28 15.5 1.22 22.59-1.92.97-3.83 1.94-5.74 2.91-5.12-21.71 3.1-45.53 20.44-59.53 10.54-8.6 24.19-13.57 37.83-13.33Z" fill="#fff"/><path d="M411.45 452.57c13.11 6.46 23.28 18.27 27.77 32.17 3.17 9.49 3.14 19.25 1.59 29.04-.96.52-1.92 1.05-2.88 1.57-9.78-2.77-19.77-4.68-29.91-5.44-17.91-1.13-36.17-1.69-54.05.02-6.9.17-13.47 2.03-20.42 1.58-.89-2.44-1.7-4.84-1.7-7.47-.18-10.31 2.22-20.81 7.45-29.76 6.91-12.04 18.47-21.18 31.78-25.14 13.26-4.05 27.97-2.75 40.37 3.43Z" fill="#000"/><path d="M397.24 453.61c10.7 2.33 20.53 8.2 27.52 16.64 8.89 10.61 13 24.91 11.07 38.62-4.06-1.25-8.12-2.4-12.33-3.02-12.45-1.82-25.08-2.6-37.65-2.38-.06-3.82.07-7.39-1.47-10.98-3-7.74-10.12-13.39-18.35-14.5-10.08-1.52-20.42 4.34-24.35 13.74-2.23 4.9-1.78 9.64-1.96 14.85-1.73-1.26-1.94-1.37-1.99-3.52-.54-12.06 4.06-24.34 11.92-33.45 11.49-13.49 30.27-19.84 47.59-16Z" fill="#fff"/></g><g transform="translate(-161 -83)"><g fill="#000"><path d="M606.99 397.59c1.52-.4 3.26.6 4.74.97-.11 1.2-.17 2.45-.47 3.61-1.58 1.49-3.57 2.61-5.39 3.78-22.77 14.6-46.18 28.4-70.32 40.63-11.53 5.73-23.34 11.3-35.55 15.44-6.86 2.19-13.72 4.28-21.01 3.44-3.31-.31-6.16-3.02-6.23-6.43-.04-4.22 3-8.6 5.08-12.15 1.28-2.68 4.5-3.04 6.99-4.12 37.24-13.75 74.44-27.65 111.67-41.45 3.48-1.23 6.91-2.81 10.49-3.72ZM338.99 432.64c29.88 5.94 60.13 12.03 90.02 18.02 2.27.32 4.6.07 6.85.45 2.45 2.3 3.64 6.21 4.54 9.37 1.17 4.09-.15 8.77-3.91 11.01-4 2.62-9.91 2.16-14.5 1.89-8.74-1-17.41-3.8-25.68-6.74-19.61-7.16-38.69-16.93-56.97-26.97-1.67-.96-3.68-1.94-4.79-3.55-.38-2.88 1.85-4.16 4.44-3.48Z"/></g></g><g transform="translate(-161 -83)"><path d="M476.979 628.88c10.2-.52 20.43 4.48 27.46 11.67 5.06 5.1 8.39 11.32 10.89 18 .52 3.48 2.26 6.4-1.37 8.77-8.33.15-16.63.8-24.96 1-12.29.95-24.72.47-36.92 1.94-1.96-1.87-2.34-3.75-2.6-6.38-.98-8.6 1.23-17.86 6.72-24.66 5-6.28 12.77-10.08 20.78-10.34Z" fill="#000"/><path d="M484.479 635.49c12.63 3.09 22.12 13.94 25.51 26.24-18.28.41-36.54 1.67-54.78 2.21-.69-8.6 1.23-17 7.57-23.16 5.82-5.68 13.94-7.02 21.7-5.29Z" fill="#8F2E45"/></g><g transform="translate(-161 -83)"/><g transform="translate(-161 -83)"><path d="M558.951 229.03c42.79 5.47 86.55 16.98 124.87 37.14 25.87 13.7 50.73 32.25 67.08 56.9 4.03 5.76 5.84 12.02 8.5 18.42 4.82 11.93 7.66 24.08 10.94 36.48 8.15 31 18.05 61.58 29.08 91.67 12.75 34.88 27.1 69.13 43.48 102.47 1.38 2.89 3.07 5.61 4.58 8.44.79 1.29.95 2.64-.07 3.87-4.2 5.3-10.21 9.55-15.88 13.17-12.36 7.78-26.12 13.86-39.74 19.06-17.53 6.75-35.51 12.03-53.78 16.4-19.33 4.41-39.19 8.1-59.01 9.27-3.88.27-7.08 1.24-10.63-.99.44-2.51.4-4.67 2.51-6.43 5.57-5.07 11.11-10.17 16.19-15.75-20.68 10.84-42.26 20.23-64.53 27.32-2.9.78-6.51 2.34-9.5 1.63-1.91-.9-2.18-2.76-1.41-4.57 8.68-19.2 12.22-41.76 15.07-62.52 2.75-23.29 4.35-46.56 4.27-70.01.17-18.2-.06-36.52-1.73-54.65-37.54-3.85-74.6-14.97-108.79-30.81-24.29-11.44-48.04-25.91-68.03-43.92-8.73-7.82-16.61-16.49-23.4-26.05-1.18 9.47-.96 18.92-.91 28.43.04 3.6.31 7.14 1.33 10.62.3 1.71 1.19 3.24-.05 4.78-1.13 1.71-3.72 1.12-5.36.59-13.04-4.41-23.45-13.85-30.45-25.57-7.23-12.18-10.64-26.3-10.09-40.44-12.51 9.15-22.51 20.24-32.34 32.12-12.23 14.92-23.97 31.11-32.67 48.37-1.41 2.75-2.68 5.53-3.37 8.56-10.56 47.51-4.58 98.34 16.78 142.08 16.83 34.93 43.23 65.08 75.57 86.46 1.23.82 2.49 1.63 3.58 2.62.7 1.71.91 3.01-.43 4.47-2.39 1.45-5.35 2.07-7.99 2.95-21.93 6.94-44.06 13.5-65.68 21.35-21.93 7.99-43.23 17.6-65.19 25.49-1.48-.94-2.4-1.89-3.38-3.35 3.59-7.74 9.35-14.05 12.51-22.1 9.79-24.32 9.99-51.18 9.35-77-.01-14.72-1.27-29.31-1.91-44-1.4-21.67-2.62-43.28-3.34-64.99-.54-27.33-2.12-55.73-.08-83.02 1.38-22.02 5.38-44.24 13.1-64.95 2.93-8.14 7.28-15.5 13.27-21.76 4.93-5.04 9.88-10.17 15.26-14.73 5.27-4.53 10.94-8.33 16.41-12.67 15.83-12.45 31.02-25.71 47-37.98 15.54-12.15 32.73-23.31 50.98-30.93 6.82-2.61 13.75-4.55 21.11-4.62 32.31-2.3 64.79-1.35 96.92 2.68Z" fill="#000"/><path d="M512.029 231.18c48.03 1.54 97.38 9.85 142.16 27.69 20.17 8.07 40 18.43 57.36 31.56 13.45 10.21 26.05 22.58 35.21 36.82 2.92 4.41 5.03 9.23 6.66 14.24 2.52 7.89 5.94 15.35 7.68 23.5 8.47 35.02 19.38 69.33 31.6 103.22 13.41 36.54 28.2 72.75 45.58 107.6 1.05 2.22 2.24 4.32 3.6 6.37-6.44 6.13-13.67 11.04-21.5 15.2-21.42 11.5-45.25 19.7-68.65 26.14-24.31 6.64-49.09 11.35-74.24 13.22 7.93-7.18 15.43-14.78 22.24-23.02 1.37-1.68 2.86-3.16 4.75-4.25 6.22-3.65 12.3-7.57 18.14-11.81 1.4-.95 2.15-2.33 3.08-3.71-1.18-1.25-1.77-2.49-3.73-2.44-2.92 1.32-5.48 3.54-8.17 5.28-10.55 7.05-21.68 13.26-32.94 19.1-19.85 10-40.54 19.11-61.85 25.54 5.54-14.49 8.81-30.13 11.3-45.41 3.94-24.86 5.79-49.85 6.47-74.99.48-33.68-.48-66.73-5.93-100.04-.27-1.55-.85-3.63-2.85-3.38-2.95-.22-3.12 2.38-2.78 4.6 1.55 9.43 2.75 18.91 3.56 28.44-34.23-4.03-67.73-13.41-99.24-27.36-21.3-9.47-42-21.12-60.52-35.32-11.48-8.87-22.5-19.07-31.33-30.62-2.43-3.12-4.16-6.25-7.22-8.83-1.3-1.38-2.8-1.09-4.48-.69-1.95 2.03-2.29 4.48-2.59 7.15-1.46 12.71-1.86 25.75-.17 38.45-7.28-2.8-13.78-7.98-18.83-13.86-17.36-20.53-20.44-52.48-6.43-75.59 1.17-1.88 1.48-4.26-.83-5.38-2.29-.27-2.93.74-4.12 2.4-5.14 8.19-7.77 17.21-9.21 26.71-12.46 7.4-23.07 18.7-32.67 29.44-9.12 10.63-17.7 21.78-25.43 33.47-9.83 14.73-17.74 30.79-23.36 47.59-1.76 5.81-3.42 11.82-4.08 17.85-.05 2.91 2.91 4.18 5.05 2.21.64-1.59 1.02-3.3 1.51-4.94-3.08 41.61 5.55 83.86 25.08 120.75 17.09 32.57 42.33 60.79 72.8 81.38-25.22 8.11-51.64 15.73-76.72 25.43-16.32 6.22-32.23 13.34-48.45 19.81 4.74-7.11 8.92-14.47 11.33-22.74 8.19-25.28 7.62-51.75 7.15-77.99-.85-11.32-.8-22.66-1.75-33.97-.75-10.33-.93-20.7-1.9-31.01-.66-12.99-1.05-26-1.75-38.99-.68-23.33-.6-46.66-.53-70 .54-22.17 3.54-44.45 9.66-65.79 1.65-5.86 4.4-11.15 6.94-16.65 4.07-8.32 10.29-13.78 16.67-20.2 5.83-5.99 12.45-10.93 19.16-15.86 27.33-20.89 53.74-46.31 83.8-63.19 7.25-4.11 14.64-7.79 22.72-10 7.3-2.15 14.41-2.29 21.96-2.69 13.64-.78 27.36-.5 41.03-.44Z" fill="rgba(219, 163, 190, 1)"/></g></g></svg>