<svg xmlns:dc="http://purl.org/dc/elements/1.1/" xmlns:cc="http://creativecommons.org/ns#" xmlns:rdf="http://www.w3.org/1999/02/22-rdf-syntax-ns#" xmlns:svg="http://www.w3.org/2000/svg" xmlns="http://www.w3.org/2000/svg" viewBox="0 0 762 762" fill="none"><metadata><rdf:RDF><cc:Work><dc:format>image/svg+xml</dc:format><dc:type rdf:resource="http://purl.org/dc/dcmitype/StillImage"/><dc:title>Adventurer</dc:title><dc:creator><cc:Agent><dc:title>Lisa Wischofsky</dc:title></cc:Agent></dc:creator><dc:source>https://www.instagram.com/lischis_adventures/</dc:source><cc:license rdf:resource="https://creativecommons.org/licenses/by/4.0/"/></cc:Work><cc:License rdf:about="https://creativecommons.org/licenses/by/4.0/"><cc:permits rdf:resource="https://creativecommons.org/ns#Reproduction"/><cc:permits rdf:resource="https://creativecommons.org/ns#Distribution"/><cc:permits rdf:resource="https://creativecommons.org/ns#DerivativeWorks"/><cc:requires rdf:resource="https://creativecommons.org/ns#Notice"/><cc:requires rdf:resource="https://creativecommons.org/ns#Attribution"/></cc:License></rdf:RDF></metadata><mask id="avatarsRadiusMask"><rect width="762" height="762" rx="0" ry="0" x="0" y="0" fill="#fff"/></mask><g mask="url(#avatarsRadiusMask)"><path d="M396.01 164.85c37.82 4.9 74.21 19.64 104.8 42.39 6.15 4.84 12.48 9.33 18.02 14.92 23.77 21.98 42.73 49.02 55.13 78.95 9.35 22.31 14.72 46.04 16.64 70.14 6.62.81 13.05 2.14 19.12 5 15.54 6.93 27.08 20.94 31.78 37.21 2.63 9.56 3.56 19.75 1.72 29.55-2.96 18.76-13.72 36.13-29.37 46.92-10.94 7.65-24.49 12.03-37.86 11.68-5.13-.05-10.04-1.6-15.13-1.79-1.85 2.17-3.23 4.84-4.76 7.25-18.66 29.62-44.57 54.51-74.64 72.4-28.1 16.73-59.9 27.16-92.46 30.32-11.08.7-21.87 2.05-32.98.74-51.69-2.3-102.07-23.44-140.15-58.43-29.03-26.55-50.84-60.83-62.54-98.39-7.09-22.85-10.62-46.78-10.07-70.71.52-40.34 12.53-80.58 33.94-114.76 19.1-30.81 45.91-56.58 77.2-74.83 29.63-17.28 63.35-27.68 97.59-29.87 14.66-1.47 29.44-.37 44.02 1.31Z" fill="#000"/><path d="M363 169.06c48.47-1.39 97.32 14.7 135.81 44.12 6.55 4.06 11.72 9.49 17.36 14.64 24.33 22.63 43.2 50.95 54.93 82.02 7.43 19.61 11.86 40.2 13.56 61.09-8.89.74-17.34 2.34-25.38 6.38-2.19 1.03-1.89 4.95.68 5.23 2.35.23 4.98-1.51 7.24-2.2 14.62-5.37 31.32-4.35 44.78 3.68 11.69 6.78 20.09 18.16 23.89 31.06 2.6 8.25 2.68 17.41 1.76 25.95-2.5 17.35-12.35 33.73-26.73 43.81-15.71 11.33-37.17 14.64-54.93 6.2-3.17-1.43-5.94-3.58-9.08-5.05-2.95-1.09-4.88 2.79-2.7 4.75 3.17 2.76 7.34 4.52 11 6.56-20.14 34.15-49.45 62.7-84.41 81.47-30.2 16.31-64.44 25.53-98.78 26.15-27.63.72-55.33-4.04-81.21-13.72-30.32-11.24-57.84-29.43-80.37-52.6-22.67-23.37-39.92-51.88-50.2-82.77-14.96-44.64-14.91-94.01.27-138.59 11.05-33.06 30.28-63.21 55.37-87.39 29.67-28.73 67.65-48.54 108.13-56.67 12.8-2.52 25.94-4.24 39.01-4.12Z" fill="rgba(118, 57, 0, 1)"/><path d="M605.03 404.4c2.63-.1 3.44 3.8 1.36 4.98-3.69 1.83-7.82 2.77-11.64 4.35-5.82 2.04-11.28 4.76-16.68 7.72 4.29 2.34 8.86 4.74 12.71 7.76 2.58 2.09 4.85 4.35 5.33 7.8-.26 3.59-2.73 6.55-5.45 8.69-5.86 4.66-13.92 7.18-20.79 10.26-1.75.62-4.43 1.99-5.59-.26-1.02-1.74-.06-3.11 1.57-3.87 6.65-3.3 14.86-5.62 20.79-10.16 1.37-1.14 3.39-2.74 3.61-4.62-4.07-5.63-12.42-8.59-18.23-12.09-2.34-1.72-2.29-4.24-.16-6.13 7.27-5.64 16.98-9.26 25.57-12.38 2.42-.83 5.03-1.95 7.6-2.05Z" fill="#000"/><g transform="translate(-161 -83)"><path d="M587.369 431.61c12.06 6.36 21.92 16.48 27.94 28.71 5.58-3.45 11.26-6.72 16.83-10.19 1.56-.93 3.14-1.94 4.89-2.46 1.93.56 2.77 1.31 2.72 3.44-.47 1.3-1.75 2-2.83 2.76-6.46 3.95-13.07 7.67-19.41 11.81 6.07 14.16 5.97 31.18.81 45.61-5.25 14.83-16.12 27.57-29.9 35.15-13.07 7.36-28.89 9.8-43.59 7.01-17.87-3.24-34.06-14.37-43.5-29.88-6.26-10.02-9.68-21.74-9.64-33.57-.39-16.27 5.85-32.52 16.82-44.51 9.47-10.42 22.53-17.95 36.46-20.29 14.28-2.79 29.56-.38 42.4 6.41Z" fill="#000"/><path d="M549.2 430.27c14.66-1.79 29.31 1.59 41.46 10.02 11.31 7.71 19.81 19.52 23.46 32.72 3.93 13.37 2.78 28.27-3.06 40.93-6.21 13.86-18.05 25.26-32.25 30.69-9.99 4.03-21.2 5.35-31.81 3.41-16.4-2.64-31.48-12.62-40.35-26.67-5.6-8.78-8.75-18.97-9.37-29.35-.6-14.45 4.24-29.14 13.41-40.34 9.45-11.74 23.58-19.52 38.51-21.41Z" fill="#fff"/><path d="M414.691 454.33c11.57 6.69 20.45 17.75 24.54 30.46 2.68 8.02 3.17 16.86 2.07 25.21-2.04 13.95-9.65 26.85-20.85 35.42-11.38 8.76-26.19 12.83-40.44 10.89-15.79-1.82-30.36-11-39.03-24.29-5.54-8.33-8.47-18.05-9.1-28-.32-7.07 1.17-13.62 2.92-20.39-4.34-2.73-8.65-5.59-12.81-8.6-1.7-1.23-1.83-2.14-1.53-4.17 1.3-1.26 2.74-1.59 4.35-.65 4.19 2.57 8.15 5.53 12.25 8.24 6.69-14.02 19.04-24.86 33.97-29.29 14.45-4.44 30.64-2.5 43.66 5.17Z" fill="#000"/><path d="M378.2 453.3c18.68-3.52 38.38 4.71 49.14 20.33 7.5 10.77 10.85 24.96 7.88 37.84-1.96 10-7.13 19.25-14.57 26.2-8.04 7.66-18.62 12.27-29.65 13.27-20.13 1.85-40.14-9.82-48.62-28.14-7.66-15.97-5.84-35.51 4.6-49.81 7.37-10.31 18.75-17.43 31.22-19.69Z" fill="#fff"/><path d="M526.47 467.49c12.01-2.85 24.87 4.22 29.35 15.63 2.22 6.02 2.33 12.74-.08 18.72-3.17 8.32-10.91 14.59-19.71 15.93-7.62 1.33-15.75-1.14-21.43-6.37-7.55-6.85-10.31-18.03-6.76-27.6 2.92-8.29 10.06-14.42 18.63-16.31ZM398.22 478.36c9.49-1.98 19.61 2.59 24.44 10.99 3.46 5.6 3.67 12.27 2.25 18.54-2.37 7.24-8.51 13.23-15.87 15.27-7.51 2.4-16.26.06-21.98-5.24-7.35-6.81-9.49-18-5.05-27 3.07-6.51 9.18-11.12 16.21-12.56Z" fill="#000"/></g><g transform="translate(-161 -83)"><g fill="#000"><path d="M530.96 352.34c21.47-3.31 42.8 3.14 60.6 15.09 12.06 8.19 22.9 19.68 28.97 33.03 1.1 2.96-.3 3.73-2.51 5.27-3.95-2.26-6.87-5.58-10.47-8.29-12.99-9.78-28.03-16.38-43.78-20.25-14.93-3.51-30.56-5.05-45.8-2.8-4.78.41-9.28 1.92-13.97 2.67-2.41.2-5.1-1.21-4.21-4.04 1.9-4.15 4.23-8.5 7.6-11.65 6.04-5.62 15.64-7.85 23.57-9.03ZM383 428.83c13.38-.82 26.33-.61 39.03 4.23 5.85 2.37 11.52 5.91 13.93 12.05 1.38 4.31.91 8.87-1.73 12.61-4.9-.76-9.4-2.6-14.18-3.82-23.13-6.33-47.19-8.01-71.04-5.96-4.88.33-9.86 2.03-14.72 1.78-1.78-.48-1.17-2.2-.97-3.54.88-2.51 3.58-3.86 5.76-5.09 13.75-7.25 28.55-10.65 43.92-12.26Z"/></g></g><g transform="translate(-161 -83)"><path d="M526 559.6c18.01-.01 37.23 2.15 53.99 9.09-52.2 7.17-107.15 15.07-158.98 22.2 8.03-6.99 17.68-12.32 27.44-16.47 12.23-5.1 26.26-9.18 39.59-7.43.98.15 1.86.04 2.63-.34 10.24-5.91 23.77-6.7 35.33-7.05Z" fill="#D31E1E"/><path d="M579.989 568.69c2.42 1 1.92 3.4 1.38 5.45-6.78 13.35-16.08 25.18-28.35 33.9-17.19 12.49-38.88 18.4-60.02 17.58-26.81-.96-53.07-12.04-73.44-29.31-.4-2.42-.49-3.71 1.45-5.42 51.83-7.13 106.78-15.03 158.98-22.2Z" fill="#000"/><path d="M581.371 574.14c-1.11 4.61-1.85 9.19-3.65 13.62-5.36 13.94-16.05 25.4-28.38 33.56-13.59 8.87-29.26 14.15-45.36 15.89-19.66 2.09-40.79-1.09-58.01-11.18-11.76-6.82-21.37-16.99-26.41-29.72 20.37 17.27 46.63 28.35 73.44 29.31 21.14.82 42.83-5.09 60.02-17.58 12.27-8.72 21.57-20.55 28.35-33.9Z" fill="#D31E1E"/><path d="M573.86 575.51c-8.17 15.05-20.98 27.46-36.37 34.99-12.46 6.12-26.6 9.44-40.49 9.19-24.71.18-49.01-9.01-68.58-23.87 47.93-6.59 97.73-13.8 145.44-20.31Z" fill="#fff"/></g><g transform="translate(-161 -83)"/><g transform="translate(-161 -83)"><path d="M605.03 153.94c5.06 1.75 10.2 4.26 14.2 7.88 1.62 1.23 1.71 4.27-.42 4.97-4.54.67-9.08.35-13.55 1.7-7.65 1.99-13.97 6.34-18.97 12.39 15.97-4.22 33.12-2.17 48.56 3.23 16.95 6 33.39 16.26 44.82 30.3 7.18 8.85 12.64 19.91 11.44 31.59-.41 5.24-2.73 9.65-5.6 13.94 31.54 18.35 58.36 43.87 74.75 76.78 9.72 19.63 15.01 41.37 15.15 63.28.05 19.37-4.23 38.88-11.67 56.74-.92 1.74-1.49 3.93-3.87 3.91-4.73-.12-8.99-1.65-13.86-.96-7.95 1.05-15.73 2.12-23.22 5.1-4.12 1.65-8.98 2.8-12.57 5.42-4.13 4.53-6.91 10.13-11.28 14.52-1.1-.88-2.19-1.68-3.13-2.73-.14-2.04 1.4-3.97 2.47-5.6 3.99-5.44 7.92-10.93 12.03-16.28-5.29 2.67-10.21 6.08-15.56 8.6-2.28 1.28-5.19-.2-5.44-2.81-.79-6.23-.25-12.63-.75-18.9-1.46-17.58-.44-34.77 1.12-52.28-1.66 2.97-3.21 6.02-5.07 8.87-1.08 1.93-3.94 2.93-5.87 1.66-10.18-5.81-19.34-13.08-27.11-21.88-9.08-10.29-19.08-20.73-24.7-33.31-5.1-10.39-6.83-21.58-7.06-33.07.19-5.93.76-11.85 1.04-17.78-3.46 3.1-7.05 6.06-10.45 9.23-1.4 1.25-2.87 2.72-4.55 3.57-1.75.53-3.49-.28-4.11-2-1.17-3.24-1.57-6.79-2.26-10.15-4.41 3.14-8.74 6.37-13.11 9.57-2.62 1.96-5.47 3.49-8.67 4.25-11.01 2.4-21.62 2.48-32.79 2.74-9.99.52-19.98.04-29.98.47-14.6.43-28.27.95-42.2-4.31.61 2.8 1.5 5.61 1.77 8.47-.21 2.24-1.87 3.09-3.77 3.73-12.43 3.61-24.73 6.58-37.79 6.34-12.45-.55-24.43-2.63-35.51-8.57-4.74-2.45-8.76-5.73-13.04-8.85-.28 4.15.94 8.19.75 12.29-1.34 1.55-3.21 1.87-4.96.79-2.34-1.7-4.24-4.11-6.19-6.23.2 3.09.77 6.43.23 9.5-.9 1.65-2.7 2.27-4.38 2.83-4.59 1.36-9.19 1.99-13.94 2.52-8.48 9.68-14.74 20.45-20.64 31.82-1.32 2.46-2.27 5.45-4.16 7.52-1.22.19-2.29.04-3.2-.47-1.7-3.03-1.61-7.04-2.87-10.32-2.66-7.48-4.31-15.19-5.68-22.99-1.62-10.42.41-20.28 3.31-30.24 2.27-6.83 5.87-13.07 10.33-18.7 8.61-10.94 19.25-19.6 30.87-27.14 21.59-13.91 46.16-23.67 70.87-30.4a334.19 334.19 0 0 1 99.72-10.56c-4.48-4.58-8.02-9.8-9.45-16.13-2.44-9.07-.16-18.38 4.33-26.4 6.55-11.37 17.42-19.72 29.4-24.76 14.65-6.1 31.01-7.67 46.24-2.7Z" fill="#000"/><path d="M608.63 161.66c-7.08 1.69-13.77 3.79-19.53 8.43-8.46 6.5-13.88 16.35-15.25 26.9-1.59 10.58.82 20.89 5.43 30.41-10.48-1.2-20.84-2.37-31.33-2.67-3.19.13-5.54-1.89-7.91-3.75-5.99-4.96-10.09-12.05-10.01-19.98-.33-8.66 3.32-16.62 8.81-23.12 9-10.61 22.37-17.6 35.97-20.05 11.41-2.21 23.29-1.28 33.82 3.83Z" fill="rgba(86, 35, 6, 1)"/><path d="M619.83 185.95c18.78 3.91 36.9 13.12 50.54 26.69 7.27 7.36 13.7 16.96 15.09 27.4.88 6.3-1.34 12.07-5.09 17.03-16.52-8.98-34.22-16.11-52.32-21.16-13.69-3.21-27.7-5.28-41.59-7.47-7.18-11.93-9.72-26.39-4.62-39.64 4.32-1.61 8.57-3.21 13.19-3.78 8.39-1.57 16.49-.58 24.8.93ZM534 229.78c11.03.2 21.99 1.07 32.97 2.02 17.43 1.8 34.6 4.83 51.84 7.87 11.34 2.34 22.42 6.23 33.19 10.44 31.59 12.62 60.83 31.92 82.76 58.14 18.07 21.62 30.39 47.62 33.82 75.72.37 4.01.66 8.03.99 12.04.48 6.27-.48 12.53-.85 18.98-1.41 13.77-5.17 27.06-10.42 39.84-9.77-1.79-18.8.24-28.33 2.12-4.51.71-8.75 2.85-13.19 4.26 1.91-2.79 4.22-5.45 5.73-8.48.82-2.27.1-4.28-2.54-4.53-2.35.73-4.35 2.06-6.41 3.36-6.14 3.96-12.53 7.54-18.82 11.26-.73-20.22-1.51-40.68-.04-60.8.43-6.02 1.43-12.06 1.48-18.09-.01-2.97-3.13-4.26-5.09-1.86-4.15 5.37-6.79 11.96-10.33 17.77-4.77-3.04-9.51-6.08-13.87-9.71-6.2-4.98-11.05-10.75-16.35-16.66-6.52-7.57-12.88-14.65-17.32-23.7a68.368 68.368 0 0 1-7.6-32.77c.12-7.48-.27-14.63 1.56-21.97.22-1.75 1-4.3-1.36-4.84-2.08-.66-3.81 1.19-5.33 2.32-4.73 4.09-9.5 8.14-14.18 12.29-.71-2.87-1.06-6.04-2.32-8.72-.93-2.16-3.81-2.77-5.75-1.72-6.39 4.1-12.24 9.19-18.79 13.01-7.64 2.21-16.51 2.51-24.45 3.18-14.67.55-29.33.19-44 .59-10.15-.06-21.33 1.1-31.06-1.87-3.5-.85-6.6-2.56-9.97-3.72-1.19-.19-3.25 1.12-3.08 2.44-.04 3.8 1.25 7.66 1.89 11.4-6.43 1.64-12.41 3.48-18.81 4.56-13.19 2.48-27.08 1.59-39.95-2.13-8.45-2.61-16.24-7.11-22.79-13.04-1.86-1.46-3.46-3.25-5.77-1.27-2.02 2.69-2.09 7.14-2.39 10.34-1.42-1.8-2.78-3.87-4.58-5.31-1.33-1.11-3.21-.21-4.78-.05-1.57 4.89-1.42 9.61-.88 14.64-7.48 2.22-15.08 2.94-22.85 3.19-1.69-.01-2.29 1.34-3.42 2.36.43.9.87 1.8 1.3 2.7 1.48.34 2.97.67 4.46.99-7.01 8.59-12.51 17.86-17.69 27.62-3.7-11.87-6.79-23.41-5.65-36 1.12-10.01 3.83-20.03 9.68-28.36 6.67-9.71 15.6-17.99 25.11-24.87 17.45-12.65 37.73-22.03 58.04-29.04 18.26-6.33 37.06-10.47 56.18-13.2 19.84-2.78 40-3.8 60.01-2.74Z" fill="rgba(86, 35, 6, 1)"/><path d="M716.09 470.52c2.58 2.45.44 4.33-1.22 6.37-5.96 6.51-11.18 13.55-16.46 20.61-1.42 2-3.07 1.07-5.15 1.14.16-1.86.05-3.54 1.24-5.11 4.91-6.96 10.53-13.5 16.1-19.95 1.69-1.62 2.79-3.61 5.49-3.06Z" fill="#000"/></g></g></svg>