<svg xmlns:dc="http://purl.org/dc/elements/1.1/" xmlns:cc="http://creativecommons.org/ns#" xmlns:rdf="http://www.w3.org/1999/02/22-rdf-syntax-ns#" xmlns:svg="http://www.w3.org/2000/svg" xmlns="http://www.w3.org/2000/svg" viewBox="0 0 762 762" fill="none"><metadata><rdf:RDF><cc:Work><dc:format>image/svg+xml</dc:format><dc:type rdf:resource="http://purl.org/dc/dcmitype/StillImage"/><dc:title>Adventurer</dc:title><dc:creator><cc:Agent><dc:title>Lisa Wischofsky</dc:title></cc:Agent></dc:creator><dc:source>https://www.instagram.com/lischis_adventures/</dc:source><cc:license rdf:resource="https://creativecommons.org/licenses/by/4.0/"/></cc:Work><cc:License rdf:about="https://creativecommons.org/licenses/by/4.0/"><cc:permits rdf:resource="https://creativecommons.org/ns#Reproduction"/><cc:permits rdf:resource="https://creativecommons.org/ns#Distribution"/><cc:permits rdf:resource="https://creativecommons.org/ns#DerivativeWorks"/><cc:requires rdf:resource="https://creativecommons.org/ns#Notice"/><cc:requires rdf:resource="https://creativecommons.org/ns#Attribution"/></cc:License></rdf:RDF></metadata><mask id="avatarsRadiusMask"><rect width="762" height="762" rx="0" ry="0" x="0" y="0" fill="#fff"/></mask><g mask="url(#avatarsRadiusMask)"><path d="M396.01 164.85c37.82 4.9 74.21 19.64 104.8 42.39 6.15 4.84 12.48 9.33 18.02 14.92 23.77 21.98 42.73 49.02 55.13 78.95 9.35 22.31 14.72 46.04 16.64 70.14 6.62.81 13.05 2.14 19.12 5 15.54 6.93 27.08 20.94 31.78 37.21 2.63 9.56 3.56 19.75 1.72 29.55-2.96 18.76-13.72 36.13-29.37 46.92-10.94 7.65-24.49 12.03-37.86 11.68-5.13-.05-10.04-1.6-15.13-1.79-1.85 2.17-3.23 4.84-4.76 7.25-18.66 29.62-44.57 54.51-74.64 72.4-28.1 16.73-59.9 27.16-92.46 30.32-11.08.7-21.87 2.05-32.98.74-51.69-2.3-102.07-23.44-140.15-58.43-29.03-26.55-50.84-60.83-62.54-98.39-7.09-22.85-10.62-46.78-10.07-70.71.52-40.34 12.53-80.58 33.94-114.76 19.1-30.81 45.91-56.58 77.2-74.83 29.63-17.28 63.35-27.68 97.59-29.87 14.66-1.47 29.44-.37 44.02 1.31Z" fill="#000"/><path d="M363 169.06c48.47-1.39 97.32 14.7 135.81 44.12 6.55 4.06 11.72 9.49 17.36 14.64 24.33 22.63 43.2 50.95 54.93 82.02 7.43 19.61 11.86 40.2 13.56 61.09-8.89.74-17.34 2.34-25.38 6.38-2.19 1.03-1.89 4.95.68 5.23 2.35.23 4.98-1.51 7.24-2.2 14.62-5.37 31.32-4.35 44.78 3.68 11.69 6.78 20.09 18.16 23.89 31.06 2.6 8.25 2.68 17.41 1.76 25.95-2.5 17.35-12.35 33.73-26.73 43.81-15.71 11.33-37.17 14.64-54.93 6.2-3.17-1.43-5.94-3.58-9.08-5.05-2.95-1.09-4.88 2.79-2.7 4.75 3.17 2.76 7.34 4.52 11 6.56-20.14 34.15-49.45 62.7-84.41 81.47-30.2 16.31-64.44 25.53-98.78 26.15-27.63.72-55.33-4.04-81.21-13.72-30.32-11.24-57.84-29.43-80.37-52.6-22.67-23.37-39.92-51.88-50.2-82.77-14.96-44.64-14.91-94.01.27-138.59 11.05-33.06 30.28-63.21 55.37-87.39 29.67-28.73 67.65-48.54 108.13-56.67 12.8-2.52 25.94-4.24 39.01-4.12Z" fill="rgba(158, 86, 34, 1)"/><path d="M605.03 404.4c2.63-.1 3.44 3.8 1.36 4.98-3.69 1.83-7.82 2.77-11.64 4.35-5.82 2.04-11.28 4.76-16.68 7.72 4.29 2.34 8.86 4.74 12.71 7.76 2.58 2.09 4.85 4.35 5.33 7.8-.26 3.59-2.73 6.55-5.45 8.69-5.86 4.66-13.92 7.18-20.79 10.26-1.75.62-4.43 1.99-5.59-.26-1.02-1.74-.06-3.11 1.57-3.87 6.65-3.3 14.86-5.62 20.79-10.16 1.37-1.14 3.39-2.74 3.61-4.62-4.07-5.63-12.42-8.59-18.23-12.09-2.34-1.72-2.29-4.24-.16-6.13 7.27-5.64 16.98-9.26 25.57-12.38 2.42-.83 5.03-1.95 7.6-2.05Z" fill="#000"/><g transform="translate(-161 -83)"><path d="M540.491 447.73c18.9-2.42 39.64-.58 56.96 7.8 8.55 4.17 16.74 10.3 21.22 18.89 3.9 7.34 3.91 16.76-.16 24.03-4.22 8.05-12.01 14.1-19.93 18.24-13.55 7.02-29.41 9.83-44.57 9.65-12.04.02-23.93-1.81-35.21-6.11-8.97-3.47-17.65-8.68-23.74-16.26-4.84-6.12-7.63-14.13-5.89-21.93 1.84-8.56 7.49-15.36 14.39-20.47 10.65-7.84 23.96-11.98 36.93-13.84Z" fill="#000"/><path d="M546.98 452.71c8.4-.27 17.24-.58 25.5 1.08 10.59 1.7 21.45 5.3 30.3 11.45 5.49 3.95 10.43 9.09 12.35 15.73 2.02 6.81-.27 14.13-4.75 19.45-6.1 7.46-15.56 12.38-24.55 15.43-9.89 3.26-20.41 5.08-30.83 4.84-10.21.27-20.5-1.38-30.23-4.45-9.19-3.05-18.45-7.69-24.78-15.23-4.29-5.04-6.9-12.45-4.86-18.97 1.51-6.55 6.69-12.06 11.94-15.96 11.4-8.26 26.07-12.06 39.91-13.37Z" fill="#fff"/><path d="M373.48 460.76c16.32-2.29 34.23-.91 49.1 6.64 7.74 3.99 15.42 10.43 17.96 19.07 2.33 7.1-.17 14.74-4.65 20.42-6.28 7.76-15.27 12.43-24.64 15.41-14.57 4.5-30.41 5.01-45.29 1.76-9.88-2.25-20.02-6.47-27.16-13.89-4.71-4.75-7.92-11.31-7.35-18.12.54-7.22 4.98-13.65 10.43-18.18 8.81-7.42 20.37-11.3 31.6-13.11Z" fill="#000"/><path d="M371.5 466.92c15.62-3 32.92-1.77 47.43 5.05 6.36 3.02 13.43 8.26 15.74 15.2 2.08 5.63.36 11.7-3.32 16.23-4.64 5.76-11.76 9.79-18.6 12.35-12.35 4.41-26.02 5.91-38.99 3.9-9.29-1.29-18.98-4.28-26.67-9.78-5.23-3.9-9.63-9.03-9.91-15.85-.19-6.85 4.17-12.52 9.29-16.58 7.13-5.51 16.25-8.79 25.03-10.52Z" fill="#fff"/><path d="M592.23 469.2c2.12-1.59 4.65-.32 5.95 1.66 2.39 4.01 2.38 9.6 2.79 14.14.21 4.39.49 9.64-1.22 13.75-1.98 4.07-7.41 1.34-8.7-1.8-2.28-6.35-2.19-13.75-1.68-20.4.42-2.36.64-5.94 2.86-7.35ZM416.851 476.07c2.18.53 2.81 3.77 3.31 5.63.82 5.03 1.38 10.25 1.06 15.34-.33 2.54-.69 5.69-3.12 7.13-2.07 1.29-4.27-.03-5.35-1.93-2.07-3.84-2.16-8.98-2.29-13.24.06-4.36-.11-8.73 2.24-12.56 1.44-.39 2.65-.96 4.15-.37Z" fill="#000"/></g><g transform="translate(-161 -83)"><g fill="#000"><path d="M452.03 395.85c.66 4.64-1.51 9.35-4.21 13-3.6 4.46-7.81 8.36-12.85 11.13-7.66 4.35-15.96 7.71-24.19 10.81-23.79 8.79-48.56 15.1-73.52 19.48-3.35.54-6.97 1.5-10.36 1.11-1.92-.92-2-2.82-1.11-4.52 2.34-1.8 5.49-2.72 8.19-3.89 35.94-14.72 71.88-29.45 107.8-44.2 3.36-1.25 6.59-3.38 10.25-2.92ZM478.97 396c49.32 7.61 98.68 15.15 148.01 22.75 2.58.42 5.33.58 7.81 1.41 2.44 1.14 1.7 5.04-.96 5.26-9.59.95-19.18 1.82-28.83 1.95-15.39.1-30.64.32-45.98-1.18-20.91-1.64-42.24-4.59-62.25-11.06-6.97-2.41-14.88-5.46-20.27-10.64-1.79-1.9-4.09-4.28-3.17-7.13 1.22-2.13 3.6-1.59 5.64-1.36Z"/></g></g><g transform="translate(-161 -83)"><path d="M535.03 562.93c9.64 1.78 18.64 8.36 22.66 17.39 3.3 7.3 4.24 15.75 3.54 23.68-1.11 11.35-7.23 22.08-14.99 30.25-8.71 9.49-20.78 15.9-33.24 18.82-20.17 4.42-41.87 5.15-62.03.33-14.26-3.37-27.76-9.79-38.58-19.78-4.46-4.23-8.91-9.14-10.92-15.05-2.64-7.62-2.32-16.43 1.48-23.6 3.34-6.26 9.94-10.43 17.04-10.63 12.69-.78 23.87 4.19 36.01 4.71 7.81.13 15.88-1.06 23.17-3.91 11.37-4.8 21.29-14.52 32.86-19.16 7.35-3.04 15.07-4.58 23-3.05Z" fill="#000"/><path d="M538.01 569.9c6.94 2.53 12.73 7.89 15.12 14.96-2.94 2.53-5.85 5.05-9.01 7.3-3.59 2.63-7.18 4.4-9.92 8.04-3.23 3.94-5.95 9.87-10.37 12.51-3.4-.38-6.67-2.87-9.83-4.06-2.45-.6-5.4.47-7.79 1.06-12.18 3.52-24.58 5.14-37.21 5.86-3.23.07-6.43.21-9.59.95 0 1.24.06 2.45.3 3.68 1.86 1.5 5 1.35 7.29 1.46 15.28-.56 30.32-3.14 45.01-7.29 3.68.11 9.34 5.23 13.89 3.53 5.34-2.5 8.93-9.06 12.36-13.63 1.89-2.72 4.51-4.05 7.17-5.86 3.36-2.22 6.46-4.74 9.56-7.28.65 5.61 1.08 11.34-.35 16.88-2.28 9.36-8.17 17.98-15.08 24.57-9.95 9.67-23.55 14.65-37.07 16.63-11.94 1.57-24.51 2.43-36.48.84-17.37-1.79-35.16-8.03-48.41-19.68-5.05-4.63-9.75-8.85-11.17-15.89-2.35-8.7.37-20.82 10.11-23.62 8.19-1.88 17.76.53 25.88 2.22 12.05 2.81 25.09 2.4 36.82-1.64 13.96-4.91 24.9-17.13 38.79-21.37 6.31-2.14 13.7-2.61 19.98-.17Z" fill="#fff"/></g><g transform="translate(-161 -83)"/><g transform="translate(-161 -83)"><path d="M375.55 193.45c2.29.84 2.42 2.81 3.16 4.82 1.6 6.11 5.41 11.82 9.28 16.74 4.64 5.47 9.71 10.7 16.39 13.62 7.97 3.49 17.14 5.25 25.62 7.11 14.17 2.79 28.59 4.48 42.98 5.6 15.33 1.57 30.62 1.41 46 2.34 20.31.07 40.75.62 61.02-.72 8.04-.01 16-.21 24.01-.94 10.03-.85 20-.5 30.02.32 10.29.7 20.48 3.01 30.49 5.39 7.68 2.72 15.47 5.31 22.79 8.9 24.69 10.84 47.05 26.91 65.21 46.85 21.41 23.46 36.94 52.42 42.96 83.71 3.99 21.66 3.31 44.78-3.41 65.84-2 7.32-4.69 14.36-9.06 20.62-4.22-3.25-7.94-6.65-13.02-8.62-12.04-6.25-26.11-6.86-39.01-3.08-2.85.59-3.47 2.94-4.95 5.08-9.69 15.52-21.69 29.57-35.87 41.17-8.97 7.15-18.54 13.76-28.35 19.71-1.01-.26-2.02-.53-3.03-.8-.15-3.14.07-6.02.7-9.1 1.43-7.33 1.48-14.57 1.61-22.01-.1-10.39-.27-20.69-1.6-31.01-1.24-11.29-3.14-22.56-4.96-33.78-7.05-.75-14.02-.48-21.03-1.56-36.12-4.41-70.63-19.63-99.94-40.93 1.11 8.39 3.5 14.36 8.72 21.01 2.13 2.34 1.82 5.91-.96 7.56-12.26 6.9-27.16 9.97-41.06 11.15-22.88 1.67-46.11-1.49-67.78-8.98-17.86-6.35-34.96-15.6-47.2-30.43-.38 8.22 1.11 16.73 4.47 24.26 1.24 2.34.37 5.24-2.02 6.44-9.71 5.18-20.85 5.81-31.55 4.06-13.94-2.8-25.87-10.22-35.99-20.01-2.35 7.35-3.77 14.91-5.85 22.34-1.73 6.79-2.4 13.84-3.65 20.73-1.65 2.24-4.43-.42-5.61-1.95-7.25-9.61-9.55-22.14-10.1-33.9.23-11.48 2.52-22.8 8.05-32.94-5.5-13.18-7.7-27.55-4.8-41.64-8.7 4.47-17.92 9.96-23.46 18.28-1.42 1.86-2.08 4.91-4.76 5.12-1.73-.49-3.15-1.13-4.01-2.78-6.07-10.44-8.14-23.33-6.77-35.25 1.44-14.25 7.67-27.95 16.1-39.41 12.27-16.55 30.01-29.25 49.65-35.46 11.99-3.75 25.44-5.47 37.82-2.9-7.36-14.86-4.93-34.66 6.11-47.09 1.7-1.66 3.94-4.65 6.64-3.48Z" fill="#000"/><path d="M373.68 200.56c3.8 11 11.32 21.1 20.31 28.43 7.26 5.9 16.11 8.1 25 10.28 32.12 7.51 66.11 9.27 99.01 10.04 25.98.19 52.08.37 78.03-.96 24.52-2.2 49.01-.52 72.46 7.33 35.02 11.44 66.47 33.71 89.06 62.8 17.7 22.88 29.91 49.67 33.52 78.52 2.99 22.98.01 46.56-9.68 67.69-5.71-3.68-11.96-6.54-18.42-8.61-9.91-2.71-20.7-2.63-30.63-.03.14-1.76.99-3.88 0-5.47-.9-1.43-3.66-1.25-4.12.62-1.31 3.26-2.7 6.42-4.59 9.39-9.51 15.6-21.46 29.82-35.41 41.63-7.28 6.24-15.18 11.35-23 16.83 2.31-14.15 2.32-28.8 1.04-43.05-1.01-17.38-4.35-34.86-7.51-51.98-1.05-4.6-1.58-9.81-3.63-14.08-1.19-2.26-4.96-1.88-4.75 1.1 1.05 4.73 2.41 9.33 3 14.17-40.43-.57-80.05-15.54-112.88-38.73-2.76-2.04-5.49-4.1-8.4-5.93-1.97.81-4.26.74-4.4 3.43.19 10.59 3.42 20.4 10.09 28.69-19.34 9.79-40.49 11.18-61.78 9.93-22.09-1.76-44.54-7.72-63.85-18.76-8.82-5.15-17.78-11.9-23.55-20.43-1.26-1.76-2.3-3.37-4.56-3.9-1.5-.36-2.86.54-3.27 1.98-2.32 11.41-.49 22.74 3.7 33.47-12.75 6.06-26.97 4.78-39.58-.92-17.34-7.87-30.98-23.55-37.67-41.25-4.27-11.59-5.94-24.73-2.8-36.81.39-2.08 1.02-3.95-.81-5.55-2.33-2.16-5.15-.46-7.54.64-7.11 3.79-14.47 8.08-20.14 13.86-2.26 2.17-4.02 4.68-6.1 6.99-4.86-9.64-5.97-20.29-4.73-30.92 1.96-13.23 7.54-25.62 15.66-36.2 10.12-13.14 23.76-23.61 39.11-29.9 13.01-5.31 27.17-7.47 41.13-5.48 2.34.31 4.8 1.2 7.14.97 1.97-1.4 3.95-3.18 2.09-5.65-4.72-6.65-6.5-14.68-5.65-22.75.66-7.61 3.52-16.01 9.1-21.43Z" fill="rgba(121, 106, 69, 1)"/><path d="M306.22 384.93c3 4.76 5.9 9.49 9.52 13.82-1.41 6.83-3.79 13.39-5.19 20.23-1.19 5.76-2.88 11.38-4.1 17.14-2.71-5.69-4.36-11.7-5.08-17.95-.96-11.48-.09-22.7 4.85-33.24Z" fill="rgba(121, 106, 69, 1)"/><path d="M718.52 576.52c2-.97 4.89.54 6.99.86 4.98 1.42 11.33.38 15.77 3.11-.68 3.94-1.37 7.58-.07 11.49 1.55 4.78 4.46 9.26 8.09 12.73 2.31 2.22 5.24 3.43 7.64 5.46.63 1.83.16 3.65-1.91 4.06-4.17.53-8.72-.74-12.83-1.45-9.89-2.16-20.9-4.07-29.82-9.04-2.15-1.37-5.67-3.16-6.21-5.88-.5-1.7.62-2.87 1.53-4.16 4.24-5.24 7.06-11.67 10.82-17.18Z" fill="#000"/><path d="M721.29 582c4.54 1.01 9.14 1.53 13.73 2.24-.96 9.38 3.55 16.92 9.62 23.59-10.51-2.6-23.31-4.53-32.26-10.92 3.33-4.82 6.06-9.82 8.91-14.91Z" fill="rgba(121, 106, 69, 1)"/></g></g></svg>