<svg xmlns:dc="http://purl.org/dc/elements/1.1/" xmlns:cc="http://creativecommons.org/ns#" xmlns:rdf="http://www.w3.org/1999/02/22-rdf-syntax-ns#" xmlns:svg="http://www.w3.org/2000/svg" xmlns="http://www.w3.org/2000/svg" viewBox="0 0 762 762" fill="none"><metadata><rdf:RDF><cc:Work><dc:format>image/svg+xml</dc:format><dc:type rdf:resource="http://purl.org/dc/dcmitype/StillImage"/><dc:title>Adventurer</dc:title><dc:creator><cc:Agent><dc:title>Lisa Wischofsky</dc:title></cc:Agent></dc:creator><dc:source>https://www.instagram.com/lischis_adventures/</dc:source><cc:license rdf:resource="https://creativecommons.org/licenses/by/4.0/"/></cc:Work><cc:License rdf:about="https://creativecommons.org/licenses/by/4.0/"><cc:permits rdf:resource="https://creativecommons.org/ns#Reproduction"/><cc:permits rdf:resource="https://creativecommons.org/ns#Distribution"/><cc:permits rdf:resource="https://creativecommons.org/ns#DerivativeWorks"/><cc:requires rdf:resource="https://creativecommons.org/ns#Notice"/><cc:requires rdf:resource="https://creativecommons.org/ns#Attribution"/></cc:License></rdf:RDF></metadata><mask id="avatarsRadiusMask"><rect width="762" height="762" rx="0" ry="0" x="0" y="0" fill="#fff"/></mask><g mask="url(#avatarsRadiusMask)"><path d="M396.01 164.85c37.82 4.9 74.21 19.64 104.8 42.39 6.15 4.84 12.48 9.33 18.02 14.92 23.77 21.98 42.73 49.02 55.13 78.95 9.35 22.31 14.72 46.04 16.64 70.14 6.62.81 13.05 2.14 19.12 5 15.54 6.93 27.08 20.94 31.78 37.21 2.63 9.56 3.56 19.75 1.72 29.55-2.96 18.76-13.72 36.13-29.37 46.92-10.94 7.65-24.49 12.03-37.86 11.68-5.13-.05-10.04-1.6-15.13-1.79-1.85 2.17-3.23 4.84-4.76 7.25-18.66 29.62-44.57 54.51-74.64 72.4-28.1 16.73-59.9 27.16-92.46 30.32-11.08.7-21.87 2.05-32.98.74-51.69-2.3-102.07-23.44-140.15-58.43-29.03-26.55-50.84-60.83-62.54-98.39-7.09-22.85-10.62-46.78-10.07-70.71.52-40.34 12.53-80.58 33.94-114.76 19.1-30.81 45.91-56.58 77.2-74.83 29.63-17.28 63.35-27.68 97.59-29.87 14.66-1.47 29.44-.37 44.02 1.31Z" fill="#000"/><path d="M363 169.06c48.47-1.39 97.32 14.7 135.81 44.12 6.55 4.06 11.72 9.49 17.36 14.64 24.33 22.63 43.2 50.95 54.93 82.02 7.43 19.61 11.86 40.2 13.56 61.09-8.89.74-17.34 2.34-25.38 6.38-2.19 1.03-1.89 4.95.68 5.23 2.35.23 4.98-1.51 7.24-2.2 14.62-5.37 31.32-4.35 44.78 3.68 11.69 6.78 20.09 18.16 23.89 31.06 2.6 8.25 2.68 17.41 1.76 25.95-2.5 17.35-12.35 33.73-26.73 43.81-15.71 11.33-37.17 14.64-54.93 6.2-3.17-1.43-5.94-3.58-9.08-5.05-2.95-1.09-4.88 2.79-2.7 4.75 3.17 2.76 7.34 4.52 11 6.56-20.14 34.15-49.45 62.7-84.41 81.47-30.2 16.31-64.44 25.53-98.78 26.15-27.63.72-55.33-4.04-81.21-13.72-30.32-11.24-57.84-29.43-80.37-52.6-22.67-23.37-39.92-51.88-50.2-82.77-14.96-44.64-14.91-94.01.27-138.59 11.05-33.06 30.28-63.21 55.37-87.39 29.67-28.73 67.65-48.54 108.13-56.67 12.8-2.52 25.94-4.24 39.01-4.12Z" fill="rgba(242, 211, 177, 1)"/><path d="M605.03 404.4c2.63-.1 3.44 3.8 1.36 4.98-3.69 1.83-7.82 2.77-11.64 4.35-5.82 2.04-11.28 4.76-16.68 7.72 4.29 2.34 8.86 4.74 12.71 7.76 2.58 2.09 4.85 4.35 5.33 7.8-.26 3.59-2.73 6.55-5.45 8.69-5.86 4.66-13.92 7.18-20.79 10.26-1.75.62-4.43 1.99-5.59-.26-1.02-1.74-.06-3.11 1.57-3.87 6.65-3.3 14.86-5.62 20.79-10.16 1.37-1.14 3.39-2.74 3.61-4.62-4.07-5.63-12.42-8.59-18.23-12.09-2.34-1.72-2.29-4.24-.16-6.13 7.27-5.64 16.98-9.26 25.57-12.38 2.42-.83 5.03-1.95 7.6-2.05Z" fill="#000"/><g transform="translate(-161 -83)"><path d="M589.95 433.05c11.85 6.92 21.04 17.51 26.71 29.97 5.93-3.13 11.67-6.68 17.68-9.63 1.79-.95 4.4.55 3.98 2.62.21 1.48-2.02 2.51-3.06 3.23-5.45 3-10.88 6.04-16.34 9.03 1.7 6.87 3.23 13.6 3.24 20.73-.06 12.85-3.69 25.61-10.87 36.3-7.59 11.54-18.88 20.44-31.79 25.28-12.26 4.43-25.85 5.28-38.5 2.03-16.54-4.02-31.31-14.98-40.01-29.6-6.06-9.89-9.33-21.42-9.3-33.01-.36-15.55 5.31-31.11 15.41-42.91 9.58-11.27 23.24-19.42 37.87-21.9 15.25-2.97 31.61-.02 44.98 7.86Z" fill="#000"/><path d="M549.2 430.27c15.9-1.97 31.74 2.27 44.36 12.14 14.46 11.18 23.27 29.28 22.81 47.59.02 22.44-13.8 43.89-34.2 53.21-10.96 5.08-23.24 7-35.17 4.83-16.66-2.69-31.92-12.91-40.74-27.3-5.36-8.64-8.37-18.58-8.98-28.72-.61-14.7 4.4-29.62 13.88-40.9 9.43-11.43 23.36-18.99 38.04-20.85Z" fill="#fff"/><path d="M390.01 446.91c12.75.68 25.11 5.93 34.43 14.65 10.09 9.4 16.54 22.67 17.29 36.47.83 11.45-1.96 22.93-8.01 32.68-8.01 13.08-21.63 22.43-36.73 25.14-13.17 2.48-27.29-.07-38.71-7.1-12.63-7.66-21.86-20.5-25-34.94-2.36-9.41-1.56-18.93 1.03-28.19-3.77-1.54-7.54-3.03-11.33-4.49-1.89-.79-4.01-1.45-5.35-3.09-.4-2.4.76-3.92 3.21-3.62 5.2 1.25 9.98 4.21 15.17 5.57 1.39-1.65 2.24-3.81 3.31-5.68 10.02-17.81 30.31-28.73 50.69-27.4Z" fill="#000"/><path d="M376.509 453.66c18.62-4.25 38.75 3.44 50 18.81 5.72 7.69 9.02 16.99 9.73 26.52.67 13.61-4.44 27.48-14.06 37.18-7.97 8.25-18.78 13.44-30.18 14.66-19.94 2.3-40.08-8.85-49.01-26.78-7.86-15.29-6.93-34.22 2.37-48.68 6.97-11.03 18.38-18.99 31.15-21.71Z" fill="#fff"/><path d="M578.28 465.43c6.24-.76 12.69.82 17.74 4.57 6.29 4.65 10.27 12.14 10.18 20.01-.35 4.78-1.83 9.65-4.57 13.62-4.1 6.13-11.27 10.06-18.6 10.54-8.21.49-16.42-3.28-21.25-9.97-6.02-7.97-6.24-19.8-.63-28.03 3.84-5.84 10.23-9.78 17.13-10.74ZM408.45 478.49c7.22-.86 14.79 2 19.61 7.47 4.03 4.47 6.02 10.02 5.74 16.04.04 12-10.69 22.79-22.8 22.28-12.1.09-22.88-10.05-22.87-22.26-.71-11.81 8.67-22.32 20.32-23.53Z" fill="#000"/></g><g transform="translate(-161 -83)"><path d="M582.3 370.69c14.06 7.04 27.75 17.35 36.57 30.53 2.05 2.95-1.4 6.24-4.23 4.15-10.56-6.54-22.24-11.16-34.46-13.42-35.66-6.86-74.47 5.14-98.23 33.03-1.67 2.05-4.03 3.59-6.28 1.25-1.68-2.6-2.27-6.05-3.3-8.95-1.92 4.71-3.86 9.5-6.21 14.02-1.55 3.23-6 1.12-7.03-1.42-3.06-6.88-6.21-13.74-9.02-20.73.01 5.63.01 11.25.04 16.88-.19 2.06.27 4.35-2.11 5.22-2.06.23-4.36-1.03-5.3-2.91-3.26-5.88-6.24-11.93-9.49-17.82.96 5.51 2.6 10.99 3.1 16.55.12 1.94-2.28 3.44-4.02 2.36-18.54-7.4-38.31-11.49-58.33-10.09-12.5.92-26.14 4.63-36 12.68-3.09 2.34-5.2 5.51-7.97 8.15-1.65.72-3.27-.24-4.88-.65.08-1.91.11-3.75.73-5.58 6.86-20.67 20.43-39.8 39.98-50.1 13.56-7.32 30.17-9.03 44.62-3.35 11.89 4.55 20.95 13.32 27.67 23.95 2.31-2.84 4.25-6.03 6.75-8.71 1.62-1.56 4.62-1.55 5.63.72 2.52 5.15 4.68 10.51 6.98 15.78 1.49-7.42 3.06-14.81 4.43-22.24.33-1.5.6-3.23 1.58-4.45 1.65-1.25 2.9-.28 4.65.1.27.86.53 1.71.8 2.56 2.08-4.75 4.75-9.11 8.44-12.78 9.1-9.43 21.82-14.25 34.5-16.48 23.85-3.69 48.86 1.12 70.39 11.75Z" fill="#000"/></g><g transform="translate(-161 -83)"><path d="M526 559.6c18.01-.01 37.23 2.15 53.99 9.09-52.2 7.17-107.15 15.07-158.98 22.2 8.03-6.99 17.68-12.32 27.44-16.47 12.23-5.1 26.26-9.18 39.59-7.43.98.15 1.86.04 2.63-.34 10.24-5.91 23.77-6.7 35.33-7.05Z" fill="#D31E1E"/><path d="M579.989 568.69c2.42 1 1.92 3.4 1.38 5.45-6.78 13.35-16.08 25.18-28.35 33.9-17.19 12.49-38.88 18.4-60.02 17.58-26.81-.96-53.07-12.04-73.44-29.31-.4-2.42-.49-3.71 1.45-5.42 51.83-7.13 106.78-15.03 158.98-22.2Z" fill="#000"/><path d="M581.371 574.14c-1.11 4.61-1.85 9.19-3.65 13.62-5.36 13.94-16.05 25.4-28.38 33.56-13.59 8.87-29.26 14.15-45.36 15.89-19.66 2.09-40.79-1.09-58.01-11.18-11.76-6.82-21.37-16.99-26.41-29.72 20.37 17.27 46.63 28.35 73.44 29.31 21.14.82 42.83-5.09 60.02-17.58 12.27-8.72 21.57-20.55 28.35-33.9Z" fill="#D31E1E"/><path d="M573.86 575.51c-8.17 15.05-20.98 27.46-36.37 34.99-12.46 6.12-26.6 9.44-40.49 9.19-24.71.18-49.01-9.01-68.58-23.87 47.93-6.59 97.73-13.8 145.44-20.31Z" fill="#fff"/></g><g transform="translate(-161 -83)"/><g transform="translate(-161 -83)"><path d="M710 136.07c13.24.24 26.31 5 36.52 13.46 1.21.98.91 2.91.06 4.06-1.68 1.03-3.69.41-5.59.35-5.65-.69-11.55.5-16.98 2.04-12.91 4-23.14 12.48-31.39 22.98 6.62-2.05 13.43-3.29 20.38-3.09 16.88.57 32.84 6.13 47.21 14.82 18.32 11.01 34.24 27.37 43.43 46.77 5.27 11.65 8.47 25.7 5.14 38.31-2.2 9.36-8.08 17.65-16.18 22.84-6.59 4.38-13.96 6.17-21.69 7.32 3.32 5.51 7 10.6 9.72 16.46 8.04 16.74 11.45 36.25 13.37 54.6.41 7.32.97 14.68 1.12 22.01-.55 10.16-.34 20-1.94 30.01-1.12 10.04-2.97 20.24-6.34 29.78-1.4 3.58-3.49 8.17-6.96 10.17-1.69 1.04-3.31-.29-4.82-1.01-8.3-5-18.1-7.98-27.83-7.83-.65 8.95-2.4 17.69-6.25 25.84-6.78 14.8-19.55 27.14-35.47 31.42-8.59 2.46-16.87 2.15-25.38-.38-2.04-.61-2.26-3.3-.64-4.51 2.68-2.35 5.58-4.22 7.77-7.1 8.39-10.46 13.01-24.19 14.59-37.38.84-9.95.76-21.37-4.69-30.14-1.66-2.86-4.4-4.04-6.58-6.33-.96-7.17-2.25-14.12-5.56-20.65-.97-2.35-2.76-4.66-1.35-7.22 1.6-3.26 3.65-6.32 5.49-9.46-3.46.37-6.58.53-9.29-2.02-5.15-4.91-8.49-12.05-10.29-18.85-1.17-4.41-3.25-8.8-3.76-13.33-.08-1.5.97-2.33 2.31-2.63 4.29-1.15 7.64-3.52 11.39-5.87 3.81-2.49 6.27-6.03 8.63-9.84-8.05.83-16.4.9-24.37-.59-10.85-2.17-19.93-7.21-29.66-12.17-4.69-2.61-9.12-4.82-11.86-9.69-10.78-2.65-21.55-5.27-32.22-8.35-17.6-4.85-34.63-10.57-53.04-11.33-16.11-.8-32.51 1.38-48.21 4.96-4.73 1-8.77 3.17-12.67 5.94l-2.67-1.38c.41-6.97 4.56-13.87 7.67-20-7.67 5.81-14.89 12.66-20.58 20.44-1.42 1.85-2.31 4.44-4 5.99-4.52 1.37-9.83.66-14.54.85-6.74.17-13.37-.63-20.07-1.04-6.19 1.86-11.99 5.3-18.07 7.56-13.36 5.04-27.07 7.99-41.33 5.23-3.68 3.89-7.04 7.95-10.11 12.34-7.81 11.18-14.82 22.89-20.91 35.1-6.07 11.54-9.84 23.62-13.9 35.96-1.37 4.85-1.94 9.87-3.31 14.73-1.13 3.95-1.29 8.03-2.03 12.04-2.22 2.37-6.51 2.96-9.33 4.68-8.18 4.56-15.12 11.87-20.67 19.34-7 9.62-12.85 20.82-15.26 32.54-.83 3.78-.5 7.48-.83 11.28-1.32 2.17-4.1 2.43-5.3.01-3.77-8.32-5.02-18.04-5.03-27.11.79-36.46 25.5-71.26 58.99-85.24-3.96-10.03-5.25-21.05-5.62-31.76-.47-10.63 1.6-20.68 3.7-31.02 2.92-12.75 7.5-25.03 15.02-35.81-6.42-1.12-12.34-3.39-16.99-8.12-7.72-7.59-10.19-17.56-10.82-28.05-.1-15.17 4.83-29.99 13.44-42.43 7.37-10.62 17.27-19.22 29.66-23.37 4.28-10.87 11.41-20.26 21.35-26.51 2.78-1.29 4.53-.47 5.85 2.17-1.59 4.44-2.38 8.51-2.63 13.24 6.06-4.32 12.94-6.47 20.16-7.88 10.58-2.31 22.01-1.74 32.35 1.42 8.19 2.84 16.56 8.86 19.97 17.09 3.72 7.78 3.18 17.56.27 25.52 16.58-4.98 34.1-8.19 51.45-7.69 10.21.01 20.53 1.25 30.36 4.05 6.91 1.86 13.54 5.68 19.64 9.38 3.03 1.77 5.19 4.13 7.08 7.04 18.97-6.26 38.97-9.12 58.93-8.11 10.32.59 20.63 2.74 30.57 5.53-1.71-4.19-3.11-8.47-3.84-12.95-2.28-11.66-.07-24.27 4.68-35.06 11.9-26.99 40.99-45.65 70.58-44.37Z" fill="#000"/><path d="M734.401 148.17c-16.04 1.07-30.95 9.91-41.59 21.65-17.71 19.52-25.76 47.45-19.11 73.21-8.69-4.65-17.76-8.81-27.11-11.92-4.55-7.56-7.05-16.26-6.84-25.11-.21-14.87 6.18-29.28 15.94-40.29 11.88-13.49 29.28-22.62 47.3-23.79 10.84-.95 21.74 1.27 31.41 6.25ZM362.87 174.96c-1.84 8.37-.76 16.47.06 24.85.69 8.34 3.06 16.76 5.61 24.7 2.72 8.97 8.47 17.4 13.62 25.2-1.29 1.61-2.42 4.14-4.39 4.96-5.84 2.7-11.59 5.56-17.04 9.02-4.27-2.03-7.61-5.28-10.35-9.08-4.99-7.95-7.69-17.22-7.81-26.61-.52-14.2 3.18-28.85 10.24-41.19 2.57-4.66 6.25-8.22 10.06-11.85Z" fill="rgba(106, 78, 53, 1)"/><path d="M404.001 178.78c8.4.2 16.5 1.88 23.36 6.96 4.73 3.18 7.86 7.78 9.32 13.26 2.07 7.36.52 14.84-3.23 21.35-12.48 4.24-25.88 8.9-37.05 15.96-4.04 2.44-7.53 5.52-10.78 8.92-4.76-6.99-9.51-14.57-11.91-22.74-3.33-10.58-5.66-21.23-5.66-32.38 2.74-2.49 4.97-5.03 8.49-6.47 8.66-3.64 18.08-5.37 27.46-4.86ZM764.53 200.49c15.71 11.23 29.31 26.77 36.12 45.01 3.12 8.1 4.28 16.89 3.17 25.51-1.21 9.14-6.42 17.62-14.22 22.6-6.57 4.24-14.94 6.67-22.76 6.48-2.52-2.13-4.53-4.77-7.24-6.73-10.48-8.08-22.99-13.92-34.4-20.67-14.78-8.2-29.09-17.25-43.86-25.47-7.8-18.71-4.23-41.47 5.26-58.93 6.52-3.8 13.64-6.1 21.22-6.39 19.95-1.35 40.7 7.15 56.71 18.59ZM340.61 200.33c-5.04 16.86-6.01 36.79 2.33 52.77 2.66 5.92 7.11 10.48 12.27 14.3-8.98 6.05-16.66 13.53-23.29 22.07-4.39-.4-8.5-.68-12.34-3.05-7.61-4.37-11.36-12.31-12.96-20.64-2.08-13.67 1.18-27.44 7.72-39.48 5.39-9.84 13.46-19.12 23.45-24.46.94-.51 1.87-1.01 2.82-1.51ZM503.959 217.04c6.11.36 12.13 1.53 17.99 3.26 5.63 1.57 11.09 4.69 16.18 7.56 2.36 1.29 4.26 3.07 6.09 5.01-7.57 3.32-14.98 6.87-21.87 11.47-13.74 9.11-25.18 20.91-34.61 34.39-1.71.52-3.35 1.05-4.8 2.13-11.52 7.87-22.38 18.04-29.59 30.07-9.41.52-18.95.19-28.3-1.05-9.76-1.03-20.34-3.08-28.83-8.24-6.48-3.82-11.59-10.08-15.34-16.52-1.41-2.17-1.67-5.83-3.87-7.26-2.44-.79-4.08 1.66-3.55 3.9 1.2 5.79 5.45 11.19 9.13 15.68 7.5 8.97 18.18 13.96 29.49 16.15-11.65 5.12-23.23 9.22-36.07 9.93-7.96.24-15.83-1.21-22.06-6.46-3.72-2.65-5.85-6.38-8.88-9.66-2.57 1.27-3.57 2.44-2.58 5.38 2.8 5.58 8.97 9.83 14.19 13.01-5.77 6.62-10.89 13.84-15.66 21.22-8.32 13.3-16.1 27.39-21.9 41.98-3.89-12.65-4.68-25.86-3.69-39 1.95-14.44 4.84-28.22 11.25-41.41a108.3 108.3 0 0 1 20.43-27.47c8.14-7.57 17.26-13.91 27.18-18.93.61 1.55.89 2.58 2.59 3.15 2.86-.25 3.57-2.44 4.94-4.52 4.1-7.17 8.75-13.67 15.69-18.34 8.01-5.44 17.23-9.29 26.29-12.62 25.05-9.27 53.35-16.26 80.16-12.81Z" fill="rgba(106, 78, 53, 1)"/><path d="M583.02 229.46c10.71-1.57 21.23-.99 31.99-.58 25.87 3.58 48.38 14.37 70.68 27.4 16.77 9.98 33.62 19.88 50.7 29.3 7.05 3.99 13.87 7.68 20.24 12.77 4.73 3.78 8.27 9.46 11.57 14.46 11.4 15.37 16.04 35.55 18.85 54.15 2.32 18.47 3.16 36.97 1.07 55.51-.65 8.18-1.64 16.51-3.53 24.5-1.35 5.98-2.77 11.67-6.3 16.79-9.26-5.87-20.31-9.31-31.31-9.16-.64-16.96-8.52-34.08-22.55-44.03-1.58-1.33-4.41-1.47-5.01.88-.71 2.66 1.52 3.45 3.14 4.97 8.58 6.54 14.31 16.46 17.01 26.8 6.09 22.99-2.99 49.92-23.16 63.07-8.5 5.65-18.19 7.59-28.3 6.76 11.45-11.72 17.49-28.01 19.39-44.06 1.01-6.99.87-14.09-.55-21.02-1.4-7.88-4.65-15.19-11.46-19.84-1.03-6.66-2.48-13.13-5.37-19.26-.51-1.5-1.59-2.81-.6-4.34 2.3-4.14 5.52-8.46 6.93-13.01.49-1.89-.24-4.37-2.43-4.7-2.98-.51-5.99 2.25-8.86 1.94-2.28-.98-3.94-3.68-5.24-5.7-4.23-6.51-4.97-13.3-7.83-20.73 5.2-3.17 11.54-6.11 15.53-10.74 3.03-3.34 4.96-7.17 6.92-11.18 12.03-2.49 22.51-9.09 30.18-18.64 1.31-1.7.7-4.52-1.73-4.54-1.89-.32-2.95 1.5-4.17 2.6-4.12 4.43-8.55 8.32-14.06 10.94-11.32 5.6-24.38 6.57-36.78 5.21-11.83-1.63-21.39-6.86-31.88-12.1-1.85-.97-3.61-2.07-5.38-3.19 6.7 1.35 13.47 2.05 20.27 2.59 11.12.98 22.49-.12 33.58-1.03 2.89-.36 2.75-2.12 2.96-4.55-2.2-.61-4.26-1.1-6.57-.82-11.36.83-22.64 1.53-34.01.34-23.1-2.28-46.78-9.57-69.15-15.79-17.69-5.12-35.26-8.8-53.8-7.66-13.99.86-27.98 3.33-41.67 6.28.31-1.79.74-3.44 1.69-5.02 9.83-17.03 22.32-32.16 38.33-43.73 17.97-12.7 38.9-19.48 60.67-21.84ZM315.949 399.62c-1.71 5.5-4.05 10.6-4.98 16.35-1.06 6.39-3.51 12.25-3.76 18.8-6.6 2.41-12.54 5.98-17.66 10.79-12.91 11.96-22.7 27.69-27.44 44.64-.47-5.41-.71-10.78-.3-16.21 3.11-31.89 24.67-61.71 54.14-74.37Z" fill="rgba(106, 78, 53, 1)"/><path d="M726.49 578.08c4.4.81 9.05.53 13.51.78 6.37.29 12.05-1.36 18.11-3 1.75-.5 3.08-.62 4.71.32 4.13 2.29 7.33 6.43 9.44 10.58 3.81 7.66 3.97 16.13 2.95 24.46-2.62 15.4-12.03 30.42-25.8 38.17-2.2 1.24-3.98 1.76-5.94-.25-.42-2.59 2.02-5.15 2.69-7.65 1.1-4.28.95-8.97.21-13.3-2.75-13.09-11.11-25-22.31-32.27-4.56-3.18-9.5-2.82-12.55-7.94 2.53-3.7 4.59-7.71 7.13-11.39 2.37-1.18 5.41 1.04 7.85 1.49Z" fill="#000"/><path d="M759.941 581.02c8.54 5.73 11.2 17.36 9.91 27-1.6 12.75-7.92 24.18-17.52 32.65 1.67-10.5-1.47-21.18-6.74-30.22-6.12-10.4-15.53-19.36-26.96-23.6.85-1.44 1.71-2.89 2.56-4.33 6.61 2.32 12.98 1.44 19.81 1.76 6.74.23 12.5-1.96 18.94-3.26Z" fill="rgba(106, 78, 53, 1)"/></g></g></svg>